<?xml version="1.0" encoding="utf-8"?>
<svg xmlns="http://www.w3.org/2000/svg" xmlns:xlink="http://www.w3.org/1999/xlink" width="600" height="400" viewBox="0 0 2400 1600">
<defs>
  <clipPath id="clip130">
    <rect x="0" y="0" width="2400" height="1600"/>
  </clipPath>
</defs>
<path clip-path="url(#clip130)" d="M0 1600 L2400 1600 L2400 0 L0 0  Z" fill="#ffffff" fill-rule="evenodd" fill-opacity="1"/>
<defs>
  <clipPath id="clip131">
    <rect x="480" y="0" width="1681" height="1600"/>
  </clipPath>
</defs>
<path clip-path="url(#clip130)" d="M175.445 1423.18 L2352.76 1423.18 L2352.76 123.472 L175.445 123.472  Z" fill="#ffffff" fill-rule="evenodd" fill-opacity="1"/>
<defs>
  <clipPath id="clip132">
    <rect x="175" y="123" width="2178" height="1301"/>
  </clipPath>
</defs>
<polyline clip-path="url(#clip132)" style="stroke:#000000; stroke-linecap:round; stroke-linejoin:round; stroke-width:2; stroke-opacity:0.1; fill:none" points="237.067,1423.18 237.067,123.472 "/>
<polyline clip-path="url(#clip132)" style="stroke:#000000; stroke-linecap:round; stroke-linejoin:round; stroke-width:2; stroke-opacity:0.1; fill:none" points="664.998,1423.18 664.998,123.472 "/>
<polyline clip-path="url(#clip132)" style="stroke:#000000; stroke-linecap:round; stroke-linejoin:round; stroke-width:2; stroke-opacity:0.1; fill:none" points="1092.93,1423.18 1092.93,123.472 "/>
<polyline clip-path="url(#clip132)" style="stroke:#000000; stroke-linecap:round; stroke-linejoin:round; stroke-width:2; stroke-opacity:0.1; fill:none" points="1520.86,1423.18 1520.86,123.472 "/>
<polyline clip-path="url(#clip132)" style="stroke:#000000; stroke-linecap:round; stroke-linejoin:round; stroke-width:2; stroke-opacity:0.1; fill:none" points="1948.79,1423.18 1948.79,123.472 "/>
<polyline clip-path="url(#clip132)" style="stroke:#000000; stroke-linecap:round; stroke-linejoin:round; stroke-width:2; stroke-opacity:0.1; fill:none" points="175.445,1364.5 2352.76,1364.5 "/>
<polyline clip-path="url(#clip132)" style="stroke:#000000; stroke-linecap:round; stroke-linejoin:round; stroke-width:2; stroke-opacity:0.1; fill:none" points="175.445,1145.55 2352.76,1145.55 "/>
<polyline clip-path="url(#clip132)" style="stroke:#000000; stroke-linecap:round; stroke-linejoin:round; stroke-width:2; stroke-opacity:0.1; fill:none" points="175.445,926.593 2352.76,926.593 "/>
<polyline clip-path="url(#clip132)" style="stroke:#000000; stroke-linecap:round; stroke-linejoin:round; stroke-width:2; stroke-opacity:0.1; fill:none" points="175.445,707.64 2352.76,707.64 "/>
<polyline clip-path="url(#clip132)" style="stroke:#000000; stroke-linecap:round; stroke-linejoin:round; stroke-width:2; stroke-opacity:0.1; fill:none" points="175.445,488.686 2352.76,488.686 "/>
<polyline clip-path="url(#clip132)" style="stroke:#000000; stroke-linecap:round; stroke-linejoin:round; stroke-width:2; stroke-opacity:0.1; fill:none" points="175.445,269.733 2352.76,269.733 "/>
<polyline clip-path="url(#clip130)" style="stroke:#000000; stroke-linecap:round; stroke-linejoin:round; stroke-width:4; stroke-opacity:1; fill:none" points="175.445,1423.18 2352.76,1423.18 "/>
<polyline clip-path="url(#clip130)" style="stroke:#000000; stroke-linecap:round; stroke-linejoin:round; stroke-width:4; stroke-opacity:1; fill:none" points="237.067,1423.18 237.067,1404.28 "/>
<polyline clip-path="url(#clip130)" style="stroke:#000000; stroke-linecap:round; stroke-linejoin:round; stroke-width:4; stroke-opacity:1; fill:none" points="664.998,1423.18 664.998,1404.28 "/>
<polyline clip-path="url(#clip130)" style="stroke:#000000; stroke-linecap:round; stroke-linejoin:round; stroke-width:4; stroke-opacity:1; fill:none" points="1092.93,1423.18 1092.93,1404.28 "/>
<polyline clip-path="url(#clip130)" style="stroke:#000000; stroke-linecap:round; stroke-linejoin:round; stroke-width:4; stroke-opacity:1; fill:none" points="1520.86,1423.18 1520.86,1404.28 "/>
<polyline clip-path="url(#clip130)" style="stroke:#000000; stroke-linecap:round; stroke-linejoin:round; stroke-width:4; stroke-opacity:1; fill:none" points="1948.79,1423.18 1948.79,1404.28 "/>
<path clip-path="url(#clip130)" d="M214.452 1454.1 Q210.84 1454.1 209.012 1457.66 Q207.206 1461.2 207.206 1468.33 Q207.206 1475.44 209.012 1479.01 Q210.84 1482.55 214.452 1482.55 Q218.086 1482.55 219.891 1479.01 Q221.72 1475.44 221.72 1468.33 Q221.72 1461.2 219.891 1457.66 Q218.086 1454.1 214.452 1454.1 M214.452 1450.39 Q220.262 1450.39 223.317 1455 Q226.396 1459.58 226.396 1468.33 Q226.396 1477.06 223.317 1481.67 Q220.262 1486.25 214.452 1486.25 Q208.641 1486.25 205.563 1481.67 Q202.507 1477.06 202.507 1468.33 Q202.507 1459.58 205.563 1455 Q208.641 1450.39 214.452 1450.39 Z" fill="#000000" fill-rule="nonzero" fill-opacity="1" /><path clip-path="url(#clip130)" d="M234.614 1479.7 L239.498 1479.7 L239.498 1485.58 L234.614 1485.58 L234.614 1479.7 Z" fill="#000000" fill-rule="nonzero" fill-opacity="1" /><path clip-path="url(#clip130)" d="M259.683 1454.1 Q256.072 1454.1 254.243 1457.66 Q252.437 1461.2 252.437 1468.33 Q252.437 1475.44 254.243 1479.01 Q256.072 1482.55 259.683 1482.55 Q263.317 1482.55 265.123 1479.01 Q266.951 1475.44 266.951 1468.33 Q266.951 1461.2 265.123 1457.66 Q263.317 1454.1 259.683 1454.1 M259.683 1450.39 Q265.493 1450.39 268.549 1455 Q271.627 1459.58 271.627 1468.33 Q271.627 1477.06 268.549 1481.67 Q265.493 1486.25 259.683 1486.25 Q253.873 1486.25 250.794 1481.67 Q247.738 1477.06 247.738 1468.33 Q247.738 1459.58 250.794 1455 Q253.873 1450.39 259.683 1450.39 Z" fill="#000000" fill-rule="nonzero" fill-opacity="1" /><path clip-path="url(#clip130)" d="M636.734 1481.64 L653.053 1481.64 L653.053 1485.58 L631.109 1485.58 L631.109 1481.64 Q633.771 1478.89 638.354 1474.26 Q642.961 1469.61 644.141 1468.27 Q646.387 1465.74 647.266 1464.01 Q648.169 1462.25 648.169 1460.56 Q648.169 1457.8 646.225 1456.07 Q644.303 1454.33 641.202 1454.33 Q639.003 1454.33 636.549 1455.09 Q634.118 1455.86 631.341 1457.41 L631.341 1452.69 Q634.165 1451.55 636.618 1450.97 Q639.072 1450.39 641.109 1450.39 Q646.479 1450.39 649.674 1453.08 Q652.868 1455.77 652.868 1460.26 Q652.868 1462.39 652.058 1464.31 Q651.271 1466.2 649.165 1468.8 Q648.586 1469.47 645.484 1472.69 Q642.382 1475.88 636.734 1481.64 Z" fill="#000000" fill-rule="nonzero" fill-opacity="1" /><path clip-path="url(#clip130)" d="M662.868 1479.7 L667.752 1479.7 L667.752 1485.58 L662.868 1485.58 L662.868 1479.7 Z" fill="#000000" fill-rule="nonzero" fill-opacity="1" /><path clip-path="url(#clip130)" d="M677.984 1451.02 L696.34 1451.02 L696.34 1454.96 L682.266 1454.96 L682.266 1463.43 Q683.285 1463.08 684.303 1462.92 Q685.322 1462.73 686.34 1462.73 Q692.127 1462.73 695.507 1465.9 Q698.886 1469.08 698.886 1474.49 Q698.886 1480.07 695.414 1483.17 Q691.942 1486.25 685.623 1486.25 Q683.447 1486.25 681.178 1485.88 Q678.933 1485.51 676.525 1484.77 L676.525 1480.07 Q678.609 1481.2 680.831 1481.76 Q683.053 1482.32 685.53 1482.32 Q689.535 1482.32 691.873 1480.21 Q694.211 1478.1 694.211 1474.49 Q694.211 1470.88 691.873 1468.77 Q689.535 1466.67 685.53 1466.67 Q683.655 1466.67 681.78 1467.08 Q679.928 1467.5 677.984 1468.38 L677.984 1451.02 Z" fill="#000000" fill-rule="nonzero" fill-opacity="1" /><path clip-path="url(#clip130)" d="M1060.09 1451.02 L1078.45 1451.02 L1078.45 1454.96 L1064.38 1454.96 L1064.38 1463.43 Q1065.39 1463.08 1066.41 1462.92 Q1067.43 1462.73 1068.45 1462.73 Q1074.24 1462.73 1077.62 1465.9 Q1081 1469.08 1081 1474.49 Q1081 1480.07 1077.52 1483.17 Q1074.05 1486.25 1067.73 1486.25 Q1065.56 1486.25 1063.29 1485.88 Q1061.04 1485.51 1058.63 1484.77 L1058.63 1480.07 Q1060.72 1481.2 1062.94 1481.76 Q1065.16 1482.32 1067.64 1482.32 Q1071.64 1482.32 1073.98 1480.21 Q1076.32 1478.1 1076.32 1474.49 Q1076.32 1470.88 1073.98 1468.77 Q1071.64 1466.67 1067.64 1466.67 Q1065.76 1466.67 1063.89 1467.08 Q1062.04 1467.5 1060.09 1468.38 L1060.09 1451.02 Z" fill="#000000" fill-rule="nonzero" fill-opacity="1" /><path clip-path="url(#clip130)" d="M1090.21 1479.7 L1095.09 1479.7 L1095.09 1485.58 L1090.21 1485.58 L1090.21 1479.7 Z" fill="#000000" fill-rule="nonzero" fill-opacity="1" /><path clip-path="url(#clip130)" d="M1115.28 1454.1 Q1111.67 1454.1 1109.84 1457.66 Q1108.03 1461.2 1108.03 1468.33 Q1108.03 1475.44 1109.84 1479.01 Q1111.67 1482.55 1115.28 1482.55 Q1118.91 1482.55 1120.72 1479.01 Q1122.55 1475.44 1122.55 1468.33 Q1122.55 1461.2 1120.72 1457.66 Q1118.91 1454.1 1115.28 1454.1 M1115.28 1450.39 Q1121.09 1450.39 1124.14 1455 Q1127.22 1459.58 1127.22 1468.33 Q1127.22 1477.06 1124.14 1481.67 Q1121.09 1486.25 1115.28 1486.25 Q1109.47 1486.25 1106.39 1481.67 Q1103.33 1477.06 1103.33 1468.33 Q1103.33 1459.58 1106.39 1455 Q1109.47 1450.39 1115.28 1450.39 Z" fill="#000000" fill-rule="nonzero" fill-opacity="1" /><path clip-path="url(#clip130)" d="M1487.18 1451.02 L1509.4 1451.02 L1509.4 1453.01 L1496.85 1485.58 L1491.97 1485.58 L1503.78 1454.96 L1487.18 1454.96 L1487.18 1451.02 Z" fill="#000000" fill-rule="nonzero" fill-opacity="1" /><path clip-path="url(#clip130)" d="M1518.52 1479.7 L1523.41 1479.7 L1523.41 1485.58 L1518.52 1485.58 L1518.52 1479.7 Z" fill="#000000" fill-rule="nonzero" fill-opacity="1" /><path clip-path="url(#clip130)" d="M1533.64 1451.02 L1551.99 1451.02 L1551.99 1454.96 L1537.92 1454.96 L1537.92 1463.43 Q1538.94 1463.08 1539.96 1462.92 Q1540.97 1462.73 1541.99 1462.73 Q1547.78 1462.73 1551.16 1465.9 Q1554.54 1469.08 1554.54 1474.49 Q1554.54 1480.07 1551.07 1483.17 Q1547.59 1486.25 1541.28 1486.25 Q1539.1 1486.25 1536.83 1485.88 Q1534.59 1485.51 1532.18 1484.77 L1532.18 1480.07 Q1534.26 1481.2 1536.48 1481.76 Q1538.71 1482.32 1541.18 1482.32 Q1545.19 1482.32 1547.53 1480.21 Q1549.86 1478.1 1549.86 1474.49 Q1549.86 1470.88 1547.53 1468.77 Q1545.19 1466.67 1541.18 1466.67 Q1539.31 1466.67 1537.43 1467.08 Q1535.58 1467.5 1533.64 1468.38 L1533.64 1451.02 Z" fill="#000000" fill-rule="nonzero" fill-opacity="1" /><path clip-path="url(#clip130)" d="M1900.86 1481.64 L1908.5 1481.64 L1908.5 1455.28 L1900.19 1456.95 L1900.19 1452.69 L1908.45 1451.02 L1913.13 1451.02 L1913.13 1481.64 L1920.77 1481.64 L1920.77 1485.58 L1900.86 1485.58 L1900.86 1481.64 Z" fill="#000000" fill-rule="nonzero" fill-opacity="1" /><path clip-path="url(#clip130)" d="M1940.21 1454.1 Q1936.6 1454.1 1934.77 1457.66 Q1932.97 1461.2 1932.97 1468.33 Q1932.97 1475.44 1934.77 1479.01 Q1936.6 1482.55 1940.21 1482.55 Q1943.85 1482.55 1945.65 1479.01 Q1947.48 1475.44 1947.48 1468.33 Q1947.48 1461.2 1945.65 1457.66 Q1943.85 1454.1 1940.21 1454.1 M1940.21 1450.39 Q1946.02 1450.39 1949.08 1455 Q1952.16 1459.58 1952.16 1468.33 Q1952.16 1477.06 1949.08 1481.67 Q1946.02 1486.25 1940.21 1486.25 Q1934.4 1486.25 1931.32 1481.67 Q1928.27 1477.06 1928.27 1468.33 Q1928.27 1459.58 1931.32 1455 Q1934.4 1450.39 1940.21 1450.39 Z" fill="#000000" fill-rule="nonzero" fill-opacity="1" /><path clip-path="url(#clip130)" d="M1960.38 1479.7 L1965.26 1479.7 L1965.26 1485.58 L1960.38 1485.58 L1960.38 1479.7 Z" fill="#000000" fill-rule="nonzero" fill-opacity="1" /><path clip-path="url(#clip130)" d="M1985.44 1454.1 Q1981.83 1454.1 1980 1457.66 Q1978.2 1461.2 1978.2 1468.33 Q1978.2 1475.44 1980 1479.01 Q1981.83 1482.55 1985.44 1482.55 Q1989.08 1482.55 1990.88 1479.01 Q1992.71 1475.44 1992.71 1468.33 Q1992.71 1461.2 1990.88 1457.66 Q1989.08 1454.1 1985.44 1454.1 M1985.44 1450.39 Q1991.25 1450.39 1994.31 1455 Q1997.39 1459.58 1997.39 1468.33 Q1997.39 1477.06 1994.31 1481.67 Q1991.25 1486.25 1985.44 1486.25 Q1979.63 1486.25 1976.56 1481.67 Q1973.5 1477.06 1973.5 1468.33 Q1973.5 1459.58 1976.56 1455 Q1979.63 1450.39 1985.44 1450.39 Z" fill="#000000" fill-rule="nonzero" fill-opacity="1" /><path clip-path="url(#clip130)" d="M1194.15 1509.74 Q1194.08 1510.93 1193.28 1510.99 Q1192.05 1511.06 1191.31 1511.22 Q1190.57 1511.35 1189.41 1511.83 Q1188.25 1512.31 1187.13 1513.47 Q1186 1514.63 1184.84 1516.47 L1161.1 1554.24 Q1160.68 1554.95 1160.33 1555.18 Q1160.01 1555.44 1159.27 1555.44 Q1158.59 1555.44 1158.33 1555.15 Q1158.08 1554.89 1157.95 1553.92 L1152.73 1513.21 Q1152.63 1512.47 1152.54 1512.15 Q1152.44 1511.83 1152.05 1511.51 Q1151.7 1511.19 1150.93 1511.09 Q1150.15 1510.99 1148.77 1510.99 Q1148.12 1510.99 1147.83 1510.96 Q1147.58 1510.93 1147.35 1510.77 Q1147.13 1510.57 1147.13 1510.19 Q1147.13 1509.61 1147.35 1509.32 Q1147.61 1509 1147.8 1508.96 Q1148.03 1508.93 1148.38 1508.93 Q1148.93 1508.93 1150.12 1509 Q1151.31 1509.06 1151.92 1509.06 Q1152.5 1509.06 1153.73 1509.09 Q1154.95 1509.12 1155.56 1509.12 Q1156.92 1509.12 1159.65 1509.03 Q1162.42 1508.93 1163.74 1508.93 Q1164.65 1508.93 1164.65 1509.67 Q1164.65 1510.57 1164.26 1510.8 Q1163.87 1510.99 1163 1510.99 Q1160.81 1510.99 1159.62 1511.54 Q1158.46 1512.09 1158.46 1512.96 L1162.94 1547.87 L1183.2 1515.66 Q1184.19 1514.15 1184.19 1513.15 Q1184.19 1511.22 1181.13 1510.99 Q1180.1 1510.99 1180.1 1510.19 Q1180.1 1509.61 1180.36 1509.32 Q1180.62 1509 1180.81 1508.96 Q1181.04 1508.93 1181.36 1508.93 Q1182.42 1508.93 1184.58 1509.03 Q1186.77 1509.12 1187.87 1509.12 Q1188.77 1509.12 1190.6 1509.03 Q1192.44 1508.93 1193.28 1508.93 Q1194.15 1508.93 1194.15 1509.74 Z" fill="#000000" fill-rule="nonzero" fill-opacity="1" /><path clip-path="url(#clip130)" d="M1212.52 1544.71 Q1212.52 1545.7 1211.71 1546.44 Q1210.92 1547.16 1210.06 1547.16 Q1209.27 1547.16 1208.78 1546.69 Q1208.3 1546.19 1208.3 1545.5 Q1208.3 1544.57 1209.09 1543.8 Q1209.88 1543.04 1210.81 1543.04 Q1211.57 1543.04 1212.05 1543.51 Q1212.52 1543.99 1212.52 1544.71 M1212.92 1566.96 Q1212.92 1567.14 1212.72 1567.86 Q1212.52 1568.56 1212.02 1569.64 Q1211.55 1570.7 1210.9 1571.69 Q1210.24 1572.68 1209.16 1573.38 Q1208.1 1574.08 1206.88 1574.08 Q1205.24 1574.08 1204.15 1573 Q1203.1 1571.92 1203.1 1570.29 Q1203.1 1569.41 1204.15 1566.6 Q1207.22 1558.39 1207.33 1558.05 Q1207.85 1556.77 1207.85 1555.64 Q1207.85 1555.12 1207.74 1554.81 Q1207.63 1554.47 1207.4 1554.36 Q1207.18 1554.22 1207.04 1554.2 Q1206.93 1554.18 1206.7 1554.18 Q1205.37 1554.18 1204.13 1555.53 Q1202.89 1556.88 1202.04 1559.9 Q1201.86 1560.46 1201.74 1560.6 Q1201.63 1560.74 1201.29 1560.74 Q1200.73 1560.71 1200.73 1560.26 Q1200.73 1560.13 1200.89 1559.61 Q1201.04 1559.07 1201.34 1558.26 Q1201.63 1557.42 1202.15 1556.56 Q1202.67 1555.69 1203.3 1554.92 Q1203.95 1554.15 1204.88 1553.66 Q1205.8 1553.16 1206.84 1553.16 Q1208.53 1553.16 1209.57 1554.27 Q1210.62 1555.35 1210.62 1556.95 Q1210.62 1557.83 1210.02 1559.38 Q1209.27 1561.41 1209 1562.07 L1207.2 1566.91 Q1206.54 1568.67 1206.34 1569.21 Q1206.16 1569.73 1206 1570.36 Q1205.87 1570.97 1205.87 1571.53 Q1205.87 1572.32 1206.12 1572.68 Q1206.39 1573.04 1206.97 1573.04 Q1208.6 1573.04 1209.79 1571.44 Q1210.99 1569.82 1211.68 1567.34 Q1211.71 1567.27 1211.73 1567.16 Q1211.91 1566.6 1212.09 1566.53 Q1212.18 1566.51 1212.36 1566.51 Q1212.92 1566.51 1212.92 1566.96 Z" fill="#000000" fill-rule="nonzero" fill-opacity="1" /><path clip-path="url(#clip130)" d="M1241.89 1566.96 Q1241.89 1567.14 1241.68 1567.84 Q1241.48 1568.54 1240.98 1569.62 Q1240.51 1570.7 1239.86 1571.69 Q1239.2 1572.66 1238.12 1573.38 Q1237.06 1574.08 1235.84 1574.08 Q1234.22 1574.08 1233.14 1573 Q1232.06 1571.92 1232.06 1570.29 Q1232.06 1569.39 1232.53 1568.15 Q1235.53 1560.15 1235.53 1557.4 Q1235.53 1554.18 1233.03 1554.18 Q1231.79 1554.18 1230.61 1554.65 Q1229.46 1555.1 1228.67 1555.73 Q1227.89 1556.36 1227.16 1557.24 Q1226.47 1558.1 1226.1 1558.68 Q1225.77 1559.25 1225.5 1559.81 L1224.91 1562.11 Q1224.77 1562.74 1224.12 1565.2 L1223.11 1569.37 Q1222.39 1572.48 1222.23 1572.77 Q1222 1573.41 1221.51 1573.74 Q1221.01 1574.08 1220.51 1574.08 Q1219.95 1574.08 1219.57 1573.74 Q1219.18 1573.41 1219.18 1572.82 Q1219.18 1572.73 1219.25 1572.39 Q1219.32 1572.05 1219.43 1571.58 Q1219.54 1571.11 1219.59 1570.84 L1222.27 1560.17 Q1222.77 1558.23 1222.88 1557.62 Q1223.02 1556.99 1223.02 1556.29 Q1223.02 1554.18 1221.57 1554.18 Q1220.4 1554.18 1219.63 1555.57 Q1218.87 1556.97 1218.21 1559.68 Q1218.01 1560.42 1217.88 1560.58 Q1217.76 1560.74 1217.43 1560.74 Q1216.86 1560.71 1216.86 1560.26 Q1216.86 1560.15 1217.04 1559.41 Q1217.22 1558.66 1217.56 1557.6 Q1217.92 1556.52 1218.26 1555.8 Q1218.55 1555.26 1218.71 1555.01 Q1218.89 1554.74 1219.32 1554.22 Q1219.77 1553.68 1220.36 1553.43 Q1220.96 1553.16 1221.71 1553.16 Q1223.38 1553.16 1224.59 1554.24 Q1225.81 1555.3 1225.97 1557.17 Q1228.97 1553.16 1233.16 1553.16 Q1235.64 1553.16 1237.06 1554.47 Q1238.48 1555.78 1238.48 1558.1 Q1238.48 1558.64 1238.37 1559.34 Q1238.28 1560.01 1238.05 1560.87 Q1237.85 1561.73 1237.67 1562.38 Q1237.49 1563.03 1237.13 1564.09 Q1236.77 1565.13 1236.61 1565.58 Q1236.45 1566.03 1236.07 1567.09 Q1235.71 1568.13 1235.66 1568.24 Q1234.83 1570.34 1234.83 1571.53 Q1234.83 1572.32 1235.08 1572.68 Q1235.35 1573.04 1235.93 1573.04 Q1237.51 1573.04 1238.68 1571.49 Q1239.88 1569.91 1240.65 1567.34 Q1240.83 1566.78 1240.92 1566.64 Q1241.03 1566.51 1241.34 1566.51 Q1241.89 1566.51 1241.89 1566.96 Z" fill="#000000" fill-rule="nonzero" fill-opacity="1" /><path clip-path="url(#clip130)" d="M1268.75 1537.5 Q1268.75 1526.35 1272.91 1517.37 Q1274.68 1513.6 1277.16 1510.44 Q1279.64 1507.29 1281.28 1505.9 Q1282.92 1504.52 1283.37 1504.52 Q1284.02 1504.52 1284.05 1505.16 Q1284.05 1505.48 1283.18 1506.29 Q1272.55 1517.11 1272.59 1537.5 Q1272.59 1557.95 1282.92 1568.35 Q1284.05 1569.48 1284.05 1569.83 Q1284.05 1570.48 1283.37 1570.48 Q1282.92 1570.48 1281.35 1569.16 Q1279.77 1567.84 1277.32 1564.81 Q1274.87 1561.78 1273.1 1558.08 Q1268.75 1549.09 1268.75 1537.5 Z" fill="#000000" fill-rule="nonzero" fill-opacity="1" /><path clip-path="url(#clip130)" d="M1291.44 1510.99 L1291.44 1508.93 Q1298.56 1509.12 1299.81 1509.12 Q1306.87 1509.12 1309.25 1508.93 L1309.25 1510.99 Q1303.84 1510.99 1303.84 1512.89 Q1303.84 1513.15 1304.23 1514.08 L1316.82 1547.38 L1328.9 1515.6 Q1329.22 1514.6 1329.22 1514.28 Q1329.22 1512.96 1327.99 1512.02 Q1326.8 1511.06 1324.42 1510.99 L1324.42 1508.93 Q1329.57 1509.12 1331.92 1509.12 Q1335.27 1509.12 1338.33 1508.93 L1338.33 1510.99 Q1332.79 1511.06 1331.15 1515.4 L1316.43 1554.18 Q1316.17 1554.99 1315.92 1555.21 Q1315.66 1555.44 1314.85 1555.44 Q1314.21 1555.44 1313.86 1555.18 Q1313.53 1554.92 1313.21 1553.99 L1297.91 1513.5 Q1297.27 1511.73 1296.11 1511.38 Q1294.95 1510.99 1291.44 1510.99 Z" fill="#000000" fill-rule="nonzero" fill-opacity="1" /><path clip-path="url(#clip130)" d="M1355.75 1569.83 Q1355.75 1569.51 1356.59 1568.7 Q1367.21 1557.88 1367.21 1537.5 Q1367.21 1517.05 1357 1506.71 Q1355.75 1505.52 1355.75 1505.16 Q1355.75 1504.52 1356.39 1504.52 Q1356.84 1504.52 1358.42 1505.84 Q1360.03 1507.16 1362.45 1510.19 Q1364.89 1513.21 1366.7 1516.92 Q1371.05 1525.9 1371.05 1537.5 Q1371.05 1548.64 1366.89 1557.63 Q1365.12 1561.39 1362.64 1564.55 Q1360.16 1567.71 1358.52 1569.09 Q1356.88 1570.48 1356.39 1570.48 Q1355.75 1570.48 1355.75 1569.83 Z" fill="#000000" fill-rule="nonzero" fill-opacity="1" /><polyline clip-path="url(#clip130)" style="stroke:#000000; stroke-linecap:round; stroke-linejoin:round; stroke-width:4; stroke-opacity:1; fill:none" points="175.445,1423.18 175.445,123.472 "/>
<polyline clip-path="url(#clip130)" style="stroke:#000000; stroke-linecap:round; stroke-linejoin:round; stroke-width:4; stroke-opacity:1; fill:none" points="175.445,1364.5 194.343,1364.5 "/>
<polyline clip-path="url(#clip130)" style="stroke:#000000; stroke-linecap:round; stroke-linejoin:round; stroke-width:4; stroke-opacity:1; fill:none" points="175.445,1145.55 194.343,1145.55 "/>
<polyline clip-path="url(#clip130)" style="stroke:#000000; stroke-linecap:round; stroke-linejoin:round; stroke-width:4; stroke-opacity:1; fill:none" points="175.445,926.593 194.343,926.593 "/>
<polyline clip-path="url(#clip130)" style="stroke:#000000; stroke-linecap:round; stroke-linejoin:round; stroke-width:4; stroke-opacity:1; fill:none" points="175.445,707.64 194.343,707.64 "/>
<polyline clip-path="url(#clip130)" style="stroke:#000000; stroke-linecap:round; stroke-linejoin:round; stroke-width:4; stroke-opacity:1; fill:none" points="175.445,488.686 194.343,488.686 "/>
<polyline clip-path="url(#clip130)" style="stroke:#000000; stroke-linecap:round; stroke-linejoin:round; stroke-width:4; stroke-opacity:1; fill:none" points="175.445,269.733 194.343,269.733 "/>
<path clip-path="url(#clip130)" d="M127.501 1350.3 Q123.89 1350.3 122.061 1353.86 Q120.255 1357.41 120.255 1364.54 Q120.255 1371.64 122.061 1375.21 Q123.89 1378.75 127.501 1378.75 Q131.135 1378.75 132.941 1375.21 Q134.769 1371.64 134.769 1364.54 Q134.769 1357.41 132.941 1353.86 Q131.135 1350.3 127.501 1350.3 M127.501 1346.6 Q133.311 1346.6 136.367 1351.2 Q139.445 1355.79 139.445 1364.54 Q139.445 1373.26 136.367 1377.87 Q133.311 1382.45 127.501 1382.45 Q121.691 1382.45 118.612 1377.87 Q115.556 1373.26 115.556 1364.54 Q115.556 1355.79 118.612 1351.2 Q121.691 1346.6 127.501 1346.6 Z" fill="#000000" fill-rule="nonzero" fill-opacity="1" /><path clip-path="url(#clip130)" d="M119.538 1158.89 L127.177 1158.89 L127.177 1132.53 L118.867 1134.19 L118.867 1129.93 L127.13 1128.27 L131.806 1128.27 L131.806 1158.89 L139.445 1158.89 L139.445 1162.83 L119.538 1162.83 L119.538 1158.89 Z" fill="#000000" fill-rule="nonzero" fill-opacity="1" /><path clip-path="url(#clip130)" d="M123.126 939.938 L139.445 939.938 L139.445 943.873 L117.501 943.873 L117.501 939.938 Q120.163 937.184 124.746 932.554 Q129.353 927.901 130.533 926.559 Q132.779 924.036 133.658 922.299 Q134.561 920.54 134.561 918.85 Q134.561 916.096 132.617 914.36 Q130.695 912.624 127.593 912.624 Q125.394 912.624 122.941 913.387 Q120.51 914.151 117.732 915.702 L117.732 910.98 Q120.556 909.846 123.01 909.267 Q125.464 908.688 127.501 908.688 Q132.871 908.688 136.066 911.374 Q139.26 914.059 139.26 918.549 Q139.26 920.679 138.45 922.6 Q137.663 924.499 135.556 927.091 Q134.978 927.762 131.876 930.98 Q128.774 934.174 123.126 939.938 Z" fill="#000000" fill-rule="nonzero" fill-opacity="1" /><path clip-path="url(#clip130)" d="M132.316 706.286 Q135.672 707.003 137.547 709.272 Q139.445 711.54 139.445 714.874 Q139.445 719.989 135.927 722.79 Q132.408 725.591 125.927 725.591 Q123.751 725.591 121.436 725.151 Q119.144 724.735 116.691 723.878 L116.691 719.364 Q118.635 720.499 120.95 721.077 Q123.265 721.656 125.788 721.656 Q130.186 721.656 132.478 719.92 Q134.792 718.184 134.792 714.874 Q134.792 711.818 132.64 710.105 Q130.51 708.369 126.691 708.369 L122.663 708.369 L122.663 704.527 L126.876 704.527 Q130.325 704.527 132.154 703.161 Q133.982 701.772 133.982 699.179 Q133.982 696.517 132.084 695.105 Q130.209 693.67 126.691 693.67 Q124.769 693.67 122.57 694.087 Q120.371 694.503 117.732 695.383 L117.732 691.216 Q120.394 690.476 122.709 690.105 Q125.047 689.735 127.107 689.735 Q132.431 689.735 135.533 692.165 Q138.635 694.573 138.635 698.693 Q138.635 701.564 136.992 703.554 Q135.348 705.522 132.316 706.286 Z" fill="#000000" fill-rule="nonzero" fill-opacity="1" /><path clip-path="url(#clip130)" d="M129.862 475.481 L118.056 493.93 L129.862 493.93 L129.862 475.481 M128.635 471.406 L134.515 471.406 L134.515 493.93 L139.445 493.93 L139.445 497.818 L134.515 497.818 L134.515 505.966 L129.862 505.966 L129.862 497.818 L114.26 497.818 L114.26 493.305 L128.635 471.406 Z" fill="#000000" fill-rule="nonzero" fill-opacity="1" /><path clip-path="url(#clip130)" d="M118.543 252.453 L136.899 252.453 L136.899 256.388 L122.825 256.388 L122.825 264.86 Q123.843 264.513 124.862 264.351 Q125.88 264.166 126.899 264.166 Q132.686 264.166 136.066 267.337 Q139.445 270.508 139.445 275.925 Q139.445 281.504 135.973 284.606 Q132.501 287.684 126.181 287.684 Q124.005 287.684 121.737 287.314 Q119.492 286.944 117.084 286.203 L117.084 281.504 Q119.168 282.638 121.39 283.194 Q123.612 283.749 126.089 283.749 Q130.093 283.749 132.431 281.643 Q134.769 279.536 134.769 275.925 Q134.769 272.314 132.431 270.208 Q130.093 268.101 126.089 268.101 Q124.214 268.101 122.339 268.518 Q120.487 268.934 118.543 269.814 L118.543 252.453 Z" fill="#000000" fill-rule="nonzero" fill-opacity="1" /><path clip-path="url(#clip130)" d="M19.6371 831.123 Q20.8288 831.188 20.8932 831.993 Q20.9576 833.216 21.1186 833.957 Q21.2474 834.698 21.7305 835.857 Q22.2136 837.017 23.373 838.144 Q24.5324 839.271 26.3682 840.431 L64.1456 864.166 Q64.8542 864.585 65.0796 864.939 Q65.3373 865.261 65.3373 866.002 Q65.3373 866.678 65.0474 866.936 Q64.7898 867.194 63.8236 867.322 L23.1154 872.54 Q22.3746 872.636 22.0526 872.733 Q21.7305 872.83 21.4085 873.216 Q21.0864 873.57 20.9898 874.343 Q20.8932 875.116 20.8932 876.501 Q20.8932 877.145 20.861 877.435 Q20.8288 877.693 20.6677 877.918 Q20.4745 878.144 20.088 878.144 Q19.5083 878.144 19.2185 877.918 Q18.8964 877.661 18.8642 877.467 Q18.832 877.242 18.832 876.888 Q18.832 876.34 18.8964 875.149 Q18.9608 873.957 18.9608 873.345 Q18.9608 872.765 18.993 871.541 Q19.0252 870.318 19.0252 869.706 Q19.0252 868.353 18.9286 865.616 Q18.832 862.846 18.832 861.525 Q18.832 860.624 19.5727 860.624 Q20.4745 860.624 20.6999 861.01 Q20.8932 861.397 20.8932 862.266 Q20.8932 864.456 21.4407 865.648 Q21.9882 866.807 22.8577 866.807 L57.7689 862.331 L25.563 842.073 Q24.0494 841.075 23.051 841.075 Q21.1186 841.075 20.8932 844.134 Q20.8932 845.165 20.088 845.165 Q19.5083 845.165 19.2185 844.907 Q18.8964 844.65 18.8642 844.456 Q18.832 844.231 18.832 843.909 Q18.832 842.846 18.9286 840.688 Q19.0252 838.498 19.0252 837.403 Q19.0252 836.501 18.9286 834.666 Q18.832 832.83 18.832 831.993 Q18.832 831.123 19.6371 831.123 Z" fill="#000000" fill-rule="nonzero" fill-opacity="1" /><path clip-path="url(#clip130)" d="M68.8357 824.541 Q62.0499 824.541 58.3527 822.828 Q52.8519 820.438 52.8519 814.802 Q52.8519 813.607 53.1901 812.367 Q53.5057 811.105 54.7456 809.527 Q55.9855 807.926 58.0145 806.957 Q61.9372 805.108 68.8357 805.108 Q75.5764 805.108 79.2511 806.821 Q84.6165 809.324 84.6165 814.847 Q84.6165 816.921 83.557 819.04 Q82.4974 821.137 79.9499 822.467 Q76.14 824.541 68.8357 824.541 M68.2721 820.709 Q75.2382 820.709 78.0111 820.213 Q81.0095 819.649 82.317 818.116 Q83.6021 816.561 83.6021 814.847 Q83.6021 812.999 82.2269 811.466 Q80.8291 809.91 77.8308 809.437 Q74.8775 808.918 68.2721 808.941 Q61.847 808.941 59.277 809.392 Q56.2786 810 55.0838 811.623 Q53.8664 813.224 53.8664 814.847 Q53.8664 815.456 54.0467 816.11 Q54.2271 816.741 54.7456 817.665 Q55.2641 818.59 56.5491 819.311 Q57.8342 820.01 59.7729 820.348 Q62.2753 820.709 68.2721 820.709 Z" fill="#000000" fill-rule="nonzero" fill-opacity="1" /><path clip-path="url(#clip130)" d="M47.3986 780.831 Q36.2554 780.831 27.2699 776.677 Q23.5019 774.905 20.3457 772.425 Q17.1895 769.946 15.8047 768.303 Q14.4198 766.661 14.4198 766.21 Q14.4198 765.566 15.0639 765.533 Q15.386 765.533 16.1911 766.403 Q27.0123 777.031 47.3986 776.999 Q67.8493 776.999 78.2518 766.661 Q79.379 765.533 79.7333 765.533 Q80.3774 765.533 80.3774 766.21 Q80.3774 766.661 79.057 768.239 Q77.7365 769.817 74.7092 772.264 Q71.6818 774.712 67.9781 776.483 Q58.9927 780.831 47.3986 780.831 Z" fill="#000000" fill-rule="nonzero" fill-opacity="1" /><path clip-path="url(#clip130)" d="M20.8932 758.144 L18.832 758.144 Q19.0252 751.026 19.0252 749.77 Q19.0252 742.717 18.832 740.334 L20.8932 740.334 Q20.8932 745.745 22.7933 745.745 Q23.051 745.745 23.9849 745.358 L57.2858 732.766 L25.4986 720.688 Q24.5002 720.366 24.1782 720.366 Q22.8577 720.366 21.9238 721.59 Q20.9576 722.782 20.8932 725.165 L18.832 725.165 Q19.0252 720.012 19.0252 717.661 Q19.0252 714.312 18.832 711.252 L20.8932 711.252 Q20.9576 716.791 25.3054 718.434 L64.0812 733.152 Q64.8864 733.41 65.1118 733.667 Q65.3373 733.925 65.3373 734.73 Q65.3373 735.374 65.0796 735.729 Q64.822 736.051 63.888 736.373 L23.4052 751.67 Q21.6339 752.315 21.2796 753.474 Q20.8932 754.633 20.8932 758.144 Z" fill="#000000" fill-rule="nonzero" fill-opacity="1" /><path clip-path="url(#clip130)" d="M79.7333 693.836 Q79.4112 693.836 78.6061 692.998 Q67.7849 682.37 47.3986 682.37 Q26.9479 682.37 16.6098 692.58 Q15.4182 693.836 15.0639 693.836 Q14.4198 693.836 14.4198 693.192 Q14.4198 692.741 15.7402 691.163 Q17.0607 689.552 20.088 687.137 Q23.1154 684.689 26.8191 682.886 Q35.8045 678.538 47.3986 678.538 Q58.5418 678.538 67.5273 682.692 Q71.2953 684.464 74.4515 686.944 Q77.6077 689.424 78.9926 691.066 Q80.3774 692.709 80.3774 693.192 Q80.3774 693.836 79.7333 693.836 Z" fill="#000000" fill-rule="nonzero" fill-opacity="1" /><path clip-path="url(#clip130)" d="M1041.34 14.1709 Q1041.25 15.6875 1040.23 15.7694 Q1038.67 15.8514 1037.73 16.0564 Q1036.79 16.2203 1035.31 16.8352 Q1033.83 17.45 1032.4 18.9256 Q1030.97 20.4012 1029.49 22.7376 L999.281 70.818 Q998.748 71.7198 998.297 72.0067 Q997.887 72.3346 996.945 72.3346 Q996.084 72.3346 995.756 71.9657 Q995.428 71.6378 995.264 70.4081 L988.624 18.5977 Q988.501 17.6549 988.378 17.2451 Q988.255 16.8352 987.763 16.4253 Q987.312 16.0154 986.328 15.8924 Q985.345 15.7694 983.582 15.7694 Q982.762 15.7694 982.393 15.7284 Q982.066 15.6875 981.779 15.4825 Q981.492 15.2366 981.492 14.7447 Q981.492 14.0069 981.779 13.638 Q982.107 13.2281 982.352 13.1871 Q982.639 13.1461 983.09 13.1461 Q983.787 13.1461 985.304 13.2281 Q986.82 13.3101 987.599 13.3101 Q988.337 13.3101 989.894 13.3511 Q991.452 13.3921 992.231 13.3921 Q993.952 13.3921 997.436 13.2691 Q1000.96 13.1461 1002.64 13.1461 Q1003.79 13.1461 1003.79 14.0889 Q1003.79 15.2366 1003.3 15.5235 Q1002.81 15.7694 1001.7 15.7694 Q998.912 15.7694 997.396 16.4663 Q995.92 17.1631 995.92 18.2698 L1001.62 62.7022 L1027.4 21.7129 Q1028.67 19.7864 1028.67 18.5157 Q1028.67 16.0564 1024.78 15.7694 Q1023.46 15.7694 1023.46 14.7447 Q1023.46 14.0069 1023.79 13.638 Q1024.12 13.2281 1024.37 13.1871 Q1024.65 13.1461 1025.06 13.1461 Q1026.42 13.1461 1029.16 13.2691 Q1031.95 13.3921 1033.34 13.3921 Q1034.49 13.3921 1036.83 13.2691 Q1039.16 13.1461 1040.23 13.1461 Q1041.34 13.1461 1041.34 14.1709 Z" fill="#000000" fill-rule="nonzero" fill-opacity="1" /><path clip-path="url(#clip130)" d="M1074.88 71.7076 Q1074.88 74.8351 1073.5 77.9339 Q1072.13 81.004 1069.92 83.2994 Q1067.74 85.5661 1064.87 87.0007 Q1062 88.4066 1059.13 88.4066 Q1055.03 88.4066 1052.36 85.6234 Q1049.72 82.8116 1049.72 78.4503 Q1049.72 74.376 1051.98 70.5025 Q1054.28 66.6003 1057.95 64.1901 Q1061.62 61.78 1065.47 61.78 Q1069.52 61.78 1072.18 64.5058 Q1074.88 67.2316 1074.88 71.7076 M1070.58 69.4122 Q1070.58 66.629 1069.23 64.8501 Q1067.88 63.0711 1065.41 63.0711 Q1064.69 63.0711 1063.86 63.3007 Q1063.03 63.5015 1061.94 64.0467 Q1060.88 64.5918 1059.67 65.7395 Q1058.5 66.8586 1057.46 68.4653 Q1056.12 70.5886 1055.08 74.4908 Q1054.08 78.3642 1054.08 80.6883 Q1054.08 83.9019 1055.57 85.5087 Q1057.06 87.0868 1059.19 87.0868 Q1061.25 87.0868 1063.43 85.6521 Q1065.64 84.1888 1067.16 81.6926 Q1068.68 79.1102 1069.63 75.3228 Q1070.58 71.5067 1070.58 69.4122 Z" fill="#000000" fill-rule="nonzero" fill-opacity="1" /><path clip-path="url(#clip130)" d="M1105.77 36.9199 L1105.77 34.2966 Q1109.55 34.5425 1113.93 34.5425 Q1115.53 34.5425 1123.07 34.2966 L1123.07 36.9199 Q1118.28 36.9199 1118.28 39.0923 Q1118.28 39.4203 1118.77 40.527 L1128.2 63.9318 L1136.76 42.5354 Q1137.25 41.1008 1137.25 40.527 Q1137.25 39.0923 1136.27 38.0676 Q1135.33 37.0019 1133.24 36.9199 L1133.24 34.2966 Q1137.5 34.5425 1140.53 34.5425 Q1143.98 34.5425 1146.8 34.2966 L1146.8 36.9199 Q1144.3 36.9199 1142.54 38.0676 Q1140.78 39.1743 1140.21 40.1581 Q1139.67 41.1008 1139.1 42.5354 L1128.11 69.8343 Q1127.46 71.4329 1126.35 71.4329 Q1125.61 71.4329 1125.29 71.105 Q1125 70.818 1124.59 69.8343 L1112.5 40.0351 Q1111.68 37.9446 1110.61 37.4528 Q1109.55 36.9199 1105.77 36.9199 Z" fill="#000000" fill-rule="nonzero" fill-opacity="1" /><path clip-path="url(#clip130)" d="M1151.56 69.3834 L1151.56 58.3163 Q1151.56 57.3736 1151.6 57.0456 Q1151.64 56.7177 1151.89 56.4718 Q1152.14 56.2259 1152.63 56.2259 Q1153.2 56.2259 1153.41 56.4718 Q1153.65 56.7177 1153.82 57.6605 Q1155.09 63.44 1157.79 66.5142 Q1160.54 69.5474 1165.5 69.5474 Q1170.21 69.5474 1172.59 67.4569 Q1174.97 65.3665 1174.97 61.9234 Q1174.97 55.775 1166.24 54.2174 Q1161.19 53.1926 1159.1 52.5368 Q1157.01 51.84 1155.17 50.3234 Q1151.56 47.3722 1151.56 43.1913 Q1151.56 39.0104 1154.72 35.9362 Q1157.92 32.862 1164.97 32.862 Q1169.68 32.862 1172.88 35.2393 Q1173.82 34.5015 1174.31 33.8867 Q1175.42 32.862 1175.99 32.862 Q1176.65 32.862 1176.77 33.3128 Q1176.89 33.7227 1176.89 34.9114 L1176.89 43.3552 Q1176.89 44.298 1176.85 44.6259 Q1176.81 44.9538 1176.57 45.1997 Q1176.32 45.4047 1175.79 45.4047 Q1174.84 45.4047 1174.8 44.6259 Q1174.15 34.4605 1164.97 34.4605 Q1160.01 34.4605 1157.79 36.387 Q1155.58 38.2726 1155.58 40.8549 Q1155.58 42.2895 1156.23 43.3962 Q1156.93 44.4619 1157.79 45.1178 Q1158.69 45.7326 1160.33 46.3474 Q1161.97 46.9213 1162.96 47.1262 Q1163.98 47.3312 1165.91 47.7411 Q1172.63 49.0117 1175.46 51.758 Q1178.98 55.2831 1178.98 59.7509 Q1178.98 64.7106 1175.62 68.0718 Q1172.26 71.4329 1165.5 71.4329 Q1160.05 71.4329 1156.23 67.7848 Q1155.74 68.2767 1155.37 68.7276 Q1155.01 69.1375 1154.84 69.3014 Q1154.72 69.4654 1154.68 69.5884 Q1154.64 69.6703 1154.55 69.7523 Q1152.87 71.4329 1152.46 71.4329 Q1151.81 71.4329 1151.69 70.982 Q1151.56 70.5721 1151.56 69.3834 Z" fill="#000000" fill-rule="nonzero" fill-opacity="1" /><path clip-path="url(#clip130)" d="M1185.55 69.1375 Q1184.28 67.7848 1184.28 66.0223 Q1184.28 64.2598 1185.55 62.9891 Q1186.82 61.6774 1188.75 61.6774 Q1190.59 61.6774 1191.82 62.9071 Q1193.1 64.0958 1193.1 66.0633 Q1193.1 67.9898 1191.74 69.2604 Q1190.43 70.4901 1188.75 70.4901 Q1186.82 70.4901 1185.55 69.1375 Z" fill="#000000" fill-rule="nonzero" fill-opacity="1" /><path clip-path="url(#clip130)" d="M1280.53 14.1709 Q1280.45 15.6875 1279.43 15.7694 Q1277.87 15.8514 1276.93 16.0564 Q1275.99 16.2203 1274.51 16.8352 Q1273.03 17.45 1271.6 18.9256 Q1270.16 20.4012 1268.69 22.7376 L1238.48 70.818 Q1237.95 71.7198 1237.5 72.0067 Q1237.09 72.3346 1236.14 72.3346 Q1235.28 72.3346 1234.95 71.9657 Q1234.63 71.6378 1234.46 70.4081 L1227.82 18.5977 Q1227.7 17.6549 1227.58 17.2451 Q1227.45 16.8352 1226.96 16.4253 Q1226.51 16.0154 1225.53 15.8924 Q1224.54 15.7694 1222.78 15.7694 Q1221.96 15.7694 1221.59 15.7284 Q1221.26 15.6875 1220.98 15.4825 Q1220.69 15.2366 1220.69 14.7447 Q1220.69 14.0069 1220.98 13.638 Q1221.31 13.2281 1221.55 13.1871 Q1221.84 13.1461 1222.29 13.1461 Q1222.99 13.1461 1224.5 13.2281 Q1226.02 13.3101 1226.8 13.3101 Q1227.54 13.3101 1229.09 13.3511 Q1230.65 13.3921 1231.43 13.3921 Q1233.15 13.3921 1236.64 13.2691 Q1240.16 13.1461 1241.84 13.1461 Q1242.99 13.1461 1242.99 14.0889 Q1242.99 15.2366 1242.5 15.5235 Q1242.01 15.7694 1240.9 15.7694 Q1238.11 15.7694 1236.59 16.4663 Q1235.12 17.1631 1235.12 18.2698 L1240.82 62.7022 L1266.6 21.7129 Q1267.87 19.7864 1267.87 18.5157 Q1267.87 16.0564 1263.98 15.7694 Q1262.66 15.7694 1262.66 14.7447 Q1262.66 14.0069 1262.99 13.638 Q1263.32 13.2281 1263.57 13.1871 Q1263.85 13.1461 1264.26 13.1461 Q1265.61 13.1461 1268.36 13.2691 Q1271.15 13.3921 1272.54 13.3921 Q1273.69 13.3921 1276.03 13.2691 Q1278.36 13.1461 1279.43 13.1461 Q1280.53 13.1461 1280.53 14.1709 Z" fill="#000000" fill-rule="nonzero" fill-opacity="1" /><path clip-path="url(#clip130)" d="M1303.92 58.6787 Q1303.92 59.9412 1302.89 60.8881 Q1301.89 61.8062 1300.79 61.8062 Q1299.79 61.8062 1299.16 61.2037 Q1298.56 60.5724 1298.56 59.683 Q1298.56 58.5066 1299.56 57.531 Q1300.57 56.5555 1301.74 56.5555 Q1302.72 56.5555 1303.32 57.158 Q1303.92 57.7606 1303.92 58.6787 M1304.44 86.9982 Q1304.44 87.2278 1304.18 88.1459 Q1303.92 89.0354 1303.29 90.4126 Q1302.69 91.7612 1301.86 93.0236 Q1301.02 94.2861 1299.65 95.1756 Q1298.3 96.0651 1296.75 96.0651 Q1294.65 96.0651 1293.28 94.6878 Q1291.93 93.3106 1291.93 91.2447 Q1291.93 90.1257 1293.28 86.5391 Q1297.18 76.0951 1297.32 75.6647 Q1297.98 74.0292 1297.98 72.5946 Q1297.98 71.9347 1297.84 71.533 Q1297.7 71.1026 1297.41 70.9591 Q1297.12 70.787 1296.95 70.7583 Q1296.81 70.7296 1296.52 70.7296 Q1294.83 70.7296 1293.25 72.4511 Q1291.67 74.1727 1290.58 78.0175 Q1290.35 78.7348 1290.21 78.9069 Q1290.06 79.0791 1289.63 79.0791 Q1288.92 79.0504 1288.92 78.4766 Q1288.92 78.3044 1289.12 77.6445 Q1289.32 76.9559 1289.69 75.9229 Q1290.06 74.8613 1290.72 73.771 Q1291.38 72.652 1292.19 71.6764 Q1293.02 70.7009 1294.2 70.0697 Q1295.37 69.4384 1296.69 69.4384 Q1298.84 69.4384 1300.16 70.8443 Q1301.51 72.2216 1301.51 74.2588 Q1301.51 75.3778 1300.74 77.3575 Q1299.79 79.9399 1299.45 80.772 L1297.15 86.9408 Q1296.32 89.1789 1296.06 89.8675 Q1295.83 90.5274 1295.63 91.3308 Q1295.46 92.1055 1295.46 92.8228 Q1295.46 93.827 1295.77 94.2861 Q1296.12 94.7452 1296.86 94.7452 Q1298.93 94.7452 1300.45 92.708 Q1301.97 90.6422 1302.86 87.486 Q1302.89 87.3999 1302.92 87.2565 Q1303.15 86.5391 1303.38 86.4531 Q1303.49 86.4244 1303.72 86.4244 Q1304.44 86.4244 1304.44 86.9982 Z" fill="#000000" fill-rule="nonzero" fill-opacity="1" /><path clip-path="url(#clip130)" d="M1341.3 86.9982 Q1341.3 87.2278 1341.04 88.1172 Q1340.78 89.0067 1340.15 90.3839 Q1339.55 91.7612 1338.72 93.0236 Q1337.88 94.2574 1336.51 95.1756 Q1335.16 96.0651 1333.61 96.0651 Q1331.54 96.0651 1330.17 94.6878 Q1328.79 93.3106 1328.79 91.2447 Q1328.79 90.097 1329.39 88.5189 Q1333.21 78.3331 1333.21 74.8326 Q1333.21 70.7296 1330.02 70.7296 Q1328.44 70.7296 1326.95 71.3321 Q1325.49 71.906 1324.48 72.7094 Q1323.48 73.5128 1322.56 74.6318 Q1321.67 75.7221 1321.21 76.4681 Q1320.78 77.1854 1320.44 77.9027 L1319.69 80.8293 Q1319.52 81.6327 1318.69 84.7602 L1317.4 90.0683 Q1316.48 94.0279 1316.28 94.4009 Q1315.99 95.2043 1315.36 95.6347 Q1314.73 96.0651 1314.1 96.0651 Q1313.38 96.0651 1312.89 95.6347 Q1312.4 95.2043 1312.4 94.4583 Q1312.4 94.3435 1312.49 93.9131 Q1312.58 93.4827 1312.72 92.8802 Q1312.86 92.2776 1312.92 91.9333 L1316.34 78.3618 Q1316.97 75.8942 1317.11 75.1195 Q1317.28 74.3161 1317.28 73.4267 Q1317.28 70.7296 1315.45 70.7296 Q1313.95 70.7296 1312.98 72.5085 Q1312 74.2874 1311.17 77.7305 Q1310.91 78.6774 1310.74 78.8782 Q1310.6 79.0791 1310.17 79.0791 Q1309.45 79.0504 1309.45 78.4766 Q1309.45 78.3331 1309.68 77.3862 Q1309.91 76.4394 1310.34 75.0908 Q1310.8 73.7136 1311.23 72.7954 Q1311.6 72.1068 1311.8 71.7912 Q1312.03 71.4469 1312.58 70.787 Q1313.15 70.0983 1313.9 69.7827 Q1314.67 69.4384 1315.62 69.4384 Q1317.74 69.4384 1319.29 70.8157 Q1320.84 72.1642 1321.04 74.5457 Q1324.86 69.4384 1330.19 69.4384 Q1333.35 69.4384 1335.16 71.1026 Q1336.97 72.7667 1336.97 75.7221 Q1336.97 76.4107 1336.82 77.3002 Q1336.71 78.1609 1336.42 79.2513 Q1336.16 80.3416 1335.93 81.1736 Q1335.7 82.0057 1335.24 83.3543 Q1334.78 84.6741 1334.58 85.248 Q1334.38 85.8218 1333.9 87.1704 Q1333.44 88.4902 1333.38 88.6337 Q1332.32 91.3021 1332.32 92.8228 Q1332.32 93.827 1332.63 94.2861 Q1332.98 94.7452 1333.72 94.7452 Q1335.73 94.7452 1337.22 92.7654 Q1338.74 90.7569 1339.72 87.486 Q1339.95 86.7687 1340.06 86.5965 Q1340.21 86.4244 1340.61 86.4244 Q1341.3 86.4244 1341.3 86.9982 Z" fill="#000000" fill-rule="nonzero" fill-opacity="1" /><path clip-path="url(#clip130)" d="M1397.67 84.1805 Q1402.14 84.1805 1403.16 83.6067 Q1404.23 83.0738 1404.23 80.4095 L1404.23 41.1008 Q1404.23 38.3135 1403.16 37.6167 Q1402.14 36.9199 1397.67 36.9199 L1397.67 34.2966 L1409.76 33.3948 L1409.76 38.9284 Q1414.8 33.3948 1421.52 33.3948 Q1428.66 33.3948 1433.86 38.9284 Q1439.07 44.4619 1439.07 52.3729 Q1439.07 60.3658 1433.53 65.8993 Q1428 71.4329 1420.33 71.4329 Q1416.15 71.4329 1413.33 69.3014 Q1410.54 67.129 1410.01 65.5304 L1410.01 66.3092 L1410.01 80.4095 Q1410.01 83.1148 1411.07 83.6477 Q1412.14 84.1805 1416.56 84.1805 L1416.56 86.7629 Q1407.75 86.5169 1407.1 86.5169 Q1406.28 86.5169 1397.67 86.7629 L1397.67 84.1805 M1410.01 60.9396 Q1410.01 62.2103 1410.17 62.6612 Q1410.37 63.1121 1411.19 64.4647 Q1414.51 69.5474 1419.93 69.5474 Q1419.97 69.5474 1420.01 69.5474 Q1424.8 69.5474 1428.45 64.6696 Q1432.1 59.7509 1432.1 52.3729 Q1432.1 45.3227 1428.78 40.404 Q1425.46 35.4853 1420.87 35.4853 Q1417.59 35.4853 1414.72 37.2478 Q1411.85 39.0104 1410.01 42.2075 L1410.01 60.9396 Z" fill="#000000" fill-rule="nonzero" fill-opacity="1" /><path clip-path="url(#clip130)" d="M1450.5 70.4901 L1450.5 67.9078 Q1454.97 67.9078 1456 67.3749 Q1457.02 66.8011 1457.02 64.0958 L1457.02 20.4422 Q1457.02 17.327 1455.92 16.5482 Q1454.85 15.7694 1450.5 15.7694 L1450.5 13.1461 L1462.56 12.2444 L1462.56 64.0958 Q1462.56 66.8011 1463.62 67.3749 Q1464.69 67.9078 1469.11 67.9078 L1469.11 70.4901 Q1468.09 70.4901 1465.96 70.4081 Q1463.83 70.3262 1462.27 70.2852 Q1460.71 70.2442 1459.81 70.2442 Q1458.83 70.2442 1450.5 70.4901 Z" fill="#000000" fill-rule="nonzero" fill-opacity="1" /><path clip-path="url(#clip130)" d="M1481.74 65.9813 Q1476.21 60.4887 1476.21 52.5368 Q1476.21 44.5439 1481.62 38.7234 Q1487.07 32.862 1494.86 32.862 Q1502.49 32.862 1507.94 38.6824 Q1513.43 44.4619 1513.43 52.5368 Q1513.43 60.4478 1507.9 65.9403 Q1502.4 71.4329 1494.78 71.4329 Q1487.32 71.4329 1481.74 65.9813 M1483.18 51.84 Q1483.18 59.9969 1485.31 63.6859 Q1488.59 69.3014 1494.86 69.3014 Q1497.98 69.3014 1500.56 67.6209 Q1503.18 65.9403 1504.62 63.1121 Q1506.46 59.423 1506.46 51.84 Q1506.46 43.7651 1504.25 40.199 Q1500.97 34.7475 1494.78 34.7475 Q1492.07 34.7475 1489.41 36.1821 Q1486.79 37.5757 1485.19 40.363 Q1483.18 44.052 1483.18 51.84 Z" fill="#000000" fill-rule="nonzero" fill-opacity="1" /><path clip-path="url(#clip130)" d="M1514.48 36.9199 L1514.48 35.0754 Q1518.33 34.9114 1520.87 32.2061 Q1523.45 29.4599 1524.31 26.0987 Q1525.22 22.7376 1525.3 18.8436 L1527.39 18.8436 L1527.39 34.2966 L1539.4 34.2966 L1539.4 36.9199 L1527.39 36.9199 L1527.39 60.2428 Q1527.39 69.3014 1533.04 69.3014 Q1535.46 69.3014 1537.06 66.8421 Q1538.66 64.3417 1538.66 59.9149 L1538.66 55.2831 L1540.75 55.2831 L1540.75 60.0788 Q1540.75 64.6287 1538.66 68.0308 Q1536.57 71.4329 1532.43 71.4329 Q1530.91 71.4329 1529.4 71.023 Q1527.92 70.6541 1525.95 69.6703 Q1524.03 68.6456 1522.8 66.1863 Q1521.61 63.6859 1521.61 60.0788 L1521.61 36.9199 L1514.48 36.9199 Z" fill="#000000" fill-rule="nonzero" fill-opacity="1" /><polyline clip-path="url(#clip132)" style="stroke:#0000ff; stroke-linecap:round; stroke-linejoin:round; stroke-width:8; stroke-opacity:1; fill:none" points="237.067,1364.5 257.608,1364.5 259.32,1364.5 261.031,1362.31 262.743,1325.09 510.943,1281.3 528.06,1263.78 545.177,1252.83 664.998,1195.91 750.584,876.234 819.053,782.084 921.756,663.849 1007.34,571.889 1110.05,451.464 1161.4,398.916 1178.51,357.314 1229.87,315.713 1246.98,293.818 1264.1,271.923 1349.69,269.733 1452.39,269.733 1520.86,269.733 1606.45,269.733 1777.62,269.733 1948.79,269.733 2119.96,269.733 2291.13,269.733 "/>
<circle clip-path="url(#clip132)" cx="237.067" cy="1364.5" r="14.4" fill="#0000ff" fill-rule="evenodd" fill-opacity="1" stroke="#000000" stroke-opacity="1" stroke-width="3.2"/>
<circle clip-path="url(#clip132)" cx="257.608" cy="1364.5" r="14.4" fill="#0000ff" fill-rule="evenodd" fill-opacity="1" stroke="#000000" stroke-opacity="1" stroke-width="3.2"/>
<circle clip-path="url(#clip132)" cx="259.32" cy="1364.5" r="14.4" fill="#0000ff" fill-rule="evenodd" fill-opacity="1" stroke="#000000" stroke-opacity="1" stroke-width="3.2"/>
<circle clip-path="url(#clip132)" cx="261.031" cy="1362.31" r="14.4" fill="#0000ff" fill-rule="evenodd" fill-opacity="1" stroke="#000000" stroke-opacity="1" stroke-width="3.2"/>
<circle clip-path="url(#clip132)" cx="262.743" cy="1325.09" r="14.4" fill="#0000ff" fill-rule="evenodd" fill-opacity="1" stroke="#000000" stroke-opacity="1" stroke-width="3.2"/>
<circle clip-path="url(#clip132)" cx="510.943" cy="1281.3" r="14.4" fill="#0000ff" fill-rule="evenodd" fill-opacity="1" stroke="#000000" stroke-opacity="1" stroke-width="3.2"/>
<circle clip-path="url(#clip132)" cx="528.06" cy="1263.78" r="14.4" fill="#0000ff" fill-rule="evenodd" fill-opacity="1" stroke="#000000" stroke-opacity="1" stroke-width="3.2"/>
<circle clip-path="url(#clip132)" cx="545.177" cy="1252.83" r="14.4" fill="#0000ff" fill-rule="evenodd" fill-opacity="1" stroke="#000000" stroke-opacity="1" stroke-width="3.2"/>
<circle clip-path="url(#clip132)" cx="664.998" cy="1195.91" r="14.4" fill="#0000ff" fill-rule="evenodd" fill-opacity="1" stroke="#000000" stroke-opacity="1" stroke-width="3.2"/>
<circle clip-path="url(#clip132)" cx="750.584" cy="876.234" r="14.4" fill="#0000ff" fill-rule="evenodd" fill-opacity="1" stroke="#000000" stroke-opacity="1" stroke-width="3.2"/>
<circle clip-path="url(#clip132)" cx="819.053" cy="782.084" r="14.4" fill="#0000ff" fill-rule="evenodd" fill-opacity="1" stroke="#000000" stroke-opacity="1" stroke-width="3.2"/>
<circle clip-path="url(#clip132)" cx="921.756" cy="663.849" r="14.4" fill="#0000ff" fill-rule="evenodd" fill-opacity="1" stroke="#000000" stroke-opacity="1" stroke-width="3.2"/>
<circle clip-path="url(#clip132)" cx="1007.34" cy="571.889" r="14.4" fill="#0000ff" fill-rule="evenodd" fill-opacity="1" stroke="#000000" stroke-opacity="1" stroke-width="3.2"/>
<circle clip-path="url(#clip132)" cx="1110.05" cy="451.464" r="14.4" fill="#0000ff" fill-rule="evenodd" fill-opacity="1" stroke="#000000" stroke-opacity="1" stroke-width="3.2"/>
<circle clip-path="url(#clip132)" cx="1161.4" cy="398.916" r="14.4" fill="#0000ff" fill-rule="evenodd" fill-opacity="1" stroke="#000000" stroke-opacity="1" stroke-width="3.2"/>
<circle clip-path="url(#clip132)" cx="1178.51" cy="357.314" r="14.4" fill="#0000ff" fill-rule="evenodd" fill-opacity="1" stroke="#000000" stroke-opacity="1" stroke-width="3.2"/>
<circle clip-path="url(#clip132)" cx="1229.87" cy="315.713" r="14.4" fill="#0000ff" fill-rule="evenodd" fill-opacity="1" stroke="#000000" stroke-opacity="1" stroke-width="3.2"/>
<circle clip-path="url(#clip132)" cx="1246.98" cy="293.818" r="14.4" fill="#0000ff" fill-rule="evenodd" fill-opacity="1" stroke="#000000" stroke-opacity="1" stroke-width="3.2"/>
<circle clip-path="url(#clip132)" cx="1264.1" cy="271.923" r="14.4" fill="#0000ff" fill-rule="evenodd" fill-opacity="1" stroke="#000000" stroke-opacity="1" stroke-width="3.2"/>
<circle clip-path="url(#clip132)" cx="1349.69" cy="269.733" r="14.4" fill="#0000ff" fill-rule="evenodd" fill-opacity="1" stroke="#000000" stroke-opacity="1" stroke-width="3.2"/>
<circle clip-path="url(#clip132)" cx="1452.39" cy="269.733" r="14.4" fill="#0000ff" fill-rule="evenodd" fill-opacity="1" stroke="#000000" stroke-opacity="1" stroke-width="3.2"/>
<circle clip-path="url(#clip132)" cx="1520.86" cy="269.733" r="14.4" fill="#0000ff" fill-rule="evenodd" fill-opacity="1" stroke="#000000" stroke-opacity="1" stroke-width="3.2"/>
<circle clip-path="url(#clip132)" cx="1606.45" cy="269.733" r="14.4" fill="#0000ff" fill-rule="evenodd" fill-opacity="1" stroke="#000000" stroke-opacity="1" stroke-width="3.2"/>
<circle clip-path="url(#clip132)" cx="1777.62" cy="269.733" r="14.4" fill="#0000ff" fill-rule="evenodd" fill-opacity="1" stroke="#000000" stroke-opacity="1" stroke-width="3.2"/>
<circle clip-path="url(#clip132)" cx="1948.79" cy="269.733" r="14.4" fill="#0000ff" fill-rule="evenodd" fill-opacity="1" stroke="#000000" stroke-opacity="1" stroke-width="3.2"/>
<circle clip-path="url(#clip132)" cx="2119.96" cy="269.733" r="14.4" fill="#0000ff" fill-rule="evenodd" fill-opacity="1" stroke="#000000" stroke-opacity="1" stroke-width="3.2"/>
<circle clip-path="url(#clip132)" cx="2291.13" cy="269.733" r="14.4" fill="#0000ff" fill-rule="evenodd" fill-opacity="1" stroke="#000000" stroke-opacity="1" stroke-width="3.2"/>
<polyline clip-path="url(#clip132)" style="stroke:#ff0000; stroke-linecap:round; stroke-linejoin:round; stroke-width:8; stroke-opacity:1; fill:none" stroke-dasharray="32, 20" points="1264.1,1386.4 1264.1,160.256 "/>
<path clip-path="url(#clip130)" d="M248.022 322.316 L729.456 322.316 L729.456 166.796 L248.022 166.796  Z" fill="#ffffff" fill-rule="evenodd" fill-opacity="1"/>
<polyline clip-path="url(#clip130)" style="stroke:#000000; stroke-linecap:round; stroke-linejoin:round; stroke-width:4; stroke-opacity:1; fill:none" points="248.022,322.316 729.456,322.316 729.456,166.796 248.022,166.796 248.022,322.316 "/>
<polyline clip-path="url(#clip130)" style="stroke:#0000ff; stroke-linecap:round; stroke-linejoin:round; stroke-width:8; stroke-opacity:1; fill:none" points="272.215,218.636 417.369,218.636 "/>
<circle clip-path="url(#clip130)" cx="344.792" cy="218.636" r="20.1603" fill="#0000ff" fill-rule="evenodd" fill-opacity="1" stroke="#000000" stroke-opacity="1" stroke-width="4.55111"/>
<path clip-path="url(#clip130)" d="M446.237 205.198 L446.237 232.073 L451.885 232.073 Q459.038 232.073 462.348 228.832 Q465.681 225.592 465.681 218.601 Q465.681 211.657 462.348 208.439 Q459.038 205.198 451.885 205.198 L446.237 205.198 M441.561 201.356 L451.167 201.356 Q461.214 201.356 465.913 205.546 Q470.612 209.712 470.612 218.601 Q470.612 227.536 465.89 231.726 Q461.167 235.916 451.167 235.916 L441.561 235.916 L441.561 201.356 Z" fill="#000000" fill-rule="nonzero" fill-opacity="1" /><path clip-path="url(#clip130)" d="M489.663 222.883 Q484.501 222.883 482.51 224.064 Q480.519 225.244 480.519 228.092 Q480.519 230.36 482.001 231.703 Q483.505 233.022 486.075 233.022 Q489.616 233.022 491.746 230.522 Q493.899 227.999 493.899 223.832 L493.899 222.883 L489.663 222.883 M498.158 221.124 L498.158 235.916 L493.899 235.916 L493.899 231.981 Q492.44 234.342 490.264 235.476 Q488.088 236.587 484.94 236.587 Q480.959 236.587 478.598 234.365 Q476.26 232.119 476.26 228.369 Q476.26 223.994 479.176 221.772 Q482.116 219.55 487.926 219.55 L493.899 219.55 L493.899 219.133 Q493.899 216.194 491.954 214.596 Q490.033 212.976 486.538 212.976 Q484.315 212.976 482.209 213.508 Q480.102 214.041 478.158 215.106 L478.158 211.17 Q480.496 210.268 482.695 209.828 Q484.894 209.365 486.977 209.365 Q492.602 209.365 495.38 212.282 Q498.158 215.198 498.158 221.124 Z" fill="#000000" fill-rule="nonzero" fill-opacity="1" /><path clip-path="url(#clip130)" d="M511.144 202.629 L511.144 209.99 L519.917 209.99 L519.917 213.3 L511.144 213.3 L511.144 227.374 Q511.144 230.545 512 231.448 Q512.88 232.351 515.542 232.351 L519.917 232.351 L519.917 235.916 L515.542 235.916 Q510.612 235.916 508.737 234.087 Q506.862 232.235 506.862 227.374 L506.862 213.3 L503.737 213.3 L503.737 209.99 L506.862 209.99 L506.862 202.629 L511.144 202.629 Z" fill="#000000" fill-rule="nonzero" fill-opacity="1" /><path clip-path="url(#clip130)" d="M537.301 222.883 Q532.139 222.883 530.148 224.064 Q528.158 225.244 528.158 228.092 Q528.158 230.36 529.639 231.703 Q531.144 233.022 533.713 233.022 Q537.255 233.022 539.385 230.522 Q541.537 227.999 541.537 223.832 L541.537 222.883 L537.301 222.883 M545.797 221.124 L545.797 235.916 L541.537 235.916 L541.537 231.981 Q540.079 234.342 537.903 235.476 Q535.727 236.587 532.579 236.587 Q528.598 236.587 526.236 234.365 Q523.898 232.119 523.898 228.369 Q523.898 223.994 526.815 221.772 Q529.755 219.55 535.565 219.55 L541.537 219.55 L541.537 219.133 Q541.537 216.194 539.593 214.596 Q537.672 212.976 534.176 212.976 Q531.954 212.976 529.848 213.508 Q527.741 214.041 525.797 215.106 L525.797 211.17 Q528.135 210.268 530.334 209.828 Q532.533 209.365 534.616 209.365 Q540.241 209.365 543.019 212.282 Q545.797 215.198 545.797 221.124 Z" fill="#000000" fill-rule="nonzero" fill-opacity="1" /><path clip-path="url(#clip130)" d="M574.5 205.198 L574.5 218.184 L580.38 218.184 Q583.644 218.184 585.426 216.495 Q587.208 214.805 587.208 211.68 Q587.208 208.578 585.426 206.888 Q583.644 205.198 580.38 205.198 L574.5 205.198 M569.824 201.356 L580.38 201.356 Q586.19 201.356 589.153 203.995 Q592.139 206.61 592.139 211.68 Q592.139 216.795 589.153 219.411 Q586.19 222.027 580.38 222.027 L574.5 222.027 L574.5 235.916 L569.824 235.916 L569.824 201.356 Z" fill="#000000" fill-rule="nonzero" fill-opacity="1" /><path clip-path="url(#clip130)" d="M606.583 212.976 Q603.157 212.976 601.167 215.661 Q599.176 218.323 599.176 222.976 Q599.176 227.629 601.143 230.314 Q603.134 232.976 606.583 232.976 Q609.986 232.976 611.977 230.291 Q613.967 227.606 613.967 222.976 Q613.967 218.37 611.977 215.684 Q609.986 212.976 606.583 212.976 M606.583 209.365 Q612.139 209.365 615.31 212.976 Q618.481 216.587 618.481 222.976 Q618.481 229.342 615.31 232.976 Q612.139 236.587 606.583 236.587 Q601.005 236.587 597.833 232.976 Q594.685 229.342 594.685 222.976 Q594.685 216.587 597.833 212.976 Q601.005 209.365 606.583 209.365 Z" fill="#000000" fill-rule="nonzero" fill-opacity="1" /><path clip-path="url(#clip130)" d="M625.541 209.99 L629.801 209.99 L629.801 235.916 L625.541 235.916 L625.541 209.99 M625.541 199.897 L629.801 199.897 L629.801 205.291 L625.541 205.291 L625.541 199.897 Z" fill="#000000" fill-rule="nonzero" fill-opacity="1" /><path clip-path="url(#clip130)" d="M660.263 220.268 L660.263 235.916 L656.004 235.916 L656.004 220.407 Q656.004 216.726 654.569 214.897 Q653.134 213.069 650.264 213.069 Q646.814 213.069 644.824 215.268 Q642.833 217.467 642.833 221.263 L642.833 235.916 L638.551 235.916 L638.551 209.99 L642.833 209.99 L642.833 214.018 Q644.361 211.68 646.421 210.522 Q648.504 209.365 651.213 209.365 Q655.68 209.365 657.972 212.143 Q660.263 214.897 660.263 220.268 Z" fill="#000000" fill-rule="nonzero" fill-opacity="1" /><path clip-path="url(#clip130)" d="M672.972 202.629 L672.972 209.99 L681.745 209.99 L681.745 213.3 L672.972 213.3 L672.972 227.374 Q672.972 230.545 673.828 231.448 Q674.708 232.351 677.37 232.351 L681.745 232.351 L681.745 235.916 L677.37 235.916 Q672.439 235.916 670.564 234.087 Q668.689 232.235 668.689 227.374 L668.689 213.3 L665.564 213.3 L665.564 209.99 L668.689 209.99 L668.689 202.629 L672.972 202.629 Z" fill="#000000" fill-rule="nonzero" fill-opacity="1" /><path clip-path="url(#clip130)" d="M703.874 210.754 L703.874 214.782 Q702.069 213.856 700.124 213.393 Q698.18 212.93 696.097 212.93 Q692.925 212.93 691.328 213.902 Q689.754 214.874 689.754 216.819 Q689.754 218.3 690.888 219.157 Q692.023 219.99 695.448 220.754 L696.907 221.078 Q701.444 222.05 703.342 223.832 Q705.263 225.592 705.263 228.763 Q705.263 232.374 702.393 234.481 Q699.546 236.587 694.546 236.587 Q692.462 236.587 690.194 236.17 Q687.949 235.777 685.449 234.967 L685.449 230.569 Q687.81 231.795 690.101 232.42 Q692.393 233.022 694.638 233.022 Q697.648 233.022 699.268 232.004 Q700.888 230.962 700.888 229.087 Q700.888 227.351 699.708 226.425 Q698.55 225.499 694.592 224.643 L693.111 224.295 Q689.152 223.462 687.393 221.749 Q685.634 220.013 685.634 217.004 Q685.634 213.346 688.226 211.356 Q690.819 209.365 695.587 209.365 Q697.948 209.365 700.032 209.712 Q702.115 210.059 703.874 210.754 Z" fill="#000000" fill-rule="nonzero" fill-opacity="1" /><polyline clip-path="url(#clip130)" style="stroke:#ff0000; stroke-linecap:round; stroke-linejoin:round; stroke-width:8; stroke-opacity:1; fill:none" stroke-dasharray="32, 20" points="272.215,270.476 417.369,270.476 "/>
<path clip-path="url(#clip130)" d="M475.758 247.322 Q475.711 248.189 475.125 248.236 Q474.235 248.283 473.697 248.4 Q473.158 248.493 472.315 248.845 Q471.471 249.196 470.652 250.039 Q469.832 250.883 468.989 252.218 L451.726 279.692 Q451.422 280.207 451.164 280.371 Q450.93 280.559 450.391 280.559 Q449.899 280.559 449.712 280.348 Q449.525 280.161 449.431 279.458 L445.636 249.852 Q445.566 249.313 445.496 249.079 Q445.426 248.845 445.145 248.611 Q444.887 248.376 444.325 248.306 Q443.763 248.236 442.756 248.236 Q442.287 248.236 442.076 248.212 Q441.889 248.189 441.725 248.072 Q441.561 247.931 441.561 247.65 Q441.561 247.229 441.725 247.018 Q441.912 246.784 442.053 246.76 Q442.217 246.737 442.474 246.737 Q442.873 246.737 443.739 246.784 Q444.606 246.83 445.051 246.83 Q445.473 246.83 446.363 246.854 Q447.253 246.877 447.698 246.877 Q448.681 246.877 450.672 246.807 Q452.687 246.737 453.647 246.737 Q454.303 246.737 454.303 247.275 Q454.303 247.931 454.022 248.095 Q453.741 248.236 453.108 248.236 Q451.515 248.236 450.649 248.634 Q449.806 249.032 449.806 249.665 L453.061 275.055 L467.794 251.632 Q468.52 250.531 468.52 249.805 Q468.52 248.4 466.295 248.236 Q465.546 248.236 465.546 247.65 Q465.546 247.229 465.733 247.018 Q465.92 246.784 466.061 246.76 Q466.225 246.737 466.459 246.737 Q467.232 246.737 468.801 246.807 Q470.394 246.877 471.19 246.877 Q471.846 246.877 473.181 246.807 Q474.516 246.737 475.125 246.737 Q475.758 246.737 475.758 247.322 Z" fill="#000000" fill-rule="nonzero" fill-opacity="1" /><path clip-path="url(#clip130)" d="M480.54 293.9 L480.54 292.867 Q482.327 292.867 482.737 292.654 Q483.147 292.424 483.147 291.342 L483.147 282.341 Q483.147 281.095 482.705 280.783 Q482.278 280.472 480.54 280.472 L480.54 279.422 L485.262 279.062 L485.262 282.587 Q486.836 279.062 490.23 279.062 Q494.165 279.062 494.706 282.341 Q495.28 281.062 496.477 280.062 Q497.69 279.062 499.576 279.062 Q502.101 279.062 503.101 280.308 Q503.839 281.144 503.986 282.078 Q504.134 283.013 504.134 285.44 L504.134 291.85 Q504.167 292.555 504.708 292.719 Q505.249 292.867 506.757 292.867 L506.757 293.9 Q503.33 293.801 503.002 293.801 Q502.74 293.801 499.199 293.9 L499.199 292.867 Q500.986 292.867 501.396 292.654 Q501.822 292.424 501.822 291.342 L501.822 283.521 Q501.822 281.816 501.297 280.816 Q500.773 279.799 499.33 279.799 Q497.592 279.799 496.198 281.259 Q494.805 282.718 494.805 285.177 L494.805 291.342 Q494.805 292.424 495.214 292.654 Q495.641 292.867 497.428 292.867 L497.428 293.9 Q494.001 293.801 493.657 293.801 Q493.395 293.801 489.869 293.9 L489.869 292.867 Q491.657 292.867 492.067 292.654 Q492.493 292.424 492.493 291.342 L492.493 283.521 Q492.493 281.816 491.968 280.816 Q491.443 279.799 490.001 279.799 Q488.263 279.799 486.869 281.259 Q485.475 282.718 485.475 285.177 L485.475 291.342 Q485.475 292.424 485.885 292.654 Q486.312 292.867 488.082 292.867 L488.082 293.9 Q484.656 293.801 484.328 293.801 Q484.065 293.801 480.54 293.9 Z" fill="#000000" fill-rule="nonzero" fill-opacity="1" /><path clip-path="url(#clip130)" d="M508.087 293.9 L508.087 292.867 Q509.874 292.867 510.284 292.654 Q510.694 292.424 510.694 291.342 L510.694 282.308 Q510.694 281.062 510.268 280.767 Q509.858 280.472 508.218 280.472 L508.218 279.422 L512.908 279.062 L512.908 291.375 Q512.908 292.375 513.268 292.621 Q513.629 292.867 515.269 292.867 L515.269 293.9 Q511.842 293.801 511.776 293.801 Q511.317 293.801 508.087 293.9 M509.497 273.208 Q509.497 272.536 510.006 271.995 Q510.53 271.438 511.268 271.438 Q512.006 271.438 512.53 271.946 Q513.055 272.438 513.055 273.225 Q513.055 273.995 512.53 274.504 Q512.006 274.996 511.268 274.996 Q510.497 274.996 509.989 274.454 Q509.497 273.913 509.497 273.208 Z" fill="#000000" fill-rule="nonzero" fill-opacity="1" /><path clip-path="url(#clip130)" d="M517.561 293.9 L517.561 292.867 Q519.349 292.867 519.758 292.654 Q520.168 292.424 520.168 291.342 L520.168 282.341 Q520.168 281.095 519.726 280.783 Q519.299 280.472 517.561 280.472 L517.561 279.422 L522.283 279.062 L522.283 282.587 Q523.857 279.062 527.251 279.062 Q529.776 279.062 530.776 280.308 Q531.514 281.144 531.662 282.078 Q531.826 283.013 531.826 285.44 L531.826 291.85 Q531.859 292.555 532.4 292.719 Q532.941 292.867 534.449 292.867 L534.449 293.9 Q531.022 293.801 530.678 293.801 Q530.416 293.801 526.891 293.9 L526.891 292.867 Q528.678 292.867 529.088 292.654 Q529.514 292.424 529.514 291.342 L529.514 283.521 Q529.514 281.816 528.989 280.816 Q528.465 279.799 527.022 279.799 Q525.284 279.799 523.89 281.259 Q522.497 282.718 522.497 285.177 L522.497 291.342 Q522.497 292.424 522.906 292.654 Q523.333 292.867 525.103 292.867 L525.103 293.9 Q521.677 293.801 521.349 293.801 Q521.087 293.801 517.561 293.9 Z" fill="#000000" fill-rule="nonzero" fill-opacity="1" /><path clip-path="url(#clip130)" d="M554.43 272.22 Q554.476 271.635 555.39 271.635 L584.785 271.635 Q586.167 271.635 586.19 272.174 Q586.19 272.759 584.879 272.736 L555.718 272.736 Q554.43 272.759 554.43 272.22 M554.43 262.851 Q554.43 262.266 555.437 262.289 L584.738 262.289 Q586.167 262.289 586.19 262.851 Q586.19 263.39 584.972 263.39 L555.39 263.39 Q554.43 263.39 554.43 262.851 Z" fill="#000000" fill-rule="nonzero" fill-opacity="1" /><path clip-path="url(#clip130)" d="M604.681 264.35 Q604.681 256.808 608.523 252.194 Q612.364 247.557 617.306 247.557 Q620.187 247.557 621.78 249.032 Q623.396 250.484 623.396 252.733 Q623.396 253.974 622.67 254.513 Q621.944 255.052 621.194 255.052 Q620.327 255.052 619.648 254.466 Q618.969 253.881 618.969 252.827 Q618.969 250.672 621.616 250.672 Q620.374 248.751 617.4 248.751 Q616.486 248.751 615.549 249.032 Q614.612 249.29 613.394 250.18 Q612.176 251.07 611.24 252.475 Q610.303 253.881 609.647 256.527 Q608.991 259.174 608.991 262.617 L608.991 263.765 Q610.958 259.01 614.987 259.034 Q619.016 259.034 621.803 262.102 Q624.59 265.17 624.59 269.714 Q624.59 274.375 621.686 277.467 Q618.782 280.559 614.706 280.559 Q612.879 280.559 611.216 279.786 Q609.577 279.036 608.031 277.303 Q606.508 275.57 605.595 272.244 Q604.681 268.918 604.681 264.35 M609.085 268.66 Q609.085 273.368 609.951 275.617 Q610.092 275.991 610.396 276.507 Q610.724 277.022 611.263 277.701 Q611.825 278.357 612.739 278.802 Q613.652 279.224 614.706 279.224 Q617.915 279.224 619.461 276.109 Q620.281 274.375 620.281 269.667 Q620.281 264.866 619.414 263.109 Q617.938 260.134 614.94 260.134 Q612.926 260.134 611.521 261.516 Q610.139 262.898 609.6 264.749 Q609.085 266.599 609.085 268.66 Z" fill="#000000" fill-rule="nonzero" fill-opacity="1" /><path clip-path="url(#clip130)" d="M629.157 278.732 Q628.431 277.959 628.431 276.952 Q628.431 275.945 629.157 275.218 Q629.883 274.469 630.984 274.469 Q632.038 274.469 632.741 275.172 Q633.467 275.851 633.467 276.975 Q633.467 278.076 632.694 278.802 Q631.945 279.505 630.984 279.505 Q629.883 279.505 629.157 278.732 Z" fill="#000000" fill-rule="nonzero" fill-opacity="1" /><path clip-path="url(#clip130)" d="M641.628 264.163 Q641.628 257.113 643.408 253.272 Q645.891 247.557 651.747 247.557 Q652.988 247.557 654.276 247.908 Q655.588 248.236 657.228 249.524 Q658.891 250.812 659.898 252.92 Q661.818 256.996 661.818 264.163 Q661.818 271.166 660.038 274.984 Q657.438 280.559 651.7 280.559 Q649.545 280.559 647.343 279.458 Q645.165 278.357 643.783 275.71 Q641.628 271.752 641.628 264.163 M645.61 263.578 Q645.61 270.815 646.125 273.696 Q646.711 276.811 648.304 278.17 Q649.92 279.505 651.7 279.505 Q653.621 279.505 655.213 278.076 Q656.829 276.624 657.321 273.509 Q657.86 270.44 657.837 263.578 Q657.837 256.902 657.368 254.232 Q656.736 251.117 655.049 249.875 Q653.386 248.611 651.7 248.611 Q651.068 248.611 650.388 248.798 Q649.732 248.985 648.772 249.524 Q647.812 250.063 647.062 251.398 Q646.336 252.733 645.985 254.747 Q645.61 257.347 645.61 263.578 Z" fill="#000000" fill-rule="nonzero" fill-opacity="1" /><path clip-path="url(#clip130)" d="M665.378 248.236 L665.378 246.737 Q670.555 246.877 671.468 246.877 Q676.598 246.877 678.331 246.737 L678.331 248.236 Q674.396 248.236 674.396 249.618 Q674.396 249.805 674.677 250.484 L683.835 274.703 L692.619 251.585 Q692.853 250.859 692.853 250.625 Q692.853 249.665 691.963 248.985 Q691.096 248.283 689.363 248.236 L689.363 246.737 Q693.11 246.877 694.82 246.877 Q697.256 246.877 699.481 246.737 L699.481 248.236 Q695.453 248.283 694.258 251.445 L683.554 279.645 Q683.367 280.231 683.179 280.395 Q682.992 280.559 682.406 280.559 Q681.938 280.559 681.68 280.371 Q681.446 280.184 681.212 279.505 L670.086 250.063 Q669.618 248.775 668.775 248.517 Q667.931 248.236 665.378 248.236 Z" fill="#000000" fill-rule="nonzero" fill-opacity="1" /></svg>
