<?xml version="1.0" encoding="utf-8"?>
<svg xmlns="http://www.w3.org/2000/svg" xmlns:xlink="http://www.w3.org/1999/xlink" width="600" height="400" viewBox="0 0 2400 1600">
<defs>
  <clipPath id="clip150">
    <rect x="0" y="0" width="2400" height="1600"/>
  </clipPath>
</defs>
<path clip-path="url(#clip150)" d="M0 1600 L2400 1600 L2400 0 L0 0  Z" fill="#ffffff" fill-rule="evenodd" fill-opacity="1"/>
<defs>
  <clipPath id="clip151">
    <rect x="480" y="0" width="1681" height="1600"/>
  </clipPath>
</defs>
<path clip-path="url(#clip150)" d="M175.445 1423.18 L2352.76 1423.18 L2352.76 123.472 L175.445 123.472  Z" fill="#ffffff" fill-rule="evenodd" fill-opacity="1"/>
<defs>
  <clipPath id="clip152">
    <rect x="175" y="123" width="2178" height="1301"/>
  </clipPath>
</defs>
<polyline clip-path="url(#clip152)" style="stroke:#000000; stroke-linecap:round; stroke-linejoin:round; stroke-width:2; stroke-opacity:0.1; fill:none" points="235.083,1423.18 235.083,123.472 "/>
<polyline clip-path="url(#clip152)" style="stroke:#000000; stroke-linecap:round; stroke-linejoin:round; stroke-width:2; stroke-opacity:0.1; fill:none" points="731.234,1423.18 731.234,123.472 "/>
<polyline clip-path="url(#clip152)" style="stroke:#000000; stroke-linecap:round; stroke-linejoin:round; stroke-width:2; stroke-opacity:0.1; fill:none" points="1227.39,1423.18 1227.39,123.472 "/>
<polyline clip-path="url(#clip152)" style="stroke:#000000; stroke-linecap:round; stroke-linejoin:round; stroke-width:2; stroke-opacity:0.1; fill:none" points="1723.54,1423.18 1723.54,123.472 "/>
<polyline clip-path="url(#clip152)" style="stroke:#000000; stroke-linecap:round; stroke-linejoin:round; stroke-width:2; stroke-opacity:0.1; fill:none" points="2219.69,1423.18 2219.69,123.472 "/>
<polyline clip-path="url(#clip152)" style="stroke:#000000; stroke-linecap:round; stroke-linejoin:round; stroke-width:2; stroke-opacity:0.1; fill:none" points="175.445,1423.18 2352.76,1423.18 "/>
<polyline clip-path="url(#clip152)" style="stroke:#000000; stroke-linecap:round; stroke-linejoin:round; stroke-width:2; stroke-opacity:0.1; fill:none" points="175.445,1098.25 2352.76,1098.25 "/>
<polyline clip-path="url(#clip152)" style="stroke:#000000; stroke-linecap:round; stroke-linejoin:round; stroke-width:2; stroke-opacity:0.1; fill:none" points="175.445,773.326 2352.76,773.326 "/>
<polyline clip-path="url(#clip152)" style="stroke:#000000; stroke-linecap:round; stroke-linejoin:round; stroke-width:2; stroke-opacity:0.1; fill:none" points="175.445,448.399 2352.76,448.399 "/>
<polyline clip-path="url(#clip152)" style="stroke:#000000; stroke-linecap:round; stroke-linejoin:round; stroke-width:2; stroke-opacity:0.1; fill:none" points="175.445,123.472 2352.76,123.472 "/>
<polyline clip-path="url(#clip150)" style="stroke:#000000; stroke-linecap:round; stroke-linejoin:round; stroke-width:4; stroke-opacity:1; fill:none" points="175.445,1423.18 2352.76,1423.18 "/>
<polyline clip-path="url(#clip150)" style="stroke:#000000; stroke-linecap:round; stroke-linejoin:round; stroke-width:4; stroke-opacity:1; fill:none" points="235.083,1423.18 235.083,1404.28 "/>
<polyline clip-path="url(#clip150)" style="stroke:#000000; stroke-linecap:round; stroke-linejoin:round; stroke-width:4; stroke-opacity:1; fill:none" points="731.234,1423.18 731.234,1404.28 "/>
<polyline clip-path="url(#clip150)" style="stroke:#000000; stroke-linecap:round; stroke-linejoin:round; stroke-width:4; stroke-opacity:1; fill:none" points="1227.39,1423.18 1227.39,1404.28 "/>
<polyline clip-path="url(#clip150)" style="stroke:#000000; stroke-linecap:round; stroke-linejoin:round; stroke-width:4; stroke-opacity:1; fill:none" points="1723.54,1423.18 1723.54,1404.28 "/>
<polyline clip-path="url(#clip150)" style="stroke:#000000; stroke-linecap:round; stroke-linejoin:round; stroke-width:4; stroke-opacity:1; fill:none" points="2219.69,1423.18 2219.69,1404.28 "/>
<path clip-path="url(#clip150)" d="M197.386 1454.1 Q193.775 1454.1 191.946 1457.66 Q190.141 1461.2 190.141 1468.33 Q190.141 1475.44 191.946 1479.01 Q193.775 1482.55 197.386 1482.55 Q201.02 1482.55 202.826 1479.01 Q204.655 1475.44 204.655 1468.33 Q204.655 1461.2 202.826 1457.66 Q201.02 1454.1 197.386 1454.1 M197.386 1450.39 Q203.196 1450.39 206.252 1455 Q209.33 1459.58 209.33 1468.33 Q209.33 1477.06 206.252 1481.67 Q203.196 1486.25 197.386 1486.25 Q191.576 1486.25 188.497 1481.67 Q185.442 1477.06 185.442 1468.33 Q185.442 1459.58 188.497 1455 Q191.576 1450.39 197.386 1450.39 Z" fill="#000000" fill-rule="nonzero" fill-opacity="1" /><path clip-path="url(#clip150)" d="M217.548 1479.7 L222.432 1479.7 L222.432 1485.58 L217.548 1485.58 L217.548 1479.7 Z" fill="#000000" fill-rule="nonzero" fill-opacity="1" /><path clip-path="url(#clip150)" d="M242.617 1454.1 Q239.006 1454.1 237.177 1457.66 Q235.372 1461.2 235.372 1468.33 Q235.372 1475.44 237.177 1479.01 Q239.006 1482.55 242.617 1482.55 Q246.252 1482.55 248.057 1479.01 Q249.886 1475.44 249.886 1468.33 Q249.886 1461.2 248.057 1457.66 Q246.252 1454.1 242.617 1454.1 M242.617 1450.39 Q248.427 1450.39 251.483 1455 Q254.562 1459.58 254.562 1468.33 Q254.562 1477.06 251.483 1481.67 Q248.427 1486.25 242.617 1486.25 Q236.807 1486.25 233.728 1481.67 Q230.673 1477.06 230.673 1468.33 Q230.673 1459.58 233.728 1455 Q236.807 1450.39 242.617 1450.39 Z" fill="#000000" fill-rule="nonzero" fill-opacity="1" /><path clip-path="url(#clip150)" d="M272.779 1454.1 Q269.168 1454.1 267.339 1457.66 Q265.534 1461.2 265.534 1468.33 Q265.534 1475.44 267.339 1479.01 Q269.168 1482.55 272.779 1482.55 Q276.413 1482.55 278.219 1479.01 Q280.048 1475.44 280.048 1468.33 Q280.048 1461.2 278.219 1457.66 Q276.413 1454.1 272.779 1454.1 M272.779 1450.39 Q278.589 1450.39 281.645 1455 Q284.724 1459.58 284.724 1468.33 Q284.724 1477.06 281.645 1481.67 Q278.589 1486.25 272.779 1486.25 Q266.969 1486.25 263.89 1481.67 Q260.835 1477.06 260.835 1468.33 Q260.835 1459.58 263.89 1455 Q266.969 1450.39 272.779 1450.39 Z" fill="#000000" fill-rule="nonzero" fill-opacity="1" /><path clip-path="url(#clip150)" d="M694.035 1454.1 Q690.424 1454.1 688.595 1457.66 Q686.79 1461.2 686.79 1468.33 Q686.79 1475.44 688.595 1479.01 Q690.424 1482.55 694.035 1482.55 Q697.669 1482.55 699.475 1479.01 Q701.304 1475.44 701.304 1468.33 Q701.304 1461.2 699.475 1457.66 Q697.669 1454.1 694.035 1454.1 M694.035 1450.39 Q699.845 1450.39 702.901 1455 Q705.979 1459.58 705.979 1468.33 Q705.979 1477.06 702.901 1481.67 Q699.845 1486.25 694.035 1486.25 Q688.225 1486.25 685.146 1481.67 Q682.091 1477.06 682.091 1468.33 Q682.091 1459.58 685.146 1455 Q688.225 1450.39 694.035 1450.39 Z" fill="#000000" fill-rule="nonzero" fill-opacity="1" /><path clip-path="url(#clip150)" d="M714.197 1479.7 L719.081 1479.7 L719.081 1485.58 L714.197 1485.58 L714.197 1479.7 Z" fill="#000000" fill-rule="nonzero" fill-opacity="1" /><path clip-path="url(#clip150)" d="M733.294 1481.64 L749.614 1481.64 L749.614 1485.58 L727.669 1485.58 L727.669 1481.64 Q730.331 1478.89 734.915 1474.26 Q739.521 1469.61 740.702 1468.27 Q742.947 1465.74 743.827 1464.01 Q744.729 1462.25 744.729 1460.56 Q744.729 1457.8 742.785 1456.07 Q740.864 1454.33 737.762 1454.33 Q735.563 1454.33 733.109 1455.09 Q730.678 1455.86 727.901 1457.41 L727.901 1452.69 Q730.725 1451.55 733.178 1450.97 Q735.632 1450.39 737.669 1450.39 Q743.039 1450.39 746.234 1453.08 Q749.428 1455.77 749.428 1460.26 Q749.428 1462.39 748.618 1464.31 Q747.831 1466.2 745.725 1468.8 Q745.146 1469.47 742.044 1472.69 Q738.942 1475.88 733.294 1481.64 Z" fill="#000000" fill-rule="nonzero" fill-opacity="1" /><path clip-path="url(#clip150)" d="M759.475 1451.02 L777.831 1451.02 L777.831 1454.96 L763.757 1454.96 L763.757 1463.43 Q764.775 1463.08 765.794 1462.92 Q766.812 1462.73 767.831 1462.73 Q773.618 1462.73 776.998 1465.9 Q780.377 1469.08 780.377 1474.49 Q780.377 1480.07 776.905 1483.17 Q773.433 1486.25 767.113 1486.25 Q764.938 1486.25 762.669 1485.88 Q760.424 1485.51 758.016 1484.77 L758.016 1480.07 Q760.1 1481.2 762.322 1481.76 Q764.544 1482.32 767.021 1482.32 Q771.025 1482.32 773.363 1480.21 Q775.701 1478.1 775.701 1474.49 Q775.701 1470.88 773.363 1468.77 Q771.025 1466.67 767.021 1466.67 Q765.146 1466.67 763.271 1467.08 Q761.419 1467.5 759.475 1468.38 L759.475 1451.02 Z" fill="#000000" fill-rule="nonzero" fill-opacity="1" /><path clip-path="url(#clip150)" d="M1189.69 1454.1 Q1186.08 1454.1 1184.25 1457.66 Q1182.44 1461.2 1182.44 1468.33 Q1182.44 1475.44 1184.25 1479.01 Q1186.08 1482.55 1189.69 1482.55 Q1193.32 1482.55 1195.13 1479.01 Q1196.96 1475.44 1196.96 1468.33 Q1196.96 1461.2 1195.13 1457.66 Q1193.32 1454.1 1189.69 1454.1 M1189.69 1450.39 Q1195.5 1450.39 1198.55 1455 Q1201.63 1459.58 1201.63 1468.33 Q1201.63 1477.06 1198.55 1481.67 Q1195.5 1486.25 1189.69 1486.25 Q1183.88 1486.25 1180.8 1481.67 Q1177.74 1477.06 1177.74 1468.33 Q1177.74 1459.58 1180.8 1455 Q1183.88 1450.39 1189.69 1450.39 Z" fill="#000000" fill-rule="nonzero" fill-opacity="1" /><path clip-path="url(#clip150)" d="M1209.85 1479.7 L1214.73 1479.7 L1214.73 1485.58 L1209.85 1485.58 L1209.85 1479.7 Z" fill="#000000" fill-rule="nonzero" fill-opacity="1" /><path clip-path="url(#clip150)" d="M1224.97 1451.02 L1243.32 1451.02 L1243.32 1454.96 L1229.25 1454.96 L1229.25 1463.43 Q1230.27 1463.08 1231.29 1462.92 Q1232.3 1462.73 1233.32 1462.73 Q1239.11 1462.73 1242.49 1465.9 Q1245.87 1469.08 1245.87 1474.49 Q1245.87 1480.07 1242.4 1483.17 Q1238.92 1486.25 1232.61 1486.25 Q1230.43 1486.25 1228.16 1485.88 Q1225.92 1485.51 1223.51 1484.77 L1223.51 1480.07 Q1225.59 1481.2 1227.81 1481.76 Q1230.04 1482.32 1232.51 1482.32 Q1236.52 1482.32 1238.86 1480.21 Q1241.19 1478.1 1241.19 1474.49 Q1241.19 1470.88 1238.86 1468.77 Q1236.52 1466.67 1232.51 1466.67 Q1230.64 1466.67 1228.76 1467.08 Q1226.91 1467.5 1224.97 1468.38 L1224.97 1451.02 Z" fill="#000000" fill-rule="nonzero" fill-opacity="1" /><path clip-path="url(#clip150)" d="M1265.08 1454.1 Q1261.47 1454.1 1259.64 1457.66 Q1257.84 1461.2 1257.84 1468.33 Q1257.84 1475.44 1259.64 1479.01 Q1261.47 1482.55 1265.08 1482.55 Q1268.72 1482.55 1270.52 1479.01 Q1272.35 1475.44 1272.35 1468.33 Q1272.35 1461.2 1270.52 1457.66 Q1268.72 1454.1 1265.08 1454.1 M1265.08 1450.39 Q1270.89 1450.39 1273.95 1455 Q1277.03 1459.58 1277.03 1468.33 Q1277.03 1477.06 1273.95 1481.67 Q1270.89 1486.25 1265.08 1486.25 Q1259.27 1486.25 1256.19 1481.67 Q1253.14 1477.06 1253.14 1468.33 Q1253.14 1459.58 1256.19 1455 Q1259.27 1450.39 1265.08 1450.39 Z" fill="#000000" fill-rule="nonzero" fill-opacity="1" /><path clip-path="url(#clip150)" d="M1686.34 1454.1 Q1682.73 1454.1 1680.9 1457.66 Q1679.09 1461.2 1679.09 1468.33 Q1679.09 1475.44 1680.9 1479.01 Q1682.73 1482.55 1686.34 1482.55 Q1689.97 1482.55 1691.78 1479.01 Q1693.61 1475.44 1693.61 1468.33 Q1693.61 1461.2 1691.78 1457.66 Q1689.97 1454.1 1686.34 1454.1 M1686.34 1450.39 Q1692.15 1450.39 1695.2 1455 Q1698.28 1459.58 1698.28 1468.33 Q1698.28 1477.06 1695.2 1481.67 Q1692.15 1486.25 1686.34 1486.25 Q1680.53 1486.25 1677.45 1481.67 Q1674.39 1477.06 1674.39 1468.33 Q1674.39 1459.58 1677.45 1455 Q1680.53 1450.39 1686.34 1450.39 Z" fill="#000000" fill-rule="nonzero" fill-opacity="1" /><path clip-path="url(#clip150)" d="M1706.5 1479.7 L1711.38 1479.7 L1711.38 1485.58 L1706.5 1485.58 L1706.5 1479.7 Z" fill="#000000" fill-rule="nonzero" fill-opacity="1" /><path clip-path="url(#clip150)" d="M1720.39 1451.02 L1742.61 1451.02 L1742.61 1453.01 L1730.06 1485.58 L1725.18 1485.58 L1736.99 1454.96 L1720.39 1454.96 L1720.39 1451.02 Z" fill="#000000" fill-rule="nonzero" fill-opacity="1" /><path clip-path="url(#clip150)" d="M1751.78 1451.02 L1770.13 1451.02 L1770.13 1454.96 L1756.06 1454.96 L1756.06 1463.43 Q1757.08 1463.08 1758.1 1462.92 Q1759.12 1462.73 1760.13 1462.73 Q1765.92 1462.73 1769.3 1465.9 Q1772.68 1469.08 1772.68 1474.49 Q1772.68 1480.07 1769.21 1483.17 Q1765.74 1486.25 1759.42 1486.25 Q1757.24 1486.25 1754.97 1485.88 Q1752.73 1485.51 1750.32 1484.77 L1750.32 1480.07 Q1752.4 1481.2 1754.62 1481.76 Q1756.85 1482.32 1759.32 1482.32 Q1763.33 1482.32 1765.67 1480.21 Q1768 1478.1 1768 1474.49 Q1768 1470.88 1765.67 1468.77 Q1763.33 1466.67 1759.32 1466.67 Q1757.45 1466.67 1755.57 1467.08 Q1753.72 1467.5 1751.78 1468.38 L1751.78 1451.02 Z" fill="#000000" fill-rule="nonzero" fill-opacity="1" /><path clip-path="url(#clip150)" d="M2171.76 1481.64 L2179.4 1481.64 L2179.4 1455.28 L2171.09 1456.95 L2171.09 1452.69 L2179.35 1451.02 L2184.03 1451.02 L2184.03 1481.64 L2191.67 1481.64 L2191.67 1485.58 L2171.76 1485.58 L2171.76 1481.64 Z" fill="#000000" fill-rule="nonzero" fill-opacity="1" /><path clip-path="url(#clip150)" d="M2201.11 1479.7 L2206 1479.7 L2206 1485.58 L2201.11 1485.58 L2201.11 1479.7 Z" fill="#000000" fill-rule="nonzero" fill-opacity="1" /><path clip-path="url(#clip150)" d="M2226.18 1454.1 Q2222.57 1454.1 2220.74 1457.66 Q2218.94 1461.2 2218.94 1468.33 Q2218.94 1475.44 2220.74 1479.01 Q2222.57 1482.55 2226.18 1482.55 Q2229.82 1482.55 2231.62 1479.01 Q2233.45 1475.44 2233.45 1468.33 Q2233.45 1461.2 2231.62 1457.66 Q2229.82 1454.1 2226.18 1454.1 M2226.18 1450.39 Q2231.99 1450.39 2235.05 1455 Q2238.13 1459.58 2238.13 1468.33 Q2238.13 1477.06 2235.05 1481.67 Q2231.99 1486.25 2226.18 1486.25 Q2220.37 1486.25 2217.29 1481.67 Q2214.24 1477.06 2214.24 1468.33 Q2214.24 1459.58 2217.29 1455 Q2220.37 1450.39 2226.18 1450.39 Z" fill="#000000" fill-rule="nonzero" fill-opacity="1" /><path clip-path="url(#clip150)" d="M2256.34 1454.1 Q2252.73 1454.1 2250.9 1457.66 Q2249.1 1461.2 2249.1 1468.33 Q2249.1 1475.44 2250.9 1479.01 Q2252.73 1482.55 2256.34 1482.55 Q2259.98 1482.55 2261.78 1479.01 Q2263.61 1475.44 2263.61 1468.33 Q2263.61 1461.2 2261.78 1457.66 Q2259.98 1454.1 2256.34 1454.1 M2256.34 1450.39 Q2262.15 1450.39 2265.21 1455 Q2268.29 1459.58 2268.29 1468.33 Q2268.29 1477.06 2265.21 1481.67 Q2262.15 1486.25 2256.34 1486.25 Q2250.53 1486.25 2247.45 1481.67 Q2244.4 1477.06 2244.4 1468.33 Q2244.4 1459.58 2247.45 1455 Q2250.53 1450.39 2256.34 1450.39 Z" fill="#000000" fill-rule="nonzero" fill-opacity="1" /><path clip-path="url(#clip150)" d="M1146.93 1553.94 L1146.93 1551.91 L1148.51 1551.91 Q1152.09 1551.91 1152.89 1551.33 Q1153.73 1550.72 1153.73 1548.79 L1153.73 1514.04 Q1153.73 1512.14 1152.89 1511.56 Q1152.05 1510.95 1148.51 1510.95 L1146.93 1510.95 L1146.93 1508.89 L1167.64 1508.89 Q1174.82 1508.89 1179.81 1512.43 Q1184.84 1515.94 1184.84 1520.77 Q1184.84 1524.47 1181.59 1527.37 Q1178.33 1530.27 1173.31 1531.53 Q1179.85 1533.78 1181.36 1539.16 L1182.2 1544.44 Q1182.46 1546.34 1182.62 1547.31 Q1182.81 1548.27 1183.1 1549.59 Q1183.39 1550.91 1183.68 1551.56 Q1184 1552.17 1184.45 1552.85 Q1184.9 1553.49 1185.48 1553.72 Q1186.09 1553.94 1186.9 1553.94 Q1188.41 1553.94 1189.7 1552.59 Q1190.99 1551.24 1191.25 1548.08 Q1191.38 1547.02 1192.05 1547.02 Q1192.89 1547.02 1192.89 1548.08 Q1192.89 1549.01 1192.63 1550.11 Q1192.37 1551.17 1191.73 1552.43 Q1191.12 1553.68 1189.77 1554.52 Q1188.41 1555.39 1186.64 1555.39 Q1181.49 1555.39 1178.33 1552.62 Q1177.01 1551.43 1176.4 1549.88 Q1175.82 1548.34 1175.72 1547.11 Q1175.63 1545.89 1175.63 1543.19 Q1175.63 1539.35 1175.21 1537.68 Q1174.82 1536 1173.12 1534.36 Q1170.8 1532.11 1166.96 1532.11 L1159.4 1532.11 L1159.4 1548.79 Q1159.4 1550.69 1160.2 1551.3 Q1161.04 1551.91 1164.61 1551.91 L1166.19 1551.91 L1166.19 1553.94 Q1163.81 1553.75 1156.56 1553.75 Q1149.32 1553.75 1146.93 1553.94 M1159.4 1530.66 L1166.71 1530.66 Q1170.22 1530.66 1172.57 1529.82 Q1174.95 1528.95 1176.08 1527.4 Q1177.21 1525.86 1177.62 1524.31 Q1178.04 1522.73 1178.04 1520.77 Q1178.04 1518.45 1177.53 1516.71 Q1177.01 1514.97 1175.89 1513.94 Q1174.76 1512.91 1173.63 1512.27 Q1172.5 1511.59 1170.76 1511.33 Q1169.03 1511.08 1167.83 1511.01 Q1166.64 1510.95 1164.74 1510.95 Q1161.52 1510.95 1160.85 1511.08 Q1160.1 1511.14 1159.81 1511.49 Q1159.52 1511.85 1159.46 1512.27 Q1159.4 1512.65 1159.4 1513.59 L1159.4 1530.66 Z" fill="#000000" fill-rule="nonzero" fill-opacity="1" /><path clip-path="url(#clip150)" d="M1199.49 1574.12 L1199.49 1572.7 L1200.59 1572.7 Q1203.1 1572.7 1203.66 1572.3 Q1204.24 1571.87 1204.24 1570.51 L1204.24 1546.19 Q1204.24 1544.86 1203.66 1544.45 Q1203.07 1544.03 1200.59 1544.03 L1199.49 1544.03 L1199.49 1542.58 Q1201.11 1542.72 1206.5 1542.72 Q1212.59 1542.72 1214.25 1542.58 L1214.25 1544.03 L1212.72 1544.03 Q1210.6 1544.03 1209.63 1544.3 Q1208.66 1544.57 1208.51 1544.95 Q1208.35 1545.31 1208.35 1546.23 L1208.35 1570.85 Q1208.35 1572.05 1208.69 1572.39 Q1209.05 1572.7 1210.6 1572.7 L1214.39 1572.7 Q1216.73 1572.7 1218.43 1572 Q1220.12 1571.3 1221.02 1570.42 Q1221.92 1569.55 1222.51 1567.9 Q1223.11 1566.23 1223.29 1565.17 Q1223.5 1564.11 1223.68 1562.22 L1224.83 1562.22 L1223.54 1574.12 L1199.49 1574.12 Z" fill="#000000" fill-rule="nonzero" fill-opacity="1" /><path clip-path="url(#clip150)" d="M1249.05 1537.45 Q1249.05 1526.31 1253.2 1517.32 Q1254.98 1513.56 1257.46 1510.4 Q1259.94 1507.24 1261.58 1505.86 Q1263.22 1504.47 1263.67 1504.47 Q1264.32 1504.47 1264.35 1505.12 Q1264.35 1505.44 1263.48 1506.24 Q1252.85 1517.07 1252.88 1537.45 Q1252.88 1557.9 1263.22 1568.31 Q1264.35 1569.43 1264.35 1569.79 Q1264.35 1570.43 1263.67 1570.43 Q1263.22 1570.43 1261.64 1569.11 Q1260.06 1567.79 1257.62 1564.76 Q1255.17 1561.74 1253.4 1558.03 Q1249.05 1549.05 1249.05 1537.45 Z" fill="#000000" fill-rule="nonzero" fill-opacity="1" /><path clip-path="url(#clip150)" d="M1270.42 1553.94 L1270.42 1551.91 Q1273.93 1551.91 1274.73 1551.49 Q1275.57 1551.04 1275.57 1548.92 L1275.57 1514.62 Q1275.57 1512.17 1274.7 1511.56 Q1273.86 1510.95 1270.42 1510.95 L1270.42 1508.89 L1279.92 1508.18 L1279.92 1539.84 L1289.23 1531.78 Q1290.67 1530.53 1290.67 1529.21 Q1290.67 1527.69 1288.77 1527.57 L1288.77 1525.5 Q1291.54 1525.7 1296.15 1525.7 Q1298.85 1525.7 1300.75 1525.5 L1300.75 1527.57 Q1296.6 1527.76 1292.45 1531.11 Q1291.51 1531.85 1289.29 1533.78 Q1287.1 1535.68 1287.1 1535.87 Q1287.1 1535.94 1287.16 1536.1 Q1287.26 1536.26 1287.39 1536.39 Q1287.52 1536.52 1287.52 1536.58 L1295.89 1548.4 Q1297.6 1550.79 1298.85 1551.37 Q1300.11 1551.91 1302.3 1551.91 L1302.3 1553.94 Q1299.47 1553.75 1296.54 1553.75 Q1294.96 1553.75 1289.42 1553.94 L1289.42 1551.91 Q1291.8 1551.91 1291.8 1550.37 Q1291.8 1549.3 1286.46 1541.93 Q1286.07 1541.41 1285.2 1540.29 Q1284.39 1539.09 1283.94 1538.52 L1279.72 1542.12 L1279.72 1548.92 Q1279.72 1551.04 1280.53 1551.49 Q1281.37 1551.91 1284.88 1551.91 L1284.88 1553.94 Q1280.92 1553.75 1277.63 1553.75 Q1276.95 1553.75 1270.42 1553.94 Z" fill="#000000" fill-rule="nonzero" fill-opacity="1" /><path clip-path="url(#clip150)" d="M1307.74 1543.25 L1309.38 1543.25 Q1310.32 1547.73 1310.77 1548.4 Q1311.41 1549.53 1314.21 1549.66 Q1314.79 1549.66 1315.79 1549.66 L1320.2 1549.66 Q1319.4 1546.63 1317.37 1543.15 Q1315.34 1539.64 1313.41 1537.03 Q1311.51 1534.43 1309.99 1530.88 Q1308.48 1527.31 1308.48 1523.93 Q1308.48 1517.19 1314.28 1512.33 Q1320.07 1507.44 1328.58 1507.44 Q1337.08 1507.44 1342.91 1512.3 Q1348.77 1517.13 1348.77 1523.93 Q1348.77 1527.28 1347.26 1530.82 Q1345.74 1534.36 1343.84 1536.97 Q1341.97 1539.58 1339.88 1543.12 Q1337.82 1546.63 1337.01 1549.66 L1341.52 1549.66 Q1345.23 1549.66 1345.97 1548.98 Q1346.71 1548.27 1347.51 1544.57 Q1347.64 1543.7 1347.77 1543.25 L1349.48 1543.25 L1347.32 1553.94 L1336.76 1553.94 Q1335.89 1553.94 1335.5 1553.68 Q1335.11 1553.43 1335.11 1552.49 Q1335.11 1548.02 1338.53 1538.39 Q1341.97 1528.76 1341.97 1523.93 Q1341.97 1516.74 1337.88 1512.81 Q1333.79 1508.89 1328.58 1508.89 Q1323.42 1508.89 1319.33 1512.78 Q1315.28 1516.68 1315.28 1523.93 Q1315.28 1528.82 1318.69 1538.42 Q1322.14 1548.02 1322.14 1552.43 Q1322.14 1553.49 1321.72 1553.72 Q1321.33 1553.94 1320.01 1553.94 L1309.93 1553.94 L1307.74 1543.25 Z" fill="#000000" fill-rule="nonzero" fill-opacity="1" /><path clip-path="url(#clip150)" d="M1355.94 1569.79 Q1355.94 1569.47 1356.78 1568.66 Q1367.41 1557.84 1367.41 1537.45 Q1367.41 1517 1357.2 1506.66 Q1355.94 1505.47 1355.94 1505.12 Q1355.94 1504.47 1356.59 1504.47 Q1357.04 1504.47 1358.61 1505.79 Q1360.22 1507.11 1362.64 1510.14 Q1365.09 1513.17 1366.89 1516.87 Q1371.24 1525.86 1371.24 1537.45 Q1371.24 1548.6 1367.08 1557.58 Q1365.31 1561.35 1362.83 1564.51 Q1360.35 1567.66 1358.71 1569.05 Q1357.07 1570.43 1356.59 1570.43 Q1355.94 1570.43 1355.94 1569.79 Z" fill="#000000" fill-rule="nonzero" fill-opacity="1" /><polyline clip-path="url(#clip150)" style="stroke:#000000; stroke-linecap:round; stroke-linejoin:round; stroke-width:4; stroke-opacity:1; fill:none" points="175.445,1423.18 175.445,123.472 "/>
<polyline clip-path="url(#clip150)" style="stroke:#000000; stroke-linecap:round; stroke-linejoin:round; stroke-width:4; stroke-opacity:1; fill:none" points="175.445,1423.18 194.343,1423.18 "/>
<polyline clip-path="url(#clip150)" style="stroke:#000000; stroke-linecap:round; stroke-linejoin:round; stroke-width:4; stroke-opacity:1; fill:none" points="175.445,1098.25 194.343,1098.25 "/>
<polyline clip-path="url(#clip150)" style="stroke:#000000; stroke-linecap:round; stroke-linejoin:round; stroke-width:4; stroke-opacity:1; fill:none" points="175.445,773.326 194.343,773.326 "/>
<polyline clip-path="url(#clip150)" style="stroke:#000000; stroke-linecap:round; stroke-linejoin:round; stroke-width:4; stroke-opacity:1; fill:none" points="175.445,448.399 194.343,448.399 "/>
<polyline clip-path="url(#clip150)" style="stroke:#000000; stroke-linecap:round; stroke-linejoin:round; stroke-width:4; stroke-opacity:1; fill:none" points="175.445,123.472 194.343,123.472 "/>
<path clip-path="url(#clip150)" d="M132.316 1421.83 Q135.672 1422.54 137.547 1424.81 Q139.445 1427.08 139.445 1430.41 Q139.445 1435.53 135.927 1438.33 Q132.408 1441.13 125.927 1441.13 Q123.751 1441.13 121.436 1440.69 Q119.144 1440.27 116.691 1439.42 L116.691 1434.9 Q118.635 1436.04 120.95 1436.62 Q123.265 1437.2 125.788 1437.2 Q130.186 1437.2 132.478 1435.46 Q134.792 1433.72 134.792 1430.41 Q134.792 1427.36 132.64 1425.65 Q130.51 1423.91 126.691 1423.91 L122.663 1423.91 L122.663 1420.07 L126.876 1420.07 Q130.325 1420.07 132.154 1418.7 Q133.982 1417.31 133.982 1414.72 Q133.982 1412.06 132.084 1410.65 Q130.209 1409.21 126.691 1409.21 Q124.769 1409.21 122.57 1409.63 Q120.371 1410.04 117.732 1410.92 L117.732 1406.76 Q120.394 1406.02 122.709 1405.65 Q125.047 1405.27 127.107 1405.27 Q132.431 1405.27 135.533 1407.71 Q138.635 1410.11 138.635 1414.23 Q138.635 1417.1 136.992 1419.09 Q135.348 1421.06 132.316 1421.83 Z" fill="#000000" fill-rule="nonzero" fill-opacity="1" /><path clip-path="url(#clip150)" d="M129.862 1085.05 L118.056 1103.5 L129.862 1103.5 L129.862 1085.05 M128.635 1080.97 L134.515 1080.97 L134.515 1103.5 L139.445 1103.5 L139.445 1107.38 L134.515 1107.38 L134.515 1115.53 L129.862 1115.53 L129.862 1107.38 L114.26 1107.38 L114.26 1102.87 L128.635 1080.97 Z" fill="#000000" fill-rule="nonzero" fill-opacity="1" /><path clip-path="url(#clip150)" d="M118.543 756.046 L136.899 756.046 L136.899 759.981 L122.825 759.981 L122.825 768.453 Q123.843 768.106 124.862 767.944 Q125.88 767.759 126.899 767.759 Q132.686 767.759 136.066 770.93 Q139.445 774.101 139.445 779.518 Q139.445 785.097 135.973 788.199 Q132.501 791.277 126.181 791.277 Q124.005 791.277 121.737 790.907 Q119.492 790.537 117.084 789.796 L117.084 785.097 Q119.168 786.231 121.39 786.787 Q123.612 787.342 126.089 787.342 Q130.093 787.342 132.431 785.236 Q134.769 783.129 134.769 779.518 Q134.769 775.907 132.431 773.801 Q130.093 771.694 126.089 771.694 Q124.214 771.694 122.339 772.111 Q120.487 772.527 118.543 773.407 L118.543 756.046 Z" fill="#000000" fill-rule="nonzero" fill-opacity="1" /><path clip-path="url(#clip150)" d="M127.917 446.536 Q124.769 446.536 122.918 448.688 Q121.089 450.841 121.089 454.591 Q121.089 458.318 122.918 460.494 Q124.769 462.647 127.917 462.647 Q131.066 462.647 132.894 460.494 Q134.746 458.318 134.746 454.591 Q134.746 450.841 132.894 448.688 Q131.066 446.536 127.917 446.536 M137.2 431.883 L137.2 436.142 Q135.441 435.309 133.635 434.869 Q131.853 434.429 130.093 434.429 Q125.464 434.429 123.01 437.554 Q120.58 440.679 120.232 446.999 Q121.598 444.985 123.658 443.92 Q125.718 442.832 128.195 442.832 Q133.404 442.832 136.413 446.003 Q139.445 449.151 139.445 454.591 Q139.445 459.915 136.297 463.133 Q133.149 466.35 127.917 466.35 Q121.922 466.35 118.751 461.767 Q115.58 457.161 115.58 448.434 Q115.58 440.239 119.468 435.378 Q123.357 430.494 129.908 430.494 Q131.667 430.494 133.45 430.841 Q135.255 431.188 137.2 431.883 Z" fill="#000000" fill-rule="nonzero" fill-opacity="1" /><path clip-path="url(#clip150)" d="M117.223 106.192 L139.445 106.192 L139.445 108.183 L126.899 140.752 L122.015 140.752 L133.82 110.127 L117.223 110.127 L117.223 106.192 Z" fill="#000000" fill-rule="nonzero" fill-opacity="1" /><path clip-path="url(#clip150)" d="M23.0893 878.595 L21.0281 878.595 Q21.2213 871.478 21.2213 870.222 Q21.2213 863.169 21.0281 860.785 L23.0893 860.785 Q23.0893 866.196 24.9894 866.196 Q25.2471 866.196 26.181 865.809 L59.4819 853.217 L27.6947 841.14 Q26.6963 840.818 26.3743 840.818 Q25.0538 840.818 24.1199 842.042 Q23.1537 843.233 23.0893 845.616 L21.0281 845.616 Q21.2213 840.463 21.2213 838.112 Q21.2213 834.763 21.0281 831.703 L23.0893 831.703 Q23.1537 837.243 27.5015 838.885 L66.2773 853.603 Q67.0825 853.861 67.3079 854.119 Q67.5334 854.376 67.5334 855.182 Q67.5334 855.826 67.2757 856.18 Q67.0181 856.502 66.0841 856.824 L25.6013 872.122 Q23.83 872.766 23.4757 873.925 Q23.0893 875.085 23.0893 878.595 Z" fill="#000000" fill-rule="nonzero" fill-opacity="1" /><path clip-path="url(#clip150)" d="M77.3399 822.074 Q74.319 825.118 69.9454 825.118 Q65.5493 825.118 62.348 822.142 Q59.1242 819.144 59.1242 814.86 Q59.1242 810.667 62.3255 807.669 Q65.5042 804.648 69.9454 804.648 Q74.2964 804.648 77.3173 807.691 Q80.3382 810.712 80.3382 814.905 Q80.3382 819.008 77.3399 822.074 M69.5622 821.285 Q74.0484 821.285 76.0774 820.113 Q79.1659 818.309 79.1659 814.86 Q79.1659 813.147 78.2416 811.727 Q77.3173 810.284 75.7618 809.495 Q73.7328 808.48 69.5622 808.48 Q65.121 808.48 63.1596 809.698 Q60.1613 811.501 60.1613 814.905 Q60.1613 816.393 60.9503 817.859 Q61.7168 819.301 63.2498 820.181 Q65.2788 821.285 69.5622 821.285 Z" fill="#000000" fill-rule="nonzero" fill-opacity="1" /><path clip-path="url(#clip150)" d="M49.5947 780.38 Q38.4515 780.38 29.466 776.225 Q25.6979 774.454 22.5418 771.974 Q19.3856 769.494 18.0007 767.852 Q16.6159 766.209 16.6159 765.758 Q16.6159 765.114 17.26 765.082 Q17.5821 765.082 18.3872 765.951 Q29.2084 776.579 49.5947 776.547 Q70.0454 776.547 80.4479 766.209 Q81.5751 765.082 81.9294 765.082 Q82.5735 765.082 82.5735 765.758 Q82.5735 766.209 81.2531 767.787 Q79.9326 769.365 76.9053 771.813 Q73.8779 774.261 70.1742 776.032 Q61.1888 780.38 49.5947 780.38 Z" fill="#000000" fill-rule="nonzero" fill-opacity="1" /><path clip-path="url(#clip150)" d="M23.0893 757.692 L21.0281 757.692 Q21.2213 750.575 21.2213 749.319 Q21.2213 742.266 21.0281 739.882 L23.0893 739.882 Q23.0893 745.293 24.9894 745.293 Q25.2471 745.293 26.181 744.907 L59.4819 732.314 L27.6947 720.237 Q26.6963 719.915 26.3743 719.915 Q25.0538 719.915 24.1199 721.139 Q23.1537 722.33 23.0893 724.713 L21.0281 724.713 Q21.2213 719.561 21.2213 717.209 Q21.2213 713.86 21.0281 710.801 L23.0893 710.801 Q23.1537 716.34 27.5015 717.982 L66.2773 732.7 Q67.0825 732.958 67.3079 733.216 Q67.5334 733.473 67.5334 734.279 Q67.5334 734.923 67.2757 735.277 Q67.0181 735.599 66.0841 735.921 L25.6013 751.219 Q23.83 751.863 23.4757 753.022 Q23.0893 754.182 23.0893 757.692 Z" fill="#000000" fill-rule="nonzero" fill-opacity="1" /><path clip-path="url(#clip150)" d="M81.9294 693.384 Q81.6073 693.384 80.8022 692.547 Q69.981 681.919 49.5947 681.919 Q29.144 681.919 18.8059 692.128 Q17.6143 693.384 17.26 693.384 Q16.6159 693.384 16.6159 692.74 Q16.6159 692.289 17.9363 690.711 Q19.2568 689.101 22.2841 686.685 Q25.3115 684.238 29.0151 682.434 Q38.0006 678.086 49.5947 678.086 Q60.7379 678.086 69.7234 682.241 Q73.4914 684.012 76.6476 686.492 Q79.8038 688.972 81.1886 690.614 Q82.5735 692.257 82.5735 692.74 Q82.5735 693.384 81.9294 693.384 Z" fill="#000000" fill-rule="nonzero" fill-opacity="1" /><path clip-path="url(#clip150)" d="M993.552 15.7137 L993.552 13.0903 Q1002.61 13.3363 1004.21 13.3363 Q1013.19 13.3363 1016.22 13.0903 L1016.22 15.7137 Q1009.33 15.7137 1009.33 18.132 Q1009.33 18.4599 1009.83 19.6486 L1025.85 62.0315 L1041.22 21.5751 Q1041.63 20.3045 1041.63 19.8946 Q1041.63 18.214 1040.08 17.0253 Q1038.56 15.7956 1035.53 15.7137 L1035.53 13.0903 Q1042.08 13.3363 1045.08 13.3363 Q1049.34 13.3363 1053.23 13.0903 L1053.23 15.7137 Q1046.18 15.7956 1044.09 21.3292 L1025.36 70.6803 Q1025.03 71.705 1024.7 71.9919 Q1024.38 72.2789 1023.35 72.2789 Q1022.53 72.2789 1022.08 71.9509 Q1021.67 71.623 1021.26 70.4343 L1001.79 18.9108 Q1000.97 16.6564 999.496 16.2055 Q998.02 15.7137 993.552 15.7137 Z" fill="#000000" fill-rule="nonzero" fill-opacity="1" /><path clip-path="url(#clip150)" d="M1065.48 84.7579 Q1061.61 80.9131 1061.61 75.3467 Q1061.61 69.7517 1065.39 65.6773 Q1069.21 61.5743 1074.66 61.5743 Q1080 61.5743 1083.81 65.6487 Q1087.66 69.6943 1087.66 75.3467 Q1087.66 80.8844 1083.79 84.7292 Q1079.94 88.574 1074.6 88.574 Q1069.38 88.574 1065.48 84.7579 M1066.48 74.8589 Q1066.48 80.5688 1067.98 83.1511 Q1070.27 87.0819 1074.66 87.0819 Q1076.84 87.0819 1078.65 85.9056 Q1080.49 84.7292 1081.49 82.7494 Q1082.78 80.1671 1082.78 74.8589 Q1082.78 69.2065 1081.23 66.7103 Q1078.94 62.8942 1074.6 62.8942 Q1072.71 62.8942 1070.85 63.8984 Q1069.01 64.874 1067.89 66.825 Q1066.48 69.4074 1066.48 74.8589 Z" fill="#000000" fill-rule="nonzero" fill-opacity="1" /><path clip-path="url(#clip150)" d="M1118.55 36.8641 L1118.55 34.2408 Q1122.32 34.4867 1126.71 34.4867 Q1128.3 34.4867 1135.85 34.2408 L1135.85 36.8641 Q1131.05 36.8641 1131.05 39.0366 Q1131.05 39.3645 1131.54 40.4712 L1140.97 63.8761 L1149.54 42.4797 Q1150.03 41.045 1150.03 40.4712 Q1150.03 39.0366 1149.04 38.0118 Q1148.1 36.9461 1146.01 36.8641 L1146.01 34.2408 Q1150.27 34.4867 1153.31 34.4867 Q1156.75 34.4867 1159.58 34.2408 L1159.58 36.8641 Q1157.08 36.8641 1155.32 38.0118 Q1153.55 39.1185 1152.98 40.1023 Q1152.45 41.045 1151.87 42.4797 L1140.89 69.7785 Q1140.23 71.3771 1139.13 71.3771 Q1138.39 71.3771 1138.06 71.0492 Q1137.77 70.7623 1137.36 69.7785 L1125.27 39.9793 Q1124.45 37.8889 1123.39 37.397 Q1122.32 36.8641 1118.55 36.8641 Z" fill="#000000" fill-rule="nonzero" fill-opacity="1" /><path clip-path="url(#clip150)" d="M1164.34 69.3276 L1164.34 58.2605 Q1164.34 57.3178 1164.38 56.9899 Q1164.42 56.6619 1164.66 56.416 Q1164.91 56.1701 1165.4 56.1701 Q1165.98 56.1701 1166.18 56.416 Q1166.43 56.6619 1166.59 57.6047 Q1167.86 63.3842 1170.57 66.4584 Q1173.31 69.4916 1178.27 69.4916 Q1182.99 69.4916 1185.36 67.4011 Q1187.74 65.3107 1187.74 61.8676 Q1187.74 55.7192 1179.01 54.1616 Q1173.97 53.1369 1171.88 52.481 Q1169.79 51.7842 1167.94 50.2676 Q1164.34 47.3164 1164.34 43.1355 Q1164.34 38.9546 1167.49 35.8804 Q1170.69 32.8062 1177.74 32.8062 Q1182.45 32.8062 1185.65 35.1836 Q1186.59 34.4458 1187.09 33.8309 Q1188.19 32.8062 1188.77 32.8062 Q1189.42 32.8062 1189.55 33.2571 Q1189.67 33.667 1189.67 34.8557 L1189.67 43.2994 Q1189.67 44.2422 1189.63 44.5701 Q1189.59 44.898 1189.34 45.144 Q1189.09 45.3489 1188.56 45.3489 Q1187.62 45.3489 1187.58 44.5701 Q1186.92 34.4048 1177.74 34.4048 Q1172.78 34.4048 1170.57 36.3313 Q1168.35 38.2168 1168.35 40.7991 Q1168.35 42.2337 1169.01 43.3404 Q1169.71 44.4062 1170.57 45.062 Q1171.47 45.6768 1173.11 46.2917 Q1174.75 46.8655 1175.73 47.0705 Q1176.76 47.2754 1178.68 47.6853 Q1185.41 48.956 1188.23 51.7022 Q1191.76 55.2273 1191.76 59.6952 Q1191.76 64.6549 1188.4 68.016 Q1185.04 71.3771 1178.27 71.3771 Q1172.82 71.3771 1169.01 67.7291 Q1168.52 68.2209 1168.15 68.6718 Q1167.78 69.0817 1167.62 69.2457 Q1167.49 69.4096 1167.45 69.5326 Q1167.41 69.6146 1167.33 69.6965 Q1165.65 71.3771 1165.24 71.3771 Q1164.58 71.3771 1164.46 70.9262 Q1164.34 70.5163 1164.34 69.3276 Z" fill="#000000" fill-rule="nonzero" fill-opacity="1" /><path clip-path="url(#clip150)" d="M1198.33 69.0817 Q1197.06 67.7291 1197.06 65.9665 Q1197.06 64.204 1198.33 62.9333 Q1199.6 61.6216 1201.53 61.6216 Q1203.37 61.6216 1204.6 62.8513 Q1205.87 64.04 1205.87 66.0075 Q1205.87 67.934 1204.52 69.2047 Q1203.21 70.4343 1201.53 70.4343 Q1199.6 70.4343 1198.33 69.0817 Z" fill="#000000" fill-rule="nonzero" fill-opacity="1" /><path clip-path="url(#clip150)" d="M1233.47 70.4343 L1233.47 67.852 L1235.47 67.852 Q1240.02 67.852 1241.05 67.1142 Q1242.11 66.3354 1242.11 63.8761 L1242.11 19.6486 Q1242.11 17.2303 1241.05 16.4925 Q1239.98 15.7137 1235.47 15.7137 L1233.47 15.7137 L1233.47 13.0903 L1259.82 13.0903 Q1268.96 13.0903 1275.32 17.5992 Q1281.71 22.067 1281.71 28.2154 Q1281.71 32.9292 1277.57 36.6182 Q1273.43 40.3072 1267.04 41.9058 Q1275.36 44.7751 1277.28 51.6203 L1278.35 58.3425 Q1278.68 60.7609 1278.88 61.9906 Q1279.13 63.2202 1279.5 64.9008 Q1279.87 66.5814 1280.23 67.4011 Q1280.64 68.1799 1281.22 69.0407 Q1281.79 69.8605 1282.53 70.1474 Q1283.31 70.4343 1284.33 70.4343 Q1286.26 70.4343 1287.9 68.7128 Q1289.54 66.9912 1289.87 62.9743 Q1290.03 61.6216 1290.89 61.6216 Q1291.96 61.6216 1291.96 62.9743 Q1291.96 64.163 1291.63 65.5566 Q1291.3 66.9093 1290.48 68.5078 Q1289.7 70.1064 1287.98 71.1722 Q1286.26 72.2789 1284.01 72.2789 Q1277.45 72.2789 1273.43 68.7538 Q1271.75 67.2372 1270.97 65.2697 Q1270.23 63.3022 1270.11 61.7446 Q1269.99 60.187 1269.99 56.7439 Q1269.99 51.8662 1269.45 49.7348 Q1268.96 47.6033 1266.79 45.5129 Q1263.84 42.6436 1258.96 42.6436 L1249.33 42.6436 L1249.33 63.8761 Q1249.33 66.2944 1250.35 67.0732 Q1251.42 67.852 1255.97 67.852 L1257.98 67.852 L1257.98 70.4343 Q1254.94 70.1884 1245.72 70.1884 Q1236.5 70.1884 1233.47 70.4343 M1249.33 40.7991 L1258.63 40.7991 Q1263.1 40.7991 1266.09 39.7334 Q1269.13 38.6267 1270.56 36.6592 Q1272 34.6917 1272.53 32.7242 Q1273.06 30.7157 1273.06 28.2154 Q1273.06 25.2642 1272.41 23.0507 Q1271.75 20.8373 1270.31 19.5257 Q1268.88 18.214 1267.45 17.3942 Q1266.01 16.5334 1263.8 16.2055 Q1261.58 15.8776 1260.07 15.7956 Q1258.55 15.7137 1256.13 15.7137 Q1252.03 15.7137 1251.17 15.8776 Q1250.23 15.9596 1249.86 16.4105 Q1249.49 16.8614 1249.41 17.3942 Q1249.33 17.8861 1249.33 19.0748 L1249.33 40.7991 Z" fill="#000000" fill-rule="nonzero" fill-opacity="1" /><path clip-path="url(#clip150)" d="M1300.35 96.1172 L1300.35 94.3095 L1301.75 94.3095 Q1304.94 94.3095 1305.66 93.7931 Q1306.4 93.2479 1306.4 91.5264 L1306.4 60.5672 Q1306.4 58.8743 1305.66 58.3578 Q1304.91 57.8127 1301.75 57.8127 L1300.35 57.8127 L1300.35 55.9764 Q1302.41 56.1485 1309.27 56.1485 Q1317.02 56.1485 1319.14 55.9764 L1319.14 57.8127 L1317.19 57.8127 Q1314.49 57.8127 1313.26 58.157 Q1312.03 58.5013 1311.82 58.9891 Q1311.62 59.4481 1311.62 60.6245 L1311.62 91.9567 Q1311.62 93.4774 1312.05 93.9078 Q1312.51 94.3095 1314.49 94.3095 L1319.31 94.3095 Q1322.3 94.3095 1324.45 93.4201 Q1326.6 92.5306 1327.75 91.4116 Q1328.9 90.2926 1329.64 88.198 Q1330.42 86.0748 1330.65 84.7262 Q1330.9 83.3777 1331.13 80.9675 L1332.6 80.9675 L1330.96 96.1172 L1300.35 96.1172 Z" fill="#000000" fill-rule="nonzero" fill-opacity="1" /><path clip-path="url(#clip150)" d="M1385.61 84.1248 Q1390.08 84.1248 1391.1 83.5509 Q1392.17 83.0181 1392.17 80.3537 L1392.17 41.045 Q1392.17 38.2578 1391.1 37.5609 Q1390.08 36.8641 1385.61 36.8641 L1385.61 34.2408 L1397.7 33.339 L1397.7 38.8726 Q1402.74 33.339 1409.46 33.339 Q1416.6 33.339 1421.8 38.8726 Q1427.01 44.4062 1427.01 52.3171 Q1427.01 60.31 1421.47 65.8435 Q1415.94 71.3771 1408.27 71.3771 Q1404.09 71.3771 1401.27 69.2457 Q1398.48 67.0732 1397.94 65.4746 L1397.94 66.2534 L1397.94 80.3537 Q1397.94 83.059 1399.01 83.5919 Q1400.08 84.1248 1404.5 84.1248 L1404.5 86.7071 Q1395.69 86.4612 1395.03 86.4612 Q1394.21 86.4612 1385.61 86.7071 L1385.61 84.1248 M1397.94 60.8838 Q1397.94 62.1545 1398.11 62.6054 Q1398.31 63.0563 1399.13 64.4089 Q1402.45 69.4916 1407.86 69.4916 Q1407.91 69.4916 1407.95 69.4916 Q1412.74 69.4916 1416.39 64.6139 Q1420.04 59.6952 1420.04 52.3171 Q1420.04 45.2669 1416.72 40.3482 Q1413.4 35.4295 1408.81 35.4295 Q1405.53 35.4295 1402.66 37.192 Q1399.79 38.9546 1397.94 42.1517 L1397.94 60.8838 Z" fill="#000000" fill-rule="nonzero" fill-opacity="1" /><path clip-path="url(#clip150)" d="M1438.44 70.4343 L1438.44 67.852 Q1442.91 67.852 1443.94 67.3192 Q1444.96 66.7453 1444.96 64.04 L1444.96 20.3864 Q1444.96 17.2713 1443.85 16.4925 Q1442.79 15.7137 1438.44 15.7137 L1438.44 13.0903 L1450.5 12.1886 L1450.5 64.04 Q1450.5 66.7453 1451.56 67.3192 Q1452.63 67.852 1457.05 67.852 L1457.05 70.4343 Q1456.03 70.4343 1453.9 70.3524 Q1451.77 70.2704 1450.21 70.2294 Q1448.65 70.1884 1447.75 70.1884 Q1446.77 70.1884 1438.44 70.4343 Z" fill="#000000" fill-rule="nonzero" fill-opacity="1" /><path clip-path="url(#clip150)" d="M1469.68 65.9255 Q1464.15 60.433 1464.15 52.481 Q1464.15 44.4881 1469.56 38.6677 Q1475.01 32.8062 1482.8 32.8062 Q1490.42 32.8062 1495.88 38.6267 Q1501.37 44.4062 1501.37 52.481 Q1501.37 60.392 1495.83 65.8845 Q1490.34 71.3771 1482.72 71.3771 Q1475.26 71.3771 1469.68 65.9255 M1471.12 51.7842 Q1471.12 59.9411 1473.25 63.6301 Q1476.53 69.2457 1482.8 69.2457 Q1485.92 69.2457 1488.5 67.5651 Q1491.12 65.8845 1492.56 63.0563 Q1494.4 59.3672 1494.4 51.7842 Q1494.4 43.7093 1492.19 40.1433 Q1488.91 34.6917 1482.72 34.6917 Q1480.01 34.6917 1477.35 36.1263 Q1474.73 37.52 1473.13 40.3072 Q1471.12 43.9963 1471.12 51.7842 Z" fill="#000000" fill-rule="nonzero" fill-opacity="1" /><path clip-path="url(#clip150)" d="M1502.42 36.8641 L1502.42 35.0196 Q1506.27 34.8557 1508.81 32.1504 Q1511.39 29.4041 1512.25 26.043 Q1513.15 22.6818 1513.24 18.7879 L1515.33 18.7879 L1515.33 34.2408 L1527.34 34.2408 L1527.34 36.8641 L1515.33 36.8641 L1515.33 60.187 Q1515.33 69.2457 1520.98 69.2457 Q1523.4 69.2457 1525 66.7863 Q1526.6 64.286 1526.6 59.8591 L1526.6 55.2273 L1528.69 55.2273 L1528.69 60.0231 Q1528.69 64.5729 1526.6 67.975 Q1524.51 71.3771 1520.37 71.3771 Q1518.85 71.3771 1517.34 70.9672 Q1515.86 70.5983 1513.89 69.6146 Q1511.97 68.5898 1510.74 66.1305 Q1509.55 63.6301 1509.55 60.0231 L1509.55 36.8641 L1502.42 36.8641 Z" fill="#000000" fill-rule="nonzero" fill-opacity="1" /><circle clip-path="url(#clip152)" cx="237.067" cy="744.083" r="14.4" fill="#0000ff" fill-rule="evenodd" fill-opacity="1" stroke="#000000" stroke-opacity="1" stroke-width="3.2"/>
<circle clip-path="url(#clip152)" cx="284.698" cy="763.578" r="14.4" fill="#0000ff" fill-rule="evenodd" fill-opacity="1" stroke="#000000" stroke-opacity="1" stroke-width="3.2"/>
<circle clip-path="url(#clip152)" cx="300.575" cy="779.825" r="14.4" fill="#0000ff" fill-rule="evenodd" fill-opacity="1" stroke="#000000" stroke-opacity="1" stroke-width="3.2"/>
<circle clip-path="url(#clip152)" cx="397.82" cy="766.827" r="14.4" fill="#0000ff" fill-rule="evenodd" fill-opacity="1" stroke="#000000" stroke-opacity="1" stroke-width="3.2"/>
<circle clip-path="url(#clip152)" cx="518.881" cy="773.326" r="14.4" fill="#0000ff" fill-rule="evenodd" fill-opacity="1" stroke="#000000" stroke-opacity="1" stroke-width="3.2"/>
<circle clip-path="url(#clip152)" cx="624.065" cy="773.326" r="14.4" fill="#0000ff" fill-rule="evenodd" fill-opacity="1" stroke="#000000" stroke-opacity="1" stroke-width="3.2"/>
<circle clip-path="url(#clip152)" cx="790.772" cy="753.83" r="14.4" fill="#0000ff" fill-rule="evenodd" fill-opacity="1" stroke="#000000" stroke-opacity="1" stroke-width="3.2"/>
<circle clip-path="url(#clip152)" cx="913.818" cy="763.578" r="14.4" fill="#0000ff" fill-rule="evenodd" fill-opacity="1" stroke="#000000" stroke-opacity="1" stroke-width="3.2"/>
<circle clip-path="url(#clip152)" cx="1034.88" cy="636.857" r="14.4" fill="#0000ff" fill-rule="evenodd" fill-opacity="1" stroke="#000000" stroke-opacity="1" stroke-width="3.2"/>
<circle clip-path="url(#clip152)" cx="1211.51" cy="711.59" r="14.4" fill="#0000ff" fill-rule="evenodd" fill-opacity="1" stroke="#000000" stroke-opacity="1" stroke-width="3.2"/>
<circle clip-path="url(#clip152)" cx="1340.51" cy="734.335" r="14.4" fill="#0000ff" fill-rule="evenodd" fill-opacity="1" stroke="#000000" stroke-opacity="1" stroke-width="3.2"/>
<circle clip-path="url(#clip152)" cx="1485.38" cy="734.335" r="14.4" fill="#0000ff" fill-rule="evenodd" fill-opacity="1" stroke="#000000" stroke-opacity="1" stroke-width="3.2"/>
<circle clip-path="url(#clip152)" cx="1636.21" cy="763.578" r="14.4" fill="#0000ff" fill-rule="evenodd" fill-opacity="1" stroke="#000000" stroke-opacity="1" stroke-width="3.2"/>
<circle clip-path="url(#clip152)" cx="1779.11" cy="711.59" r="14.4" fill="#0000ff" fill-rule="evenodd" fill-opacity="1" stroke="#000000" stroke-opacity="1" stroke-width="3.2"/>
<circle clip-path="url(#clip152)" cx="1947.8" cy="659.602" r="14.4" fill="#0000ff" fill-rule="evenodd" fill-opacity="1" stroke="#000000" stroke-opacity="1" stroke-width="3.2"/>
<circle clip-path="url(#clip152)" cx="2072.83" cy="734.335" r="14.4" fill="#0000ff" fill-rule="evenodd" fill-opacity="1" stroke="#000000" stroke-opacity="1" stroke-width="3.2"/>
<circle clip-path="url(#clip152)" cx="2195.87" cy="721.338" r="14.4" fill="#0000ff" fill-rule="evenodd" fill-opacity="1" stroke="#000000" stroke-opacity="1" stroke-width="3.2"/>
<circle clip-path="url(#clip152)" cx="2291.13" cy="718.088" r="14.4" fill="#0000ff" fill-rule="evenodd" fill-opacity="1" stroke="#000000" stroke-opacity="1" stroke-width="3.2"/>
<polyline clip-path="url(#clip152)" style="stroke:#ff0000; stroke-linecap:round; stroke-linejoin:round; stroke-width:8; stroke-opacity:1; fill:none" stroke-dasharray="32, 20" points="237.067,734.335 284.698,734.335 300.575,734.335 397.82,734.335 518.881,734.335 624.065,734.335 790.772,734.335 913.818,734.335 1034.88,734.335 1211.51,734.335 1340.51,734.335 1485.38,734.335 1636.21,734.335 1779.11,734.335 1947.8,734.335 2072.83,734.335 2195.87,734.335 2291.13,734.335 "/>
<path clip-path="url(#clip150)" d="M1634.06 322.316 L2280.18 322.316 L2280.18 166.796 L1634.06 166.796  Z" fill="#ffffff" fill-rule="evenodd" fill-opacity="1"/>
<polyline clip-path="url(#clip150)" style="stroke:#000000; stroke-linecap:round; stroke-linejoin:round; stroke-width:4; stroke-opacity:1; fill:none" points="1634.06,322.316 2280.18,322.316 2280.18,166.796 1634.06,166.796 1634.06,322.316 "/>
<circle clip-path="url(#clip150)" cx="1730.83" cy="218.636" r="20.48" fill="#0000ff" fill-rule="evenodd" fill-opacity="1" stroke="#000000" stroke-opacity="1" stroke-width="4.55111"/>
<path clip-path="url(#clip150)" d="M1832.28 205.198 L1832.28 232.073 L1837.93 232.073 Q1845.08 232.073 1848.39 228.832 Q1851.72 225.592 1851.72 218.601 Q1851.72 211.657 1848.39 208.439 Q1845.08 205.198 1837.93 205.198 L1832.28 205.198 M1827.6 201.356 L1837.21 201.356 Q1847.26 201.356 1851.95 205.546 Q1856.65 209.712 1856.65 218.601 Q1856.65 227.536 1851.93 231.726 Q1847.21 235.916 1837.21 235.916 L1827.6 235.916 L1827.6 201.356 Z" fill="#000000" fill-rule="nonzero" fill-opacity="1" /><path clip-path="url(#clip150)" d="M1875.7 222.883 Q1870.54 222.883 1868.55 224.064 Q1866.56 225.244 1866.56 228.092 Q1866.56 230.36 1868.04 231.703 Q1869.55 233.022 1872.12 233.022 Q1875.66 233.022 1877.79 230.522 Q1879.94 227.999 1879.94 223.832 L1879.94 222.883 L1875.7 222.883 M1884.2 221.124 L1884.2 235.916 L1879.94 235.916 L1879.94 231.981 Q1878.48 234.342 1876.31 235.476 Q1874.13 236.587 1870.98 236.587 Q1867 236.587 1864.64 234.365 Q1862.3 232.119 1862.3 228.369 Q1862.3 223.994 1865.22 221.772 Q1868.16 219.55 1873.97 219.55 L1879.94 219.55 L1879.94 219.133 Q1879.94 216.194 1878 214.596 Q1876.07 212.976 1872.58 212.976 Q1870.36 212.976 1868.25 213.508 Q1866.14 214.041 1864.2 215.106 L1864.2 211.17 Q1866.54 210.268 1868.74 209.828 Q1870.94 209.365 1873.02 209.365 Q1878.64 209.365 1881.42 212.282 Q1884.2 215.198 1884.2 221.124 Z" fill="#000000" fill-rule="nonzero" fill-opacity="1" /><path clip-path="url(#clip150)" d="M1897.19 202.629 L1897.19 209.99 L1905.96 209.99 L1905.96 213.3 L1897.19 213.3 L1897.19 227.374 Q1897.19 230.545 1898.04 231.448 Q1898.92 232.351 1901.58 232.351 L1905.96 232.351 L1905.96 235.916 L1901.58 235.916 Q1896.65 235.916 1894.78 234.087 Q1892.9 232.235 1892.9 227.374 L1892.9 213.3 L1889.78 213.3 L1889.78 209.99 L1892.9 209.99 L1892.9 202.629 L1897.19 202.629 Z" fill="#000000" fill-rule="nonzero" fill-opacity="1" /><path clip-path="url(#clip150)" d="M1923.34 222.883 Q1918.18 222.883 1916.19 224.064 Q1914.2 225.244 1914.2 228.092 Q1914.2 230.36 1915.68 231.703 Q1917.19 233.022 1919.76 233.022 Q1923.3 233.022 1925.43 230.522 Q1927.58 227.999 1927.58 223.832 L1927.58 222.883 L1923.34 222.883 M1931.84 221.124 L1931.84 235.916 L1927.58 235.916 L1927.58 231.981 Q1926.12 234.342 1923.94 235.476 Q1921.77 236.587 1918.62 236.587 Q1914.64 236.587 1912.28 234.365 Q1909.94 232.119 1909.94 228.369 Q1909.94 223.994 1912.86 221.772 Q1915.8 219.55 1921.61 219.55 L1927.58 219.55 L1927.58 219.133 Q1927.58 216.194 1925.63 214.596 Q1923.71 212.976 1920.22 212.976 Q1918 212.976 1915.89 213.508 Q1913.78 214.041 1911.84 215.106 L1911.84 211.17 Q1914.18 210.268 1916.38 209.828 Q1918.57 209.365 1920.66 209.365 Q1926.28 209.365 1929.06 212.282 Q1931.84 215.198 1931.84 221.124 Z" fill="#000000" fill-rule="nonzero" fill-opacity="1" /><path clip-path="url(#clip150)" d="M1960.54 205.198 L1960.54 218.184 L1966.42 218.184 Q1969.69 218.184 1971.47 216.495 Q1973.25 214.805 1973.25 211.68 Q1973.25 208.578 1971.47 206.888 Q1969.69 205.198 1966.42 205.198 L1960.54 205.198 M1955.87 201.356 L1966.42 201.356 Q1972.23 201.356 1975.19 203.995 Q1978.18 206.61 1978.18 211.68 Q1978.18 216.795 1975.19 219.411 Q1972.23 222.027 1966.42 222.027 L1960.54 222.027 L1960.54 235.916 L1955.87 235.916 L1955.87 201.356 Z" fill="#000000" fill-rule="nonzero" fill-opacity="1" /><path clip-path="url(#clip150)" d="M1992.63 212.976 Q1989.2 212.976 1987.21 215.661 Q1985.22 218.323 1985.22 222.976 Q1985.22 227.629 1987.19 230.314 Q1989.18 232.976 1992.63 232.976 Q1996.03 232.976 1998.02 230.291 Q2000.01 227.606 2000.01 222.976 Q2000.01 218.37 1998.02 215.684 Q1996.03 212.976 1992.63 212.976 M1992.63 209.365 Q1998.18 209.365 2001.35 212.976 Q2004.52 216.587 2004.52 222.976 Q2004.52 229.342 2001.35 232.976 Q1998.18 236.587 1992.63 236.587 Q1987.05 236.587 1983.88 232.976 Q1980.73 229.342 1980.73 222.976 Q1980.73 216.587 1983.88 212.976 Q1987.05 209.365 1992.63 209.365 Z" fill="#000000" fill-rule="nonzero" fill-opacity="1" /><path clip-path="url(#clip150)" d="M2011.58 209.99 L2015.84 209.99 L2015.84 235.916 L2011.58 235.916 L2011.58 209.99 M2011.58 199.897 L2015.84 199.897 L2015.84 205.291 L2011.58 205.291 L2011.58 199.897 Z" fill="#000000" fill-rule="nonzero" fill-opacity="1" /><path clip-path="url(#clip150)" d="M2046.31 220.268 L2046.31 235.916 L2042.05 235.916 L2042.05 220.407 Q2042.05 216.726 2040.61 214.897 Q2039.18 213.069 2036.31 213.069 Q2032.86 213.069 2030.87 215.268 Q2028.87 217.467 2028.87 221.263 L2028.87 235.916 L2024.59 235.916 L2024.59 209.99 L2028.87 209.99 L2028.87 214.018 Q2030.4 211.68 2032.46 210.522 Q2034.55 209.365 2037.25 209.365 Q2041.72 209.365 2044.01 212.143 Q2046.31 214.897 2046.31 220.268 Z" fill="#000000" fill-rule="nonzero" fill-opacity="1" /><path clip-path="url(#clip150)" d="M2059.01 202.629 L2059.01 209.99 L2067.79 209.99 L2067.79 213.3 L2059.01 213.3 L2059.01 227.374 Q2059.01 230.545 2059.87 231.448 Q2060.75 232.351 2063.41 232.351 L2067.79 232.351 L2067.79 235.916 L2063.41 235.916 Q2058.48 235.916 2056.61 234.087 Q2054.73 232.235 2054.73 227.374 L2054.73 213.3 L2051.61 213.3 L2051.61 209.99 L2054.73 209.99 L2054.73 202.629 L2059.01 202.629 Z" fill="#000000" fill-rule="nonzero" fill-opacity="1" /><path clip-path="url(#clip150)" d="M2089.92 210.754 L2089.92 214.782 Q2088.11 213.856 2086.17 213.393 Q2084.22 212.93 2082.14 212.93 Q2078.97 212.93 2077.37 213.902 Q2075.8 214.874 2075.8 216.819 Q2075.8 218.3 2076.93 219.157 Q2078.06 219.99 2081.49 220.754 L2082.95 221.078 Q2087.49 222.05 2089.38 223.832 Q2091.31 225.592 2091.31 228.763 Q2091.31 232.374 2088.43 234.481 Q2085.59 236.587 2080.59 236.587 Q2078.5 236.587 2076.24 236.17 Q2073.99 235.777 2071.49 234.967 L2071.49 230.569 Q2073.85 231.795 2076.14 232.42 Q2078.43 233.022 2080.68 233.022 Q2083.69 233.022 2085.31 232.004 Q2086.93 230.962 2086.93 229.087 Q2086.93 227.351 2085.75 226.425 Q2084.59 225.499 2080.63 224.643 L2079.15 224.295 Q2075.19 223.462 2073.43 221.749 Q2071.68 220.013 2071.68 217.004 Q2071.68 213.346 2074.27 211.356 Q2076.86 209.365 2081.63 209.365 Q2083.99 209.365 2086.07 209.712 Q2088.16 210.059 2089.92 210.754 Z" fill="#000000" fill-rule="nonzero" fill-opacity="1" /><polyline clip-path="url(#clip150)" style="stroke:#ff0000; stroke-linecap:round; stroke-linejoin:round; stroke-width:8; stroke-opacity:1; fill:none" stroke-dasharray="32, 20" points="1658.26,270.476 1803.41,270.476 "/>
<path clip-path="url(#clip150)" d="M1827.6 282.294 L1827.6 280.818 Q1831.87 280.725 1832.97 277.586 L1842.9 248.917 Q1843.09 248.331 1843.3 248.144 Q1843.51 247.957 1844.05 247.957 Q1844.33 247.957 1844.49 248.004 Q1844.68 248.05 1844.79 248.214 Q1844.91 248.378 1844.96 248.472 Q1845.01 248.566 1845.15 248.917 L1855.5 278.898 Q1855.87 280.092 1856.65 280.467 Q1857.42 280.818 1859.6 280.818 L1860.44 280.818 L1860.44 282.294 Q1857.42 282.153 1854.16 282.153 Q1848.99 282.153 1847.25 282.294 L1847.25 280.818 Q1851.24 280.818 1851.24 279.366 Q1851.24 279.273 1851.1 278.687 L1848.57 271.356 L1836.71 271.356 L1834.49 277.633 Q1834.4 277.82 1834.4 278.359 Q1834.4 279.366 1835.33 280.092 Q1836.27 280.818 1838 280.818 L1838 282.294 Q1833.39 282.153 1832.47 282.153 Q1830.91 282.153 1827.6 282.294 M1837.23 269.88 L1848.03 269.88 L1842.62 254.281 L1837.23 269.88 Z" fill="#000000" fill-rule="nonzero" fill-opacity="1" /><path clip-path="url(#clip150)" d="M1860.21 263.111 L1860.21 261.612 Q1862.36 261.753 1864.87 261.753 Q1865.78 261.753 1870.09 261.612 L1870.09 263.111 Q1867.35 263.111 1867.35 264.352 Q1867.35 264.54 1867.63 265.172 L1873.02 278.546 L1877.92 266.32 Q1878.2 265.5 1878.2 265.172 Q1878.2 264.352 1877.64 263.767 Q1877.1 263.158 1875.9 263.111 L1875.9 261.612 Q1878.34 261.753 1880.07 261.753 Q1882.04 261.753 1883.66 261.612 L1883.66 263.111 Q1882.23 263.111 1881.22 263.767 Q1880.21 264.399 1879.88 264.961 Q1879.58 265.5 1879.25 266.32 L1872.98 281.919 Q1872.6 282.833 1871.97 282.833 Q1871.55 282.833 1871.36 282.645 Q1871.19 282.481 1870.96 281.919 L1864.05 264.891 Q1863.58 263.697 1862.97 263.416 Q1862.36 263.111 1860.21 263.111 Z" fill="#000000" fill-rule="nonzero" fill-opacity="1" /><path clip-path="url(#clip150)" d="M1886.66 271.73 Q1886.66 267.21 1889.56 264.001 Q1892.46 260.792 1896.63 260.792 Q1900.85 260.792 1903.03 263.533 Q1905.23 266.273 1905.23 270.208 Q1905.23 270.934 1905.04 271.075 Q1904.85 271.215 1904.03 271.215 L1890.64 271.215 Q1890.64 276.11 1892.09 278.406 Q1894.1 281.615 1897.5 281.615 Q1897.97 281.615 1898.53 281.521 Q1899.09 281.427 1900.24 281.029 Q1901.39 280.608 1902.4 279.507 Q1903.4 278.406 1903.99 276.673 Q1904.13 275.993 1904.6 276.017 Q1905.23 276.017 1905.23 276.579 Q1905.23 277.001 1904.76 277.961 Q1904.32 278.898 1903.45 280.022 Q1902.58 281.146 1900.9 281.99 Q1899.23 282.833 1897.22 282.833 Q1893 282.833 1889.82 279.647 Q1886.66 276.438 1886.66 271.73 M1890.68 270.208 L1902.07 270.208 Q1902.07 269.201 1901.88 268.077 Q1901.72 266.952 1901.2 265.406 Q1900.71 263.837 1899.54 262.853 Q1898.37 261.87 1896.63 261.87 Q1895.86 261.87 1895.02 262.198 Q1894.2 262.525 1893.19 263.322 Q1892.18 264.118 1891.48 265.922 Q1890.78 267.725 1890.68 270.208 Z" fill="#000000" fill-rule="nonzero" fill-opacity="1" /><path clip-path="url(#clip150)" d="M1906.78 282.294 L1906.78 280.818 Q1909.33 280.818 1909.92 280.514 Q1910.53 280.186 1910.53 278.64 L1910.53 265.781 Q1910.53 264.001 1909.89 263.556 Q1909.28 263.111 1906.78 263.111 L1906.78 261.612 L1913.45 261.097 L1913.45 266.367 Q1914.13 264.306 1915.56 262.713 Q1917.01 261.097 1919.36 261.097 Q1920.9 261.097 1921.89 261.963 Q1922.89 262.83 1922.89 264.024 Q1922.89 265.079 1922.24 265.617 Q1921.6 266.133 1920.83 266.133 Q1919.97 266.133 1919.36 265.594 Q1918.77 265.032 1918.77 264.071 Q1918.77 263.486 1919.03 263.041 Q1919.31 262.572 1919.52 262.408 Q1919.73 262.244 1919.87 262.198 Q1919.78 262.151 1919.36 262.151 Q1916.71 262.151 1915.19 264.797 Q1913.69 267.421 1913.69 271.168 L1913.69 278.546 Q1913.69 279.928 1914.25 280.373 Q1914.84 280.818 1917.34 280.818 L1918.35 280.818 L1918.35 282.294 Q1916.43 282.153 1912.26 282.153 Q1911.67 282.153 1910.76 282.177 Q1909.85 282.2 1908.65 282.247 Q1907.46 282.294 1906.78 282.294 Z" fill="#000000" fill-rule="nonzero" fill-opacity="1" /><path clip-path="url(#clip150)" d="M1926.76 277.727 Q1926.76 273.651 1931.56 271.496 Q1934.44 270.114 1940.39 269.763 L1940.39 268.006 Q1940.39 265.032 1938.82 263.462 Q1937.28 261.87 1935.31 261.87 Q1931.8 261.87 1930.11 264.071 Q1931.54 264.118 1932.06 264.844 Q1932.57 265.547 1932.57 266.273 Q1932.57 267.233 1931.96 267.866 Q1931.38 268.475 1930.37 268.475 Q1929.41 268.475 1928.78 267.889 Q1928.14 267.28 1928.14 266.226 Q1928.14 263.884 1930.25 262.338 Q1932.38 260.792 1935.4 260.792 Q1939.34 260.792 1941.96 263.439 Q1942.78 264.259 1943.18 265.313 Q1943.6 266.367 1943.65 267.069 Q1943.7 267.749 1943.7 269.107 L1943.7 278.687 Q1943.7 278.968 1943.79 279.436 Q1943.88 279.905 1944.31 280.514 Q1944.75 281.099 1945.48 281.099 Q1947.21 281.099 1947.19 278.031 L1947.19 275.338 L1948.4 275.338 L1948.4 278.031 Q1948.4 280.584 1947.05 281.591 Q1945.71 282.575 1944.47 282.575 Q1942.88 282.575 1941.87 281.404 Q1940.86 280.233 1940.72 278.64 Q1940 280.467 1938.33 281.662 Q1936.69 282.833 1934.44 282.833 Q1932.71 282.833 1931.07 282.388 Q1929.46 281.966 1928.1 280.772 Q1926.76 279.554 1926.76 277.727 M1930.46 277.68 Q1930.46 279.46 1931.73 280.608 Q1932.99 281.755 1934.77 281.755 Q1936.79 281.755 1938.59 280.209 Q1940.39 278.64 1940.39 275.572 L1940.39 270.77 Q1935.08 270.958 1932.76 273.089 Q1930.46 275.197 1930.46 277.68 Z" fill="#000000" fill-rule="nonzero" fill-opacity="1" /><path clip-path="url(#clip150)" d="M1948.59 286.088 Q1948.59 284.543 1949.76 283.207 Q1950.96 281.872 1953.02 281.287 Q1950.91 279.952 1950.91 277.024 Q1950.91 274.775 1952.39 273.042 Q1950.14 271.168 1950.14 268.1 Q1950.14 265.266 1952.39 263.181 Q1954.63 261.097 1957.91 261.097 Q1960.79 261.097 1963 262.83 Q1965.29 260.581 1968.08 260.558 Q1969.32 260.558 1969.91 261.331 Q1970.52 262.104 1970.52 262.924 Q1970.52 263.65 1970.05 264.001 Q1969.6 264.352 1969.13 264.352 Q1968.55 264.352 1968.13 263.978 Q1967.73 263.579 1967.73 262.97 Q1967.73 261.963 1968.5 261.659 Q1968.36 261.612 1968.03 261.612 Q1965.69 261.612 1963.7 263.486 Q1965.67 265.313 1965.67 268.147 Q1965.67 270.981 1963.42 273.066 Q1961.17 275.15 1957.91 275.15 Q1955.22 275.15 1953.16 273.651 Q1952.34 274.611 1952.34 275.923 Q1952.34 277.118 1953.07 278.055 Q1953.79 278.991 1954.89 279.132 Q1955.22 279.179 1958.48 279.179 Q1960.4 279.179 1961.45 279.226 Q1962.5 279.273 1964 279.6 Q1965.53 279.905 1966.72 280.514 Q1969.84 282.247 1969.86 285.995 Q1969.86 288.735 1966.7 290.445 Q1963.56 292.178 1959.2 292.178 Q1954.8 292.178 1951.68 290.422 Q1948.59 288.688 1948.59 286.088 M1951.1 286.088 Q1951.1 288.056 1953.42 289.555 Q1955.74 291.077 1959.25 291.077 Q1962.69 291.077 1965.01 289.578 Q1967.35 288.103 1967.35 286.088 Q1967.35 284.66 1966.53 283.746 Q1965.71 282.833 1964.03 282.458 Q1962.36 282.107 1961.19 282.036 Q1960.02 281.966 1957.87 281.966 L1955.03 281.966 Q1953.39 282.06 1952.25 283.254 Q1951.1 284.449 1951.1 286.088 M1953.72 268.147 Q1953.72 274.049 1957.91 274.049 Q1960.02 274.049 1961.31 272.129 Q1962.08 270.84 1962.08 268.1 Q1962.08 262.198 1957.91 262.198 Q1955.81 262.198 1954.49 264.118 Q1953.72 265.406 1953.72 268.147 Z" fill="#000000" fill-rule="nonzero" fill-opacity="1" /><path clip-path="url(#clip150)" d="M1975.48 271.73 Q1975.48 267.21 1978.39 264.001 Q1981.29 260.792 1985.46 260.792 Q1989.67 260.792 1991.85 263.533 Q1994.05 266.273 1994.05 270.208 Q1994.05 270.934 1993.87 271.075 Q1993.68 271.215 1992.86 271.215 L1979.46 271.215 Q1979.46 276.11 1980.91 278.406 Q1982.93 281.615 1986.33 281.615 Q1986.79 281.615 1987.36 281.521 Q1987.92 281.427 1989.07 281.029 Q1990.21 280.608 1991.22 279.507 Q1992.23 278.406 1992.81 276.673 Q1992.95 275.993 1993.42 276.017 Q1994.05 276.017 1994.05 276.579 Q1994.05 277.001 1993.59 277.961 Q1993.14 278.898 1992.27 280.022 Q1991.41 281.146 1989.72 281.99 Q1988.06 282.833 1986.04 282.833 Q1981.83 282.833 1978.64 279.647 Q1975.48 276.438 1975.48 271.73 M1979.51 270.208 L1990.89 270.208 Q1990.89 269.201 1990.71 268.077 Q1990.54 266.952 1990.03 265.406 Q1989.53 263.837 1988.36 262.853 Q1987.19 261.87 1985.46 261.87 Q1984.69 261.87 1983.84 262.198 Q1983.02 262.525 1982.02 263.322 Q1981.01 264.118 1980.31 265.922 Q1979.6 267.725 1979.51 270.208 Z" fill="#000000" fill-rule="nonzero" fill-opacity="1" /><path clip-path="url(#clip150)" d="M2009.23 251.025 L2009.23 249.526 Q2014.41 249.667 2015.32 249.667 Q2020.45 249.667 2022.19 249.526 L2022.19 251.025 Q2018.25 251.025 2018.25 252.407 Q2018.25 252.594 2018.53 253.274 L2027.69 277.492 L2036.47 254.374 Q2036.71 253.648 2036.71 253.414 Q2036.71 252.454 2035.82 251.775 Q2034.95 251.072 2033.22 251.025 L2033.22 249.526 Q2036.97 249.667 2038.68 249.667 Q2041.11 249.667 2043.34 249.526 L2043.34 251.025 Q2039.31 251.072 2038.11 254.234 L2027.41 282.435 Q2027.22 283.02 2027.04 283.184 Q2026.85 283.348 2026.26 283.348 Q2025.79 283.348 2025.54 283.161 Q2025.3 282.973 2025.07 282.294 L2013.94 252.852 Q2013.47 251.564 2012.63 251.306 Q2011.79 251.025 2009.23 251.025 Z" fill="#000000" fill-rule="nonzero" fill-opacity="1" /><path clip-path="url(#clip150)" d="M2050.33 290.482 Q2048.12 288.285 2048.12 285.104 Q2048.12 281.907 2050.28 279.579 Q2052.47 277.234 2055.58 277.234 Q2058.63 277.234 2060.81 279.562 Q2063.01 281.874 2063.01 285.104 Q2063.01 288.269 2060.79 290.466 Q2058.6 292.663 2055.55 292.663 Q2052.56 292.663 2050.33 290.482 M2050.91 284.826 Q2050.91 288.088 2051.76 289.564 Q2053.07 291.81 2055.58 291.81 Q2056.83 291.81 2057.86 291.138 Q2058.91 290.466 2059.48 289.334 Q2060.22 287.859 2060.22 284.826 Q2060.22 281.596 2059.33 280.169 Q2058.02 277.989 2055.55 277.989 Q2054.47 277.989 2053.4 278.562 Q2052.35 279.12 2051.71 280.235 Q2050.91 281.71 2050.91 284.826 Z" fill="#000000" fill-rule="nonzero" fill-opacity="1" /><path clip-path="url(#clip150)" d="M2081.28 275.01 Q2081.32 274.424 2082.24 274.424 L2111.63 274.424 Q2113.02 274.424 2113.04 274.963 Q2113.04 275.548 2111.73 275.525 L2082.57 275.525 Q2081.28 275.548 2081.28 275.01 M2081.28 265.641 Q2081.28 265.055 2082.28 265.079 L2111.59 265.079 Q2113.02 265.079 2113.04 265.641 Q2113.04 266.179 2111.82 266.179 L2082.24 266.179 Q2081.28 266.179 2081.28 265.641 Z" fill="#000000" fill-rule="nonzero" fill-opacity="1" /><path clip-path="url(#clip150)" d="M2131.53 274.565 Q2131.53 273.136 2132.3 272.597 Q2133.08 272.035 2133.9 272.035 Q2135 272.035 2135.63 272.738 Q2136.28 273.417 2136.28 274.377 Q2136.28 275.338 2135.63 276.04 Q2135 276.719 2133.9 276.719 Q2133.36 276.719 2133.08 276.626 Q2133.71 278.827 2135.63 280.42 Q2137.57 282.013 2140.13 282.013 Q2143.33 282.013 2145.26 278.898 Q2146.4 276.883 2146.4 272.316 Q2146.4 268.287 2145.54 266.273 Q2144.2 263.205 2141.46 263.205 Q2137.57 263.205 2135.28 266.554 Q2135 266.976 2134.67 266.999 Q2134.2 266.999 2134.08 266.741 Q2133.99 266.46 2133.99 265.734 L2133.99 251.54 Q2133.99 250.393 2134.46 250.393 Q2134.64 250.393 2135.04 250.533 Q2138.06 251.868 2141.41 251.892 Q2144.86 251.892 2147.95 250.486 Q2148.18 250.346 2148.32 250.346 Q2148.79 250.346 2148.82 250.884 Q2148.82 251.072 2148.42 251.634 Q2148.04 252.173 2147.22 252.899 Q2146.4 253.602 2145.35 254.281 Q2144.29 254.96 2142.75 255.428 Q2141.23 255.873 2139.54 255.873 Q2137.53 255.873 2135.46 255.241 L2135.46 264.587 Q2137.95 262.151 2141.55 262.151 Q2145.4 262.151 2148.04 265.242 Q2150.69 268.334 2150.69 272.644 Q2150.69 277.164 2147.55 280.256 Q2144.44 283.348 2140.22 283.348 Q2136.38 283.348 2133.94 280.608 Q2131.53 277.867 2131.53 274.565 Z" fill="#000000" fill-rule="nonzero" fill-opacity="1" /><path clip-path="url(#clip150)" d="M2156.01 281.521 Q2155.28 280.748 2155.28 279.741 Q2155.28 278.734 2156.01 278.008 Q2156.73 277.258 2157.83 277.258 Q2158.89 277.258 2159.59 277.961 Q2160.32 278.64 2160.32 279.764 Q2160.32 280.865 2159.54 281.591 Q2158.79 282.294 2157.83 282.294 Q2156.73 282.294 2156.01 281.521 Z" fill="#000000" fill-rule="nonzero" fill-opacity="1" /><path clip-path="url(#clip150)" d="M2163.6 254.913 L2163.6 253.414 Q2169.36 253.414 2172.34 250.346 Q2173.16 250.346 2173.3 250.533 Q2173.44 250.721 2173.44 251.587 L2173.44 278.5 Q2173.44 279.928 2174.14 280.373 Q2174.84 280.818 2177.91 280.818 L2179.44 280.818 L2179.44 282.294 Q2177.75 282.153 2171.66 282.153 Q2165.57 282.153 2163.91 282.294 L2163.91 280.818 L2165.43 280.818 Q2168.45 280.818 2169.18 280.397 Q2169.9 279.952 2169.9 278.5 L2169.9 253.648 Q2167.4 254.913 2163.6 254.913 Z" fill="#000000" fill-rule="nonzero" fill-opacity="1" /><path clip-path="url(#clip150)" d="M2183.94 282.294 Q2183.94 281.427 2184.01 281.17 Q2184.1 280.912 2184.48 280.514 L2193.68 270.255 Q2198.72 264.587 2198.72 259.644 Q2198.72 256.436 2197.03 254.14 Q2195.37 251.845 2192.3 251.845 Q2190.19 251.845 2188.41 253.133 Q2186.63 254.421 2185.81 256.717 Q2185.95 256.67 2186.45 256.67 Q2187.64 256.67 2188.3 257.419 Q2188.98 258.169 2188.98 259.176 Q2188.98 260.464 2188.13 261.097 Q2187.31 261.706 2186.49 261.706 Q2186.17 261.706 2185.72 261.635 Q2185.3 261.565 2184.62 260.909 Q2183.94 260.23 2183.94 259.036 Q2183.94 255.686 2186.47 253.016 Q2189.02 250.346 2192.91 250.346 Q2197.31 250.346 2200.2 252.969 Q2203.1 255.569 2203.1 259.644 Q2203.1 261.073 2202.66 262.385 Q2202.23 263.673 2201.65 264.68 Q2201.09 265.687 2199.54 267.304 Q2197.99 268.92 2196.75 270.067 Q2195.51 271.215 2192.72 273.651 L2187.64 278.593 L2196.28 278.593 Q2200.5 278.593 2200.83 278.218 Q2201.3 277.539 2201.88 273.956 L2203.1 273.956 L2201.74 282.294 L2183.94 282.294 Z" fill="#000000" fill-rule="nonzero" fill-opacity="1" /><path clip-path="url(#clip150)" d="M2220.36 251.025 L2220.36 249.526 Q2225.54 249.667 2226.45 249.667 Q2231.58 249.667 2233.31 249.526 L2233.31 251.025 Q2229.38 251.025 2229.38 252.407 Q2229.38 252.594 2229.66 253.274 L2238.82 277.492 L2247.6 254.374 Q2247.84 253.648 2247.84 253.414 Q2247.84 252.454 2246.95 251.775 Q2246.08 251.072 2244.35 251.025 L2244.35 249.526 Q2248.09 249.667 2249.8 249.667 Q2252.24 249.667 2254.46 249.526 L2254.46 251.025 Q2250.44 251.072 2249.24 254.234 L2238.54 282.435 Q2238.35 283.02 2238.16 283.184 Q2237.98 283.348 2237.39 283.348 Q2236.92 283.348 2236.66 283.161 Q2236.43 282.973 2236.2 282.294 L2225.07 252.852 Q2224.6 251.564 2223.76 251.306 Q2222.91 251.025 2220.36 251.025 Z" fill="#000000" fill-rule="nonzero" fill-opacity="1" /></svg>
