<?xml version="1.0" encoding="utf-8"?>
<svg xmlns="http://www.w3.org/2000/svg" xmlns:xlink="http://www.w3.org/1999/xlink" width="600" height="400" viewBox="0 0 2400 1600">
<defs>
  <clipPath id="clip030">
    <rect x="0" y="0" width="2400" height="1600"/>
  </clipPath>
</defs>
<path clip-path="url(#clip030)" d="M0 1600 L2400 1600 L2400 0 L0 0  Z" fill="#ffffff" fill-rule="evenodd" fill-opacity="1"/>
<defs>
  <clipPath id="clip031">
    <rect x="480" y="0" width="1681" height="1600"/>
  </clipPath>
</defs>
<path clip-path="url(#clip030)" d="M175.445 1423.18 L2352.76 1423.18 L2352.76 123.472 L175.445 123.472  Z" fill="#ffffff" fill-rule="evenodd" fill-opacity="1"/>
<defs>
  <clipPath id="clip032">
    <rect x="175" y="123" width="2178" height="1301"/>
  </clipPath>
</defs>
<polyline clip-path="url(#clip032)" style="stroke:#000000; stroke-linecap:round; stroke-linejoin:round; stroke-width:2; stroke-opacity:0.1; fill:none" points="237.067,1423.18 237.067,123.472 "/>
<polyline clip-path="url(#clip032)" style="stroke:#000000; stroke-linecap:round; stroke-linejoin:round; stroke-width:2; stroke-opacity:0.1; fill:none" points="664.998,1423.18 664.998,123.472 "/>
<polyline clip-path="url(#clip032)" style="stroke:#000000; stroke-linecap:round; stroke-linejoin:round; stroke-width:2; stroke-opacity:0.1; fill:none" points="1092.93,1423.18 1092.93,123.472 "/>
<polyline clip-path="url(#clip032)" style="stroke:#000000; stroke-linecap:round; stroke-linejoin:round; stroke-width:2; stroke-opacity:0.1; fill:none" points="1520.86,1423.18 1520.86,123.472 "/>
<polyline clip-path="url(#clip032)" style="stroke:#000000; stroke-linecap:round; stroke-linejoin:round; stroke-width:2; stroke-opacity:0.1; fill:none" points="1948.79,1423.18 1948.79,123.472 "/>
<polyline clip-path="url(#clip032)" style="stroke:#000000; stroke-linecap:round; stroke-linejoin:round; stroke-width:2; stroke-opacity:0.1; fill:none" points="175.445,1364.5 2352.76,1364.5 "/>
<polyline clip-path="url(#clip032)" style="stroke:#000000; stroke-linecap:round; stroke-linejoin:round; stroke-width:2; stroke-opacity:0.1; fill:none" points="175.445,1145.55 2352.76,1145.55 "/>
<polyline clip-path="url(#clip032)" style="stroke:#000000; stroke-linecap:round; stroke-linejoin:round; stroke-width:2; stroke-opacity:0.1; fill:none" points="175.445,926.593 2352.76,926.593 "/>
<polyline clip-path="url(#clip032)" style="stroke:#000000; stroke-linecap:round; stroke-linejoin:round; stroke-width:2; stroke-opacity:0.1; fill:none" points="175.445,707.64 2352.76,707.64 "/>
<polyline clip-path="url(#clip032)" style="stroke:#000000; stroke-linecap:round; stroke-linejoin:round; stroke-width:2; stroke-opacity:0.1; fill:none" points="175.445,488.686 2352.76,488.686 "/>
<polyline clip-path="url(#clip032)" style="stroke:#000000; stroke-linecap:round; stroke-linejoin:round; stroke-width:2; stroke-opacity:0.1; fill:none" points="175.445,269.733 2352.76,269.733 "/>
<polyline clip-path="url(#clip030)" style="stroke:#000000; stroke-linecap:round; stroke-linejoin:round; stroke-width:4; stroke-opacity:1; fill:none" points="175.445,1423.18 2352.76,1423.18 "/>
<polyline clip-path="url(#clip030)" style="stroke:#000000; stroke-linecap:round; stroke-linejoin:round; stroke-width:4; stroke-opacity:1; fill:none" points="237.067,1423.18 237.067,1404.28 "/>
<polyline clip-path="url(#clip030)" style="stroke:#000000; stroke-linecap:round; stroke-linejoin:round; stroke-width:4; stroke-opacity:1; fill:none" points="664.998,1423.18 664.998,1404.28 "/>
<polyline clip-path="url(#clip030)" style="stroke:#000000; stroke-linecap:round; stroke-linejoin:round; stroke-width:4; stroke-opacity:1; fill:none" points="1092.93,1423.18 1092.93,1404.28 "/>
<polyline clip-path="url(#clip030)" style="stroke:#000000; stroke-linecap:round; stroke-linejoin:round; stroke-width:4; stroke-opacity:1; fill:none" points="1520.86,1423.18 1520.86,1404.28 "/>
<polyline clip-path="url(#clip030)" style="stroke:#000000; stroke-linecap:round; stroke-linejoin:round; stroke-width:4; stroke-opacity:1; fill:none" points="1948.79,1423.18 1948.79,1404.28 "/>
<path clip-path="url(#clip030)" d="M214.452 1454.1 Q210.84 1454.1 209.012 1457.66 Q207.206 1461.2 207.206 1468.33 Q207.206 1475.44 209.012 1479.01 Q210.84 1482.55 214.452 1482.55 Q218.086 1482.55 219.891 1479.01 Q221.72 1475.44 221.72 1468.33 Q221.72 1461.2 219.891 1457.66 Q218.086 1454.1 214.452 1454.1 M214.452 1450.39 Q220.262 1450.39 223.317 1455 Q226.396 1459.58 226.396 1468.33 Q226.396 1477.06 223.317 1481.67 Q220.262 1486.25 214.452 1486.25 Q208.641 1486.25 205.563 1481.67 Q202.507 1477.06 202.507 1468.33 Q202.507 1459.58 205.563 1455 Q208.641 1450.39 214.452 1450.39 Z" fill="#000000" fill-rule="nonzero" fill-opacity="1" /><path clip-path="url(#clip030)" d="M234.614 1479.7 L239.498 1479.7 L239.498 1485.58 L234.614 1485.58 L234.614 1479.7 Z" fill="#000000" fill-rule="nonzero" fill-opacity="1" /><path clip-path="url(#clip030)" d="M259.683 1454.1 Q256.072 1454.1 254.243 1457.66 Q252.437 1461.2 252.437 1468.33 Q252.437 1475.44 254.243 1479.01 Q256.072 1482.55 259.683 1482.55 Q263.317 1482.55 265.123 1479.01 Q266.951 1475.44 266.951 1468.33 Q266.951 1461.2 265.123 1457.66 Q263.317 1454.1 259.683 1454.1 M259.683 1450.39 Q265.493 1450.39 268.549 1455 Q271.627 1459.58 271.627 1468.33 Q271.627 1477.06 268.549 1481.67 Q265.493 1486.25 259.683 1486.25 Q253.873 1486.25 250.794 1481.67 Q247.738 1477.06 247.738 1468.33 Q247.738 1459.58 250.794 1455 Q253.873 1450.39 259.683 1450.39 Z" fill="#000000" fill-rule="nonzero" fill-opacity="1" /><path clip-path="url(#clip030)" d="M636.734 1481.64 L653.053 1481.64 L653.053 1485.58 L631.109 1485.58 L631.109 1481.64 Q633.771 1478.89 638.354 1474.26 Q642.961 1469.61 644.141 1468.27 Q646.387 1465.74 647.266 1464.01 Q648.169 1462.25 648.169 1460.56 Q648.169 1457.8 646.225 1456.07 Q644.303 1454.33 641.202 1454.33 Q639.003 1454.33 636.549 1455.09 Q634.118 1455.86 631.341 1457.41 L631.341 1452.69 Q634.165 1451.55 636.618 1450.97 Q639.072 1450.39 641.109 1450.39 Q646.479 1450.39 649.674 1453.08 Q652.868 1455.77 652.868 1460.26 Q652.868 1462.39 652.058 1464.31 Q651.271 1466.2 649.165 1468.8 Q648.586 1469.47 645.484 1472.69 Q642.382 1475.88 636.734 1481.64 Z" fill="#000000" fill-rule="nonzero" fill-opacity="1" /><path clip-path="url(#clip030)" d="M662.868 1479.7 L667.752 1479.7 L667.752 1485.58 L662.868 1485.58 L662.868 1479.7 Z" fill="#000000" fill-rule="nonzero" fill-opacity="1" /><path clip-path="url(#clip030)" d="M677.984 1451.02 L696.34 1451.02 L696.34 1454.96 L682.266 1454.96 L682.266 1463.43 Q683.285 1463.08 684.303 1462.92 Q685.322 1462.73 686.34 1462.73 Q692.127 1462.73 695.507 1465.9 Q698.886 1469.08 698.886 1474.49 Q698.886 1480.07 695.414 1483.17 Q691.942 1486.25 685.623 1486.25 Q683.447 1486.25 681.178 1485.88 Q678.933 1485.51 676.525 1484.77 L676.525 1480.07 Q678.609 1481.2 680.831 1481.76 Q683.053 1482.32 685.53 1482.32 Q689.535 1482.32 691.873 1480.21 Q694.211 1478.1 694.211 1474.49 Q694.211 1470.88 691.873 1468.77 Q689.535 1466.67 685.53 1466.67 Q683.655 1466.67 681.78 1467.08 Q679.928 1467.5 677.984 1468.38 L677.984 1451.02 Z" fill="#000000" fill-rule="nonzero" fill-opacity="1" /><path clip-path="url(#clip030)" d="M1060.09 1451.02 L1078.45 1451.02 L1078.45 1454.96 L1064.38 1454.96 L1064.38 1463.43 Q1065.39 1463.08 1066.41 1462.92 Q1067.43 1462.73 1068.45 1462.73 Q1074.24 1462.73 1077.62 1465.9 Q1081 1469.08 1081 1474.49 Q1081 1480.07 1077.52 1483.17 Q1074.05 1486.25 1067.73 1486.25 Q1065.56 1486.25 1063.29 1485.88 Q1061.04 1485.51 1058.63 1484.77 L1058.63 1480.07 Q1060.72 1481.2 1062.94 1481.76 Q1065.16 1482.32 1067.64 1482.32 Q1071.64 1482.32 1073.98 1480.21 Q1076.32 1478.1 1076.32 1474.49 Q1076.32 1470.88 1073.98 1468.77 Q1071.64 1466.67 1067.64 1466.67 Q1065.76 1466.67 1063.89 1467.08 Q1062.04 1467.5 1060.09 1468.38 L1060.09 1451.02 Z" fill="#000000" fill-rule="nonzero" fill-opacity="1" /><path clip-path="url(#clip030)" d="M1090.21 1479.7 L1095.09 1479.7 L1095.09 1485.58 L1090.21 1485.58 L1090.21 1479.7 Z" fill="#000000" fill-rule="nonzero" fill-opacity="1" /><path clip-path="url(#clip030)" d="M1115.28 1454.1 Q1111.67 1454.1 1109.84 1457.66 Q1108.03 1461.2 1108.03 1468.33 Q1108.03 1475.44 1109.84 1479.01 Q1111.67 1482.55 1115.28 1482.55 Q1118.91 1482.55 1120.72 1479.01 Q1122.55 1475.44 1122.55 1468.33 Q1122.55 1461.2 1120.72 1457.66 Q1118.91 1454.1 1115.28 1454.1 M1115.28 1450.39 Q1121.09 1450.39 1124.14 1455 Q1127.22 1459.58 1127.22 1468.33 Q1127.22 1477.06 1124.14 1481.67 Q1121.09 1486.25 1115.28 1486.25 Q1109.47 1486.25 1106.39 1481.67 Q1103.33 1477.06 1103.33 1468.33 Q1103.33 1459.58 1106.39 1455 Q1109.47 1450.39 1115.28 1450.39 Z" fill="#000000" fill-rule="nonzero" fill-opacity="1" /><path clip-path="url(#clip030)" d="M1487.18 1451.02 L1509.4 1451.02 L1509.4 1453.01 L1496.85 1485.58 L1491.97 1485.58 L1503.78 1454.96 L1487.18 1454.96 L1487.18 1451.02 Z" fill="#000000" fill-rule="nonzero" fill-opacity="1" /><path clip-path="url(#clip030)" d="M1518.52 1479.7 L1523.41 1479.7 L1523.41 1485.58 L1518.52 1485.58 L1518.52 1479.7 Z" fill="#000000" fill-rule="nonzero" fill-opacity="1" /><path clip-path="url(#clip030)" d="M1533.64 1451.02 L1551.99 1451.02 L1551.99 1454.96 L1537.92 1454.96 L1537.92 1463.43 Q1538.94 1463.08 1539.96 1462.92 Q1540.97 1462.73 1541.99 1462.73 Q1547.78 1462.73 1551.16 1465.9 Q1554.54 1469.08 1554.54 1474.49 Q1554.54 1480.07 1551.07 1483.17 Q1547.59 1486.25 1541.28 1486.25 Q1539.1 1486.25 1536.83 1485.88 Q1534.59 1485.51 1532.18 1484.77 L1532.18 1480.07 Q1534.26 1481.2 1536.48 1481.76 Q1538.71 1482.32 1541.18 1482.32 Q1545.19 1482.32 1547.53 1480.21 Q1549.86 1478.1 1549.86 1474.49 Q1549.86 1470.88 1547.53 1468.77 Q1545.19 1466.67 1541.18 1466.67 Q1539.31 1466.67 1537.43 1467.08 Q1535.58 1467.5 1533.64 1468.38 L1533.64 1451.02 Z" fill="#000000" fill-rule="nonzero" fill-opacity="1" /><path clip-path="url(#clip030)" d="M1900.86 1481.64 L1908.5 1481.64 L1908.5 1455.28 L1900.19 1456.95 L1900.19 1452.69 L1908.45 1451.02 L1913.13 1451.02 L1913.13 1481.64 L1920.77 1481.64 L1920.77 1485.58 L1900.86 1485.58 L1900.86 1481.64 Z" fill="#000000" fill-rule="nonzero" fill-opacity="1" /><path clip-path="url(#clip030)" d="M1940.21 1454.1 Q1936.6 1454.1 1934.77 1457.66 Q1932.97 1461.2 1932.97 1468.33 Q1932.97 1475.44 1934.77 1479.01 Q1936.6 1482.55 1940.21 1482.55 Q1943.85 1482.55 1945.65 1479.01 Q1947.48 1475.44 1947.48 1468.33 Q1947.48 1461.2 1945.65 1457.66 Q1943.85 1454.1 1940.21 1454.1 M1940.21 1450.39 Q1946.02 1450.39 1949.08 1455 Q1952.16 1459.58 1952.16 1468.33 Q1952.16 1477.06 1949.08 1481.67 Q1946.02 1486.25 1940.21 1486.25 Q1934.4 1486.25 1931.32 1481.67 Q1928.27 1477.06 1928.27 1468.33 Q1928.27 1459.58 1931.32 1455 Q1934.4 1450.39 1940.21 1450.39 Z" fill="#000000" fill-rule="nonzero" fill-opacity="1" /><path clip-path="url(#clip030)" d="M1960.38 1479.7 L1965.26 1479.7 L1965.26 1485.58 L1960.38 1485.58 L1960.38 1479.7 Z" fill="#000000" fill-rule="nonzero" fill-opacity="1" /><path clip-path="url(#clip030)" d="M1985.44 1454.1 Q1981.83 1454.1 1980 1457.66 Q1978.2 1461.2 1978.2 1468.33 Q1978.2 1475.44 1980 1479.01 Q1981.83 1482.55 1985.44 1482.55 Q1989.08 1482.55 1990.88 1479.01 Q1992.71 1475.44 1992.71 1468.33 Q1992.71 1461.2 1990.88 1457.66 Q1989.08 1454.1 1985.44 1454.1 M1985.44 1450.39 Q1991.25 1450.39 1994.31 1455 Q1997.39 1459.58 1997.39 1468.33 Q1997.39 1477.06 1994.31 1481.67 Q1991.25 1486.25 1985.44 1486.25 Q1979.63 1486.25 1976.56 1481.67 Q1973.5 1477.06 1973.5 1468.33 Q1973.5 1459.58 1976.56 1455 Q1979.63 1450.39 1985.44 1450.39 Z" fill="#000000" fill-rule="nonzero" fill-opacity="1" /><path clip-path="url(#clip030)" d="M1149.77 1511.14 L1149.77 1509.08 Q1156.88 1509.27 1158.14 1509.27 Q1165.19 1509.27 1167.58 1509.08 L1167.58 1511.14 Q1162.17 1511.14 1162.17 1513.04 Q1162.17 1513.3 1162.55 1514.23 L1175.15 1547.53 L1187.22 1515.75 Q1187.54 1514.75 1187.54 1514.43 Q1187.54 1513.11 1186.32 1512.17 Q1185.13 1511.21 1182.75 1511.14 L1182.75 1509.08 Q1187.9 1509.27 1190.25 1509.27 Q1193.6 1509.27 1196.66 1509.08 L1196.66 1511.14 Q1191.12 1511.21 1189.48 1515.55 L1174.76 1554.33 Q1174.5 1555.13 1174.24 1555.36 Q1173.99 1555.58 1173.18 1555.58 Q1172.54 1555.58 1172.18 1555.33 Q1171.86 1555.07 1171.54 1554.14 L1156.24 1513.65 Q1155.6 1511.88 1154.44 1511.53 Q1153.28 1511.14 1149.77 1511.14 Z" fill="#000000" fill-rule="nonzero" fill-opacity="1" /><path clip-path="url(#clip030)" d="M1203.24 1573.93 L1203.24 1572.51 Q1205.7 1572.51 1206.27 1572.21 Q1206.83 1571.9 1206.83 1570.41 L1206.83 1557.99 Q1206.83 1556.28 1206.24 1555.87 Q1205.68 1555.46 1203.42 1555.46 L1203.42 1554.02 L1209.87 1553.53 L1209.87 1570.46 Q1209.87 1571.83 1210.37 1572.17 Q1210.86 1572.51 1213.12 1572.51 L1213.12 1573.93 Q1208.41 1573.79 1208.32 1573.79 Q1207.69 1573.79 1203.24 1573.93 M1205.18 1545.48 Q1205.18 1544.55 1205.88 1543.81 Q1206.6 1543.04 1207.62 1543.04 Q1208.63 1543.04 1209.35 1543.74 Q1210.08 1544.42 1210.08 1545.5 Q1210.08 1546.56 1209.35 1547.26 Q1208.63 1547.93 1207.62 1547.93 Q1206.56 1547.93 1205.86 1547.19 Q1205.18 1546.45 1205.18 1545.48 Z" fill="#000000" fill-rule="nonzero" fill-opacity="1" /><path clip-path="url(#clip030)" d="M1216.27 1573.93 L1216.27 1572.51 Q1218.73 1572.51 1219.3 1572.21 Q1219.86 1571.9 1219.86 1570.41 L1219.86 1558.03 Q1219.86 1556.32 1219.25 1555.89 Q1218.66 1555.46 1216.27 1555.46 L1216.27 1554.02 L1222.77 1553.53 L1222.77 1558.37 Q1224.93 1553.53 1229.6 1553.53 Q1233.07 1553.53 1234.45 1555.24 Q1235.46 1556.39 1235.66 1557.67 Q1235.89 1558.96 1235.89 1562.3 L1235.89 1571.11 Q1235.93 1572.08 1236.68 1572.31 Q1237.42 1572.51 1239.5 1572.51 L1239.5 1573.93 Q1234.78 1573.79 1234.31 1573.79 Q1233.95 1573.79 1229.1 1573.93 L1229.1 1572.51 Q1231.56 1572.51 1232.12 1572.21 Q1232.71 1571.9 1232.71 1570.41 L1232.71 1559.66 Q1232.71 1557.31 1231.99 1555.94 Q1231.27 1554.54 1229.28 1554.54 Q1226.89 1554.54 1224.98 1556.55 Q1223.06 1558.55 1223.06 1561.93 L1223.06 1570.41 Q1223.06 1571.9 1223.62 1572.21 Q1224.21 1572.51 1226.64 1572.51 L1226.64 1573.93 Q1221.93 1573.79 1221.48 1573.79 Q1221.12 1573.79 1216.27 1573.93 Z" fill="#000000" fill-rule="nonzero" fill-opacity="1" /><path clip-path="url(#clip030)" d="M1266.11 1537.65 Q1266.11 1526.5 1270.27 1517.52 Q1272.04 1513.75 1274.52 1510.59 Q1277 1507.44 1278.64 1506.05 Q1280.28 1504.67 1280.73 1504.67 Q1281.38 1504.67 1281.41 1505.31 Q1281.41 1505.63 1280.54 1506.44 Q1269.91 1517.26 1269.94 1537.65 Q1269.94 1558.1 1280.28 1568.5 Q1281.41 1569.63 1281.41 1569.98 Q1281.41 1570.62 1280.73 1570.62 Q1280.28 1570.62 1278.7 1569.3 Q1277.13 1567.98 1274.68 1564.96 Q1272.23 1561.93 1270.46 1558.23 Q1266.11 1549.24 1266.11 1537.65 Z" fill="#000000" fill-rule="nonzero" fill-opacity="1" /><path clip-path="url(#clip030)" d="M1288.8 1511.14 L1288.8 1509.08 Q1295.92 1509.27 1297.17 1509.27 Q1304.23 1509.27 1306.61 1509.08 L1306.61 1511.14 Q1301.2 1511.14 1301.2 1513.04 Q1301.2 1513.3 1301.58 1514.23 L1314.18 1547.53 L1326.25 1515.75 Q1326.58 1514.75 1326.58 1514.43 Q1326.58 1513.11 1325.35 1512.17 Q1324.16 1511.21 1321.78 1511.14 L1321.78 1509.08 Q1326.93 1509.27 1329.28 1509.27 Q1332.63 1509.27 1335.69 1509.08 L1335.69 1511.14 Q1330.15 1511.21 1328.51 1515.55 L1313.79 1554.33 Q1313.53 1555.13 1313.28 1555.36 Q1313.02 1555.58 1312.21 1555.58 Q1311.57 1555.58 1311.21 1555.33 Q1310.89 1555.07 1310.57 1554.14 L1295.27 1513.65 Q1294.63 1511.88 1293.47 1511.53 Q1292.31 1511.14 1288.8 1511.14 Z" fill="#000000" fill-rule="nonzero" fill-opacity="1" /><path clip-path="url(#clip030)" d="M1353.11 1569.98 Q1353.11 1569.66 1353.94 1568.85 Q1364.57 1558.03 1364.57 1537.65 Q1364.57 1517.2 1354.36 1506.86 Q1353.11 1505.67 1353.11 1505.31 Q1353.11 1504.67 1353.75 1504.67 Q1354.2 1504.67 1355.78 1505.99 Q1357.39 1507.31 1359.81 1510.34 Q1362.25 1513.36 1364.06 1517.07 Q1368.4 1526.05 1368.4 1537.65 Q1368.4 1548.79 1364.25 1557.77 Q1362.48 1561.54 1360 1564.7 Q1357.52 1567.86 1355.88 1569.24 Q1354.23 1570.62 1353.75 1570.62 Q1353.11 1570.62 1353.11 1569.98 Z" fill="#000000" fill-rule="nonzero" fill-opacity="1" /><polyline clip-path="url(#clip030)" style="stroke:#000000; stroke-linecap:round; stroke-linejoin:round; stroke-width:4; stroke-opacity:1; fill:none" points="175.445,1423.18 175.445,123.472 "/>
<polyline clip-path="url(#clip030)" style="stroke:#000000; stroke-linecap:round; stroke-linejoin:round; stroke-width:4; stroke-opacity:1; fill:none" points="175.445,1364.5 194.343,1364.5 "/>
<polyline clip-path="url(#clip030)" style="stroke:#000000; stroke-linecap:round; stroke-linejoin:round; stroke-width:4; stroke-opacity:1; fill:none" points="175.445,1145.55 194.343,1145.55 "/>
<polyline clip-path="url(#clip030)" style="stroke:#000000; stroke-linecap:round; stroke-linejoin:round; stroke-width:4; stroke-opacity:1; fill:none" points="175.445,926.593 194.343,926.593 "/>
<polyline clip-path="url(#clip030)" style="stroke:#000000; stroke-linecap:round; stroke-linejoin:round; stroke-width:4; stroke-opacity:1; fill:none" points="175.445,707.64 194.343,707.64 "/>
<polyline clip-path="url(#clip030)" style="stroke:#000000; stroke-linecap:round; stroke-linejoin:round; stroke-width:4; stroke-opacity:1; fill:none" points="175.445,488.686 194.343,488.686 "/>
<polyline clip-path="url(#clip030)" style="stroke:#000000; stroke-linecap:round; stroke-linejoin:round; stroke-width:4; stroke-opacity:1; fill:none" points="175.445,269.733 194.343,269.733 "/>
<path clip-path="url(#clip030)" d="M127.501 1350.3 Q123.89 1350.3 122.061 1353.86 Q120.255 1357.41 120.255 1364.54 Q120.255 1371.64 122.061 1375.21 Q123.89 1378.75 127.501 1378.75 Q131.135 1378.75 132.941 1375.21 Q134.769 1371.64 134.769 1364.54 Q134.769 1357.41 132.941 1353.86 Q131.135 1350.3 127.501 1350.3 M127.501 1346.6 Q133.311 1346.6 136.367 1351.2 Q139.445 1355.79 139.445 1364.54 Q139.445 1373.26 136.367 1377.87 Q133.311 1382.45 127.501 1382.45 Q121.691 1382.45 118.612 1377.87 Q115.556 1373.26 115.556 1364.54 Q115.556 1355.79 118.612 1351.2 Q121.691 1346.6 127.501 1346.6 Z" fill="#000000" fill-rule="nonzero" fill-opacity="1" /><path clip-path="url(#clip030)" d="M119.538 1158.89 L127.177 1158.89 L127.177 1132.53 L118.867 1134.19 L118.867 1129.93 L127.13 1128.27 L131.806 1128.27 L131.806 1158.89 L139.445 1158.89 L139.445 1162.83 L119.538 1162.83 L119.538 1158.89 Z" fill="#000000" fill-rule="nonzero" fill-opacity="1" /><path clip-path="url(#clip030)" d="M123.126 939.938 L139.445 939.938 L139.445 943.873 L117.501 943.873 L117.501 939.938 Q120.163 937.184 124.746 932.554 Q129.353 927.901 130.533 926.559 Q132.779 924.036 133.658 922.299 Q134.561 920.54 134.561 918.85 Q134.561 916.096 132.617 914.36 Q130.695 912.624 127.593 912.624 Q125.394 912.624 122.941 913.387 Q120.51 914.151 117.732 915.702 L117.732 910.98 Q120.556 909.846 123.01 909.267 Q125.464 908.688 127.501 908.688 Q132.871 908.688 136.066 911.374 Q139.26 914.059 139.26 918.549 Q139.26 920.679 138.45 922.6 Q137.663 924.499 135.556 927.091 Q134.978 927.762 131.876 930.98 Q128.774 934.174 123.126 939.938 Z" fill="#000000" fill-rule="nonzero" fill-opacity="1" /><path clip-path="url(#clip030)" d="M132.316 706.286 Q135.672 707.003 137.547 709.272 Q139.445 711.54 139.445 714.874 Q139.445 719.989 135.927 722.79 Q132.408 725.591 125.927 725.591 Q123.751 725.591 121.436 725.151 Q119.144 724.735 116.691 723.878 L116.691 719.364 Q118.635 720.499 120.95 721.077 Q123.265 721.656 125.788 721.656 Q130.186 721.656 132.478 719.92 Q134.792 718.184 134.792 714.874 Q134.792 711.818 132.64 710.105 Q130.51 708.369 126.691 708.369 L122.663 708.369 L122.663 704.527 L126.876 704.527 Q130.325 704.527 132.154 703.161 Q133.982 701.772 133.982 699.179 Q133.982 696.517 132.084 695.105 Q130.209 693.67 126.691 693.67 Q124.769 693.67 122.57 694.087 Q120.371 694.503 117.732 695.383 L117.732 691.216 Q120.394 690.476 122.709 690.105 Q125.047 689.735 127.107 689.735 Q132.431 689.735 135.533 692.165 Q138.635 694.573 138.635 698.693 Q138.635 701.564 136.992 703.554 Q135.348 705.522 132.316 706.286 Z" fill="#000000" fill-rule="nonzero" fill-opacity="1" /><path clip-path="url(#clip030)" d="M129.862 475.481 L118.056 493.93 L129.862 493.93 L129.862 475.481 M128.635 471.406 L134.515 471.406 L134.515 493.93 L139.445 493.93 L139.445 497.818 L134.515 497.818 L134.515 505.966 L129.862 505.966 L129.862 497.818 L114.26 497.818 L114.26 493.305 L128.635 471.406 Z" fill="#000000" fill-rule="nonzero" fill-opacity="1" /><path clip-path="url(#clip030)" d="M118.543 252.453 L136.899 252.453 L136.899 256.388 L122.825 256.388 L122.825 264.86 Q123.843 264.513 124.862 264.351 Q125.88 264.166 126.899 264.166 Q132.686 264.166 136.066 267.337 Q139.445 270.508 139.445 275.925 Q139.445 281.504 135.973 284.606 Q132.501 287.684 126.181 287.684 Q124.005 287.684 121.737 287.314 Q119.492 286.944 117.084 286.203 L117.084 281.504 Q119.168 282.638 121.39 283.194 Q123.612 283.749 126.089 283.749 Q130.093 283.749 132.431 281.643 Q134.769 279.536 134.769 275.925 Q134.769 272.314 132.431 270.208 Q130.093 268.101 126.089 268.101 Q124.214 268.101 122.339 268.518 Q120.487 268.934 118.543 269.814 L118.543 252.453 Z" fill="#000000" fill-rule="nonzero" fill-opacity="1" /><path clip-path="url(#clip030)" d="M21.8382 900.702 L19.777 900.702 Q19.9702 893.585 19.9702 892.329 Q19.9702 885.276 19.777 882.892 L21.8382 882.892 Q21.8382 888.303 23.7383 888.303 Q23.996 888.303 24.9299 887.917 L58.2308 875.324 L26.4436 863.247 Q25.4452 862.925 25.1232 862.925 Q23.8027 862.925 22.8688 864.149 Q21.9026 865.34 21.8382 867.723 L19.777 867.723 Q19.9702 862.571 19.9702 860.22 Q19.9702 856.87 19.777 853.811 L21.8382 853.811 Q21.9026 859.35 26.2504 860.992 L65.0262 875.711 Q65.8314 875.968 66.0568 876.226 Q66.2823 876.483 66.2823 877.289 Q66.2823 877.933 66.0246 878.287 Q65.767 878.609 64.833 878.931 L24.3502 894.229 Q22.5789 894.873 22.2246 896.032 Q21.8382 897.192 21.8382 900.702 Z" fill="#000000" fill-rule="nonzero" fill-opacity="1" /><path clip-path="url(#clip030)" d="M80.6694 844.181 Q77.6485 847.225 73.2749 847.225 Q68.8788 847.225 65.6776 844.249 Q62.4538 841.251 62.4538 836.967 Q62.4538 832.774 65.655 829.776 Q68.8337 826.755 73.2749 826.755 Q77.6259 826.755 80.6469 829.798 Q83.6678 832.819 83.6678 837.012 Q83.6678 841.115 80.6694 844.181 M72.8917 843.392 Q77.378 843.392 79.4069 842.22 Q82.4955 840.416 82.4955 836.967 Q82.4955 835.254 81.5712 833.834 Q80.6469 832.391 79.0913 831.602 Q77.0623 830.587 72.8917 830.587 Q68.4505 830.587 66.4892 831.805 Q63.4908 833.608 63.4908 837.012 Q63.4908 838.5 64.2798 839.966 Q65.0463 841.408 66.5793 842.288 Q68.6083 843.392 72.8917 843.392 Z" fill="#000000" fill-rule="nonzero" fill-opacity="1" /><path clip-path="url(#clip030)" d="M64.6856 825.284 L63.2428 825.284 L62.7468 818.498 L78.0768 818.498 Q79.1815 818.498 79.8353 818.408 Q80.4665 818.318 81.2105 817.957 Q81.9544 817.574 82.2926 816.717 Q82.6307 815.838 82.6307 814.44 Q82.6307 811.938 80.5792 810.405 Q78.5277 808.849 75.4843 808.849 L67.2557 808.849 Q65.5423 808.849 65.114 809.458 Q64.6856 810.067 64.6856 812.456 L63.2428 812.456 L62.7468 805.671 L79.1364 805.671 Q80.8498 805.671 81.3006 805.084 Q81.729 804.476 81.729 802.064 L83.1493 802.064 L83.6678 808.714 L79.4971 808.714 Q83.6452 810.653 83.6678 814.666 Q83.6678 816.695 83.1493 818.092 Q82.6307 819.468 81.9995 820.166 Q81.3457 820.865 80.1058 821.249 Q78.8659 821.609 78.0994 821.654 Q77.3329 821.699 75.845 821.699 L68.9239 821.699 Q65.7903 821.699 65.2492 822.15 Q64.6856 822.601 64.6856 825.284 Z" fill="#000000" fill-rule="nonzero" fill-opacity="1" /><path clip-path="url(#clip030)" d="M64.6856 800.473 L63.6711 800.473 Q63.581 798.354 62.0931 796.956 Q60.5826 795.536 58.734 795.062 Q56.8854 794.566 54.7437 794.521 L54.7437 793.371 L63.2428 793.371 L63.2428 786.766 L64.6856 786.766 L64.6856 793.371 L77.5132 793.371 Q82.4955 793.371 82.4955 790.26 Q82.4955 788.93 81.1428 788.051 Q79.7676 787.172 77.3329 787.172 L74.7854 787.172 L74.7854 786.022 L77.423 786.022 Q79.9254 786.022 81.7966 787.172 Q83.6678 788.321 83.6678 790.598 Q83.6678 791.432 83.4423 792.267 Q83.2394 793.078 82.6984 794.16 Q82.1348 795.22 80.7821 795.896 Q79.4069 796.55 77.423 796.55 L64.6856 796.55 L64.6856 800.473 Z" fill="#000000" fill-rule="nonzero" fill-opacity="1" /><path clip-path="url(#clip030)" d="M48.3436 758.273 Q37.2004 758.273 28.2149 754.118 Q24.4469 752.347 21.2907 749.867 Q18.1345 747.387 16.7497 745.745 Q15.3648 744.102 15.3648 743.651 Q15.3648 743.007 16.0089 742.975 Q16.331 742.975 17.1361 743.844 Q27.9573 754.472 48.3436 754.44 Q68.7943 754.44 79.1968 744.102 Q80.324 742.975 80.6783 742.975 Q81.3224 742.975 81.3224 743.651 Q81.3224 744.102 80.002 745.68 Q78.6815 747.258 75.6542 749.706 Q72.6268 752.153 68.9231 753.925 Q59.9377 758.273 48.3436 758.273 Z" fill="#000000" fill-rule="nonzero" fill-opacity="1" /><path clip-path="url(#clip030)" d="M21.8382 735.585 L19.777 735.585 Q19.9702 728.468 19.9702 727.212 Q19.9702 720.159 19.777 717.775 L21.8382 717.775 Q21.8382 723.186 23.7383 723.186 Q23.996 723.186 24.9299 722.799 L58.2308 710.207 L26.4436 698.13 Q25.4452 697.808 25.1232 697.808 Q23.8027 697.808 22.8688 699.032 Q21.9026 700.223 21.8382 702.606 L19.777 702.606 Q19.9702 697.453 19.9702 695.102 Q19.9702 691.753 19.777 688.693 L21.8382 688.693 Q21.9026 694.233 26.2504 695.875 L65.0262 710.593 Q65.8314 710.851 66.0568 711.109 Q66.2823 711.366 66.2823 712.172 Q66.2823 712.816 66.0246 713.17 Q65.767 713.492 64.833 713.814 L24.3502 729.112 Q22.5789 729.756 22.2246 730.915 Q21.8382 732.075 21.8382 735.585 Z" fill="#000000" fill-rule="nonzero" fill-opacity="1" /><path clip-path="url(#clip030)" d="M80.6783 671.277 Q80.3562 671.277 79.5511 670.44 Q68.7299 659.812 48.3436 659.812 Q27.8929 659.812 17.5548 670.021 Q16.3632 671.277 16.0089 671.277 Q15.3648 671.277 15.3648 670.633 Q15.3648 670.182 16.6852 668.604 Q18.0057 666.994 21.033 664.578 Q24.0604 662.131 27.7641 660.327 Q36.7495 655.979 48.3436 655.979 Q59.4868 655.979 68.4723 660.134 Q72.2403 661.905 75.3965 664.385 Q78.5527 666.865 79.9376 668.507 Q81.3224 670.15 81.3224 670.633 Q81.3224 671.277 80.6783 671.277 Z" fill="#000000" fill-rule="nonzero" fill-opacity="1" /><path clip-path="url(#clip030)" d="M956.372 15.963 L956.372 13.3397 Q965.431 13.5857 967.029 13.5857 Q976.006 13.5857 979.039 13.3397 L979.039 15.963 Q972.153 15.963 972.153 18.3814 Q972.153 18.7093 972.645 19.898 L988.672 62.2809 L1004.04 21.8245 Q1004.45 20.5538 1004.45 20.1439 Q1004.45 18.4634 1002.89 17.2747 Q1001.38 16.045 998.345 15.963 L998.345 13.3397 Q1004.9 13.5857 1007.9 13.5857 Q1012.16 13.5857 1016.05 13.3397 L1016.05 15.963 Q1009 16.045 1006.91 21.5786 L988.18 70.9297 Q987.852 71.9544 987.524 72.2413 Q987.196 72.5282 986.171 72.5282 Q985.352 72.5282 984.901 72.2003 Q984.491 71.8724 984.081 70.6837 L964.611 19.1602 Q963.791 16.9058 962.316 16.4549 Q960.84 15.963 956.372 15.963 Z" fill="#000000" fill-rule="nonzero" fill-opacity="1" /><path clip-path="url(#clip030)" d="M1028.3 90.8413 Q1024.43 86.9965 1024.43 81.4302 Q1024.43 75.8351 1028.21 71.7608 Q1032.03 67.6578 1037.48 67.6578 Q1042.82 67.6578 1046.63 71.7321 Q1050.48 75.7777 1050.48 81.4302 Q1050.48 86.9678 1046.61 90.8126 Q1042.76 94.6574 1037.42 94.6574 Q1032.2 94.6574 1028.3 90.8413 M1029.3 80.9424 Q1029.3 86.6522 1030.8 89.2345 Q1033.09 93.1654 1037.48 93.1654 Q1039.66 93.1654 1041.47 91.989 Q1043.31 90.8126 1044.31 88.8328 Q1045.6 86.2505 1045.6 80.9424 Q1045.6 75.29 1044.05 72.7937 Q1041.76 68.9776 1037.42 68.9776 Q1035.53 68.9776 1033.66 69.9819 Q1031.83 70.9574 1030.71 72.9085 Q1029.3 75.4908 1029.3 80.9424 Z" fill="#000000" fill-rule="nonzero" fill-opacity="1" /><path clip-path="url(#clip030)" d="M1052.35 70.4983 L1052.35 68.662 L1060.99 68.0308 L1060.99 87.5417 Q1060.99 88.9476 1061.1 89.7797 Q1061.22 90.5831 1061.67 91.5299 Q1062.16 92.4768 1063.25 92.9072 Q1064.37 93.3375 1066.15 93.3375 Q1069.34 93.3375 1071.29 90.7265 Q1073.27 88.1155 1073.27 84.242 L1073.27 73.7693 Q1073.27 71.5886 1072.49 71.0435 Q1071.72 70.4983 1068.68 70.4983 L1068.68 68.662 L1077.31 68.0308 L1077.31 88.8902 Q1077.31 91.0708 1078.06 91.6447 Q1078.83 92.1898 1081.9 92.1898 L1081.9 93.9975 L1073.44 94.6574 L1073.44 89.3493 Q1070.97 94.6287 1065.86 94.6574 Q1063.28 94.6574 1061.5 93.9975 Q1059.75 93.3375 1058.86 92.5342 Q1057.97 91.7021 1057.49 90.124 Q1057.03 88.5459 1056.97 87.5703 Q1056.91 86.5948 1056.91 84.7011 L1056.91 75.8925 Q1056.91 71.9042 1056.34 71.2156 Q1055.76 70.4983 1052.35 70.4983 Z" fill="#000000" fill-rule="nonzero" fill-opacity="1" /><path clip-path="url(#clip030)" d="M1083.93 70.4983 L1083.93 69.2072 Q1086.62 69.0924 1088.4 67.1987 Q1090.21 65.2763 1090.81 62.9235 Q1091.44 60.5707 1091.5 57.8449 L1092.96 57.8449 L1092.96 68.662 L1101.37 68.662 L1101.37 70.4983 L1092.96 70.4983 L1092.96 86.8243 Q1092.96 93.1654 1096.92 93.1654 Q1098.62 93.1654 1099.74 91.4438 Q1100.85 89.6936 1100.85 86.5948 L1100.85 83.3526 L1102.32 83.3526 L1102.32 86.7096 Q1102.32 89.8944 1100.85 92.2759 Q1099.39 94.6574 1096.49 94.6574 Q1095.43 94.6574 1094.37 94.3705 Q1093.34 94.1122 1091.96 93.4236 Q1090.61 92.7063 1089.75 90.9848 Q1088.92 89.2345 1088.92 86.7096 L1088.92 70.4983 L1083.93 70.4983 Z" fill="#000000" fill-rule="nonzero" fill-opacity="1" /><path clip-path="url(#clip030)" d="M1137.63 37.1135 L1137.63 34.4902 Q1141.4 34.7361 1145.79 34.7361 Q1147.39 34.7361 1154.93 34.4902 L1154.93 37.1135 Q1150.13 37.1135 1150.13 39.2859 Q1150.13 39.6138 1150.62 40.7206 L1160.05 64.1254 L1168.62 42.729 Q1169.11 41.2944 1169.11 40.7206 Q1169.11 39.2859 1168.13 38.2612 Q1167.18 37.1955 1165.09 37.1135 L1165.09 34.4902 Q1169.36 34.7361 1172.39 34.7361 Q1175.83 34.7361 1178.66 34.4902 L1178.66 37.1135 Q1176.16 37.1135 1174.4 38.2612 Q1172.63 39.3679 1172.06 40.3517 Q1171.53 41.2944 1170.95 42.729 L1159.97 70.0279 Q1159.31 71.6265 1158.21 71.6265 Q1157.47 71.6265 1157.14 71.2986 Q1156.85 71.0116 1156.44 70.0279 L1144.35 40.2287 Q1143.53 38.1382 1142.47 37.6464 Q1141.4 37.1135 1137.63 37.1135 Z" fill="#000000" fill-rule="nonzero" fill-opacity="1" /><path clip-path="url(#clip030)" d="M1183.42 69.577 L1183.42 58.5099 Q1183.42 57.5671 1183.46 57.2392 Q1183.5 56.9113 1183.75 56.6654 Q1183.99 56.4194 1184.48 56.4194 Q1185.06 56.4194 1185.26 56.6654 Q1185.51 56.9113 1185.67 57.8541 Q1186.94 63.6336 1189.65 66.7078 Q1192.39 69.741 1197.35 69.741 Q1202.07 69.741 1204.45 67.6505 Q1206.82 65.5601 1206.82 62.117 Q1206.82 55.9686 1198.09 54.411 Q1193.05 53.3862 1190.96 52.7304 Q1188.87 52.0336 1187.03 50.517 Q1183.42 47.5658 1183.42 43.3849 Q1183.42 39.204 1186.57 36.1298 Q1189.77 33.0556 1196.82 33.0556 Q1201.54 33.0556 1204.73 35.4329 Q1205.68 34.6951 1206.17 34.0803 Q1207.27 33.0556 1207.85 33.0556 Q1208.5 33.0556 1208.63 33.5064 Q1208.75 33.9163 1208.75 35.105 L1208.75 43.5488 Q1208.75 44.4916 1208.71 44.8195 Q1208.67 45.1474 1208.42 45.3933 Q1208.18 45.5983 1207.64 45.5983 Q1206.7 45.5983 1206.66 44.8195 Q1206 34.6541 1196.82 34.6541 Q1191.86 34.6541 1189.65 36.5806 Q1187.43 38.4661 1187.43 41.0485 Q1187.43 42.4831 1188.09 43.5898 Q1188.79 44.6555 1189.65 45.3114 Q1190.55 45.9262 1192.19 46.541 Q1193.83 47.1149 1194.81 47.3198 Q1195.84 47.5248 1197.76 47.9347 Q1204.49 49.2053 1207.31 51.9516 Q1210.84 55.4767 1210.84 59.9445 Q1210.84 64.9042 1207.48 68.2654 Q1204.12 71.6265 1197.35 71.6265 Q1191.9 71.6265 1188.09 67.9784 Q1187.6 68.4703 1187.23 68.9212 Q1186.86 69.3311 1186.7 69.495 Q1186.57 69.659 1186.53 69.782 Q1186.49 69.8639 1186.41 69.9459 Q1184.73 71.6265 1184.32 71.6265 Q1183.66 71.6265 1183.54 71.1756 Q1183.42 70.7657 1183.42 69.577 Z" fill="#000000" fill-rule="nonzero" fill-opacity="1" /><path clip-path="url(#clip030)" d="M1217.41 69.3311 Q1216.14 67.9784 1216.14 66.2159 Q1216.14 64.4533 1217.41 63.1827 Q1218.68 61.871 1220.61 61.871 Q1222.45 61.871 1223.68 63.1007 Q1224.95 64.2894 1224.95 66.2569 Q1224.95 68.1834 1223.6 69.454 Q1222.29 70.6837 1220.61 70.6837 Q1218.68 70.6837 1217.41 69.3311 Z" fill="#000000" fill-rule="nonzero" fill-opacity="1" /><path clip-path="url(#clip030)" d="M1252.55 15.963 L1252.55 13.3397 Q1261.61 13.5857 1263.2 13.5857 Q1272.18 13.5857 1275.21 13.3397 L1275.21 15.963 Q1268.33 15.963 1268.33 18.3814 Q1268.33 18.7093 1268.82 19.898 L1284.85 62.2809 L1300.22 21.8245 Q1300.63 20.5538 1300.63 20.1439 Q1300.63 18.4634 1299.07 17.2747 Q1297.55 16.045 1294.52 15.963 L1294.52 13.3397 Q1301.08 13.5857 1304.07 13.5857 Q1308.33 13.5857 1312.23 13.3397 L1312.23 15.963 Q1305.18 16.045 1303.09 21.5786 L1284.35 70.9297 Q1284.03 71.9544 1283.7 72.2413 Q1283.37 72.5282 1282.35 72.5282 Q1281.53 72.5282 1281.07 72.2003 Q1280.67 71.8724 1280.26 70.6837 L1260.79 19.1602 Q1259.97 16.9058 1258.49 16.4549 Q1257.01 15.963 1252.55 15.963 Z" fill="#000000" fill-rule="nonzero" fill-opacity="1" /><path clip-path="url(#clip030)" d="M1320.6 95.8678 L1320.6 94.0602 Q1323.73 94.0602 1324.44 93.6872 Q1325.16 93.2855 1325.16 91.3918 L1325.16 75.5822 Q1325.16 73.4016 1324.42 72.8851 Q1323.7 72.3686 1320.83 72.3686 L1320.83 70.5323 L1329.04 69.9011 L1329.04 91.4491 Q1329.04 93.1994 1329.67 93.6298 Q1330.3 94.0602 1333.17 94.0602 L1333.17 95.8678 Q1327.17 95.6956 1327.06 95.6956 Q1326.25 95.6956 1320.6 95.8678 M1323.07 59.6579 Q1323.07 58.4815 1323.96 57.5346 Q1324.88 56.5591 1326.17 56.5591 Q1327.46 56.5591 1328.38 57.4485 Q1329.29 58.3093 1329.29 59.6865 Q1329.29 61.0351 1328.38 61.9246 Q1327.46 62.7853 1326.17 62.7853 Q1324.82 62.7853 1323.93 61.8385 Q1323.07 60.8916 1323.07 59.6579 Z" fill="#000000" fill-rule="nonzero" fill-opacity="1" /><path clip-path="url(#clip030)" d="M1337.18 95.8678 L1337.18 94.0602 Q1340.31 94.0602 1341.03 93.6872 Q1341.75 93.2855 1341.75 91.3918 L1341.75 75.6396 Q1341.75 73.4589 1340.97 72.9138 Q1340.22 72.3686 1337.18 72.3686 L1337.18 70.5323 L1345.45 69.9011 L1345.45 76.07 Q1348.2 69.9011 1354.14 69.9011 Q1358.56 69.9011 1360.31 72.0817 Q1361.6 73.545 1361.86 75.1805 Q1362.15 76.816 1362.15 81.0625 L1362.15 92.2812 Q1362.2 93.515 1363.15 93.8019 Q1364.1 94.0602 1366.74 94.0602 L1366.74 95.8678 Q1360.74 95.6956 1360.14 95.6956 Q1359.68 95.6956 1353.51 95.8678 L1353.51 94.0602 Q1356.64 94.0602 1357.35 93.6872 Q1358.1 93.2855 1358.1 91.3918 L1358.1 77.7054 Q1358.1 74.7214 1357.18 72.9712 Q1356.26 71.1922 1353.74 71.1922 Q1350.7 71.1922 1348.26 73.7459 Q1345.82 76.2995 1345.82 80.6034 L1345.82 91.3918 Q1345.82 93.2855 1346.54 93.6872 Q1347.28 94.0602 1350.38 94.0602 L1350.38 95.8678 Q1344.38 95.6956 1343.81 95.6956 Q1343.35 95.6956 1337.18 95.8678 Z" fill="#000000" fill-rule="nonzero" fill-opacity="1" /><path clip-path="url(#clip030)" d="M1422.79 84.3741 Q1427.26 84.3741 1428.28 83.8003 Q1429.35 83.2674 1429.35 80.6031 L1429.35 41.2944 Q1429.35 38.5071 1428.28 37.8103 Q1427.26 37.1135 1422.79 37.1135 L1422.79 34.4902 L1434.88 33.5884 L1434.88 39.122 Q1439.92 33.5884 1446.64 33.5884 Q1453.78 33.5884 1458.98 39.122 Q1464.19 44.6555 1464.19 52.5665 Q1464.19 60.5594 1458.65 66.0929 Q1453.12 71.6265 1445.45 71.6265 Q1441.27 71.6265 1438.45 69.495 Q1435.66 67.3226 1435.13 65.724 L1435.13 66.5028 L1435.13 80.6031 Q1435.13 83.3084 1436.19 83.8413 Q1437.26 84.3741 1441.68 84.3741 L1441.68 86.9565 Q1432.87 86.7105 1432.21 86.7105 Q1431.4 86.7105 1422.79 86.9565 L1422.79 84.3741 M1435.13 61.1332 Q1435.13 62.4039 1435.29 62.8548 Q1435.49 63.3056 1436.31 64.6583 Q1439.63 69.741 1445.04 69.741 Q1445.09 69.741 1445.13 69.741 Q1449.92 69.741 1453.57 64.8632 Q1457.22 59.9445 1457.22 52.5665 Q1457.22 45.5163 1453.9 40.5976 Q1450.58 35.6789 1445.99 35.6789 Q1442.71 35.6789 1439.84 37.4414 Q1436.97 39.204 1435.13 42.4011 L1435.13 61.1332 Z" fill="#000000" fill-rule="nonzero" fill-opacity="1" /><path clip-path="url(#clip030)" d="M1475.62 70.6837 L1475.62 68.1014 Q1480.09 68.1014 1481.12 67.5685 Q1482.14 66.9947 1482.14 64.2894 L1482.14 20.6358 Q1482.14 17.5206 1481.04 16.7418 Q1479.97 15.963 1475.62 15.963 L1475.62 13.3397 L1487.68 12.438 L1487.68 64.2894 Q1487.68 66.9947 1488.74 67.5685 Q1489.81 68.1014 1494.23 68.1014 L1494.23 70.6837 Q1493.21 70.6837 1491.08 70.6017 Q1488.95 70.5198 1487.39 70.4788 Q1485.83 70.4378 1484.93 70.4378 Q1483.95 70.4378 1475.62 70.6837 Z" fill="#000000" fill-rule="nonzero" fill-opacity="1" /><path clip-path="url(#clip030)" d="M1506.86 66.1749 Q1501.33 60.6823 1501.33 52.7304 Q1501.33 44.7375 1506.74 38.917 Q1512.19 33.0556 1519.98 33.0556 Q1527.6 33.0556 1533.06 38.876 Q1538.55 44.6555 1538.55 52.7304 Q1538.55 60.6413 1533.02 66.1339 Q1527.52 71.6265 1519.9 71.6265 Q1512.44 71.6265 1506.86 66.1749 M1508.3 52.0336 Q1508.3 60.1905 1510.43 63.8795 Q1513.71 69.495 1519.98 69.495 Q1523.1 69.495 1525.68 67.8145 Q1528.3 66.1339 1529.74 63.3056 Q1531.58 59.6166 1531.58 52.0336 Q1531.58 43.9587 1529.37 40.3926 Q1526.09 34.9411 1519.9 34.9411 Q1517.19 34.9411 1514.53 36.3757 Q1511.91 37.7693 1510.31 40.5566 Q1508.3 44.2456 1508.3 52.0336 Z" fill="#000000" fill-rule="nonzero" fill-opacity="1" /><path clip-path="url(#clip030)" d="M1539.6 37.1135 L1539.6 35.269 Q1543.45 35.105 1545.99 32.3997 Q1548.57 29.6535 1549.43 26.2923 Q1550.33 22.9312 1550.42 19.0372 L1552.51 19.0372 L1552.51 34.4902 L1564.52 34.4902 L1564.52 37.1135 L1552.51 37.1135 L1552.51 60.4364 Q1552.51 69.495 1558.16 69.495 Q1560.58 69.495 1562.18 67.0357 Q1563.78 64.5353 1563.78 60.1085 L1563.78 55.4767 L1565.87 55.4767 L1565.87 60.2724 Q1565.87 64.8223 1563.78 68.2244 Q1561.69 71.6265 1557.55 71.6265 Q1556.03 71.6265 1554.52 71.2166 Q1553.04 70.8477 1551.07 69.8639 Q1549.15 68.8392 1547.92 66.3798 Q1546.73 63.8795 1546.73 60.2724 L1546.73 37.1135 L1539.6 37.1135 Z" fill="#000000" fill-rule="nonzero" fill-opacity="1" /><polyline clip-path="url(#clip032)" style="stroke:#0000ff; stroke-linecap:round; stroke-linejoin:round; stroke-width:8; stroke-opacity:1; fill:none" points="237.067,1364.5 257.608,1364.5 259.32,1364.5 261.031,1362.31 262.743,1325.09 510.943,1281.3 528.06,1263.78 545.177,1252.83 664.998,1195.91 750.584,876.234 819.053,782.084 921.756,663.849 1007.34,571.889 1110.05,451.464 1161.4,398.916 1178.51,357.314 1229.87,315.713 1246.98,293.818 1264.1,271.923 1349.69,269.733 1452.39,269.733 1520.86,269.733 1606.45,269.733 1777.62,269.733 1948.79,269.733 2119.96,269.733 2291.13,269.733 "/>
<circle clip-path="url(#clip032)" cx="237.067" cy="1364.5" r="14.4" fill="#0000ff" fill-rule="evenodd" fill-opacity="1" stroke="#000000" stroke-opacity="1" stroke-width="3.2"/>
<circle clip-path="url(#clip032)" cx="257.608" cy="1364.5" r="14.4" fill="#0000ff" fill-rule="evenodd" fill-opacity="1" stroke="#000000" stroke-opacity="1" stroke-width="3.2"/>
<circle clip-path="url(#clip032)" cx="259.32" cy="1364.5" r="14.4" fill="#0000ff" fill-rule="evenodd" fill-opacity="1" stroke="#000000" stroke-opacity="1" stroke-width="3.2"/>
<circle clip-path="url(#clip032)" cx="261.031" cy="1362.31" r="14.4" fill="#0000ff" fill-rule="evenodd" fill-opacity="1" stroke="#000000" stroke-opacity="1" stroke-width="3.2"/>
<circle clip-path="url(#clip032)" cx="262.743" cy="1325.09" r="14.4" fill="#0000ff" fill-rule="evenodd" fill-opacity="1" stroke="#000000" stroke-opacity="1" stroke-width="3.2"/>
<circle clip-path="url(#clip032)" cx="510.943" cy="1281.3" r="14.4" fill="#0000ff" fill-rule="evenodd" fill-opacity="1" stroke="#000000" stroke-opacity="1" stroke-width="3.2"/>
<circle clip-path="url(#clip032)" cx="528.06" cy="1263.78" r="14.4" fill="#0000ff" fill-rule="evenodd" fill-opacity="1" stroke="#000000" stroke-opacity="1" stroke-width="3.2"/>
<circle clip-path="url(#clip032)" cx="545.177" cy="1252.83" r="14.4" fill="#0000ff" fill-rule="evenodd" fill-opacity="1" stroke="#000000" stroke-opacity="1" stroke-width="3.2"/>
<circle clip-path="url(#clip032)" cx="664.998" cy="1195.91" r="14.4" fill="#0000ff" fill-rule="evenodd" fill-opacity="1" stroke="#000000" stroke-opacity="1" stroke-width="3.2"/>
<circle clip-path="url(#clip032)" cx="750.584" cy="876.234" r="14.4" fill="#0000ff" fill-rule="evenodd" fill-opacity="1" stroke="#000000" stroke-opacity="1" stroke-width="3.2"/>
<circle clip-path="url(#clip032)" cx="819.053" cy="782.084" r="14.4" fill="#0000ff" fill-rule="evenodd" fill-opacity="1" stroke="#000000" stroke-opacity="1" stroke-width="3.2"/>
<circle clip-path="url(#clip032)" cx="921.756" cy="663.849" r="14.4" fill="#0000ff" fill-rule="evenodd" fill-opacity="1" stroke="#000000" stroke-opacity="1" stroke-width="3.2"/>
<circle clip-path="url(#clip032)" cx="1007.34" cy="571.889" r="14.4" fill="#0000ff" fill-rule="evenodd" fill-opacity="1" stroke="#000000" stroke-opacity="1" stroke-width="3.2"/>
<circle clip-path="url(#clip032)" cx="1110.05" cy="451.464" r="14.4" fill="#0000ff" fill-rule="evenodd" fill-opacity="1" stroke="#000000" stroke-opacity="1" stroke-width="3.2"/>
<circle clip-path="url(#clip032)" cx="1161.4" cy="398.916" r="14.4" fill="#0000ff" fill-rule="evenodd" fill-opacity="1" stroke="#000000" stroke-opacity="1" stroke-width="3.2"/>
<circle clip-path="url(#clip032)" cx="1178.51" cy="357.314" r="14.4" fill="#0000ff" fill-rule="evenodd" fill-opacity="1" stroke="#000000" stroke-opacity="1" stroke-width="3.2"/>
<circle clip-path="url(#clip032)" cx="1229.87" cy="315.713" r="14.4" fill="#0000ff" fill-rule="evenodd" fill-opacity="1" stroke="#000000" stroke-opacity="1" stroke-width="3.2"/>
<circle clip-path="url(#clip032)" cx="1246.98" cy="293.818" r="14.4" fill="#0000ff" fill-rule="evenodd" fill-opacity="1" stroke="#000000" stroke-opacity="1" stroke-width="3.2"/>
<circle clip-path="url(#clip032)" cx="1264.1" cy="271.923" r="14.4" fill="#0000ff" fill-rule="evenodd" fill-opacity="1" stroke="#000000" stroke-opacity="1" stroke-width="3.2"/>
<circle clip-path="url(#clip032)" cx="1349.69" cy="269.733" r="14.4" fill="#0000ff" fill-rule="evenodd" fill-opacity="1" stroke="#000000" stroke-opacity="1" stroke-width="3.2"/>
<circle clip-path="url(#clip032)" cx="1452.39" cy="269.733" r="14.4" fill="#0000ff" fill-rule="evenodd" fill-opacity="1" stroke="#000000" stroke-opacity="1" stroke-width="3.2"/>
<circle clip-path="url(#clip032)" cx="1520.86" cy="269.733" r="14.4" fill="#0000ff" fill-rule="evenodd" fill-opacity="1" stroke="#000000" stroke-opacity="1" stroke-width="3.2"/>
<circle clip-path="url(#clip032)" cx="1606.45" cy="269.733" r="14.4" fill="#0000ff" fill-rule="evenodd" fill-opacity="1" stroke="#000000" stroke-opacity="1" stroke-width="3.2"/>
<circle clip-path="url(#clip032)" cx="1777.62" cy="269.733" r="14.4" fill="#0000ff" fill-rule="evenodd" fill-opacity="1" stroke="#000000" stroke-opacity="1" stroke-width="3.2"/>
<circle clip-path="url(#clip032)" cx="1948.79" cy="269.733" r="14.4" fill="#0000ff" fill-rule="evenodd" fill-opacity="1" stroke="#000000" stroke-opacity="1" stroke-width="3.2"/>
<circle clip-path="url(#clip032)" cx="2119.96" cy="269.733" r="14.4" fill="#0000ff" fill-rule="evenodd" fill-opacity="1" stroke="#000000" stroke-opacity="1" stroke-width="3.2"/>
<circle clip-path="url(#clip032)" cx="2291.13" cy="269.733" r="14.4" fill="#0000ff" fill-rule="evenodd" fill-opacity="1" stroke="#000000" stroke-opacity="1" stroke-width="3.2"/>
<polyline clip-path="url(#clip032)" style="stroke:#ff0000; stroke-linecap:round; stroke-linejoin:round; stroke-width:8; stroke-opacity:1; fill:none" stroke-dasharray="32, 20" points="1264.1,1386.4 1264.1,160.256 "/>
<path clip-path="url(#clip030)" d="M248.022 322.316 L729.456 322.316 L729.456 166.796 L248.022 166.796  Z" fill="#ffffff" fill-rule="evenodd" fill-opacity="1"/>
<polyline clip-path="url(#clip030)" style="stroke:#000000; stroke-linecap:round; stroke-linejoin:round; stroke-width:4; stroke-opacity:1; fill:none" points="248.022,322.316 729.456,322.316 729.456,166.796 248.022,166.796 248.022,322.316 "/>
<polyline clip-path="url(#clip030)" style="stroke:#0000ff; stroke-linecap:round; stroke-linejoin:round; stroke-width:8; stroke-opacity:1; fill:none" points="272.215,218.636 417.369,218.636 "/>
<circle clip-path="url(#clip030)" cx="344.792" cy="218.636" r="20.1603" fill="#0000ff" fill-rule="evenodd" fill-opacity="1" stroke="#000000" stroke-opacity="1" stroke-width="4.55111"/>
<path clip-path="url(#clip030)" d="M446.237 205.198 L446.237 232.073 L451.885 232.073 Q459.038 232.073 462.348 228.832 Q465.681 225.592 465.681 218.601 Q465.681 211.657 462.348 208.439 Q459.038 205.198 451.885 205.198 L446.237 205.198 M441.561 201.356 L451.167 201.356 Q461.214 201.356 465.913 205.546 Q470.612 209.712 470.612 218.601 Q470.612 227.536 465.89 231.726 Q461.167 235.916 451.167 235.916 L441.561 235.916 L441.561 201.356 Z" fill="#000000" fill-rule="nonzero" fill-opacity="1" /><path clip-path="url(#clip030)" d="M489.663 222.883 Q484.501 222.883 482.51 224.064 Q480.519 225.244 480.519 228.092 Q480.519 230.36 482.001 231.703 Q483.505 233.022 486.075 233.022 Q489.616 233.022 491.746 230.522 Q493.899 227.999 493.899 223.832 L493.899 222.883 L489.663 222.883 M498.158 221.124 L498.158 235.916 L493.899 235.916 L493.899 231.981 Q492.44 234.342 490.264 235.476 Q488.088 236.587 484.94 236.587 Q480.959 236.587 478.598 234.365 Q476.26 232.119 476.26 228.369 Q476.26 223.994 479.176 221.772 Q482.116 219.55 487.926 219.55 L493.899 219.55 L493.899 219.133 Q493.899 216.194 491.954 214.596 Q490.033 212.976 486.538 212.976 Q484.315 212.976 482.209 213.508 Q480.102 214.041 478.158 215.106 L478.158 211.17 Q480.496 210.268 482.695 209.828 Q484.894 209.365 486.977 209.365 Q492.602 209.365 495.38 212.282 Q498.158 215.198 498.158 221.124 Z" fill="#000000" fill-rule="nonzero" fill-opacity="1" /><path clip-path="url(#clip030)" d="M511.144 202.629 L511.144 209.99 L519.917 209.99 L519.917 213.3 L511.144 213.3 L511.144 227.374 Q511.144 230.545 512 231.448 Q512.88 232.351 515.542 232.351 L519.917 232.351 L519.917 235.916 L515.542 235.916 Q510.612 235.916 508.737 234.087 Q506.862 232.235 506.862 227.374 L506.862 213.3 L503.737 213.3 L503.737 209.99 L506.862 209.99 L506.862 202.629 L511.144 202.629 Z" fill="#000000" fill-rule="nonzero" fill-opacity="1" /><path clip-path="url(#clip030)" d="M537.301 222.883 Q532.139 222.883 530.148 224.064 Q528.158 225.244 528.158 228.092 Q528.158 230.36 529.639 231.703 Q531.144 233.022 533.713 233.022 Q537.255 233.022 539.385 230.522 Q541.537 227.999 541.537 223.832 L541.537 222.883 L537.301 222.883 M545.797 221.124 L545.797 235.916 L541.537 235.916 L541.537 231.981 Q540.079 234.342 537.903 235.476 Q535.727 236.587 532.579 236.587 Q528.598 236.587 526.236 234.365 Q523.898 232.119 523.898 228.369 Q523.898 223.994 526.815 221.772 Q529.755 219.55 535.565 219.55 L541.537 219.55 L541.537 219.133 Q541.537 216.194 539.593 214.596 Q537.672 212.976 534.176 212.976 Q531.954 212.976 529.848 213.508 Q527.741 214.041 525.797 215.106 L525.797 211.17 Q528.135 210.268 530.334 209.828 Q532.533 209.365 534.616 209.365 Q540.241 209.365 543.019 212.282 Q545.797 215.198 545.797 221.124 Z" fill="#000000" fill-rule="nonzero" fill-opacity="1" /><path clip-path="url(#clip030)" d="M574.5 205.198 L574.5 218.184 L580.38 218.184 Q583.644 218.184 585.426 216.495 Q587.208 214.805 587.208 211.68 Q587.208 208.578 585.426 206.888 Q583.644 205.198 580.38 205.198 L574.5 205.198 M569.824 201.356 L580.38 201.356 Q586.19 201.356 589.153 203.995 Q592.139 206.61 592.139 211.68 Q592.139 216.795 589.153 219.411 Q586.19 222.027 580.38 222.027 L574.5 222.027 L574.5 235.916 L569.824 235.916 L569.824 201.356 Z" fill="#000000" fill-rule="nonzero" fill-opacity="1" /><path clip-path="url(#clip030)" d="M606.583 212.976 Q603.157 212.976 601.167 215.661 Q599.176 218.323 599.176 222.976 Q599.176 227.629 601.143 230.314 Q603.134 232.976 606.583 232.976 Q609.986 232.976 611.977 230.291 Q613.967 227.606 613.967 222.976 Q613.967 218.37 611.977 215.684 Q609.986 212.976 606.583 212.976 M606.583 209.365 Q612.139 209.365 615.31 212.976 Q618.481 216.587 618.481 222.976 Q618.481 229.342 615.31 232.976 Q612.139 236.587 606.583 236.587 Q601.005 236.587 597.833 232.976 Q594.685 229.342 594.685 222.976 Q594.685 216.587 597.833 212.976 Q601.005 209.365 606.583 209.365 Z" fill="#000000" fill-rule="nonzero" fill-opacity="1" /><path clip-path="url(#clip030)" d="M625.541 209.99 L629.801 209.99 L629.801 235.916 L625.541 235.916 L625.541 209.99 M625.541 199.897 L629.801 199.897 L629.801 205.291 L625.541 205.291 L625.541 199.897 Z" fill="#000000" fill-rule="nonzero" fill-opacity="1" /><path clip-path="url(#clip030)" d="M660.263 220.268 L660.263 235.916 L656.004 235.916 L656.004 220.407 Q656.004 216.726 654.569 214.897 Q653.134 213.069 650.264 213.069 Q646.814 213.069 644.824 215.268 Q642.833 217.467 642.833 221.263 L642.833 235.916 L638.551 235.916 L638.551 209.99 L642.833 209.99 L642.833 214.018 Q644.361 211.68 646.421 210.522 Q648.504 209.365 651.213 209.365 Q655.68 209.365 657.972 212.143 Q660.263 214.897 660.263 220.268 Z" fill="#000000" fill-rule="nonzero" fill-opacity="1" /><path clip-path="url(#clip030)" d="M672.972 202.629 L672.972 209.99 L681.745 209.99 L681.745 213.3 L672.972 213.3 L672.972 227.374 Q672.972 230.545 673.828 231.448 Q674.708 232.351 677.37 232.351 L681.745 232.351 L681.745 235.916 L677.37 235.916 Q672.439 235.916 670.564 234.087 Q668.689 232.235 668.689 227.374 L668.689 213.3 L665.564 213.3 L665.564 209.99 L668.689 209.99 L668.689 202.629 L672.972 202.629 Z" fill="#000000" fill-rule="nonzero" fill-opacity="1" /><path clip-path="url(#clip030)" d="M703.874 210.754 L703.874 214.782 Q702.069 213.856 700.124 213.393 Q698.18 212.93 696.097 212.93 Q692.925 212.93 691.328 213.902 Q689.754 214.874 689.754 216.819 Q689.754 218.3 690.888 219.157 Q692.023 219.99 695.448 220.754 L696.907 221.078 Q701.444 222.05 703.342 223.832 Q705.263 225.592 705.263 228.763 Q705.263 232.374 702.393 234.481 Q699.546 236.587 694.546 236.587 Q692.462 236.587 690.194 236.17 Q687.949 235.777 685.449 234.967 L685.449 230.569 Q687.81 231.795 690.101 232.42 Q692.393 233.022 694.638 233.022 Q697.648 233.022 699.268 232.004 Q700.888 230.962 700.888 229.087 Q700.888 227.351 699.708 226.425 Q698.55 225.499 694.592 224.643 L693.111 224.295 Q689.152 223.462 687.393 221.749 Q685.634 220.013 685.634 217.004 Q685.634 213.346 688.226 211.356 Q690.819 209.365 695.587 209.365 Q697.948 209.365 700.032 209.712 Q702.115 210.059 703.874 210.754 Z" fill="#000000" fill-rule="nonzero" fill-opacity="1" /><polyline clip-path="url(#clip030)" style="stroke:#ff0000; stroke-linecap:round; stroke-linejoin:round; stroke-width:8; stroke-opacity:1; fill:none" stroke-dasharray="32, 20" points="272.215,270.476 417.369,270.476 "/>
<path clip-path="url(#clip030)" d="M475.758 247.322 Q475.711 248.189 475.125 248.236 Q474.235 248.283 473.697 248.4 Q473.158 248.493 472.315 248.845 Q471.471 249.196 470.652 250.039 Q469.832 250.883 468.989 252.218 L451.726 279.692 Q451.422 280.207 451.164 280.371 Q450.93 280.559 450.391 280.559 Q449.899 280.559 449.712 280.348 Q449.525 280.161 449.431 279.458 L445.636 249.852 Q445.566 249.313 445.496 249.079 Q445.426 248.845 445.145 248.611 Q444.887 248.376 444.325 248.306 Q443.763 248.236 442.756 248.236 Q442.287 248.236 442.076 248.212 Q441.889 248.189 441.725 248.072 Q441.561 247.931 441.561 247.65 Q441.561 247.229 441.725 247.018 Q441.912 246.784 442.053 246.76 Q442.217 246.737 442.474 246.737 Q442.873 246.737 443.739 246.784 Q444.606 246.83 445.051 246.83 Q445.473 246.83 446.363 246.854 Q447.253 246.877 447.698 246.877 Q448.681 246.877 450.672 246.807 Q452.687 246.737 453.647 246.737 Q454.303 246.737 454.303 247.275 Q454.303 247.931 454.022 248.095 Q453.741 248.236 453.108 248.236 Q451.515 248.236 450.649 248.634 Q449.806 249.032 449.806 249.665 L453.061 275.055 L467.794 251.632 Q468.52 250.531 468.52 249.805 Q468.52 248.4 466.295 248.236 Q465.546 248.236 465.546 247.65 Q465.546 247.229 465.733 247.018 Q465.92 246.784 466.061 246.76 Q466.225 246.737 466.459 246.737 Q467.232 246.737 468.801 246.807 Q470.394 246.877 471.19 246.877 Q471.846 246.877 473.181 246.807 Q474.516 246.737 475.125 246.737 Q475.758 246.737 475.758 247.322 Z" fill="#000000" fill-rule="nonzero" fill-opacity="1" /><path clip-path="url(#clip030)" d="M480.54 293.9 L480.54 292.867 Q482.327 292.867 482.737 292.654 Q483.147 292.424 483.147 291.342 L483.147 282.341 Q483.147 281.095 482.705 280.783 Q482.278 280.472 480.54 280.472 L480.54 279.422 L485.262 279.062 L485.262 282.587 Q486.836 279.062 490.23 279.062 Q494.165 279.062 494.706 282.341 Q495.28 281.062 496.477 280.062 Q497.69 279.062 499.576 279.062 Q502.101 279.062 503.101 280.308 Q503.839 281.144 503.986 282.078 Q504.134 283.013 504.134 285.44 L504.134 291.85 Q504.167 292.555 504.708 292.719 Q505.249 292.867 506.757 292.867 L506.757 293.9 Q503.33 293.801 503.002 293.801 Q502.74 293.801 499.199 293.9 L499.199 292.867 Q500.986 292.867 501.396 292.654 Q501.822 292.424 501.822 291.342 L501.822 283.521 Q501.822 281.816 501.297 280.816 Q500.773 279.799 499.33 279.799 Q497.592 279.799 496.198 281.259 Q494.805 282.718 494.805 285.177 L494.805 291.342 Q494.805 292.424 495.214 292.654 Q495.641 292.867 497.428 292.867 L497.428 293.9 Q494.001 293.801 493.657 293.801 Q493.395 293.801 489.869 293.9 L489.869 292.867 Q491.657 292.867 492.067 292.654 Q492.493 292.424 492.493 291.342 L492.493 283.521 Q492.493 281.816 491.968 280.816 Q491.443 279.799 490.001 279.799 Q488.263 279.799 486.869 281.259 Q485.475 282.718 485.475 285.177 L485.475 291.342 Q485.475 292.424 485.885 292.654 Q486.312 292.867 488.082 292.867 L488.082 293.9 Q484.656 293.801 484.328 293.801 Q484.065 293.801 480.54 293.9 Z" fill="#000000" fill-rule="nonzero" fill-opacity="1" /><path clip-path="url(#clip030)" d="M508.087 293.9 L508.087 292.867 Q509.874 292.867 510.284 292.654 Q510.694 292.424 510.694 291.342 L510.694 282.308 Q510.694 281.062 510.268 280.767 Q509.858 280.472 508.218 280.472 L508.218 279.422 L512.908 279.062 L512.908 291.375 Q512.908 292.375 513.268 292.621 Q513.629 292.867 515.269 292.867 L515.269 293.9 Q511.842 293.801 511.776 293.801 Q511.317 293.801 508.087 293.9 M509.497 273.208 Q509.497 272.536 510.006 271.995 Q510.53 271.438 511.268 271.438 Q512.006 271.438 512.53 271.946 Q513.055 272.438 513.055 273.225 Q513.055 273.995 512.53 274.504 Q512.006 274.996 511.268 274.996 Q510.497 274.996 509.989 274.454 Q509.497 273.913 509.497 273.208 Z" fill="#000000" fill-rule="nonzero" fill-opacity="1" /><path clip-path="url(#clip030)" d="M517.561 293.9 L517.561 292.867 Q519.349 292.867 519.758 292.654 Q520.168 292.424 520.168 291.342 L520.168 282.341 Q520.168 281.095 519.726 280.783 Q519.299 280.472 517.561 280.472 L517.561 279.422 L522.283 279.062 L522.283 282.587 Q523.857 279.062 527.251 279.062 Q529.776 279.062 530.776 280.308 Q531.514 281.144 531.662 282.078 Q531.826 283.013 531.826 285.44 L531.826 291.85 Q531.859 292.555 532.4 292.719 Q532.941 292.867 534.449 292.867 L534.449 293.9 Q531.022 293.801 530.678 293.801 Q530.416 293.801 526.891 293.9 L526.891 292.867 Q528.678 292.867 529.088 292.654 Q529.514 292.424 529.514 291.342 L529.514 283.521 Q529.514 281.816 528.989 280.816 Q528.465 279.799 527.022 279.799 Q525.284 279.799 523.89 281.259 Q522.497 282.718 522.497 285.177 L522.497 291.342 Q522.497 292.424 522.906 292.654 Q523.333 292.867 525.103 292.867 L525.103 293.9 Q521.677 293.801 521.349 293.801 Q521.087 293.801 517.561 293.9 Z" fill="#000000" fill-rule="nonzero" fill-opacity="1" /><path clip-path="url(#clip030)" d="M554.43 272.22 Q554.476 271.635 555.39 271.635 L584.785 271.635 Q586.167 271.635 586.19 272.174 Q586.19 272.759 584.879 272.736 L555.718 272.736 Q554.43 272.759 554.43 272.22 M554.43 262.851 Q554.43 262.266 555.437 262.289 L584.738 262.289 Q586.167 262.289 586.19 262.851 Q586.19 263.39 584.972 263.39 L555.39 263.39 Q554.43 263.39 554.43 262.851 Z" fill="#000000" fill-rule="nonzero" fill-opacity="1" /><path clip-path="url(#clip030)" d="M604.681 264.35 Q604.681 256.808 608.523 252.194 Q612.364 247.557 617.306 247.557 Q620.187 247.557 621.78 249.032 Q623.396 250.484 623.396 252.733 Q623.396 253.974 622.67 254.513 Q621.944 255.052 621.194 255.052 Q620.327 255.052 619.648 254.466 Q618.969 253.881 618.969 252.827 Q618.969 250.672 621.616 250.672 Q620.374 248.751 617.4 248.751 Q616.486 248.751 615.549 249.032 Q614.612 249.29 613.394 250.18 Q612.176 251.07 611.24 252.475 Q610.303 253.881 609.647 256.527 Q608.991 259.174 608.991 262.617 L608.991 263.765 Q610.958 259.01 614.987 259.034 Q619.016 259.034 621.803 262.102 Q624.59 265.17 624.59 269.714 Q624.59 274.375 621.686 277.467 Q618.782 280.559 614.706 280.559 Q612.879 280.559 611.216 279.786 Q609.577 279.036 608.031 277.303 Q606.508 275.57 605.595 272.244 Q604.681 268.918 604.681 264.35 M609.085 268.66 Q609.085 273.368 609.951 275.617 Q610.092 275.991 610.396 276.507 Q610.724 277.022 611.263 277.701 Q611.825 278.357 612.739 278.802 Q613.652 279.224 614.706 279.224 Q617.915 279.224 619.461 276.109 Q620.281 274.375 620.281 269.667 Q620.281 264.866 619.414 263.109 Q617.938 260.134 614.94 260.134 Q612.926 260.134 611.521 261.516 Q610.139 262.898 609.6 264.749 Q609.085 266.599 609.085 268.66 Z" fill="#000000" fill-rule="nonzero" fill-opacity="1" /><path clip-path="url(#clip030)" d="M629.157 278.732 Q628.431 277.959 628.431 276.952 Q628.431 275.945 629.157 275.218 Q629.883 274.469 630.984 274.469 Q632.038 274.469 632.741 275.172 Q633.467 275.851 633.467 276.975 Q633.467 278.076 632.694 278.802 Q631.945 279.505 630.984 279.505 Q629.883 279.505 629.157 278.732 Z" fill="#000000" fill-rule="nonzero" fill-opacity="1" /><path clip-path="url(#clip030)" d="M641.628 264.163 Q641.628 257.113 643.408 253.272 Q645.891 247.557 651.747 247.557 Q652.988 247.557 654.276 247.908 Q655.588 248.236 657.228 249.524 Q658.891 250.812 659.898 252.92 Q661.818 256.996 661.818 264.163 Q661.818 271.166 660.038 274.984 Q657.438 280.559 651.7 280.559 Q649.545 280.559 647.343 279.458 Q645.165 278.357 643.783 275.71 Q641.628 271.752 641.628 264.163 M645.61 263.578 Q645.61 270.815 646.125 273.696 Q646.711 276.811 648.304 278.17 Q649.92 279.505 651.7 279.505 Q653.621 279.505 655.213 278.076 Q656.829 276.624 657.321 273.509 Q657.86 270.44 657.837 263.578 Q657.837 256.902 657.368 254.232 Q656.736 251.117 655.049 249.875 Q653.386 248.611 651.7 248.611 Q651.068 248.611 650.388 248.798 Q649.732 248.985 648.772 249.524 Q647.812 250.063 647.062 251.398 Q646.336 252.733 645.985 254.747 Q645.61 257.347 645.61 263.578 Z" fill="#000000" fill-rule="nonzero" fill-opacity="1" /><path clip-path="url(#clip030)" d="M665.378 248.236 L665.378 246.737 Q670.555 246.877 671.468 246.877 Q676.598 246.877 678.331 246.737 L678.331 248.236 Q674.396 248.236 674.396 249.618 Q674.396 249.805 674.677 250.484 L683.835 274.703 L692.619 251.585 Q692.853 250.859 692.853 250.625 Q692.853 249.665 691.963 248.985 Q691.096 248.283 689.363 248.236 L689.363 246.737 Q693.11 246.877 694.82 246.877 Q697.256 246.877 699.481 246.737 L699.481 248.236 Q695.453 248.283 694.258 251.445 L683.554 279.645 Q683.367 280.231 683.179 280.395 Q682.992 280.559 682.406 280.559 Q681.938 280.559 681.68 280.371 Q681.446 280.184 681.212 279.505 L670.086 250.063 Q669.618 248.775 668.775 248.517 Q667.931 248.236 665.378 248.236 Z" fill="#000000" fill-rule="nonzero" fill-opacity="1" /></svg>
