<?xml version="1.0" encoding="utf-8"?>
<svg xmlns="http://www.w3.org/2000/svg" xmlns:xlink="http://www.w3.org/1999/xlink" width="600" height="400" viewBox="0 0 2400 1600">
<defs>
  <clipPath id="clip760">
    <rect x="0" y="0" width="2400" height="1600"/>
  </clipPath>
</defs>
<path clip-path="url(#clip760)" d="M0 1600 L2400 1600 L2400 0 L0 0  Z" fill="#ffffff" fill-rule="evenodd" fill-opacity="1"/>
<defs>
  <clipPath id="clip761">
    <rect x="480" y="0" width="1681" height="1600"/>
  </clipPath>
</defs>
<path clip-path="url(#clip760)" d="M175.445 1423.18 L2352.76 1423.18 L2352.76 123.472 L175.445 123.472  Z" fill="#ffffff" fill-rule="evenodd" fill-opacity="1"/>
<defs>
  <clipPath id="clip762">
    <rect x="175" y="123" width="2178" height="1301"/>
  </clipPath>
</defs>
<polyline clip-path="url(#clip762)" style="stroke:#000000; stroke-linecap:round; stroke-linejoin:round; stroke-width:12; stroke-opacity:0.1; fill:none" points="237.067,1423.18 237.067,123.472 "/>
<polyline clip-path="url(#clip762)" style="stroke:#000000; stroke-linecap:round; stroke-linejoin:round; stroke-width:12; stroke-opacity:0.1; fill:none" points="921.756,1423.18 921.756,123.472 "/>
<polyline clip-path="url(#clip762)" style="stroke:#000000; stroke-linecap:round; stroke-linejoin:round; stroke-width:12; stroke-opacity:0.1; fill:none" points="1606.45,1423.18 1606.45,123.472 "/>
<polyline clip-path="url(#clip762)" style="stroke:#000000; stroke-linecap:round; stroke-linejoin:round; stroke-width:12; stroke-opacity:0.1; fill:none" points="2291.13,1423.18 2291.13,123.472 "/>
<polyline clip-path="url(#clip762)" style="stroke:#000000; stroke-linecap:round; stroke-linejoin:round; stroke-width:12; stroke-opacity:0.1; fill:none" points="175.445,1368.42 2352.76,1368.42 "/>
<polyline clip-path="url(#clip762)" style="stroke:#000000; stroke-linecap:round; stroke-linejoin:round; stroke-width:12; stroke-opacity:0.1; fill:none" points="175.445,1188.63 2352.76,1188.63 "/>
<polyline clip-path="url(#clip762)" style="stroke:#000000; stroke-linecap:round; stroke-linejoin:round; stroke-width:12; stroke-opacity:0.1; fill:none" points="175.445,1008.85 2352.76,1008.85 "/>
<polyline clip-path="url(#clip762)" style="stroke:#000000; stroke-linecap:round; stroke-linejoin:round; stroke-width:12; stroke-opacity:0.1; fill:none" points="175.445,829.06 2352.76,829.06 "/>
<polyline clip-path="url(#clip762)" style="stroke:#000000; stroke-linecap:round; stroke-linejoin:round; stroke-width:12; stroke-opacity:0.1; fill:none" points="175.445,649.274 2352.76,649.274 "/>
<polyline clip-path="url(#clip762)" style="stroke:#000000; stroke-linecap:round; stroke-linejoin:round; stroke-width:12; stroke-opacity:0.1; fill:none" points="175.445,469.488 2352.76,469.488 "/>
<polyline clip-path="url(#clip762)" style="stroke:#000000; stroke-linecap:round; stroke-linejoin:round; stroke-width:12; stroke-opacity:0.1; fill:none" points="175.445,289.702 2352.76,289.702 "/>
<polyline clip-path="url(#clip760)" style="stroke:#000000; stroke-linecap:round; stroke-linejoin:round; stroke-width:4; stroke-opacity:1; fill:none" points="175.445,1423.18 2352.76,1423.18 "/>
<polyline clip-path="url(#clip760)" style="stroke:#000000; stroke-linecap:round; stroke-linejoin:round; stroke-width:4; stroke-opacity:1; fill:none" points="237.067,1423.18 237.067,1404.28 "/>
<polyline clip-path="url(#clip760)" style="stroke:#000000; stroke-linecap:round; stroke-linejoin:round; stroke-width:4; stroke-opacity:1; fill:none" points="921.756,1423.18 921.756,1404.28 "/>
<polyline clip-path="url(#clip760)" style="stroke:#000000; stroke-linecap:round; stroke-linejoin:round; stroke-width:4; stroke-opacity:1; fill:none" points="1606.45,1423.18 1606.45,1404.28 "/>
<polyline clip-path="url(#clip760)" style="stroke:#000000; stroke-linecap:round; stroke-linejoin:round; stroke-width:4; stroke-opacity:1; fill:none" points="2291.13,1423.18 2291.13,1404.28 "/>
<path clip-path="url(#clip760)" d="M237.067 1454.1 Q233.456 1454.1 231.627 1457.66 Q229.822 1461.2 229.822 1468.33 Q229.822 1475.44 231.627 1479.01 Q233.456 1482.55 237.067 1482.55 Q240.701 1482.55 242.507 1479.01 Q244.336 1475.44 244.336 1468.33 Q244.336 1461.2 242.507 1457.66 Q240.701 1454.1 237.067 1454.1 M237.067 1450.39 Q242.877 1450.39 245.933 1455 Q249.012 1459.58 249.012 1468.33 Q249.012 1477.06 245.933 1481.67 Q242.877 1486.25 237.067 1486.25 Q231.257 1486.25 228.178 1481.67 Q225.123 1477.06 225.123 1468.33 Q225.123 1459.58 228.178 1455 Q231.257 1450.39 237.067 1450.39 Z" fill="#000000" fill-rule="nonzero" fill-opacity="1" /><path clip-path="url(#clip760)" d="M912.034 1451.02 L930.39 1451.02 L930.39 1454.96 L916.316 1454.96 L916.316 1463.43 Q917.335 1463.08 918.353 1462.92 Q919.372 1462.73 920.39 1462.73 Q926.177 1462.73 929.557 1465.9 Q932.937 1469.08 932.937 1474.49 Q932.937 1480.07 929.464 1483.17 Q925.992 1486.25 919.673 1486.25 Q917.497 1486.25 915.228 1485.88 Q912.983 1485.51 910.576 1484.77 L910.576 1480.07 Q912.659 1481.2 914.881 1481.76 Q917.103 1482.32 919.58 1482.32 Q923.585 1482.32 925.923 1480.21 Q928.261 1478.1 928.261 1474.49 Q928.261 1470.88 925.923 1468.77 Q923.585 1466.67 919.58 1466.67 Q917.705 1466.67 915.83 1467.08 Q913.978 1467.5 912.034 1468.38 L912.034 1451.02 Z" fill="#000000" fill-rule="nonzero" fill-opacity="1" /><path clip-path="url(#clip760)" d="M1581.13 1481.64 L1588.77 1481.64 L1588.77 1455.28 L1580.46 1456.95 L1580.46 1452.69 L1588.73 1451.02 L1593.4 1451.02 L1593.4 1481.64 L1601.04 1481.64 L1601.04 1485.58 L1581.13 1485.58 L1581.13 1481.64 Z" fill="#000000" fill-rule="nonzero" fill-opacity="1" /><path clip-path="url(#clip760)" d="M1620.48 1454.1 Q1616.87 1454.1 1615.04 1457.66 Q1613.24 1461.2 1613.24 1468.33 Q1613.24 1475.44 1615.04 1479.01 Q1616.87 1482.55 1620.48 1482.55 Q1624.12 1482.55 1625.92 1479.01 Q1627.75 1475.44 1627.75 1468.33 Q1627.75 1461.2 1625.92 1457.66 Q1624.12 1454.1 1620.48 1454.1 M1620.48 1450.39 Q1626.29 1450.39 1629.35 1455 Q1632.43 1459.58 1632.43 1468.33 Q1632.43 1477.06 1629.35 1481.67 Q1626.29 1486.25 1620.48 1486.25 Q1614.67 1486.25 1611.6 1481.67 Q1608.54 1477.06 1608.54 1468.33 Q1608.54 1459.58 1611.6 1455 Q1614.67 1450.39 1620.48 1450.39 Z" fill="#000000" fill-rule="nonzero" fill-opacity="1" /><path clip-path="url(#clip760)" d="M2266.32 1481.64 L2273.96 1481.64 L2273.96 1455.28 L2265.65 1456.95 L2265.65 1452.69 L2273.91 1451.02 L2278.59 1451.02 L2278.59 1481.64 L2286.23 1481.64 L2286.23 1485.58 L2266.32 1485.58 L2266.32 1481.64 Z" fill="#000000" fill-rule="nonzero" fill-opacity="1" /><path clip-path="url(#clip760)" d="M2295.72 1451.02 L2314.07 1451.02 L2314.07 1454.96 L2300 1454.96 L2300 1463.43 Q2301.02 1463.08 2302.04 1462.92 Q2303.06 1462.73 2304.07 1462.73 Q2309.86 1462.73 2313.24 1465.9 Q2316.62 1469.08 2316.62 1474.49 Q2316.62 1480.07 2313.15 1483.17 Q2309.68 1486.25 2303.36 1486.25 Q2301.18 1486.25 2298.91 1485.88 Q2296.67 1485.51 2294.26 1484.77 L2294.26 1480.07 Q2296.34 1481.2 2298.56 1481.76 Q2300.79 1482.32 2303.26 1482.32 Q2307.27 1482.32 2309.61 1480.21 Q2311.94 1478.1 2311.94 1474.49 Q2311.94 1470.88 2309.61 1468.77 Q2307.27 1466.67 2303.26 1466.67 Q2301.39 1466.67 2299.51 1467.08 Q2297.66 1467.5 2295.72 1468.38 L2295.72 1451.02 Z" fill="#000000" fill-rule="nonzero" fill-opacity="1" /><path clip-path="url(#clip760)" d="M1196.73 1509.88 Q1196.66 1511.08 1195.86 1511.14 Q1194.63 1511.21 1193.89 1511.37 Q1193.15 1511.49 1191.99 1511.98 Q1190.83 1512.46 1189.7 1513.62 Q1188.58 1514.78 1187.42 1516.62 L1163.68 1554.39 Q1163.26 1555.1 1162.91 1555.33 Q1162.59 1555.58 1161.85 1555.58 Q1161.17 1555.58 1160.91 1555.29 Q1160.65 1555.04 1160.53 1554.07 L1155.31 1513.36 Q1155.21 1512.62 1155.12 1512.3 Q1155.02 1511.98 1154.63 1511.66 Q1154.28 1511.33 1153.5 1511.24 Q1152.73 1511.14 1151.35 1511.14 Q1150.7 1511.14 1150.41 1511.11 Q1150.16 1511.08 1149.93 1510.92 Q1149.7 1510.72 1149.7 1510.34 Q1149.7 1509.76 1149.93 1509.47 Q1150.19 1509.14 1150.38 1509.11 Q1150.61 1509.08 1150.96 1509.08 Q1151.51 1509.08 1152.7 1509.14 Q1153.89 1509.21 1154.5 1509.21 Q1155.08 1509.21 1156.31 1509.24 Q1157.53 1509.27 1158.14 1509.27 Q1159.5 1509.27 1162.23 1509.18 Q1165 1509.08 1166.32 1509.08 Q1167.22 1509.08 1167.22 1509.82 Q1167.22 1510.72 1166.84 1510.95 Q1166.45 1511.14 1165.58 1511.14 Q1163.39 1511.14 1162.2 1511.69 Q1161.04 1512.24 1161.04 1513.11 L1165.52 1548.02 L1185.78 1515.81 Q1186.77 1514.3 1186.77 1513.3 Q1186.77 1511.37 1183.71 1511.14 Q1182.68 1511.14 1182.68 1510.34 Q1182.68 1509.76 1182.94 1509.47 Q1183.2 1509.14 1183.39 1509.11 Q1183.62 1509.08 1183.94 1509.08 Q1185 1509.08 1187.16 1509.18 Q1189.35 1509.27 1190.44 1509.27 Q1191.35 1509.27 1193.18 1509.18 Q1195.02 1509.08 1195.86 1509.08 Q1196.73 1509.08 1196.73 1509.88 Z" fill="#000000" fill-rule="nonzero" fill-opacity="1" /><path clip-path="url(#clip760)" d="M1203.31 1573.93 L1203.31 1572.51 Q1205.76 1572.51 1206.33 1572.21 Q1206.89 1571.9 1206.89 1570.41 L1206.89 1557.99 Q1206.89 1556.28 1206.31 1555.87 Q1205.74 1555.46 1203.49 1555.46 L1203.49 1554.02 L1209.93 1553.53 L1209.93 1570.46 Q1209.93 1571.83 1210.43 1572.17 Q1210.93 1572.51 1213.18 1572.51 L1213.18 1573.93 Q1208.47 1573.79 1208.38 1573.79 Q1207.75 1573.79 1203.31 1573.93 M1205.25 1545.48 Q1205.25 1544.55 1205.94 1543.81 Q1206.67 1543.04 1207.68 1543.04 Q1208.7 1543.04 1209.42 1543.74 Q1210.14 1544.42 1210.14 1545.5 Q1210.14 1546.56 1209.42 1547.26 Q1208.7 1547.93 1207.68 1547.93 Q1206.62 1547.93 1205.92 1547.19 Q1205.25 1546.45 1205.25 1545.48 Z" fill="#000000" fill-rule="nonzero" fill-opacity="1" /><path clip-path="url(#clip760)" d="M1216.34 1573.93 L1216.34 1572.51 Q1218.79 1572.51 1219.36 1572.21 Q1219.92 1571.9 1219.92 1570.41 L1219.92 1558.03 Q1219.92 1556.32 1219.31 1555.89 Q1218.73 1555.46 1216.34 1555.46 L1216.34 1554.02 L1222.83 1553.53 L1222.83 1558.37 Q1224.99 1553.53 1229.66 1553.53 Q1233.13 1553.53 1234.51 1555.24 Q1235.52 1556.39 1235.73 1557.67 Q1235.95 1558.96 1235.95 1562.3 L1235.95 1571.11 Q1236 1572.08 1236.74 1572.31 Q1237.48 1572.51 1239.56 1572.51 L1239.56 1573.93 Q1234.85 1573.79 1234.37 1573.79 Q1234.01 1573.79 1229.16 1573.93 L1229.16 1572.51 Q1231.62 1572.51 1232.19 1572.21 Q1232.77 1571.9 1232.77 1570.41 L1232.77 1559.66 Q1232.77 1557.31 1232.05 1555.94 Q1231.33 1554.54 1229.35 1554.54 Q1226.96 1554.54 1225.04 1556.55 Q1223.12 1558.55 1223.12 1561.93 L1223.12 1570.41 Q1223.12 1571.9 1223.69 1572.21 Q1224.27 1572.51 1226.71 1572.51 L1226.71 1573.93 Q1222 1573.79 1221.54 1573.79 Q1221.18 1573.79 1216.34 1573.93 Z" fill="#000000" fill-rule="nonzero" fill-opacity="1" /><path clip-path="url(#clip760)" d="M1266.17 1537.65 Q1266.17 1526.5 1270.33 1517.52 Q1272.1 1513.75 1274.58 1510.59 Q1277.06 1507.44 1278.7 1506.05 Q1280.34 1504.67 1280.8 1504.67 Q1281.44 1504.67 1281.47 1505.31 Q1281.47 1505.63 1280.6 1506.44 Q1269.97 1517.26 1270.01 1537.65 Q1270.01 1558.1 1280.34 1568.5 Q1281.47 1569.63 1281.47 1569.98 Q1281.47 1570.62 1280.8 1570.62 Q1280.34 1570.62 1278.77 1569.3 Q1277.19 1567.98 1274.74 1564.96 Q1272.29 1561.93 1270.52 1558.23 Q1266.17 1549.24 1266.17 1537.65 Z" fill="#000000" fill-rule="nonzero" fill-opacity="1" /><path clip-path="url(#clip760)" d="M1288.86 1511.14 L1288.86 1509.08 Q1295.98 1509.27 1297.23 1509.27 Q1304.29 1509.27 1306.67 1509.08 L1306.67 1511.14 Q1301.26 1511.14 1301.26 1513.04 Q1301.26 1513.3 1301.65 1514.23 L1314.24 1547.53 L1326.32 1515.75 Q1326.64 1514.75 1326.64 1514.43 Q1326.64 1513.11 1325.41 1512.17 Q1324.22 1511.21 1321.84 1511.14 L1321.84 1509.08 Q1326.99 1509.27 1329.34 1509.27 Q1332.69 1509.27 1335.75 1509.08 L1335.75 1511.14 Q1330.21 1511.21 1328.57 1515.55 L1313.85 1554.33 Q1313.6 1555.13 1313.34 1555.36 Q1313.08 1555.58 1312.27 1555.58 Q1311.63 1555.58 1311.28 1555.33 Q1310.95 1555.07 1310.63 1554.14 L1295.33 1513.65 Q1294.69 1511.88 1293.53 1511.53 Q1292.37 1511.14 1288.86 1511.14 Z" fill="#000000" fill-rule="nonzero" fill-opacity="1" /><path clip-path="url(#clip760)" d="M1353.17 1569.98 Q1353.17 1569.66 1354.01 1568.85 Q1364.63 1558.03 1364.63 1537.65 Q1364.63 1517.2 1354.43 1506.86 Q1353.17 1505.67 1353.17 1505.31 Q1353.17 1504.67 1353.81 1504.67 Q1354.26 1504.67 1355.84 1505.99 Q1357.45 1507.31 1359.87 1510.34 Q1362.32 1513.36 1364.12 1517.07 Q1368.47 1526.05 1368.47 1537.65 Q1368.47 1548.79 1364.31 1557.77 Q1362.54 1561.54 1360.06 1564.7 Q1357.58 1567.86 1355.94 1569.24 Q1354.3 1570.62 1353.81 1570.62 Q1353.17 1570.62 1353.17 1569.98 Z" fill="#000000" fill-rule="nonzero" fill-opacity="1" /><polyline clip-path="url(#clip760)" style="stroke:#000000; stroke-linecap:round; stroke-linejoin:round; stroke-width:4; stroke-opacity:1; fill:none" points="175.445,1423.18 175.445,123.472 "/>
<polyline clip-path="url(#clip760)" style="stroke:#000000; stroke-linecap:round; stroke-linejoin:round; stroke-width:4; stroke-opacity:1; fill:none" points="175.445,1368.42 194.343,1368.42 "/>
<polyline clip-path="url(#clip760)" style="stroke:#000000; stroke-linecap:round; stroke-linejoin:round; stroke-width:4; stroke-opacity:1; fill:none" points="175.445,1188.63 194.343,1188.63 "/>
<polyline clip-path="url(#clip760)" style="stroke:#000000; stroke-linecap:round; stroke-linejoin:round; stroke-width:4; stroke-opacity:1; fill:none" points="175.445,1008.85 194.343,1008.85 "/>
<polyline clip-path="url(#clip760)" style="stroke:#000000; stroke-linecap:round; stroke-linejoin:round; stroke-width:4; stroke-opacity:1; fill:none" points="175.445,829.06 194.343,829.06 "/>
<polyline clip-path="url(#clip760)" style="stroke:#000000; stroke-linecap:round; stroke-linejoin:round; stroke-width:4; stroke-opacity:1; fill:none" points="175.445,649.274 194.343,649.274 "/>
<polyline clip-path="url(#clip760)" style="stroke:#000000; stroke-linecap:round; stroke-linejoin:round; stroke-width:4; stroke-opacity:1; fill:none" points="175.445,469.488 194.343,469.488 "/>
<polyline clip-path="url(#clip760)" style="stroke:#000000; stroke-linecap:round; stroke-linejoin:round; stroke-width:4; stroke-opacity:1; fill:none" points="175.445,289.702 194.343,289.702 "/>
<path clip-path="url(#clip760)" d="M127.501 1354.22 Q123.89 1354.22 122.061 1357.78 Q120.255 1361.32 120.255 1368.45 Q120.255 1375.56 122.061 1379.12 Q123.89 1382.66 127.501 1382.66 Q131.135 1382.66 132.941 1379.12 Q134.769 1375.56 134.769 1368.45 Q134.769 1361.32 132.941 1357.78 Q131.135 1354.22 127.501 1354.22 M127.501 1350.51 Q133.311 1350.51 136.367 1355.12 Q139.445 1359.7 139.445 1368.45 Q139.445 1377.18 136.367 1381.79 Q133.311 1386.37 127.501 1386.37 Q121.691 1386.37 118.612 1381.79 Q115.556 1377.18 115.556 1368.45 Q115.556 1359.7 118.612 1355.12 Q121.691 1350.51 127.501 1350.51 Z" fill="#000000" fill-rule="nonzero" fill-opacity="1" /><path clip-path="url(#clip760)" d="M119.538 1201.98 L127.177 1201.98 L127.177 1175.61 L118.867 1177.28 L118.867 1173.02 L127.13 1171.35 L131.806 1171.35 L131.806 1201.98 L139.445 1201.98 L139.445 1205.91 L119.538 1205.91 L119.538 1201.98 Z" fill="#000000" fill-rule="nonzero" fill-opacity="1" /><path clip-path="url(#clip760)" d="M123.126 1022.19 L139.445 1022.19 L139.445 1026.13 L117.501 1026.13 L117.501 1022.19 Q120.163 1019.44 124.746 1014.81 Q129.353 1010.15 130.533 1008.81 Q132.779 1006.29 133.658 1004.55 Q134.561 1002.79 134.561 1001.1 Q134.561 998.348 132.617 996.612 Q130.695 994.876 127.593 994.876 Q125.394 994.876 122.941 995.639 Q120.51 996.403 117.732 997.954 L117.732 993.232 Q120.556 992.098 123.01 991.519 Q125.464 990.94 127.501 990.94 Q132.871 990.94 136.066 993.626 Q139.26 996.311 139.26 1000.8 Q139.26 1002.93 138.45 1004.85 Q137.663 1006.75 135.556 1009.34 Q134.978 1010.01 131.876 1013.23 Q128.774 1016.43 123.126 1022.19 Z" fill="#000000" fill-rule="nonzero" fill-opacity="1" /><path clip-path="url(#clip760)" d="M132.316 827.705 Q135.672 828.423 137.547 830.692 Q139.445 832.96 139.445 836.293 Q139.445 841.409 135.927 844.21 Q132.408 847.011 125.927 847.011 Q123.751 847.011 121.436 846.571 Q119.144 846.154 116.691 845.298 L116.691 840.784 Q118.635 841.918 120.95 842.497 Q123.265 843.076 125.788 843.076 Q130.186 843.076 132.478 841.34 Q134.792 839.604 134.792 836.293 Q134.792 833.238 132.64 831.525 Q130.51 829.789 126.691 829.789 L122.663 829.789 L122.663 825.946 L126.876 825.946 Q130.325 825.946 132.154 824.58 Q133.982 823.192 133.982 820.599 Q133.982 817.937 132.084 816.525 Q130.209 815.09 126.691 815.09 Q124.769 815.09 122.57 815.506 Q120.371 815.923 117.732 816.803 L117.732 812.636 Q120.394 811.895 122.709 811.525 Q125.047 811.155 127.107 811.155 Q132.431 811.155 135.533 813.585 Q138.635 815.993 138.635 820.113 Q138.635 822.983 136.992 824.974 Q135.348 826.942 132.316 827.705 Z" fill="#000000" fill-rule="nonzero" fill-opacity="1" /><path clip-path="url(#clip760)" d="M129.862 636.068 L118.056 654.517 L129.862 654.517 L129.862 636.068 M128.635 631.994 L134.515 631.994 L134.515 654.517 L139.445 654.517 L139.445 658.406 L134.515 658.406 L134.515 666.554 L129.862 666.554 L129.862 658.406 L114.26 658.406 L114.26 653.892 L128.635 631.994 Z" fill="#000000" fill-rule="nonzero" fill-opacity="1" /><path clip-path="url(#clip760)" d="M118.543 452.208 L136.899 452.208 L136.899 456.143 L122.825 456.143 L122.825 464.615 Q123.843 464.268 124.862 464.106 Q125.88 463.921 126.899 463.921 Q132.686 463.921 136.066 467.092 Q139.445 470.263 139.445 475.68 Q139.445 481.259 135.973 484.361 Q132.501 487.439 126.181 487.439 Q124.005 487.439 121.737 487.069 Q119.492 486.698 117.084 485.958 L117.084 481.259 Q119.168 482.393 121.39 482.949 Q123.612 483.504 126.089 483.504 Q130.093 483.504 132.431 481.398 Q134.769 479.291 134.769 475.68 Q134.769 472.069 132.431 469.962 Q130.093 467.856 126.089 467.856 Q124.214 467.856 122.339 468.273 Q120.487 468.689 118.543 469.569 L118.543 452.208 Z" fill="#000000" fill-rule="nonzero" fill-opacity="1" /><path clip-path="url(#clip760)" d="M127.917 287.839 Q124.769 287.839 122.918 289.991 Q121.089 292.144 121.089 295.894 Q121.089 299.621 122.918 301.797 Q124.769 303.95 127.917 303.95 Q131.066 303.95 132.894 301.797 Q134.746 299.621 134.746 295.894 Q134.746 292.144 132.894 289.991 Q131.066 287.839 127.917 287.839 M137.2 273.186 L137.2 277.445 Q135.441 276.612 133.635 276.172 Q131.853 275.732 130.093 275.732 Q125.464 275.732 123.01 278.857 Q120.58 281.982 120.232 288.302 Q121.598 286.288 123.658 285.223 Q125.718 284.135 128.195 284.135 Q133.404 284.135 136.413 287.306 Q139.445 290.454 139.445 295.894 Q139.445 301.218 136.297 304.436 Q133.149 307.653 127.917 307.653 Q121.922 307.653 118.751 303.07 Q115.58 298.464 115.58 289.737 Q115.58 281.542 119.468 276.681 Q123.357 271.797 129.908 271.797 Q131.667 271.797 133.45 272.144 Q135.255 272.492 137.2 273.186 Z" fill="#000000" fill-rule="nonzero" fill-opacity="1" /><path clip-path="url(#clip760)" d="M20.5821 853.744 Q21.7738 853.809 21.8382 854.614 Q21.9026 855.838 22.0636 856.578 Q22.1924 857.319 22.6755 858.478 Q23.1586 859.638 24.318 860.765 Q25.4774 861.892 27.3132 863.052 L65.0906 886.787 Q65.7992 887.206 66.0246 887.56 Q66.2823 887.882 66.2823 888.623 Q66.2823 889.3 65.9924 889.557 Q65.7348 889.815 64.7686 889.944 L24.0604 895.161 Q23.3196 895.258 22.9976 895.354 Q22.6755 895.451 22.3535 895.837 Q22.0314 896.192 21.9348 896.964 Q21.8382 897.737 21.8382 899.122 Q21.8382 899.766 21.806 900.056 Q21.7738 900.314 21.6127 900.539 Q21.4195 900.765 21.033 900.765 Q20.4533 900.765 20.1635 900.539 Q19.8414 900.282 19.8092 900.088 Q19.777 899.863 19.777 899.509 Q19.777 898.961 19.8414 897.77 Q19.9058 896.578 19.9058 895.966 Q19.9058 895.386 19.938 894.163 Q19.9702 892.939 19.9702 892.327 Q19.9702 890.974 19.8736 888.237 Q19.777 885.467 19.777 884.147 Q19.777 883.245 20.5177 883.245 Q21.4195 883.245 21.6449 883.631 Q21.8382 884.018 21.8382 884.887 Q21.8382 887.077 22.3857 888.269 Q22.9332 889.428 23.8027 889.428 L58.7139 884.952 L26.508 864.694 Q24.9944 863.696 23.996 863.696 Q22.0636 863.696 21.8382 866.755 Q21.8382 867.786 21.033 867.786 Q20.4533 867.786 20.1635 867.528 Q19.8414 867.271 19.8092 867.077 Q19.777 866.852 19.777 866.53 Q19.777 865.467 19.8736 863.309 Q19.9702 861.119 19.9702 860.024 Q19.9702 859.123 19.8736 857.287 Q19.777 855.451 19.777 854.614 Q19.777 853.744 20.5821 853.744 Z" fill="#000000" fill-rule="nonzero" fill-opacity="1" /><path clip-path="url(#clip760)" d="M80.6694 844.119 Q77.6485 847.162 73.2749 847.162 Q68.8788 847.162 65.6776 844.186 Q62.4538 841.188 62.4538 836.905 Q62.4538 832.712 65.655 829.713 Q68.8337 826.692 73.2749 826.692 Q77.6259 826.692 80.6469 829.736 Q83.6678 832.757 83.6678 836.95 Q83.6678 841.053 80.6694 844.119 M72.8917 843.33 Q77.378 843.33 79.4069 842.157 Q82.4955 840.354 82.4955 836.905 Q82.4955 835.191 81.5712 833.771 Q80.6469 832.328 79.0913 831.539 Q77.0623 830.525 72.8917 830.525 Q68.4505 830.525 66.4892 831.742 Q63.4908 833.546 63.4908 836.95 Q63.4908 838.438 64.2798 839.903 Q65.0463 841.346 66.5793 842.225 Q68.6083 843.33 72.8917 843.33 Z" fill="#000000" fill-rule="nonzero" fill-opacity="1" /><path clip-path="url(#clip760)" d="M64.6856 825.221 L63.2428 825.221 L62.7468 818.436 L78.0768 818.436 Q79.1815 818.436 79.8353 818.345 Q80.4665 818.255 81.2105 817.895 Q81.9544 817.511 82.2926 816.655 Q82.6307 815.775 82.6307 814.378 Q82.6307 811.875 80.5792 810.342 Q78.5277 808.787 75.4843 808.787 L67.2557 808.787 Q65.5423 808.787 65.114 809.395 Q64.6856 810.004 64.6856 812.394 L63.2428 812.394 L62.7468 805.608 L79.1364 805.608 Q80.8498 805.608 81.3006 805.022 Q81.729 804.413 81.729 802.001 L83.1493 802.001 L83.6678 808.652 L79.4971 808.652 Q83.6452 810.59 83.6678 814.603 Q83.6678 816.632 83.1493 818.03 Q82.6307 819.405 81.9995 820.104 Q81.3457 820.803 80.1058 821.186 Q78.8659 821.547 78.0994 821.592 Q77.3329 821.637 75.845 821.637 L68.9239 821.637 Q65.7903 821.637 65.2492 822.088 Q64.6856 822.539 64.6856 825.221 Z" fill="#000000" fill-rule="nonzero" fill-opacity="1" /><path clip-path="url(#clip760)" d="M64.6856 800.41 L63.6711 800.41 Q63.581 798.291 62.0931 796.893 Q60.5826 795.473 58.734 795 Q56.8854 794.504 54.7437 794.459 L54.7437 793.309 L63.2428 793.309 L63.2428 786.703 L64.6856 786.703 L64.6856 793.309 L77.5132 793.309 Q82.4955 793.309 82.4955 790.198 Q82.4955 788.868 81.1428 787.988 Q79.7676 787.109 77.3329 787.109 L74.7854 787.109 L74.7854 785.959 L77.423 785.959 Q79.9254 785.959 81.7966 787.109 Q83.6678 788.259 83.6678 790.536 Q83.6678 791.37 83.4423 792.204 Q83.2394 793.016 82.6984 794.098 Q82.1348 795.157 80.7821 795.834 Q79.4069 796.487 77.423 796.487 L64.6856 796.487 L64.6856 800.41 Z" fill="#000000" fill-rule="nonzero" fill-opacity="1" /><path clip-path="url(#clip760)" d="M48.3436 758.21 Q37.2004 758.21 28.2149 754.056 Q24.4469 752.284 21.2907 749.804 Q18.1345 747.325 16.7497 745.682 Q15.3648 744.04 15.3648 743.589 Q15.3648 742.945 16.0089 742.912 Q16.331 742.912 17.1361 743.782 Q27.9573 754.41 48.3436 754.378 Q68.7943 754.378 79.1968 744.04 Q80.324 742.912 80.6783 742.912 Q81.3224 742.912 81.3224 743.589 Q81.3224 744.04 80.002 745.618 Q78.6815 747.196 75.6542 749.643 Q72.6268 752.091 68.9231 753.862 Q59.9377 758.21 48.3436 758.21 Z" fill="#000000" fill-rule="nonzero" fill-opacity="1" /><path clip-path="url(#clip760)" d="M21.8382 735.523 L19.777 735.523 Q19.9702 728.405 19.9702 727.149 Q19.9702 720.096 19.777 717.713 L21.8382 717.713 Q21.8382 723.123 23.7383 723.123 Q23.996 723.123 24.9299 722.737 L58.2308 710.144 L26.4436 698.067 Q25.4452 697.745 25.1232 697.745 Q23.8027 697.745 22.8688 698.969 Q21.9026 700.161 21.8382 702.544 L19.777 702.544 Q19.9702 697.391 19.9702 695.04 Q19.9702 691.691 19.777 688.631 L21.8382 688.631 Q21.9026 694.17 26.2504 695.813 L65.0262 710.531 Q65.8314 710.789 66.0568 711.046 Q66.2823 711.304 66.2823 712.109 Q66.2823 712.753 66.0246 713.107 Q65.767 713.429 64.833 713.752 L24.3502 729.049 Q22.5789 729.693 22.2246 730.853 Q21.8382 732.012 21.8382 735.523 Z" fill="#000000" fill-rule="nonzero" fill-opacity="1" /><path clip-path="url(#clip760)" d="M80.6783 671.215 Q80.3562 671.215 79.5511 670.377 Q68.7299 659.749 48.3436 659.749 Q27.8929 659.749 17.5548 669.959 Q16.3632 671.215 16.0089 671.215 Q15.3648 671.215 15.3648 670.57 Q15.3648 670.12 16.6852 668.541 Q18.0057 666.931 21.033 664.516 Q24.0604 662.068 27.7641 660.265 Q36.7495 655.917 48.3436 655.917 Q59.4868 655.917 68.4723 660.071 Q72.2403 661.843 75.3965 664.323 Q78.5527 666.802 79.9376 668.445 Q81.3224 670.087 81.3224 670.57 Q81.3224 671.215 80.6783 671.215 Z" fill="#000000" fill-rule="nonzero" fill-opacity="1" /><path clip-path="url(#clip760)" d="M671.089 12.096 L679.272 12.096 L679.272 72.576 L671.089 72.576 L671.089 12.096 Z" fill="#000000" fill-rule="nonzero" fill-opacity="1" /><path clip-path="url(#clip760)" d="M732.946 45.1919 L732.946 72.576 L725.492 72.576 L725.492 45.4349 Q725.492 38.994 722.981 35.7938 Q720.469 32.5936 715.446 32.5936 Q709.41 32.5936 705.926 36.4419 Q702.443 40.2903 702.443 46.9338 L702.443 72.576 L694.949 72.576 L694.949 27.2059 L702.443 27.2059 L702.443 34.2544 Q705.116 30.163 708.722 28.1376 Q712.367 26.1121 717.107 26.1121 Q724.925 26.1121 728.936 30.9732 Q732.946 35.7938 732.946 45.1919 Z" fill="#000000" fill-rule="nonzero" fill-opacity="1" /><path clip-path="url(#clip760)" d="M755.023 65.7705 L755.023 89.8329 L747.529 89.8329 L747.529 27.2059 L755.023 27.2059 L755.023 34.0924 Q757.373 30.0415 760.938 28.0971 Q764.543 26.1121 769.526 26.1121 Q777.79 26.1121 782.934 32.6746 Q788.119 39.2371 788.119 49.9314 Q788.119 60.6258 782.934 67.1883 Q777.79 73.7508 769.526 73.7508 Q764.543 73.7508 760.938 71.8063 Q757.373 69.8214 755.023 65.7705 M780.382 49.9314 Q780.382 41.7081 776.979 37.0496 Q773.617 32.3505 767.703 32.3505 Q761.788 32.3505 758.386 37.0496 Q755.023 41.7081 755.023 49.9314 Q755.023 58.1548 758.386 62.8538 Q761.788 67.5124 767.703 67.5124 Q773.617 67.5124 776.979 62.8538 Q780.382 58.1548 780.382 49.9314 Z" fill="#000000" fill-rule="nonzero" fill-opacity="1" /><path clip-path="url(#clip760)" d="M799.705 54.671 L799.705 27.2059 L807.159 27.2059 L807.159 54.3874 Q807.159 60.8284 809.67 64.0691 Q812.182 67.2693 817.205 67.2693 Q823.241 67.2693 826.724 63.421 Q830.249 59.5726 830.249 52.9291 L830.249 27.2059 L837.702 27.2059 L837.702 72.576 L830.249 72.576 L830.249 65.6084 Q827.535 69.7404 823.929 71.7658 Q820.365 73.7508 815.625 73.7508 Q807.807 73.7508 803.756 68.8897 Q799.705 64.0286 799.705 54.671 M818.461 26.1121 L818.461 26.1121 Z" fill="#000000" fill-rule="nonzero" fill-opacity="1" /><path clip-path="url(#clip760)" d="M860.428 14.324 L860.428 27.2059 L875.781 27.2059 L875.781 32.9987 L860.428 32.9987 L860.428 57.6282 Q860.428 63.1779 861.927 64.7578 Q863.466 66.3376 868.125 66.3376 L875.781 66.3376 L875.781 72.576 L868.125 72.576 Q859.496 72.576 856.215 69.3758 Q852.934 66.1351 852.934 57.6282 L852.934 32.9987 L847.465 32.9987 L847.465 27.2059 L852.934 27.2059 L852.934 14.324 L860.428 14.324 Z" fill="#000000" fill-rule="nonzero" fill-opacity="1" /><path clip-path="url(#clip760)" d="M906.608 27.2059 L914.508 27.2059 L928.686 65.2844 L942.864 27.2059 L950.763 27.2059 L933.749 72.576 L923.622 72.576 L906.608 27.2059 Z" fill="#000000" fill-rule="nonzero" fill-opacity="1" /><path clip-path="url(#clip760)" d="M989.976 28.5427 L989.976 35.5912 Q986.816 33.9709 983.413 33.1607 Q980.011 32.3505 976.365 32.3505 Q970.815 32.3505 968.02 34.0519 Q965.265 35.7533 965.265 39.156 Q965.265 41.7486 967.25 43.2475 Q969.235 44.7058 975.231 46.0426 L977.783 46.6097 Q985.722 48.3111 989.044 51.4303 Q992.406 54.509 992.406 60.0587 Q992.406 66.3781 987.383 70.0644 Q982.401 73.7508 973.651 73.7508 Q970.005 73.7508 966.035 73.0216 Q962.106 72.3329 957.731 70.9151 L957.731 63.2184 Q961.863 65.3654 965.873 66.4591 Q969.883 67.5124 973.813 67.5124 Q979.079 67.5124 981.915 65.73 Q984.75 63.9071 984.75 60.6258 Q984.75 57.5877 982.684 55.9673 Q980.659 54.3469 973.732 52.8481 L971.139 52.2405 Q964.212 50.7821 961.133 47.7845 Q958.055 44.7463 958.055 39.4801 Q958.055 33.0797 962.592 29.5959 Q967.129 26.1121 975.474 26.1121 Q979.606 26.1121 983.251 26.7198 Q986.897 27.3274 989.976 28.5427 Z" fill="#000000" fill-rule="nonzero" fill-opacity="1" /><path clip-path="url(#clip760)" d="M1005.33 62.2867 L1013.88 62.2867 L1013.88 72.576 L1005.33 72.576 L1005.33 62.2867 Z" fill="#000000" fill-rule="nonzero" fill-opacity="1" /><path clip-path="url(#clip760)" d="M1081.89 17.6457 Q1072.98 17.6457 1067.71 24.2892 Q1062.49 30.9327 1062.49 42.3968 Q1062.49 53.8203 1067.71 60.4638 Q1072.98 67.1073 1081.89 67.1073 Q1090.8 67.1073 1095.99 60.4638 Q1101.21 53.8203 1101.21 42.3968 Q1101.21 30.9327 1095.99 24.2892 Q1090.8 17.6457 1081.89 17.6457 M1081.89 11.0023 Q1094.61 11.0023 1102.23 19.5497 Q1109.84 28.0566 1109.84 42.3968 Q1109.84 56.6965 1102.23 65.2439 Q1094.61 73.7508 1081.89 73.7508 Q1069.13 73.7508 1061.47 65.2439 Q1053.86 56.737 1053.86 42.3968 Q1053.86 28.0566 1061.47 19.5497 Q1069.13 11.0023 1081.89 11.0023 Z" fill="#000000" fill-rule="nonzero" fill-opacity="1" /><path clip-path="url(#clip760)" d="M1121.55 54.671 L1121.55 27.2059 L1129 27.2059 L1129 54.3874 Q1129 60.8284 1131.51 64.0691 Q1134.03 67.2693 1139.05 67.2693 Q1145.08 67.2693 1148.57 63.421 Q1152.09 59.5726 1152.09 52.9291 L1152.09 27.2059 L1159.55 27.2059 L1159.55 72.576 L1152.09 72.576 L1152.09 65.6084 Q1149.38 69.7404 1145.77 71.7658 Q1142.21 73.7508 1137.47 73.7508 Q1129.65 73.7508 1125.6 68.8897 Q1121.55 64.0286 1121.55 54.671 M1140.3 26.1121 L1140.3 26.1121 Z" fill="#000000" fill-rule="nonzero" fill-opacity="1" /><path clip-path="url(#clip760)" d="M1182.27 14.324 L1182.27 27.2059 L1197.63 27.2059 L1197.63 32.9987 L1182.27 32.9987 L1182.27 57.6282 Q1182.27 63.1779 1183.77 64.7578 Q1185.31 66.3376 1189.97 66.3376 L1197.63 66.3376 L1197.63 72.576 L1189.97 72.576 Q1181.34 72.576 1178.06 69.3758 Q1174.78 66.1351 1174.78 57.6282 L1174.78 32.9987 L1169.31 32.9987 L1169.31 27.2059 L1174.78 27.2059 L1174.78 14.324 L1182.27 14.324 Z" fill="#000000" fill-rule="nonzero" fill-opacity="1" /><path clip-path="url(#clip760)" d="M1214.64 65.7705 L1214.64 89.8329 L1207.14 89.8329 L1207.14 27.2059 L1214.64 27.2059 L1214.64 34.0924 Q1216.99 30.0415 1220.55 28.0971 Q1224.16 26.1121 1229.14 26.1121 Q1237.41 26.1121 1242.55 32.6746 Q1247.73 39.2371 1247.73 49.9314 Q1247.73 60.6258 1242.55 67.1883 Q1237.41 73.7508 1229.14 73.7508 Q1224.16 73.7508 1220.55 71.8063 Q1216.99 69.8214 1214.64 65.7705 M1240 49.9314 Q1240 41.7081 1236.59 37.0496 Q1233.23 32.3505 1227.32 32.3505 Q1221.4 32.3505 1218 37.0496 Q1214.64 41.7081 1214.64 49.9314 Q1214.64 58.1548 1218 62.8538 Q1221.4 67.5124 1227.32 67.5124 Q1233.23 67.5124 1236.59 62.8538 Q1240 58.1548 1240 49.9314 Z" fill="#000000" fill-rule="nonzero" fill-opacity="1" /><path clip-path="url(#clip760)" d="M1259.32 54.671 L1259.32 27.2059 L1266.77 27.2059 L1266.77 54.3874 Q1266.77 60.8284 1269.29 64.0691 Q1271.8 67.2693 1276.82 67.2693 Q1282.86 67.2693 1286.34 63.421 Q1289.86 59.5726 1289.86 52.9291 L1289.86 27.2059 L1297.32 27.2059 L1297.32 72.576 L1289.86 72.576 L1289.86 65.6084 Q1287.15 69.7404 1283.54 71.7658 Q1279.98 73.7508 1275.24 73.7508 Q1267.42 73.7508 1263.37 68.8897 Q1259.32 64.0286 1259.32 54.671 M1278.08 26.1121 L1278.08 26.1121 Z" fill="#000000" fill-rule="nonzero" fill-opacity="1" /><path clip-path="url(#clip760)" d="M1320.04 14.324 L1320.04 27.2059 L1335.4 27.2059 L1335.4 32.9987 L1320.04 32.9987 L1320.04 57.6282 Q1320.04 63.1779 1321.54 64.7578 Q1323.08 66.3376 1327.74 66.3376 L1335.4 66.3376 L1335.4 72.576 L1327.74 72.576 Q1319.11 72.576 1315.83 69.3758 Q1312.55 66.1351 1312.55 57.6282 L1312.55 32.9987 L1307.08 32.9987 L1307.08 27.2059 L1312.55 27.2059 L1312.55 14.324 L1320.04 14.324 Z" fill="#000000" fill-rule="nonzero" fill-opacity="1" /><path clip-path="url(#clip760)" d="M1366.22 27.2059 L1374.12 27.2059 L1388.3 65.2844 L1402.48 27.2059 L1410.38 27.2059 L1393.36 72.576 L1383.24 72.576 L1366.22 27.2059 Z" fill="#000000" fill-rule="nonzero" fill-opacity="1" /><path clip-path="url(#clip760)" d="M1438.25 32.4315 Q1432.25 32.4315 1428.77 37.1306 Q1425.29 41.7891 1425.29 49.9314 Q1425.29 58.0738 1428.73 62.7728 Q1432.21 67.4314 1438.25 67.4314 Q1444.2 67.4314 1447.69 62.7323 Q1451.17 58.0333 1451.17 49.9314 Q1451.17 41.8701 1447.69 37.1711 Q1444.2 32.4315 1438.25 32.4315 M1438.25 26.1121 Q1447.97 26.1121 1453.52 32.4315 Q1459.07 38.7509 1459.07 49.9314 Q1459.07 61.0714 1453.52 67.4314 Q1447.97 73.7508 1438.25 73.7508 Q1428.49 73.7508 1422.94 67.4314 Q1417.43 61.0714 1417.43 49.9314 Q1417.43 38.7509 1422.94 32.4315 Q1428.49 26.1121 1438.25 26.1121 Z" fill="#000000" fill-rule="nonzero" fill-opacity="1" /><path clip-path="url(#clip760)" d="M1471.43 9.54393 L1478.88 9.54393 L1478.88 72.576 L1471.43 72.576 L1471.43 9.54393 Z" fill="#000000" fill-rule="nonzero" fill-opacity="1" /><path clip-path="url(#clip760)" d="M1501.85 14.324 L1501.85 27.2059 L1517.2 27.2059 L1517.2 32.9987 L1501.85 32.9987 L1501.85 57.6282 Q1501.85 63.1779 1503.35 64.7578 Q1504.89 66.3376 1509.54 66.3376 L1517.2 66.3376 L1517.2 72.576 L1509.54 72.576 Q1500.92 72.576 1497.64 69.3758 Q1494.35 66.1351 1494.35 57.6282 L1494.35 32.9987 L1488.89 32.9987 L1488.89 27.2059 L1494.35 27.2059 L1494.35 14.324 L1501.85 14.324 Z" fill="#000000" fill-rule="nonzero" fill-opacity="1" /><path clip-path="url(#clip760)" d="M1547.62 49.7694 Q1538.59 49.7694 1535.11 51.8354 Q1531.62 53.9013 1531.62 58.8839 Q1531.62 62.8538 1534.21 65.2034 Q1536.85 67.5124 1541.34 67.5124 Q1547.54 67.5124 1551.27 63.1374 Q1555.04 58.7219 1555.04 51.4303 L1555.04 49.7694 L1547.62 49.7694 M1562.49 46.6907 L1562.49 72.576 L1555.04 72.576 L1555.04 65.6895 Q1552.48 69.8214 1548.68 71.8063 Q1544.87 73.7508 1539.36 73.7508 Q1532.39 73.7508 1528.26 69.8619 Q1524.17 65.9325 1524.17 59.3701 Q1524.17 51.7138 1529.27 47.825 Q1534.42 43.9361 1544.59 43.9361 L1555.04 43.9361 L1555.04 43.2069 Q1555.04 38.0623 1551.63 35.2672 Q1548.27 32.4315 1542.15 32.4315 Q1538.27 32.4315 1534.58 33.3632 Q1530.89 34.295 1527.49 36.1584 L1527.49 29.2718 Q1531.58 27.692 1535.43 26.9223 Q1539.28 26.1121 1542.92 26.1121 Q1552.77 26.1121 1557.63 31.2163 Q1562.49 36.3204 1562.49 46.6907 Z" fill="#000000" fill-rule="nonzero" fill-opacity="1" /><path clip-path="url(#clip760)" d="M1607.7 49.3643 Q1607.7 41.2625 1604.34 36.8065 Q1601.01 32.3505 1594.98 32.3505 Q1588.98 32.3505 1585.62 36.8065 Q1582.3 41.2625 1582.3 49.3643 Q1582.3 57.4256 1585.62 61.8816 Q1588.98 66.3376 1594.98 66.3376 Q1601.01 66.3376 1604.34 61.8816 Q1607.7 57.4256 1607.7 49.3643 M1615.15 66.9452 Q1615.15 78.5308 1610.01 84.1616 Q1604.86 89.8329 1594.25 89.8329 Q1590.32 89.8329 1586.84 89.2252 Q1583.35 88.6581 1580.07 87.4428 L1580.07 80.1917 Q1583.35 81.9741 1586.55 82.8248 Q1589.75 83.6755 1593.07 83.6755 Q1600.41 83.6755 1604.05 79.8271 Q1607.7 76.0193 1607.7 68.282 L1607.7 64.5957 Q1605.39 68.6061 1601.78 70.5911 Q1598.18 72.576 1593.16 72.576 Q1584.81 72.576 1579.71 66.2161 Q1574.6 59.8562 1574.6 49.3643 Q1574.6 38.832 1579.71 32.472 Q1584.81 26.1121 1593.16 26.1121 Q1598.18 26.1121 1601.78 28.0971 Q1605.39 30.082 1607.7 34.0924 L1607.7 27.2059 L1615.15 27.2059 L1615.15 66.9452 Z" fill="#000000" fill-rule="nonzero" fill-opacity="1" /><path clip-path="url(#clip760)" d="M1669.31 48.0275 L1669.31 51.6733 L1635.04 51.6733 Q1635.53 59.3701 1639.66 63.421 Q1643.83 67.4314 1651.25 67.4314 Q1655.54 67.4314 1659.55 66.3781 Q1663.6 65.3249 1667.57 63.2184 L1667.57 70.267 Q1663.56 71.9684 1659.35 72.8596 Q1655.13 73.7508 1650.8 73.7508 Q1639.94 73.7508 1633.58 67.4314 Q1627.26 61.1119 1627.26 50.3365 Q1627.26 39.1965 1633.26 32.6746 Q1639.3 26.1121 1649.5 26.1121 Q1658.66 26.1121 1663.97 32.0264 Q1669.31 37.9003 1669.31 48.0275 M1661.86 45.84 Q1661.78 39.7232 1658.42 36.0774 Q1655.09 32.4315 1649.58 32.4315 Q1643.35 32.4315 1639.58 35.9558 Q1635.85 39.4801 1635.28 45.8805 L1661.86 45.84 Z" fill="#000000" fill-rule="nonzero" fill-opacity="1" /><path clip-path="url(#clip760)" d="M1715.13 65.7705 L1715.13 89.8329 L1707.63 89.8329 L1707.63 27.2059 L1715.13 27.2059 L1715.13 34.0924 Q1717.48 30.0415 1721.04 28.0971 Q1724.65 26.1121 1729.63 26.1121 Q1737.89 26.1121 1743.04 32.6746 Q1748.22 39.2371 1748.22 49.9314 Q1748.22 60.6258 1743.04 67.1883 Q1737.89 73.7508 1729.63 73.7508 Q1724.65 73.7508 1721.04 71.8063 Q1717.48 69.8214 1715.13 65.7705 M1740.49 49.9314 Q1740.49 41.7081 1737.08 37.0496 Q1733.72 32.3505 1727.81 32.3505 Q1721.89 32.3505 1718.49 37.0496 Q1715.13 41.7081 1715.13 49.9314 Q1715.13 58.1548 1718.49 62.8538 Q1721.89 67.5124 1727.81 67.5124 Q1733.72 67.5124 1737.08 62.8538 Q1740.49 58.1548 1740.49 49.9314 Z" fill="#000000" fill-rule="nonzero" fill-opacity="1" /><path clip-path="url(#clip760)" d="M1760.58 9.54393 L1768.03 9.54393 L1768.03 72.576 L1760.58 72.576 L1760.58 9.54393 Z" fill="#000000" fill-rule="nonzero" fill-opacity="1" /><path clip-path="url(#clip760)" d="M1801.21 32.4315 Q1795.21 32.4315 1791.73 37.1306 Q1788.25 41.7891 1788.25 49.9314 Q1788.25 58.0738 1791.69 62.7728 Q1795.17 67.4314 1801.21 67.4314 Q1807.16 67.4314 1810.65 62.7323 Q1814.13 58.0333 1814.13 49.9314 Q1814.13 41.8701 1810.65 37.1711 Q1807.16 32.4315 1801.21 32.4315 M1801.21 26.1121 Q1810.93 26.1121 1816.48 32.4315 Q1822.03 38.7509 1822.03 49.9314 Q1822.03 61.0714 1816.48 67.4314 Q1810.93 73.7508 1801.21 73.7508 Q1791.45 73.7508 1785.9 67.4314 Q1780.39 61.0714 1780.39 49.9314 Q1780.39 38.7509 1785.9 32.4315 Q1791.45 26.1121 1801.21 26.1121 Z" fill="#000000" fill-rule="nonzero" fill-opacity="1" /><path clip-path="url(#clip760)" d="M1841.76 14.324 L1841.76 27.2059 L1857.11 27.2059 L1857.11 32.9987 L1841.76 32.9987 L1841.76 57.6282 Q1841.76 63.1779 1843.26 64.7578 Q1844.8 66.3376 1849.46 66.3376 L1857.11 66.3376 L1857.11 72.576 L1849.46 72.576 Q1840.83 72.576 1837.55 69.3758 Q1834.27 66.1351 1834.27 57.6282 L1834.27 32.9987 L1828.8 32.9987 L1828.8 27.2059 L1834.27 27.2059 L1834.27 14.324 L1841.76 14.324 Z" fill="#000000" fill-rule="nonzero" fill-opacity="1" /><polyline clip-path="url(#clip762)" style="stroke:#0000ff; stroke-linecap:round; stroke-linejoin:round; stroke-width:8; stroke-opacity:1; fill:none" points="237.067,1366.62 319.23,1296.5 374.005,1244.36 456.168,1185.04 524.637,1132.9 565.718,1095.14 647.881,1035.81 716.349,980.08 771.125,931.538 853.287,870.41 921.756,812.879 976.531,773.326 1058.69,706.805 1127.16,663.657 1195.63,607.923 1264.1,546.796 1332.57,492.86 1401.04,440.722 1455.81,397.574 1537.98,341.84 1606.45,280.713 1674.91,226.777 1743.38,199.809 1811.85,194.416 1866.63,187.224 1948.79,190.82 2017.26,189.022 2099.42,187.224 2140.5,187.224 2222.67,187.224 2291.13,185.426 "/>
<circle clip-path="url(#clip762)" cx="237.067" cy="1366.62" r="14.4" fill="#0000ff" fill-rule="evenodd" fill-opacity="1" stroke="#000000" stroke-opacity="1" stroke-width="3.2"/>
<circle clip-path="url(#clip762)" cx="319.23" cy="1296.5" r="14.4" fill="#0000ff" fill-rule="evenodd" fill-opacity="1" stroke="#000000" stroke-opacity="1" stroke-width="3.2"/>
<circle clip-path="url(#clip762)" cx="374.005" cy="1244.36" r="14.4" fill="#0000ff" fill-rule="evenodd" fill-opacity="1" stroke="#000000" stroke-opacity="1" stroke-width="3.2"/>
<circle clip-path="url(#clip762)" cx="456.168" cy="1185.04" r="14.4" fill="#0000ff" fill-rule="evenodd" fill-opacity="1" stroke="#000000" stroke-opacity="1" stroke-width="3.2"/>
<circle clip-path="url(#clip762)" cx="524.637" cy="1132.9" r="14.4" fill="#0000ff" fill-rule="evenodd" fill-opacity="1" stroke="#000000" stroke-opacity="1" stroke-width="3.2"/>
<circle clip-path="url(#clip762)" cx="565.718" cy="1095.14" r="14.4" fill="#0000ff" fill-rule="evenodd" fill-opacity="1" stroke="#000000" stroke-opacity="1" stroke-width="3.2"/>
<circle clip-path="url(#clip762)" cx="647.881" cy="1035.81" r="14.4" fill="#0000ff" fill-rule="evenodd" fill-opacity="1" stroke="#000000" stroke-opacity="1" stroke-width="3.2"/>
<circle clip-path="url(#clip762)" cx="716.349" cy="980.08" r="14.4" fill="#0000ff" fill-rule="evenodd" fill-opacity="1" stroke="#000000" stroke-opacity="1" stroke-width="3.2"/>
<circle clip-path="url(#clip762)" cx="771.125" cy="931.538" r="14.4" fill="#0000ff" fill-rule="evenodd" fill-opacity="1" stroke="#000000" stroke-opacity="1" stroke-width="3.2"/>
<circle clip-path="url(#clip762)" cx="853.287" cy="870.41" r="14.4" fill="#0000ff" fill-rule="evenodd" fill-opacity="1" stroke="#000000" stroke-opacity="1" stroke-width="3.2"/>
<circle clip-path="url(#clip762)" cx="921.756" cy="812.879" r="14.4" fill="#0000ff" fill-rule="evenodd" fill-opacity="1" stroke="#000000" stroke-opacity="1" stroke-width="3.2"/>
<circle clip-path="url(#clip762)" cx="976.531" cy="773.326" r="14.4" fill="#0000ff" fill-rule="evenodd" fill-opacity="1" stroke="#000000" stroke-opacity="1" stroke-width="3.2"/>
<circle clip-path="url(#clip762)" cx="1058.69" cy="706.805" r="14.4" fill="#0000ff" fill-rule="evenodd" fill-opacity="1" stroke="#000000" stroke-opacity="1" stroke-width="3.2"/>
<circle clip-path="url(#clip762)" cx="1127.16" cy="663.657" r="14.4" fill="#0000ff" fill-rule="evenodd" fill-opacity="1" stroke="#000000" stroke-opacity="1" stroke-width="3.2"/>
<circle clip-path="url(#clip762)" cx="1195.63" cy="607.923" r="14.4" fill="#0000ff" fill-rule="evenodd" fill-opacity="1" stroke="#000000" stroke-opacity="1" stroke-width="3.2"/>
<circle clip-path="url(#clip762)" cx="1264.1" cy="546.796" r="14.4" fill="#0000ff" fill-rule="evenodd" fill-opacity="1" stroke="#000000" stroke-opacity="1" stroke-width="3.2"/>
<circle clip-path="url(#clip762)" cx="1332.57" cy="492.86" r="14.4" fill="#0000ff" fill-rule="evenodd" fill-opacity="1" stroke="#000000" stroke-opacity="1" stroke-width="3.2"/>
<circle clip-path="url(#clip762)" cx="1401.04" cy="440.722" r="14.4" fill="#0000ff" fill-rule="evenodd" fill-opacity="1" stroke="#000000" stroke-opacity="1" stroke-width="3.2"/>
<circle clip-path="url(#clip762)" cx="1455.81" cy="397.574" r="14.4" fill="#0000ff" fill-rule="evenodd" fill-opacity="1" stroke="#000000" stroke-opacity="1" stroke-width="3.2"/>
<circle clip-path="url(#clip762)" cx="1537.98" cy="341.84" r="14.4" fill="#0000ff" fill-rule="evenodd" fill-opacity="1" stroke="#000000" stroke-opacity="1" stroke-width="3.2"/>
<circle clip-path="url(#clip762)" cx="1606.45" cy="280.713" r="14.4" fill="#0000ff" fill-rule="evenodd" fill-opacity="1" stroke="#000000" stroke-opacity="1" stroke-width="3.2"/>
<circle clip-path="url(#clip762)" cx="1674.91" cy="226.777" r="14.4" fill="#0000ff" fill-rule="evenodd" fill-opacity="1" stroke="#000000" stroke-opacity="1" stroke-width="3.2"/>
<circle clip-path="url(#clip762)" cx="1743.38" cy="199.809" r="14.4" fill="#0000ff" fill-rule="evenodd" fill-opacity="1" stroke="#000000" stroke-opacity="1" stroke-width="3.2"/>
<circle clip-path="url(#clip762)" cx="1811.85" cy="194.416" r="14.4" fill="#0000ff" fill-rule="evenodd" fill-opacity="1" stroke="#000000" stroke-opacity="1" stroke-width="3.2"/>
<circle clip-path="url(#clip762)" cx="1866.63" cy="187.224" r="14.4" fill="#0000ff" fill-rule="evenodd" fill-opacity="1" stroke="#000000" stroke-opacity="1" stroke-width="3.2"/>
<circle clip-path="url(#clip762)" cx="1948.79" cy="190.82" r="14.4" fill="#0000ff" fill-rule="evenodd" fill-opacity="1" stroke="#000000" stroke-opacity="1" stroke-width="3.2"/>
<circle clip-path="url(#clip762)" cx="2017.26" cy="189.022" r="14.4" fill="#0000ff" fill-rule="evenodd" fill-opacity="1" stroke="#000000" stroke-opacity="1" stroke-width="3.2"/>
<circle clip-path="url(#clip762)" cx="2099.42" cy="187.224" r="14.4" fill="#0000ff" fill-rule="evenodd" fill-opacity="1" stroke="#000000" stroke-opacity="1" stroke-width="3.2"/>
<circle clip-path="url(#clip762)" cx="2140.5" cy="187.224" r="14.4" fill="#0000ff" fill-rule="evenodd" fill-opacity="1" stroke="#000000" stroke-opacity="1" stroke-width="3.2"/>
<circle clip-path="url(#clip762)" cx="2222.67" cy="187.224" r="14.4" fill="#0000ff" fill-rule="evenodd" fill-opacity="1" stroke="#000000" stroke-opacity="1" stroke-width="3.2"/>
<circle clip-path="url(#clip762)" cx="2291.13" cy="185.426" r="14.4" fill="#0000ff" fill-rule="evenodd" fill-opacity="1" stroke="#000000" stroke-opacity="1" stroke-width="3.2"/>
<polyline clip-path="url(#clip762)" style="stroke:#ff0000; stroke-linecap:round; stroke-linejoin:round; stroke-width:8; stroke-opacity:1; fill:none" stroke-dasharray="32, 20" points="1674.91,1386.4 1674.91,160.256 "/>
<path clip-path="url(#clip760)" d="M248.022 322.316 L729.456 322.316 L729.456 166.796 L248.022 166.796  Z" fill="#ffffff" fill-rule="evenodd" fill-opacity="1"/>
<polyline clip-path="url(#clip760)" style="stroke:#000000; stroke-linecap:round; stroke-linejoin:round; stroke-width:4; stroke-opacity:1; fill:none" points="248.022,322.316 729.456,322.316 729.456,166.796 248.022,166.796 248.022,322.316 "/>
<polyline clip-path="url(#clip760)" style="stroke:#0000ff; stroke-linecap:round; stroke-linejoin:round; stroke-width:8; stroke-opacity:1; fill:none" points="272.215,218.636 417.369,218.636 "/>
<circle clip-path="url(#clip760)" cx="344.792" cy="218.636" r="20.1603" fill="#0000ff" fill-rule="evenodd" fill-opacity="1" stroke="#000000" stroke-opacity="1" stroke-width="4.55111"/>
<path clip-path="url(#clip760)" d="M446.237 205.198 L446.237 232.073 L451.885 232.073 Q459.038 232.073 462.348 228.832 Q465.681 225.592 465.681 218.601 Q465.681 211.657 462.348 208.439 Q459.038 205.198 451.885 205.198 L446.237 205.198 M441.561 201.356 L451.167 201.356 Q461.214 201.356 465.913 205.546 Q470.612 209.712 470.612 218.601 Q470.612 227.536 465.89 231.726 Q461.167 235.916 451.167 235.916 L441.561 235.916 L441.561 201.356 Z" fill="#000000" fill-rule="nonzero" fill-opacity="1" /><path clip-path="url(#clip760)" d="M489.663 222.883 Q484.501 222.883 482.51 224.064 Q480.519 225.244 480.519 228.092 Q480.519 230.36 482.001 231.703 Q483.505 233.022 486.075 233.022 Q489.616 233.022 491.746 230.522 Q493.899 227.999 493.899 223.832 L493.899 222.883 L489.663 222.883 M498.158 221.124 L498.158 235.916 L493.899 235.916 L493.899 231.981 Q492.44 234.342 490.264 235.476 Q488.088 236.587 484.94 236.587 Q480.959 236.587 478.598 234.365 Q476.26 232.119 476.26 228.369 Q476.26 223.994 479.176 221.772 Q482.116 219.55 487.926 219.55 L493.899 219.55 L493.899 219.133 Q493.899 216.194 491.954 214.596 Q490.033 212.976 486.538 212.976 Q484.315 212.976 482.209 213.508 Q480.102 214.041 478.158 215.106 L478.158 211.17 Q480.496 210.268 482.695 209.828 Q484.894 209.365 486.977 209.365 Q492.602 209.365 495.38 212.282 Q498.158 215.198 498.158 221.124 Z" fill="#000000" fill-rule="nonzero" fill-opacity="1" /><path clip-path="url(#clip760)" d="M511.144 202.629 L511.144 209.99 L519.917 209.99 L519.917 213.3 L511.144 213.3 L511.144 227.374 Q511.144 230.545 512 231.448 Q512.88 232.351 515.542 232.351 L519.917 232.351 L519.917 235.916 L515.542 235.916 Q510.612 235.916 508.737 234.087 Q506.862 232.235 506.862 227.374 L506.862 213.3 L503.737 213.3 L503.737 209.99 L506.862 209.99 L506.862 202.629 L511.144 202.629 Z" fill="#000000" fill-rule="nonzero" fill-opacity="1" /><path clip-path="url(#clip760)" d="M537.301 222.883 Q532.139 222.883 530.148 224.064 Q528.158 225.244 528.158 228.092 Q528.158 230.36 529.639 231.703 Q531.144 233.022 533.713 233.022 Q537.255 233.022 539.385 230.522 Q541.537 227.999 541.537 223.832 L541.537 222.883 L537.301 222.883 M545.797 221.124 L545.797 235.916 L541.537 235.916 L541.537 231.981 Q540.079 234.342 537.903 235.476 Q535.727 236.587 532.579 236.587 Q528.598 236.587 526.236 234.365 Q523.898 232.119 523.898 228.369 Q523.898 223.994 526.815 221.772 Q529.755 219.55 535.565 219.55 L541.537 219.55 L541.537 219.133 Q541.537 216.194 539.593 214.596 Q537.672 212.976 534.176 212.976 Q531.954 212.976 529.848 213.508 Q527.741 214.041 525.797 215.106 L525.797 211.17 Q528.135 210.268 530.334 209.828 Q532.533 209.365 534.616 209.365 Q540.241 209.365 543.019 212.282 Q545.797 215.198 545.797 221.124 Z" fill="#000000" fill-rule="nonzero" fill-opacity="1" /><path clip-path="url(#clip760)" d="M574.5 205.198 L574.5 218.184 L580.38 218.184 Q583.644 218.184 585.426 216.495 Q587.208 214.805 587.208 211.68 Q587.208 208.578 585.426 206.888 Q583.644 205.198 580.38 205.198 L574.5 205.198 M569.824 201.356 L580.38 201.356 Q586.19 201.356 589.153 203.995 Q592.139 206.61 592.139 211.68 Q592.139 216.795 589.153 219.411 Q586.19 222.027 580.38 222.027 L574.5 222.027 L574.5 235.916 L569.824 235.916 L569.824 201.356 Z" fill="#000000" fill-rule="nonzero" fill-opacity="1" /><path clip-path="url(#clip760)" d="M606.583 212.976 Q603.157 212.976 601.167 215.661 Q599.176 218.323 599.176 222.976 Q599.176 227.629 601.143 230.314 Q603.134 232.976 606.583 232.976 Q609.986 232.976 611.977 230.291 Q613.967 227.606 613.967 222.976 Q613.967 218.37 611.977 215.684 Q609.986 212.976 606.583 212.976 M606.583 209.365 Q612.139 209.365 615.31 212.976 Q618.481 216.587 618.481 222.976 Q618.481 229.342 615.31 232.976 Q612.139 236.587 606.583 236.587 Q601.005 236.587 597.833 232.976 Q594.685 229.342 594.685 222.976 Q594.685 216.587 597.833 212.976 Q601.005 209.365 606.583 209.365 Z" fill="#000000" fill-rule="nonzero" fill-opacity="1" /><path clip-path="url(#clip760)" d="M625.541 209.99 L629.801 209.99 L629.801 235.916 L625.541 235.916 L625.541 209.99 M625.541 199.897 L629.801 199.897 L629.801 205.291 L625.541 205.291 L625.541 199.897 Z" fill="#000000" fill-rule="nonzero" fill-opacity="1" /><path clip-path="url(#clip760)" d="M660.263 220.268 L660.263 235.916 L656.004 235.916 L656.004 220.407 Q656.004 216.726 654.569 214.897 Q653.134 213.069 650.264 213.069 Q646.814 213.069 644.824 215.268 Q642.833 217.467 642.833 221.263 L642.833 235.916 L638.551 235.916 L638.551 209.99 L642.833 209.99 L642.833 214.018 Q644.361 211.68 646.421 210.522 Q648.504 209.365 651.213 209.365 Q655.68 209.365 657.972 212.143 Q660.263 214.897 660.263 220.268 Z" fill="#000000" fill-rule="nonzero" fill-opacity="1" /><path clip-path="url(#clip760)" d="M672.972 202.629 L672.972 209.99 L681.745 209.99 L681.745 213.3 L672.972 213.3 L672.972 227.374 Q672.972 230.545 673.828 231.448 Q674.708 232.351 677.37 232.351 L681.745 232.351 L681.745 235.916 L677.37 235.916 Q672.439 235.916 670.564 234.087 Q668.689 232.235 668.689 227.374 L668.689 213.3 L665.564 213.3 L665.564 209.99 L668.689 209.99 L668.689 202.629 L672.972 202.629 Z" fill="#000000" fill-rule="nonzero" fill-opacity="1" /><path clip-path="url(#clip760)" d="M703.874 210.754 L703.874 214.782 Q702.069 213.856 700.124 213.393 Q698.18 212.93 696.097 212.93 Q692.925 212.93 691.328 213.902 Q689.754 214.874 689.754 216.819 Q689.754 218.3 690.888 219.157 Q692.023 219.99 695.448 220.754 L696.907 221.078 Q701.444 222.05 703.342 223.832 Q705.263 225.592 705.263 228.763 Q705.263 232.374 702.393 234.481 Q699.546 236.587 694.546 236.587 Q692.462 236.587 690.194 236.17 Q687.949 235.777 685.449 234.967 L685.449 230.569 Q687.81 231.795 690.101 232.42 Q692.393 233.022 694.638 233.022 Q697.648 233.022 699.268 232.004 Q700.888 230.962 700.888 229.087 Q700.888 227.351 699.708 226.425 Q698.55 225.499 694.592 224.643 L693.111 224.295 Q689.152 223.462 687.393 221.749 Q685.634 220.013 685.634 217.004 Q685.634 213.346 688.226 211.356 Q690.819 209.365 695.587 209.365 Q697.948 209.365 700.032 209.712 Q702.115 210.059 703.874 210.754 Z" fill="#000000" fill-rule="nonzero" fill-opacity="1" /><polyline clip-path="url(#clip760)" style="stroke:#ff0000; stroke-linecap:round; stroke-linejoin:round; stroke-width:8; stroke-opacity:1; fill:none" stroke-dasharray="32, 20" points="272.215,270.476 417.369,270.476 "/>
<path clip-path="url(#clip760)" d="M475.758 246.89 Q475.711 247.757 475.125 247.804 Q474.235 247.851 473.697 247.968 Q473.158 248.061 472.315 248.413 Q471.471 248.764 470.652 249.607 Q469.832 250.451 468.989 251.786 L451.726 279.26 Q451.422 279.775 451.164 279.939 Q450.93 280.127 450.391 280.127 Q449.899 280.127 449.712 279.916 Q449.525 279.729 449.431 279.026 L445.636 249.42 Q445.566 248.881 445.496 248.647 Q445.426 248.413 445.145 248.179 Q444.887 247.944 444.325 247.874 Q443.763 247.804 442.756 247.804 Q442.287 247.804 442.076 247.78 Q441.889 247.757 441.725 247.64 Q441.561 247.499 441.561 247.218 Q441.561 246.797 441.725 246.586 Q441.912 246.352 442.053 246.328 Q442.217 246.305 442.474 246.305 Q442.873 246.305 443.739 246.352 Q444.606 246.398 445.051 246.398 Q445.473 246.398 446.363 246.422 Q447.253 246.445 447.698 246.445 Q448.681 246.445 450.672 246.375 Q452.687 246.305 453.647 246.305 Q454.303 246.305 454.303 246.843 Q454.303 247.499 454.022 247.663 Q453.741 247.804 453.108 247.804 Q451.515 247.804 450.649 248.202 Q449.806 248.6 449.806 249.233 L453.061 274.622 L467.794 251.2 Q468.52 250.099 468.52 249.373 Q468.52 247.968 466.295 247.804 Q465.546 247.804 465.546 247.218 Q465.546 246.797 465.733 246.586 Q465.92 246.352 466.061 246.328 Q466.225 246.305 466.459 246.305 Q467.232 246.305 468.801 246.375 Q470.394 246.445 471.19 246.445 Q471.846 246.445 473.181 246.375 Q474.516 246.305 475.125 246.305 Q475.758 246.305 475.758 246.89 Z" fill="#000000" fill-rule="nonzero" fill-opacity="1" /><path clip-path="url(#clip760)" d="M480.54 272.072 L480.54 271.022 L485.377 270.662 L485.377 281.302 Q487.328 279.122 489.984 279.122 Q492.87 279.122 494.985 281.335 Q497.1 283.549 497.1 286.713 Q497.1 289.91 494.887 292.124 Q492.673 294.337 489.607 294.337 Q486.82 294.337 485.213 291.878 Q484.033 293.927 484 293.96 L483.164 293.96 L483.164 273.941 Q483.164 272.695 482.721 272.383 Q482.278 272.072 480.54 272.072 M485.475 290.14 Q485.475 290.845 485.951 291.55 Q487.279 293.583 489.443 293.583 Q489.46 293.583 489.476 293.583 Q491.821 293.583 493.28 291.435 Q494.313 289.828 494.313 286.68 Q494.313 283.565 493.345 282.007 Q492.001 279.86 489.82 279.86 Q487.361 279.86 485.853 282.007 Q485.475 282.549 485.475 283.221 L485.475 290.14 Z" fill="#000000" fill-rule="nonzero" fill-opacity="1" /><path clip-path="url(#clip760)" d="M517.408 271.788 Q517.455 271.203 518.369 271.203 L547.764 271.203 Q549.146 271.203 549.169 271.742 Q549.169 272.327 547.858 272.304 L518.697 272.304 Q517.408 272.327 517.408 271.788 M517.408 262.419 Q517.408 261.834 518.416 261.857 L547.717 261.857 Q549.146 261.857 549.169 262.419 Q549.169 262.958 547.951 262.958 L518.369 262.958 Q517.408 262.958 517.408 262.419 Z" fill="#000000" fill-rule="nonzero" fill-opacity="1" /><path clip-path="url(#clip760)" d="M567.66 251.692 L567.66 250.193 Q573.422 250.193 576.397 247.125 Q577.216 247.125 577.357 247.312 Q577.498 247.499 577.498 248.366 L577.498 275.278 Q577.498 276.707 578.2 277.152 Q578.903 277.597 581.971 277.597 L583.494 277.597 L583.494 279.073 Q581.807 278.932 575.717 278.932 Q569.628 278.932 567.965 279.073 L567.965 277.597 L569.487 277.597 Q572.509 277.597 573.235 277.176 Q573.961 276.731 573.961 275.278 L573.961 250.427 Q571.455 251.692 567.66 251.692 Z" fill="#000000" fill-rule="nonzero" fill-opacity="1" /><path clip-path="url(#clip760)" d="M585.807 263.731 Q585.807 256.681 587.587 252.84 Q590.07 247.125 595.926 247.125 Q597.167 247.125 598.455 247.476 Q599.767 247.804 601.406 249.092 Q603.069 250.38 604.077 252.488 Q605.997 256.564 605.997 263.731 Q605.997 270.734 604.217 274.552 Q601.617 280.127 595.879 280.127 Q593.724 280.127 591.522 279.026 Q589.344 277.925 587.962 275.278 Q585.807 271.32 585.807 263.731 M589.789 263.145 Q589.789 270.383 590.304 273.264 Q590.89 276.379 592.483 277.738 Q594.099 279.073 595.879 279.073 Q597.799 279.073 599.392 277.644 Q601.008 276.192 601.5 273.077 Q602.039 270.008 602.015 263.145 Q602.015 256.47 601.547 253.8 Q600.915 250.685 599.228 249.443 Q597.565 248.179 595.879 248.179 Q595.246 248.179 594.567 248.366 Q593.911 248.553 592.951 249.092 Q591.991 249.631 591.241 250.966 Q590.515 252.301 590.164 254.315 Q589.789 256.915 589.789 263.145 Z" fill="#000000" fill-rule="nonzero" fill-opacity="1" /><path clip-path="url(#clip760)" d="M610.283 278.3 Q609.557 277.527 609.557 276.52 Q609.557 275.513 610.283 274.786 Q611.009 274.037 612.11 274.037 Q613.164 274.037 613.867 274.74 Q614.593 275.419 614.593 276.543 Q614.593 277.644 613.82 278.37 Q613.07 279.073 612.11 279.073 Q611.009 279.073 610.283 278.3 Z" fill="#000000" fill-rule="nonzero" fill-opacity="1" /><path clip-path="url(#clip760)" d="M622.754 271.343 Q622.754 269.915 623.527 269.376 Q624.3 268.814 625.12 268.814 Q626.221 268.814 626.853 269.516 Q627.509 270.196 627.509 271.156 Q627.509 272.116 626.853 272.819 Q626.221 273.498 625.12 273.498 Q624.581 273.498 624.3 273.405 Q624.932 275.606 626.853 277.199 Q628.797 278.792 631.35 278.792 Q634.559 278.792 636.48 275.676 Q637.627 273.662 637.627 269.095 Q637.627 265.066 636.761 263.052 Q635.426 259.983 632.685 259.983 Q628.797 259.983 626.502 263.333 Q626.221 263.754 625.893 263.778 Q625.424 263.778 625.307 263.52 Q625.213 263.239 625.213 262.513 L625.213 248.319 Q625.213 247.171 625.682 247.171 Q625.869 247.171 626.268 247.312 Q629.289 248.647 632.638 248.67 Q636.082 248.67 639.173 247.265 Q639.407 247.125 639.548 247.125 Q640.016 247.125 640.04 247.663 Q640.04 247.851 639.642 248.413 Q639.267 248.951 638.447 249.678 Q637.627 250.38 636.573 251.06 Q635.519 251.739 633.973 252.207 Q632.451 252.652 630.765 252.652 Q628.75 252.652 626.689 252.02 L626.689 261.365 Q629.172 258.929 632.779 258.929 Q636.62 258.929 639.267 262.021 Q641.914 265.113 641.914 269.423 Q641.914 273.943 638.775 277.035 Q635.66 280.127 631.444 280.127 Q627.603 280.127 625.167 277.386 Q622.754 274.646 622.754 271.343 Z" fill="#000000" fill-rule="nonzero" fill-opacity="1" /><path clip-path="url(#clip760)" d="M646.504 247.804 L646.504 246.305 Q651.68 246.445 652.594 246.445 Q657.723 246.445 659.457 246.305 L659.457 247.804 Q655.522 247.804 655.522 249.186 Q655.522 249.373 655.803 250.052 L664.961 274.271 L673.744 251.153 Q673.979 250.427 673.979 250.193 Q673.979 249.233 673.089 248.553 Q672.222 247.851 670.489 247.804 L670.489 246.305 Q674.236 246.445 675.946 246.445 Q678.382 246.445 680.607 246.305 L680.607 247.804 Q676.579 247.851 675.384 251.013 L664.68 279.213 Q664.493 279.799 664.305 279.963 Q664.118 280.127 663.532 280.127 Q663.064 280.127 662.806 279.939 Q662.572 279.752 662.338 279.073 L651.212 249.631 Q650.744 248.343 649.9 248.085 Q649.057 247.804 646.504 247.804 Z" fill="#000000" fill-rule="nonzero" fill-opacity="1" /></svg>
