<?xml version="1.0" encoding="utf-8"?>
<svg xmlns="http://www.w3.org/2000/svg" xmlns:xlink="http://www.w3.org/1999/xlink" width="600" height="400" viewBox="0 0 2400 1600">
<defs>
  <clipPath id="clip740">
    <rect x="0" y="0" width="2400" height="1600"/>
  </clipPath>
</defs>
<path clip-path="url(#clip740)" d="M0 1600 L2400 1600 L2400 0 L0 0  Z" fill="#ffffff" fill-rule="evenodd" fill-opacity="1"/>
<defs>
  <clipPath id="clip741">
    <rect x="480" y="0" width="1681" height="1600"/>
  </clipPath>
</defs>
<path clip-path="url(#clip740)" d="M249.195 1423.18 L2352.76 1423.18 L2352.76 123.472 L249.195 123.472  Z" fill="#ffffff" fill-rule="evenodd" fill-opacity="1"/>
<defs>
  <clipPath id="clip742">
    <rect x="249" y="123" width="2105" height="1301"/>
  </clipPath>
</defs>
<polyline clip-path="url(#clip742)" style="stroke:#000000; stroke-linecap:round; stroke-linejoin:round; stroke-width:2; stroke-opacity:0.1; fill:none" points="474.104,1423.18 474.104,123.472 "/>
<polyline clip-path="url(#clip742)" style="stroke:#000000; stroke-linecap:round; stroke-linejoin:round; stroke-width:2; stroke-opacity:0.1; fill:none" points="749.728,1423.18 749.728,123.472 "/>
<polyline clip-path="url(#clip742)" style="stroke:#000000; stroke-linecap:round; stroke-linejoin:round; stroke-width:2; stroke-opacity:0.1; fill:none" points="1025.35,1423.18 1025.35,123.472 "/>
<polyline clip-path="url(#clip742)" style="stroke:#000000; stroke-linecap:round; stroke-linejoin:round; stroke-width:2; stroke-opacity:0.1; fill:none" points="1300.98,1423.18 1300.98,123.472 "/>
<polyline clip-path="url(#clip742)" style="stroke:#000000; stroke-linecap:round; stroke-linejoin:round; stroke-width:2; stroke-opacity:0.1; fill:none" points="1576.6,1423.18 1576.6,123.472 "/>
<polyline clip-path="url(#clip742)" style="stroke:#000000; stroke-linecap:round; stroke-linejoin:round; stroke-width:2; stroke-opacity:0.1; fill:none" points="1852.22,1423.18 1852.22,123.472 "/>
<polyline clip-path="url(#clip742)" style="stroke:#000000; stroke-linecap:round; stroke-linejoin:round; stroke-width:2; stroke-opacity:0.1; fill:none" points="2127.85,1423.18 2127.85,123.472 "/>
<polyline clip-path="url(#clip742)" style="stroke:#000000; stroke-linecap:round; stroke-linejoin:round; stroke-width:2; stroke-opacity:0.1; fill:none" points="249.195,1289.96 2352.76,1289.96 "/>
<polyline clip-path="url(#clip742)" style="stroke:#000000; stroke-linecap:round; stroke-linejoin:round; stroke-width:2; stroke-opacity:0.1; fill:none" points="249.195,1117.75 2352.76,1117.75 "/>
<polyline clip-path="url(#clip742)" style="stroke:#000000; stroke-linecap:round; stroke-linejoin:round; stroke-width:2; stroke-opacity:0.1; fill:none" points="249.195,945.537 2352.76,945.537 "/>
<polyline clip-path="url(#clip742)" style="stroke:#000000; stroke-linecap:round; stroke-linejoin:round; stroke-width:2; stroke-opacity:0.1; fill:none" points="249.195,773.326 2352.76,773.326 "/>
<polyline clip-path="url(#clip742)" style="stroke:#000000; stroke-linecap:round; stroke-linejoin:round; stroke-width:2; stroke-opacity:0.1; fill:none" points="249.195,601.115 2352.76,601.115 "/>
<polyline clip-path="url(#clip742)" style="stroke:#000000; stroke-linecap:round; stroke-linejoin:round; stroke-width:2; stroke-opacity:0.1; fill:none" points="249.195,428.905 2352.76,428.905 "/>
<polyline clip-path="url(#clip742)" style="stroke:#000000; stroke-linecap:round; stroke-linejoin:round; stroke-width:2; stroke-opacity:0.1; fill:none" points="249.195,256.694 2352.76,256.694 "/>
<polyline clip-path="url(#clip740)" style="stroke:#000000; stroke-linecap:round; stroke-linejoin:round; stroke-width:4; stroke-opacity:1; fill:none" points="249.195,1423.18 2352.76,1423.18 "/>
<polyline clip-path="url(#clip740)" style="stroke:#000000; stroke-linecap:round; stroke-linejoin:round; stroke-width:4; stroke-opacity:1; fill:none" points="474.104,1423.18 474.104,1404.28 "/>
<polyline clip-path="url(#clip740)" style="stroke:#000000; stroke-linecap:round; stroke-linejoin:round; stroke-width:4; stroke-opacity:1; fill:none" points="749.728,1423.18 749.728,1404.28 "/>
<polyline clip-path="url(#clip740)" style="stroke:#000000; stroke-linecap:round; stroke-linejoin:round; stroke-width:4; stroke-opacity:1; fill:none" points="1025.35,1423.18 1025.35,1404.28 "/>
<polyline clip-path="url(#clip740)" style="stroke:#000000; stroke-linecap:round; stroke-linejoin:round; stroke-width:4; stroke-opacity:1; fill:none" points="1300.98,1423.18 1300.98,1404.28 "/>
<polyline clip-path="url(#clip740)" style="stroke:#000000; stroke-linecap:round; stroke-linejoin:round; stroke-width:4; stroke-opacity:1; fill:none" points="1576.6,1423.18 1576.6,1404.28 "/>
<polyline clip-path="url(#clip740)" style="stroke:#000000; stroke-linecap:round; stroke-linejoin:round; stroke-width:4; stroke-opacity:1; fill:none" points="1852.22,1423.18 1852.22,1404.28 "/>
<polyline clip-path="url(#clip740)" style="stroke:#000000; stroke-linecap:round; stroke-linejoin:round; stroke-width:4; stroke-opacity:1; fill:none" points="2127.85,1423.18 2127.85,1404.28 "/>
<path clip-path="url(#clip740)" d="M436.905 1454.1 Q433.294 1454.1 431.465 1457.66 Q429.66 1461.2 429.66 1468.33 Q429.66 1475.44 431.465 1479.01 Q433.294 1482.55 436.905 1482.55 Q440.539 1482.55 442.345 1479.01 Q444.173 1475.44 444.173 1468.33 Q444.173 1461.2 442.345 1457.66 Q440.539 1454.1 436.905 1454.1 M436.905 1450.39 Q442.715 1450.39 445.771 1455 Q448.849 1459.58 448.849 1468.33 Q448.849 1477.06 445.771 1481.67 Q442.715 1486.25 436.905 1486.25 Q431.095 1486.25 428.016 1481.67 Q424.961 1477.06 424.961 1468.33 Q424.961 1459.58 428.016 1455 Q431.095 1450.39 436.905 1450.39 Z" fill="#000000" fill-rule="nonzero" fill-opacity="1" /><path clip-path="url(#clip740)" d="M457.067 1479.7 L461.951 1479.7 L461.951 1485.58 L457.067 1485.58 L457.067 1479.7 Z" fill="#000000" fill-rule="nonzero" fill-opacity="1" /><path clip-path="url(#clip740)" d="M476.164 1481.64 L492.483 1481.64 L492.483 1485.58 L470.539 1485.58 L470.539 1481.64 Q473.201 1478.89 477.784 1474.26 Q482.391 1469.61 483.571 1468.27 Q485.817 1465.74 486.696 1464.01 Q487.599 1462.25 487.599 1460.56 Q487.599 1457.8 485.655 1456.07 Q483.733 1454.33 480.632 1454.33 Q478.433 1454.33 475.979 1455.09 Q473.548 1455.86 470.771 1457.41 L470.771 1452.69 Q473.595 1451.55 476.048 1450.97 Q478.502 1450.39 480.539 1450.39 Q485.909 1450.39 489.104 1453.08 Q492.298 1455.77 492.298 1460.26 Q492.298 1462.39 491.488 1464.31 Q490.701 1466.2 488.595 1468.8 Q488.016 1469.47 484.914 1472.69 Q481.812 1475.88 476.164 1481.64 Z" fill="#000000" fill-rule="nonzero" fill-opacity="1" /><path clip-path="url(#clip740)" d="M502.344 1451.02 L520.701 1451.02 L520.701 1454.96 L506.627 1454.96 L506.627 1463.43 Q507.645 1463.08 508.664 1462.92 Q509.682 1462.73 510.701 1462.73 Q516.488 1462.73 519.868 1465.9 Q523.247 1469.08 523.247 1474.49 Q523.247 1480.07 519.775 1483.17 Q516.303 1486.25 509.983 1486.25 Q507.807 1486.25 505.539 1485.88 Q503.294 1485.51 500.886 1484.77 L500.886 1480.07 Q502.969 1481.2 505.192 1481.76 Q507.414 1482.32 509.891 1482.32 Q513.895 1482.32 516.233 1480.21 Q518.571 1478.1 518.571 1474.49 Q518.571 1470.88 516.233 1468.77 Q513.895 1466.67 509.891 1466.67 Q508.016 1466.67 506.141 1467.08 Q504.289 1467.5 502.344 1468.38 L502.344 1451.02 Z" fill="#000000" fill-rule="nonzero" fill-opacity="1" /><path clip-path="url(#clip740)" d="M712.031 1454.1 Q708.42 1454.1 706.591 1457.66 Q704.786 1461.2 704.786 1468.33 Q704.786 1475.44 706.591 1479.01 Q708.42 1482.55 712.031 1482.55 Q715.665 1482.55 717.471 1479.01 Q719.3 1475.44 719.3 1468.33 Q719.3 1461.2 717.471 1457.66 Q715.665 1454.1 712.031 1454.1 M712.031 1450.39 Q717.841 1450.39 720.897 1455 Q723.976 1459.58 723.976 1468.33 Q723.976 1477.06 720.897 1481.67 Q717.841 1486.25 712.031 1486.25 Q706.221 1486.25 703.142 1481.67 Q700.087 1477.06 700.087 1468.33 Q700.087 1459.58 703.142 1455 Q706.221 1450.39 712.031 1450.39 Z" fill="#000000" fill-rule="nonzero" fill-opacity="1" /><path clip-path="url(#clip740)" d="M732.193 1479.7 L737.077 1479.7 L737.077 1485.58 L732.193 1485.58 L732.193 1479.7 Z" fill="#000000" fill-rule="nonzero" fill-opacity="1" /><path clip-path="url(#clip740)" d="M747.309 1451.02 L765.665 1451.02 L765.665 1454.96 L751.591 1454.96 L751.591 1463.43 Q752.61 1463.08 753.628 1462.92 Q754.647 1462.73 755.665 1462.73 Q761.452 1462.73 764.832 1465.9 Q768.211 1469.08 768.211 1474.49 Q768.211 1480.07 764.739 1483.17 Q761.267 1486.25 754.948 1486.25 Q752.772 1486.25 750.503 1485.88 Q748.258 1485.51 745.85 1484.77 L745.85 1480.07 Q747.934 1481.2 750.156 1481.76 Q752.378 1482.32 754.855 1482.32 Q758.86 1482.32 761.198 1480.21 Q763.535 1478.1 763.535 1474.49 Q763.535 1470.88 761.198 1468.77 Q758.86 1466.67 754.855 1466.67 Q752.98 1466.67 751.105 1467.08 Q749.253 1467.5 747.309 1468.38 L747.309 1451.02 Z" fill="#000000" fill-rule="nonzero" fill-opacity="1" /><path clip-path="url(#clip740)" d="M787.424 1454.1 Q783.813 1454.1 781.984 1457.66 Q780.179 1461.2 780.179 1468.33 Q780.179 1475.44 781.984 1479.01 Q783.813 1482.55 787.424 1482.55 Q791.058 1482.55 792.864 1479.01 Q794.693 1475.44 794.693 1468.33 Q794.693 1461.2 792.864 1457.66 Q791.058 1454.1 787.424 1454.1 M787.424 1450.39 Q793.234 1450.39 796.29 1455 Q799.369 1459.58 799.369 1468.33 Q799.369 1477.06 796.29 1481.67 Q793.234 1486.25 787.424 1486.25 Q781.614 1486.25 778.535 1481.67 Q775.48 1477.06 775.48 1468.33 Q775.48 1459.58 778.535 1455 Q781.614 1450.39 787.424 1450.39 Z" fill="#000000" fill-rule="nonzero" fill-opacity="1" /><path clip-path="url(#clip740)" d="M988.153 1454.1 Q984.542 1454.1 982.713 1457.66 Q980.907 1461.2 980.907 1468.33 Q980.907 1475.44 982.713 1479.01 Q984.542 1482.55 988.153 1482.55 Q991.787 1482.55 993.592 1479.01 Q995.421 1475.44 995.421 1468.33 Q995.421 1461.2 993.592 1457.66 Q991.787 1454.1 988.153 1454.1 M988.153 1450.39 Q993.963 1450.39 997.018 1455 Q1000.1 1459.58 1000.1 1468.33 Q1000.1 1477.06 997.018 1481.67 Q993.963 1486.25 988.153 1486.25 Q982.342 1486.25 979.264 1481.67 Q976.208 1477.06 976.208 1468.33 Q976.208 1459.58 979.264 1455 Q982.342 1450.39 988.153 1450.39 Z" fill="#000000" fill-rule="nonzero" fill-opacity="1" /><path clip-path="url(#clip740)" d="M1008.31 1479.7 L1013.2 1479.7 L1013.2 1485.58 L1008.31 1485.58 L1008.31 1479.7 Z" fill="#000000" fill-rule="nonzero" fill-opacity="1" /><path clip-path="url(#clip740)" d="M1022.2 1451.02 L1044.43 1451.02 L1044.43 1453.01 L1031.88 1485.58 L1027 1485.58 L1038.8 1454.96 L1022.2 1454.96 L1022.2 1451.02 Z" fill="#000000" fill-rule="nonzero" fill-opacity="1" /><path clip-path="url(#clip740)" d="M1053.59 1451.02 L1071.95 1451.02 L1071.95 1454.96 L1057.87 1454.96 L1057.87 1463.43 Q1058.89 1463.08 1059.91 1462.92 Q1060.93 1462.73 1061.95 1462.73 Q1067.74 1462.73 1071.12 1465.9 Q1074.49 1469.08 1074.49 1474.49 Q1074.49 1480.07 1071.02 1483.17 Q1067.55 1486.25 1061.23 1486.25 Q1059.06 1486.25 1056.79 1485.88 Q1054.54 1485.51 1052.13 1484.77 L1052.13 1480.07 Q1054.22 1481.2 1056.44 1481.76 Q1058.66 1482.32 1061.14 1482.32 Q1065.14 1482.32 1067.48 1480.21 Q1069.82 1478.1 1069.82 1474.49 Q1069.82 1470.88 1067.48 1468.77 Q1065.14 1466.67 1061.14 1466.67 Q1059.26 1466.67 1057.39 1467.08 Q1055.54 1467.5 1053.59 1468.38 L1053.59 1451.02 Z" fill="#000000" fill-rule="nonzero" fill-opacity="1" /><path clip-path="url(#clip740)" d="M1253.05 1481.64 L1260.69 1481.64 L1260.69 1455.28 L1252.38 1456.95 L1252.38 1452.69 L1260.64 1451.02 L1265.32 1451.02 L1265.32 1481.64 L1272.95 1481.64 L1272.95 1485.58 L1253.05 1485.58 L1253.05 1481.64 Z" fill="#000000" fill-rule="nonzero" fill-opacity="1" /><path clip-path="url(#clip740)" d="M1282.4 1479.7 L1287.28 1479.7 L1287.28 1485.58 L1282.4 1485.58 L1282.4 1479.7 Z" fill="#000000" fill-rule="nonzero" fill-opacity="1" /><path clip-path="url(#clip740)" d="M1307.47 1454.1 Q1303.86 1454.1 1302.03 1457.66 Q1300.22 1461.2 1300.22 1468.33 Q1300.22 1475.44 1302.03 1479.01 Q1303.86 1482.55 1307.47 1482.55 Q1311.1 1482.55 1312.91 1479.01 Q1314.74 1475.44 1314.74 1468.33 Q1314.74 1461.2 1312.91 1457.66 Q1311.1 1454.1 1307.47 1454.1 M1307.47 1450.39 Q1313.28 1450.39 1316.33 1455 Q1319.41 1459.58 1319.41 1468.33 Q1319.41 1477.06 1316.33 1481.67 Q1313.28 1486.25 1307.47 1486.25 Q1301.66 1486.25 1298.58 1481.67 Q1295.52 1477.06 1295.52 1468.33 Q1295.52 1459.58 1298.58 1455 Q1301.66 1450.39 1307.47 1450.39 Z" fill="#000000" fill-rule="nonzero" fill-opacity="1" /><path clip-path="url(#clip740)" d="M1337.63 1454.1 Q1334.02 1454.1 1332.19 1457.66 Q1330.38 1461.2 1330.38 1468.33 Q1330.38 1475.44 1332.19 1479.01 Q1334.02 1482.55 1337.63 1482.55 Q1341.26 1482.55 1343.07 1479.01 Q1344.9 1475.44 1344.9 1468.33 Q1344.9 1461.2 1343.07 1457.66 Q1341.26 1454.1 1337.63 1454.1 M1337.63 1450.39 Q1343.44 1450.39 1346.5 1455 Q1349.57 1459.58 1349.57 1468.33 Q1349.57 1477.06 1346.5 1481.67 Q1343.44 1486.25 1337.63 1486.25 Q1331.82 1486.25 1328.74 1481.67 Q1325.69 1477.06 1325.69 1468.33 Q1325.69 1459.58 1328.74 1455 Q1331.82 1450.39 1337.63 1450.39 Z" fill="#000000" fill-rule="nonzero" fill-opacity="1" /><path clip-path="url(#clip740)" d="M1529.17 1481.64 L1536.81 1481.64 L1536.81 1455.28 L1528.5 1456.95 L1528.5 1452.69 L1536.76 1451.02 L1541.44 1451.02 L1541.44 1481.64 L1549.08 1481.64 L1549.08 1485.58 L1529.17 1485.58 L1529.17 1481.64 Z" fill="#000000" fill-rule="nonzero" fill-opacity="1" /><path clip-path="url(#clip740)" d="M1558.52 1479.7 L1563.4 1479.7 L1563.4 1485.58 L1558.52 1485.58 L1558.52 1479.7 Z" fill="#000000" fill-rule="nonzero" fill-opacity="1" /><path clip-path="url(#clip740)" d="M1577.62 1481.64 L1593.94 1481.64 L1593.94 1485.58 L1571.99 1485.58 L1571.99 1481.64 Q1574.65 1478.89 1579.24 1474.26 Q1583.84 1469.61 1585.03 1468.27 Q1587.27 1465.74 1588.15 1464.01 Q1589.05 1462.25 1589.05 1460.56 Q1589.05 1457.8 1587.11 1456.07 Q1585.19 1454.33 1582.09 1454.33 Q1579.89 1454.33 1577.43 1455.09 Q1575 1455.86 1572.22 1457.41 L1572.22 1452.69 Q1575.05 1451.55 1577.5 1450.97 Q1579.96 1450.39 1581.99 1450.39 Q1587.36 1450.39 1590.56 1453.08 Q1593.75 1455.77 1593.75 1460.26 Q1593.75 1462.39 1592.94 1464.31 Q1592.15 1466.2 1590.05 1468.8 Q1589.47 1469.47 1586.37 1472.69 Q1583.27 1475.88 1577.62 1481.64 Z" fill="#000000" fill-rule="nonzero" fill-opacity="1" /><path clip-path="url(#clip740)" d="M1603.8 1451.02 L1622.15 1451.02 L1622.15 1454.96 L1608.08 1454.96 L1608.08 1463.43 Q1609.1 1463.08 1610.12 1462.92 Q1611.14 1462.73 1612.15 1462.73 Q1617.94 1462.73 1621.32 1465.9 Q1624.7 1469.08 1624.7 1474.49 Q1624.7 1480.07 1621.23 1483.17 Q1617.76 1486.25 1611.44 1486.25 Q1609.26 1486.25 1606.99 1485.88 Q1604.75 1485.51 1602.34 1484.77 L1602.34 1480.07 Q1604.42 1481.2 1606.65 1481.76 Q1608.87 1482.32 1611.34 1482.32 Q1615.35 1482.32 1617.69 1480.21 Q1620.02 1478.1 1620.02 1474.49 Q1620.02 1470.88 1617.69 1468.77 Q1615.35 1466.67 1611.34 1466.67 Q1609.47 1466.67 1607.59 1467.08 Q1605.74 1467.5 1603.8 1468.38 L1603.8 1451.02 Z" fill="#000000" fill-rule="nonzero" fill-opacity="1" /><path clip-path="url(#clip740)" d="M1804.3 1481.64 L1811.93 1481.64 L1811.93 1455.28 L1803.62 1456.95 L1803.62 1452.69 L1811.89 1451.02 L1816.56 1451.02 L1816.56 1481.64 L1824.2 1481.64 L1824.2 1485.58 L1804.3 1485.58 L1804.3 1481.64 Z" fill="#000000" fill-rule="nonzero" fill-opacity="1" /><path clip-path="url(#clip740)" d="M1833.65 1479.7 L1838.53 1479.7 L1838.53 1485.58 L1833.65 1485.58 L1833.65 1479.7 Z" fill="#000000" fill-rule="nonzero" fill-opacity="1" /><path clip-path="url(#clip740)" d="M1848.76 1451.02 L1867.12 1451.02 L1867.12 1454.96 L1853.04 1454.96 L1853.04 1463.43 Q1854.06 1463.08 1855.08 1462.92 Q1856.1 1462.73 1857.12 1462.73 Q1862.91 1462.73 1866.29 1465.9 Q1869.67 1469.08 1869.67 1474.49 Q1869.67 1480.07 1866.19 1483.17 Q1862.72 1486.25 1856.4 1486.25 Q1854.23 1486.25 1851.96 1485.88 Q1849.71 1485.51 1847.3 1484.77 L1847.3 1480.07 Q1849.39 1481.2 1851.61 1481.76 Q1853.83 1482.32 1856.31 1482.32 Q1860.31 1482.32 1862.65 1480.21 Q1864.99 1478.1 1864.99 1474.49 Q1864.99 1470.88 1862.65 1468.77 Q1860.31 1466.67 1856.31 1466.67 Q1854.43 1466.67 1852.56 1467.08 Q1850.71 1467.5 1848.76 1468.38 L1848.76 1451.02 Z" fill="#000000" fill-rule="nonzero" fill-opacity="1" /><path clip-path="url(#clip740)" d="M1888.88 1454.1 Q1885.27 1454.1 1883.44 1457.66 Q1881.63 1461.2 1881.63 1468.33 Q1881.63 1475.44 1883.44 1479.01 Q1885.27 1482.55 1888.88 1482.55 Q1892.51 1482.55 1894.32 1479.01 Q1896.15 1475.44 1896.15 1468.33 Q1896.15 1461.2 1894.32 1457.66 Q1892.51 1454.1 1888.88 1454.1 M1888.88 1450.39 Q1894.69 1450.39 1897.74 1455 Q1900.82 1459.58 1900.82 1468.33 Q1900.82 1477.06 1897.74 1481.67 Q1894.69 1486.25 1888.88 1486.25 Q1883.07 1486.25 1879.99 1481.67 Q1876.93 1477.06 1876.93 1468.33 Q1876.93 1459.58 1879.99 1455 Q1883.07 1450.39 1888.88 1450.39 Z" fill="#000000" fill-rule="nonzero" fill-opacity="1" /><path clip-path="url(#clip740)" d="M2080.42 1481.64 L2088.06 1481.64 L2088.06 1455.28 L2079.75 1456.95 L2079.75 1452.69 L2088.01 1451.02 L2092.69 1451.02 L2092.69 1481.64 L2100.32 1481.64 L2100.32 1485.58 L2080.42 1485.58 L2080.42 1481.64 Z" fill="#000000" fill-rule="nonzero" fill-opacity="1" /><path clip-path="url(#clip740)" d="M2109.77 1479.7 L2114.65 1479.7 L2114.65 1485.58 L2109.77 1485.58 L2109.77 1479.7 Z" fill="#000000" fill-rule="nonzero" fill-opacity="1" /><path clip-path="url(#clip740)" d="M2123.66 1451.02 L2145.88 1451.02 L2145.88 1453.01 L2133.33 1485.58 L2128.45 1485.58 L2140.25 1454.96 L2123.66 1454.96 L2123.66 1451.02 Z" fill="#000000" fill-rule="nonzero" fill-opacity="1" /><path clip-path="url(#clip740)" d="M2155.05 1451.02 L2173.4 1451.02 L2173.4 1454.96 L2159.33 1454.96 L2159.33 1463.43 Q2160.35 1463.08 2161.37 1462.92 Q2162.38 1462.73 2163.4 1462.73 Q2169.19 1462.73 2172.57 1465.9 Q2175.95 1469.08 2175.95 1474.49 Q2175.95 1480.07 2172.48 1483.17 Q2169 1486.25 2162.68 1486.25 Q2160.51 1486.25 2158.24 1485.88 Q2155.99 1485.51 2153.59 1484.77 L2153.59 1480.07 Q2155.67 1481.2 2157.89 1481.76 Q2160.12 1482.32 2162.59 1482.32 Q2166.6 1482.32 2168.93 1480.21 Q2171.27 1478.1 2171.27 1474.49 Q2171.27 1470.88 2168.93 1468.77 Q2166.6 1466.67 2162.59 1466.67 Q2160.72 1466.67 2158.84 1467.08 Q2156.99 1467.5 2155.05 1468.38 L2155.05 1451.02 Z" fill="#000000" fill-rule="nonzero" fill-opacity="1" /><path clip-path="url(#clip740)" d="M1215.77 1511.62 Q1215.77 1512.23 1215.51 1512.52 Q1215.29 1512.78 1214.93 1512.84 Q1214.58 1512.87 1213.65 1512.87 Q1212.07 1512.87 1211.07 1513 Q1210.07 1513.1 1209.46 1513.26 Q1208.85 1513.39 1208.49 1513.84 Q1208.17 1514.26 1208.01 1514.64 Q1207.88 1515.03 1207.66 1515.9 L1198.83 1551.04 Q1198.54 1552.07 1198.54 1552.58 Q1198.54 1553.13 1198.86 1553.36 Q1199.19 1553.58 1200.22 1553.68 Q1201.86 1553.84 1203.05 1553.84 Q1204.63 1553.84 1204.85 1554.06 Q1205.02 1554.29 1205.02 1554.61 Q1205.02 1555.19 1204.76 1555.51 Q1204.5 1555.8 1204.27 1555.84 Q1204.08 1555.87 1203.7 1555.87 L1194.87 1555.67 L1186.21 1555.87 Q1185.24 1555.87 1185.24 1555.13 Q1185.24 1554.64 1185.31 1554.39 Q1185.4 1554.1 1185.72 1554 Q1186.08 1553.87 1186.34 1553.87 Q1186.59 1553.84 1187.33 1553.84 Q1188.66 1553.84 1189.52 1553.81 Q1190.43 1553.74 1191.07 1553.58 Q1191.75 1553.39 1192.07 1553.23 Q1192.42 1553.03 1192.68 1552.61 Q1192.97 1552.16 1193.07 1551.81 Q1193.2 1551.46 1193.36 1550.71 L1202.25 1515.16 Q1202.37 1514.58 1202.37 1514.13 Q1202.37 1513.26 1201.34 1513.07 Q1200.35 1512.87 1197.83 1512.87 Q1197.06 1512.87 1196.74 1512.84 Q1196.45 1512.81 1196.19 1512.65 Q1195.97 1512.49 1195.97 1512.13 Q1195.97 1511.68 1196.09 1511.39 Q1196.22 1511.07 1196.45 1510.97 Q1196.71 1510.88 1196.87 1510.84 Q1197.03 1510.81 1197.29 1510.81 L1206.08 1511.01 L1214.77 1510.81 Q1215.77 1510.81 1215.77 1511.62 Z" fill="#000000" fill-rule="nonzero" fill-opacity="1" /><path clip-path="url(#clip740)" d="M1242.08 1548.04 Q1242.08 1548.2 1241.7 1548.88 Q1241.34 1549.53 1240.01 1551.18 Q1238.68 1552.82 1236.7 1554.74 Q1235.95 1555.48 1234.82 1556.52 Q1233.7 1557.56 1232.93 1558.23 L1232.16 1558.91 Q1229.23 1561.39 1226.66 1564.16 Q1226.84 1564.1 1227.16 1564.07 Q1227.48 1564.03 1227.7 1564.03 L1227.93 1564.03 Q1229.1 1564.03 1231.15 1564.82 Q1232.95 1565.4 1233.88 1565.4 Q1234.78 1565.4 1235.77 1565.09 Q1236.76 1564.77 1237.85 1563.85 Q1238.93 1562.92 1239.42 1561.53 Q1239.51 1561.3 1239.56 1561.23 Q1239.6 1561.14 1239.74 1561.05 Q1239.87 1560.94 1240.05 1560.94 Q1240.3 1560.94 1240.46 1561.07 Q1240.62 1561.21 1240.62 1561.39 Q1240.62 1561.8 1240.3 1562.61 Q1240.01 1563.42 1239.36 1564.43 Q1238.72 1565.45 1237.89 1566.37 Q1237.08 1567.27 1235.86 1567.91 Q1234.64 1568.51 1233.36 1568.51 Q1232.43 1568.51 1231.76 1568.06 Q1231.08 1567.63 1230.41 1566.8 Q1229.48 1565.74 1228.99 1565.4 Q1228.49 1565.04 1227.72 1565.04 Q1225.67 1565.04 1223.8 1567.91 Q1223.6 1568.31 1223.46 1568.4 Q1223.35 1568.51 1223.08 1568.51 Q1222.52 1568.49 1222.52 1568.04 Q1222.52 1567.86 1223.01 1567.07 Q1223.53 1566.26 1224.68 1564.84 Q1225.85 1563.42 1227.27 1562 L1231.42 1558.12 Q1236.02 1554.24 1237.85 1552.06 Q1237.08 1552.06 1236.74 1552.03 Q1236.43 1552.01 1235.79 1551.88 Q1235.16 1551.72 1234.28 1551.38 Q1232.23 1550.68 1231.38 1550.68 Q1231.15 1550.68 1230.9 1550.7 Q1230.65 1550.73 1230.09 1550.84 Q1229.55 1550.95 1229.1 1551.18 Q1228.65 1551.38 1228.17 1551.83 Q1227.7 1552.26 1227.45 1552.85 Q1227.39 1553.03 1227.34 1553.12 Q1227.29 1553.21 1227.16 1553.3 Q1227.05 1553.36 1226.87 1553.36 Q1226.6 1553.36 1226.44 1553.21 Q1226.3 1553.05 1226.3 1552.85 Q1226.3 1552.44 1226.71 1551.61 Q1227.11 1550.77 1227.79 1549.87 Q1228.47 1548.95 1229.57 1548.27 Q1230.68 1547.59 1231.89 1547.59 Q1232.62 1547.59 1233.22 1547.91 Q1233.86 1548.22 1234.17 1548.56 Q1234.51 1548.88 1235.07 1549.58 Q1235.55 1550.12 1235.77 1550.34 Q1236 1550.57 1236.45 1550.82 Q1236.92 1551.04 1237.44 1551.04 Q1238.3 1551.04 1239.09 1550.39 Q1239.87 1549.71 1240.89 1548.09 Q1241.16 1547.59 1241.59 1547.59 Q1242.08 1547.59 1242.08 1548.04 Z" fill="#000000" fill-rule="nonzero" fill-opacity="1" /><path clip-path="url(#clip740)" d="M1266.37 1539.38 Q1266.37 1528.24 1270.52 1519.25 Q1272.29 1515.48 1274.77 1512.33 Q1277.25 1509.17 1278.9 1507.78 Q1280.54 1506.4 1280.99 1506.4 Q1281.63 1506.4 1281.67 1507.04 Q1281.67 1507.37 1280.8 1508.17 Q1270.17 1518.99 1270.2 1539.38 Q1270.2 1559.83 1280.54 1570.23 Q1281.67 1571.36 1281.67 1571.71 Q1281.67 1572.36 1280.99 1572.36 Q1280.54 1572.36 1278.96 1571.04 Q1277.38 1569.72 1274.93 1566.69 Q1272.49 1563.66 1270.72 1559.96 Q1266.37 1550.97 1266.37 1539.38 Z" fill="#000000" fill-rule="nonzero" fill-opacity="1" /><path clip-path="url(#clip740)" d="M1286.68 1555.87 L1286.68 1553.84 Q1290.19 1553.84 1290.99 1553.42 Q1291.8 1552.97 1291.8 1550.84 L1291.8 1533.16 Q1291.8 1530.72 1290.93 1530.1 Q1290.09 1529.49 1286.68 1529.49 L1286.68 1527.43 L1295.95 1526.72 L1295.95 1533.65 Q1299.05 1526.72 1305.71 1526.72 Q1313.44 1526.72 1314.5 1533.16 Q1315.63 1530.65 1317.98 1528.69 Q1320.37 1526.72 1324.07 1526.72 Q1329.03 1526.72 1330.99 1529.17 Q1332.44 1530.81 1332.73 1532.65 Q1333.02 1534.48 1333.02 1539.25 L1333.02 1551.84 Q1333.09 1553.23 1334.15 1553.55 Q1335.21 1553.84 1338.18 1553.84 L1338.18 1555.87 Q1331.45 1555.67 1330.8 1555.67 Q1330.29 1555.67 1323.33 1555.87 L1323.33 1553.84 Q1326.84 1553.84 1327.64 1553.42 Q1328.48 1552.97 1328.48 1550.84 L1328.48 1535.48 Q1328.48 1532.13 1327.45 1530.17 Q1326.42 1528.17 1323.59 1528.17 Q1320.17 1528.17 1317.44 1531.04 Q1314.7 1533.9 1314.7 1538.73 L1314.7 1550.84 Q1314.7 1552.97 1315.5 1553.42 Q1316.34 1553.84 1319.85 1553.84 L1319.85 1555.87 Q1313.12 1555.67 1312.44 1555.67 Q1311.93 1555.67 1305 1555.87 L1305 1553.84 Q1308.51 1553.84 1309.32 1553.42 Q1310.16 1552.97 1310.16 1550.84 L1310.16 1535.48 Q1310.16 1532.13 1309.13 1530.17 Q1308.1 1528.17 1305.26 1528.17 Q1301.85 1528.17 1299.11 1531.04 Q1296.37 1533.9 1296.37 1538.73 L1296.37 1550.84 Q1296.37 1552.97 1297.18 1553.42 Q1298.02 1553.84 1301.49 1553.84 L1301.49 1555.87 Q1294.76 1555.67 1294.12 1555.67 Q1293.6 1555.67 1286.68 1555.87 Z" fill="#000000" fill-rule="nonzero" fill-opacity="1" /><path clip-path="url(#clip740)" d="M1340.8 1555.87 L1340.8 1553.84 Q1346.66 1553.71 1348.18 1549.39 L1361.83 1509.97 Q1362.09 1509.17 1362.38 1508.91 Q1362.67 1508.65 1363.41 1508.65 Q1363.8 1508.65 1364.02 1508.72 Q1364.28 1508.78 1364.44 1509.01 Q1364.6 1509.23 1364.67 1509.36 Q1364.73 1509.49 1364.92 1509.97 L1379.16 1551.2 Q1379.67 1552.84 1380.74 1553.36 Q1381.8 1553.84 1384.8 1553.84 L1385.95 1553.84 L1385.95 1555.87 Q1381.8 1555.67 1377.32 1555.67 Q1370.21 1555.67 1367.82 1555.87 L1367.82 1553.84 Q1373.3 1553.84 1373.3 1551.84 Q1373.3 1551.71 1373.1 1550.91 L1369.63 1540.83 L1353.33 1540.83 L1350.27 1549.46 Q1350.14 1549.72 1350.14 1550.46 Q1350.14 1551.84 1351.43 1552.84 Q1352.72 1553.84 1355.1 1553.84 L1355.1 1555.87 Q1348.76 1555.67 1347.5 1555.67 Q1345.34 1555.67 1340.8 1555.87 M1354.04 1538.8 L1368.89 1538.8 L1361.45 1517.35 L1354.04 1538.8 Z" fill="#000000" fill-rule="nonzero" fill-opacity="1" /><path clip-path="url(#clip740)" d="M1391.38 1571.71 Q1391.38 1571.39 1392.22 1570.59 Q1402.85 1559.76 1402.85 1539.38 Q1402.85 1518.93 1392.64 1508.59 Q1391.38 1507.4 1391.38 1507.04 Q1391.38 1506.4 1392.03 1506.4 Q1392.48 1506.4 1394.06 1507.72 Q1395.67 1509.04 1398.08 1512.07 Q1400.53 1515.1 1402.33 1518.8 Q1406.68 1527.78 1406.68 1539.38 Q1406.68 1550.52 1402.53 1559.51 Q1400.75 1563.28 1398.27 1566.43 Q1395.79 1569.59 1394.15 1570.97 Q1392.51 1572.36 1392.03 1572.36 Q1391.38 1572.36 1391.38 1571.71 Z" fill="#000000" fill-rule="nonzero" fill-opacity="1" /><polyline clip-path="url(#clip740)" style="stroke:#000000; stroke-linecap:round; stroke-linejoin:round; stroke-width:4; stroke-opacity:1; fill:none" points="249.195,1423.18 249.195,123.472 "/>
<polyline clip-path="url(#clip740)" style="stroke:#000000; stroke-linecap:round; stroke-linejoin:round; stroke-width:4; stroke-opacity:1; fill:none" points="249.195,1289.96 268.092,1289.96 "/>
<polyline clip-path="url(#clip740)" style="stroke:#000000; stroke-linecap:round; stroke-linejoin:round; stroke-width:4; stroke-opacity:1; fill:none" points="249.195,1117.75 268.092,1117.75 "/>
<polyline clip-path="url(#clip740)" style="stroke:#000000; stroke-linecap:round; stroke-linejoin:round; stroke-width:4; stroke-opacity:1; fill:none" points="249.195,945.537 268.092,945.537 "/>
<polyline clip-path="url(#clip740)" style="stroke:#000000; stroke-linecap:round; stroke-linejoin:round; stroke-width:4; stroke-opacity:1; fill:none" points="249.195,773.326 268.092,773.326 "/>
<polyline clip-path="url(#clip740)" style="stroke:#000000; stroke-linecap:round; stroke-linejoin:round; stroke-width:4; stroke-opacity:1; fill:none" points="249.195,601.115 268.092,601.115 "/>
<polyline clip-path="url(#clip740)" style="stroke:#000000; stroke-linecap:round; stroke-linejoin:round; stroke-width:4; stroke-opacity:1; fill:none" points="249.195,428.905 268.092,428.905 "/>
<polyline clip-path="url(#clip740)" style="stroke:#000000; stroke-linecap:round; stroke-linejoin:round; stroke-width:4; stroke-opacity:1; fill:none" points="249.195,256.694 268.092,256.694 "/>
<path clip-path="url(#clip740)" d="M120.88 1303.3 L137.2 1303.3 L137.2 1307.24 L115.256 1307.24 L115.256 1303.3 Q117.918 1300.55 122.501 1295.92 Q127.107 1291.27 128.288 1289.92 Q130.533 1287.4 131.413 1285.66 Q132.316 1283.9 132.316 1282.21 Q132.316 1279.46 130.371 1277.72 Q128.45 1275.99 125.348 1275.99 Q123.149 1275.99 120.695 1276.75 Q118.265 1277.52 115.487 1279.07 L115.487 1274.34 Q118.311 1273.21 120.765 1272.63 Q123.218 1272.05 125.255 1272.05 Q130.626 1272.05 133.82 1274.74 Q137.015 1277.42 137.015 1281.91 Q137.015 1284.04 136.204 1285.96 Q135.417 1287.86 133.311 1290.46 Q132.732 1291.13 129.63 1294.34 Q126.529 1297.54 120.88 1303.3 Z" fill="#000000" fill-rule="nonzero" fill-opacity="1" /><path clip-path="url(#clip740)" d="M147.015 1301.36 L151.899 1301.36 L151.899 1307.24 L147.015 1307.24 L147.015 1301.36 Z" fill="#000000" fill-rule="nonzero" fill-opacity="1" /><path clip-path="url(#clip740)" d="M166.112 1303.3 L182.431 1303.3 L182.431 1307.24 L160.487 1307.24 L160.487 1303.3 Q163.149 1300.55 167.732 1295.92 Q172.339 1291.27 173.519 1289.92 Q175.764 1287.4 176.644 1285.66 Q177.547 1283.9 177.547 1282.21 Q177.547 1279.46 175.602 1277.72 Q173.681 1275.99 170.579 1275.99 Q168.38 1275.99 165.927 1276.75 Q163.496 1277.52 160.718 1279.07 L160.718 1274.34 Q163.542 1273.21 165.996 1272.63 Q168.45 1272.05 170.487 1272.05 Q175.857 1272.05 179.051 1274.74 Q182.246 1277.42 182.246 1281.91 Q182.246 1284.04 181.436 1285.96 Q180.649 1287.86 178.542 1290.46 Q177.964 1291.13 174.862 1294.34 Q171.76 1297.54 166.112 1303.3 Z" fill="#000000" fill-rule="nonzero" fill-opacity="1" /><path clip-path="url(#clip740)" d="M192.292 1272.68 L210.649 1272.68 L210.649 1276.61 L196.575 1276.61 L196.575 1285.09 Q197.593 1284.74 198.612 1284.58 Q199.63 1284.39 200.649 1284.39 Q206.436 1284.39 209.815 1287.56 Q213.195 1290.73 213.195 1296.15 Q213.195 1301.73 209.723 1304.83 Q206.25 1307.91 199.931 1307.91 Q197.755 1307.91 195.487 1307.54 Q193.241 1307.17 190.834 1306.43 L190.834 1301.73 Q192.917 1302.86 195.139 1303.42 Q197.362 1303.97 199.838 1303.97 Q203.843 1303.97 206.181 1301.87 Q208.519 1299.76 208.519 1296.15 Q208.519 1292.54 206.181 1290.43 Q203.843 1288.33 199.838 1288.33 Q197.963 1288.33 196.088 1288.74 Q194.237 1289.16 192.292 1290.04 L192.292 1272.68 Z" fill="#000000" fill-rule="nonzero" fill-opacity="1" /><path clip-path="url(#clip740)" d="M119.885 1131.09 L136.204 1131.09 L136.204 1135.03 L114.26 1135.03 L114.26 1131.09 Q116.922 1128.34 121.505 1123.71 Q126.112 1119.06 127.292 1117.71 Q129.538 1115.19 130.417 1113.45 Q131.32 1111.69 131.32 1110 Q131.32 1107.25 129.376 1105.51 Q127.455 1103.78 124.353 1103.78 Q122.154 1103.78 119.7 1104.54 Q117.269 1105.31 114.492 1106.86 L114.492 1102.13 Q117.316 1101 119.769 1100.42 Q122.223 1099.84 124.26 1099.84 Q129.63 1099.84 132.825 1102.53 Q136.019 1105.21 136.019 1109.7 Q136.019 1111.83 135.209 1113.75 Q134.422 1115.65 132.316 1118.24 Q131.737 1118.92 128.635 1122.13 Q125.533 1125.33 119.885 1131.09 Z" fill="#000000" fill-rule="nonzero" fill-opacity="1" /><path clip-path="url(#clip740)" d="M146.019 1129.15 L150.903 1129.15 L150.903 1135.03 L146.019 1135.03 L146.019 1129.15 Z" fill="#000000" fill-rule="nonzero" fill-opacity="1" /><path clip-path="url(#clip740)" d="M161.135 1100.47 L179.491 1100.47 L179.491 1104.4 L165.417 1104.4 L165.417 1112.87 Q166.436 1112.53 167.454 1112.37 Q168.473 1112.18 169.491 1112.18 Q175.278 1112.18 178.658 1115.35 Q182.038 1118.52 182.038 1123.94 Q182.038 1129.52 178.565 1132.62 Q175.093 1135.7 168.774 1135.7 Q166.598 1135.7 164.329 1135.33 Q162.084 1134.96 159.677 1134.22 L159.677 1129.52 Q161.76 1130.65 163.982 1131.21 Q166.204 1131.76 168.681 1131.76 Q172.686 1131.76 175.024 1129.66 Q177.362 1127.55 177.362 1123.94 Q177.362 1120.33 175.024 1118.22 Q172.686 1116.12 168.681 1116.12 Q166.806 1116.12 164.931 1116.53 Q163.079 1116.95 161.135 1117.83 L161.135 1100.47 Z" fill="#000000" fill-rule="nonzero" fill-opacity="1" /><path clip-path="url(#clip740)" d="M201.25 1103.55 Q197.639 1103.55 195.811 1107.11 Q194.005 1110.65 194.005 1117.78 Q194.005 1124.89 195.811 1128.45 Q197.639 1131.99 201.25 1131.99 Q204.885 1131.99 206.69 1128.45 Q208.519 1124.89 208.519 1117.78 Q208.519 1110.65 206.69 1107.11 Q204.885 1103.55 201.25 1103.55 M201.25 1099.84 Q207.061 1099.84 210.116 1104.45 Q213.195 1109.03 213.195 1117.78 Q213.195 1126.51 210.116 1131.12 Q207.061 1135.7 201.25 1135.7 Q195.44 1135.7 192.362 1131.12 Q189.306 1126.51 189.306 1117.78 Q189.306 1109.03 192.362 1104.45 Q195.44 1099.84 201.25 1099.84 Z" fill="#000000" fill-rule="nonzero" fill-opacity="1" /><path clip-path="url(#clip740)" d="M120.88 958.881 L137.2 958.881 L137.2 962.817 L115.256 962.817 L115.256 958.881 Q117.918 956.127 122.501 951.497 Q127.107 946.844 128.288 945.502 Q130.533 942.979 131.413 941.243 Q132.316 939.483 132.316 937.794 Q132.316 935.039 130.371 933.303 Q128.45 931.567 125.348 931.567 Q123.149 931.567 120.695 932.331 Q118.265 933.095 115.487 934.645 L115.487 929.923 Q118.311 928.789 120.765 928.21 Q123.218 927.632 125.255 927.632 Q130.626 927.632 133.82 930.317 Q137.015 933.002 137.015 937.493 Q137.015 939.622 136.204 941.544 Q135.417 943.442 133.311 946.034 Q132.732 946.706 129.63 949.923 Q126.529 953.118 120.88 958.881 Z" fill="#000000" fill-rule="nonzero" fill-opacity="1" /><path clip-path="url(#clip740)" d="M147.015 956.937 L151.899 956.937 L151.899 962.817 L147.015 962.817 L147.015 956.937 Z" fill="#000000" fill-rule="nonzero" fill-opacity="1" /><path clip-path="url(#clip740)" d="M160.903 928.257 L183.126 928.257 L183.126 930.247 L170.579 962.817 L165.695 962.817 L177.501 932.192 L160.903 932.192 L160.903 928.257 Z" fill="#000000" fill-rule="nonzero" fill-opacity="1" /><path clip-path="url(#clip740)" d="M192.292 928.257 L210.649 928.257 L210.649 932.192 L196.575 932.192 L196.575 940.664 Q197.593 940.317 198.612 940.155 Q199.63 939.969 200.649 939.969 Q206.436 939.969 209.815 943.141 Q213.195 946.312 213.195 951.729 Q213.195 957.307 209.723 960.409 Q206.25 963.488 199.931 963.488 Q197.755 963.488 195.487 963.117 Q193.241 962.747 190.834 962.006 L190.834 957.307 Q192.917 958.442 195.139 958.997 Q197.362 959.553 199.838 959.553 Q203.843 959.553 206.181 957.446 Q208.519 955.34 208.519 951.729 Q208.519 948.118 206.181 946.011 Q203.843 943.905 199.838 943.905 Q197.963 943.905 196.088 944.321 Q194.237 944.738 192.292 945.618 L192.292 928.257 Z" fill="#000000" fill-rule="nonzero" fill-opacity="1" /><path clip-path="url(#clip740)" d="M130.024 771.972 Q133.38 772.689 135.255 774.958 Q137.154 777.226 137.154 780.56 Q137.154 785.675 133.635 788.476 Q130.117 791.277 123.635 791.277 Q121.459 791.277 119.144 790.837 Q116.853 790.421 114.399 789.564 L114.399 785.05 Q116.343 786.185 118.658 786.763 Q120.973 787.342 123.496 787.342 Q127.894 787.342 130.186 785.606 Q132.501 783.87 132.501 780.56 Q132.501 777.504 130.348 775.791 Q128.218 774.055 124.399 774.055 L120.371 774.055 L120.371 770.213 L124.584 770.213 Q128.033 770.213 129.862 768.847 Q131.691 767.458 131.691 764.865 Q131.691 762.203 129.792 760.791 Q127.917 759.356 124.399 759.356 Q122.478 759.356 120.279 759.773 Q118.08 760.189 115.441 761.069 L115.441 756.902 Q118.103 756.162 120.418 755.791 Q122.755 755.421 124.816 755.421 Q130.14 755.421 133.242 757.852 Q136.343 760.259 136.343 764.379 Q136.343 767.25 134.7 769.24 Q133.056 771.208 130.024 771.972 Z" fill="#000000" fill-rule="nonzero" fill-opacity="1" /><path clip-path="url(#clip740)" d="M146.019 784.726 L150.903 784.726 L150.903 790.606 L146.019 790.606 L146.019 784.726 Z" fill="#000000" fill-rule="nonzero" fill-opacity="1" /><path clip-path="url(#clip740)" d="M171.089 759.125 Q167.477 759.125 165.649 762.689 Q163.843 766.231 163.843 773.361 Q163.843 780.467 165.649 784.032 Q167.477 787.574 171.089 787.574 Q174.723 787.574 176.528 784.032 Q178.357 780.467 178.357 773.361 Q178.357 766.231 176.528 762.689 Q174.723 759.125 171.089 759.125 M171.089 755.421 Q176.899 755.421 179.954 760.027 Q183.033 764.611 183.033 773.361 Q183.033 782.088 179.954 786.694 Q176.899 791.277 171.089 791.277 Q165.278 791.277 162.2 786.694 Q159.144 782.088 159.144 773.361 Q159.144 764.611 162.2 760.027 Q165.278 755.421 171.089 755.421 Z" fill="#000000" fill-rule="nonzero" fill-opacity="1" /><path clip-path="url(#clip740)" d="M201.25 759.125 Q197.639 759.125 195.811 762.689 Q194.005 766.231 194.005 773.361 Q194.005 780.467 195.811 784.032 Q197.639 787.574 201.25 787.574 Q204.885 787.574 206.69 784.032 Q208.519 780.467 208.519 773.361 Q208.519 766.231 206.69 762.689 Q204.885 759.125 201.25 759.125 M201.25 755.421 Q207.061 755.421 210.116 760.027 Q213.195 764.611 213.195 773.361 Q213.195 782.088 210.116 786.694 Q207.061 791.277 201.25 791.277 Q195.44 791.277 192.362 786.694 Q189.306 782.088 189.306 773.361 Q189.306 764.611 192.362 760.027 Q195.44 755.421 201.25 755.421 Z" fill="#000000" fill-rule="nonzero" fill-opacity="1" /><path clip-path="url(#clip740)" d="M131.019 599.761 Q134.376 600.479 136.251 602.747 Q138.149 605.016 138.149 608.349 Q138.149 613.465 134.63 616.266 Q131.112 619.067 124.63 619.067 Q122.455 619.067 120.14 618.627 Q117.848 618.21 115.394 617.354 L115.394 612.84 Q117.339 613.974 119.654 614.553 Q121.968 615.132 124.492 615.132 Q128.89 615.132 131.181 613.395 Q133.496 611.659 133.496 608.349 Q133.496 605.294 131.343 603.581 Q129.214 601.845 125.394 601.845 L121.367 601.845 L121.367 598.002 L125.58 598.002 Q129.029 598.002 130.857 596.636 Q132.686 595.247 132.686 592.655 Q132.686 589.993 130.788 588.581 Q128.913 587.146 125.394 587.146 Q123.473 587.146 121.274 587.562 Q119.075 587.979 116.436 588.859 L116.436 584.692 Q119.098 583.951 121.413 583.581 Q123.751 583.21 125.811 583.21 Q131.135 583.21 134.237 585.641 Q137.339 588.048 137.339 592.169 Q137.339 595.039 135.695 597.03 Q134.052 598.997 131.019 599.761 Z" fill="#000000" fill-rule="nonzero" fill-opacity="1" /><path clip-path="url(#clip740)" d="M147.015 612.516 L151.899 612.516 L151.899 618.395 L147.015 618.395 L147.015 612.516 Z" fill="#000000" fill-rule="nonzero" fill-opacity="1" /><path clip-path="url(#clip740)" d="M166.112 614.46 L182.431 614.46 L182.431 618.395 L160.487 618.395 L160.487 614.46 Q163.149 611.706 167.732 607.076 Q172.339 602.423 173.519 601.081 Q175.764 598.558 176.644 596.821 Q177.547 595.062 177.547 593.372 Q177.547 590.618 175.602 588.882 Q173.681 587.146 170.579 587.146 Q168.38 587.146 165.927 587.909 Q163.496 588.673 160.718 590.224 L160.718 585.502 Q163.542 584.368 165.996 583.789 Q168.45 583.21 170.487 583.21 Q175.857 583.21 179.051 585.896 Q182.246 588.581 182.246 593.071 Q182.246 595.201 181.436 597.122 Q180.649 599.021 178.542 601.613 Q177.964 602.284 174.862 605.502 Q171.76 608.696 166.112 614.46 Z" fill="#000000" fill-rule="nonzero" fill-opacity="1" /><path clip-path="url(#clip740)" d="M192.292 583.835 L210.649 583.835 L210.649 587.771 L196.575 587.771 L196.575 596.243 Q197.593 595.896 198.612 595.733 Q199.63 595.548 200.649 595.548 Q206.436 595.548 209.815 598.72 Q213.195 601.891 213.195 607.307 Q213.195 612.886 209.723 615.988 Q206.25 619.067 199.931 619.067 Q197.755 619.067 195.487 618.696 Q193.241 618.326 190.834 617.585 L190.834 612.886 Q192.917 614.02 195.139 614.576 Q197.362 615.132 199.838 615.132 Q203.843 615.132 206.181 613.025 Q208.519 610.919 208.519 607.307 Q208.519 603.696 206.181 601.59 Q203.843 599.483 199.838 599.483 Q197.963 599.483 196.088 599.9 Q194.237 600.317 192.292 601.196 L192.292 583.835 Z" fill="#000000" fill-rule="nonzero" fill-opacity="1" /><path clip-path="url(#clip740)" d="M130.024 427.551 Q133.38 428.268 135.255 430.537 Q137.154 432.805 137.154 436.139 Q137.154 441.254 133.635 444.055 Q130.117 446.856 123.635 446.856 Q121.459 446.856 119.144 446.416 Q116.853 446 114.399 445.143 L114.399 440.629 Q116.343 441.764 118.658 442.342 Q120.973 442.921 123.496 442.921 Q127.894 442.921 130.186 441.185 Q132.501 439.449 132.501 436.139 Q132.501 433.083 130.348 431.37 Q128.218 429.634 124.399 429.634 L120.371 429.634 L120.371 425.791 L124.584 425.791 Q128.033 425.791 129.862 424.426 Q131.691 423.037 131.691 420.444 Q131.691 417.782 129.792 416.37 Q127.917 414.935 124.399 414.935 Q122.478 414.935 120.279 415.352 Q118.08 415.768 115.441 416.648 L115.441 412.481 Q118.103 411.741 120.418 411.37 Q122.755 411 124.816 411 Q130.14 411 133.242 413.43 Q136.343 415.838 136.343 419.958 Q136.343 422.828 134.7 424.819 Q133.056 426.787 130.024 427.551 Z" fill="#000000" fill-rule="nonzero" fill-opacity="1" /><path clip-path="url(#clip740)" d="M146.019 440.305 L150.903 440.305 L150.903 446.185 L146.019 446.185 L146.019 440.305 Z" fill="#000000" fill-rule="nonzero" fill-opacity="1" /><path clip-path="url(#clip740)" d="M161.135 411.625 L179.491 411.625 L179.491 415.56 L165.417 415.56 L165.417 424.032 Q166.436 423.685 167.454 423.523 Q168.473 423.338 169.491 423.338 Q175.278 423.338 178.658 426.509 Q182.038 429.68 182.038 435.097 Q182.038 440.676 178.565 443.777 Q175.093 446.856 168.774 446.856 Q166.598 446.856 164.329 446.486 Q162.084 446.115 159.677 445.375 L159.677 440.676 Q161.76 441.81 163.982 442.365 Q166.204 442.921 168.681 442.921 Q172.686 442.921 175.024 440.814 Q177.362 438.708 177.362 435.097 Q177.362 431.486 175.024 429.379 Q172.686 427.273 168.681 427.273 Q166.806 427.273 164.931 427.69 Q163.079 428.106 161.135 428.986 L161.135 411.625 Z" fill="#000000" fill-rule="nonzero" fill-opacity="1" /><path clip-path="url(#clip740)" d="M201.25 414.704 Q197.639 414.704 195.811 418.268 Q194.005 421.81 194.005 428.94 Q194.005 436.046 195.811 439.611 Q197.639 443.152 201.25 443.152 Q204.885 443.152 206.69 439.611 Q208.519 436.046 208.519 428.94 Q208.519 421.81 206.69 418.268 Q204.885 414.704 201.25 414.704 M201.25 411 Q207.061 411 210.116 415.606 Q213.195 420.19 213.195 428.94 Q213.195 437.666 210.116 442.273 Q207.061 446.856 201.25 446.856 Q195.44 446.856 192.362 442.273 Q189.306 437.666 189.306 428.94 Q189.306 420.19 192.362 415.606 Q195.44 411 201.25 411 Z" fill="#000000" fill-rule="nonzero" fill-opacity="1" /><path clip-path="url(#clip740)" d="M131.019 255.34 Q134.376 256.058 136.251 258.326 Q138.149 260.595 138.149 263.928 Q138.149 269.044 134.63 271.845 Q131.112 274.646 124.63 274.646 Q122.455 274.646 120.14 274.206 Q117.848 273.789 115.394 272.933 L115.394 268.419 Q117.339 269.553 119.654 270.132 Q121.968 270.71 124.492 270.71 Q128.89 270.71 131.181 268.974 Q133.496 267.238 133.496 263.928 Q133.496 260.872 131.343 259.159 Q129.214 257.423 125.394 257.423 L121.367 257.423 L121.367 253.581 L125.58 253.581 Q129.029 253.581 130.857 252.215 Q132.686 250.826 132.686 248.234 Q132.686 245.572 130.788 244.16 Q128.913 242.724 125.394 242.724 Q123.473 242.724 121.274 243.141 Q119.075 243.558 116.436 244.437 L116.436 240.271 Q119.098 239.53 121.413 239.16 Q123.751 238.789 125.811 238.789 Q131.135 238.789 134.237 241.22 Q137.339 243.627 137.339 247.748 Q137.339 250.618 135.695 252.609 Q134.052 254.576 131.019 255.34 Z" fill="#000000" fill-rule="nonzero" fill-opacity="1" /><path clip-path="url(#clip740)" d="M147.015 268.095 L151.899 268.095 L151.899 273.974 L147.015 273.974 L147.015 268.095 Z" fill="#000000" fill-rule="nonzero" fill-opacity="1" /><path clip-path="url(#clip740)" d="M160.903 239.414 L183.126 239.414 L183.126 241.405 L170.579 273.974 L165.695 273.974 L177.501 243.349 L160.903 243.349 L160.903 239.414 Z" fill="#000000" fill-rule="nonzero" fill-opacity="1" /><path clip-path="url(#clip740)" d="M192.292 239.414 L210.649 239.414 L210.649 243.349 L196.575 243.349 L196.575 251.822 Q197.593 251.474 198.612 251.312 Q199.63 251.127 200.649 251.127 Q206.436 251.127 209.815 254.298 Q213.195 257.47 213.195 262.886 Q213.195 268.465 209.723 271.567 Q206.25 274.646 199.931 274.646 Q197.755 274.646 195.487 274.275 Q193.241 273.905 190.834 273.164 L190.834 268.465 Q192.917 269.599 195.139 270.155 Q197.362 270.71 199.838 270.71 Q203.843 270.71 206.181 268.604 Q208.519 266.497 208.519 262.886 Q208.519 259.275 206.181 257.169 Q203.843 255.062 199.838 255.062 Q197.963 255.062 196.088 255.479 Q194.237 255.896 192.292 256.775 L192.292 239.414 Z" fill="#000000" fill-rule="nonzero" fill-opacity="1" /><path clip-path="url(#clip740)" d="M21.8332 857.255 Q22.4452 857.255 22.735 857.512 Q22.9927 857.738 23.0571 858.092 Q23.0893 858.446 23.0893 859.38 Q23.0893 860.958 23.2181 861.957 Q23.3147 862.955 23.4757 863.567 Q23.6046 864.179 24.0554 864.533 Q24.4741 864.855 24.8606 865.016 Q25.2471 865.145 26.1166 865.371 L61.2532 874.195 Q62.2838 874.485 62.7991 874.485 Q63.3466 874.485 63.572 874.163 Q63.7975 873.841 63.8941 872.81 Q64.0551 871.168 64.0551 869.976 Q64.0551 868.398 64.2806 868.173 Q64.506 868.012 64.8281 868.012 Q65.4078 868.012 65.7298 868.269 Q66.0197 868.527 66.0519 868.752 Q66.0841 868.946 66.0841 869.332 L65.8909 878.156 L66.0841 886.82 Q66.0841 887.786 65.3434 887.786 Q64.8603 887.786 64.6026 887.722 Q64.3128 887.625 64.2162 887.303 Q64.0873 886.949 64.0873 886.691 Q64.0551 886.433 64.0551 885.693 Q64.0551 884.372 64.0229 883.503 Q63.9585 882.601 63.7975 881.957 Q63.6042 881.28 63.4432 880.958 Q63.25 880.604 62.8313 880.346 Q62.3804 880.057 62.0262 879.96 Q61.6719 879.831 60.9312 879.67 L25.3759 870.781 Q24.7962 870.652 24.3453 870.652 Q23.4757 870.652 23.2825 871.683 Q23.0893 872.681 23.0893 875.193 Q23.0893 875.966 23.0571 876.288 Q23.0249 876.578 22.8638 876.836 Q22.7028 877.061 22.3485 877.061 Q21.8977 877.061 21.6078 876.933 Q21.2857 876.804 21.1891 876.578 Q21.0925 876.321 21.0603 876.16 Q21.0281 875.999 21.0281 875.741 L21.2213 866.949 L21.0281 858.253 Q21.0281 857.255 21.8332 857.255 Z" fill="#000000" fill-rule="nonzero" fill-opacity="1" /><path clip-path="url(#clip740)" d="M61.7769 833.513 Q63.0394 833.513 63.7157 834.145 Q64.3695 834.776 64.3695 835.632 Q64.3695 836.331 63.9637 836.715 Q63.5579 837.075 63.0169 837.075 Q62.2278 837.075 61.5966 836.444 Q60.9654 835.79 60.9428 834.843 Q60.1087 835.159 59.6127 835.993 Q59.0942 836.827 58.9589 837.571 Q58.8237 838.293 58.8237 839.014 Q58.8237 840.434 59.2745 841.516 Q59.7254 842.599 60.4243 843.14 Q61.1006 843.681 61.7544 843.929 Q62.4082 844.177 62.9718 844.177 Q63.4678 844.177 63.8735 844.064 Q64.2568 843.929 64.5499 843.613 Q64.8204 843.297 65.0008 843.072 Q65.1811 842.824 65.3389 842.283 Q65.4967 841.742 65.5644 841.516 Q65.6094 841.291 65.7447 840.66 Q66.0152 839.352 66.173 838.766 Q66.3083 838.18 66.6916 837.413 Q67.0748 836.624 67.6835 836.038 Q69.1038 834.618 71.0651 834.618 Q71.7865 834.618 72.6657 834.866 Q73.545 835.091 74.6496 835.745 Q75.7543 836.399 76.6335 837.391 Q77.5127 838.383 78.1214 840.096 Q78.7301 841.787 78.7301 843.906 Q78.7301 846.859 77.4902 848.685 Q76.2277 850.512 74.2438 850.512 Q72.801 850.512 72.012 849.723 Q71.2004 848.933 71.2004 847.919 Q71.2004 847.152 71.6287 846.679 Q72.0345 846.206 72.801 846.206 Q73.838 846.206 74.6271 847.04 Q75.4161 847.874 75.2583 849.114 Q77.6931 848.054 77.6931 843.861 Q77.6931 842.283 77.2873 841.066 Q76.8589 839.826 76.2728 839.149 Q75.6641 838.45 74.9202 838 Q74.1762 837.549 73.6126 837.413 Q73.049 837.256 72.6207 837.256 Q71.8767 837.256 71.3131 837.549 Q70.7495 837.842 70.4339 838.248 Q70.0957 838.631 69.8252 839.375 Q69.5321 840.096 69.4194 840.615 Q69.3067 841.133 69.1263 842.058 Q69.0361 842.486 68.9911 842.756 Q68.9234 843.027 68.7431 843.591 Q68.5402 844.132 68.3373 844.515 Q68.1344 844.876 67.7737 845.349 Q67.413 845.822 66.9846 846.115 Q66.5563 846.409 65.9251 846.611 Q65.2938 846.814 64.5499 846.814 Q63.8735 846.814 63.062 846.611 Q62.2504 846.386 61.3035 845.822 Q60.3567 845.236 59.5902 844.402 Q58.8237 843.568 58.3277 842.17 Q57.8092 840.75 57.8092 839.014 Q57.8092 836.489 58.9815 835.001 Q60.1312 833.513 61.7769 833.513 Z" fill="#000000" fill-rule="nonzero" fill-opacity="1" /><path clip-path="url(#clip740)" d="M49.5947 809.208 Q38.4515 809.208 29.466 805.053 Q25.6979 803.282 22.5418 800.802 Q19.3856 798.322 18.0007 796.68 Q16.6159 795.037 16.6159 794.586 Q16.6159 793.942 17.26 793.91 Q17.5821 793.91 18.3872 794.78 Q29.2084 805.408 49.5947 805.375 Q70.0454 805.375 80.4479 795.037 Q81.5751 793.91 81.9294 793.91 Q82.5735 793.91 82.5735 794.586 Q82.5735 795.037 81.2531 796.615 Q79.9326 798.193 76.9053 800.641 Q73.8779 803.089 70.1742 804.86 Q61.1888 809.208 49.5947 809.208 Z" fill="#000000" fill-rule="nonzero" fill-opacity="1" /><path clip-path="url(#clip740)" d="M66.0841 788.896 L64.0551 788.896 Q64.0551 785.386 63.6364 784.581 Q63.1856 783.776 61.06 783.776 L43.379 783.776 Q40.9313 783.776 40.3194 784.645 Q39.7075 785.483 39.7075 788.896 L37.6463 788.896 L36.9378 779.621 L43.8621 779.621 Q36.9378 776.529 36.9378 769.863 Q36.9378 762.133 43.379 761.071 Q40.8669 759.943 38.9023 757.592 Q36.9378 755.209 36.9378 751.505 Q36.9378 746.546 39.3854 744.581 Q41.0279 743.132 42.8637 742.842 Q44.6994 742.552 49.4659 742.552 L62.0584 742.552 Q63.4432 742.488 63.7653 741.425 Q64.0551 740.362 64.0551 737.399 L66.0841 737.399 Q65.8909 744.13 65.8909 744.774 Q65.8909 745.29 66.0841 752.246 L64.0551 752.246 Q64.0551 748.736 63.6364 747.931 Q63.1856 747.093 61.06 747.093 L45.6978 747.093 Q42.3484 747.093 40.3838 748.124 Q38.3871 749.154 38.3871 751.989 Q38.3871 755.402 41.2534 758.14 Q44.1197 760.877 48.9506 760.877 L61.06 760.877 Q63.1856 760.877 63.6364 760.072 Q64.0551 759.235 64.0551 755.724 L66.0841 755.724 Q65.8909 762.455 65.8909 763.132 Q65.8909 763.647 66.0841 770.571 L64.0551 770.571 Q64.0551 767.061 63.6364 766.256 Q63.1856 765.418 61.06 765.418 L45.6978 765.418 Q42.3484 765.418 40.3838 766.449 Q38.3871 767.48 38.3871 770.314 Q38.3871 773.728 41.2534 776.465 Q44.1197 779.202 48.9506 779.202 L61.06 779.202 Q63.1856 779.202 63.6364 778.397 Q64.0551 777.56 64.0551 774.082 L66.0841 774.082 Q65.8909 780.813 65.8909 781.457 Q65.8909 781.972 66.0841 788.896 Z" fill="#000000" fill-rule="nonzero" fill-opacity="1" /><path clip-path="url(#clip740)" d="M66.0841 734.774 L64.0551 734.774 Q63.9263 728.912 59.6107 727.398 L20.1907 713.743 Q19.3856 713.485 19.1279 713.196 Q18.8703 712.906 18.8703 712.165 Q18.8703 711.779 18.9347 711.553 Q18.9991 711.295 19.2246 711.134 Q19.45 710.973 19.5788 710.909 Q19.7077 710.845 20.1907 710.651 L61.4142 696.416 Q63.0567 695.901 63.572 694.838 Q64.0551 693.775 64.0551 690.78 L64.0551 689.621 L66.0841 689.621 Q65.8909 693.775 65.8909 698.252 Q65.8909 705.37 66.0841 707.753 L64.0551 707.753 Q64.0551 702.278 62.0584 702.278 Q61.9295 702.278 61.1244 702.471 L51.044 705.949 L51.044 722.245 L59.6751 725.305 Q59.9328 725.434 60.6735 725.434 Q62.0584 725.434 63.0567 724.146 Q64.0551 722.857 64.0551 720.474 L66.0841 720.474 Q65.8909 726.819 65.8909 728.075 Q65.8909 730.233 66.0841 734.774 M49.015 721.537 L49.015 706.69 L27.5659 714.13 L49.015 721.537 Z" fill="#000000" fill-rule="nonzero" fill-opacity="1" /><path clip-path="url(#clip740)" d="M81.9294 684.193 Q81.6073 684.193 80.8022 683.356 Q69.981 672.728 49.5947 672.728 Q29.144 672.728 18.8059 682.937 Q17.6143 684.193 17.26 684.193 Q16.6159 684.193 16.6159 683.549 Q16.6159 683.098 17.9363 681.52 Q19.2568 679.91 22.2841 677.495 Q25.3115 675.047 29.0151 673.243 Q38.0006 668.896 49.5947 668.896 Q60.7379 668.896 69.7234 673.05 Q73.4914 674.822 76.6476 677.301 Q79.8038 679.781 81.1886 681.424 Q82.5735 683.066 82.5735 683.549 Q82.5735 684.193 81.9294 684.193 Z" fill="#000000" fill-rule="nonzero" fill-opacity="1" /><path clip-path="url(#clip740)" d="M1095.13 18.9018 Q1095.13 19.6806 1094.8 20.0495 Q1094.52 20.3774 1094.07 20.4594 Q1093.62 20.5004 1092.43 20.5004 Q1090.42 20.5004 1089.15 20.6643 Q1087.88 20.7873 1087.1 20.9922 Q1086.32 21.1562 1085.87 21.7301 Q1085.46 22.2629 1085.25 22.7548 Q1085.09 23.2467 1084.8 24.3534 L1073.57 69.0727 Q1073.2 70.3843 1073.2 71.0402 Q1073.2 71.737 1073.61 72.0239 Q1074.02 72.3108 1075.33 72.4338 Q1077.43 72.6387 1078.94 72.6387 Q1080.95 72.6387 1081.24 72.9257 Q1081.44 73.2126 1081.44 73.6225 Q1081.44 74.3603 1081.11 74.7702 Q1080.79 75.1391 1080.5 75.1801 Q1080.25 75.2211 1079.76 75.2211 L1068.53 74.9751 L1057.5 75.2211 Q1056.27 75.2211 1056.27 74.2783 Q1056.27 73.6635 1056.36 73.3356 Q1056.48 72.9667 1056.89 72.8437 Q1057.34 72.6797 1057.67 72.6797 Q1058 72.6387 1058.94 72.6387 Q1060.62 72.6387 1061.73 72.5977 Q1062.87 72.5158 1063.69 72.3108 Q1064.55 72.0649 1064.96 71.8599 Q1065.42 71.614 1065.74 71.0811 Q1066.11 70.5073 1066.24 70.0564 Q1066.4 69.6055 1066.6 68.6628 L1077.92 23.4106 Q1078.08 22.6728 1078.08 22.099 Q1078.08 20.9922 1076.77 20.7463 Q1075.5 20.5004 1072.3 20.5004 Q1071.32 20.5004 1070.91 20.4594 Q1070.54 20.4184 1070.21 20.2135 Q1069.92 20.0085 1069.92 19.5576 Q1069.92 18.9838 1070.09 18.6149 Q1070.25 18.205 1070.54 18.082 Q1070.87 17.959 1071.07 17.9181 Q1071.28 17.8771 1071.6 17.8771 L1082.79 18.123 L1093.86 17.8771 Q1095.13 17.8771 1095.13 18.9018 Z" fill="#000000" fill-rule="nonzero" fill-opacity="1" /><path clip-path="url(#clip740)" d="M1128.62 65.2566 Q1128.62 65.4575 1128.14 66.3183 Q1127.68 67.1503 1125.98 69.2449 Q1124.29 71.3395 1121.77 73.7783 Q1120.82 74.7252 1119.39 76.045 Q1117.95 77.3649 1116.98 78.2256 L1116 79.0864 Q1112.27 82.2426 1109 85.7718 Q1109.23 85.6857 1109.63 85.657 Q1110.03 85.5996 1110.32 85.5996 L1110.61 85.5996 Q1112.1 85.5996 1114.71 86.6039 Q1117 87.3499 1118.18 87.3499 Q1119.33 87.3499 1120.59 86.9482 Q1121.85 86.5465 1123.23 85.3701 Q1124.61 84.1937 1125.24 82.4148 Q1125.35 82.1278 1125.41 82.0418 Q1125.47 81.927 1125.64 81.8122 Q1125.81 81.6687 1126.04 81.6687 Q1126.36 81.6687 1126.56 81.8409 Q1126.76 82.0131 1126.76 82.2426 Q1126.76 82.7591 1126.36 83.792 Q1125.98 84.8249 1125.15 86.1161 Q1124.35 87.4072 1123.29 88.5836 Q1122.25 89.7313 1120.71 90.5347 Q1119.16 91.3094 1117.52 91.3094 Q1116.34 91.3094 1115.48 90.7356 Q1114.62 90.1904 1113.76 89.1288 Q1112.59 87.7803 1111.95 87.3499 Q1111.32 86.8908 1110.35 86.8908 Q1107.74 86.8908 1105.35 90.5347 Q1105.1 91.0512 1104.92 91.166 Q1104.78 91.3094 1104.44 91.3094 Q1103.72 91.2807 1103.72 90.7069 Q1103.72 90.4773 1104.35 89.4731 Q1105.01 88.4402 1106.47 86.6326 Q1107.97 84.8249 1109.77 83.0173 L1115.05 78.0822 Q1120.91 73.1471 1123.23 70.3639 Q1122.25 70.3639 1121.82 70.3352 Q1121.42 70.3065 1120.62 70.1344 Q1119.82 69.9335 1118.7 69.5031 Q1116.09 68.6137 1115 68.6137 Q1114.71 68.6137 1114.39 68.6424 Q1114.08 68.671 1113.36 68.8145 Q1112.67 68.958 1112.1 69.2449 Q1111.52 69.5031 1110.92 70.077 Q1110.32 70.6221 1110 71.3681 Q1109.92 71.5977 1109.86 71.7125 Q1109.8 71.8272 1109.63 71.942 Q1109.49 72.0281 1109.26 72.0281 Q1108.91 72.0281 1108.71 71.8272 Q1108.54 71.6264 1108.54 71.3681 Q1108.54 70.8517 1109.06 69.7901 Q1109.57 68.7284 1110.43 67.5807 Q1111.29 66.4043 1112.7 65.5436 Q1114.11 64.6828 1115.66 64.6828 Q1116.57 64.6828 1117.35 65.0845 Q1118.15 65.4862 1118.55 65.9166 Q1118.98 66.3183 1119.7 67.2077 Q1120.3 67.8964 1120.59 68.1833 Q1120.88 68.4702 1121.45 68.7858 Q1122.05 69.0727 1122.71 69.0727 Q1123.8 69.0727 1124.81 68.2407 Q1125.81 67.3799 1127.1 65.314 Q1127.45 64.6828 1127.99 64.6828 Q1128.62 64.6828 1128.62 65.2566 Z" fill="#000000" fill-rule="nonzero" fill-opacity="1" /><path clip-path="url(#clip740)" d="M1159.52 41.6508 L1159.52 39.0275 Q1163.3 39.2735 1167.68 39.2735 Q1169.28 39.2735 1176.82 39.0275 L1176.82 41.6508 Q1172.03 41.6508 1172.03 43.8233 Q1172.03 44.1512 1172.52 45.2579 L1181.95 68.6628 L1190.51 47.2664 Q1191 45.8318 1191 45.2579 Q1191 43.8233 1190.02 42.7985 Q1189.08 41.7328 1186.99 41.6508 L1186.99 39.0275 Q1191.25 39.2735 1194.28 39.2735 Q1197.73 39.2735 1200.55 39.0275 L1200.55 41.6508 Q1198.05 41.6508 1196.29 42.7985 Q1194.53 43.9053 1193.96 44.889 Q1193.42 45.8318 1192.85 47.2664 L1181.86 74.5652 Q1181.21 76.1638 1180.1 76.1638 Q1179.36 76.1638 1179.04 75.8359 Q1178.75 75.549 1178.34 74.5652 L1166.25 44.766 Q1165.43 42.6756 1164.36 42.1837 Q1163.3 41.6508 1159.52 41.6508 Z" fill="#000000" fill-rule="nonzero" fill-opacity="1" /><path clip-path="url(#clip740)" d="M1205.31 74.1144 L1205.31 63.0472 Q1205.31 62.1045 1205.35 61.7766 Q1205.39 61.4487 1205.64 61.2027 Q1205.89 60.9568 1206.38 60.9568 Q1206.95 60.9568 1207.16 61.2027 Q1207.4 61.4487 1207.57 62.3914 Q1208.84 68.1709 1211.54 71.2451 Q1214.29 74.2783 1219.25 74.2783 Q1223.96 74.2783 1226.34 72.1879 Q1228.72 70.0974 1228.72 66.6543 Q1228.72 60.5059 1219.99 58.9483 Q1214.95 57.9236 1212.85 57.2678 Q1210.76 56.5709 1208.92 55.0543 Q1205.31 52.1031 1205.31 47.9222 Q1205.31 43.7413 1208.47 40.6671 Q1211.67 37.5929 1218.72 37.5929 Q1223.43 37.5929 1226.63 39.9703 Q1227.57 39.2325 1228.06 38.6176 Q1229.17 37.5929 1229.74 37.5929 Q1230.4 37.5929 1230.52 38.0438 Q1230.64 38.4537 1230.64 39.6424 L1230.64 48.0862 Q1230.64 49.0289 1230.6 49.3568 Q1230.56 49.6847 1230.32 49.9307 Q1230.07 50.1356 1229.54 50.1356 Q1228.59 50.1356 1228.55 49.3568 Q1227.9 39.1915 1218.72 39.1915 Q1213.76 39.1915 1211.54 41.118 Q1209.33 43.0035 1209.33 45.5858 Q1209.33 47.0204 1209.99 48.1271 Q1210.68 49.1929 1211.54 49.8487 Q1212.44 50.4635 1214.08 51.0784 Q1215.72 51.6522 1216.71 51.8572 Q1217.73 52.0621 1219.66 52.472 Q1226.38 53.7427 1229.21 56.489 Q1232.73 60.014 1232.73 64.4819 Q1232.73 69.4416 1229.37 72.8027 Q1226.01 76.1638 1219.25 76.1638 Q1213.8 76.1638 1209.99 72.5158 Q1209.49 73.0076 1209.12 73.4585 Q1208.76 73.8684 1208.59 74.0324 Q1208.47 74.1963 1208.43 74.3193 Q1208.39 74.4013 1208.3 74.4833 Q1206.62 76.1638 1206.21 76.1638 Q1205.56 76.1638 1205.44 75.7129 Q1205.31 75.303 1205.31 74.1144 Z" fill="#000000" fill-rule="nonzero" fill-opacity="1" /><path clip-path="url(#clip740)" d="M1239.3 73.8684 Q1238.03 72.5158 1238.03 70.7532 Q1238.03 68.9907 1239.3 67.72 Q1240.57 66.4084 1242.5 66.4084 Q1244.35 66.4084 1245.58 67.638 Q1246.85 68.8267 1246.85 70.7942 Q1246.85 72.7207 1245.49 73.9914 Q1244.18 75.2211 1242.5 75.2211 Q1240.57 75.2211 1239.3 73.8684 Z" fill="#000000" fill-rule="nonzero" fill-opacity="1" /><path clip-path="url(#clip740)" d="M1313.3 18.9018 Q1313.3 19.6806 1312.97 20.0495 Q1312.68 20.3774 1312.23 20.4594 Q1311.78 20.5004 1310.59 20.5004 Q1308.59 20.5004 1307.31 20.6643 Q1306.04 20.7873 1305.26 20.9922 Q1304.49 21.1562 1304.04 21.7301 Q1303.63 22.2629 1303.42 22.7548 Q1303.26 23.2467 1302.97 24.3534 L1291.74 69.0727 Q1291.37 70.3843 1291.37 71.0402 Q1291.37 71.737 1291.78 72.0239 Q1292.19 72.3108 1293.5 72.4338 Q1295.59 72.6387 1297.11 72.6387 Q1299.12 72.6387 1299.4 72.9257 Q1299.61 73.2126 1299.61 73.6225 Q1299.61 74.3603 1299.28 74.7702 Q1298.95 75.1391 1298.67 75.1801 Q1298.42 75.2211 1297.93 75.2211 L1286.7 74.9751 L1275.67 75.2211 Q1274.44 75.2211 1274.44 74.2783 Q1274.44 73.6635 1274.52 73.3356 Q1274.65 72.9667 1275.06 72.8437 Q1275.51 72.6797 1275.83 72.6797 Q1276.16 72.6387 1277.11 72.6387 Q1278.79 72.6387 1279.89 72.5977 Q1281.04 72.5158 1281.86 72.3108 Q1282.72 72.0649 1283.13 71.8599 Q1283.58 71.614 1283.91 71.0811 Q1284.28 70.5073 1284.4 70.0564 Q1284.57 69.6055 1284.77 68.6628 L1296.08 23.4106 Q1296.25 22.6728 1296.25 22.099 Q1296.25 20.9922 1294.94 20.7463 Q1293.66 20.5004 1290.47 20.5004 Q1289.48 20.5004 1289.07 20.4594 Q1288.71 20.4184 1288.38 20.2135 Q1288.09 20.0085 1288.09 19.5576 Q1288.09 18.9838 1288.25 18.6149 Q1288.42 18.205 1288.71 18.082 Q1289.03 17.959 1289.24 17.9181 Q1289.44 17.8771 1289.77 17.8771 L1300.96 18.123 L1312.03 17.8771 Q1313.3 17.8771 1313.3 18.9018 Z" fill="#000000" fill-rule="nonzero" fill-opacity="1" /><path clip-path="url(#clip740)" d="M1343.52 69.7327 Q1343.52 71.3395 1342.72 72.2002 Q1341.91 73.0323 1340.82 73.0323 Q1339.93 73.0323 1339.45 72.5158 Q1338.99 71.9994 1338.99 71.3108 Q1338.99 70.3065 1339.79 69.5031 Q1340.62 68.6997 1341.83 68.671 Q1341.42 67.6094 1340.36 66.9782 Q1339.3 66.3183 1338.35 66.1461 Q1337.44 65.974 1336.52 65.974 Q1334.71 65.974 1333.33 66.5478 Q1331.96 67.1217 1331.27 68.0111 Q1330.58 68.8719 1330.26 69.704 Q1329.95 70.5361 1329.95 71.2534 Q1329.95 71.8846 1330.09 72.4011 Q1330.26 72.8888 1330.67 73.2618 Q1331.07 73.6062 1331.35 73.8357 Q1331.67 74.0652 1332.36 74.2661 Q1333.05 74.4669 1333.33 74.553 Q1333.62 74.6104 1334.42 74.7826 Q1336.09 75.1269 1336.83 75.3277 Q1337.58 75.4999 1338.56 75.9876 Q1339.56 76.4754 1340.31 77.2501 Q1342.11 79.0577 1342.11 81.554 Q1342.11 82.4721 1341.8 83.5911 Q1341.51 84.7102 1340.68 86.1161 Q1339.85 87.522 1338.58 88.641 Q1337.32 89.76 1335.14 90.5347 Q1332.99 91.3094 1330.29 91.3094 Q1326.53 91.3094 1324.21 89.7313 Q1321.89 88.1246 1321.89 85.5996 Q1321.89 83.7633 1322.89 82.7591 Q1323.89 81.7261 1325.18 81.7261 Q1326.16 81.7261 1326.76 82.2713 Q1327.37 82.7878 1327.37 83.7633 Q1327.37 85.0832 1326.3 86.0874 Q1325.24 87.0916 1323.66 86.8908 Q1325.01 89.9896 1330.35 89.9896 Q1332.36 89.9896 1333.91 89.4731 Q1335.49 88.928 1336.35 88.1819 Q1337.24 87.4072 1337.81 86.4604 Q1338.38 85.5135 1338.56 84.7962 Q1338.76 84.0789 1338.76 83.5338 Q1338.76 82.5869 1338.38 81.8696 Q1338.01 81.1523 1337.49 80.7506 Q1337.01 80.3202 1336.06 79.9759 Q1335.14 79.6029 1334.48 79.4594 Q1333.82 79.316 1332.65 79.0864 Q1332.1 78.9717 1331.76 78.9143 Q1331.41 78.8282 1330.69 78.5987 Q1330.01 78.3404 1329.52 78.0822 Q1329.06 77.824 1328.46 77.3649 Q1327.85 76.9058 1327.48 76.3606 Q1327.11 75.8155 1326.85 75.0121 Q1326.59 74.2087 1326.59 73.2618 Q1326.59 72.4011 1326.85 71.3681 Q1327.14 70.3352 1327.85 69.1301 Q1328.6 67.925 1329.66 66.9495 Q1330.72 65.974 1332.5 65.3427 Q1334.31 64.6828 1336.52 64.6828 Q1339.73 64.6828 1341.63 66.1748 Q1343.52 67.6381 1343.52 69.7327 Z" fill="#000000" fill-rule="nonzero" fill-opacity="1" /><path clip-path="url(#clip740)" d="M1396.63 88.9115 Q1401.1 88.9115 1402.13 88.3376 Q1403.19 87.8048 1403.19 85.1405 L1403.19 45.8318 Q1403.19 43.0445 1402.13 42.3477 Q1401.1 41.6508 1396.63 41.6508 L1396.63 39.0275 L1408.73 38.1258 L1408.73 43.6593 Q1413.77 38.1258 1420.49 38.1258 Q1427.62 38.1258 1432.83 43.6593 Q1438.03 49.1929 1438.03 57.1038 Q1438.03 65.0967 1432.5 70.6303 Q1426.97 76.1638 1419.3 76.1638 Q1415.12 76.1638 1412.29 74.0324 Q1409.5 71.8599 1408.97 70.2614 L1408.97 71.0402 L1408.97 85.1405 Q1408.97 87.8458 1410.04 88.3786 Q1411.1 88.9115 1415.53 88.9115 L1415.53 91.4938 Q1406.72 91.2479 1406.06 91.2479 Q1405.24 91.2479 1396.63 91.4938 L1396.63 88.9115 M1408.97 65.6706 Q1408.97 66.9412 1409.14 67.3921 Q1409.34 67.843 1410.16 69.1956 Q1413.48 74.2783 1418.89 74.2783 Q1418.93 74.2783 1418.97 74.2783 Q1423.77 74.2783 1427.42 69.4006 Q1431.07 64.4819 1431.07 57.1038 Q1431.07 50.0536 1427.75 45.1349 Q1424.43 40.2162 1419.83 40.2162 Q1416.56 40.2162 1413.69 41.9788 Q1410.82 43.7413 1408.97 46.9385 L1408.97 65.6706 Z" fill="#000000" fill-rule="nonzero" fill-opacity="1" /><path clip-path="url(#clip740)" d="M1449.47 75.2211 L1449.47 72.6387 Q1453.94 72.6387 1454.96 72.1059 Q1455.99 71.532 1455.99 68.8267 L1455.99 25.1732 Q1455.99 22.058 1454.88 21.2792 Q1453.82 20.5004 1449.47 20.5004 L1449.47 17.8771 L1461.52 16.9753 L1461.52 68.8267 Q1461.52 71.532 1462.59 72.1059 Q1463.65 72.6387 1468.08 72.6387 L1468.08 75.2211 Q1467.06 75.2211 1464.92 75.1391 Q1462.79 75.0571 1461.24 75.0161 Q1459.68 74.9751 1458.78 74.9751 Q1457.79 74.9751 1449.47 75.2211 Z" fill="#000000" fill-rule="nonzero" fill-opacity="1" /><path clip-path="url(#clip740)" d="M1480.71 70.7122 Q1475.18 65.2197 1475.18 57.2678 Q1475.18 49.2748 1480.59 43.4544 Q1486.04 37.5929 1493.83 37.5929 Q1501.45 37.5929 1506.9 43.4134 Q1512.4 49.1929 1512.4 57.2678 Q1512.4 65.1787 1506.86 70.6713 Q1501.37 76.1638 1493.75 76.1638 Q1486.29 76.1638 1480.71 70.7122 M1482.15 56.5709 Q1482.15 64.7278 1484.28 68.4168 Q1487.56 74.0324 1493.83 74.0324 Q1496.94 74.0324 1499.52 72.3518 Q1502.15 70.6713 1503.58 67.843 Q1505.43 64.154 1505.43 56.5709 Q1505.43 48.4961 1503.21 44.93 Q1499.93 39.4784 1493.75 39.4784 Q1491.04 39.4784 1488.38 40.913 Q1485.75 42.3067 1484.15 45.0939 Q1482.15 48.783 1482.15 56.5709 Z" fill="#000000" fill-rule="nonzero" fill-opacity="1" /><path clip-path="url(#clip740)" d="M1513.44 41.6508 L1513.44 39.8063 Q1517.3 39.6424 1519.84 36.9371 Q1522.42 34.1908 1523.28 30.8297 Q1524.18 27.4686 1524.26 23.5746 L1526.35 23.5746 L1526.35 39.0275 L1538.36 39.0275 L1538.36 41.6508 L1526.35 41.6508 L1526.35 64.9737 Q1526.35 74.0324 1532.01 74.0324 Q1534.43 74.0324 1536.03 71.573 Q1537.63 69.0727 1537.63 64.6458 L1537.63 60.014 L1539.72 60.014 L1539.72 64.8098 Q1539.72 69.3596 1537.63 72.7617 Q1535.54 76.1638 1531.4 76.1638 Q1529.88 76.1638 1528.36 75.7539 Q1526.89 75.385 1524.92 74.4013 Q1522.99 73.3765 1521.76 70.9172 Q1520.57 68.4168 1520.57 64.8098 L1520.57 41.6508 L1513.44 41.6508 Z" fill="#000000" fill-rule="nonzero" fill-opacity="1" /><circle clip-path="url(#clip742)" cx="308.73" cy="1386.4" r="14.4" fill="#0000ff" fill-rule="evenodd" fill-opacity="1" stroke="#000000" stroke-opacity="1" stroke-width="3.2"/>
<circle clip-path="url(#clip742)" cx="529.229" cy="1255.52" r="14.4" fill="#0000ff" fill-rule="evenodd" fill-opacity="1" stroke="#000000" stroke-opacity="1" stroke-width="3.2"/>
<circle clip-path="url(#clip742)" cx="749.728" cy="1117.75" r="14.4" fill="#0000ff" fill-rule="evenodd" fill-opacity="1" stroke="#000000" stroke-opacity="1" stroke-width="3.2"/>
<circle clip-path="url(#clip742)" cx="970.227" cy="952.425" r="14.4" fill="#0000ff" fill-rule="evenodd" fill-opacity="1" stroke="#000000" stroke-opacity="1" stroke-width="3.2"/>
<circle clip-path="url(#clip742)" cx="1300.98" cy="766.438" r="14.4" fill="#0000ff" fill-rule="evenodd" fill-opacity="1" stroke="#000000" stroke-opacity="1" stroke-width="3.2"/>
<circle clip-path="url(#clip742)" cx="1631.72" cy="608.004" r="14.4" fill="#0000ff" fill-rule="evenodd" fill-opacity="1" stroke="#000000" stroke-opacity="1" stroke-width="3.2"/>
<circle clip-path="url(#clip742)" cx="1741.97" cy="490.901" r="14.4" fill="#0000ff" fill-rule="evenodd" fill-opacity="1" stroke="#000000" stroke-opacity="1" stroke-width="3.2"/>
<circle clip-path="url(#clip742)" cx="2072.72" cy="311.802" r="14.4" fill="#0000ff" fill-rule="evenodd" fill-opacity="1" stroke="#000000" stroke-opacity="1" stroke-width="3.2"/>
<circle clip-path="url(#clip742)" cx="2293.22" cy="160.256" r="14.4" fill="#0000ff" fill-rule="evenodd" fill-opacity="1" stroke="#000000" stroke-opacity="1" stroke-width="3.2"/>
<polyline clip-path="url(#clip742)" style="stroke:#ff0000; stroke-linecap:round; stroke-linejoin:round; stroke-width:8; stroke-opacity:1; fill:none" stroke-dasharray="32, 20" points="308.73,1383.04 529.229,1248.09 749.728,1113.14 970.227,978.198 1300.98,775.779 1631.72,573.36 1741.97,505.887 2072.72,303.468 2293.22,168.522 "/>
<path clip-path="url(#clip740)" d="M319.314 322.316 L793.372 322.316 L793.372 166.796 L319.314 166.796  Z" fill="#ffffff" fill-rule="evenodd" fill-opacity="1"/>
<polyline clip-path="url(#clip740)" style="stroke:#000000; stroke-linecap:round; stroke-linejoin:round; stroke-width:4; stroke-opacity:1; fill:none" points="319.314,322.316 793.372,322.316 793.372,166.796 319.314,166.796 319.314,322.316 "/>
<circle clip-path="url(#clip740)" cx="412.805" cy="218.636" r="20.48" fill="#0000ff" fill-rule="evenodd" fill-opacity="1" stroke="#000000" stroke-opacity="1" stroke-width="4.55111"/>
<path clip-path="url(#clip740)" d="M510.973 205.198 L510.973 232.073 L516.621 232.073 Q523.773 232.073 527.084 228.832 Q530.417 225.592 530.417 218.601 Q530.417 211.657 527.084 208.439 Q523.773 205.198 516.621 205.198 L510.973 205.198 M506.297 201.356 L515.903 201.356 Q525.949 201.356 530.648 205.546 Q535.347 209.712 535.347 218.601 Q535.347 227.536 530.625 231.726 Q525.903 235.916 515.903 235.916 L506.297 235.916 L506.297 201.356 Z" fill="#000000" fill-rule="nonzero" fill-opacity="1" /><path clip-path="url(#clip740)" d="M554.398 222.883 Q549.236 222.883 547.246 224.064 Q545.255 225.244 545.255 228.092 Q545.255 230.36 546.736 231.703 Q548.241 233.022 550.81 233.022 Q554.352 233.022 556.482 230.522 Q558.634 227.999 558.634 223.832 L558.634 222.883 L554.398 222.883 M562.894 221.124 L562.894 235.916 L558.634 235.916 L558.634 231.981 Q557.176 234.342 555 235.476 Q552.824 236.587 549.676 236.587 Q545.695 236.587 543.334 234.365 Q540.996 232.119 540.996 228.369 Q540.996 223.994 543.912 221.772 Q546.852 219.55 552.662 219.55 L558.634 219.55 L558.634 219.133 Q558.634 216.194 556.69 214.596 Q554.769 212.976 551.273 212.976 Q549.051 212.976 546.945 213.508 Q544.838 214.041 542.894 215.106 L542.894 211.17 Q545.232 210.268 547.431 209.828 Q549.63 209.365 551.713 209.365 Q557.338 209.365 560.116 212.282 Q562.894 215.198 562.894 221.124 Z" fill="#000000" fill-rule="nonzero" fill-opacity="1" /><path clip-path="url(#clip740)" d="M575.88 202.629 L575.88 209.99 L584.653 209.99 L584.653 213.3 L575.88 213.3 L575.88 227.374 Q575.88 230.545 576.736 231.448 Q577.616 232.351 580.278 232.351 L584.653 232.351 L584.653 235.916 L580.278 235.916 Q575.347 235.916 573.472 234.087 Q571.597 232.235 571.597 227.374 L571.597 213.3 L568.472 213.3 L568.472 209.99 L571.597 209.99 L571.597 202.629 L575.88 202.629 Z" fill="#000000" fill-rule="nonzero" fill-opacity="1" /><path clip-path="url(#clip740)" d="M602.037 222.883 Q596.875 222.883 594.884 224.064 Q592.893 225.244 592.893 228.092 Q592.893 230.36 594.375 231.703 Q595.88 233.022 598.449 233.022 Q601.991 233.022 604.12 230.522 Q606.273 227.999 606.273 223.832 L606.273 222.883 L602.037 222.883 M610.532 221.124 L610.532 235.916 L606.273 235.916 L606.273 231.981 Q604.815 234.342 602.639 235.476 Q600.463 236.587 597.315 236.587 Q593.333 236.587 590.972 234.365 Q588.634 232.119 588.634 228.369 Q588.634 223.994 591.551 221.772 Q594.491 219.55 600.301 219.55 L606.273 219.55 L606.273 219.133 Q606.273 216.194 604.329 214.596 Q602.407 212.976 598.912 212.976 Q596.69 212.976 594.583 213.508 Q592.477 214.041 590.532 215.106 L590.532 211.17 Q592.87 210.268 595.069 209.828 Q597.268 209.365 599.352 209.365 Q604.977 209.365 607.755 212.282 Q610.532 215.198 610.532 221.124 Z" fill="#000000" fill-rule="nonzero" fill-opacity="1" /><path clip-path="url(#clip740)" d="M639.236 205.198 L639.236 218.184 L645.115 218.184 Q648.379 218.184 650.162 216.495 Q651.944 214.805 651.944 211.68 Q651.944 208.578 650.162 206.888 Q648.379 205.198 645.115 205.198 L639.236 205.198 M634.56 201.356 L645.115 201.356 Q650.926 201.356 653.889 203.995 Q656.875 206.61 656.875 211.68 Q656.875 216.795 653.889 219.411 Q650.926 222.027 645.115 222.027 L639.236 222.027 L639.236 235.916 L634.56 235.916 L634.56 201.356 Z" fill="#000000" fill-rule="nonzero" fill-opacity="1" /><path clip-path="url(#clip740)" d="M671.319 212.976 Q667.893 212.976 665.902 215.661 Q663.912 218.323 663.912 222.976 Q663.912 227.629 665.879 230.314 Q667.87 232.976 671.319 232.976 Q674.722 232.976 676.712 230.291 Q678.703 227.606 678.703 222.976 Q678.703 218.37 676.712 215.684 Q674.722 212.976 671.319 212.976 M671.319 209.365 Q676.875 209.365 680.046 212.976 Q683.217 216.587 683.217 222.976 Q683.217 229.342 680.046 232.976 Q676.875 236.587 671.319 236.587 Q665.74 236.587 662.569 232.976 Q659.421 229.342 659.421 222.976 Q659.421 216.587 662.569 212.976 Q665.74 209.365 671.319 209.365 Z" fill="#000000" fill-rule="nonzero" fill-opacity="1" /><path clip-path="url(#clip740)" d="M690.277 209.99 L694.536 209.99 L694.536 235.916 L690.277 235.916 L690.277 209.99 M690.277 199.897 L694.536 199.897 L694.536 205.291 L690.277 205.291 L690.277 199.897 Z" fill="#000000" fill-rule="nonzero" fill-opacity="1" /><path clip-path="url(#clip740)" d="M724.999 220.268 L724.999 235.916 L720.74 235.916 L720.74 220.407 Q720.74 216.726 719.305 214.897 Q717.87 213.069 714.999 213.069 Q711.55 213.069 709.56 215.268 Q707.569 217.467 707.569 221.263 L707.569 235.916 L703.286 235.916 L703.286 209.99 L707.569 209.99 L707.569 214.018 Q709.097 211.68 711.157 210.522 Q713.24 209.365 715.948 209.365 Q720.416 209.365 722.708 212.143 Q724.999 214.897 724.999 220.268 Z" fill="#000000" fill-rule="nonzero" fill-opacity="1" /><path clip-path="url(#clip740)" d="M737.708 202.629 L737.708 209.99 L746.481 209.99 L746.481 213.3 L737.708 213.3 L737.708 227.374 Q737.708 230.545 738.564 231.448 Q739.444 232.351 742.106 232.351 L746.481 232.351 L746.481 235.916 L742.106 235.916 Q737.175 235.916 735.3 234.087 Q733.425 232.235 733.425 227.374 L733.425 213.3 L730.3 213.3 L730.3 209.99 L733.425 209.99 L733.425 202.629 L737.708 202.629 Z" fill="#000000" fill-rule="nonzero" fill-opacity="1" /><path clip-path="url(#clip740)" d="M768.61 210.754 L768.61 214.782 Q766.805 213.856 764.86 213.393 Q762.916 212.93 760.832 212.93 Q757.661 212.93 756.064 213.902 Q754.49 214.874 754.49 216.819 Q754.49 218.3 755.624 219.157 Q756.758 219.99 760.184 220.754 L761.643 221.078 Q766.18 222.05 768.078 223.832 Q769.999 225.592 769.999 228.763 Q769.999 232.374 767.129 234.481 Q764.281 236.587 759.281 236.587 Q757.198 236.587 754.93 236.17 Q752.684 235.777 750.184 234.967 L750.184 230.569 Q752.545 231.795 754.837 232.42 Q757.129 233.022 759.374 233.022 Q762.383 233.022 764.004 232.004 Q765.624 230.962 765.624 229.087 Q765.624 227.351 764.443 226.425 Q763.286 225.499 759.328 224.643 L757.846 224.295 Q753.888 223.462 752.129 221.749 Q750.369 220.013 750.369 217.004 Q750.369 213.346 752.962 211.356 Q755.555 209.365 760.323 209.365 Q762.684 209.365 764.768 209.712 Q766.851 210.059 768.61 210.754 Z" fill="#000000" fill-rule="nonzero" fill-opacity="1" /><polyline clip-path="url(#clip740)" style="stroke:#ff0000; stroke-linecap:round; stroke-linejoin:round; stroke-width:8; stroke-opacity:1; fill:none" stroke-dasharray="32, 20" points="342.686,270.476 482.924,270.476 "/>
<path clip-path="url(#clip740)" d="M506.297 253.196 L510.973 253.196 L510.973 283.821 L527.801 283.821 L527.801 287.756 L506.297 287.756 L506.297 253.196 Z" fill="#000000" fill-rule="nonzero" fill-opacity="1" /><path clip-path="url(#clip740)" d="M532.523 261.83 L536.783 261.83 L536.783 287.756 L532.523 287.756 L532.523 261.83 M532.523 251.737 L536.783 251.737 L536.783 257.131 L532.523 257.131 L532.523 251.737 Z" fill="#000000" fill-rule="nonzero" fill-opacity="1" /><path clip-path="url(#clip740)" d="M567.245 272.108 L567.245 287.756 L562.986 287.756 L562.986 272.247 Q562.986 268.566 561.551 266.737 Q560.116 264.909 557.246 264.909 Q553.796 264.909 551.806 267.108 Q549.815 269.307 549.815 273.103 L549.815 287.756 L545.533 287.756 L545.533 261.83 L549.815 261.83 L549.815 265.858 Q551.343 263.52 553.403 262.362 Q555.486 261.205 558.195 261.205 Q562.662 261.205 564.954 263.983 Q567.245 266.737 567.245 272.108 Z" fill="#000000" fill-rule="nonzero" fill-opacity="1" /><path clip-path="url(#clip740)" d="M597.917 273.728 L597.917 275.811 L578.333 275.811 Q578.611 280.209 580.972 282.524 Q583.356 284.816 587.593 284.816 Q590.046 284.816 592.338 284.214 Q594.653 283.612 596.921 282.409 L596.921 286.436 Q594.63 287.408 592.222 287.918 Q589.815 288.427 587.338 288.427 Q581.134 288.427 577.5 284.816 Q573.889 281.205 573.889 275.047 Q573.889 268.682 577.315 264.955 Q580.764 261.205 586.597 261.205 Q591.829 261.205 594.861 264.585 Q597.917 267.941 597.917 273.728 M593.657 272.478 Q593.611 268.983 591.69 266.899 Q589.792 264.816 586.644 264.816 Q583.079 264.816 580.926 266.83 Q578.796 268.844 578.472 272.501 L593.657 272.478 Z" fill="#000000" fill-rule="nonzero" fill-opacity="1" /><path clip-path="url(#clip740)" d="M616.69 274.723 Q611.528 274.723 609.537 275.904 Q607.546 277.084 607.546 279.932 Q607.546 282.2 609.028 283.543 Q610.532 284.862 613.102 284.862 Q616.643 284.862 618.773 282.362 Q620.926 279.839 620.926 275.672 L620.926 274.723 L616.69 274.723 M625.185 272.964 L625.185 287.756 L620.926 287.756 L620.926 283.821 Q619.467 286.182 617.291 287.316 Q615.116 288.427 611.967 288.427 Q607.986 288.427 605.625 286.205 Q603.287 283.959 603.287 280.209 Q603.287 275.834 606.204 273.612 Q609.143 271.39 614.954 271.39 L620.926 271.39 L620.926 270.973 Q620.926 268.034 618.981 266.436 Q617.06 264.816 613.565 264.816 Q611.342 264.816 609.236 265.348 Q607.13 265.881 605.185 266.946 L605.185 263.01 Q607.523 262.108 609.722 261.668 Q611.921 261.205 614.004 261.205 Q619.629 261.205 622.407 264.122 Q625.185 267.038 625.185 272.964 Z" fill="#000000" fill-rule="nonzero" fill-opacity="1" /><path clip-path="url(#clip740)" d="M648.981 265.811 Q648.264 265.395 647.407 265.21 Q646.574 265.001 645.555 265.001 Q641.944 265.001 640 267.362 Q638.078 269.7 638.078 274.098 L638.078 287.756 L633.796 287.756 L633.796 261.83 L638.078 261.83 L638.078 265.858 Q639.421 263.497 641.574 262.362 Q643.727 261.205 646.805 261.205 Q647.245 261.205 647.777 261.274 Q648.31 261.321 648.958 261.436 L648.981 265.811 Z" fill="#000000" fill-rule="nonzero" fill-opacity="1" /><path clip-path="url(#clip740)" d="M668.703 253.196 L688.564 253.196 L688.564 257.131 L673.379 257.131 L673.379 267.316 L687.083 267.316 L687.083 271.251 L673.379 271.251 L673.379 287.756 L668.703 287.756 L668.703 253.196 Z" fill="#000000" fill-rule="nonzero" fill-opacity="1" /><path clip-path="url(#clip740)" d="M692.337 261.83 L696.597 261.83 L696.597 287.756 L692.337 287.756 L692.337 261.83 M692.337 251.737 L696.597 251.737 L696.597 257.131 L692.337 257.131 L692.337 251.737 Z" fill="#000000" fill-rule="nonzero" fill-opacity="1" /><path clip-path="url(#clip740)" d="M709.722 254.469 L709.722 261.83 L718.495 261.83 L718.495 265.14 L709.722 265.14 L709.722 279.214 Q709.722 282.385 710.578 283.288 Q711.458 284.191 714.12 284.191 L718.495 284.191 L718.495 287.756 L714.12 287.756 Q709.189 287.756 707.314 285.927 Q705.439 284.075 705.439 279.214 L705.439 265.14 L702.314 265.14 L702.314 261.83 L705.439 261.83 L705.439 254.469 L709.722 254.469 Z" fill="#000000" fill-rule="nonzero" fill-opacity="1" /><g clip-path="url(#clip740)">
<text style="fill:#000000; fill-opacity:1; font-family:Century Gothic,CenturyGothic,AppleGothic,sans-serif; font-size:83px; text-anchor:middle;" transform="rotate(0, 859.977, 459.405)" x="859.977" y="459.405">Slope of fit curve: 0.98 0.04</text>
</g>
</svg>
