<?xml version="1.0" encoding="utf-8"?>
<svg xmlns="http://www.w3.org/2000/svg" xmlns:xlink="http://www.w3.org/1999/xlink" width="600" height="400" viewBox="0 0 2400 1600">
<defs>
  <clipPath id="clip630">
    <rect x="0" y="0" width="2400" height="1600"/>
  </clipPath>
</defs>
<path clip-path="url(#clip630)" d="M0 1600 L2400 1600 L2400 0 L0 0  Z" fill="#ffffff" fill-rule="evenodd" fill-opacity="1"/>
<defs>
  <clipPath id="clip631">
    <rect x="480" y="0" width="1681" height="1600"/>
  </clipPath>
</defs>
<path clip-path="url(#clip630)" d="M175.445 1423.18 L2352.76 1423.18 L2352.76 123.472 L175.445 123.472  Z" fill="#ffffff" fill-rule="evenodd" fill-opacity="1"/>
<defs>
  <clipPath id="clip632">
    <rect x="175" y="123" width="2178" height="1301"/>
  </clipPath>
</defs>
<polyline clip-path="url(#clip632)" style="stroke:#000000; stroke-linecap:round; stroke-linejoin:round; stroke-width:12; stroke-opacity:0.1; fill:none" points="237.067,1423.18 237.067,123.472 "/>
<polyline clip-path="url(#clip632)" style="stroke:#000000; stroke-linecap:round; stroke-linejoin:round; stroke-width:12; stroke-opacity:0.1; fill:none" points="921.756,1423.18 921.756,123.472 "/>
<polyline clip-path="url(#clip632)" style="stroke:#000000; stroke-linecap:round; stroke-linejoin:round; stroke-width:12; stroke-opacity:0.1; fill:none" points="1606.45,1423.18 1606.45,123.472 "/>
<polyline clip-path="url(#clip632)" style="stroke:#000000; stroke-linecap:round; stroke-linejoin:round; stroke-width:12; stroke-opacity:0.1; fill:none" points="2291.13,1423.18 2291.13,123.472 "/>
<polyline clip-path="url(#clip632)" style="stroke:#000000; stroke-linecap:round; stroke-linejoin:round; stroke-width:12; stroke-opacity:0.1; fill:none" points="175.445,1407.13 2352.76,1407.13 "/>
<polyline clip-path="url(#clip632)" style="stroke:#000000; stroke-linecap:round; stroke-linejoin:round; stroke-width:12; stroke-opacity:0.1; fill:none" points="175.445,1086.22 2352.76,1086.22 "/>
<polyline clip-path="url(#clip632)" style="stroke:#000000; stroke-linecap:round; stroke-linejoin:round; stroke-width:12; stroke-opacity:0.1; fill:none" points="175.445,765.303 2352.76,765.303 "/>
<polyline clip-path="url(#clip632)" style="stroke:#000000; stroke-linecap:round; stroke-linejoin:round; stroke-width:12; stroke-opacity:0.1; fill:none" points="175.445,444.388 2352.76,444.388 "/>
<polyline clip-path="url(#clip632)" style="stroke:#000000; stroke-linecap:round; stroke-linejoin:round; stroke-width:12; stroke-opacity:0.1; fill:none" points="175.445,123.472 2352.76,123.472 "/>
<polyline clip-path="url(#clip630)" style="stroke:#000000; stroke-linecap:round; stroke-linejoin:round; stroke-width:4; stroke-opacity:1; fill:none" points="175.445,1423.18 2352.76,1423.18 "/>
<polyline clip-path="url(#clip630)" style="stroke:#000000; stroke-linecap:round; stroke-linejoin:round; stroke-width:4; stroke-opacity:1; fill:none" points="237.067,1423.18 237.067,1404.28 "/>
<polyline clip-path="url(#clip630)" style="stroke:#000000; stroke-linecap:round; stroke-linejoin:round; stroke-width:4; stroke-opacity:1; fill:none" points="921.756,1423.18 921.756,1404.28 "/>
<polyline clip-path="url(#clip630)" style="stroke:#000000; stroke-linecap:round; stroke-linejoin:round; stroke-width:4; stroke-opacity:1; fill:none" points="1606.45,1423.18 1606.45,1404.28 "/>
<polyline clip-path="url(#clip630)" style="stroke:#000000; stroke-linecap:round; stroke-linejoin:round; stroke-width:4; stroke-opacity:1; fill:none" points="2291.13,1423.18 2291.13,1404.28 "/>
<path clip-path="url(#clip630)" d="M237.067 1454.1 Q233.456 1454.1 231.627 1457.66 Q229.822 1461.2 229.822 1468.33 Q229.822 1475.44 231.627 1479.01 Q233.456 1482.55 237.067 1482.55 Q240.701 1482.55 242.507 1479.01 Q244.336 1475.44 244.336 1468.33 Q244.336 1461.2 242.507 1457.66 Q240.701 1454.1 237.067 1454.1 M237.067 1450.39 Q242.877 1450.39 245.933 1455 Q249.012 1459.58 249.012 1468.33 Q249.012 1477.06 245.933 1481.67 Q242.877 1486.25 237.067 1486.25 Q231.257 1486.25 228.178 1481.67 Q225.123 1477.06 225.123 1468.33 Q225.123 1459.58 228.178 1455 Q231.257 1450.39 237.067 1450.39 Z" fill="#000000" fill-rule="nonzero" fill-opacity="1" /><path clip-path="url(#clip630)" d="M912.034 1451.02 L930.39 1451.02 L930.39 1454.96 L916.316 1454.96 L916.316 1463.43 Q917.335 1463.08 918.353 1462.92 Q919.372 1462.73 920.39 1462.73 Q926.177 1462.73 929.557 1465.9 Q932.937 1469.08 932.937 1474.49 Q932.937 1480.07 929.464 1483.17 Q925.992 1486.25 919.673 1486.25 Q917.497 1486.25 915.228 1485.88 Q912.983 1485.51 910.576 1484.77 L910.576 1480.07 Q912.659 1481.2 914.881 1481.76 Q917.103 1482.32 919.58 1482.32 Q923.585 1482.32 925.923 1480.21 Q928.261 1478.1 928.261 1474.49 Q928.261 1470.88 925.923 1468.77 Q923.585 1466.67 919.58 1466.67 Q917.705 1466.67 915.83 1467.08 Q913.978 1467.5 912.034 1468.38 L912.034 1451.02 Z" fill="#000000" fill-rule="nonzero" fill-opacity="1" /><path clip-path="url(#clip630)" d="M1581.13 1481.64 L1588.77 1481.64 L1588.77 1455.28 L1580.46 1456.95 L1580.46 1452.69 L1588.73 1451.02 L1593.4 1451.02 L1593.4 1481.64 L1601.04 1481.64 L1601.04 1485.58 L1581.13 1485.58 L1581.13 1481.64 Z" fill="#000000" fill-rule="nonzero" fill-opacity="1" /><path clip-path="url(#clip630)" d="M1620.48 1454.1 Q1616.87 1454.1 1615.04 1457.66 Q1613.24 1461.2 1613.24 1468.33 Q1613.24 1475.44 1615.04 1479.01 Q1616.87 1482.55 1620.48 1482.55 Q1624.12 1482.55 1625.92 1479.01 Q1627.75 1475.44 1627.75 1468.33 Q1627.75 1461.2 1625.92 1457.66 Q1624.12 1454.1 1620.48 1454.1 M1620.48 1450.39 Q1626.29 1450.39 1629.35 1455 Q1632.43 1459.58 1632.43 1468.33 Q1632.43 1477.06 1629.35 1481.67 Q1626.29 1486.25 1620.48 1486.25 Q1614.67 1486.25 1611.6 1481.67 Q1608.54 1477.06 1608.54 1468.33 Q1608.54 1459.58 1611.6 1455 Q1614.67 1450.39 1620.48 1450.39 Z" fill="#000000" fill-rule="nonzero" fill-opacity="1" /><path clip-path="url(#clip630)" d="M2266.32 1481.64 L2273.96 1481.64 L2273.96 1455.28 L2265.65 1456.95 L2265.65 1452.69 L2273.91 1451.02 L2278.59 1451.02 L2278.59 1481.64 L2286.23 1481.64 L2286.23 1485.58 L2266.32 1485.58 L2266.32 1481.64 Z" fill="#000000" fill-rule="nonzero" fill-opacity="1" /><path clip-path="url(#clip630)" d="M2295.72 1451.02 L2314.07 1451.02 L2314.07 1454.96 L2300 1454.96 L2300 1463.43 Q2301.02 1463.08 2302.04 1462.92 Q2303.06 1462.73 2304.07 1462.73 Q2309.86 1462.73 2313.24 1465.9 Q2316.62 1469.08 2316.62 1474.49 Q2316.62 1480.07 2313.15 1483.17 Q2309.68 1486.25 2303.36 1486.25 Q2301.18 1486.25 2298.91 1485.88 Q2296.67 1485.51 2294.26 1484.77 L2294.26 1480.07 Q2296.34 1481.2 2298.56 1481.76 Q2300.79 1482.32 2303.26 1482.32 Q2307.27 1482.32 2309.61 1480.21 Q2311.94 1478.1 2311.94 1474.49 Q2311.94 1470.88 2309.61 1468.77 Q2307.27 1466.67 2303.26 1466.67 Q2301.39 1466.67 2299.51 1467.08 Q2297.66 1467.5 2295.72 1468.38 L2295.72 1451.02 Z" fill="#000000" fill-rule="nonzero" fill-opacity="1" /><path clip-path="url(#clip630)" d="M1196.73 1509.88 Q1196.66 1511.08 1195.86 1511.14 Q1194.63 1511.21 1193.89 1511.37 Q1193.15 1511.49 1191.99 1511.98 Q1190.83 1512.46 1189.7 1513.62 Q1188.58 1514.78 1187.42 1516.62 L1163.68 1554.39 Q1163.26 1555.1 1162.91 1555.33 Q1162.59 1555.58 1161.85 1555.58 Q1161.17 1555.58 1160.91 1555.29 Q1160.65 1555.04 1160.53 1554.07 L1155.31 1513.36 Q1155.21 1512.62 1155.12 1512.3 Q1155.02 1511.98 1154.63 1511.66 Q1154.28 1511.33 1153.5 1511.24 Q1152.73 1511.14 1151.35 1511.14 Q1150.7 1511.14 1150.41 1511.11 Q1150.16 1511.08 1149.93 1510.92 Q1149.7 1510.72 1149.7 1510.34 Q1149.7 1509.76 1149.93 1509.47 Q1150.19 1509.14 1150.38 1509.11 Q1150.61 1509.08 1150.96 1509.08 Q1151.51 1509.08 1152.7 1509.14 Q1153.89 1509.21 1154.5 1509.21 Q1155.08 1509.21 1156.31 1509.24 Q1157.53 1509.27 1158.14 1509.27 Q1159.5 1509.27 1162.23 1509.18 Q1165 1509.08 1166.32 1509.08 Q1167.22 1509.08 1167.22 1509.82 Q1167.22 1510.72 1166.84 1510.95 Q1166.45 1511.14 1165.58 1511.14 Q1163.39 1511.14 1162.2 1511.69 Q1161.04 1512.24 1161.04 1513.11 L1165.52 1548.02 L1185.78 1515.81 Q1186.77 1514.3 1186.77 1513.3 Q1186.77 1511.37 1183.71 1511.14 Q1182.68 1511.14 1182.68 1510.34 Q1182.68 1509.76 1182.94 1509.47 Q1183.2 1509.14 1183.39 1509.11 Q1183.62 1509.08 1183.94 1509.08 Q1185 1509.08 1187.16 1509.18 Q1189.35 1509.27 1190.44 1509.27 Q1191.35 1509.27 1193.18 1509.18 Q1195.02 1509.08 1195.86 1509.08 Q1196.73 1509.08 1196.73 1509.88 Z" fill="#000000" fill-rule="nonzero" fill-opacity="1" /><path clip-path="url(#clip630)" d="M1203.31 1573.93 L1203.31 1572.51 Q1205.76 1572.51 1206.33 1572.21 Q1206.89 1571.9 1206.89 1570.41 L1206.89 1557.99 Q1206.89 1556.28 1206.31 1555.87 Q1205.74 1555.46 1203.49 1555.46 L1203.49 1554.02 L1209.93 1553.53 L1209.93 1570.46 Q1209.93 1571.83 1210.43 1572.17 Q1210.93 1572.51 1213.18 1572.51 L1213.18 1573.93 Q1208.47 1573.79 1208.38 1573.79 Q1207.75 1573.79 1203.31 1573.93 M1205.25 1545.48 Q1205.25 1544.55 1205.94 1543.81 Q1206.67 1543.04 1207.68 1543.04 Q1208.7 1543.04 1209.42 1543.74 Q1210.14 1544.42 1210.14 1545.5 Q1210.14 1546.56 1209.42 1547.26 Q1208.7 1547.93 1207.68 1547.93 Q1206.62 1547.93 1205.92 1547.19 Q1205.25 1546.45 1205.25 1545.48 Z" fill="#000000" fill-rule="nonzero" fill-opacity="1" /><path clip-path="url(#clip630)" d="M1216.34 1573.93 L1216.34 1572.51 Q1218.79 1572.51 1219.36 1572.21 Q1219.92 1571.9 1219.92 1570.41 L1219.92 1558.03 Q1219.92 1556.32 1219.31 1555.89 Q1218.73 1555.46 1216.34 1555.46 L1216.34 1554.02 L1222.83 1553.53 L1222.83 1558.37 Q1224.99 1553.53 1229.66 1553.53 Q1233.13 1553.53 1234.51 1555.24 Q1235.52 1556.39 1235.73 1557.67 Q1235.95 1558.96 1235.95 1562.3 L1235.95 1571.11 Q1236 1572.08 1236.74 1572.31 Q1237.48 1572.51 1239.56 1572.51 L1239.56 1573.93 Q1234.85 1573.79 1234.37 1573.79 Q1234.01 1573.79 1229.16 1573.93 L1229.16 1572.51 Q1231.62 1572.51 1232.19 1572.21 Q1232.77 1571.9 1232.77 1570.41 L1232.77 1559.66 Q1232.77 1557.31 1232.05 1555.94 Q1231.33 1554.54 1229.35 1554.54 Q1226.96 1554.54 1225.04 1556.55 Q1223.12 1558.55 1223.12 1561.93 L1223.12 1570.41 Q1223.12 1571.9 1223.69 1572.21 Q1224.27 1572.51 1226.71 1572.51 L1226.71 1573.93 Q1222 1573.79 1221.54 1573.79 Q1221.18 1573.79 1216.34 1573.93 Z" fill="#000000" fill-rule="nonzero" fill-opacity="1" /><path clip-path="url(#clip630)" d="M1266.17 1537.65 Q1266.17 1526.5 1270.33 1517.52 Q1272.1 1513.75 1274.58 1510.59 Q1277.06 1507.44 1278.7 1506.05 Q1280.34 1504.67 1280.8 1504.67 Q1281.44 1504.67 1281.47 1505.31 Q1281.47 1505.63 1280.6 1506.44 Q1269.97 1517.26 1270.01 1537.65 Q1270.01 1558.1 1280.34 1568.5 Q1281.47 1569.63 1281.47 1569.98 Q1281.47 1570.62 1280.8 1570.62 Q1280.34 1570.62 1278.77 1569.3 Q1277.19 1567.98 1274.74 1564.96 Q1272.29 1561.93 1270.52 1558.23 Q1266.17 1549.24 1266.17 1537.65 Z" fill="#000000" fill-rule="nonzero" fill-opacity="1" /><path clip-path="url(#clip630)" d="M1288.86 1511.14 L1288.86 1509.08 Q1295.98 1509.27 1297.23 1509.27 Q1304.29 1509.27 1306.67 1509.08 L1306.67 1511.14 Q1301.26 1511.14 1301.26 1513.04 Q1301.26 1513.3 1301.65 1514.23 L1314.24 1547.53 L1326.32 1515.75 Q1326.64 1514.75 1326.64 1514.43 Q1326.64 1513.11 1325.41 1512.17 Q1324.22 1511.21 1321.84 1511.14 L1321.84 1509.08 Q1326.99 1509.27 1329.34 1509.27 Q1332.69 1509.27 1335.75 1509.08 L1335.75 1511.14 Q1330.21 1511.21 1328.57 1515.55 L1313.85 1554.33 Q1313.6 1555.13 1313.34 1555.36 Q1313.08 1555.58 1312.27 1555.58 Q1311.63 1555.58 1311.28 1555.33 Q1310.95 1555.07 1310.63 1554.14 L1295.33 1513.65 Q1294.69 1511.88 1293.53 1511.53 Q1292.37 1511.14 1288.86 1511.14 Z" fill="#000000" fill-rule="nonzero" fill-opacity="1" /><path clip-path="url(#clip630)" d="M1353.17 1569.98 Q1353.17 1569.66 1354.01 1568.85 Q1364.63 1558.03 1364.63 1537.65 Q1364.63 1517.2 1354.43 1506.86 Q1353.17 1505.67 1353.17 1505.31 Q1353.17 1504.67 1353.81 1504.67 Q1354.26 1504.67 1355.84 1505.99 Q1357.45 1507.31 1359.87 1510.34 Q1362.32 1513.36 1364.12 1517.07 Q1368.47 1526.05 1368.47 1537.65 Q1368.47 1548.79 1364.31 1557.77 Q1362.54 1561.54 1360.06 1564.7 Q1357.58 1567.86 1355.94 1569.24 Q1354.3 1570.62 1353.81 1570.62 Q1353.17 1570.62 1353.17 1569.98 Z" fill="#000000" fill-rule="nonzero" fill-opacity="1" /><polyline clip-path="url(#clip630)" style="stroke:#000000; stroke-linecap:round; stroke-linejoin:round; stroke-width:4; stroke-opacity:1; fill:none" points="175.445,1423.18 175.445,123.472 "/>
<polyline clip-path="url(#clip630)" style="stroke:#000000; stroke-linecap:round; stroke-linejoin:round; stroke-width:4; stroke-opacity:1; fill:none" points="175.445,1407.13 194.343,1407.13 "/>
<polyline clip-path="url(#clip630)" style="stroke:#000000; stroke-linecap:round; stroke-linejoin:round; stroke-width:4; stroke-opacity:1; fill:none" points="175.445,1086.22 194.343,1086.22 "/>
<polyline clip-path="url(#clip630)" style="stroke:#000000; stroke-linecap:round; stroke-linejoin:round; stroke-width:4; stroke-opacity:1; fill:none" points="175.445,765.303 194.343,765.303 "/>
<polyline clip-path="url(#clip630)" style="stroke:#000000; stroke-linecap:round; stroke-linejoin:round; stroke-width:4; stroke-opacity:1; fill:none" points="175.445,444.388 194.343,444.388 "/>
<polyline clip-path="url(#clip630)" style="stroke:#000000; stroke-linecap:round; stroke-linejoin:round; stroke-width:4; stroke-opacity:1; fill:none" points="175.445,123.472 194.343,123.472 "/>
<path clip-path="url(#clip630)" d="M127.501 1392.93 Q123.89 1392.93 122.061 1396.5 Q120.255 1400.04 120.255 1407.17 Q120.255 1414.28 122.061 1417.84 Q123.89 1421.38 127.501 1421.38 Q131.135 1421.38 132.941 1417.84 Q134.769 1414.28 134.769 1407.17 Q134.769 1400.04 132.941 1396.5 Q131.135 1392.93 127.501 1392.93 M127.501 1389.23 Q133.311 1389.23 136.367 1393.84 Q139.445 1398.42 139.445 1407.17 Q139.445 1415.9 136.367 1420.5 Q133.311 1425.09 127.501 1425.09 Q121.691 1425.09 118.612 1420.5 Q115.556 1415.9 115.556 1407.17 Q115.556 1398.42 118.612 1393.84 Q121.691 1389.23 127.501 1389.23 Z" fill="#000000" fill-rule="nonzero" fill-opacity="1" /><path clip-path="url(#clip630)" d="M123.126 1099.56 L139.445 1099.56 L139.445 1103.5 L117.501 1103.5 L117.501 1099.56 Q120.163 1096.81 124.746 1092.18 Q129.353 1087.53 130.533 1086.18 Q132.779 1083.66 133.658 1081.92 Q134.561 1080.17 134.561 1078.48 Q134.561 1075.72 132.617 1073.98 Q130.695 1072.25 127.593 1072.25 Q125.394 1072.25 122.941 1073.01 Q120.51 1073.78 117.732 1075.33 L117.732 1070.61 Q120.556 1069.47 123.01 1068.89 Q125.464 1068.31 127.501 1068.31 Q132.871 1068.31 136.066 1071 Q139.26 1073.68 139.26 1078.17 Q139.26 1080.3 138.45 1082.23 Q137.663 1084.12 135.556 1086.72 Q134.978 1087.39 131.876 1090.61 Q128.774 1093.8 123.126 1099.56 Z" fill="#000000" fill-rule="nonzero" fill-opacity="1" /><path clip-path="url(#clip630)" d="M129.862 752.097 L118.056 770.546 L129.862 770.546 L129.862 752.097 M128.635 748.023 L134.515 748.023 L134.515 770.546 L139.445 770.546 L139.445 774.435 L134.515 774.435 L134.515 782.583 L129.862 782.583 L129.862 774.435 L114.26 774.435 L114.26 769.921 L128.635 748.023 Z" fill="#000000" fill-rule="nonzero" fill-opacity="1" /><path clip-path="url(#clip630)" d="M127.917 442.524 Q124.769 442.524 122.918 444.677 Q121.089 446.83 121.089 450.58 Q121.089 454.307 122.918 456.482 Q124.769 458.635 127.917 458.635 Q131.066 458.635 132.894 456.482 Q134.746 454.307 134.746 450.58 Q134.746 446.83 132.894 444.677 Q131.066 442.524 127.917 442.524 M137.2 427.871 L137.2 432.131 Q135.441 431.297 133.635 430.858 Q131.853 430.418 130.093 430.418 Q125.464 430.418 123.01 433.543 Q120.58 436.668 120.232 442.987 Q121.598 440.973 123.658 439.908 Q125.718 438.821 128.195 438.821 Q133.404 438.821 136.413 441.992 Q139.445 445.14 139.445 450.58 Q139.445 455.904 136.297 459.121 Q133.149 462.339 127.917 462.339 Q121.922 462.339 118.751 457.756 Q115.58 453.149 115.58 444.422 Q115.58 436.228 119.468 431.367 Q123.357 426.483 129.908 426.483 Q131.667 426.483 133.45 426.83 Q135.255 427.177 137.2 427.871 Z" fill="#000000" fill-rule="nonzero" fill-opacity="1" /><path clip-path="url(#clip630)" d="M127.593 124.34 Q124.26 124.34 122.339 126.123 Q120.441 127.905 120.441 131.03 Q120.441 134.155 122.339 135.937 Q124.26 137.72 127.593 137.72 Q130.927 137.72 132.848 135.937 Q134.769 134.132 134.769 131.03 Q134.769 127.905 132.848 126.123 Q130.95 124.34 127.593 124.34 M122.918 122.349 Q119.908 121.609 118.218 119.549 Q116.552 117.488 116.552 114.525 Q116.552 110.382 119.492 107.975 Q122.455 105.567 127.593 105.567 Q132.755 105.567 135.695 107.975 Q138.635 110.382 138.635 114.525 Q138.635 117.488 136.945 119.549 Q135.279 121.609 132.292 122.349 Q135.672 123.136 137.547 125.428 Q139.445 127.72 139.445 131.03 Q139.445 136.053 136.367 138.738 Q133.311 141.423 127.593 141.423 Q121.876 141.423 118.797 138.738 Q115.742 136.053 115.742 131.03 Q115.742 127.72 117.64 125.428 Q119.538 123.136 122.918 122.349 M121.205 114.965 Q121.205 117.65 122.871 119.155 Q124.561 120.66 127.593 120.66 Q130.603 120.66 132.292 119.155 Q134.005 117.65 134.005 114.965 Q134.005 112.28 132.292 110.775 Q130.603 109.271 127.593 109.271 Q124.561 109.271 122.871 110.775 Q121.205 112.28 121.205 114.965 Z" fill="#000000" fill-rule="nonzero" fill-opacity="1" /><path clip-path="url(#clip630)" d="M20.5821 853.744 Q21.7738 853.809 21.8382 854.614 Q21.9026 855.838 22.0636 856.578 Q22.1924 857.319 22.6755 858.478 Q23.1586 859.638 24.318 860.765 Q25.4774 861.892 27.3132 863.052 L65.0906 886.787 Q65.7992 887.206 66.0246 887.56 Q66.2823 887.882 66.2823 888.623 Q66.2823 889.3 65.9924 889.557 Q65.7348 889.815 64.7686 889.944 L24.0604 895.161 Q23.3196 895.258 22.9976 895.354 Q22.6755 895.451 22.3535 895.837 Q22.0314 896.192 21.9348 896.964 Q21.8382 897.737 21.8382 899.122 Q21.8382 899.766 21.806 900.056 Q21.7738 900.314 21.6127 900.539 Q21.4195 900.765 21.033 900.765 Q20.4533 900.765 20.1635 900.539 Q19.8414 900.282 19.8092 900.088 Q19.777 899.863 19.777 899.509 Q19.777 898.961 19.8414 897.77 Q19.9058 896.578 19.9058 895.966 Q19.9058 895.386 19.938 894.163 Q19.9702 892.939 19.9702 892.327 Q19.9702 890.974 19.8736 888.237 Q19.777 885.467 19.777 884.147 Q19.777 883.245 20.5177 883.245 Q21.4195 883.245 21.6449 883.631 Q21.8382 884.018 21.8382 884.887 Q21.8382 887.077 22.3857 888.269 Q22.9332 889.428 23.8027 889.428 L58.7139 884.952 L26.508 864.694 Q24.9944 863.696 23.996 863.696 Q22.0636 863.696 21.8382 866.755 Q21.8382 867.786 21.033 867.786 Q20.4533 867.786 20.1635 867.528 Q19.8414 867.271 19.8092 867.077 Q19.777 866.852 19.777 866.53 Q19.777 865.467 19.8736 863.309 Q19.9702 861.119 19.9702 860.024 Q19.9702 859.123 19.8736 857.287 Q19.777 855.451 19.777 854.614 Q19.777 853.744 20.5821 853.744 Z" fill="#000000" fill-rule="nonzero" fill-opacity="1" /><path clip-path="url(#clip630)" d="M80.6694 844.119 Q77.6485 847.162 73.2749 847.162 Q68.8788 847.162 65.6776 844.186 Q62.4538 841.188 62.4538 836.905 Q62.4538 832.712 65.655 829.713 Q68.8337 826.692 73.2749 826.692 Q77.6259 826.692 80.6469 829.736 Q83.6678 832.757 83.6678 836.95 Q83.6678 841.053 80.6694 844.119 M72.8917 843.33 Q77.378 843.33 79.4069 842.157 Q82.4955 840.354 82.4955 836.905 Q82.4955 835.191 81.5712 833.771 Q80.6469 832.328 79.0913 831.539 Q77.0623 830.525 72.8917 830.525 Q68.4505 830.525 66.4892 831.742 Q63.4908 833.546 63.4908 836.95 Q63.4908 838.438 64.2798 839.903 Q65.0463 841.346 66.5793 842.225 Q68.6083 843.33 72.8917 843.33 Z" fill="#000000" fill-rule="nonzero" fill-opacity="1" /><path clip-path="url(#clip630)" d="M64.6856 825.221 L63.2428 825.221 L62.7468 818.436 L78.0768 818.436 Q79.1815 818.436 79.8353 818.345 Q80.4665 818.255 81.2105 817.895 Q81.9544 817.511 82.2926 816.655 Q82.6307 815.775 82.6307 814.378 Q82.6307 811.875 80.5792 810.342 Q78.5277 808.787 75.4843 808.787 L67.2557 808.787 Q65.5423 808.787 65.114 809.395 Q64.6856 810.004 64.6856 812.394 L63.2428 812.394 L62.7468 805.608 L79.1364 805.608 Q80.8498 805.608 81.3006 805.022 Q81.729 804.413 81.729 802.001 L83.1493 802.001 L83.6678 808.652 L79.4971 808.652 Q83.6452 810.59 83.6678 814.603 Q83.6678 816.632 83.1493 818.03 Q82.6307 819.405 81.9995 820.104 Q81.3457 820.803 80.1058 821.186 Q78.8659 821.547 78.0994 821.592 Q77.3329 821.637 75.845 821.637 L68.9239 821.637 Q65.7903 821.637 65.2492 822.088 Q64.6856 822.539 64.6856 825.221 Z" fill="#000000" fill-rule="nonzero" fill-opacity="1" /><path clip-path="url(#clip630)" d="M64.6856 800.41 L63.6711 800.41 Q63.581 798.291 62.0931 796.893 Q60.5826 795.473 58.734 795 Q56.8854 794.504 54.7437 794.459 L54.7437 793.309 L63.2428 793.309 L63.2428 786.703 L64.6856 786.703 L64.6856 793.309 L77.5132 793.309 Q82.4955 793.309 82.4955 790.198 Q82.4955 788.868 81.1428 787.988 Q79.7676 787.109 77.3329 787.109 L74.7854 787.109 L74.7854 785.959 L77.423 785.959 Q79.9254 785.959 81.7966 787.109 Q83.6678 788.259 83.6678 790.536 Q83.6678 791.37 83.4423 792.204 Q83.2394 793.016 82.6984 794.098 Q82.1348 795.157 80.7821 795.834 Q79.4069 796.487 77.423 796.487 L64.6856 796.487 L64.6856 800.41 Z" fill="#000000" fill-rule="nonzero" fill-opacity="1" /><path clip-path="url(#clip630)" d="M48.3436 758.21 Q37.2004 758.21 28.2149 754.056 Q24.4469 752.284 21.2907 749.804 Q18.1345 747.325 16.7497 745.682 Q15.3648 744.04 15.3648 743.589 Q15.3648 742.945 16.0089 742.912 Q16.331 742.912 17.1361 743.782 Q27.9573 754.41 48.3436 754.378 Q68.7943 754.378 79.1968 744.04 Q80.324 742.912 80.6783 742.912 Q81.3224 742.912 81.3224 743.589 Q81.3224 744.04 80.002 745.618 Q78.6815 747.196 75.6542 749.643 Q72.6268 752.091 68.9231 753.862 Q59.9377 758.21 48.3436 758.21 Z" fill="#000000" fill-rule="nonzero" fill-opacity="1" /><path clip-path="url(#clip630)" d="M21.8382 735.523 L19.777 735.523 Q19.9702 728.405 19.9702 727.149 Q19.9702 720.096 19.777 717.713 L21.8382 717.713 Q21.8382 723.123 23.7383 723.123 Q23.996 723.123 24.9299 722.737 L58.2308 710.144 L26.4436 698.067 Q25.4452 697.745 25.1232 697.745 Q23.8027 697.745 22.8688 698.969 Q21.9026 700.161 21.8382 702.544 L19.777 702.544 Q19.9702 697.391 19.9702 695.04 Q19.9702 691.691 19.777 688.631 L21.8382 688.631 Q21.9026 694.17 26.2504 695.813 L65.0262 710.531 Q65.8314 710.789 66.0568 711.046 Q66.2823 711.304 66.2823 712.109 Q66.2823 712.753 66.0246 713.107 Q65.767 713.429 64.833 713.752 L24.3502 729.049 Q22.5789 729.693 22.2246 730.853 Q21.8382 732.012 21.8382 735.523 Z" fill="#000000" fill-rule="nonzero" fill-opacity="1" /><path clip-path="url(#clip630)" d="M80.6783 671.215 Q80.3562 671.215 79.5511 670.377 Q68.7299 659.749 48.3436 659.749 Q27.8929 659.749 17.5548 669.959 Q16.3632 671.215 16.0089 671.215 Q15.3648 671.215 15.3648 670.57 Q15.3648 670.12 16.6852 668.541 Q18.0057 666.931 21.033 664.516 Q24.0604 662.068 27.7641 660.265 Q36.7495 655.917 48.3436 655.917 Q59.4868 655.917 68.4723 660.071 Q72.2403 661.843 75.3965 664.323 Q78.5527 666.802 79.9376 668.445 Q81.3224 670.087 81.3224 670.57 Q81.3224 671.215 80.6783 671.215 Z" fill="#000000" fill-rule="nonzero" fill-opacity="1" /><path clip-path="url(#clip630)" d="M671.089 12.096 L679.272 12.096 L679.272 72.576 L671.089 72.576 L671.089 12.096 Z" fill="#000000" fill-rule="nonzero" fill-opacity="1" /><path clip-path="url(#clip630)" d="M732.946 45.1919 L732.946 72.576 L725.492 72.576 L725.492 45.4349 Q725.492 38.994 722.981 35.7938 Q720.469 32.5936 715.446 32.5936 Q709.41 32.5936 705.926 36.4419 Q702.443 40.2903 702.443 46.9338 L702.443 72.576 L694.949 72.576 L694.949 27.2059 L702.443 27.2059 L702.443 34.2544 Q705.116 30.163 708.722 28.1376 Q712.367 26.1121 717.107 26.1121 Q724.925 26.1121 728.936 30.9732 Q732.946 35.7938 732.946 45.1919 Z" fill="#000000" fill-rule="nonzero" fill-opacity="1" /><path clip-path="url(#clip630)" d="M755.023 65.7705 L755.023 89.8329 L747.529 89.8329 L747.529 27.2059 L755.023 27.2059 L755.023 34.0924 Q757.373 30.0415 760.938 28.0971 Q764.543 26.1121 769.526 26.1121 Q777.79 26.1121 782.934 32.6746 Q788.119 39.2371 788.119 49.9314 Q788.119 60.6258 782.934 67.1883 Q777.79 73.7508 769.526 73.7508 Q764.543 73.7508 760.938 71.8063 Q757.373 69.8214 755.023 65.7705 M780.382 49.9314 Q780.382 41.7081 776.979 37.0496 Q773.617 32.3505 767.703 32.3505 Q761.788 32.3505 758.386 37.0496 Q755.023 41.7081 755.023 49.9314 Q755.023 58.1548 758.386 62.8538 Q761.788 67.5124 767.703 67.5124 Q773.617 67.5124 776.979 62.8538 Q780.382 58.1548 780.382 49.9314 Z" fill="#000000" fill-rule="nonzero" fill-opacity="1" /><path clip-path="url(#clip630)" d="M799.705 54.671 L799.705 27.2059 L807.159 27.2059 L807.159 54.3874 Q807.159 60.8284 809.67 64.0691 Q812.182 67.2693 817.205 67.2693 Q823.241 67.2693 826.724 63.421 Q830.249 59.5726 830.249 52.9291 L830.249 27.2059 L837.702 27.2059 L837.702 72.576 L830.249 72.576 L830.249 65.6084 Q827.535 69.7404 823.929 71.7658 Q820.365 73.7508 815.625 73.7508 Q807.807 73.7508 803.756 68.8897 Q799.705 64.0286 799.705 54.671 M818.461 26.1121 L818.461 26.1121 Z" fill="#000000" fill-rule="nonzero" fill-opacity="1" /><path clip-path="url(#clip630)" d="M860.428 14.324 L860.428 27.2059 L875.781 27.2059 L875.781 32.9987 L860.428 32.9987 L860.428 57.6282 Q860.428 63.1779 861.927 64.7578 Q863.466 66.3376 868.125 66.3376 L875.781 66.3376 L875.781 72.576 L868.125 72.576 Q859.496 72.576 856.215 69.3758 Q852.934 66.1351 852.934 57.6282 L852.934 32.9987 L847.465 32.9987 L847.465 27.2059 L852.934 27.2059 L852.934 14.324 L860.428 14.324 Z" fill="#000000" fill-rule="nonzero" fill-opacity="1" /><path clip-path="url(#clip630)" d="M906.608 27.2059 L914.508 27.2059 L928.686 65.2844 L942.864 27.2059 L950.763 27.2059 L933.749 72.576 L923.622 72.576 L906.608 27.2059 Z" fill="#000000" fill-rule="nonzero" fill-opacity="1" /><path clip-path="url(#clip630)" d="M989.976 28.5427 L989.976 35.5912 Q986.816 33.9709 983.413 33.1607 Q980.011 32.3505 976.365 32.3505 Q970.815 32.3505 968.02 34.0519 Q965.265 35.7533 965.265 39.156 Q965.265 41.7486 967.25 43.2475 Q969.235 44.7058 975.231 46.0426 L977.783 46.6097 Q985.722 48.3111 989.044 51.4303 Q992.406 54.509 992.406 60.0587 Q992.406 66.3781 987.383 70.0644 Q982.401 73.7508 973.651 73.7508 Q970.005 73.7508 966.035 73.0216 Q962.106 72.3329 957.731 70.9151 L957.731 63.2184 Q961.863 65.3654 965.873 66.4591 Q969.883 67.5124 973.813 67.5124 Q979.079 67.5124 981.915 65.73 Q984.75 63.9071 984.75 60.6258 Q984.75 57.5877 982.684 55.9673 Q980.659 54.3469 973.732 52.8481 L971.139 52.2405 Q964.212 50.7821 961.133 47.7845 Q958.055 44.7463 958.055 39.4801 Q958.055 33.0797 962.592 29.5959 Q967.129 26.1121 975.474 26.1121 Q979.606 26.1121 983.251 26.7198 Q986.897 27.3274 989.976 28.5427 Z" fill="#000000" fill-rule="nonzero" fill-opacity="1" /><path clip-path="url(#clip630)" d="M1005.33 62.2867 L1013.88 62.2867 L1013.88 72.576 L1005.33 72.576 L1005.33 62.2867 Z" fill="#000000" fill-rule="nonzero" fill-opacity="1" /><path clip-path="url(#clip630)" d="M1081.89 17.6457 Q1072.98 17.6457 1067.71 24.2892 Q1062.49 30.9327 1062.49 42.3968 Q1062.49 53.8203 1067.71 60.4638 Q1072.98 67.1073 1081.89 67.1073 Q1090.8 67.1073 1095.99 60.4638 Q1101.21 53.8203 1101.21 42.3968 Q1101.21 30.9327 1095.99 24.2892 Q1090.8 17.6457 1081.89 17.6457 M1081.89 11.0023 Q1094.61 11.0023 1102.23 19.5497 Q1109.84 28.0566 1109.84 42.3968 Q1109.84 56.6965 1102.23 65.2439 Q1094.61 73.7508 1081.89 73.7508 Q1069.13 73.7508 1061.47 65.2439 Q1053.86 56.737 1053.86 42.3968 Q1053.86 28.0566 1061.47 19.5497 Q1069.13 11.0023 1081.89 11.0023 Z" fill="#000000" fill-rule="nonzero" fill-opacity="1" /><path clip-path="url(#clip630)" d="M1121.55 54.671 L1121.55 27.2059 L1129 27.2059 L1129 54.3874 Q1129 60.8284 1131.51 64.0691 Q1134.03 67.2693 1139.05 67.2693 Q1145.08 67.2693 1148.57 63.421 Q1152.09 59.5726 1152.09 52.9291 L1152.09 27.2059 L1159.55 27.2059 L1159.55 72.576 L1152.09 72.576 L1152.09 65.6084 Q1149.38 69.7404 1145.77 71.7658 Q1142.21 73.7508 1137.47 73.7508 Q1129.65 73.7508 1125.6 68.8897 Q1121.55 64.0286 1121.55 54.671 M1140.3 26.1121 L1140.3 26.1121 Z" fill="#000000" fill-rule="nonzero" fill-opacity="1" /><path clip-path="url(#clip630)" d="M1182.27 14.324 L1182.27 27.2059 L1197.63 27.2059 L1197.63 32.9987 L1182.27 32.9987 L1182.27 57.6282 Q1182.27 63.1779 1183.77 64.7578 Q1185.31 66.3376 1189.97 66.3376 L1197.63 66.3376 L1197.63 72.576 L1189.97 72.576 Q1181.34 72.576 1178.06 69.3758 Q1174.78 66.1351 1174.78 57.6282 L1174.78 32.9987 L1169.31 32.9987 L1169.31 27.2059 L1174.78 27.2059 L1174.78 14.324 L1182.27 14.324 Z" fill="#000000" fill-rule="nonzero" fill-opacity="1" /><path clip-path="url(#clip630)" d="M1214.64 65.7705 L1214.64 89.8329 L1207.14 89.8329 L1207.14 27.2059 L1214.64 27.2059 L1214.64 34.0924 Q1216.99 30.0415 1220.55 28.0971 Q1224.16 26.1121 1229.14 26.1121 Q1237.41 26.1121 1242.55 32.6746 Q1247.73 39.2371 1247.73 49.9314 Q1247.73 60.6258 1242.55 67.1883 Q1237.41 73.7508 1229.14 73.7508 Q1224.16 73.7508 1220.55 71.8063 Q1216.99 69.8214 1214.64 65.7705 M1240 49.9314 Q1240 41.7081 1236.59 37.0496 Q1233.23 32.3505 1227.32 32.3505 Q1221.4 32.3505 1218 37.0496 Q1214.64 41.7081 1214.64 49.9314 Q1214.64 58.1548 1218 62.8538 Q1221.4 67.5124 1227.32 67.5124 Q1233.23 67.5124 1236.59 62.8538 Q1240 58.1548 1240 49.9314 Z" fill="#000000" fill-rule="nonzero" fill-opacity="1" /><path clip-path="url(#clip630)" d="M1259.32 54.671 L1259.32 27.2059 L1266.77 27.2059 L1266.77 54.3874 Q1266.77 60.8284 1269.29 64.0691 Q1271.8 67.2693 1276.82 67.2693 Q1282.86 67.2693 1286.34 63.421 Q1289.86 59.5726 1289.86 52.9291 L1289.86 27.2059 L1297.32 27.2059 L1297.32 72.576 L1289.86 72.576 L1289.86 65.6084 Q1287.15 69.7404 1283.54 71.7658 Q1279.98 73.7508 1275.24 73.7508 Q1267.42 73.7508 1263.37 68.8897 Q1259.32 64.0286 1259.32 54.671 M1278.08 26.1121 L1278.08 26.1121 Z" fill="#000000" fill-rule="nonzero" fill-opacity="1" /><path clip-path="url(#clip630)" d="M1320.04 14.324 L1320.04 27.2059 L1335.4 27.2059 L1335.4 32.9987 L1320.04 32.9987 L1320.04 57.6282 Q1320.04 63.1779 1321.54 64.7578 Q1323.08 66.3376 1327.74 66.3376 L1335.4 66.3376 L1335.4 72.576 L1327.74 72.576 Q1319.11 72.576 1315.83 69.3758 Q1312.55 66.1351 1312.55 57.6282 L1312.55 32.9987 L1307.08 32.9987 L1307.08 27.2059 L1312.55 27.2059 L1312.55 14.324 L1320.04 14.324 Z" fill="#000000" fill-rule="nonzero" fill-opacity="1" /><path clip-path="url(#clip630)" d="M1366.22 27.2059 L1374.12 27.2059 L1388.3 65.2844 L1402.48 27.2059 L1410.38 27.2059 L1393.36 72.576 L1383.24 72.576 L1366.22 27.2059 Z" fill="#000000" fill-rule="nonzero" fill-opacity="1" /><path clip-path="url(#clip630)" d="M1438.25 32.4315 Q1432.25 32.4315 1428.77 37.1306 Q1425.29 41.7891 1425.29 49.9314 Q1425.29 58.0738 1428.73 62.7728 Q1432.21 67.4314 1438.25 67.4314 Q1444.2 67.4314 1447.69 62.7323 Q1451.17 58.0333 1451.17 49.9314 Q1451.17 41.8701 1447.69 37.1711 Q1444.2 32.4315 1438.25 32.4315 M1438.25 26.1121 Q1447.97 26.1121 1453.52 32.4315 Q1459.07 38.7509 1459.07 49.9314 Q1459.07 61.0714 1453.52 67.4314 Q1447.97 73.7508 1438.25 73.7508 Q1428.49 73.7508 1422.94 67.4314 Q1417.43 61.0714 1417.43 49.9314 Q1417.43 38.7509 1422.94 32.4315 Q1428.49 26.1121 1438.25 26.1121 Z" fill="#000000" fill-rule="nonzero" fill-opacity="1" /><path clip-path="url(#clip630)" d="M1471.43 9.54393 L1478.88 9.54393 L1478.88 72.576 L1471.43 72.576 L1471.43 9.54393 Z" fill="#000000" fill-rule="nonzero" fill-opacity="1" /><path clip-path="url(#clip630)" d="M1501.85 14.324 L1501.85 27.2059 L1517.2 27.2059 L1517.2 32.9987 L1501.85 32.9987 L1501.85 57.6282 Q1501.85 63.1779 1503.35 64.7578 Q1504.89 66.3376 1509.54 66.3376 L1517.2 66.3376 L1517.2 72.576 L1509.54 72.576 Q1500.92 72.576 1497.64 69.3758 Q1494.35 66.1351 1494.35 57.6282 L1494.35 32.9987 L1488.89 32.9987 L1488.89 27.2059 L1494.35 27.2059 L1494.35 14.324 L1501.85 14.324 Z" fill="#000000" fill-rule="nonzero" fill-opacity="1" /><path clip-path="url(#clip630)" d="M1547.62 49.7694 Q1538.59 49.7694 1535.11 51.8354 Q1531.62 53.9013 1531.62 58.8839 Q1531.62 62.8538 1534.21 65.2034 Q1536.85 67.5124 1541.34 67.5124 Q1547.54 67.5124 1551.27 63.1374 Q1555.04 58.7219 1555.04 51.4303 L1555.04 49.7694 L1547.62 49.7694 M1562.49 46.6907 L1562.49 72.576 L1555.04 72.576 L1555.04 65.6895 Q1552.48 69.8214 1548.68 71.8063 Q1544.87 73.7508 1539.36 73.7508 Q1532.39 73.7508 1528.26 69.8619 Q1524.17 65.9325 1524.17 59.3701 Q1524.17 51.7138 1529.27 47.825 Q1534.42 43.9361 1544.59 43.9361 L1555.04 43.9361 L1555.04 43.2069 Q1555.04 38.0623 1551.63 35.2672 Q1548.27 32.4315 1542.15 32.4315 Q1538.27 32.4315 1534.58 33.3632 Q1530.89 34.295 1527.49 36.1584 L1527.49 29.2718 Q1531.58 27.692 1535.43 26.9223 Q1539.28 26.1121 1542.92 26.1121 Q1552.77 26.1121 1557.63 31.2163 Q1562.49 36.3204 1562.49 46.6907 Z" fill="#000000" fill-rule="nonzero" fill-opacity="1" /><path clip-path="url(#clip630)" d="M1607.7 49.3643 Q1607.7 41.2625 1604.34 36.8065 Q1601.01 32.3505 1594.98 32.3505 Q1588.98 32.3505 1585.62 36.8065 Q1582.3 41.2625 1582.3 49.3643 Q1582.3 57.4256 1585.62 61.8816 Q1588.98 66.3376 1594.98 66.3376 Q1601.01 66.3376 1604.34 61.8816 Q1607.7 57.4256 1607.7 49.3643 M1615.15 66.9452 Q1615.15 78.5308 1610.01 84.1616 Q1604.86 89.8329 1594.25 89.8329 Q1590.32 89.8329 1586.84 89.2252 Q1583.35 88.6581 1580.07 87.4428 L1580.07 80.1917 Q1583.35 81.9741 1586.55 82.8248 Q1589.75 83.6755 1593.07 83.6755 Q1600.41 83.6755 1604.05 79.8271 Q1607.7 76.0193 1607.7 68.282 L1607.7 64.5957 Q1605.39 68.6061 1601.78 70.5911 Q1598.18 72.576 1593.16 72.576 Q1584.81 72.576 1579.71 66.2161 Q1574.6 59.8562 1574.6 49.3643 Q1574.6 38.832 1579.71 32.472 Q1584.81 26.1121 1593.16 26.1121 Q1598.18 26.1121 1601.78 28.0971 Q1605.39 30.082 1607.7 34.0924 L1607.7 27.2059 L1615.15 27.2059 L1615.15 66.9452 Z" fill="#000000" fill-rule="nonzero" fill-opacity="1" /><path clip-path="url(#clip630)" d="M1669.31 48.0275 L1669.31 51.6733 L1635.04 51.6733 Q1635.53 59.3701 1639.66 63.421 Q1643.83 67.4314 1651.25 67.4314 Q1655.54 67.4314 1659.55 66.3781 Q1663.6 65.3249 1667.57 63.2184 L1667.57 70.267 Q1663.56 71.9684 1659.35 72.8596 Q1655.13 73.7508 1650.8 73.7508 Q1639.94 73.7508 1633.58 67.4314 Q1627.26 61.1119 1627.26 50.3365 Q1627.26 39.1965 1633.26 32.6746 Q1639.3 26.1121 1649.5 26.1121 Q1658.66 26.1121 1663.97 32.0264 Q1669.31 37.9003 1669.31 48.0275 M1661.86 45.84 Q1661.78 39.7232 1658.42 36.0774 Q1655.09 32.4315 1649.58 32.4315 Q1643.35 32.4315 1639.58 35.9558 Q1635.85 39.4801 1635.28 45.8805 L1661.86 45.84 Z" fill="#000000" fill-rule="nonzero" fill-opacity="1" /><path clip-path="url(#clip630)" d="M1715.13 65.7705 L1715.13 89.8329 L1707.63 89.8329 L1707.63 27.2059 L1715.13 27.2059 L1715.13 34.0924 Q1717.48 30.0415 1721.04 28.0971 Q1724.65 26.1121 1729.63 26.1121 Q1737.89 26.1121 1743.04 32.6746 Q1748.22 39.2371 1748.22 49.9314 Q1748.22 60.6258 1743.04 67.1883 Q1737.89 73.7508 1729.63 73.7508 Q1724.65 73.7508 1721.04 71.8063 Q1717.48 69.8214 1715.13 65.7705 M1740.49 49.9314 Q1740.49 41.7081 1737.08 37.0496 Q1733.72 32.3505 1727.81 32.3505 Q1721.89 32.3505 1718.49 37.0496 Q1715.13 41.7081 1715.13 49.9314 Q1715.13 58.1548 1718.49 62.8538 Q1721.89 67.5124 1727.81 67.5124 Q1733.72 67.5124 1737.08 62.8538 Q1740.49 58.1548 1740.49 49.9314 Z" fill="#000000" fill-rule="nonzero" fill-opacity="1" /><path clip-path="url(#clip630)" d="M1760.58 9.54393 L1768.03 9.54393 L1768.03 72.576 L1760.58 72.576 L1760.58 9.54393 Z" fill="#000000" fill-rule="nonzero" fill-opacity="1" /><path clip-path="url(#clip630)" d="M1801.21 32.4315 Q1795.21 32.4315 1791.73 37.1306 Q1788.25 41.7891 1788.25 49.9314 Q1788.25 58.0738 1791.69 62.7728 Q1795.17 67.4314 1801.21 67.4314 Q1807.16 67.4314 1810.65 62.7323 Q1814.13 58.0333 1814.13 49.9314 Q1814.13 41.8701 1810.65 37.1711 Q1807.16 32.4315 1801.21 32.4315 M1801.21 26.1121 Q1810.93 26.1121 1816.48 32.4315 Q1822.03 38.7509 1822.03 49.9314 Q1822.03 61.0714 1816.48 67.4314 Q1810.93 73.7508 1801.21 73.7508 Q1791.45 73.7508 1785.9 67.4314 Q1780.39 61.0714 1780.39 49.9314 Q1780.39 38.7509 1785.9 32.4315 Q1791.45 26.1121 1801.21 26.1121 Z" fill="#000000" fill-rule="nonzero" fill-opacity="1" /><path clip-path="url(#clip630)" d="M1841.76 14.324 L1841.76 27.2059 L1857.11 27.2059 L1857.11 32.9987 L1841.76 32.9987 L1841.76 57.6282 Q1841.76 63.1779 1843.26 64.7578 Q1844.8 66.3376 1849.46 66.3376 L1857.11 66.3376 L1857.11 72.576 L1849.46 72.576 Q1840.83 72.576 1837.55 69.3758 Q1834.27 66.1351 1834.27 57.6282 L1834.27 32.9987 L1828.8 32.9987 L1828.8 27.2059 L1834.27 27.2059 L1834.27 14.324 L1841.76 14.324 Z" fill="#000000" fill-rule="nonzero" fill-opacity="1" /><polyline clip-path="url(#clip632)" style="stroke:#0000ff; stroke-linecap:round; stroke-linejoin:round; stroke-width:8; stroke-opacity:1; fill:none" points="237.067,1405.53 319.23,1342.95 374.005,1296.42 456.168,1243.47 524.637,1196.93 565.718,1163.24 647.881,1110.29 716.349,1060.55 771.125,1017.22 853.287,962.666 921.756,911.32 976.531,876.019 1058.69,816.65 1127.16,778.14 1195.63,728.398 1264.1,673.842 1332.57,625.705 1401.04,579.172 1455.81,540.662 1537.98,490.92 1606.45,436.365 1674.91,388.227 1743.38,364.159 1811.85,359.345 1866.63,352.927 1948.79,356.136 2017.26,354.531 2099.42,352.927 2140.5,352.927 2222.67,352.927 2291.13,351.322 "/>
<circle clip-path="url(#clip632)" cx="237.067" cy="1405.53" r="14.4" fill="#0000ff" fill-rule="evenodd" fill-opacity="1" stroke="#000000" stroke-opacity="1" stroke-width="3.2"/>
<circle clip-path="url(#clip632)" cx="319.23" cy="1342.95" r="14.4" fill="#0000ff" fill-rule="evenodd" fill-opacity="1" stroke="#000000" stroke-opacity="1" stroke-width="3.2"/>
<circle clip-path="url(#clip632)" cx="374.005" cy="1296.42" r="14.4" fill="#0000ff" fill-rule="evenodd" fill-opacity="1" stroke="#000000" stroke-opacity="1" stroke-width="3.2"/>
<circle clip-path="url(#clip632)" cx="456.168" cy="1243.47" r="14.4" fill="#0000ff" fill-rule="evenodd" fill-opacity="1" stroke="#000000" stroke-opacity="1" stroke-width="3.2"/>
<circle clip-path="url(#clip632)" cx="524.637" cy="1196.93" r="14.4" fill="#0000ff" fill-rule="evenodd" fill-opacity="1" stroke="#000000" stroke-opacity="1" stroke-width="3.2"/>
<circle clip-path="url(#clip632)" cx="565.718" cy="1163.24" r="14.4" fill="#0000ff" fill-rule="evenodd" fill-opacity="1" stroke="#000000" stroke-opacity="1" stroke-width="3.2"/>
<circle clip-path="url(#clip632)" cx="647.881" cy="1110.29" r="14.4" fill="#0000ff" fill-rule="evenodd" fill-opacity="1" stroke="#000000" stroke-opacity="1" stroke-width="3.2"/>
<circle clip-path="url(#clip632)" cx="716.349" cy="1060.55" r="14.4" fill="#0000ff" fill-rule="evenodd" fill-opacity="1" stroke="#000000" stroke-opacity="1" stroke-width="3.2"/>
<circle clip-path="url(#clip632)" cx="771.125" cy="1017.22" r="14.4" fill="#0000ff" fill-rule="evenodd" fill-opacity="1" stroke="#000000" stroke-opacity="1" stroke-width="3.2"/>
<circle clip-path="url(#clip632)" cx="853.287" cy="962.666" r="14.4" fill="#0000ff" fill-rule="evenodd" fill-opacity="1" stroke="#000000" stroke-opacity="1" stroke-width="3.2"/>
<circle clip-path="url(#clip632)" cx="921.756" cy="911.32" r="14.4" fill="#0000ff" fill-rule="evenodd" fill-opacity="1" stroke="#000000" stroke-opacity="1" stroke-width="3.2"/>
<circle clip-path="url(#clip632)" cx="976.531" cy="876.019" r="14.4" fill="#0000ff" fill-rule="evenodd" fill-opacity="1" stroke="#000000" stroke-opacity="1" stroke-width="3.2"/>
<circle clip-path="url(#clip632)" cx="1058.69" cy="816.65" r="14.4" fill="#0000ff" fill-rule="evenodd" fill-opacity="1" stroke="#000000" stroke-opacity="1" stroke-width="3.2"/>
<circle clip-path="url(#clip632)" cx="1127.16" cy="778.14" r="14.4" fill="#0000ff" fill-rule="evenodd" fill-opacity="1" stroke="#000000" stroke-opacity="1" stroke-width="3.2"/>
<circle clip-path="url(#clip632)" cx="1195.63" cy="728.398" r="14.4" fill="#0000ff" fill-rule="evenodd" fill-opacity="1" stroke="#000000" stroke-opacity="1" stroke-width="3.2"/>
<circle clip-path="url(#clip632)" cx="1264.1" cy="673.842" r="14.4" fill="#0000ff" fill-rule="evenodd" fill-opacity="1" stroke="#000000" stroke-opacity="1" stroke-width="3.2"/>
<circle clip-path="url(#clip632)" cx="1332.57" cy="625.705" r="14.4" fill="#0000ff" fill-rule="evenodd" fill-opacity="1" stroke="#000000" stroke-opacity="1" stroke-width="3.2"/>
<circle clip-path="url(#clip632)" cx="1401.04" cy="579.172" r="14.4" fill="#0000ff" fill-rule="evenodd" fill-opacity="1" stroke="#000000" stroke-opacity="1" stroke-width="3.2"/>
<circle clip-path="url(#clip632)" cx="1455.81" cy="540.662" r="14.4" fill="#0000ff" fill-rule="evenodd" fill-opacity="1" stroke="#000000" stroke-opacity="1" stroke-width="3.2"/>
<circle clip-path="url(#clip632)" cx="1537.98" cy="490.92" r="14.4" fill="#0000ff" fill-rule="evenodd" fill-opacity="1" stroke="#000000" stroke-opacity="1" stroke-width="3.2"/>
<circle clip-path="url(#clip632)" cx="1606.45" cy="436.365" r="14.4" fill="#0000ff" fill-rule="evenodd" fill-opacity="1" stroke="#000000" stroke-opacity="1" stroke-width="3.2"/>
<circle clip-path="url(#clip632)" cx="1674.91" cy="388.227" r="14.4" fill="#0000ff" fill-rule="evenodd" fill-opacity="1" stroke="#000000" stroke-opacity="1" stroke-width="3.2"/>
<circle clip-path="url(#clip632)" cx="1743.38" cy="364.159" r="14.4" fill="#0000ff" fill-rule="evenodd" fill-opacity="1" stroke="#000000" stroke-opacity="1" stroke-width="3.2"/>
<circle clip-path="url(#clip632)" cx="1811.85" cy="359.345" r="14.4" fill="#0000ff" fill-rule="evenodd" fill-opacity="1" stroke="#000000" stroke-opacity="1" stroke-width="3.2"/>
<circle clip-path="url(#clip632)" cx="1866.63" cy="352.927" r="14.4" fill="#0000ff" fill-rule="evenodd" fill-opacity="1" stroke="#000000" stroke-opacity="1" stroke-width="3.2"/>
<circle clip-path="url(#clip632)" cx="1948.79" cy="356.136" r="14.4" fill="#0000ff" fill-rule="evenodd" fill-opacity="1" stroke="#000000" stroke-opacity="1" stroke-width="3.2"/>
<circle clip-path="url(#clip632)" cx="2017.26" cy="354.531" r="14.4" fill="#0000ff" fill-rule="evenodd" fill-opacity="1" stroke="#000000" stroke-opacity="1" stroke-width="3.2"/>
<circle clip-path="url(#clip632)" cx="2099.42" cy="352.927" r="14.4" fill="#0000ff" fill-rule="evenodd" fill-opacity="1" stroke="#000000" stroke-opacity="1" stroke-width="3.2"/>
<circle clip-path="url(#clip632)" cx="2140.5" cy="352.927" r="14.4" fill="#0000ff" fill-rule="evenodd" fill-opacity="1" stroke="#000000" stroke-opacity="1" stroke-width="3.2"/>
<circle clip-path="url(#clip632)" cx="2222.67" cy="352.927" r="14.4" fill="#0000ff" fill-rule="evenodd" fill-opacity="1" stroke="#000000" stroke-opacity="1" stroke-width="3.2"/>
<circle clip-path="url(#clip632)" cx="2291.13" cy="351.322" r="14.4" fill="#0000ff" fill-rule="evenodd" fill-opacity="1" stroke="#000000" stroke-opacity="1" stroke-width="3.2"/>
<polyline clip-path="url(#clip632)" style="stroke:#ff0000; stroke-linecap:round; stroke-linejoin:round; stroke-width:8; stroke-opacity:1; fill:none" stroke-dasharray="32, 20" points="237.067,356.136 2291.13,356.136 "/>
<path clip-path="url(#clip630)" d="M1798.75 1379.86 L2280.18 1379.86 L2280.18 1224.34 L1798.75 1224.34  Z" fill="#ffffff" fill-rule="evenodd" fill-opacity="1"/>
<polyline clip-path="url(#clip630)" style="stroke:#000000; stroke-linecap:round; stroke-linejoin:round; stroke-width:4; stroke-opacity:1; fill:none" points="1798.75,1379.86 2280.18,1379.86 2280.18,1224.34 1798.75,1224.34 1798.75,1379.86 "/>
<polyline clip-path="url(#clip630)" style="stroke:#0000ff; stroke-linecap:round; stroke-linejoin:round; stroke-width:8; stroke-opacity:1; fill:none" points="1822.94,1276.18 1968.09,1276.18 "/>
<circle clip-path="url(#clip630)" cx="1895.51" cy="1276.18" r="20.1603" fill="#0000ff" fill-rule="evenodd" fill-opacity="1" stroke="#000000" stroke-opacity="1" stroke-width="4.55111"/>
<path clip-path="url(#clip630)" d="M1996.96 1262.74 L1996.96 1289.61 L2002.61 1289.61 Q2009.76 1289.61 2013.07 1286.37 Q2016.4 1283.13 2016.4 1276.14 Q2016.4 1269.2 2013.07 1265.98 Q2009.76 1262.74 2002.61 1262.74 L1996.96 1262.74 M1992.28 1258.9 L2001.89 1258.9 Q2011.94 1258.9 2016.64 1263.09 Q2021.34 1267.25 2021.34 1276.14 Q2021.34 1285.08 2016.61 1289.27 Q2011.89 1293.46 2001.89 1293.46 L1992.28 1293.46 L1992.28 1258.9 Z" fill="#000000" fill-rule="nonzero" fill-opacity="1" /><path clip-path="url(#clip630)" d="M2040.39 1280.42 Q2035.22 1280.42 2033.23 1281.6 Q2031.24 1282.79 2031.24 1285.63 Q2031.24 1287.9 2032.72 1289.24 Q2034.23 1290.56 2036.8 1290.56 Q2040.34 1290.56 2042.47 1288.06 Q2044.62 1285.54 2044.62 1281.37 L2044.62 1280.42 L2040.39 1280.42 M2048.88 1278.66 L2048.88 1293.46 L2044.62 1293.46 L2044.62 1289.52 Q2043.16 1291.88 2040.99 1293.02 Q2038.81 1294.13 2035.66 1294.13 Q2031.68 1294.13 2029.32 1291.91 Q2026.98 1289.66 2026.98 1285.91 Q2026.98 1281.54 2029.9 1279.31 Q2032.84 1277.09 2038.65 1277.09 L2044.62 1277.09 L2044.62 1276.67 Q2044.62 1273.73 2042.68 1272.14 Q2040.76 1270.52 2037.26 1270.52 Q2035.04 1270.52 2032.93 1271.05 Q2030.83 1271.58 2028.88 1272.65 L2028.88 1268.71 Q2031.22 1267.81 2033.42 1267.37 Q2035.62 1266.91 2037.7 1266.91 Q2043.33 1266.91 2046.1 1269.82 Q2048.88 1272.74 2048.88 1278.66 Z" fill="#000000" fill-rule="nonzero" fill-opacity="1" /><path clip-path="url(#clip630)" d="M2061.87 1260.17 L2061.87 1267.53 L2070.64 1267.53 L2070.64 1270.84 L2061.87 1270.84 L2061.87 1284.91 Q2061.87 1288.09 2062.72 1288.99 Q2063.6 1289.89 2066.27 1289.89 L2070.64 1289.89 L2070.64 1293.46 L2066.27 1293.46 Q2061.33 1293.46 2059.46 1291.63 Q2057.58 1289.78 2057.58 1284.91 L2057.58 1270.84 L2054.46 1270.84 L2054.46 1267.53 L2057.58 1267.53 L2057.58 1260.17 L2061.87 1260.17 Z" fill="#000000" fill-rule="nonzero" fill-opacity="1" /><path clip-path="url(#clip630)" d="M2088.02 1280.42 Q2082.86 1280.42 2080.87 1281.6 Q2078.88 1282.79 2078.88 1285.63 Q2078.88 1287.9 2080.36 1289.24 Q2081.87 1290.56 2084.44 1290.56 Q2087.98 1290.56 2090.11 1288.06 Q2092.26 1285.54 2092.26 1281.37 L2092.26 1280.42 L2088.02 1280.42 M2096.52 1278.66 L2096.52 1293.46 L2092.26 1293.46 L2092.26 1289.52 Q2090.8 1291.88 2088.63 1293.02 Q2086.45 1294.13 2083.3 1294.13 Q2079.32 1294.13 2076.96 1291.91 Q2074.62 1289.66 2074.62 1285.91 Q2074.62 1281.54 2077.54 1279.31 Q2080.48 1277.09 2086.29 1277.09 L2092.26 1277.09 L2092.26 1276.67 Q2092.26 1273.73 2090.32 1272.14 Q2088.39 1270.52 2084.9 1270.52 Q2082.68 1270.52 2080.57 1271.05 Q2078.46 1271.58 2076.52 1272.65 L2076.52 1268.71 Q2078.86 1267.81 2081.06 1267.37 Q2083.26 1266.91 2085.34 1266.91 Q2090.96 1266.91 2093.74 1269.82 Q2096.52 1272.74 2096.52 1278.66 Z" fill="#000000" fill-rule="nonzero" fill-opacity="1" /><path clip-path="url(#clip630)" d="M2125.22 1262.74 L2125.22 1275.72 L2131.1 1275.72 Q2134.37 1275.72 2136.15 1274.04 Q2137.93 1272.35 2137.93 1269.22 Q2137.93 1266.12 2136.15 1264.43 Q2134.37 1262.74 2131.1 1262.74 L2125.22 1262.74 M2120.55 1258.9 L2131.1 1258.9 Q2136.91 1258.9 2139.88 1261.54 Q2142.86 1264.15 2142.86 1269.22 Q2142.86 1274.34 2139.88 1276.95 Q2136.91 1279.57 2131.1 1279.57 L2125.22 1279.57 L2125.22 1293.46 L2120.55 1293.46 L2120.55 1258.9 Z" fill="#000000" fill-rule="nonzero" fill-opacity="1" /><path clip-path="url(#clip630)" d="M2157.31 1270.52 Q2153.88 1270.52 2151.89 1273.2 Q2149.9 1275.86 2149.9 1280.52 Q2149.9 1285.17 2151.87 1287.85 Q2153.86 1290.52 2157.31 1290.52 Q2160.71 1290.52 2162.7 1287.83 Q2164.69 1285.15 2164.69 1280.52 Q2164.69 1275.91 2162.7 1273.22 Q2160.71 1270.52 2157.31 1270.52 M2157.31 1266.91 Q2162.86 1266.91 2166.03 1270.52 Q2169.2 1274.13 2169.2 1280.52 Q2169.2 1286.88 2166.03 1290.52 Q2162.86 1294.13 2157.31 1294.13 Q2151.73 1294.13 2148.56 1290.52 Q2145.41 1286.88 2145.41 1280.52 Q2145.41 1274.13 2148.56 1270.52 Q2151.73 1266.91 2157.31 1266.91 Z" fill="#000000" fill-rule="nonzero" fill-opacity="1" /><path clip-path="url(#clip630)" d="M2176.26 1267.53 L2180.52 1267.53 L2180.52 1293.46 L2176.26 1293.46 L2176.26 1267.53 M2176.26 1257.44 L2180.52 1257.44 L2180.52 1262.83 L2176.26 1262.83 L2176.26 1257.44 Z" fill="#000000" fill-rule="nonzero" fill-opacity="1" /><path clip-path="url(#clip630)" d="M2210.99 1277.81 L2210.99 1293.46 L2206.73 1293.46 L2206.73 1277.95 Q2206.73 1274.27 2205.29 1272.44 Q2203.86 1270.61 2200.99 1270.61 Q2197.54 1270.61 2195.55 1272.81 Q2193.56 1275.01 2193.56 1278.8 L2193.56 1293.46 L2189.27 1293.46 L2189.27 1267.53 L2193.56 1267.53 L2193.56 1271.56 Q2195.08 1269.22 2197.14 1268.06 Q2199.23 1266.91 2201.94 1266.91 Q2206.4 1266.91 2208.7 1269.68 Q2210.99 1272.44 2210.99 1277.81 Z" fill="#000000" fill-rule="nonzero" fill-opacity="1" /><path clip-path="url(#clip630)" d="M2223.7 1260.17 L2223.7 1267.53 L2232.47 1267.53 L2232.47 1270.84 L2223.7 1270.84 L2223.7 1284.91 Q2223.7 1288.09 2224.55 1288.99 Q2225.43 1289.89 2228.09 1289.89 L2232.47 1289.89 L2232.47 1293.46 L2228.09 1293.46 Q2223.16 1293.46 2221.29 1291.63 Q2219.41 1289.78 2219.41 1284.91 L2219.41 1270.84 L2216.29 1270.84 L2216.29 1267.53 L2219.41 1267.53 L2219.41 1260.17 L2223.7 1260.17 Z" fill="#000000" fill-rule="nonzero" fill-opacity="1" /><path clip-path="url(#clip630)" d="M2254.6 1268.29 L2254.6 1272.32 Q2252.79 1271.4 2250.85 1270.93 Q2248.9 1270.47 2246.82 1270.47 Q2243.65 1270.47 2242.05 1271.44 Q2240.48 1272.41 2240.48 1274.36 Q2240.48 1275.84 2241.61 1276.7 Q2242.75 1277.53 2246.17 1278.29 L2247.63 1278.62 Q2252.17 1279.59 2254.07 1281.37 Q2255.99 1283.13 2255.99 1286.3 Q2255.99 1289.91 2253.12 1292.02 Q2250.27 1294.13 2245.27 1294.13 Q2243.19 1294.13 2240.92 1293.71 Q2238.67 1293.32 2236.17 1292.51 L2236.17 1288.11 Q2238.53 1289.34 2240.82 1289.96 Q2243.12 1290.56 2245.36 1290.56 Q2248.37 1290.56 2249.99 1289.54 Q2251.61 1288.5 2251.61 1286.63 Q2251.61 1284.89 2250.43 1283.97 Q2249.27 1283.04 2245.32 1282.18 L2243.83 1281.84 Q2239.88 1281 2238.12 1279.29 Q2236.36 1277.55 2236.36 1274.54 Q2236.36 1270.89 2238.95 1268.9 Q2241.54 1266.91 2246.31 1266.91 Q2248.67 1266.91 2250.76 1267.25 Q2252.84 1267.6 2254.6 1268.29 Z" fill="#000000" fill-rule="nonzero" fill-opacity="1" /><polyline clip-path="url(#clip630)" style="stroke:#ff0000; stroke-linecap:round; stroke-linejoin:round; stroke-width:8; stroke-opacity:1; fill:none" stroke-dasharray="32, 20" points="1822.94,1328.02 1968.09,1328.02 "/>
<path clip-path="url(#clip630)" d="M2026.48 1304.43 Q2026.43 1305.3 2025.85 1305.34 Q2024.96 1305.39 2024.42 1305.51 Q2023.88 1305.6 2023.04 1305.95 Q2022.19 1306.3 2021.37 1307.15 Q2020.56 1307.99 2019.71 1309.33 L2002.45 1336.8 Q2002.15 1337.32 2001.89 1337.48 Q2001.65 1337.67 2001.11 1337.67 Q2000.62 1337.67 2000.44 1337.46 Q2000.25 1337.27 2000.15 1336.57 L1996.36 1306.96 Q1996.29 1306.42 1996.22 1306.19 Q1996.15 1305.95 1995.87 1305.72 Q1995.61 1305.48 1995.05 1305.41 Q1994.49 1305.34 1993.48 1305.34 Q1993.01 1305.34 1992.8 1305.32 Q1992.61 1305.3 1992.45 1305.18 Q1992.28 1305.04 1992.28 1304.76 Q1992.28 1304.34 1992.45 1304.13 Q1992.64 1303.89 1992.78 1303.87 Q1992.94 1303.85 1993.2 1303.85 Q1993.6 1303.85 1994.46 1303.89 Q1995.33 1303.94 1995.77 1303.94 Q1996.2 1303.94 1997.09 1303.96 Q1997.98 1303.99 1998.42 1303.99 Q1999.4 1303.99 2001.4 1303.92 Q2003.41 1303.85 2004.37 1303.85 Q2005.03 1303.85 2005.03 1304.38 Q2005.03 1305.04 2004.74 1305.2 Q2004.46 1305.34 2003.83 1305.34 Q2002.24 1305.34 2001.37 1305.74 Q2000.53 1306.14 2000.53 1306.77 L2003.78 1332.16 L2018.52 1308.74 Q2019.24 1307.64 2019.24 1306.91 Q2019.24 1305.51 2017.02 1305.34 Q2016.27 1305.34 2016.27 1304.76 Q2016.27 1304.34 2016.46 1304.13 Q2016.64 1303.89 2016.78 1303.87 Q2016.95 1303.85 2017.18 1303.85 Q2017.96 1303.85 2019.52 1303.92 Q2021.12 1303.99 2021.91 1303.99 Q2022.57 1303.99 2023.9 1303.92 Q2025.24 1303.85 2025.85 1303.85 Q2026.48 1303.85 2026.48 1304.43 Z" fill="#000000" fill-rule="nonzero" fill-opacity="1" /><path clip-path="url(#clip630)" d="M2031.26 1329.61 L2031.26 1328.56 L2036.1 1328.2 L2036.1 1338.84 Q2038.05 1336.66 2040.71 1336.66 Q2043.59 1336.66 2045.71 1338.88 Q2047.82 1341.09 2047.82 1344.25 Q2047.82 1347.45 2045.61 1349.66 Q2043.4 1351.88 2040.33 1351.88 Q2037.54 1351.88 2035.94 1349.42 Q2034.76 1351.47 2034.72 1351.5 L2033.89 1351.5 L2033.89 1331.48 Q2033.89 1330.24 2033.44 1329.92 Q2033 1329.61 2031.26 1329.61 M2036.2 1347.68 Q2036.2 1348.39 2036.67 1349.09 Q2038 1351.12 2040.17 1351.12 Q2040.18 1351.12 2040.2 1351.12 Q2042.54 1351.12 2044 1348.98 Q2045.04 1347.37 2045.04 1344.22 Q2045.04 1341.11 2044.07 1339.55 Q2042.72 1337.4 2040.54 1337.4 Q2038.08 1337.4 2036.58 1339.55 Q2036.2 1340.09 2036.2 1340.76 L2036.2 1347.68 Z" fill="#000000" fill-rule="nonzero" fill-opacity="1" /><path clip-path="url(#clip630)" d="M2068.13 1329.33 Q2068.18 1328.74 2069.09 1328.74 L2098.49 1328.74 Q2099.87 1328.74 2099.89 1329.28 Q2099.89 1329.87 2098.58 1329.84 L2069.42 1329.84 Q2068.13 1329.87 2068.13 1329.33 M2068.13 1319.96 Q2068.13 1319.37 2069.14 1319.4 L2098.44 1319.4 Q2099.87 1319.4 2099.89 1319.96 Q2099.89 1320.5 2098.67 1320.5 L2069.09 1320.5 Q2068.13 1320.5 2068.13 1319.96 Z" fill="#000000" fill-rule="nonzero" fill-opacity="1" /><path clip-path="url(#clip630)" d="M2118.38 1321.46 Q2118.38 1313.92 2122.22 1309.3 Q2126.07 1304.67 2131.01 1304.67 Q2133.89 1304.67 2135.48 1306.14 Q2137.1 1307.59 2137.1 1309.84 Q2137.1 1311.08 2136.37 1311.62 Q2135.65 1312.16 2134.9 1312.16 Q2134.03 1312.16 2133.35 1311.57 Q2132.67 1310.99 2132.67 1309.94 Q2132.67 1307.78 2135.32 1307.78 Q2134.08 1305.86 2131.1 1305.86 Q2130.19 1305.86 2129.25 1306.14 Q2128.31 1306.4 2127.1 1307.29 Q2125.88 1308.18 2124.94 1309.58 Q2124 1310.99 2123.35 1313.64 Q2122.69 1316.28 2122.69 1319.73 L2122.69 1320.87 Q2124.66 1316.12 2128.69 1316.14 Q2132.72 1316.14 2135.51 1319.21 Q2138.29 1322.28 2138.29 1326.82 Q2138.29 1331.48 2135.39 1334.58 Q2132.48 1337.67 2128.41 1337.67 Q2126.58 1337.67 2124.92 1336.89 Q2123.28 1336.14 2121.73 1334.41 Q2120.21 1332.68 2119.3 1329.35 Q2118.38 1326.03 2118.38 1321.46 M2122.79 1325.77 Q2122.79 1330.48 2123.65 1332.73 Q2123.79 1333.1 2124.1 1333.62 Q2124.43 1334.13 2124.97 1334.81 Q2125.53 1335.47 2126.44 1335.91 Q2127.35 1336.33 2128.41 1336.33 Q2131.62 1336.33 2133.16 1333.22 Q2133.98 1331.48 2133.98 1326.78 Q2133.98 1321.97 2133.12 1320.22 Q2131.64 1317.24 2128.64 1317.24 Q2126.63 1317.24 2125.22 1318.62 Q2123.84 1320.01 2123.3 1321.86 Q2122.79 1323.71 2122.79 1325.77 Z" fill="#000000" fill-rule="nonzero" fill-opacity="1" /><path clip-path="url(#clip630)" d="M2142.86 1335.84 Q2142.13 1335.07 2142.13 1334.06 Q2142.13 1333.05 2142.86 1332.33 Q2143.59 1331.58 2144.69 1331.58 Q2145.74 1331.58 2146.44 1332.28 Q2147.17 1332.96 2147.17 1334.08 Q2147.17 1335.18 2146.4 1335.91 Q2145.65 1336.61 2144.69 1336.61 Q2143.59 1336.61 2142.86 1335.84 Z" fill="#000000" fill-rule="nonzero" fill-opacity="1" /><path clip-path="url(#clip630)" d="M2155.33 1328.88 Q2155.33 1327.46 2156.1 1326.92 Q2156.88 1326.35 2157.7 1326.35 Q2158.8 1326.35 2159.43 1327.06 Q2160.09 1327.74 2160.09 1328.7 Q2160.09 1329.66 2159.43 1330.36 Q2158.8 1331.04 2157.7 1331.04 Q2157.16 1331.04 2156.88 1330.95 Q2157.51 1333.15 2159.43 1334.74 Q2161.37 1336.33 2163.93 1336.33 Q2167.14 1336.33 2169.06 1333.22 Q2170.2 1331.2 2170.2 1326.64 Q2170.2 1322.61 2169.34 1320.59 Q2168 1317.52 2165.26 1317.52 Q2161.37 1317.52 2159.08 1320.87 Q2158.8 1321.3 2158.47 1321.32 Q2158 1321.32 2157.88 1321.06 Q2157.79 1320.78 2157.79 1320.05 L2157.79 1305.86 Q2157.79 1304.71 2158.26 1304.71 Q2158.45 1304.71 2158.84 1304.85 Q2161.87 1306.19 2165.21 1306.21 Q2168.66 1306.21 2171.75 1304.81 Q2171.98 1304.67 2172.12 1304.67 Q2172.59 1304.67 2172.62 1305.2 Q2172.62 1305.39 2172.22 1305.95 Q2171.84 1306.49 2171.02 1307.22 Q2170.2 1307.92 2169.15 1308.6 Q2168.1 1309.28 2166.55 1309.75 Q2165.03 1310.19 2163.34 1310.19 Q2161.33 1310.19 2159.27 1309.56 L2159.27 1318.91 Q2161.75 1316.47 2165.36 1316.47 Q2169.2 1316.47 2171.84 1319.56 Q2174.49 1322.65 2174.49 1326.96 Q2174.49 1331.48 2171.35 1334.58 Q2168.24 1337.67 2164.02 1337.67 Q2160.18 1337.67 2157.74 1334.93 Q2155.33 1332.19 2155.33 1328.88 Z" fill="#000000" fill-rule="nonzero" fill-opacity="1" /><path clip-path="url(#clip630)" d="M2179.27 1328.88 Q2179.27 1327.46 2180.05 1326.92 Q2180.82 1326.35 2181.64 1326.35 Q2182.74 1326.35 2183.37 1327.06 Q2184.03 1327.74 2184.03 1328.7 Q2184.03 1329.66 2183.37 1330.36 Q2182.74 1331.04 2181.64 1331.04 Q2181.1 1331.04 2180.82 1330.95 Q2181.45 1333.15 2183.37 1334.74 Q2185.32 1336.33 2187.87 1336.33 Q2191.08 1336.33 2193 1333.22 Q2194.15 1331.2 2194.15 1326.64 Q2194.15 1322.61 2193.28 1320.59 Q2191.94 1317.52 2189.2 1317.52 Q2185.32 1317.52 2183.02 1320.87 Q2182.74 1321.3 2182.41 1321.32 Q2181.94 1321.32 2181.83 1321.06 Q2181.73 1320.78 2181.73 1320.05 L2181.73 1305.86 Q2181.73 1304.71 2182.2 1304.71 Q2182.39 1304.71 2182.79 1304.85 Q2185.81 1306.19 2189.16 1306.21 Q2192.6 1306.21 2195.69 1304.81 Q2195.93 1304.67 2196.07 1304.67 Q2196.53 1304.67 2196.56 1305.2 Q2196.56 1305.39 2196.16 1305.95 Q2195.79 1306.49 2194.97 1307.22 Q2194.15 1307.92 2193.09 1308.6 Q2192.04 1309.28 2190.49 1309.75 Q2188.97 1310.19 2187.28 1310.19 Q2185.27 1310.19 2183.21 1309.56 L2183.21 1318.91 Q2185.69 1316.47 2189.3 1316.47 Q2193.14 1316.47 2195.79 1319.56 Q2198.43 1322.65 2198.43 1326.96 Q2198.43 1331.48 2195.29 1334.58 Q2192.18 1337.67 2187.96 1337.67 Q2184.12 1337.67 2181.68 1334.93 Q2179.27 1332.19 2179.27 1328.88 Z" fill="#000000" fill-rule="nonzero" fill-opacity="1" /><path clip-path="url(#clip630)" d="M2203.02 1305.34 L2203.02 1303.85 Q2208.2 1303.99 2209.11 1303.99 Q2214.24 1303.99 2215.98 1303.85 L2215.98 1305.34 Q2212.04 1305.34 2212.04 1306.73 Q2212.04 1306.91 2212.32 1307.59 L2221.48 1331.81 L2230.26 1308.69 Q2230.5 1307.97 2230.5 1307.73 Q2230.5 1306.77 2229.61 1306.09 Q2228.74 1305.39 2227.01 1305.34 L2227.01 1303.85 Q2230.75 1303.99 2232.46 1303.99 Q2234.9 1303.99 2237.13 1303.85 L2237.13 1305.34 Q2233.1 1305.39 2231.9 1308.55 L2221.2 1336.75 Q2221.01 1337.34 2220.82 1337.5 Q2220.64 1337.67 2220.05 1337.67 Q2219.58 1337.67 2219.32 1337.48 Q2219.09 1337.29 2218.86 1336.61 L2207.73 1307.17 Q2207.26 1305.88 2206.42 1305.63 Q2205.58 1305.34 2203.02 1305.34 Z" fill="#000000" fill-rule="nonzero" fill-opacity="1" /></svg>
