<?xml version="1.0" encoding="utf-8"?>
<svg xmlns="http://www.w3.org/2000/svg" xmlns:xlink="http://www.w3.org/1999/xlink" width="600" height="400" viewBox="0 0 2400 1600">
<defs>
  <clipPath id="clip000">
    <rect x="0" y="0" width="2400" height="1600"/>
  </clipPath>
</defs>
<path clip-path="url(#clip000)" d="M0 1600 L2400 1600 L2400 0 L0 0  Z" fill="#ffffff" fill-rule="evenodd" fill-opacity="1"/>
<defs>
  <clipPath id="clip001">
    <rect x="480" y="0" width="1681" height="1600"/>
  </clipPath>
</defs>
<path clip-path="url(#clip000)" d="M219.033 1423.18 L2352.76 1423.18 L2352.76 123.472 L219.033 123.472  Z" fill="#ffffff" fill-rule="evenodd" fill-opacity="1"/>
<defs>
  <clipPath id="clip002">
    <rect x="219" y="123" width="2135" height="1301"/>
  </clipPath>
</defs>
<polyline clip-path="url(#clip002)" style="stroke:#000000; stroke-linecap:round; stroke-linejoin:round; stroke-width:2; stroke-opacity:0.1; fill:none" points="326.785,1423.18 326.785,123.472 "/>
<polyline clip-path="url(#clip002)" style="stroke:#000000; stroke-linecap:round; stroke-linejoin:round; stroke-width:2; stroke-opacity:0.1; fill:none" points="800.419,1423.18 800.419,123.472 "/>
<polyline clip-path="url(#clip002)" style="stroke:#000000; stroke-linecap:round; stroke-linejoin:round; stroke-width:2; stroke-opacity:0.1; fill:none" points="1274.05,1423.18 1274.05,123.472 "/>
<polyline clip-path="url(#clip002)" style="stroke:#000000; stroke-linecap:round; stroke-linejoin:round; stroke-width:2; stroke-opacity:0.1; fill:none" points="1747.69,1423.18 1747.69,123.472 "/>
<polyline clip-path="url(#clip002)" style="stroke:#000000; stroke-linecap:round; stroke-linejoin:round; stroke-width:2; stroke-opacity:0.1; fill:none" points="2221.32,1423.18 2221.32,123.472 "/>
<polyline clip-path="url(#clip002)" style="stroke:#000000; stroke-linecap:round; stroke-linejoin:round; stroke-width:2; stroke-opacity:0.1; fill:none" points="219.033,1413.05 2352.76,1413.05 "/>
<polyline clip-path="url(#clip002)" style="stroke:#000000; stroke-linecap:round; stroke-linejoin:round; stroke-width:2; stroke-opacity:0.1; fill:none" points="219.033,1146.5 2352.76,1146.5 "/>
<polyline clip-path="url(#clip002)" style="stroke:#000000; stroke-linecap:round; stroke-linejoin:round; stroke-width:2; stroke-opacity:0.1; fill:none" points="219.033,879.947 2352.76,879.947 "/>
<polyline clip-path="url(#clip002)" style="stroke:#000000; stroke-linecap:round; stroke-linejoin:round; stroke-width:2; stroke-opacity:0.1; fill:none" points="219.033,613.395 2352.76,613.395 "/>
<polyline clip-path="url(#clip002)" style="stroke:#000000; stroke-linecap:round; stroke-linejoin:round; stroke-width:2; stroke-opacity:0.1; fill:none" points="219.033,346.843 2352.76,346.843 "/>
<polyline clip-path="url(#clip000)" style="stroke:#000000; stroke-linecap:round; stroke-linejoin:round; stroke-width:4; stroke-opacity:1; fill:none" points="219.033,1423.18 2352.76,1423.18 "/>
<polyline clip-path="url(#clip000)" style="stroke:#000000; stroke-linecap:round; stroke-linejoin:round; stroke-width:4; stroke-opacity:1; fill:none" points="326.785,1423.18 326.785,1404.28 "/>
<polyline clip-path="url(#clip000)" style="stroke:#000000; stroke-linecap:round; stroke-linejoin:round; stroke-width:4; stroke-opacity:1; fill:none" points="800.419,1423.18 800.419,1404.28 "/>
<polyline clip-path="url(#clip000)" style="stroke:#000000; stroke-linecap:round; stroke-linejoin:round; stroke-width:4; stroke-opacity:1; fill:none" points="1274.05,1423.18 1274.05,1404.28 "/>
<polyline clip-path="url(#clip000)" style="stroke:#000000; stroke-linecap:round; stroke-linejoin:round; stroke-width:4; stroke-opacity:1; fill:none" points="1747.69,1423.18 1747.69,1404.28 "/>
<polyline clip-path="url(#clip000)" style="stroke:#000000; stroke-linecap:round; stroke-linejoin:round; stroke-width:4; stroke-opacity:1; fill:none" points="2221.32,1423.18 2221.32,1404.28 "/>
<path clip-path="url(#clip000)" d="M298.023 1481.64 L314.343 1481.64 L314.343 1485.58 L292.398 1485.58 L292.398 1481.64 Q295.06 1478.89 299.644 1474.26 Q304.25 1469.61 305.431 1468.27 Q307.676 1465.74 308.556 1464.01 Q309.458 1462.25 309.458 1460.56 Q309.458 1457.8 307.514 1456.07 Q305.593 1454.33 302.491 1454.33 Q300.292 1454.33 297.838 1455.09 Q295.408 1455.86 292.63 1457.41 L292.63 1452.69 Q295.454 1451.55 297.908 1450.97 Q300.361 1450.39 302.398 1450.39 Q307.769 1450.39 310.963 1453.08 Q314.158 1455.77 314.158 1460.26 Q314.158 1462.39 313.347 1464.31 Q312.56 1466.2 310.454 1468.8 Q309.875 1469.47 306.773 1472.69 Q303.671 1475.88 298.023 1481.64 Z" fill="#000000" fill-rule="nonzero" fill-opacity="1" /><path clip-path="url(#clip000)" d="M324.157 1479.7 L329.042 1479.7 L329.042 1485.58 L324.157 1485.58 L324.157 1479.7 Z" fill="#000000" fill-rule="nonzero" fill-opacity="1" /><path clip-path="url(#clip000)" d="M349.227 1454.1 Q345.616 1454.1 343.787 1457.66 Q341.981 1461.2 341.981 1468.33 Q341.981 1475.44 343.787 1479.01 Q345.616 1482.55 349.227 1482.55 Q352.861 1482.55 354.667 1479.01 Q356.495 1475.44 356.495 1468.33 Q356.495 1461.2 354.667 1457.66 Q352.861 1454.1 349.227 1454.1 M349.227 1450.39 Q355.037 1450.39 358.092 1455 Q361.171 1459.58 361.171 1468.33 Q361.171 1477.06 358.092 1481.67 Q355.037 1486.25 349.227 1486.25 Q343.417 1486.25 340.338 1481.67 Q337.282 1477.06 337.282 1468.33 Q337.282 1459.58 340.338 1455 Q343.417 1450.39 349.227 1450.39 Z" fill="#000000" fill-rule="nonzero" fill-opacity="1" /><path clip-path="url(#clip000)" d="M772.456 1481.64 L788.776 1481.64 L788.776 1485.58 L766.831 1485.58 L766.831 1481.64 Q769.493 1478.89 774.077 1474.26 Q778.683 1469.61 779.864 1468.27 Q782.109 1465.74 782.989 1464.01 Q783.891 1462.25 783.891 1460.56 Q783.891 1457.8 781.947 1456.07 Q780.026 1454.33 776.924 1454.33 Q774.725 1454.33 772.271 1455.09 Q769.841 1455.86 767.063 1457.41 L767.063 1452.69 Q769.887 1451.55 772.341 1450.97 Q774.794 1450.39 776.831 1450.39 Q782.202 1450.39 785.396 1453.08 Q788.591 1455.77 788.591 1460.26 Q788.591 1462.39 787.78 1464.31 Q786.993 1466.2 784.887 1468.8 Q784.308 1469.47 781.206 1472.69 Q778.104 1475.88 772.456 1481.64 Z" fill="#000000" fill-rule="nonzero" fill-opacity="1" /><path clip-path="url(#clip000)" d="M798.59 1479.7 L803.475 1479.7 L803.475 1485.58 L798.59 1485.58 L798.59 1479.7 Z" fill="#000000" fill-rule="nonzero" fill-opacity="1" /><path clip-path="url(#clip000)" d="M817.688 1481.64 L834.007 1481.64 L834.007 1485.58 L812.063 1485.58 L812.063 1481.64 Q814.725 1478.89 819.308 1474.26 Q823.914 1469.61 825.095 1468.27 Q827.34 1465.74 828.22 1464.01 Q829.123 1462.25 829.123 1460.56 Q829.123 1457.8 827.178 1456.07 Q825.257 1454.33 822.155 1454.33 Q819.956 1454.33 817.502 1455.09 Q815.072 1455.86 812.294 1457.41 L812.294 1452.69 Q815.118 1451.55 817.572 1450.97 Q820.026 1450.39 822.063 1450.39 Q827.433 1450.39 830.627 1453.08 Q833.822 1455.77 833.822 1460.26 Q833.822 1462.39 833.012 1464.31 Q832.225 1466.2 830.118 1468.8 Q829.539 1469.47 826.438 1472.69 Q823.336 1475.88 817.688 1481.64 Z" fill="#000000" fill-rule="nonzero" fill-opacity="1" /><path clip-path="url(#clip000)" d="M1245.05 1481.64 L1261.37 1481.64 L1261.37 1485.58 L1239.42 1485.58 L1239.42 1481.64 Q1242.09 1478.89 1246.67 1474.26 Q1251.28 1469.61 1252.46 1468.27 Q1254.7 1465.74 1255.58 1464.01 Q1256.48 1462.25 1256.48 1460.56 Q1256.48 1457.8 1254.54 1456.07 Q1252.62 1454.33 1249.52 1454.33 Q1247.32 1454.33 1244.86 1455.09 Q1242.43 1455.86 1239.66 1457.41 L1239.66 1452.69 Q1242.48 1451.55 1244.93 1450.97 Q1247.39 1450.39 1249.42 1450.39 Q1254.79 1450.39 1257.99 1453.08 Q1261.18 1455.77 1261.18 1460.26 Q1261.18 1462.39 1260.37 1464.31 Q1259.59 1466.2 1257.48 1468.8 Q1256.9 1469.47 1253.8 1472.69 Q1250.7 1475.88 1245.05 1481.64 Z" fill="#000000" fill-rule="nonzero" fill-opacity="1" /><path clip-path="url(#clip000)" d="M1271.18 1479.7 L1276.07 1479.7 L1276.07 1485.58 L1271.18 1485.58 L1271.18 1479.7 Z" fill="#000000" fill-rule="nonzero" fill-opacity="1" /><path clip-path="url(#clip000)" d="M1299.1 1455.09 L1287.29 1473.54 L1299.1 1473.54 L1299.1 1455.09 M1297.87 1451.02 L1303.75 1451.02 L1303.75 1473.54 L1308.68 1473.54 L1308.68 1477.43 L1303.75 1477.43 L1303.75 1485.58 L1299.1 1485.58 L1299.1 1477.43 L1283.5 1477.43 L1283.5 1472.92 L1297.87 1451.02 Z" fill="#000000" fill-rule="nonzero" fill-opacity="1" /><path clip-path="url(#clip000)" d="M1718.85 1481.64 L1735.16 1481.64 L1735.16 1485.58 L1713.22 1485.58 L1713.22 1481.64 Q1715.88 1478.89 1720.47 1474.26 Q1725.07 1469.61 1726.25 1468.27 Q1728.5 1465.74 1729.38 1464.01 Q1730.28 1462.25 1730.28 1460.56 Q1730.28 1457.8 1728.34 1456.07 Q1726.41 1454.33 1723.31 1454.33 Q1721.11 1454.33 1718.66 1455.09 Q1716.23 1455.86 1713.45 1457.41 L1713.45 1452.69 Q1716.28 1451.55 1718.73 1450.97 Q1721.18 1450.39 1723.22 1450.39 Q1728.59 1450.39 1731.79 1453.08 Q1734.98 1455.77 1734.98 1460.26 Q1734.98 1462.39 1734.17 1464.31 Q1733.38 1466.2 1731.28 1468.8 Q1730.7 1469.47 1727.6 1472.69 Q1724.49 1475.88 1718.85 1481.64 Z" fill="#000000" fill-rule="nonzero" fill-opacity="1" /><path clip-path="url(#clip000)" d="M1744.98 1479.7 L1749.86 1479.7 L1749.86 1485.58 L1744.98 1485.58 L1744.98 1479.7 Z" fill="#000000" fill-rule="nonzero" fill-opacity="1" /><path clip-path="url(#clip000)" d="M1770.63 1466.44 Q1767.48 1466.44 1765.63 1468.59 Q1763.8 1470.74 1763.8 1474.49 Q1763.8 1478.22 1765.63 1480.39 Q1767.48 1482.55 1770.63 1482.55 Q1773.78 1482.55 1775.6 1480.39 Q1777.46 1478.22 1777.46 1474.49 Q1777.46 1470.74 1775.6 1468.59 Q1773.78 1466.44 1770.63 1466.44 M1779.91 1451.78 L1779.91 1456.04 Q1778.15 1455.21 1776.35 1454.77 Q1774.56 1454.33 1772.8 1454.33 Q1768.17 1454.33 1765.72 1457.45 Q1763.29 1460.58 1762.94 1466.9 Q1764.31 1464.89 1766.37 1463.82 Q1768.43 1462.73 1770.91 1462.73 Q1776.11 1462.73 1779.12 1465.9 Q1782.16 1469.05 1782.16 1474.49 Q1782.16 1479.82 1779.01 1483.03 Q1775.86 1486.25 1770.63 1486.25 Q1764.63 1486.25 1761.46 1481.67 Q1758.29 1477.06 1758.29 1468.33 Q1758.29 1460.14 1762.18 1455.28 Q1766.07 1450.39 1772.62 1450.39 Q1774.38 1450.39 1776.16 1450.74 Q1777.97 1451.09 1779.91 1451.78 Z" fill="#000000" fill-rule="nonzero" fill-opacity="1" /><path clip-path="url(#clip000)" d="M2192.61 1481.64 L2208.93 1481.64 L2208.93 1485.58 L2186.98 1485.58 L2186.98 1481.64 Q2189.64 1478.89 2194.23 1474.26 Q2198.83 1469.61 2200.01 1468.27 Q2202.26 1465.74 2203.14 1464.01 Q2204.04 1462.25 2204.04 1460.56 Q2204.04 1457.8 2202.1 1456.07 Q2200.18 1454.33 2197.07 1454.33 Q2194.88 1454.33 2192.42 1455.09 Q2189.99 1455.86 2187.21 1457.41 L2187.21 1452.69 Q2190.04 1451.55 2192.49 1450.97 Q2194.95 1450.39 2196.98 1450.39 Q2202.35 1450.39 2205.55 1453.08 Q2208.74 1455.77 2208.74 1460.26 Q2208.74 1462.39 2207.93 1464.31 Q2207.14 1466.2 2205.04 1468.8 Q2204.46 1469.47 2201.36 1472.69 Q2198.26 1475.88 2192.61 1481.64 Z" fill="#000000" fill-rule="nonzero" fill-opacity="1" /><path clip-path="url(#clip000)" d="M2218.74 1479.7 L2223.63 1479.7 L2223.63 1485.58 L2218.74 1485.58 L2218.74 1479.7 Z" fill="#000000" fill-rule="nonzero" fill-opacity="1" /><path clip-path="url(#clip000)" d="M2243.81 1469.17 Q2240.48 1469.17 2238.56 1470.95 Q2236.66 1472.73 2236.66 1475.86 Q2236.66 1478.98 2238.56 1480.77 Q2240.48 1482.55 2243.81 1482.55 Q2247.14 1482.55 2249.07 1480.77 Q2250.99 1478.96 2250.99 1475.86 Q2250.99 1472.73 2249.07 1470.95 Q2247.17 1469.17 2243.81 1469.17 M2239.13 1467.18 Q2236.13 1466.44 2234.44 1464.38 Q2232.77 1462.32 2232.77 1459.35 Q2232.77 1455.21 2235.71 1452.8 Q2238.67 1450.39 2243.81 1450.39 Q2248.97 1450.39 2251.91 1452.8 Q2254.85 1455.21 2254.85 1459.35 Q2254.85 1462.32 2253.16 1464.38 Q2251.5 1466.44 2248.51 1467.18 Q2251.89 1467.96 2253.76 1470.26 Q2255.66 1472.55 2255.66 1475.86 Q2255.66 1480.88 2252.58 1483.57 Q2249.53 1486.25 2243.81 1486.25 Q2238.09 1486.25 2235.01 1483.57 Q2231.96 1480.88 2231.96 1475.86 Q2231.96 1472.55 2233.86 1470.26 Q2235.76 1467.96 2239.13 1467.18 M2237.42 1459.79 Q2237.42 1462.48 2239.09 1463.98 Q2240.78 1465.49 2243.81 1465.49 Q2246.82 1465.49 2248.51 1463.98 Q2250.22 1462.48 2250.22 1459.79 Q2250.22 1457.11 2248.51 1455.6 Q2246.82 1454.1 2243.81 1454.1 Q2240.78 1454.1 2239.09 1455.6 Q2237.42 1457.11 2237.42 1459.79 Z" fill="#000000" fill-rule="nonzero" fill-opacity="1" /><path clip-path="url(#clip000)" d="M1196.57 1510.41 Q1196.57 1511.02 1196.32 1511.31 Q1196.09 1511.57 1195.74 1511.63 Q1195.38 1511.67 1194.45 1511.67 Q1192.87 1511.67 1191.87 1511.79 Q1190.87 1511.89 1190.26 1512.05 Q1189.65 1512.18 1189.29 1512.63 Q1188.97 1513.05 1188.81 1513.44 Q1188.68 1513.82 1188.46 1514.69 L1179.63 1549.83 Q1179.34 1550.86 1179.34 1551.38 Q1179.34 1551.92 1179.67 1552.15 Q1179.99 1552.37 1181.02 1552.47 Q1182.66 1552.63 1183.85 1552.63 Q1185.43 1552.63 1185.66 1552.86 Q1185.82 1553.08 1185.82 1553.4 Q1185.82 1553.98 1185.56 1554.31 Q1185.3 1554.6 1185.08 1554.63 Q1184.88 1554.66 1184.5 1554.66 L1175.67 1554.47 L1167.01 1554.66 Q1166.04 1554.66 1166.04 1553.92 Q1166.04 1553.44 1166.11 1553.18 Q1166.2 1552.89 1166.53 1552.79 Q1166.88 1552.66 1167.14 1552.66 Q1167.39 1552.63 1168.14 1552.63 Q1169.46 1552.63 1170.33 1552.6 Q1171.23 1552.54 1171.87 1552.37 Q1172.55 1552.18 1172.87 1552.02 Q1173.22 1551.83 1173.48 1551.41 Q1173.77 1550.96 1173.87 1550.6 Q1174 1550.25 1174.16 1549.51 L1183.05 1513.95 Q1183.18 1513.37 1183.18 1512.92 Q1183.18 1512.05 1182.15 1511.86 Q1181.15 1511.67 1178.63 1511.67 Q1177.86 1511.67 1177.54 1511.63 Q1177.25 1511.6 1176.99 1511.44 Q1176.77 1511.28 1176.77 1510.93 Q1176.77 1510.47 1176.9 1510.18 Q1177.02 1509.86 1177.25 1509.77 Q1177.51 1509.67 1177.67 1509.64 Q1177.83 1509.6 1178.09 1509.6 L1186.88 1509.8 L1195.58 1509.6 Q1196.57 1509.6 1196.57 1510.41 Z" fill="#000000" fill-rule="nonzero" fill-opacity="1" /><path clip-path="url(#clip000)" d="M1231.2 1562 Q1231.2 1562.13 1231.02 1562.65 L1227.37 1572.61 Q1227.17 1573.2 1226.97 1573.31 Q1226.76 1573.4 1225.93 1573.4 L1204.56 1573.4 Q1204.04 1573.4 1203.84 1573.38 Q1203.63 1573.36 1203.47 1573.25 Q1203.32 1573.13 1203.32 1572.88 Q1203.32 1572.43 1203.47 1572.23 Q1203.65 1572.03 1203.86 1572.01 Q1204.06 1571.98 1204.56 1571.98 Q1205.68 1571.98 1206.36 1571.92 Q1207.04 1571.85 1207.46 1571.76 Q1207.92 1571.64 1208.14 1571.33 Q1208.39 1571.01 1208.5 1570.74 Q1208.61 1570.45 1208.77 1569.8 L1214.95 1545 Q1215.13 1544.25 1215.13 1544.14 Q1215.13 1543.71 1214.86 1543.6 Q1214.61 1543.46 1213.89 1543.4 L1212.13 1543.31 Q1211.59 1543.31 1211.36 1543.28 Q1211.16 1543.26 1211 1543.15 Q1210.85 1543.04 1210.85 1542.79 Q1210.85 1542.36 1211 1542.16 Q1211.18 1541.93 1211.32 1541.91 Q1211.48 1541.86 1211.73 1541.86 L1217.86 1542 L1224.69 1541.86 Q1225.43 1541.86 1225.43 1542.43 Q1225.43 1543.06 1225.12 1543.19 Q1224.8 1543.31 1223.67 1543.31 Q1221.51 1543.31 1220.52 1543.53 Q1219.55 1543.76 1219.28 1544.14 Q1219.03 1544.5 1218.78 1545.47 L1212.54 1570.4 Q1212.31 1571.24 1212.31 1571.46 Q1212.31 1571.71 1212.42 1571.8 Q1212.56 1571.87 1212.92 1571.92 Q1213.33 1571.98 1213.93 1571.98 L1218.26 1571.98 Q1219.57 1571.98 1220.72 1571.78 Q1221.87 1571.58 1222.75 1571.28 Q1223.65 1570.99 1224.46 1570.45 Q1225.27 1569.91 1225.84 1569.44 Q1226.42 1568.94 1226.99 1568.17 Q1227.57 1567.38 1227.91 1566.84 Q1228.27 1566.28 1228.68 1565.38 Q1229.08 1564.45 1229.29 1563.93 Q1229.51 1563.39 1229.85 1562.47 Q1230.05 1562 1230.12 1561.86 Q1230.19 1561.73 1230.3 1561.61 Q1230.44 1561.5 1230.64 1561.5 Q1230.91 1561.5 1231.05 1561.66 Q1231.2 1561.82 1231.2 1562 Z" fill="#000000" fill-rule="nonzero" fill-opacity="1" /><path clip-path="url(#clip000)" d="M1255.4 1538.17 Q1255.4 1527.03 1259.56 1518.04 Q1261.33 1514.27 1263.81 1511.12 Q1266.29 1507.96 1267.93 1506.58 Q1269.58 1505.19 1270.03 1505.19 Q1270.67 1505.19 1270.7 1505.84 Q1270.7 1506.16 1269.83 1506.96 Q1259.21 1517.78 1259.24 1538.17 Q1259.24 1558.62 1269.58 1569.02 Q1270.7 1570.15 1270.7 1570.51 Q1270.7 1571.15 1270.03 1571.15 Q1269.58 1571.15 1268 1569.83 Q1266.42 1568.51 1263.97 1565.48 Q1261.52 1562.45 1259.75 1558.75 Q1255.4 1549.77 1255.4 1538.17 Z" fill="#000000" fill-rule="nonzero" fill-opacity="1" /><path clip-path="url(#clip000)" d="M1275.72 1554.66 L1275.72 1552.63 Q1279.23 1552.63 1280.03 1552.21 Q1280.84 1551.76 1280.84 1549.64 L1280.84 1531.96 Q1280.84 1529.51 1279.97 1528.9 Q1279.13 1528.28 1275.72 1528.28 L1275.72 1526.22 L1284.99 1525.51 L1284.99 1532.44 Q1288.08 1525.51 1294.75 1525.51 Q1302.48 1525.51 1303.54 1531.96 Q1304.67 1529.44 1307.02 1527.48 Q1309.4 1525.51 1313.11 1525.51 Q1318.07 1525.51 1320.03 1527.96 Q1321.48 1529.6 1321.77 1531.44 Q1322.06 1533.28 1322.06 1538.04 L1322.06 1550.63 Q1322.12 1552.02 1323.19 1552.34 Q1324.25 1552.63 1327.21 1552.63 L1327.21 1554.66 Q1320.48 1554.47 1319.84 1554.47 Q1319.32 1554.47 1312.37 1554.66 L1312.37 1552.63 Q1315.88 1552.63 1316.68 1552.21 Q1317.52 1551.76 1317.52 1549.64 L1317.52 1534.27 Q1317.52 1530.92 1316.49 1528.96 Q1315.46 1526.96 1312.62 1526.96 Q1309.21 1526.96 1306.47 1529.83 Q1303.74 1532.7 1303.74 1537.53 L1303.74 1549.64 Q1303.74 1551.76 1304.54 1552.21 Q1305.38 1552.63 1308.89 1552.63 L1308.89 1554.66 Q1302.16 1554.47 1301.48 1554.47 Q1300.97 1554.47 1294.04 1554.66 L1294.04 1552.63 Q1297.55 1552.63 1298.36 1552.21 Q1299.19 1551.76 1299.19 1549.64 L1299.19 1534.27 Q1299.19 1530.92 1298.16 1528.96 Q1297.13 1526.96 1294.3 1526.96 Q1290.89 1526.96 1288.15 1529.83 Q1285.41 1532.7 1285.41 1537.53 L1285.41 1549.64 Q1285.41 1551.76 1286.22 1552.21 Q1287.05 1552.63 1290.53 1552.63 L1290.53 1554.66 Q1283.8 1554.47 1283.16 1554.47 Q1282.64 1554.47 1275.72 1554.66 Z" fill="#000000" fill-rule="nonzero" fill-opacity="1" /><path clip-path="url(#clip000)" d="M1329.84 1554.66 L1329.84 1552.63 Q1335.7 1552.5 1337.21 1548.19 L1350.87 1508.77 Q1351.13 1507.96 1351.42 1507.7 Q1351.71 1507.45 1352.45 1507.45 Q1352.83 1507.45 1353.06 1507.51 Q1353.32 1507.58 1353.48 1507.8 Q1353.64 1508.03 1353.7 1508.16 Q1353.77 1508.28 1353.96 1508.77 L1368.2 1549.99 Q1368.71 1551.63 1369.77 1552.15 Q1370.84 1552.63 1373.83 1552.63 L1374.99 1552.63 L1374.99 1554.66 Q1370.84 1554.47 1366.36 1554.47 Q1359.24 1554.47 1356.86 1554.66 L1356.86 1552.63 Q1362.33 1552.63 1362.33 1550.63 Q1362.33 1550.51 1362.14 1549.7 L1358.66 1539.62 L1342.37 1539.62 L1339.31 1548.25 Q1339.18 1548.51 1339.18 1549.25 Q1339.18 1550.63 1340.47 1551.63 Q1341.76 1552.63 1344.14 1552.63 L1344.14 1554.66 Q1337.79 1554.47 1336.54 1554.47 Q1334.38 1554.47 1329.84 1554.66 M1343.08 1537.59 L1357.92 1537.59 L1350.48 1516.14 L1343.08 1537.59 Z" fill="#000000" fill-rule="nonzero" fill-opacity="1" /><path clip-path="url(#clip000)" d="M1380.42 1570.51 Q1380.42 1570.18 1381.26 1569.38 Q1391.88 1558.56 1391.88 1538.17 Q1391.88 1517.72 1381.68 1507.38 Q1380.42 1506.19 1380.42 1505.84 Q1380.42 1505.19 1381.06 1505.19 Q1381.51 1505.19 1383.09 1506.51 Q1384.7 1507.83 1387.12 1510.86 Q1389.57 1513.89 1391.37 1517.59 Q1395.72 1526.58 1395.72 1538.17 Q1395.72 1549.31 1391.56 1558.3 Q1389.79 1562.07 1387.31 1565.22 Q1384.83 1568.38 1383.19 1569.77 Q1381.55 1571.15 1381.06 1571.15 Q1380.42 1571.15 1380.42 1570.51 Z" fill="#000000" fill-rule="nonzero" fill-opacity="1" /><polyline clip-path="url(#clip000)" style="stroke:#000000; stroke-linecap:round; stroke-linejoin:round; stroke-width:4; stroke-opacity:1; fill:none" points="219.033,1423.18 219.033,123.472 "/>
<polyline clip-path="url(#clip000)" style="stroke:#000000; stroke-linecap:round; stroke-linejoin:round; stroke-width:4; stroke-opacity:1; fill:none" points="219.033,1413.05 237.931,1413.05 "/>
<polyline clip-path="url(#clip000)" style="stroke:#000000; stroke-linecap:round; stroke-linejoin:round; stroke-width:4; stroke-opacity:1; fill:none" points="219.033,1146.5 237.931,1146.5 "/>
<polyline clip-path="url(#clip000)" style="stroke:#000000; stroke-linecap:round; stroke-linejoin:round; stroke-width:4; stroke-opacity:1; fill:none" points="219.033,879.947 237.931,879.947 "/>
<polyline clip-path="url(#clip000)" style="stroke:#000000; stroke-linecap:round; stroke-linejoin:round; stroke-width:4; stroke-opacity:1; fill:none" points="219.033,613.395 237.931,613.395 "/>
<polyline clip-path="url(#clip000)" style="stroke:#000000; stroke-linecap:round; stroke-linejoin:round; stroke-width:4; stroke-opacity:1; fill:none" points="219.033,346.843 237.931,346.843 "/>
<path clip-path="url(#clip000)" d="M118.265 1426.4 L125.904 1426.4 L125.904 1400.03 L117.593 1401.7 L117.593 1397.44 L125.857 1395.77 L130.533 1395.77 L130.533 1426.4 L138.172 1426.4 L138.172 1430.33 L118.265 1430.33 L118.265 1426.4 Z" fill="#000000" fill-rule="nonzero" fill-opacity="1" /><path clip-path="url(#clip000)" d="M147.616 1424.45 L152.501 1424.45 L152.501 1430.33 L147.616 1430.33 L147.616 1424.45 Z" fill="#000000" fill-rule="nonzero" fill-opacity="1" /><path clip-path="url(#clip000)" d="M166.714 1426.4 L183.033 1426.4 L183.033 1430.33 L161.089 1430.33 L161.089 1426.4 Q163.751 1423.64 168.334 1419.01 Q172.94 1414.36 174.121 1413.02 Q176.366 1410.49 177.246 1408.76 Q178.149 1407 178.149 1405.31 Q178.149 1402.55 176.204 1400.82 Q174.283 1399.08 171.181 1399.08 Q168.982 1399.08 166.528 1399.84 Q164.098 1400.61 161.32 1402.16 L161.32 1397.44 Q164.144 1396.3 166.598 1395.72 Q169.052 1395.15 171.089 1395.15 Q176.459 1395.15 179.653 1397.83 Q182.848 1400.52 182.848 1405.01 Q182.848 1407.14 182.038 1409.06 Q181.251 1410.96 179.144 1413.55 Q178.565 1414.22 175.464 1417.44 Q172.362 1420.63 166.714 1426.4 Z" fill="#000000" fill-rule="nonzero" fill-opacity="1" /><path clip-path="url(#clip000)" d="M116.181 1159.84 L123.82 1159.84 L123.82 1133.48 L115.51 1135.14 L115.51 1130.89 L123.774 1129.22 L128.45 1129.22 L128.45 1159.84 L136.089 1159.84 L136.089 1163.78 L116.181 1163.78 L116.181 1159.84 Z" fill="#000000" fill-rule="nonzero" fill-opacity="1" /><path clip-path="url(#clip000)" d="M145.533 1157.9 L150.417 1157.9 L150.417 1163.78 L145.533 1163.78 L145.533 1157.9 Z" fill="#000000" fill-rule="nonzero" fill-opacity="1" /><path clip-path="url(#clip000)" d="M173.45 1133.29 L161.644 1151.74 L173.45 1151.74 L173.45 1133.29 M172.223 1129.22 L178.102 1129.22 L178.102 1151.74 L183.033 1151.74 L183.033 1155.63 L178.102 1155.63 L178.102 1163.78 L173.45 1163.78 L173.45 1155.63 L157.848 1155.63 L157.848 1151.12 L172.223 1129.22 Z" fill="#000000" fill-rule="nonzero" fill-opacity="1" /><path clip-path="url(#clip000)" d="M116.506 893.292 L124.144 893.292 L124.144 866.926 L115.834 868.593 L115.834 864.333 L124.098 862.667 L128.774 862.667 L128.774 893.292 L136.413 893.292 L136.413 897.227 L116.506 897.227 L116.506 893.292 Z" fill="#000000" fill-rule="nonzero" fill-opacity="1" /><path clip-path="url(#clip000)" d="M145.857 891.347 L150.741 891.347 L150.741 897.227 L145.857 897.227 L145.857 891.347 Z" fill="#000000" fill-rule="nonzero" fill-opacity="1" /><path clip-path="url(#clip000)" d="M171.505 878.083 Q168.357 878.083 166.505 880.236 Q164.677 882.389 164.677 886.139 Q164.677 889.866 166.505 892.042 Q168.357 894.194 171.505 894.194 Q174.653 894.194 176.482 892.042 Q178.334 889.866 178.334 886.139 Q178.334 882.389 176.482 880.236 Q174.653 878.083 171.505 878.083 M180.788 863.431 L180.788 867.69 Q179.028 866.857 177.223 866.417 Q175.44 865.977 173.681 865.977 Q169.052 865.977 166.598 869.102 Q164.167 872.227 163.82 878.546 Q165.186 876.532 167.246 875.468 Q169.306 874.38 171.783 874.38 Q176.991 874.38 180.001 877.551 Q183.033 880.699 183.033 886.139 Q183.033 891.463 179.885 894.681 Q176.737 897.898 171.505 897.898 Q165.51 897.898 162.339 893.315 Q159.167 888.708 159.167 879.982 Q159.167 871.787 163.056 866.926 Q166.945 862.042 173.496 862.042 Q175.255 862.042 177.038 862.389 Q178.843 862.736 180.788 863.431 Z" fill="#000000" fill-rule="nonzero" fill-opacity="1" /><path clip-path="url(#clip000)" d="M116.76 626.74 L124.399 626.74 L124.399 600.374 L116.089 602.041 L116.089 597.781 L124.353 596.115 L129.029 596.115 L129.029 626.74 L136.667 626.74 L136.667 630.675 L116.76 630.675 L116.76 626.74 Z" fill="#000000" fill-rule="nonzero" fill-opacity="1" /><path clip-path="url(#clip000)" d="M146.112 624.795 L150.996 624.795 L150.996 630.675 L146.112 630.675 L146.112 624.795 Z" fill="#000000" fill-rule="nonzero" fill-opacity="1" /><path clip-path="url(#clip000)" d="M171.181 614.263 Q167.848 614.263 165.927 616.045 Q164.028 617.828 164.028 620.953 Q164.028 624.078 165.927 625.86 Q167.848 627.642 171.181 627.642 Q174.514 627.642 176.436 625.86 Q178.357 624.054 178.357 620.953 Q178.357 617.828 176.436 616.045 Q174.538 614.263 171.181 614.263 M166.505 612.272 Q163.496 611.531 161.806 609.471 Q160.14 607.411 160.14 604.448 Q160.14 600.305 163.079 597.897 Q166.042 595.49 171.181 595.49 Q176.343 595.49 179.283 597.897 Q182.223 600.305 182.223 604.448 Q182.223 607.411 180.533 609.471 Q178.866 611.531 175.88 612.272 Q179.26 613.059 181.135 615.351 Q183.033 617.642 183.033 620.953 Q183.033 625.976 179.954 628.661 Q176.899 631.346 171.181 631.346 Q165.464 631.346 162.385 628.661 Q159.329 625.976 159.329 620.953 Q159.329 617.642 161.227 615.351 Q163.126 613.059 166.505 612.272 M164.792 604.888 Q164.792 607.573 166.459 609.078 Q168.149 610.582 171.181 610.582 Q174.19 610.582 175.88 609.078 Q177.593 607.573 177.593 604.888 Q177.593 602.203 175.88 600.698 Q174.19 599.193 171.181 599.193 Q168.149 599.193 166.459 600.698 Q164.792 602.203 164.792 604.888 Z" fill="#000000" fill-rule="nonzero" fill-opacity="1" /><path clip-path="url(#clip000)" d="M119.885 360.188 L136.204 360.188 L136.204 364.123 L114.26 364.123 L114.26 360.188 Q116.922 357.433 121.505 352.803 Q126.112 348.151 127.292 346.808 Q129.538 344.285 130.417 342.549 Q131.32 340.79 131.32 339.1 Q131.32 336.345 129.376 334.609 Q127.455 332.873 124.353 332.873 Q122.154 332.873 119.7 333.637 Q117.269 334.401 114.492 335.952 L114.492 331.229 Q117.316 330.095 119.769 329.516 Q122.223 328.938 124.26 328.938 Q129.63 328.938 132.825 331.623 Q136.019 334.308 136.019 338.799 Q136.019 340.928 135.209 342.85 Q134.422 344.748 132.316 347.34 Q131.737 348.012 128.635 351.229 Q125.533 354.424 119.885 360.188 Z" fill="#000000" fill-rule="nonzero" fill-opacity="1" /><path clip-path="url(#clip000)" d="M146.019 358.243 L150.903 358.243 L150.903 364.123 L146.019 364.123 L146.019 358.243 Z" fill="#000000" fill-rule="nonzero" fill-opacity="1" /><path clip-path="url(#clip000)" d="M171.089 332.641 Q167.477 332.641 165.649 336.206 Q163.843 339.748 163.843 346.877 Q163.843 353.984 165.649 357.549 Q167.477 361.09 171.089 361.09 Q174.723 361.09 176.528 357.549 Q178.357 353.984 178.357 346.877 Q178.357 339.748 176.528 336.206 Q174.723 332.641 171.089 332.641 M171.089 328.938 Q176.899 328.938 179.954 333.544 Q183.033 338.127 183.033 346.877 Q183.033 355.604 179.954 360.211 Q176.899 364.794 171.089 364.794 Q165.278 364.794 162.2 360.211 Q159.144 355.604 159.144 346.877 Q159.144 338.127 162.2 333.544 Q165.278 328.938 171.089 328.938 Z" fill="#000000" fill-rule="nonzero" fill-opacity="1" /><path clip-path="url(#clip000)" d="M21.8332 858.529 Q22.4452 858.529 22.735 858.787 Q22.9927 859.012 23.0571 859.366 Q23.0893 859.721 23.0893 860.655 Q23.0893 862.233 23.2181 863.231 Q23.3147 864.229 23.4757 864.841 Q23.6046 865.453 24.0554 865.808 Q24.4741 866.13 24.8606 866.291 Q25.2471 866.419 26.1166 866.645 L61.2532 875.469 Q62.2838 875.759 62.7991 875.759 Q63.3466 875.759 63.572 875.437 Q63.7975 875.115 63.8941 874.084 Q64.0551 872.442 64.0551 871.25 Q64.0551 869.672 64.2806 869.447 Q64.506 869.286 64.8281 869.286 Q65.4078 869.286 65.7298 869.543 Q66.0197 869.801 66.0519 870.026 Q66.0841 870.22 66.0841 870.606 L65.8909 879.431 L66.0841 888.094 Q66.0841 889.06 65.3434 889.06 Q64.8603 889.06 64.6026 888.996 Q64.3128 888.899 64.2162 888.577 Q64.0873 888.223 64.0873 887.965 Q64.0551 887.708 64.0551 886.967 Q64.0551 885.646 64.0229 884.777 Q63.9585 883.875 63.7975 883.231 Q63.6042 882.555 63.4432 882.233 Q63.25 881.878 62.8313 881.621 Q62.3804 881.331 62.0262 881.234 Q61.6719 881.105 60.9312 880.944 L25.3759 872.055 Q24.7962 871.927 24.3453 871.927 Q23.4757 871.927 23.2825 872.957 Q23.0893 873.956 23.0893 876.468 Q23.0893 877.241 23.0571 877.563 Q23.0249 877.853 22.8638 878.11 Q22.7028 878.336 22.3485 878.336 Q21.8977 878.336 21.6078 878.207 Q21.2857 878.078 21.1891 877.853 Q21.0925 877.595 21.0603 877.434 Q21.0281 877.273 21.0281 877.015 L21.2213 868.223 L21.0281 859.527 Q21.0281 858.529 21.8332 858.529 Z" fill="#000000" fill-rule="nonzero" fill-opacity="1" /><path clip-path="url(#clip000)" d="M58.2601 832.218 Q58.4179 832.218 59.0942 832.601 Q59.748 832.961 61.3937 834.292 Q63.0394 835.622 64.9557 837.606 Q65.6996 838.35 66.7366 839.477 Q67.7737 840.604 68.45 841.37 L69.1263 842.137 Q71.6062 845.068 74.3791 847.638 Q74.3115 847.457 74.2889 847.142 Q74.2438 846.826 74.2438 846.601 L74.2438 846.375 Q74.2438 845.203 75.0329 843.151 Q75.619 841.348 75.619 840.424 Q75.619 839.522 75.3034 838.53 Q74.9878 837.538 74.0635 836.456 Q73.1392 835.374 71.7414 834.878 Q71.516 834.788 71.4484 834.742 Q71.3582 834.697 71.268 834.562 Q71.1553 834.427 71.1553 834.246 Q71.1553 833.998 71.2906 833.841 Q71.4258 833.683 71.6062 833.683 Q72.012 833.683 72.8236 833.998 Q73.6351 834.292 74.6496 834.945 Q75.6641 835.577 76.5884 836.411 Q77.4902 837.222 78.1214 838.44 Q78.7301 839.657 78.7301 840.942 Q78.7301 841.866 78.2792 842.543 Q77.8509 843.219 77.0168 843.895 Q75.9572 844.82 75.619 845.316 Q75.2583 845.812 75.2583 846.578 Q75.2583 848.63 78.1214 850.501 Q78.5272 850.704 78.6174 850.839 Q78.7301 850.952 78.7301 851.222 Q78.7076 851.786 78.2567 851.786 Q78.0763 851.786 77.2873 851.29 Q76.4757 850.771 75.0554 849.622 Q73.6351 848.449 72.2149 847.029 L68.3373 842.881 Q64.4597 838.282 62.2729 836.456 Q62.2729 837.222 62.2504 837.56 Q62.2278 837.876 62.0926 838.507 Q61.9348 839.139 61.5966 840.018 Q60.8977 842.069 60.8977 842.926 Q60.8977 843.151 60.9203 843.399 Q60.9428 843.647 61.0555 844.211 Q61.1683 844.752 61.3937 845.203 Q61.5966 845.654 62.0475 846.127 Q62.4758 846.601 63.062 846.849 Q63.2423 846.916 63.3325 846.961 Q63.4227 847.006 63.5128 847.142 Q63.5805 847.254 63.5805 847.435 Q63.5805 847.705 63.4227 847.863 Q63.2649 847.998 63.062 847.998 Q62.6562 847.998 61.822 847.593 Q60.9879 847.187 60.0861 846.51 Q59.1618 845.834 58.4855 844.729 Q57.8092 843.625 57.8092 842.407 Q57.8092 841.686 58.1248 841.077 Q58.4404 840.446 58.7786 840.13 Q59.0942 839.792 59.7931 839.229 Q60.3341 838.755 60.5596 838.53 Q60.785 838.304 61.033 837.854 Q61.2584 837.38 61.2584 836.862 Q61.2584 836.005 60.6047 835.216 Q59.9283 834.427 58.3052 833.412 Q57.8092 833.142 57.8092 832.713 Q57.8092 832.218 58.2601 832.218 Z" fill="#000000" fill-rule="nonzero" fill-opacity="1" /><path clip-path="url(#clip000)" d="M49.5947 807.934 Q38.4515 807.934 29.466 803.779 Q25.6979 802.008 22.5418 799.528 Q19.3856 797.048 18.0007 795.406 Q16.6159 793.763 16.6159 793.312 Q16.6159 792.668 17.26 792.636 Q17.5821 792.636 18.3872 793.505 Q29.2084 804.133 49.5947 804.101 Q70.0454 804.101 80.4479 793.763 Q81.5751 792.636 81.9294 792.636 Q82.5735 792.636 82.5735 793.312 Q82.5735 793.763 81.2531 795.341 Q79.9326 796.919 76.9053 799.367 Q73.8779 801.815 70.1742 803.586 Q61.1888 807.934 49.5947 807.934 Z" fill="#000000" fill-rule="nonzero" fill-opacity="1" /><path clip-path="url(#clip000)" d="M66.0841 787.622 L64.0551 787.622 Q64.0551 784.112 63.6364 783.307 Q63.1856 782.502 61.06 782.502 L43.379 782.502 Q40.9313 782.502 40.3194 783.371 Q39.7075 784.208 39.7075 787.622 L37.6463 787.622 L36.9378 778.347 L43.8621 778.347 Q36.9378 775.255 36.9378 768.589 Q36.9378 760.859 43.379 759.796 Q40.8669 758.669 38.9023 756.318 Q36.9378 753.935 36.9378 750.231 Q36.9378 745.272 39.3854 743.307 Q41.0279 741.858 42.8637 741.568 Q44.6994 741.278 49.4659 741.278 L62.0584 741.278 Q63.4432 741.214 63.7653 740.151 Q64.0551 739.088 64.0551 736.125 L66.0841 736.125 Q65.8909 742.856 65.8909 743.5 Q65.8909 744.016 66.0841 750.972 L64.0551 750.972 Q64.0551 747.462 63.6364 746.656 Q63.1856 745.819 61.06 745.819 L45.6978 745.819 Q42.3484 745.819 40.3838 746.85 Q38.3871 747.88 38.3871 750.714 Q38.3871 754.128 41.2534 756.866 Q44.1197 759.603 48.9506 759.603 L61.06 759.603 Q63.1856 759.603 63.6364 758.798 Q64.0551 757.961 64.0551 754.45 L66.0841 754.45 Q65.8909 761.181 65.8909 761.858 Q65.8909 762.373 66.0841 769.297 L64.0551 769.297 Q64.0551 765.787 63.6364 764.982 Q63.1856 764.144 61.06 764.144 L45.6978 764.144 Q42.3484 764.144 40.3838 765.175 Q38.3871 766.205 38.3871 769.039 Q38.3871 772.453 41.2534 775.191 Q44.1197 777.928 48.9506 777.928 L61.06 777.928 Q63.1856 777.928 63.6364 777.123 Q64.0551 776.286 64.0551 772.808 L66.0841 772.808 Q65.8909 779.539 65.8909 780.183 Q65.8909 780.698 66.0841 787.622 Z" fill="#000000" fill-rule="nonzero" fill-opacity="1" /><path clip-path="url(#clip000)" d="M66.0841 733.499 L64.0551 733.499 Q63.9263 727.638 59.6107 726.124 L20.1907 712.469 Q19.3856 712.211 19.1279 711.921 Q18.8703 711.632 18.8703 710.891 Q18.8703 710.504 18.9347 710.279 Q18.9991 710.021 19.2246 709.86 Q19.45 709.699 19.5788 709.635 Q19.7077 709.57 20.1907 709.377 L61.4142 695.142 Q63.0567 694.627 63.572 693.564 Q64.0551 692.501 64.0551 689.506 L64.0551 688.347 L66.0841 688.347 Q65.8909 692.501 65.8909 696.978 Q65.8909 704.095 66.0841 706.479 L64.0551 706.479 Q64.0551 701.004 62.0584 701.004 Q61.9295 701.004 61.1244 701.197 L51.044 704.675 L51.044 720.971 L59.6751 724.031 Q59.9328 724.16 60.6735 724.16 Q62.0584 724.16 63.0567 722.871 Q64.0551 721.583 64.0551 719.2 L66.0841 719.2 Q65.8909 725.544 65.8909 726.8 Q65.8909 728.958 66.0841 733.499 M49.015 720.263 L49.015 705.416 L27.5659 712.855 L49.015 720.263 Z" fill="#000000" fill-rule="nonzero" fill-opacity="1" /><path clip-path="url(#clip000)" d="M81.9294 682.919 Q81.6073 682.919 80.8022 682.082 Q69.981 671.454 49.5947 671.454 Q29.144 671.454 18.8059 681.663 Q17.6143 682.919 17.26 682.919 Q16.6159 682.919 16.6159 682.275 Q16.6159 681.824 17.9363 680.246 Q19.2568 678.636 22.2841 676.22 Q25.3115 673.773 29.0151 671.969 Q38.0006 667.621 49.5947 667.621 Q60.7379 667.621 69.7234 671.776 Q73.4914 673.547 76.6476 676.027 Q79.8038 678.507 81.1886 680.15 Q82.5735 681.792 82.5735 682.275 Q82.5735 682.919 81.9294 682.919 Z" fill="#000000" fill-rule="nonzero" fill-opacity="1" /><path clip-path="url(#clip000)" d="M1073.19 15.0291 Q1073.19 15.8079 1072.87 16.1768 Q1072.58 16.5048 1072.13 16.5867 Q1071.68 16.6277 1070.49 16.6277 Q1068.48 16.6277 1067.21 16.7917 Q1065.94 16.9146 1065.16 17.1196 Q1064.38 17.2835 1063.93 17.8574 Q1063.52 18.3903 1063.32 18.8821 Q1063.15 19.374 1062.86 20.4807 L1051.63 65.2 Q1051.26 66.5117 1051.26 67.1675 Q1051.26 67.8643 1051.67 68.1512 Q1052.08 68.4382 1053.4 68.5611 Q1055.49 68.7661 1057 68.7661 Q1059.01 68.7661 1059.3 69.053 Q1059.5 69.3399 1059.5 69.7498 Q1059.5 70.4876 1059.18 70.8975 Q1058.85 71.2664 1058.56 71.3074 Q1058.31 71.3484 1057.82 71.3484 L1046.59 71.1025 L1035.57 71.3484 Q1034.34 71.3484 1034.34 70.4057 Q1034.34 69.7908 1034.42 69.4629 Q1034.54 69.094 1034.95 68.971 Q1035.4 68.8071 1035.73 68.8071 Q1036.06 68.7661 1037 68.7661 Q1038.68 68.7661 1039.79 68.7251 Q1040.94 68.6431 1041.76 68.4382 Q1042.62 68.1922 1043.03 67.9873 Q1043.48 67.7413 1043.8 67.2085 Q1044.17 66.6346 1044.3 66.1838 Q1044.46 65.7329 1044.67 64.7901 L1055.98 19.538 Q1056.14 18.8002 1056.14 18.2263 Q1056.14 17.1196 1054.83 16.8737 Q1053.56 16.6277 1050.36 16.6277 Q1049.38 16.6277 1048.97 16.5867 Q1048.6 16.5457 1048.27 16.3408 Q1047.99 16.1358 1047.99 15.685 Q1047.99 15.1111 1048.15 14.7422 Q1048.31 14.3323 1048.6 14.2094 Q1048.93 14.0864 1049.13 14.0454 Q1049.34 14.0044 1049.67 14.0044 L1060.86 14.2503 L1071.92 14.0044 Q1073.19 14.0044 1073.19 15.0291 Z" fill="#000000" fill-rule="nonzero" fill-opacity="1" /><path clip-path="url(#clip000)" d="M1106.69 61.384 Q1106.69 61.5848 1106.2 62.4456 Q1105.74 63.2777 1104.05 65.3722 Q1102.35 67.4668 1099.83 69.9057 Q1098.88 70.8525 1097.45 72.1724 Q1096.01 73.4922 1095.04 74.353 L1094.06 75.2138 Q1090.33 78.3699 1087.06 81.8991 Q1087.29 81.813 1087.69 81.7843 Q1088.09 81.727 1088.38 81.727 L1088.67 81.727 Q1090.16 81.727 1092.77 82.7312 Q1095.07 83.4772 1096.24 83.4772 Q1097.39 83.4772 1098.65 83.0755 Q1099.91 82.6738 1101.29 81.4974 Q1102.67 80.321 1103.3 78.5421 Q1103.41 78.2552 1103.47 78.1691 Q1103.53 78.0543 1103.7 77.9396 Q1103.87 77.7961 1104.1 77.7961 Q1104.42 77.7961 1104.62 77.9682 Q1104.82 78.1404 1104.82 78.3699 Q1104.82 78.8864 1104.42 79.9193 Q1104.05 80.9523 1103.21 82.2434 Q1102.41 83.5346 1101.35 84.711 Q1100.32 85.8587 1098.77 86.6621 Q1097.22 87.4368 1095.58 87.4368 Q1094.41 87.4368 1093.54 86.8629 Q1092.68 86.3178 1091.82 85.2561 Q1090.65 83.9076 1090.02 83.4772 Q1089.38 83.0181 1088.41 83.0181 Q1085.8 83.0181 1083.42 86.6621 Q1083.16 87.1785 1082.99 87.2933 Q1082.84 87.4368 1082.5 87.4368 Q1081.78 87.4081 1081.78 86.8342 Q1081.78 86.6047 1082.41 85.6005 Q1083.07 84.5675 1084.53 82.7599 Q1086.03 80.9523 1087.83 79.1446 L1093.11 74.2095 Q1098.97 69.2744 1101.29 66.4913 Q1100.32 66.4913 1099.89 66.4626 Q1099.48 66.4339 1098.68 66.2617 Q1097.88 66.0609 1096.76 65.6305 Q1094.15 64.741 1093.06 64.741 Q1092.77 64.741 1092.45 64.7697 Q1092.14 64.7984 1091.42 64.9419 Q1090.73 65.0853 1090.16 65.3722 Q1089.58 65.6305 1088.98 66.2043 Q1088.38 66.7495 1088.06 67.4955 Q1087.98 67.725 1087.92 67.8398 Q1087.86 67.9546 1087.69 68.0693 Q1087.55 68.1554 1087.32 68.1554 Q1086.97 68.1554 1086.77 67.9546 Q1086.6 67.7537 1086.6 67.4955 Q1086.6 66.979 1087.12 65.9174 Q1087.63 64.8558 1088.49 63.7081 Q1089.36 62.5317 1090.76 61.6709 Q1092.17 60.8101 1093.72 60.8101 Q1094.63 60.8101 1095.41 61.2118 Q1096.21 61.6135 1096.61 62.0439 Q1097.04 62.4456 1097.76 63.3351 Q1098.36 64.0237 1098.65 64.3106 Q1098.94 64.5975 1099.51 64.9132 Q1100.11 65.2001 1100.77 65.2001 Q1101.87 65.2001 1102.87 64.368 Q1103.87 63.5072 1105.16 61.4414 Q1105.51 60.8101 1106.05 60.8101 Q1106.69 60.8101 1106.69 61.384 Z" fill="#000000" fill-rule="nonzero" fill-opacity="1" /><path clip-path="url(#clip000)" d="M1137.59 37.7782 L1137.59 35.1549 Q1141.36 35.4008 1145.74 35.4008 Q1147.34 35.4008 1154.88 35.1549 L1154.88 37.7782 Q1150.09 37.7782 1150.09 39.9506 Q1150.09 40.2785 1150.58 41.3852 L1160.01 64.7901 L1168.57 43.3937 Q1169.07 41.9591 1169.07 41.3852 Q1169.07 39.9506 1168.08 38.9259 Q1167.14 37.8602 1165.05 37.7782 L1165.05 35.1549 Q1169.31 35.4008 1172.34 35.4008 Q1175.79 35.4008 1178.62 35.1549 L1178.62 37.7782 Q1176.12 37.7782 1174.35 38.9259 Q1172.59 40.0326 1172.02 41.0163 Q1171.48 41.9591 1170.91 43.3937 L1159.92 70.6926 Q1159.27 72.2912 1158.16 72.2912 Q1157.42 72.2912 1157.1 71.9632 Q1156.81 71.6763 1156.4 70.6926 L1144.31 40.8934 Q1143.49 38.8029 1142.42 38.311 Q1141.36 37.7782 1137.59 37.7782 Z" fill="#000000" fill-rule="nonzero" fill-opacity="1" /><path clip-path="url(#clip000)" d="M1183.37 70.2417 L1183.37 59.1746 Q1183.37 58.2318 1183.41 57.9039 Q1183.46 57.576 1183.7 57.3301 Q1183.95 57.0841 1184.44 57.0841 Q1185.01 57.0841 1185.22 57.3301 Q1185.46 57.576 1185.63 58.5188 Q1186.9 64.2983 1189.6 67.3724 Q1192.35 70.4057 1197.31 70.4057 Q1202.02 70.4057 1204.4 68.3152 Q1206.78 66.2247 1206.78 62.7816 Q1206.78 56.6333 1198.05 55.0757 Q1193.01 54.0509 1190.92 53.3951 Q1188.83 52.6983 1186.98 51.1817 Q1183.37 48.2305 1183.37 44.0495 Q1183.37 39.8686 1186.53 36.7944 Q1189.73 33.7202 1196.78 33.7202 Q1201.49 33.7202 1204.69 36.0976 Q1205.63 35.3598 1206.12 34.745 Q1207.23 33.7202 1207.8 33.7202 Q1208.46 33.7202 1208.58 34.1711 Q1208.71 34.581 1208.71 35.7697 L1208.71 44.2135 Q1208.71 45.1563 1208.66 45.4842 Q1208.62 45.8121 1208.38 46.058 Q1208.13 46.263 1207.6 46.263 Q1206.66 46.263 1206.61 45.4842 Q1205.96 35.3188 1196.78 35.3188 Q1191.82 35.3188 1189.6 37.2453 Q1187.39 39.1308 1187.39 41.7132 Q1187.39 43.1478 1188.05 44.2545 Q1188.74 45.3202 1189.6 45.976 Q1190.51 46.5909 1192.15 47.2057 Q1193.79 47.7796 1194.77 47.9845 Q1195.79 48.1895 1197.72 48.5994 Q1204.44 49.87 1207.27 52.6163 Q1210.8 56.1414 1210.8 60.6092 Q1210.8 65.5689 1207.43 68.93 Q1204.07 72.2912 1197.31 72.2912 Q1191.86 72.2912 1188.05 68.6431 Q1187.55 69.135 1187.19 69.5859 Q1186.82 69.9958 1186.65 70.1597 Q1186.53 70.3237 1186.49 70.4466 Q1186.45 70.5286 1186.37 70.6106 Q1184.69 72.2912 1184.28 72.2912 Q1183.62 72.2912 1183.5 71.8403 Q1183.37 71.4304 1183.37 70.2417 Z" fill="#000000" fill-rule="nonzero" fill-opacity="1" /><path clip-path="url(#clip000)" d="M1217.36 69.9958 Q1216.09 68.6431 1216.09 66.8806 Q1216.09 65.118 1217.36 63.8474 Q1218.64 62.5357 1220.56 62.5357 Q1222.41 62.5357 1223.64 63.7654 Q1224.91 64.9541 1224.91 66.9216 Q1224.91 68.8481 1223.55 70.1187 Q1222.24 71.3484 1220.56 71.3484 Q1218.64 71.3484 1217.36 69.9958 Z" fill="#000000" fill-rule="nonzero" fill-opacity="1" /><path clip-path="url(#clip000)" d="M1291.36 15.0291 Q1291.36 15.8079 1291.03 16.1768 Q1290.75 16.5048 1290.29 16.5867 Q1289.84 16.6277 1288.65 16.6277 Q1286.65 16.6277 1285.38 16.7917 Q1284.1 16.9146 1283.33 17.1196 Q1282.55 17.2835 1282.1 17.8574 Q1281.69 18.3903 1281.48 18.8821 Q1281.32 19.374 1281.03 20.4807 L1269.8 65.2 Q1269.43 66.5117 1269.43 67.1675 Q1269.43 67.8643 1269.84 68.1512 Q1270.25 68.4382 1271.56 68.5611 Q1273.65 68.7661 1275.17 68.7661 Q1277.18 68.7661 1277.46 69.053 Q1277.67 69.3399 1277.67 69.7498 Q1277.67 70.4876 1277.34 70.8975 Q1277.01 71.2664 1276.73 71.3074 Q1276.48 71.3484 1275.99 71.3484 L1264.76 71.1025 L1253.73 71.3484 Q1252.5 71.3484 1252.5 70.4057 Q1252.5 69.7908 1252.58 69.4629 Q1252.71 69.094 1253.12 68.971 Q1253.57 68.8071 1253.9 68.8071 Q1254.22 68.7661 1255.17 68.7661 Q1256.85 68.7661 1257.95 68.7251 Q1259.1 68.6431 1259.92 68.4382 Q1260.78 68.1922 1261.19 67.9873 Q1261.64 67.7413 1261.97 67.2085 Q1262.34 66.6346 1262.46 66.1838 Q1262.63 65.7329 1262.83 64.7901 L1274.14 19.538 Q1274.31 18.8002 1274.31 18.2263 Q1274.31 17.1196 1273 16.8737 Q1271.73 16.6277 1268.53 16.6277 Q1267.55 16.6277 1267.14 16.5867 Q1266.77 16.5457 1266.44 16.3408 Q1266.15 16.1358 1266.15 15.685 Q1266.15 15.1111 1266.32 14.7422 Q1266.48 14.3323 1266.77 14.2094 Q1267.09 14.0864 1267.3 14.0454 Q1267.5 14.0044 1267.83 14.0044 L1279.02 14.2503 L1290.09 14.0044 Q1291.36 14.0044 1291.36 15.0291 Z" fill="#000000" fill-rule="nonzero" fill-opacity="1" /><path clip-path="url(#clip000)" d="M1335.44 80.6847 Q1335.44 80.8568 1335.21 81.5168 L1330.56 94.1989 Q1330.3 94.9449 1330.05 95.0883 Q1329.79 95.2031 1328.73 95.2031 L1301.52 95.2031 Q1300.86 95.2031 1300.61 95.1744 Q1300.35 95.1457 1300.15 95.0022 Q1299.95 94.8588 1299.95 94.5432 Q1299.95 93.9693 1300.15 93.7111 Q1300.38 93.4529 1300.64 93.4242 Q1300.89 93.3955 1301.52 93.3955 Q1302.96 93.3955 1303.82 93.3094 Q1304.68 93.2233 1305.23 93.1085 Q1305.8 92.9651 1306.09 92.5634 Q1306.4 92.1617 1306.55 91.8174 Q1306.69 91.4444 1306.89 90.6123 L1314.75 59.0506 Q1314.98 58.1037 1314.98 57.9602 Q1314.98 57.4151 1314.64 57.2716 Q1314.32 57.0995 1313.4 57.0134 L1311.17 56.8986 Q1310.48 56.8986 1310.19 56.8699 Q1309.93 56.8412 1309.73 56.6978 Q1309.53 56.5543 1309.53 56.2387 Q1309.53 55.6935 1309.73 55.4353 Q1309.96 55.1484 1310.13 55.1197 Q1310.33 55.0623 1310.65 55.0623 L1318.45 55.2344 L1327.15 55.0623 Q1328.09 55.0623 1328.09 55.7796 Q1328.09 56.583 1327.69 56.7552 Q1327.29 56.8986 1325.86 56.8986 Q1323.1 56.8986 1321.84 57.1855 Q1320.61 57.4725 1320.26 57.9602 Q1319.95 58.4193 1319.63 59.6531 L1311.68 91.387 Q1311.39 92.4486 1311.39 92.7355 Q1311.39 93.0512 1311.54 93.1659 Q1311.71 93.252 1312.17 93.3094 Q1312.69 93.3955 1313.46 93.3955 L1318.97 93.3955 Q1320.63 93.3955 1322.1 93.1372 Q1323.56 92.879 1324.68 92.506 Q1325.83 92.133 1326.86 91.4444 Q1327.89 90.7558 1328.61 90.1532 Q1329.36 89.522 1330.07 88.5464 Q1330.82 87.5422 1331.25 86.8536 Q1331.71 86.1363 1332.23 84.9886 Q1332.74 83.8122 1333 83.1522 Q1333.29 82.4636 1333.72 81.2872 Q1333.98 80.6847 1334.06 80.5125 Q1334.15 80.3404 1334.29 80.1969 Q1334.46 80.0535 1334.72 80.0535 Q1335.07 80.0535 1335.24 80.2543 Q1335.44 80.4552 1335.44 80.6847 Z" fill="#000000" fill-rule="nonzero" fill-opacity="1" /><path clip-path="url(#clip000)" d="M1388.41 85.0388 Q1392.88 85.0388 1393.9 84.465 Q1394.97 83.9321 1394.97 81.2678 L1394.97 41.9591 Q1394.97 39.1718 1393.9 38.475 Q1392.88 37.7782 1388.41 37.7782 L1388.41 35.1549 L1400.5 34.2531 L1400.5 39.7867 Q1405.54 34.2531 1412.27 34.2531 Q1419.4 34.2531 1424.6 39.7867 Q1429.81 45.3202 1429.81 53.2311 Q1429.81 61.2241 1424.28 66.7576 Q1418.74 72.2912 1411.08 72.2912 Q1406.9 72.2912 1404.07 70.1597 Q1401.28 67.9873 1400.75 66.3887 L1400.75 67.1675 L1400.75 81.2678 Q1400.75 83.9731 1401.81 84.506 Q1402.88 85.0388 1407.31 85.0388 L1407.31 87.6211 Q1398.49 87.3752 1397.84 87.3752 Q1397.02 87.3752 1388.41 87.6211 L1388.41 85.0388 M1400.75 61.7979 Q1400.75 63.0686 1400.91 63.5195 Q1401.12 63.9703 1401.94 65.323 Q1405.26 70.4057 1410.67 70.4057 Q1410.71 70.4057 1410.75 70.4057 Q1415.55 70.4057 1419.19 65.5279 Q1422.84 60.6092 1422.84 53.2311 Q1422.84 46.181 1419.52 41.2623 Q1416.2 36.3436 1411.61 36.3436 Q1408.33 36.3436 1405.46 38.1061 Q1402.59 39.8686 1400.75 43.0658 L1400.75 61.7979 Z" fill="#000000" fill-rule="nonzero" fill-opacity="1" /><path clip-path="url(#clip000)" d="M1441.25 71.3484 L1441.25 68.7661 Q1445.72 68.7661 1446.74 68.2332 Q1447.77 67.6594 1447.77 64.9541 L1447.77 21.3005 Q1447.77 18.1853 1446.66 17.4065 Q1445.59 16.6277 1441.25 16.6277 L1441.25 14.0044 L1453.3 13.1026 L1453.3 64.9541 Q1453.3 67.6594 1454.36 68.2332 Q1455.43 68.7661 1459.86 68.7661 L1459.86 71.3484 Q1458.83 71.3484 1456.7 71.2664 Q1454.57 71.1844 1453.01 71.1435 Q1451.45 71.1025 1450.55 71.1025 Q1449.57 71.1025 1441.25 71.3484 Z" fill="#000000" fill-rule="nonzero" fill-opacity="1" /><path clip-path="url(#clip000)" d="M1472.49 66.8396 Q1466.95 61.347 1466.95 53.3951 Q1466.95 45.4022 1472.36 39.5817 Q1477.82 33.7202 1485.6 33.7202 Q1493.23 33.7202 1498.68 39.5407 Q1504.17 45.3202 1504.17 53.3951 Q1504.17 61.306 1498.64 66.7986 Q1493.15 72.2912 1485.52 72.2912 Q1478.06 72.2912 1472.49 66.8396 M1473.92 52.6983 Q1473.92 60.8552 1476.05 64.5442 Q1479.33 70.1597 1485.6 70.1597 Q1488.72 70.1597 1491.3 68.4792 Q1493.93 66.7986 1495.36 63.9703 Q1497.2 60.2813 1497.2 52.6983 Q1497.2 44.6234 1494.99 41.0573 Q1491.71 35.6058 1485.52 35.6058 Q1482.82 35.6058 1480.15 37.0404 Q1477.53 38.434 1475.93 41.2213 Q1473.92 44.9103 1473.92 52.6983 Z" fill="#000000" fill-rule="nonzero" fill-opacity="1" /><path clip-path="url(#clip000)" d="M1505.22 37.7782 L1505.22 35.9337 Q1509.07 35.7697 1511.61 33.0644 Q1514.2 30.3181 1515.06 26.957 Q1515.96 23.5959 1516.04 19.7019 L1518.13 19.7019 L1518.13 35.1549 L1530.14 35.1549 L1530.14 37.7782 L1518.13 37.7782 L1518.13 61.1011 Q1518.13 70.1597 1523.79 70.1597 Q1526.21 70.1597 1527.8 67.7004 Q1529.4 65.2 1529.4 60.7732 L1529.4 56.1414 L1531.49 56.1414 L1531.49 60.9371 Q1531.49 65.4869 1529.4 68.889 Q1527.31 72.2912 1523.17 72.2912 Q1521.66 72.2912 1520.14 71.8813 Q1518.66 71.5124 1516.7 70.5286 Q1514.77 69.5039 1513.54 67.0445 Q1512.35 64.5442 1512.35 60.9371 L1512.35 37.7782 L1505.22 37.7782 Z" fill="#000000" fill-rule="nonzero" fill-opacity="1" /><circle clip-path="url(#clip002)" cx="2292.37" cy="1386.4" r="14.4" fill="#0000ff" fill-rule="evenodd" fill-opacity="1" stroke="#000000" stroke-opacity="1" stroke-width="3.2"/>
<circle clip-path="url(#clip002)" cx="2173.96" cy="1239.79" r="14.4" fill="#0000ff" fill-rule="evenodd" fill-opacity="1" stroke="#000000" stroke-opacity="1" stroke-width="3.2"/>
<circle clip-path="url(#clip002)" cx="2031.87" cy="1133.17" r="14.4" fill="#0000ff" fill-rule="evenodd" fill-opacity="1" stroke="#000000" stroke-opacity="1" stroke-width="3.2"/>
<circle clip-path="url(#clip002)" cx="1937.14" cy="1066.53" r="14.4" fill="#0000ff" fill-rule="evenodd" fill-opacity="1" stroke="#000000" stroke-opacity="1" stroke-width="3.2"/>
<circle clip-path="url(#clip002)" cx="1818.73" cy="1133.17" r="14.4" fill="#0000ff" fill-rule="evenodd" fill-opacity="1" stroke="#000000" stroke-opacity="1" stroke-width="3.2"/>
<circle clip-path="url(#clip002)" cx="1629.28" cy="1079.86" r="14.4" fill="#0000ff" fill-rule="evenodd" fill-opacity="1" stroke="#000000" stroke-opacity="1" stroke-width="3.2"/>
<circle clip-path="url(#clip002)" cx="1487.19" cy="946.585" r="14.4" fill="#0000ff" fill-rule="evenodd" fill-opacity="1" stroke="#000000" stroke-opacity="1" stroke-width="3.2"/>
<circle clip-path="url(#clip002)" cx="1416.14" cy="786.654" r="14.4" fill="#0000ff" fill-rule="evenodd" fill-opacity="1" stroke="#000000" stroke-opacity="1" stroke-width="3.2"/>
<circle clip-path="url(#clip002)" cx="1274.05" cy="826.636" r="14.4" fill="#0000ff" fill-rule="evenodd" fill-opacity="1" stroke="#000000" stroke-opacity="1" stroke-width="3.2"/>
<circle clip-path="url(#clip002)" cx="1155.64" cy="733.343" r="14.4" fill="#0000ff" fill-rule="evenodd" fill-opacity="1" stroke="#000000" stroke-opacity="1" stroke-width="3.2"/>
<circle clip-path="url(#clip002)" cx="989.873" cy="666.705" r="14.4" fill="#0000ff" fill-rule="evenodd" fill-opacity="1" stroke="#000000" stroke-opacity="1" stroke-width="3.2"/>
<circle clip-path="url(#clip002)" cx="871.464" cy="600.067" r="14.4" fill="#0000ff" fill-rule="evenodd" fill-opacity="1" stroke="#000000" stroke-opacity="1" stroke-width="3.2"/>
<circle clip-path="url(#clip002)" cx="800.419" cy="480.119" r="14.4" fill="#0000ff" fill-rule="evenodd" fill-opacity="1" stroke="#000000" stroke-opacity="1" stroke-width="3.2"/>
<circle clip-path="url(#clip002)" cx="729.374" cy="426.808" r="14.4" fill="#0000ff" fill-rule="evenodd" fill-opacity="1" stroke="#000000" stroke-opacity="1" stroke-width="3.2"/>
<circle clip-path="url(#clip002)" cx="634.647" cy="373.498" r="14.4" fill="#0000ff" fill-rule="evenodd" fill-opacity="1" stroke="#000000" stroke-opacity="1" stroke-width="3.2"/>
<circle clip-path="url(#clip002)" cx="492.557" cy="346.843" r="14.4" fill="#0000ff" fill-rule="evenodd" fill-opacity="1" stroke="#000000" stroke-opacity="1" stroke-width="3.2"/>
<circle clip-path="url(#clip002)" cx="421.512" cy="426.808" r="14.4" fill="#0000ff" fill-rule="evenodd" fill-opacity="1" stroke="#000000" stroke-opacity="1" stroke-width="3.2"/>
<circle clip-path="url(#clip002)" cx="279.421" cy="160.256" r="14.4" fill="#0000ff" fill-rule="evenodd" fill-opacity="1" stroke="#000000" stroke-opacity="1" stroke-width="3.2"/>
<polyline clip-path="url(#clip002)" style="stroke:#ff0000; stroke-linecap:round; stroke-linejoin:round; stroke-width:8; stroke-opacity:1; fill:none" stroke-dasharray="32, 20" points="2292.37,1344.43 2173.96,1279.11 2031.87,1200.72 1937.14,1148.46 1818.73,1083.13 1629.28,978.617 1487.19,900.228 1416.14,861.034 1274.05,782.645 1155.64,717.321 989.873,625.868 871.464,560.544 800.419,521.349 729.374,482.155 634.647,429.896 492.557,351.507 421.512,312.313 279.421,233.924 "/>
<path clip-path="url(#clip000)" d="M1804.56 322.316 L2281.63 322.316 L2281.63 166.796 L1804.56 166.796  Z" fill="#ffffff" fill-rule="evenodd" fill-opacity="1"/>
<polyline clip-path="url(#clip000)" style="stroke:#000000; stroke-linecap:round; stroke-linejoin:round; stroke-width:4; stroke-opacity:1; fill:none" points="1804.56,322.316 2281.63,322.316 2281.63,166.796 1804.56,166.796 1804.56,322.316 "/>
<circle clip-path="url(#clip000)" cx="1899.39" cy="218.636" r="20.48" fill="#0000ff" fill-rule="evenodd" fill-opacity="1" stroke="#000000" stroke-opacity="1" stroke-width="4.55111"/>
<path clip-path="url(#clip000)" d="M1998.9 205.198 L1998.9 232.073 L2004.55 232.073 Q2011.7 232.073 2015.01 228.832 Q2018.34 225.592 2018.34 218.601 Q2018.34 211.657 2015.01 208.439 Q2011.7 205.198 2004.55 205.198 L1998.9 205.198 M1994.22 201.356 L2003.83 201.356 Q2013.87 201.356 2018.57 205.546 Q2023.27 209.712 2023.27 218.601 Q2023.27 227.536 2018.55 231.726 Q2013.83 235.916 2003.83 235.916 L1994.22 235.916 L1994.22 201.356 Z" fill="#000000" fill-rule="nonzero" fill-opacity="1" /><path clip-path="url(#clip000)" d="M2042.32 222.883 Q2037.16 222.883 2035.17 224.064 Q2033.18 225.244 2033.18 228.092 Q2033.18 230.36 2034.66 231.703 Q2036.17 233.022 2038.74 233.022 Q2042.28 233.022 2044.41 230.522 Q2046.56 227.999 2046.56 223.832 L2046.56 222.883 L2042.32 222.883 M2050.82 221.124 L2050.82 235.916 L2046.56 235.916 L2046.56 231.981 Q2045.1 234.342 2042.92 235.476 Q2040.75 236.587 2037.6 236.587 Q2033.62 236.587 2031.26 234.365 Q2028.92 232.119 2028.92 228.369 Q2028.92 223.994 2031.84 221.772 Q2034.78 219.55 2040.59 219.55 L2046.56 219.55 L2046.56 219.133 Q2046.56 216.194 2044.61 214.596 Q2042.69 212.976 2039.2 212.976 Q2036.98 212.976 2034.87 213.508 Q2032.76 214.041 2030.82 215.106 L2030.82 211.17 Q2033.16 210.268 2035.36 209.828 Q2037.55 209.365 2039.64 209.365 Q2045.26 209.365 2048.04 212.282 Q2050.82 215.198 2050.82 221.124 Z" fill="#000000" fill-rule="nonzero" fill-opacity="1" /><path clip-path="url(#clip000)" d="M2063.8 202.629 L2063.8 209.99 L2072.58 209.99 L2072.58 213.3 L2063.8 213.3 L2063.8 227.374 Q2063.8 230.545 2064.66 231.448 Q2065.54 232.351 2068.2 232.351 L2072.58 232.351 L2072.58 235.916 L2068.2 235.916 Q2063.27 235.916 2061.4 234.087 Q2059.52 232.235 2059.52 227.374 L2059.52 213.3 L2056.4 213.3 L2056.4 209.99 L2059.52 209.99 L2059.52 202.629 L2063.8 202.629 Z" fill="#000000" fill-rule="nonzero" fill-opacity="1" /><path clip-path="url(#clip000)" d="M2089.96 222.883 Q2084.8 222.883 2082.81 224.064 Q2080.82 225.244 2080.82 228.092 Q2080.82 230.36 2082.3 231.703 Q2083.8 233.022 2086.37 233.022 Q2089.92 233.022 2092.05 230.522 Q2094.2 227.999 2094.2 223.832 L2094.2 222.883 L2089.96 222.883 M2098.46 221.124 L2098.46 235.916 L2094.2 235.916 L2094.2 231.981 Q2092.74 234.342 2090.56 235.476 Q2088.39 236.587 2085.24 236.587 Q2081.26 236.587 2078.9 234.365 Q2076.56 232.119 2076.56 228.369 Q2076.56 223.994 2079.48 221.772 Q2082.42 219.55 2088.23 219.55 L2094.2 219.55 L2094.2 219.133 Q2094.2 216.194 2092.25 214.596 Q2090.33 212.976 2086.84 212.976 Q2084.61 212.976 2082.51 213.508 Q2080.4 214.041 2078.46 215.106 L2078.46 211.17 Q2080.8 210.268 2082.99 209.828 Q2085.19 209.365 2087.28 209.365 Q2092.9 209.365 2095.68 212.282 Q2098.46 215.198 2098.46 221.124 Z" fill="#000000" fill-rule="nonzero" fill-opacity="1" /><path clip-path="url(#clip000)" d="M2127.16 205.198 L2127.16 218.184 L2133.04 218.184 Q2136.3 218.184 2138.09 216.495 Q2139.87 214.805 2139.87 211.68 Q2139.87 208.578 2138.09 206.888 Q2136.3 205.198 2133.04 205.198 L2127.16 205.198 M2122.48 201.356 L2133.04 201.356 Q2138.85 201.356 2141.81 203.995 Q2144.8 206.61 2144.8 211.68 Q2144.8 216.795 2141.81 219.411 Q2138.85 222.027 2133.04 222.027 L2127.16 222.027 L2127.16 235.916 L2122.48 235.916 L2122.48 201.356 Z" fill="#000000" fill-rule="nonzero" fill-opacity="1" /><path clip-path="url(#clip000)" d="M2159.24 212.976 Q2155.82 212.976 2153.83 215.661 Q2151.84 218.323 2151.84 222.976 Q2151.84 227.629 2153.8 230.314 Q2155.79 232.976 2159.24 232.976 Q2162.65 232.976 2164.64 230.291 Q2166.63 227.606 2166.63 222.976 Q2166.63 218.37 2164.64 215.684 Q2162.65 212.976 2159.24 212.976 M2159.24 209.365 Q2164.8 209.365 2167.97 212.976 Q2171.14 216.587 2171.14 222.976 Q2171.14 229.342 2167.97 232.976 Q2164.8 236.587 2159.24 236.587 Q2153.67 236.587 2150.49 232.976 Q2147.35 229.342 2147.35 222.976 Q2147.35 216.587 2150.49 212.976 Q2153.67 209.365 2159.24 209.365 Z" fill="#000000" fill-rule="nonzero" fill-opacity="1" /><path clip-path="url(#clip000)" d="M2178.2 209.99 L2182.46 209.99 L2182.46 235.916 L2178.2 235.916 L2178.2 209.99 M2178.2 199.897 L2182.46 199.897 L2182.46 205.291 L2178.2 205.291 L2178.2 199.897 Z" fill="#000000" fill-rule="nonzero" fill-opacity="1" /><path clip-path="url(#clip000)" d="M2212.92 220.268 L2212.92 235.916 L2208.66 235.916 L2208.66 220.407 Q2208.66 216.726 2207.23 214.897 Q2205.79 213.069 2202.92 213.069 Q2199.48 213.069 2197.48 215.268 Q2195.49 217.467 2195.49 221.263 L2195.49 235.916 L2191.21 235.916 L2191.21 209.99 L2195.49 209.99 L2195.49 214.018 Q2197.02 211.68 2199.08 210.522 Q2201.16 209.365 2203.87 209.365 Q2208.34 209.365 2210.63 212.143 Q2212.92 214.897 2212.92 220.268 Z" fill="#000000" fill-rule="nonzero" fill-opacity="1" /><path clip-path="url(#clip000)" d="M2225.63 202.629 L2225.63 209.99 L2234.41 209.99 L2234.41 213.3 L2225.63 213.3 L2225.63 227.374 Q2225.63 230.545 2226.49 231.448 Q2227.37 232.351 2230.03 232.351 L2234.41 232.351 L2234.41 235.916 L2230.03 235.916 Q2225.1 235.916 2223.22 234.087 Q2221.35 232.235 2221.35 227.374 L2221.35 213.3 L2218.22 213.3 L2218.22 209.99 L2221.35 209.99 L2221.35 202.629 L2225.63 202.629 Z" fill="#000000" fill-rule="nonzero" fill-opacity="1" /><path clip-path="url(#clip000)" d="M2256.53 210.754 L2256.53 214.782 Q2254.73 213.856 2252.78 213.393 Q2250.84 212.93 2248.76 212.93 Q2245.59 212.93 2243.99 213.902 Q2242.41 214.874 2242.41 216.819 Q2242.41 218.3 2243.55 219.157 Q2244.68 219.99 2248.11 220.754 L2249.57 221.078 Q2254.1 222.05 2256 223.832 Q2257.92 225.592 2257.92 228.763 Q2257.92 232.374 2255.05 234.481 Q2252.21 236.587 2247.21 236.587 Q2245.12 236.587 2242.85 236.17 Q2240.61 235.777 2238.11 234.967 L2238.11 230.569 Q2240.47 231.795 2242.76 232.42 Q2245.05 233.022 2247.3 233.022 Q2250.31 233.022 2251.93 232.004 Q2253.55 230.962 2253.55 229.087 Q2253.55 227.351 2252.37 226.425 Q2251.21 225.499 2247.25 224.643 L2245.77 224.295 Q2241.81 223.462 2240.05 221.749 Q2238.29 220.013 2238.29 217.004 Q2238.29 213.346 2240.89 211.356 Q2243.48 209.365 2248.25 209.365 Q2250.61 209.365 2252.69 209.712 Q2254.78 210.059 2256.53 210.754 Z" fill="#000000" fill-rule="nonzero" fill-opacity="1" /><polyline clip-path="url(#clip000)" style="stroke:#ff0000; stroke-linecap:round; stroke-linejoin:round; stroke-width:8; stroke-opacity:1; fill:none" stroke-dasharray="32, 20" points="1828.27,270.476 1970.51,270.476 "/>
<path clip-path="url(#clip000)" d="M1994.22 253.196 L1998.9 253.196 L1998.9 283.821 L2015.73 283.821 L2015.73 287.756 L1994.22 287.756 L1994.22 253.196 Z" fill="#000000" fill-rule="nonzero" fill-opacity="1" /><path clip-path="url(#clip000)" d="M2020.45 261.83 L2024.71 261.83 L2024.71 287.756 L2020.45 287.756 L2020.45 261.83 M2020.45 251.737 L2024.71 251.737 L2024.71 257.131 L2020.45 257.131 L2020.45 251.737 Z" fill="#000000" fill-rule="nonzero" fill-opacity="1" /><path clip-path="url(#clip000)" d="M2055.17 272.108 L2055.17 287.756 L2050.91 287.756 L2050.91 272.247 Q2050.91 268.566 2049.48 266.737 Q2048.04 264.909 2045.17 264.909 Q2041.72 264.909 2039.73 267.108 Q2037.74 269.307 2037.74 273.103 L2037.74 287.756 L2033.46 287.756 L2033.46 261.83 L2037.74 261.83 L2037.74 265.858 Q2039.27 263.52 2041.33 262.362 Q2043.41 261.205 2046.12 261.205 Q2050.59 261.205 2052.88 263.983 Q2055.17 266.737 2055.17 272.108 Z" fill="#000000" fill-rule="nonzero" fill-opacity="1" /><path clip-path="url(#clip000)" d="M2085.84 273.728 L2085.84 275.811 L2066.26 275.811 Q2066.54 280.209 2068.9 282.524 Q2071.28 284.816 2075.52 284.816 Q2077.97 284.816 2080.26 284.214 Q2082.58 283.612 2084.85 282.409 L2084.85 286.436 Q2082.55 287.408 2080.15 287.918 Q2077.74 288.427 2075.26 288.427 Q2069.06 288.427 2065.42 284.816 Q2061.81 281.205 2061.81 275.047 Q2061.81 268.682 2065.24 264.955 Q2068.69 261.205 2074.52 261.205 Q2079.75 261.205 2082.79 264.585 Q2085.84 267.941 2085.84 273.728 M2081.58 272.478 Q2081.54 268.983 2079.61 266.899 Q2077.72 264.816 2074.57 264.816 Q2071 264.816 2068.85 266.83 Q2066.72 268.844 2066.4 272.501 L2081.58 272.478 Z" fill="#000000" fill-rule="nonzero" fill-opacity="1" /><path clip-path="url(#clip000)" d="M2104.61 274.723 Q2099.45 274.723 2097.46 275.904 Q2095.47 277.084 2095.47 279.932 Q2095.47 282.2 2096.95 283.543 Q2098.46 284.862 2101.03 284.862 Q2104.57 284.862 2106.7 282.362 Q2108.85 279.839 2108.85 275.672 L2108.85 274.723 L2104.61 274.723 M2113.11 272.964 L2113.11 287.756 L2108.85 287.756 L2108.85 283.821 Q2107.39 286.182 2105.22 287.316 Q2103.04 288.427 2099.89 288.427 Q2095.91 288.427 2093.55 286.205 Q2091.21 283.959 2091.21 280.209 Q2091.21 275.834 2094.13 273.612 Q2097.07 271.39 2102.88 271.39 L2108.85 271.39 L2108.85 270.973 Q2108.85 268.034 2106.91 266.436 Q2104.98 264.816 2101.49 264.816 Q2099.27 264.816 2097.16 265.348 Q2095.05 265.881 2093.11 266.946 L2093.11 263.01 Q2095.45 262.108 2097.65 261.668 Q2099.85 261.205 2101.93 261.205 Q2107.55 261.205 2110.33 264.122 Q2113.11 267.038 2113.11 272.964 Z" fill="#000000" fill-rule="nonzero" fill-opacity="1" /><path clip-path="url(#clip000)" d="M2136.91 265.811 Q2136.19 265.395 2135.33 265.21 Q2134.5 265.001 2133.48 265.001 Q2129.87 265.001 2127.92 267.362 Q2126 269.7 2126 274.098 L2126 287.756 L2121.72 287.756 L2121.72 261.83 L2126 261.83 L2126 265.858 Q2127.35 263.497 2129.5 262.362 Q2131.65 261.205 2134.73 261.205 Q2135.17 261.205 2135.7 261.274 Q2136.23 261.321 2136.88 261.436 L2136.91 265.811 Z" fill="#000000" fill-rule="nonzero" fill-opacity="1" /><path clip-path="url(#clip000)" d="M2156.63 253.196 L2176.49 253.196 L2176.49 257.131 L2161.3 257.131 L2161.3 267.316 L2175.01 267.316 L2175.01 271.251 L2161.3 271.251 L2161.3 287.756 L2156.63 287.756 L2156.63 253.196 Z" fill="#000000" fill-rule="nonzero" fill-opacity="1" /><path clip-path="url(#clip000)" d="M2180.26 261.83 L2184.52 261.83 L2184.52 287.756 L2180.26 287.756 L2180.26 261.83 M2180.26 251.737 L2184.52 251.737 L2184.52 257.131 L2180.26 257.131 L2180.26 251.737 Z" fill="#000000" fill-rule="nonzero" fill-opacity="1" /><path clip-path="url(#clip000)" d="M2197.65 254.469 L2197.65 261.83 L2206.42 261.83 L2206.42 265.14 L2197.65 265.14 L2197.65 279.214 Q2197.65 282.385 2198.5 283.288 Q2199.38 284.191 2202.04 284.191 L2206.42 284.191 L2206.42 287.756 L2202.04 287.756 Q2197.11 287.756 2195.24 285.927 Q2193.36 284.075 2193.36 279.214 L2193.36 265.14 L2190.24 265.14 L2190.24 261.83 L2193.36 261.83 L2193.36 254.469 L2197.65 254.469 Z" fill="#000000" fill-rule="nonzero" fill-opacity="1" /><g clip-path="url(#clip000)">
<text style="fill:#000000; fill-opacity:1; font-family:Century Gothic,CenturyGothic,AppleGothic,sans-serif; font-size:83px; text-anchor:middle;" transform="rotate(0, 1747.69, 510.619)" x="1747.69" y="510.619">Slope of fit curve: -0.98 0.09</text>
</g>
</svg>
