<?xml version="1.0" encoding="utf-8"?>
<svg xmlns="http://www.w3.org/2000/svg" xmlns:xlink="http://www.w3.org/1999/xlink" width="600" height="400" viewBox="0 0 2400 1600">
<defs>
  <clipPath id="clip970">
    <rect x="0" y="0" width="2400" height="1600"/>
  </clipPath>
</defs>
<path clip-path="url(#clip970)" d="M0 1600 L2400 1600 L2400 0 L0 0  Z" fill="#ffffff" fill-rule="evenodd" fill-opacity="1"/>
<defs>
  <clipPath id="clip971">
    <rect x="480" y="0" width="1681" height="1600"/>
  </clipPath>
</defs>
<path clip-path="url(#clip970)" d="M219.519 1423.18 L2352.76 1423.18 L2352.76 123.472 L219.519 123.472  Z" fill="#ffffff" fill-rule="evenodd" fill-opacity="1"/>
<defs>
  <clipPath id="clip972">
    <rect x="219" y="123" width="2134" height="1301"/>
  </clipPath>
</defs>
<polyline clip-path="url(#clip972)" style="stroke:#000000; stroke-linecap:round; stroke-linejoin:round; stroke-width:2; stroke-opacity:0.1; fill:none" points="236.144,1423.18 236.144,123.472 "/>
<polyline clip-path="url(#clip972)" style="stroke:#000000; stroke-linecap:round; stroke-linejoin:round; stroke-width:2; stroke-opacity:0.1; fill:none" points="673.641,1423.18 673.641,123.472 "/>
<polyline clip-path="url(#clip972)" style="stroke:#000000; stroke-linecap:round; stroke-linejoin:round; stroke-width:2; stroke-opacity:0.1; fill:none" points="1111.14,1423.18 1111.14,123.472 "/>
<polyline clip-path="url(#clip972)" style="stroke:#000000; stroke-linecap:round; stroke-linejoin:round; stroke-width:2; stroke-opacity:0.1; fill:none" points="1548.64,1423.18 1548.64,123.472 "/>
<polyline clip-path="url(#clip972)" style="stroke:#000000; stroke-linecap:round; stroke-linejoin:round; stroke-width:2; stroke-opacity:0.1; fill:none" points="1986.13,1423.18 1986.13,123.472 "/>
<polyline clip-path="url(#clip972)" style="stroke:#000000; stroke-linecap:round; stroke-linejoin:round; stroke-width:2; stroke-opacity:0.1; fill:none" points="219.519,1302.89 2352.76,1302.89 "/>
<polyline clip-path="url(#clip972)" style="stroke:#000000; stroke-linecap:round; stroke-linejoin:round; stroke-width:2; stroke-opacity:0.1; fill:none" points="219.519,1033.2 2352.76,1033.2 "/>
<polyline clip-path="url(#clip972)" style="stroke:#000000; stroke-linecap:round; stroke-linejoin:round; stroke-width:2; stroke-opacity:0.1; fill:none" points="219.519,763.518 2352.76,763.518 "/>
<polyline clip-path="url(#clip972)" style="stroke:#000000; stroke-linecap:round; stroke-linejoin:round; stroke-width:2; stroke-opacity:0.1; fill:none" points="219.519,493.831 2352.76,493.831 "/>
<polyline clip-path="url(#clip972)" style="stroke:#000000; stroke-linecap:round; stroke-linejoin:round; stroke-width:2; stroke-opacity:0.1; fill:none" points="219.519,224.145 2352.76,224.145 "/>
<polyline clip-path="url(#clip970)" style="stroke:#000000; stroke-linecap:round; stroke-linejoin:round; stroke-width:4; stroke-opacity:1; fill:none" points="219.519,1423.18 2352.76,1423.18 "/>
<polyline clip-path="url(#clip970)" style="stroke:#000000; stroke-linecap:round; stroke-linejoin:round; stroke-width:4; stroke-opacity:1; fill:none" points="236.144,1423.18 236.144,1404.28 "/>
<polyline clip-path="url(#clip970)" style="stroke:#000000; stroke-linecap:round; stroke-linejoin:round; stroke-width:4; stroke-opacity:1; fill:none" points="673.641,1423.18 673.641,1404.28 "/>
<polyline clip-path="url(#clip970)" style="stroke:#000000; stroke-linecap:round; stroke-linejoin:round; stroke-width:4; stroke-opacity:1; fill:none" points="1111.14,1423.18 1111.14,1404.28 "/>
<polyline clip-path="url(#clip970)" style="stroke:#000000; stroke-linecap:round; stroke-linejoin:round; stroke-width:4; stroke-opacity:1; fill:none" points="1548.64,1423.18 1548.64,1404.28 "/>
<polyline clip-path="url(#clip970)" style="stroke:#000000; stroke-linecap:round; stroke-linejoin:round; stroke-width:4; stroke-opacity:1; fill:none" points="1986.13,1423.18 1986.13,1404.28 "/>
<path clip-path="url(#clip970)" d="M204.096 1481.64 L211.734 1481.64 L211.734 1455.28 L203.424 1456.95 L203.424 1452.69 L211.688 1451.02 L216.364 1451.02 L216.364 1481.64 L224.003 1481.64 L224.003 1485.58 L204.096 1485.58 L204.096 1481.64 Z" fill="#000000" fill-rule="nonzero" fill-opacity="1" /><path clip-path="url(#clip970)" d="M233.447 1479.7 L238.331 1479.7 L238.331 1485.58 L233.447 1485.58 L233.447 1479.7 Z" fill="#000000" fill-rule="nonzero" fill-opacity="1" /><path clip-path="url(#clip970)" d="M252.544 1481.64 L268.864 1481.64 L268.864 1485.58 L246.919 1485.58 L246.919 1481.64 Q249.581 1478.89 254.165 1474.26 Q258.771 1469.61 259.952 1468.27 Q262.197 1465.74 263.077 1464.01 Q263.979 1462.25 263.979 1460.56 Q263.979 1457.8 262.035 1456.07 Q260.114 1454.33 257.012 1454.33 Q254.813 1454.33 252.359 1455.09 Q249.929 1455.86 247.151 1457.41 L247.151 1452.69 Q249.975 1451.55 252.429 1450.97 Q254.882 1450.39 256.919 1450.39 Q262.29 1450.39 265.484 1453.08 Q268.678 1455.77 268.678 1460.26 Q268.678 1462.39 267.868 1464.31 Q267.081 1466.2 264.975 1468.8 Q264.396 1469.47 261.294 1472.69 Q258.192 1475.88 252.544 1481.64 Z" fill="#000000" fill-rule="nonzero" fill-opacity="1" /><path clip-path="url(#clip970)" d="M640.551 1481.64 L648.19 1481.64 L648.19 1455.28 L639.88 1456.95 L639.88 1452.69 L648.144 1451.02 L652.82 1451.02 L652.82 1481.64 L660.458 1481.64 L660.458 1485.58 L640.551 1485.58 L640.551 1481.64 Z" fill="#000000" fill-rule="nonzero" fill-opacity="1" /><path clip-path="url(#clip970)" d="M669.903 1479.7 L674.787 1479.7 L674.787 1485.58 L669.903 1485.58 L669.903 1479.7 Z" fill="#000000" fill-rule="nonzero" fill-opacity="1" /><path clip-path="url(#clip970)" d="M697.819 1455.09 L686.014 1473.54 L697.819 1473.54 L697.819 1455.09 M696.593 1451.02 L702.472 1451.02 L702.472 1473.54 L707.403 1473.54 L707.403 1477.43 L702.472 1477.43 L702.472 1485.58 L697.819 1485.58 L697.819 1477.43 L682.218 1477.43 L682.218 1472.92 L696.593 1451.02 Z" fill="#000000" fill-rule="nonzero" fill-opacity="1" /><path clip-path="url(#clip970)" d="M1078.21 1481.64 L1085.85 1481.64 L1085.85 1455.28 L1077.54 1456.95 L1077.54 1452.69 L1085.8 1451.02 L1090.48 1451.02 L1090.48 1481.64 L1098.12 1481.64 L1098.12 1485.58 L1078.21 1485.58 L1078.21 1481.64 Z" fill="#000000" fill-rule="nonzero" fill-opacity="1" /><path clip-path="url(#clip970)" d="M1107.56 1479.7 L1112.45 1479.7 L1112.45 1485.58 L1107.56 1485.58 L1107.56 1479.7 Z" fill="#000000" fill-rule="nonzero" fill-opacity="1" /><path clip-path="url(#clip970)" d="M1133.21 1466.44 Q1130.06 1466.44 1128.21 1468.59 Q1126.38 1470.74 1126.38 1474.49 Q1126.38 1478.22 1128.21 1480.39 Q1130.06 1482.55 1133.21 1482.55 Q1136.36 1482.55 1138.19 1480.39 Q1140.04 1478.22 1140.04 1474.49 Q1140.04 1470.74 1138.19 1468.59 Q1136.36 1466.44 1133.21 1466.44 M1142.49 1451.78 L1142.49 1456.04 Q1140.73 1455.21 1138.93 1454.77 Q1137.15 1454.33 1135.39 1454.33 Q1130.76 1454.33 1128.3 1457.45 Q1125.87 1460.58 1125.53 1466.9 Q1126.89 1464.89 1128.95 1463.82 Q1131.01 1462.73 1133.49 1462.73 Q1138.7 1462.73 1141.71 1465.9 Q1144.74 1469.05 1144.74 1474.49 Q1144.74 1479.82 1141.59 1483.03 Q1138.44 1486.25 1133.21 1486.25 Q1127.21 1486.25 1124.04 1481.67 Q1120.87 1477.06 1120.87 1468.33 Q1120.87 1460.14 1124.76 1455.28 Q1128.65 1450.39 1135.2 1450.39 Q1136.96 1450.39 1138.74 1450.74 Q1140.55 1451.09 1142.49 1451.78 Z" fill="#000000" fill-rule="nonzero" fill-opacity="1" /><path clip-path="url(#clip970)" d="M1515.84 1481.64 L1523.47 1481.64 L1523.47 1455.28 L1515.16 1456.95 L1515.16 1452.69 L1523.43 1451.02 L1528.1 1451.02 L1528.1 1481.64 L1535.74 1481.64 L1535.74 1485.58 L1515.84 1485.58 L1515.84 1481.64 Z" fill="#000000" fill-rule="nonzero" fill-opacity="1" /><path clip-path="url(#clip970)" d="M1545.19 1479.7 L1550.07 1479.7 L1550.07 1485.58 L1545.19 1485.58 L1545.19 1479.7 Z" fill="#000000" fill-rule="nonzero" fill-opacity="1" /><path clip-path="url(#clip970)" d="M1570.26 1469.17 Q1566.92 1469.17 1565 1470.95 Q1563.1 1472.73 1563.1 1475.86 Q1563.1 1478.98 1565 1480.77 Q1566.92 1482.55 1570.26 1482.55 Q1573.59 1482.55 1575.51 1480.77 Q1577.43 1478.96 1577.43 1475.86 Q1577.43 1472.73 1575.51 1470.95 Q1573.61 1469.17 1570.26 1469.17 M1565.58 1467.18 Q1562.57 1466.44 1560.88 1464.38 Q1559.21 1462.32 1559.21 1459.35 Q1559.21 1455.21 1562.15 1452.8 Q1565.12 1450.39 1570.26 1450.39 Q1575.42 1450.39 1578.36 1452.8 Q1581.3 1455.21 1581.3 1459.35 Q1581.3 1462.32 1579.61 1464.38 Q1577.94 1466.44 1574.96 1467.18 Q1578.33 1467.96 1580.21 1470.26 Q1582.11 1472.55 1582.11 1475.86 Q1582.11 1480.88 1579.03 1483.57 Q1575.97 1486.25 1570.26 1486.25 Q1564.54 1486.25 1561.46 1483.57 Q1558.4 1480.88 1558.4 1475.86 Q1558.4 1472.55 1560.3 1470.26 Q1562.2 1467.96 1565.58 1467.18 M1563.87 1459.79 Q1563.87 1462.48 1565.53 1463.98 Q1567.22 1465.49 1570.26 1465.49 Q1573.27 1465.49 1574.96 1463.98 Q1576.67 1462.48 1576.67 1459.79 Q1576.67 1457.11 1574.96 1455.6 Q1573.27 1454.1 1570.26 1454.1 Q1567.22 1454.1 1565.53 1455.6 Q1563.87 1457.11 1563.87 1459.79 Z" fill="#000000" fill-rule="nonzero" fill-opacity="1" /><path clip-path="url(#clip970)" d="M1957.37 1481.64 L1973.69 1481.64 L1973.69 1485.58 L1951.75 1485.58 L1951.75 1481.64 Q1954.41 1478.89 1958.99 1474.26 Q1963.6 1469.61 1964.78 1468.27 Q1967.02 1465.74 1967.9 1464.01 Q1968.81 1462.25 1968.81 1460.56 Q1968.81 1457.8 1966.86 1456.07 Q1964.94 1454.33 1961.84 1454.33 Q1959.64 1454.33 1957.19 1455.09 Q1954.76 1455.86 1951.98 1457.41 L1951.98 1452.69 Q1954.8 1451.55 1957.26 1450.97 Q1959.71 1450.39 1961.75 1450.39 Q1967.12 1450.39 1970.31 1453.08 Q1973.51 1455.77 1973.51 1460.26 Q1973.51 1462.39 1972.7 1464.31 Q1971.91 1466.2 1969.8 1468.8 Q1969.22 1469.47 1966.12 1472.69 Q1963.02 1475.88 1957.37 1481.64 Z" fill="#000000" fill-rule="nonzero" fill-opacity="1" /><path clip-path="url(#clip970)" d="M1983.51 1479.7 L1988.39 1479.7 L1988.39 1485.58 L1983.51 1485.58 L1983.51 1479.7 Z" fill="#000000" fill-rule="nonzero" fill-opacity="1" /><path clip-path="url(#clip970)" d="M2008.58 1454.1 Q2004.96 1454.1 2003.14 1457.66 Q2001.33 1461.2 2001.33 1468.33 Q2001.33 1475.44 2003.14 1479.01 Q2004.96 1482.55 2008.58 1482.55 Q2012.21 1482.55 2014.01 1479.01 Q2015.84 1475.44 2015.84 1468.33 Q2015.84 1461.2 2014.01 1457.66 Q2012.21 1454.1 2008.58 1454.1 M2008.58 1450.39 Q2014.39 1450.39 2017.44 1455 Q2020.52 1459.58 2020.52 1468.33 Q2020.52 1477.06 2017.44 1481.67 Q2014.39 1486.25 2008.58 1486.25 Q2002.77 1486.25 1999.69 1481.67 Q1996.63 1477.06 1996.63 1468.33 Q1996.63 1459.58 1999.69 1455 Q2002.77 1450.39 2008.58 1450.39 Z" fill="#000000" fill-rule="nonzero" fill-opacity="1" /><path clip-path="url(#clip970)" d="M1172.7 1554.66 L1172.7 1552.63 L1174.44 1552.63 Q1178.15 1552.63 1178.99 1552.05 Q1179.85 1551.44 1179.85 1549.51 L1179.85 1514.76 Q1179.85 1512.86 1178.99 1512.28 Q1178.12 1511.67 1174.44 1511.67 L1172.7 1511.67 L1172.7 1509.6 Q1175.02 1509.8 1182.82 1509.8 Q1190.55 1509.8 1192.83 1509.6 L1192.83 1511.67 L1191.13 1511.67 Q1187.42 1511.67 1186.55 1512.28 Q1185.72 1512.86 1185.72 1514.76 L1185.72 1549.51 Q1185.72 1551.41 1186.55 1552.02 Q1187.42 1552.63 1191.13 1552.63 L1192.83 1552.63 L1192.83 1554.66 Q1190.51 1554.47 1182.75 1554.47 Q1175.02 1554.47 1172.7 1554.66 Z" fill="#000000" fill-rule="nonzero" fill-opacity="1" /><path clip-path="url(#clip970)" d="M1199.67 1573.4 L1199.67 1571.98 L1200.77 1571.98 Q1203.27 1571.98 1203.84 1571.58 Q1204.42 1571.15 1204.42 1569.8 L1204.42 1545.47 Q1204.42 1544.14 1203.84 1543.74 Q1203.25 1543.31 1200.77 1543.31 L1199.67 1543.31 L1199.67 1541.86 Q1201.29 1542 1206.68 1542 Q1212.76 1542 1214.43 1541.86 L1214.43 1543.31 L1212.9 1543.31 Q1210.78 1543.31 1209.81 1543.58 Q1208.84 1543.85 1208.68 1544.23 Q1208.53 1544.59 1208.53 1545.52 L1208.53 1570.13 Q1208.53 1571.33 1208.86 1571.67 Q1209.23 1571.98 1210.78 1571.98 L1214.57 1571.98 Q1216.91 1571.98 1218.6 1571.28 Q1220.29 1570.59 1221.2 1569.71 Q1222.1 1568.83 1222.68 1567.18 Q1223.29 1565.51 1223.47 1564.45 Q1223.68 1563.39 1223.86 1561.5 L1225.01 1561.5 L1223.72 1573.4 L1199.67 1573.4 Z" fill="#000000" fill-rule="nonzero" fill-opacity="1" /><path clip-path="url(#clip970)" d="M1249.23 1538.17 Q1249.23 1527.03 1253.38 1518.04 Q1255.15 1514.27 1257.63 1511.12 Q1260.11 1507.96 1261.76 1506.58 Q1263.4 1505.19 1263.85 1505.19 Q1264.49 1505.19 1264.53 1505.84 Q1264.53 1506.16 1263.66 1506.96 Q1253.03 1517.78 1253.06 1538.17 Q1253.06 1558.62 1263.4 1569.02 Q1264.53 1570.15 1264.53 1570.51 Q1264.53 1571.15 1263.85 1571.15 Q1263.4 1571.15 1261.82 1569.83 Q1260.24 1568.51 1257.8 1565.48 Q1255.35 1562.45 1253.58 1558.75 Q1249.23 1549.77 1249.23 1538.17 Z" fill="#000000" fill-rule="nonzero" fill-opacity="1" /><path clip-path="url(#clip970)" d="M1269.54 1554.66 L1269.54 1552.63 Q1273.05 1552.63 1273.86 1552.21 Q1274.66 1551.76 1274.66 1549.64 L1274.66 1531.96 Q1274.66 1529.51 1273.79 1528.9 Q1272.95 1528.28 1269.54 1528.28 L1269.54 1526.22 L1278.81 1525.51 L1278.81 1532.44 Q1281.91 1525.51 1288.57 1525.51 Q1296.3 1525.51 1297.37 1531.96 Q1298.49 1529.44 1300.84 1527.48 Q1303.23 1525.51 1306.93 1525.51 Q1311.89 1525.51 1313.85 1527.96 Q1315.3 1529.6 1315.59 1531.44 Q1315.88 1533.28 1315.88 1538.04 L1315.88 1550.63 Q1315.95 1552.02 1317.01 1552.34 Q1318.07 1552.63 1321.04 1552.63 L1321.04 1554.66 Q1314.31 1554.47 1313.66 1554.47 Q1313.15 1554.47 1306.19 1554.66 L1306.19 1552.63 Q1309.7 1552.63 1310.51 1552.21 Q1311.34 1551.76 1311.34 1549.64 L1311.34 1534.27 Q1311.34 1530.92 1310.31 1528.96 Q1309.28 1526.96 1306.45 1526.96 Q1303.03 1526.96 1300.3 1529.83 Q1297.56 1532.7 1297.56 1537.53 L1297.56 1549.64 Q1297.56 1551.76 1298.36 1552.21 Q1299.2 1552.63 1302.71 1552.63 L1302.71 1554.66 Q1295.98 1554.47 1295.3 1554.47 Q1294.79 1554.47 1287.86 1554.66 L1287.86 1552.63 Q1291.38 1552.63 1292.18 1552.21 Q1293.02 1551.76 1293.02 1549.64 L1293.02 1534.27 Q1293.02 1530.92 1291.99 1528.96 Q1290.96 1526.96 1288.12 1526.96 Q1284.71 1526.96 1281.97 1529.83 Q1279.23 1532.7 1279.23 1537.53 L1279.23 1549.64 Q1279.23 1551.76 1280.04 1552.21 Q1280.88 1552.63 1284.35 1552.63 L1284.35 1554.66 Q1277.62 1554.47 1276.98 1554.47 Q1276.46 1554.47 1269.54 1554.66 Z" fill="#000000" fill-rule="nonzero" fill-opacity="1" /><path clip-path="url(#clip970)" d="M1323.66 1554.66 L1323.66 1552.63 Q1329.52 1552.5 1331.04 1548.19 L1344.69 1508.77 Q1344.95 1507.96 1345.24 1507.7 Q1345.53 1507.45 1346.27 1507.45 Q1346.66 1507.45 1346.88 1507.51 Q1347.14 1507.58 1347.3 1507.8 Q1347.46 1508.03 1347.53 1508.16 Q1347.59 1508.28 1347.78 1508.77 L1362.02 1549.99 Q1362.54 1551.63 1363.6 1552.15 Q1364.66 1552.63 1367.66 1552.63 L1368.82 1552.63 L1368.82 1554.66 Q1364.66 1554.47 1360.18 1554.47 Q1353.07 1554.47 1350.68 1554.66 L1350.68 1552.63 Q1356.16 1552.63 1356.16 1550.63 Q1356.16 1550.51 1355.97 1549.7 L1352.49 1539.62 L1336.19 1539.62 L1333.13 1548.25 Q1333 1548.51 1333 1549.25 Q1333 1550.63 1334.29 1551.63 Q1335.58 1552.63 1337.96 1552.63 L1337.96 1554.66 Q1331.62 1554.47 1330.36 1554.47 Q1328.2 1554.47 1323.66 1554.66 M1336.9 1537.59 L1351.75 1537.59 L1344.31 1516.14 L1336.9 1537.59 Z" fill="#000000" fill-rule="nonzero" fill-opacity="1" /><path clip-path="url(#clip970)" d="M1374.24 1570.51 Q1374.24 1570.18 1375.08 1569.38 Q1385.71 1558.56 1385.71 1538.17 Q1385.71 1517.72 1375.5 1507.38 Q1374.24 1506.19 1374.24 1505.84 Q1374.24 1505.19 1374.89 1505.19 Q1375.34 1505.19 1376.92 1506.51 Q1378.53 1507.83 1380.94 1510.86 Q1383.39 1513.89 1385.19 1517.59 Q1389.54 1526.58 1389.54 1538.17 Q1389.54 1549.31 1385.39 1558.3 Q1383.61 1562.07 1381.13 1565.22 Q1378.65 1568.38 1377.01 1569.77 Q1375.37 1571.15 1374.89 1571.15 Q1374.24 1571.15 1374.24 1570.51 Z" fill="#000000" fill-rule="nonzero" fill-opacity="1" /><polyline clip-path="url(#clip970)" style="stroke:#000000; stroke-linecap:round; stroke-linejoin:round; stroke-width:4; stroke-opacity:1; fill:none" points="219.519,1423.18 219.519,123.472 "/>
<polyline clip-path="url(#clip970)" style="stroke:#000000; stroke-linecap:round; stroke-linejoin:round; stroke-width:4; stroke-opacity:1; fill:none" points="219.519,1302.89 238.417,1302.89 "/>
<polyline clip-path="url(#clip970)" style="stroke:#000000; stroke-linecap:round; stroke-linejoin:round; stroke-width:4; stroke-opacity:1; fill:none" points="219.519,1033.2 238.417,1033.2 "/>
<polyline clip-path="url(#clip970)" style="stroke:#000000; stroke-linecap:round; stroke-linejoin:round; stroke-width:4; stroke-opacity:1; fill:none" points="219.519,763.518 238.417,763.518 "/>
<polyline clip-path="url(#clip970)" style="stroke:#000000; stroke-linecap:round; stroke-linejoin:round; stroke-width:4; stroke-opacity:1; fill:none" points="219.519,493.831 238.417,493.831 "/>
<polyline clip-path="url(#clip970)" style="stroke:#000000; stroke-linecap:round; stroke-linejoin:round; stroke-width:4; stroke-opacity:1; fill:none" points="219.519,224.145 238.417,224.145 "/>
<path clip-path="url(#clip970)" d="M120.371 1316.24 L136.691 1316.24 L136.691 1320.17 L114.746 1320.17 L114.746 1316.24 Q117.408 1313.48 121.992 1308.85 Q126.598 1304.2 127.779 1302.86 Q130.024 1300.33 130.904 1298.6 Q131.806 1296.84 131.806 1295.15 Q131.806 1292.39 129.862 1290.66 Q127.941 1288.92 124.839 1288.92 Q122.64 1288.92 120.186 1289.68 Q117.756 1290.45 114.978 1292 L114.978 1287.28 Q117.802 1286.14 120.255 1285.56 Q122.709 1284.99 124.746 1284.99 Q130.117 1284.99 133.311 1287.67 Q136.505 1290.36 136.505 1294.85 Q136.505 1296.98 135.695 1298.9 Q134.908 1300.8 132.802 1303.39 Q132.223 1304.06 129.121 1307.28 Q126.019 1310.47 120.371 1316.24 Z" fill="#000000" fill-rule="nonzero" fill-opacity="1" /><path clip-path="url(#clip970)" d="M146.505 1314.29 L151.39 1314.29 L151.39 1320.17 L146.505 1320.17 L146.505 1314.29 Z" fill="#000000" fill-rule="nonzero" fill-opacity="1" /><path clip-path="url(#clip970)" d="M171.575 1288.69 Q167.964 1288.69 166.135 1292.25 Q164.329 1295.8 164.329 1302.93 Q164.329 1310.03 166.135 1313.6 Q167.964 1317.14 171.575 1317.14 Q175.209 1317.14 177.014 1313.6 Q178.843 1310.03 178.843 1302.93 Q178.843 1295.8 177.014 1292.25 Q175.209 1288.69 171.575 1288.69 M171.575 1284.99 Q177.385 1284.99 180.44 1289.59 Q183.519 1294.18 183.519 1302.93 Q183.519 1311.65 180.44 1316.26 Q177.385 1320.84 171.575 1320.84 Q165.765 1320.84 162.686 1316.26 Q159.63 1311.65 159.63 1302.93 Q159.63 1294.18 162.686 1289.59 Q165.765 1284.99 171.575 1284.99 Z" fill="#000000" fill-rule="nonzero" fill-opacity="1" /><path clip-path="url(#clip970)" d="M121.968 1046.55 L138.288 1046.55 L138.288 1050.48 L116.343 1050.48 L116.343 1046.55 Q119.006 1043.79 123.589 1039.16 Q128.195 1034.51 129.376 1033.17 Q131.621 1030.65 132.501 1028.91 Q133.404 1027.15 133.404 1025.46 Q133.404 1022.71 131.459 1020.97 Q129.538 1019.23 126.436 1019.23 Q124.237 1019.23 121.783 1020 Q119.353 1020.76 116.575 1022.31 L116.575 1017.59 Q119.399 1016.46 121.853 1015.88 Q124.306 1015.3 126.343 1015.3 Q131.714 1015.3 134.908 1017.98 Q138.103 1020.67 138.103 1025.16 Q138.103 1027.29 137.292 1029.21 Q136.505 1031.11 134.399 1033.7 Q133.82 1034.37 130.718 1037.59 Q127.617 1040.79 121.968 1046.55 Z" fill="#000000" fill-rule="nonzero" fill-opacity="1" /><path clip-path="url(#clip970)" d="M148.103 1044.6 L152.987 1044.6 L152.987 1050.48 L148.103 1050.48 L148.103 1044.6 Z" fill="#000000" fill-rule="nonzero" fill-opacity="1" /><path clip-path="url(#clip970)" d="M167.2 1046.55 L183.519 1046.55 L183.519 1050.48 L161.575 1050.48 L161.575 1046.55 Q164.237 1043.79 168.82 1039.16 Q173.427 1034.51 174.607 1033.17 Q176.852 1030.65 177.732 1028.91 Q178.635 1027.15 178.635 1025.46 Q178.635 1022.71 176.69 1020.97 Q174.769 1019.23 171.667 1019.23 Q169.468 1019.23 167.015 1020 Q164.584 1020.76 161.806 1022.31 L161.806 1017.59 Q164.63 1016.46 167.084 1015.88 Q169.538 1015.3 171.575 1015.3 Q176.945 1015.3 180.139 1017.98 Q183.334 1020.67 183.334 1025.16 Q183.334 1027.29 182.524 1029.21 Q181.737 1031.11 179.63 1033.7 Q179.051 1034.37 175.95 1037.59 Q172.848 1040.79 167.2 1046.55 Z" fill="#000000" fill-rule="nonzero" fill-opacity="1" /><path clip-path="url(#clip970)" d="M119.885 776.862 L136.204 776.862 L136.204 780.798 L114.26 780.798 L114.26 776.862 Q116.922 774.108 121.505 769.478 Q126.112 764.826 127.292 763.483 Q129.538 760.96 130.417 759.224 Q131.32 757.464 131.32 755.775 Q131.32 753.02 129.376 751.284 Q127.455 749.548 124.353 749.548 Q122.154 749.548 119.7 750.312 Q117.269 751.076 114.492 752.627 L114.492 747.904 Q117.316 746.77 119.769 746.191 Q122.223 745.613 124.26 745.613 Q129.63 745.613 132.825 748.298 Q136.019 750.983 136.019 755.474 Q136.019 757.603 135.209 759.525 Q134.422 761.423 132.316 764.015 Q131.737 764.687 128.635 767.904 Q125.533 771.099 119.885 776.862 Z" fill="#000000" fill-rule="nonzero" fill-opacity="1" /><path clip-path="url(#clip970)" d="M146.019 774.918 L150.903 774.918 L150.903 780.798 L146.019 780.798 L146.019 774.918 Z" fill="#000000" fill-rule="nonzero" fill-opacity="1" /><path clip-path="url(#clip970)" d="M173.936 750.312 L162.13 768.761 L173.936 768.761 L173.936 750.312 M172.709 746.238 L178.589 746.238 L178.589 768.761 L183.519 768.761 L183.519 772.65 L178.589 772.65 L178.589 780.798 L173.936 780.798 L173.936 772.65 L158.334 772.65 L158.334 768.136 L172.709 746.238 Z" fill="#000000" fill-rule="nonzero" fill-opacity="1" /><path clip-path="url(#clip970)" d="M120.209 507.176 L136.529 507.176 L136.529 511.111 L114.584 511.111 L114.584 507.176 Q117.246 504.421 121.83 499.792 Q126.436 495.139 127.617 493.796 Q129.862 491.273 130.742 489.537 Q131.644 487.778 131.644 486.088 Q131.644 483.334 129.7 481.597 Q127.779 479.861 124.677 479.861 Q122.478 479.861 120.024 480.625 Q117.593 481.389 114.816 482.94 L114.816 478.218 Q117.64 477.084 120.093 476.505 Q122.547 475.926 124.584 475.926 Q129.955 475.926 133.149 478.611 Q136.343 481.297 136.343 485.787 Q136.343 487.917 135.533 489.838 Q134.746 491.736 132.64 494.329 Q132.061 495 128.959 498.218 Q125.857 501.412 120.209 507.176 Z" fill="#000000" fill-rule="nonzero" fill-opacity="1" /><path clip-path="url(#clip970)" d="M146.343 505.232 L151.228 505.232 L151.228 511.111 L146.343 511.111 L146.343 505.232 Z" fill="#000000" fill-rule="nonzero" fill-opacity="1" /><path clip-path="url(#clip970)" d="M171.991 491.968 Q168.843 491.968 166.991 494.121 Q165.163 496.273 165.163 500.023 Q165.163 503.75 166.991 505.926 Q168.843 508.079 171.991 508.079 Q175.139 508.079 176.968 505.926 Q178.82 503.75 178.82 500.023 Q178.82 496.273 176.968 494.121 Q175.139 491.968 171.991 491.968 M181.274 477.315 L181.274 481.574 Q179.514 480.741 177.709 480.301 Q175.926 479.861 174.167 479.861 Q169.538 479.861 167.084 482.986 Q164.653 486.111 164.306 492.431 Q165.672 490.417 167.732 489.352 Q169.792 488.264 172.269 488.264 Q177.477 488.264 180.487 491.435 Q183.519 494.583 183.519 500.023 Q183.519 505.347 180.371 508.565 Q177.223 511.782 171.991 511.782 Q165.996 511.782 162.825 507.199 Q159.653 502.593 159.653 493.866 Q159.653 485.671 163.542 480.81 Q167.431 475.926 173.982 475.926 Q175.741 475.926 177.524 476.273 Q179.329 476.621 181.274 477.315 Z" fill="#000000" fill-rule="nonzero" fill-opacity="1" /><path clip-path="url(#clip970)" d="M120.464 237.49 L136.783 237.49 L136.783 241.425 L114.839 241.425 L114.839 237.49 Q117.501 234.735 122.084 230.105 Q126.691 225.453 127.871 224.11 Q130.117 221.587 130.996 219.851 Q131.899 218.091 131.899 216.402 Q131.899 213.647 129.955 211.911 Q128.033 210.175 124.931 210.175 Q122.732 210.175 120.279 210.939 Q117.848 211.703 115.07 213.254 L115.07 208.531 Q117.894 207.397 120.348 206.818 Q122.802 206.24 124.839 206.24 Q130.209 206.24 133.404 208.925 Q136.598 211.61 136.598 216.101 Q136.598 218.23 135.788 220.152 Q135.001 222.05 132.894 224.642 Q132.316 225.314 129.214 228.531 Q126.112 231.726 120.464 237.49 Z" fill="#000000" fill-rule="nonzero" fill-opacity="1" /><path clip-path="url(#clip970)" d="M146.598 235.545 L151.482 235.545 L151.482 241.425 L146.598 241.425 L146.598 235.545 Z" fill="#000000" fill-rule="nonzero" fill-opacity="1" /><path clip-path="url(#clip970)" d="M171.667 225.013 Q168.334 225.013 166.413 226.795 Q164.515 228.578 164.515 231.703 Q164.515 234.827 166.413 236.61 Q168.334 238.392 171.667 238.392 Q175.001 238.392 176.922 236.61 Q178.843 234.804 178.843 231.703 Q178.843 228.578 176.922 226.795 Q175.024 225.013 171.667 225.013 M166.991 223.022 Q163.982 222.281 162.292 220.221 Q160.626 218.161 160.626 215.198 Q160.626 211.054 163.565 208.647 Q166.528 206.24 171.667 206.24 Q176.829 206.24 179.769 208.647 Q182.709 211.054 182.709 215.198 Q182.709 218.161 181.019 220.221 Q179.352 222.281 176.366 223.022 Q179.746 223.809 181.621 226.101 Q183.519 228.392 183.519 231.703 Q183.519 236.726 180.44 239.411 Q177.385 242.096 171.667 242.096 Q165.95 242.096 162.871 239.411 Q159.815 236.726 159.815 231.703 Q159.815 228.392 161.714 226.101 Q163.612 223.809 166.991 223.022 M165.278 215.638 Q165.278 218.323 166.945 219.828 Q168.635 221.332 171.667 221.332 Q174.677 221.332 176.366 219.828 Q178.079 218.323 178.079 215.638 Q178.079 212.953 176.366 211.448 Q174.677 209.943 171.667 209.943 Q168.635 209.943 166.945 211.448 Q165.278 212.953 165.278 215.638 Z" fill="#000000" fill-rule="nonzero" fill-opacity="1" /><path clip-path="url(#clip970)" d="M66.0841 882.739 L64.0551 882.739 L64.0551 881 Q64.0551 877.296 63.4754 876.459 Q62.8635 875.589 60.9312 875.589 L26.181 875.589 Q24.2809 875.589 23.7012 876.459 Q23.0893 877.328 23.0893 881 L23.0893 882.739 L21.0281 882.739 Q21.2213 880.42 21.2213 872.626 Q21.2213 864.897 21.0281 862.61 L23.0893 862.61 L23.0893 864.317 Q23.0893 868.021 23.7012 868.891 Q24.2809 869.728 26.181 869.728 L60.9312 869.728 Q62.8313 869.728 63.4432 868.891 Q64.0551 868.021 64.0551 864.317 L64.0551 862.61 L66.0841 862.61 Q65.8909 864.929 65.8909 872.691 Q65.8909 880.42 66.0841 882.739 Z" fill="#000000" fill-rule="nonzero" fill-opacity="1" /><path clip-path="url(#clip970)" d="M77.2625 855.777 Q76.9469 855.777 76.4284 855.349 L59.0243 842.476 L59.0243 847.729 Q59.0243 851.381 60.377 852.576 Q61.7071 853.748 65.4494 853.974 L65.4494 855.123 L58.0098 854.605 L58.0098 839.839 Q58.0098 839.32 58.0324 839.117 Q58.0549 838.914 58.2127 838.779 Q58.348 838.644 58.6185 838.644 Q58.8891 838.644 59.4076 839.049 L76.7665 851.9 L76.7665 846.444 Q76.7665 842.611 75.1659 841.326 Q73.5653 840.019 69.2819 839.703 L69.2819 838.553 L77.9163 839.343 L77.9163 854.56 Q77.9163 855.304 77.8261 855.552 Q77.7134 855.777 77.2625 855.777 Z" fill="#000000" fill-rule="nonzero" fill-opacity="1" /><path clip-path="url(#clip970)" d="M49.5947 814.255 Q38.4515 814.255 29.466 810.1 Q25.6979 808.329 22.5418 805.849 Q19.3856 803.369 18.0007 801.727 Q16.6159 800.084 16.6159 799.633 Q16.6159 798.989 17.26 798.957 Q17.5821 798.957 18.3872 799.827 Q29.2084 810.454 49.5947 810.422 Q70.0454 810.422 80.4479 800.084 Q81.5751 798.957 81.9294 798.957 Q82.5735 798.957 82.5735 799.633 Q82.5735 800.084 81.2531 801.662 Q79.9326 803.24 76.9053 805.688 Q73.8779 808.136 70.1742 809.907 Q61.1888 814.255 49.5947 814.255 Z" fill="#000000" fill-rule="nonzero" fill-opacity="1" /><path clip-path="url(#clip970)" d="M66.0841 793.943 L64.0551 793.943 Q64.0551 790.433 63.6364 789.628 Q63.1856 788.823 61.06 788.823 L43.379 788.823 Q40.9313 788.823 40.3194 789.692 Q39.7075 790.53 39.7075 793.943 L37.6463 793.943 L36.9378 784.668 L43.8621 784.668 Q36.9378 781.576 36.9378 774.91 Q36.9378 767.18 43.379 766.117 Q40.8669 764.99 38.9023 762.639 Q36.9378 760.256 36.9378 756.552 Q36.9378 751.593 39.3854 749.628 Q41.0279 748.179 42.8637 747.889 Q44.6994 747.599 49.4659 747.599 L62.0584 747.599 Q63.4432 747.535 63.7653 746.472 Q64.0551 745.409 64.0551 742.446 L66.0841 742.446 Q65.8909 749.177 65.8909 749.821 Q65.8909 750.337 66.0841 757.293 L64.0551 757.293 Q64.0551 753.783 63.6364 752.977 Q63.1856 752.14 61.06 752.14 L45.6978 752.14 Q42.3484 752.14 40.3838 753.171 Q38.3871 754.201 38.3871 757.035 Q38.3871 760.449 41.2534 763.187 Q44.1197 765.924 48.9506 765.924 L61.06 765.924 Q63.1856 765.924 63.6364 765.119 Q64.0551 764.282 64.0551 760.771 L66.0841 760.771 Q65.8909 767.502 65.8909 768.179 Q65.8909 768.694 66.0841 775.618 L64.0551 775.618 Q64.0551 772.108 63.6364 771.303 Q63.1856 770.465 61.06 770.465 L45.6978 770.465 Q42.3484 770.465 40.3838 771.496 Q38.3871 772.526 38.3871 775.361 Q38.3871 778.774 41.2534 781.512 Q44.1197 784.249 48.9506 784.249 L61.06 784.249 Q63.1856 784.249 63.6364 783.444 Q64.0551 782.607 64.0551 779.129 L66.0841 779.129 Q65.8909 785.86 65.8909 786.504 Q65.8909 787.019 66.0841 793.943 Z" fill="#000000" fill-rule="nonzero" fill-opacity="1" /><path clip-path="url(#clip970)" d="M66.0841 739.82 L64.0551 739.82 Q63.9263 733.959 59.6107 732.445 L20.1907 718.79 Q19.3856 718.532 19.1279 718.242 Q18.8703 717.953 18.8703 717.212 Q18.8703 716.825 18.9347 716.6 Q18.9991 716.342 19.2246 716.181 Q19.45 716.02 19.5788 715.956 Q19.7077 715.891 20.1907 715.698 L61.4142 701.463 Q63.0567 700.948 63.572 699.885 Q64.0551 698.822 64.0551 695.827 L64.0551 694.668 L66.0841 694.668 Q65.8909 698.822 65.8909 703.299 Q65.8909 710.416 66.0841 712.8 L64.0551 712.8 Q64.0551 707.325 62.0584 707.325 Q61.9295 707.325 61.1244 707.518 L51.044 710.996 L51.044 727.292 L59.6751 730.352 Q59.9328 730.481 60.6735 730.481 Q62.0584 730.481 63.0567 729.192 Q64.0551 727.904 64.0551 725.521 L66.0841 725.521 Q65.8909 731.866 65.8909 733.122 Q65.8909 735.279 66.0841 739.82 M49.015 726.584 L49.015 711.737 L27.5659 719.176 L49.015 726.584 Z" fill="#000000" fill-rule="nonzero" fill-opacity="1" /><path clip-path="url(#clip970)" d="M81.9294 689.24 Q81.6073 689.24 80.8022 688.403 Q69.981 677.775 49.5947 677.775 Q29.144 677.775 18.8059 687.984 Q17.6143 689.24 17.26 689.24 Q16.6159 689.24 16.6159 688.596 Q16.6159 688.145 17.9363 686.567 Q19.2568 684.957 22.2841 682.541 Q25.3115 680.094 29.0151 678.29 Q38.0006 673.943 49.5947 673.943 Q60.7379 673.943 69.7234 678.097 Q73.4914 679.868 76.6476 682.348 Q79.8038 684.828 81.1886 686.471 Q82.5735 688.113 82.5735 688.596 Q82.5735 689.24 81.9294 689.24 Z" fill="#000000" fill-rule="nonzero" fill-opacity="1" /><path clip-path="url(#clip970)" d="M1046.98 71.3484 L1046.98 68.7661 L1049.19 68.7661 Q1053.9 68.7661 1054.97 68.0283 Q1056.08 67.2495 1056.08 64.7901 L1056.08 20.5627 Q1056.08 18.1443 1054.97 17.4065 Q1053.86 16.6277 1049.19 16.6277 L1046.98 16.6277 L1046.98 14.0044 Q1049.93 14.2503 1059.85 14.2503 Q1069.68 14.2503 1072.6 14.0044 L1072.6 16.6277 L1070.42 16.6277 Q1065.71 16.6277 1064.6 17.4065 Q1063.54 18.1443 1063.54 20.5627 L1063.54 64.7901 Q1063.54 67.2085 1064.6 67.9873 Q1065.71 68.7661 1070.42 68.7661 L1072.6 68.7661 L1072.6 71.3484 Q1069.64 71.1025 1059.77 71.1025 Q1049.93 71.1025 1046.98 71.3484 Z" fill="#000000" fill-rule="nonzero" fill-opacity="1" /><path clip-path="url(#clip970)" d="M1081.3 94.1989 Q1081.3 93.6824 1081.7 93.0225 L1104.57 56.8986 L1095.33 56.8986 Q1091.8 56.8986 1089.47 57.702 Q1087.15 58.4767 1085.92 60.1696 Q1084.68 61.8337 1084.19 63.6987 Q1083.71 65.5351 1083.53 68.2895 L1082.04 68.2895 L1082.7 55.0623 L1109.01 55.0623 Q1109.53 55.0623 1109.73 55.0623 Q1109.96 55.0623 1110.19 55.1771 Q1110.42 55.2918 1110.48 55.4927 Q1110.56 55.6648 1110.56 56.0091 Q1110.56 56.4682 1110.13 57.1282 L1087.35 93.1946 L1096.99 93.1946 Q1100.18 93.1946 1102.39 92.5347 Q1104.62 91.8461 1105.91 90.8131 Q1107.21 89.7515 1107.95 87.8291 Q1108.73 85.9067 1108.98 84.1278 Q1109.27 82.3202 1109.44 79.5083 L1110.91 79.5083 L1109.9 95.2031 L1082.82 95.2031 Q1081.81 95.2031 1081.55 95.0596 Q1081.3 94.9162 1081.3 94.1989 Z" fill="#000000" fill-rule="nonzero" fill-opacity="1" /><path clip-path="url(#clip970)" d="M1141.76 37.7782 L1141.76 35.1549 Q1145.53 35.4008 1149.92 35.4008 Q1151.52 35.4008 1159.06 35.1549 L1159.06 37.7782 Q1154.26 37.7782 1154.26 39.9506 Q1154.26 40.2785 1154.75 41.3852 L1164.18 64.7901 L1172.75 43.3937 Q1173.24 41.9591 1173.24 41.3852 Q1173.24 39.9506 1172.26 38.9259 Q1171.31 37.8602 1169.22 37.7782 L1169.22 35.1549 Q1173.49 35.4008 1176.52 35.4008 Q1179.96 35.4008 1182.79 35.1549 L1182.79 37.7782 Q1180.29 37.7782 1178.53 38.9259 Q1176.77 40.0326 1176.19 41.0163 Q1175.66 41.9591 1175.09 43.3937 L1164.1 70.6926 Q1163.44 72.2912 1162.34 72.2912 Q1161.6 72.2912 1161.27 71.9632 Q1160.98 71.6763 1160.57 70.6926 L1148.48 40.8934 Q1147.66 38.8029 1146.6 38.311 Q1145.53 37.7782 1141.76 37.7782 Z" fill="#000000" fill-rule="nonzero" fill-opacity="1" /><path clip-path="url(#clip970)" d="M1187.55 70.2417 L1187.55 59.1746 Q1187.55 58.2318 1187.59 57.9039 Q1187.63 57.576 1187.88 57.3301 Q1188.12 57.0841 1188.61 57.0841 Q1189.19 57.0841 1189.39 57.3301 Q1189.64 57.576 1189.8 58.5188 Q1191.07 64.2983 1193.78 67.3724 Q1196.53 70.4057 1201.49 70.4057 Q1206.2 70.4057 1208.58 68.3152 Q1210.95 66.2247 1210.95 62.7816 Q1210.95 56.6333 1202.22 55.0757 Q1197.18 54.0509 1195.09 53.3951 Q1193 52.6983 1191.16 51.1817 Q1187.55 48.2305 1187.55 44.0495 Q1187.55 39.8686 1190.71 36.7944 Q1193.9 33.7202 1200.95 33.7202 Q1205.67 33.7202 1208.86 36.0976 Q1209.81 35.3598 1210.3 34.745 Q1211.4 33.7202 1211.98 33.7202 Q1212.63 33.7202 1212.76 34.1711 Q1212.88 34.581 1212.88 35.7697 L1212.88 44.2135 Q1212.88 45.1563 1212.84 45.4842 Q1212.8 45.8121 1212.55 46.058 Q1212.31 46.263 1211.77 46.263 Q1210.83 46.263 1210.79 45.4842 Q1210.13 35.3188 1200.95 35.3188 Q1195.99 35.3188 1193.78 37.2453 Q1191.57 39.1308 1191.57 41.7132 Q1191.57 43.1478 1192.22 44.2545 Q1192.92 45.3202 1193.78 45.976 Q1194.68 46.5909 1196.32 47.2057 Q1197.96 47.7796 1198.94 47.9845 Q1199.97 48.1895 1201.9 48.5994 Q1208.62 49.87 1211.45 52.6163 Q1214.97 56.1414 1214.97 60.6092 Q1214.97 65.5689 1211.61 68.93 Q1208.25 72.2912 1201.49 72.2912 Q1196.03 72.2912 1192.22 68.6431 Q1191.73 69.135 1191.36 69.5859 Q1190.99 69.9958 1190.83 70.1597 Q1190.71 70.3237 1190.66 70.4466 Q1190.62 70.5286 1190.54 70.6106 Q1188.86 72.2912 1188.45 72.2912 Q1187.79 72.2912 1187.67 71.8403 Q1187.55 71.4304 1187.55 70.2417 Z" fill="#000000" fill-rule="nonzero" fill-opacity="1" /><path clip-path="url(#clip970)" d="M1221.54 69.9958 Q1220.27 68.6431 1220.27 66.8806 Q1220.27 65.118 1221.54 63.8474 Q1222.81 62.5357 1224.74 62.5357 Q1226.58 62.5357 1227.81 63.7654 Q1229.08 64.9541 1229.08 66.9216 Q1229.08 68.8481 1227.73 70.1187 Q1226.42 71.3484 1224.74 71.3484 Q1222.81 71.3484 1221.54 69.9958 Z" fill="#000000" fill-rule="nonzero" fill-opacity="1" /><path clip-path="url(#clip970)" d="M1256.68 71.3484 L1256.68 68.7661 L1258.89 68.7661 Q1263.6 68.7661 1264.67 68.0283 Q1265.78 67.2495 1265.78 64.7901 L1265.78 20.5627 Q1265.78 18.1443 1264.67 17.4065 Q1263.56 16.6277 1258.89 16.6277 L1256.68 16.6277 L1256.68 14.0044 Q1259.63 14.2503 1269.55 14.2503 Q1279.39 14.2503 1282.3 14.0044 L1282.3 16.6277 L1280.12 16.6277 Q1275.41 16.6277 1274.3 17.4065 Q1273.24 18.1443 1273.24 20.5627 L1273.24 64.7901 Q1273.24 67.2085 1274.3 67.9873 Q1275.41 68.7661 1280.12 68.7661 L1282.3 68.7661 L1282.3 71.3484 Q1279.34 71.1025 1269.47 71.1025 Q1259.63 71.1025 1256.68 71.3484 Z" fill="#000000" fill-rule="nonzero" fill-opacity="1" /><path clip-path="url(#clip970)" d="M1291 95.2031 L1291 93.3955 L1292.4 93.3955 Q1295.59 93.3955 1296.3 92.879 Q1297.05 92.3338 1297.05 90.6123 L1297.05 59.6531 Q1297.05 57.9602 1296.3 57.4438 Q1295.56 56.8986 1292.4 56.8986 L1291 56.8986 L1291 55.0623 Q1293.06 55.2344 1299.92 55.2344 Q1307.67 55.2344 1309.79 55.0623 L1309.79 56.8986 L1307.84 56.8986 Q1305.14 56.8986 1303.91 57.2429 Q1302.67 57.5872 1302.47 58.075 Q1302.27 58.5341 1302.27 59.7105 L1302.27 91.0427 Q1302.27 92.5634 1302.7 92.9938 Q1303.16 93.3955 1305.14 93.3955 L1309.96 93.3955 Q1312.95 93.3955 1315.1 92.506 Q1317.25 91.6165 1318.4 90.4975 Q1319.55 89.3785 1320.29 87.284 Q1321.07 85.1607 1321.3 83.8122 Q1321.55 82.4636 1321.78 80.0535 L1323.25 80.0535 L1321.61 95.2031 L1291 95.2031 Z" fill="#000000" fill-rule="nonzero" fill-opacity="1" /><path clip-path="url(#clip970)" d="M1376.26 85.0388 Q1380.72 85.0388 1381.75 84.465 Q1382.81 83.9321 1382.81 81.2678 L1382.81 41.9591 Q1382.81 39.1718 1381.75 38.475 Q1380.72 37.7782 1376.26 37.7782 L1376.26 35.1549 L1388.35 34.2531 L1388.35 39.7867 Q1393.39 34.2531 1400.11 34.2531 Q1407.24 34.2531 1412.45 39.7867 Q1417.66 45.3202 1417.66 53.2311 Q1417.66 61.2241 1412.12 66.7576 Q1406.59 72.2912 1398.92 72.2912 Q1394.74 72.2912 1391.91 70.1597 Q1389.13 67.9873 1388.59 66.3887 L1388.59 67.1675 L1388.59 81.2678 Q1388.59 83.9731 1389.66 84.506 Q1390.73 85.0388 1395.15 85.0388 L1395.15 87.6211 Q1386.34 87.3752 1385.68 87.3752 Q1384.86 87.3752 1376.26 87.6211 L1376.26 85.0388 M1388.59 61.7979 Q1388.59 63.0686 1388.76 63.5195 Q1388.96 63.9703 1389.78 65.323 Q1393.1 70.4057 1398.51 70.4057 Q1398.55 70.4057 1398.6 70.4057 Q1403.39 70.4057 1407.04 65.5279 Q1410.69 60.6092 1410.69 53.2311 Q1410.69 46.181 1407.37 41.2623 Q1404.05 36.3436 1399.46 36.3436 Q1396.18 36.3436 1393.31 38.1061 Q1390.44 39.8686 1388.59 43.0658 L1388.59 61.7979 Z" fill="#000000" fill-rule="nonzero" fill-opacity="1" /><path clip-path="url(#clip970)" d="M1429.09 71.3484 L1429.09 68.7661 Q1433.56 68.7661 1434.59 68.2332 Q1435.61 67.6594 1435.61 64.9541 L1435.61 21.3005 Q1435.61 18.1853 1434.5 17.4065 Q1433.44 16.6277 1429.09 16.6277 L1429.09 14.0044 L1441.14 13.1026 L1441.14 64.9541 Q1441.14 67.6594 1442.21 68.2332 Q1443.28 68.7661 1447.7 68.7661 L1447.7 71.3484 Q1446.68 71.3484 1444.55 71.2664 Q1442.42 71.1844 1440.86 71.1435 Q1439.3 71.1025 1438.4 71.1025 Q1437.41 71.1025 1429.09 71.3484 Z" fill="#000000" fill-rule="nonzero" fill-opacity="1" /><path clip-path="url(#clip970)" d="M1460.33 66.8396 Q1454.8 61.347 1454.8 53.3951 Q1454.8 45.4022 1460.21 39.5817 Q1465.66 33.7202 1473.45 33.7202 Q1481.07 33.7202 1486.53 39.5407 Q1492.02 45.3202 1492.02 53.3951 Q1492.02 61.306 1486.48 66.7986 Q1480.99 72.2912 1473.37 72.2912 Q1465.91 72.2912 1460.33 66.8396 M1461.77 52.6983 Q1461.77 60.8552 1463.9 64.5442 Q1467.18 70.1597 1473.45 70.1597 Q1476.56 70.1597 1479.15 68.4792 Q1481.77 66.7986 1483.21 63.9703 Q1485.05 60.2813 1485.05 52.6983 Q1485.05 44.6234 1482.84 41.0573 Q1479.56 35.6058 1473.37 35.6058 Q1470.66 35.6058 1468 37.0404 Q1465.37 38.434 1463.78 41.2213 Q1461.77 44.9103 1461.77 52.6983 Z" fill="#000000" fill-rule="nonzero" fill-opacity="1" /><path clip-path="url(#clip970)" d="M1493.06 37.7782 L1493.06 35.9337 Q1496.92 35.7697 1499.46 33.0644 Q1502.04 30.3181 1502.9 26.957 Q1503.8 23.5959 1503.89 19.7019 L1505.98 19.7019 L1505.98 35.1549 L1517.99 35.1549 L1517.99 37.7782 L1505.98 37.7782 L1505.98 61.1011 Q1505.98 70.1597 1511.63 70.1597 Q1514.05 70.1597 1515.65 67.7004 Q1517.25 65.2 1517.25 60.7732 L1517.25 56.1414 L1519.34 56.1414 L1519.34 60.9371 Q1519.34 65.4869 1517.25 68.889 Q1515.16 72.2912 1511.02 72.2912 Q1509.5 72.2912 1507.99 71.8813 Q1506.51 71.5124 1504.54 70.5286 Q1502.62 69.5039 1501.39 67.0445 Q1500.2 64.5442 1500.2 60.9371 L1500.2 37.7782 L1493.06 37.7782 Z" fill="#000000" fill-rule="nonzero" fill-opacity="1" /><circle clip-path="url(#clip972)" cx="279.894" cy="183.692" r="14.4" fill="#0000ff" fill-rule="evenodd" fill-opacity="1" stroke="#000000" stroke-opacity="1" stroke-width="3.2"/>
<circle clip-path="url(#clip972)" cx="520.517" cy="251.113" r="14.4" fill="#0000ff" fill-rule="evenodd" fill-opacity="1" stroke="#000000" stroke-opacity="1" stroke-width="3.2"/>
<circle clip-path="url(#clip972)" cx="695.516" cy="332.019" r="14.4" fill="#0000ff" fill-rule="evenodd" fill-opacity="1" stroke="#000000" stroke-opacity="1" stroke-width="3.2"/>
<circle clip-path="url(#clip972)" cx="804.89" cy="385.957" r="14.4" fill="#0000ff" fill-rule="evenodd" fill-opacity="1" stroke="#000000" stroke-opacity="1" stroke-width="3.2"/>
<circle clip-path="url(#clip972)" cx="695.516" cy="453.378" r="14.4" fill="#0000ff" fill-rule="evenodd" fill-opacity="1" stroke="#000000" stroke-opacity="1" stroke-width="3.2"/>
<circle clip-path="url(#clip972)" cx="783.016" cy="561.253" r="14.4" fill="#0000ff" fill-rule="evenodd" fill-opacity="1" stroke="#000000" stroke-opacity="1" stroke-width="3.2"/>
<circle clip-path="url(#clip972)" cx="1001.76" cy="642.159" r="14.4" fill="#0000ff" fill-rule="evenodd" fill-opacity="1" stroke="#000000" stroke-opacity="1" stroke-width="3.2"/>
<circle clip-path="url(#clip972)" cx="1264.26" cy="682.612" r="14.4" fill="#0000ff" fill-rule="evenodd" fill-opacity="1" stroke="#000000" stroke-opacity="1" stroke-width="3.2"/>
<circle clip-path="url(#clip972)" cx="1198.64" cy="763.518" r="14.4" fill="#0000ff" fill-rule="evenodd" fill-opacity="1" stroke="#000000" stroke-opacity="1" stroke-width="3.2"/>
<circle clip-path="url(#clip972)" cx="1351.76" cy="830.939" r="14.4" fill="#0000ff" fill-rule="evenodd" fill-opacity="1" stroke="#000000" stroke-opacity="1" stroke-width="3.2"/>
<circle clip-path="url(#clip972)" cx="1461.14" cy="925.33" r="14.4" fill="#0000ff" fill-rule="evenodd" fill-opacity="1" stroke="#000000" stroke-opacity="1" stroke-width="3.2"/>
<circle clip-path="url(#clip972)" cx="1570.51" cy="992.751" r="14.4" fill="#0000ff" fill-rule="evenodd" fill-opacity="1" stroke="#000000" stroke-opacity="1" stroke-width="3.2"/>
<circle clip-path="url(#clip972)" cx="1767.38" cy="1033.2" r="14.4" fill="#0000ff" fill-rule="evenodd" fill-opacity="1" stroke="#000000" stroke-opacity="1" stroke-width="3.2"/>
<circle clip-path="url(#clip972)" cx="1854.88" cy="1073.66" r="14.4" fill="#0000ff" fill-rule="evenodd" fill-opacity="1" stroke="#000000" stroke-opacity="1" stroke-width="3.2"/>
<circle clip-path="url(#clip972)" cx="1942.38" cy="1127.59" r="14.4" fill="#0000ff" fill-rule="evenodd" fill-opacity="1" stroke="#000000" stroke-opacity="1" stroke-width="3.2"/>
<circle clip-path="url(#clip972)" cx="1986.13" cy="1208.5" r="14.4" fill="#0000ff" fill-rule="evenodd" fill-opacity="1" stroke="#000000" stroke-opacity="1" stroke-width="3.2"/>
<circle clip-path="url(#clip972)" cx="1854.88" cy="1248.95" r="14.4" fill="#0000ff" fill-rule="evenodd" fill-opacity="1" stroke="#000000" stroke-opacity="1" stroke-width="3.2"/>
<circle clip-path="url(#clip972)" cx="2292.38" cy="1329.86" r="14.4" fill="#0000ff" fill-rule="evenodd" fill-opacity="1" stroke="#000000" stroke-opacity="1" stroke-width="3.2"/>
<polyline clip-path="url(#clip972)" style="stroke:#ff0000; stroke-linecap:round; stroke-linejoin:round; stroke-width:8; stroke-opacity:1; fill:none" stroke-dasharray="32, 20" points="279.894,160.256 520.517,306.86 695.516,413.481 804.89,480.119 695.516,413.481 783.016,466.791 1001.76,600.067 1264.26,759.998 1198.64,720.016 1351.76,813.309 1461.14,879.947 1570.51,946.585 1767.38,1066.53 1854.88,1119.84 1942.38,1173.15 1986.13,1199.81 1854.88,1119.84 2292.38,1386.4 "/>
<path clip-path="url(#clip970)" d="M1804.62 322.316 L2281.65 322.316 L2281.65 166.796 L1804.62 166.796  Z" fill="#ffffff" fill-rule="evenodd" fill-opacity="1"/>
<polyline clip-path="url(#clip970)" style="stroke:#000000; stroke-linecap:round; stroke-linejoin:round; stroke-width:4; stroke-opacity:1; fill:none" points="1804.62,322.316 2281.65,322.316 2281.65,166.796 1804.62,166.796 1804.62,322.316 "/>
<circle clip-path="url(#clip970)" cx="1899.43" cy="218.636" r="20.48" fill="#0000ff" fill-rule="evenodd" fill-opacity="1" stroke="#000000" stroke-opacity="1" stroke-width="4.55111"/>
<path clip-path="url(#clip970)" d="M1998.92 205.198 L1998.92 232.073 L2004.57 232.073 Q2011.72 232.073 2015.03 228.832 Q2018.36 225.592 2018.36 218.601 Q2018.36 211.657 2015.03 208.439 Q2011.72 205.198 2004.57 205.198 L1998.92 205.198 M1994.24 201.356 L2003.85 201.356 Q2013.9 201.356 2018.59 205.546 Q2023.29 209.712 2023.29 218.601 Q2023.29 227.536 2018.57 231.726 Q2013.85 235.916 2003.85 235.916 L1994.24 235.916 L1994.24 201.356 Z" fill="#000000" fill-rule="nonzero" fill-opacity="1" /><path clip-path="url(#clip970)" d="M2042.34 222.883 Q2037.18 222.883 2035.19 224.064 Q2033.2 225.244 2033.2 228.092 Q2033.2 230.36 2034.68 231.703 Q2036.19 233.022 2038.76 233.022 Q2042.3 233.022 2044.43 230.522 Q2046.58 227.999 2046.58 223.832 L2046.58 222.883 L2042.34 222.883 M2050.84 221.124 L2050.84 235.916 L2046.58 235.916 L2046.58 231.981 Q2045.12 234.342 2042.95 235.476 Q2040.77 236.587 2037.62 236.587 Q2033.64 236.587 2031.28 234.365 Q2028.94 232.119 2028.94 228.369 Q2028.94 223.994 2031.86 221.772 Q2034.8 219.55 2040.61 219.55 L2046.58 219.55 L2046.58 219.133 Q2046.58 216.194 2044.64 214.596 Q2042.72 212.976 2039.22 212.976 Q2037 212.976 2034.89 213.508 Q2032.78 214.041 2030.84 215.106 L2030.84 211.17 Q2033.18 210.268 2035.38 209.828 Q2037.58 209.365 2039.66 209.365 Q2045.28 209.365 2048.06 212.282 Q2050.84 215.198 2050.84 221.124 Z" fill="#000000" fill-rule="nonzero" fill-opacity="1" /><path clip-path="url(#clip970)" d="M2063.83 202.629 L2063.83 209.99 L2072.6 209.99 L2072.6 213.3 L2063.83 213.3 L2063.83 227.374 Q2063.83 230.545 2064.68 231.448 Q2065.56 232.351 2068.22 232.351 L2072.6 232.351 L2072.6 235.916 L2068.22 235.916 Q2063.29 235.916 2061.42 234.087 Q2059.54 232.235 2059.54 227.374 L2059.54 213.3 L2056.42 213.3 L2056.42 209.99 L2059.54 209.99 L2059.54 202.629 L2063.83 202.629 Z" fill="#000000" fill-rule="nonzero" fill-opacity="1" /><path clip-path="url(#clip970)" d="M2089.98 222.883 Q2084.82 222.883 2082.83 224.064 Q2080.84 225.244 2080.84 228.092 Q2080.84 230.36 2082.32 231.703 Q2083.83 233.022 2086.4 233.022 Q2089.94 233.022 2092.07 230.522 Q2094.22 227.999 2094.22 223.832 L2094.22 222.883 L2089.98 222.883 M2098.48 221.124 L2098.48 235.916 L2094.22 235.916 L2094.22 231.981 Q2092.76 234.342 2090.59 235.476 Q2088.41 236.587 2085.26 236.587 Q2081.28 236.587 2078.92 234.365 Q2076.58 232.119 2076.58 228.369 Q2076.58 223.994 2079.5 221.772 Q2082.44 219.55 2088.25 219.55 L2094.22 219.55 L2094.22 219.133 Q2094.22 216.194 2092.27 214.596 Q2090.35 212.976 2086.86 212.976 Q2084.64 212.976 2082.53 213.508 Q2080.42 214.041 2078.48 215.106 L2078.48 211.17 Q2080.82 210.268 2083.02 209.828 Q2085.21 209.365 2087.3 209.365 Q2092.92 209.365 2095.7 212.282 Q2098.48 215.198 2098.48 221.124 Z" fill="#000000" fill-rule="nonzero" fill-opacity="1" /><path clip-path="url(#clip970)" d="M2127.18 205.198 L2127.18 218.184 L2133.06 218.184 Q2136.33 218.184 2138.11 216.495 Q2139.89 214.805 2139.89 211.68 Q2139.89 208.578 2138.11 206.888 Q2136.33 205.198 2133.06 205.198 L2127.18 205.198 M2122.51 201.356 L2133.06 201.356 Q2138.87 201.356 2141.83 203.995 Q2144.82 206.61 2144.82 211.68 Q2144.82 216.795 2141.83 219.411 Q2138.87 222.027 2133.06 222.027 L2127.18 222.027 L2127.18 235.916 L2122.51 235.916 L2122.51 201.356 Z" fill="#000000" fill-rule="nonzero" fill-opacity="1" /><path clip-path="url(#clip970)" d="M2159.27 212.976 Q2155.84 212.976 2153.85 215.661 Q2151.86 218.323 2151.86 222.976 Q2151.86 227.629 2153.83 230.314 Q2155.82 232.976 2159.27 232.976 Q2162.67 232.976 2164.66 230.291 Q2166.65 227.606 2166.65 222.976 Q2166.65 218.37 2164.66 215.684 Q2162.67 212.976 2159.27 212.976 M2159.27 209.365 Q2164.82 209.365 2167.99 212.976 Q2171.16 216.587 2171.16 222.976 Q2171.16 229.342 2167.99 232.976 Q2164.82 236.587 2159.27 236.587 Q2153.69 236.587 2150.52 232.976 Q2147.37 229.342 2147.37 222.976 Q2147.37 216.587 2150.52 212.976 Q2153.69 209.365 2159.27 209.365 Z" fill="#000000" fill-rule="nonzero" fill-opacity="1" /><path clip-path="url(#clip970)" d="M2178.22 209.99 L2182.48 209.99 L2182.48 235.916 L2178.22 235.916 L2178.22 209.99 M2178.22 199.897 L2182.48 199.897 L2182.48 205.291 L2178.22 205.291 L2178.22 199.897 Z" fill="#000000" fill-rule="nonzero" fill-opacity="1" /><path clip-path="url(#clip970)" d="M2212.95 220.268 L2212.95 235.916 L2208.69 235.916 L2208.69 220.407 Q2208.69 216.726 2207.25 214.897 Q2205.82 213.069 2202.95 213.069 Q2199.5 213.069 2197.51 215.268 Q2195.52 217.467 2195.52 221.263 L2195.52 235.916 L2191.23 235.916 L2191.23 209.99 L2195.52 209.99 L2195.52 214.018 Q2197.04 211.68 2199.1 210.522 Q2201.19 209.365 2203.89 209.365 Q2208.36 209.365 2210.65 212.143 Q2212.95 214.897 2212.95 220.268 Z" fill="#000000" fill-rule="nonzero" fill-opacity="1" /><path clip-path="url(#clip970)" d="M2225.65 202.629 L2225.65 209.99 L2234.43 209.99 L2234.43 213.3 L2225.65 213.3 L2225.65 227.374 Q2225.65 230.545 2226.51 231.448 Q2227.39 232.351 2230.05 232.351 L2234.43 232.351 L2234.43 235.916 L2230.05 235.916 Q2225.12 235.916 2223.25 234.087 Q2221.37 232.235 2221.37 227.374 L2221.37 213.3 L2218.25 213.3 L2218.25 209.99 L2221.37 209.99 L2221.37 202.629 L2225.65 202.629 Z" fill="#000000" fill-rule="nonzero" fill-opacity="1" /><path clip-path="url(#clip970)" d="M2256.56 210.754 L2256.56 214.782 Q2254.75 213.856 2252.81 213.393 Q2250.86 212.93 2248.78 212.93 Q2245.61 212.93 2244.01 213.902 Q2242.44 214.874 2242.44 216.819 Q2242.44 218.3 2243.57 219.157 Q2244.7 219.99 2248.13 220.754 L2249.59 221.078 Q2254.13 222.05 2256.02 223.832 Q2257.95 225.592 2257.95 228.763 Q2257.95 232.374 2255.08 234.481 Q2252.23 236.587 2247.23 236.587 Q2245.14 236.587 2242.88 236.17 Q2240.63 235.777 2238.13 234.967 L2238.13 230.569 Q2240.49 231.795 2242.78 232.42 Q2245.08 233.022 2247.32 233.022 Q2250.33 233.022 2251.95 232.004 Q2253.57 230.962 2253.57 229.087 Q2253.57 227.351 2252.39 226.425 Q2251.23 225.499 2247.27 224.643 L2245.79 224.295 Q2241.83 223.462 2240.08 221.749 Q2238.32 220.013 2238.32 217.004 Q2238.32 213.346 2240.91 211.356 Q2243.5 209.365 2248.27 209.365 Q2250.63 209.365 2252.71 209.712 Q2254.8 210.059 2256.56 210.754 Z" fill="#000000" fill-rule="nonzero" fill-opacity="1" /><polyline clip-path="url(#clip970)" style="stroke:#ff0000; stroke-linecap:round; stroke-linejoin:round; stroke-width:8; stroke-opacity:1; fill:none" stroke-dasharray="32, 20" points="1828.32,270.476 1970.54,270.476 "/>
<path clip-path="url(#clip970)" d="M1994.24 253.196 L1998.92 253.196 L1998.92 283.821 L2015.75 283.821 L2015.75 287.756 L1994.24 287.756 L1994.24 253.196 Z" fill="#000000" fill-rule="nonzero" fill-opacity="1" /><path clip-path="url(#clip970)" d="M2020.47 261.83 L2024.73 261.83 L2024.73 287.756 L2020.47 287.756 L2020.47 261.83 M2020.47 251.737 L2024.73 251.737 L2024.73 257.131 L2020.47 257.131 L2020.47 251.737 Z" fill="#000000" fill-rule="nonzero" fill-opacity="1" /><path clip-path="url(#clip970)" d="M2055.19 272.108 L2055.19 287.756 L2050.93 287.756 L2050.93 272.247 Q2050.93 268.566 2049.5 266.737 Q2048.06 264.909 2045.19 264.909 Q2041.74 264.909 2039.75 267.108 Q2037.76 269.307 2037.76 273.103 L2037.76 287.756 L2033.48 287.756 L2033.48 261.83 L2037.76 261.83 L2037.76 265.858 Q2039.29 263.52 2041.35 262.362 Q2043.43 261.205 2046.14 261.205 Q2050.61 261.205 2052.9 263.983 Q2055.19 266.737 2055.19 272.108 Z" fill="#000000" fill-rule="nonzero" fill-opacity="1" /><path clip-path="url(#clip970)" d="M2085.86 273.728 L2085.86 275.811 L2066.28 275.811 Q2066.56 280.209 2068.92 282.524 Q2071.3 284.816 2075.54 284.816 Q2077.99 284.816 2080.28 284.214 Q2082.6 283.612 2084.87 282.409 L2084.87 286.436 Q2082.58 287.408 2080.17 287.918 Q2077.76 288.427 2075.28 288.427 Q2069.08 288.427 2065.45 284.816 Q2061.84 281.205 2061.84 275.047 Q2061.84 268.682 2065.26 264.955 Q2068.71 261.205 2074.54 261.205 Q2079.78 261.205 2082.81 264.585 Q2085.86 267.941 2085.86 273.728 M2081.6 272.478 Q2081.56 268.983 2079.64 266.899 Q2077.74 264.816 2074.59 264.816 Q2071.03 264.816 2068.87 266.83 Q2066.74 268.844 2066.42 272.501 L2081.6 272.478 Z" fill="#000000" fill-rule="nonzero" fill-opacity="1" /><path clip-path="url(#clip970)" d="M2104.64 274.723 Q2099.47 274.723 2097.48 275.904 Q2095.49 277.084 2095.49 279.932 Q2095.49 282.2 2096.97 283.543 Q2098.48 284.862 2101.05 284.862 Q2104.59 284.862 2106.72 282.362 Q2108.87 279.839 2108.87 275.672 L2108.87 274.723 L2104.64 274.723 M2113.13 272.964 L2113.13 287.756 L2108.87 287.756 L2108.87 283.821 Q2107.41 286.182 2105.24 287.316 Q2103.06 288.427 2099.91 288.427 Q2095.93 288.427 2093.57 286.205 Q2091.23 283.959 2091.23 280.209 Q2091.23 275.834 2094.15 273.612 Q2097.09 271.39 2102.9 271.39 L2108.87 271.39 L2108.87 270.973 Q2108.87 268.034 2106.93 266.436 Q2105.01 264.816 2101.51 264.816 Q2099.29 264.816 2097.18 265.348 Q2095.08 265.881 2093.13 266.946 L2093.13 263.01 Q2095.47 262.108 2097.67 261.668 Q2099.87 261.205 2101.95 261.205 Q2107.58 261.205 2110.35 264.122 Q2113.13 267.038 2113.13 272.964 Z" fill="#000000" fill-rule="nonzero" fill-opacity="1" /><path clip-path="url(#clip970)" d="M2136.93 265.811 Q2136.21 265.395 2135.35 265.21 Q2134.52 265.001 2133.5 265.001 Q2129.89 265.001 2127.95 267.362 Q2126.02 269.7 2126.02 274.098 L2126.02 287.756 L2121.74 287.756 L2121.74 261.83 L2126.02 261.83 L2126.02 265.858 Q2127.37 263.497 2129.52 262.362 Q2131.67 261.205 2134.75 261.205 Q2135.19 261.205 2135.72 261.274 Q2136.26 261.321 2136.9 261.436 L2136.93 265.811 Z" fill="#000000" fill-rule="nonzero" fill-opacity="1" /><path clip-path="url(#clip970)" d="M2156.65 253.196 L2176.51 253.196 L2176.51 257.131 L2161.33 257.131 L2161.33 267.316 L2175.03 267.316 L2175.03 271.251 L2161.33 271.251 L2161.33 287.756 L2156.65 287.756 L2156.65 253.196 Z" fill="#000000" fill-rule="nonzero" fill-opacity="1" /><path clip-path="url(#clip970)" d="M2180.28 261.83 L2184.54 261.83 L2184.54 287.756 L2180.28 287.756 L2180.28 261.83 M2180.28 251.737 L2184.54 251.737 L2184.54 257.131 L2180.28 257.131 L2180.28 251.737 Z" fill="#000000" fill-rule="nonzero" fill-opacity="1" /><path clip-path="url(#clip970)" d="M2197.67 254.469 L2197.67 261.83 L2206.44 261.83 L2206.44 265.14 L2197.67 265.14 L2197.67 279.214 Q2197.67 282.385 2198.52 283.288 Q2199.4 284.191 2202.07 284.191 L2206.44 284.191 L2206.44 287.756 L2202.07 287.756 Q2197.14 287.756 2195.26 285.927 Q2193.39 284.075 2193.39 279.214 L2193.39 265.14 L2190.26 265.14 L2190.26 261.83 L2193.39 261.83 L2193.39 254.469 L2197.67 254.469 Z" fill="#000000" fill-rule="nonzero" fill-opacity="1" /><g clip-path="url(#clip970)">
<text style="fill:#000000; fill-opacity:1; font-family:Century Gothic,CenturyGothic,AppleGothic,sans-serif; font-size:83px; text-anchor:middle;" transform="rotate(0, 1986.13, 524.331)" x="1986.13" y="524.331">Slope of linear fit:</text>
</g>
<g clip-path="url(#clip970)">
<text style="fill:#000000; fill-opacity:1; font-family:Century Gothic,CenturyGothic,AppleGothic,sans-serif; font-size:83px; text-anchor:middle;" transform="rotate(0, 1986.13, 659.174)" x="1986.13" y="659.174">-0.988 0.09</text>
</g>
</svg>
