<?xml version="1.0" encoding="utf-8"?>
<svg xmlns="http://www.w3.org/2000/svg" xmlns:xlink="http://www.w3.org/1999/xlink" width="600" height="400" viewBox="0 0 2400 1600">
<defs>
  <clipPath id="clip870">
    <rect x="0" y="0" width="2400" height="1600"/>
  </clipPath>
</defs>
<path clip-path="url(#clip870)" d="M0 1600 L2400 1600 L2400 0 L0 0  Z" fill="#ffffff" fill-rule="evenodd" fill-opacity="1"/>
<defs>
  <clipPath id="clip871">
    <rect x="480" y="0" width="1681" height="1600"/>
  </clipPath>
</defs>
<path clip-path="url(#clip870)" d="M219.38 1423.18 L2352.76 1423.18 L2352.76 123.472 L219.38 123.472  Z" fill="#ffffff" fill-rule="evenodd" fill-opacity="1"/>
<defs>
  <clipPath id="clip872">
    <rect x="219" y="123" width="2134" height="1301"/>
  </clipPath>
</defs>
<polyline clip-path="url(#clip872)" style="stroke:#000000; stroke-linecap:round; stroke-linejoin:round; stroke-width:2; stroke-opacity:0.1; fill:none" points="279.759,1423.18 279.759,123.472 "/>
<polyline clip-path="url(#clip872)" style="stroke:#000000; stroke-linecap:round; stroke-linejoin:round; stroke-width:2; stroke-opacity:0.1; fill:none" points="950.632,1423.18 950.632,123.472 "/>
<polyline clip-path="url(#clip872)" style="stroke:#000000; stroke-linecap:round; stroke-linejoin:round; stroke-width:2; stroke-opacity:0.1; fill:none" points="1621.5,1423.18 1621.5,123.472 "/>
<polyline clip-path="url(#clip872)" style="stroke:#000000; stroke-linecap:round; stroke-linejoin:round; stroke-width:2; stroke-opacity:0.1; fill:none" points="2292.38,1423.18 2292.38,123.472 "/>
<polyline clip-path="url(#clip872)" style="stroke:#000000; stroke-linecap:round; stroke-linejoin:round; stroke-width:2; stroke-opacity:0.1; fill:none" points="219.38,1328.01 2352.76,1328.01 "/>
<polyline clip-path="url(#clip872)" style="stroke:#000000; stroke-linecap:round; stroke-linejoin:round; stroke-width:2; stroke-opacity:0.1; fill:none" points="219.38,1036.07 2352.76,1036.07 "/>
<polyline clip-path="url(#clip872)" style="stroke:#000000; stroke-linecap:round; stroke-linejoin:round; stroke-width:2; stroke-opacity:0.1; fill:none" points="219.38,744.132 2352.76,744.132 "/>
<polyline clip-path="url(#clip872)" style="stroke:#000000; stroke-linecap:round; stroke-linejoin:round; stroke-width:2; stroke-opacity:0.1; fill:none" points="219.38,452.194 2352.76,452.194 "/>
<polyline clip-path="url(#clip872)" style="stroke:#000000; stroke-linecap:round; stroke-linejoin:round; stroke-width:2; stroke-opacity:0.1; fill:none" points="219.38,160.256 2352.76,160.256 "/>
<polyline clip-path="url(#clip870)" style="stroke:#000000; stroke-linecap:round; stroke-linejoin:round; stroke-width:4; stroke-opacity:1; fill:none" points="219.38,1423.18 2352.76,1423.18 "/>
<polyline clip-path="url(#clip870)" style="stroke:#000000; stroke-linecap:round; stroke-linejoin:round; stroke-width:4; stroke-opacity:1; fill:none" points="279.759,1423.18 279.759,1404.28 "/>
<polyline clip-path="url(#clip870)" style="stroke:#000000; stroke-linecap:round; stroke-linejoin:round; stroke-width:4; stroke-opacity:1; fill:none" points="950.632,1423.18 950.632,1404.28 "/>
<polyline clip-path="url(#clip870)" style="stroke:#000000; stroke-linecap:round; stroke-linejoin:round; stroke-width:4; stroke-opacity:1; fill:none" points="1621.5,1423.18 1621.5,1404.28 "/>
<polyline clip-path="url(#clip870)" style="stroke:#000000; stroke-linecap:round; stroke-linejoin:round; stroke-width:4; stroke-opacity:1; fill:none" points="2292.38,1423.18 2292.38,1404.28 "/>
<path clip-path="url(#clip870)" d="M279.759 1454.1 Q276.148 1454.1 274.319 1457.66 Q272.513 1461.2 272.513 1468.33 Q272.513 1475.44 274.319 1479.01 Q276.148 1482.55 279.759 1482.55 Q283.393 1482.55 285.199 1479.01 Q287.027 1475.44 287.027 1468.33 Q287.027 1461.2 285.199 1457.66 Q283.393 1454.1 279.759 1454.1 M279.759 1450.39 Q285.569 1450.39 288.624 1455 Q291.703 1459.58 291.703 1468.33 Q291.703 1477.06 288.624 1481.67 Q285.569 1486.25 279.759 1486.25 Q273.949 1486.25 270.87 1481.67 Q267.814 1477.06 267.814 1468.33 Q267.814 1459.58 270.87 1455 Q273.949 1450.39 279.759 1450.39 Z" fill="#000000" fill-rule="nonzero" fill-opacity="1" /><path clip-path="url(#clip870)" d="M940.909 1451.02 L959.266 1451.02 L959.266 1454.96 L945.192 1454.96 L945.192 1463.43 Q946.21 1463.08 947.229 1462.92 Q948.247 1462.73 949.266 1462.73 Q955.053 1462.73 958.432 1465.9 Q961.812 1469.08 961.812 1474.49 Q961.812 1480.07 958.34 1483.17 Q954.868 1486.25 948.548 1486.25 Q946.372 1486.25 944.104 1485.88 Q941.858 1485.51 939.451 1484.77 L939.451 1480.07 Q941.534 1481.2 943.757 1481.76 Q945.979 1482.32 948.456 1482.32 Q952.46 1482.32 954.798 1480.21 Q957.136 1478.1 957.136 1474.49 Q957.136 1470.88 954.798 1468.77 Q952.46 1466.67 948.456 1466.67 Q946.581 1466.67 944.706 1467.08 Q942.854 1467.5 940.909 1468.38 L940.909 1451.02 Z" fill="#000000" fill-rule="nonzero" fill-opacity="1" /><path clip-path="url(#clip870)" d="M1596.19 1481.64 L1603.83 1481.64 L1603.83 1455.28 L1595.52 1456.95 L1595.52 1452.69 L1603.78 1451.02 L1608.46 1451.02 L1608.46 1481.64 L1616.1 1481.64 L1616.1 1485.58 L1596.19 1485.58 L1596.19 1481.64 Z" fill="#000000" fill-rule="nonzero" fill-opacity="1" /><path clip-path="url(#clip870)" d="M1635.54 1454.1 Q1631.93 1454.1 1630.1 1457.66 Q1628.3 1461.2 1628.3 1468.33 Q1628.3 1475.44 1630.1 1479.01 Q1631.93 1482.55 1635.54 1482.55 Q1639.18 1482.55 1640.98 1479.01 Q1642.81 1475.44 1642.81 1468.33 Q1642.81 1461.2 1640.98 1457.66 Q1639.18 1454.1 1635.54 1454.1 M1635.54 1450.39 Q1641.35 1450.39 1644.41 1455 Q1647.49 1459.58 1647.49 1468.33 Q1647.49 1477.06 1644.41 1481.67 Q1641.35 1486.25 1635.54 1486.25 Q1629.73 1486.25 1626.65 1481.67 Q1623.6 1477.06 1623.6 1468.33 Q1623.6 1459.58 1626.65 1455 Q1629.73 1450.39 1635.54 1450.39 Z" fill="#000000" fill-rule="nonzero" fill-opacity="1" /><path clip-path="url(#clip870)" d="M2267.56 1481.64 L2275.2 1481.64 L2275.2 1455.28 L2266.89 1456.95 L2266.89 1452.69 L2275.16 1451.02 L2279.83 1451.02 L2279.83 1481.64 L2287.47 1481.64 L2287.47 1485.58 L2267.56 1485.58 L2267.56 1481.64 Z" fill="#000000" fill-rule="nonzero" fill-opacity="1" /><path clip-path="url(#clip870)" d="M2296.96 1451.02 L2315.32 1451.02 L2315.32 1454.96 L2301.24 1454.96 L2301.24 1463.43 Q2302.26 1463.08 2303.28 1462.92 Q2304.3 1462.73 2305.32 1462.73 Q2311.1 1462.73 2314.48 1465.9 Q2317.86 1469.08 2317.86 1474.49 Q2317.86 1480.07 2314.39 1483.17 Q2310.92 1486.25 2304.6 1486.25 Q2302.42 1486.25 2300.16 1485.88 Q2297.91 1485.51 2295.5 1484.77 L2295.5 1480.07 Q2297.59 1481.2 2299.81 1481.76 Q2302.03 1482.32 2304.51 1482.32 Q2308.51 1482.32 2310.85 1480.21 Q2313.19 1478.1 2313.19 1474.49 Q2313.19 1470.88 2310.85 1468.77 Q2308.51 1466.67 2304.51 1466.67 Q2302.63 1466.67 2300.76 1467.08 Q2298.91 1467.5 2296.96 1468.38 L2296.96 1451.02 Z" fill="#000000" fill-rule="nonzero" fill-opacity="1" /><path clip-path="url(#clip870)" d="M1218.69 1509.88 Q1218.63 1511.08 1217.82 1511.14 Q1216.6 1511.21 1215.86 1511.37 Q1215.12 1511.49 1213.96 1511.98 Q1212.8 1512.46 1211.67 1513.62 Q1210.54 1514.78 1209.39 1516.62 L1185.65 1554.39 Q1185.23 1555.1 1184.88 1555.33 Q1184.55 1555.58 1183.81 1555.58 Q1183.14 1555.58 1182.88 1555.29 Q1182.62 1555.04 1182.49 1554.07 L1177.28 1513.36 Q1177.18 1512.62 1177.08 1512.3 Q1176.99 1511.98 1176.6 1511.66 Q1176.25 1511.33 1175.47 1511.24 Q1174.7 1511.14 1173.31 1511.14 Q1172.67 1511.14 1172.38 1511.11 Q1172.12 1511.08 1171.9 1510.92 Q1171.67 1510.72 1171.67 1510.34 Q1171.67 1509.76 1171.9 1509.47 Q1172.16 1509.14 1172.35 1509.11 Q1172.57 1509.08 1172.93 1509.08 Q1173.48 1509.08 1174.67 1509.14 Q1175.86 1509.21 1176.47 1509.21 Q1177.05 1509.21 1178.27 1509.24 Q1179.5 1509.27 1180.11 1509.27 Q1181.46 1509.27 1184.2 1509.18 Q1186.97 1509.08 1188.29 1509.08 Q1189.19 1509.08 1189.19 1509.82 Q1189.19 1510.72 1188.81 1510.95 Q1188.42 1511.14 1187.55 1511.14 Q1185.36 1511.14 1184.17 1511.69 Q1183.01 1512.24 1183.01 1513.11 L1187.49 1548.02 L1207.74 1515.81 Q1208.74 1514.3 1208.74 1513.3 Q1208.74 1511.37 1205.68 1511.14 Q1204.65 1511.14 1204.65 1510.34 Q1204.65 1509.76 1204.91 1509.47 Q1205.17 1509.14 1205.36 1509.11 Q1205.58 1509.08 1205.91 1509.08 Q1206.97 1509.08 1209.13 1509.18 Q1211.32 1509.27 1212.41 1509.27 Q1213.31 1509.27 1215.15 1509.18 Q1216.99 1509.08 1217.82 1509.08 Q1218.69 1509.08 1218.69 1509.88 Z" fill="#000000" fill-rule="nonzero" fill-opacity="1" /><path clip-path="url(#clip870)" d="M1225.27 1573.93 L1225.27 1572.51 Q1227.73 1572.51 1228.3 1572.21 Q1228.86 1571.9 1228.86 1570.41 L1228.86 1557.99 Q1228.86 1556.28 1228.27 1555.87 Q1227.71 1555.46 1225.45 1555.46 L1225.45 1554.02 L1231.9 1553.53 L1231.9 1570.46 Q1231.9 1571.83 1232.4 1572.17 Q1232.89 1572.51 1235.15 1572.51 L1235.15 1573.93 Q1230.44 1573.79 1230.35 1573.79 Q1229.72 1573.79 1225.27 1573.93 M1227.21 1545.48 Q1227.21 1544.55 1227.91 1543.81 Q1228.63 1543.04 1229.65 1543.04 Q1230.66 1543.04 1231.38 1543.74 Q1232.11 1544.42 1232.11 1545.5 Q1232.11 1546.56 1231.38 1547.26 Q1230.66 1547.93 1229.65 1547.93 Q1228.59 1547.93 1227.89 1547.19 Q1227.21 1546.45 1227.21 1545.48 Z" fill="#000000" fill-rule="nonzero" fill-opacity="1" /><path clip-path="url(#clip870)" d="M1238.3 1573.93 L1238.3 1572.51 Q1240.76 1572.51 1241.33 1572.21 Q1241.89 1571.9 1241.89 1570.41 L1241.89 1558.03 Q1241.89 1556.32 1241.28 1555.89 Q1240.69 1555.46 1238.3 1555.46 L1238.3 1554.02 L1244.8 1553.53 L1244.8 1558.37 Q1246.96 1553.53 1251.63 1553.53 Q1255.1 1553.53 1256.48 1555.24 Q1257.49 1556.39 1257.69 1557.67 Q1257.92 1558.96 1257.92 1562.3 L1257.92 1571.11 Q1257.96 1572.08 1258.71 1572.31 Q1259.45 1572.51 1261.53 1572.51 L1261.53 1573.93 Q1256.81 1573.79 1256.34 1573.79 Q1255.98 1573.79 1251.13 1573.93 L1251.13 1572.51 Q1253.59 1572.51 1254.15 1572.21 Q1254.74 1571.9 1254.74 1570.41 L1254.74 1559.66 Q1254.74 1557.31 1254.02 1555.94 Q1253.3 1554.54 1251.31 1554.54 Q1248.92 1554.54 1247.01 1556.55 Q1245.09 1558.55 1245.09 1561.93 L1245.09 1570.41 Q1245.09 1571.9 1245.65 1572.21 Q1246.24 1572.51 1248.67 1572.51 L1248.67 1573.93 Q1243.96 1573.79 1243.51 1573.79 Q1243.15 1573.79 1238.3 1573.93 Z" fill="#000000" fill-rule="nonzero" fill-opacity="1" /><path clip-path="url(#clip870)" d="M1288.14 1537.65 Q1288.14 1526.5 1292.3 1517.52 Q1294.07 1513.75 1296.55 1510.59 Q1299.03 1507.44 1300.67 1506.05 Q1302.31 1504.67 1302.76 1504.67 Q1303.41 1504.67 1303.44 1505.31 Q1303.44 1505.63 1302.57 1506.44 Q1291.94 1517.26 1291.97 1537.65 Q1291.97 1558.1 1302.31 1568.5 Q1303.44 1569.63 1303.44 1569.98 Q1303.44 1570.62 1302.76 1570.62 Q1302.31 1570.62 1300.73 1569.3 Q1299.16 1567.98 1296.71 1564.96 Q1294.26 1561.93 1292.49 1558.23 Q1288.14 1549.24 1288.14 1537.65 Z" fill="#000000" fill-rule="nonzero" fill-opacity="1" /><path clip-path="url(#clip870)" d="M1310.83 1511.14 L1310.83 1509.08 Q1317.95 1509.27 1319.2 1509.27 Q1326.26 1509.27 1328.64 1509.08 L1328.64 1511.14 Q1323.23 1511.14 1323.23 1513.04 Q1323.23 1513.3 1323.61 1514.23 L1336.21 1547.53 L1348.28 1515.75 Q1348.61 1514.75 1348.61 1514.43 Q1348.61 1513.11 1347.38 1512.17 Q1346.19 1511.21 1343.81 1511.14 L1343.81 1509.08 Q1348.96 1509.27 1351.31 1509.27 Q1354.66 1509.27 1357.72 1509.08 L1357.72 1511.14 Q1352.18 1511.21 1350.54 1515.55 L1335.82 1554.33 Q1335.56 1555.13 1335.31 1555.36 Q1335.05 1555.58 1334.24 1555.58 Q1333.6 1555.58 1333.24 1555.33 Q1332.92 1555.07 1332.6 1554.14 L1317.3 1513.65 Q1316.66 1511.88 1315.5 1511.53 Q1314.34 1511.14 1310.83 1511.14 Z" fill="#000000" fill-rule="nonzero" fill-opacity="1" /><path clip-path="url(#clip870)" d="M1375.14 1569.98 Q1375.14 1569.66 1375.97 1568.85 Q1386.6 1558.03 1386.6 1537.65 Q1386.6 1517.2 1376.39 1506.86 Q1375.14 1505.67 1375.14 1505.31 Q1375.14 1504.67 1375.78 1504.67 Q1376.23 1504.67 1377.81 1505.99 Q1379.42 1507.31 1381.84 1510.34 Q1384.28 1513.36 1386.09 1517.07 Q1390.43 1526.05 1390.43 1537.65 Q1390.43 1548.79 1386.28 1557.77 Q1384.51 1561.54 1382.03 1564.7 Q1379.55 1567.86 1377.91 1569.24 Q1376.26 1570.62 1375.78 1570.62 Q1375.14 1570.62 1375.14 1569.98 Z" fill="#000000" fill-rule="nonzero" fill-opacity="1" /><polyline clip-path="url(#clip870)" style="stroke:#000000; stroke-linecap:round; stroke-linejoin:round; stroke-width:4; stroke-opacity:1; fill:none" points="219.38,1423.18 219.38,123.472 "/>
<polyline clip-path="url(#clip870)" style="stroke:#000000; stroke-linecap:round; stroke-linejoin:round; stroke-width:4; stroke-opacity:1; fill:none" points="219.38,1328.01 238.278,1328.01 "/>
<polyline clip-path="url(#clip870)" style="stroke:#000000; stroke-linecap:round; stroke-linejoin:round; stroke-width:4; stroke-opacity:1; fill:none" points="219.38,1036.07 238.278,1036.07 "/>
<polyline clip-path="url(#clip870)" style="stroke:#000000; stroke-linecap:round; stroke-linejoin:round; stroke-width:4; stroke-opacity:1; fill:none" points="219.38,744.132 238.278,744.132 "/>
<polyline clip-path="url(#clip870)" style="stroke:#000000; stroke-linecap:round; stroke-linejoin:round; stroke-width:4; stroke-opacity:1; fill:none" points="219.38,452.194 238.278,452.194 "/>
<polyline clip-path="url(#clip870)" style="stroke:#000000; stroke-linecap:round; stroke-linejoin:round; stroke-width:4; stroke-opacity:1; fill:none" points="219.38,160.256 238.278,160.256 "/>
<path clip-path="url(#clip870)" d="M126.205 1313.81 Q122.593 1313.81 120.765 1317.37 Q118.959 1320.91 118.959 1328.04 Q118.959 1335.15 120.765 1338.71 Q122.593 1342.26 126.205 1342.26 Q129.839 1342.26 131.644 1338.71 Q133.473 1335.15 133.473 1328.04 Q133.473 1320.91 131.644 1317.37 Q129.839 1313.81 126.205 1313.81 M126.205 1310.1 Q132.015 1310.1 135.07 1314.71 Q138.149 1319.29 138.149 1328.04 Q138.149 1336.77 135.07 1341.38 Q132.015 1345.96 126.205 1345.96 Q120.394 1345.96 117.316 1341.38 Q114.26 1336.77 114.26 1328.04 Q114.26 1319.29 117.316 1314.71 Q120.394 1310.1 126.205 1310.1 Z" fill="#000000" fill-rule="nonzero" fill-opacity="1" /><path clip-path="url(#clip870)" d="M146.366 1339.41 L151.251 1339.41 L151.251 1345.29 L146.366 1345.29 L146.366 1339.41 Z" fill="#000000" fill-rule="nonzero" fill-opacity="1" /><path clip-path="url(#clip870)" d="M171.436 1313.81 Q167.825 1313.81 165.996 1317.37 Q164.19 1320.91 164.19 1328.04 Q164.19 1335.15 165.996 1338.71 Q167.825 1342.26 171.436 1342.26 Q175.07 1342.26 176.876 1338.71 Q178.704 1335.15 178.704 1328.04 Q178.704 1320.91 176.876 1317.37 Q175.07 1313.81 171.436 1313.81 M171.436 1310.1 Q177.246 1310.1 180.301 1314.71 Q183.38 1319.29 183.38 1328.04 Q183.38 1336.77 180.301 1341.38 Q177.246 1345.96 171.436 1345.96 Q165.626 1345.96 162.547 1341.38 Q159.491 1336.77 159.491 1328.04 Q159.491 1319.29 162.547 1314.71 Q165.626 1310.1 171.436 1310.1 Z" fill="#000000" fill-rule="nonzero" fill-opacity="1" /><path clip-path="url(#clip870)" d="M127.2 1021.87 Q123.589 1021.87 121.76 1025.43 Q119.955 1028.98 119.955 1036.1 Q119.955 1043.21 121.76 1046.78 Q123.589 1050.32 127.2 1050.32 Q130.834 1050.32 132.64 1046.78 Q134.468 1043.21 134.468 1036.1 Q134.468 1028.98 132.64 1025.43 Q130.834 1021.87 127.2 1021.87 M127.2 1018.17 Q133.01 1018.17 136.066 1022.77 Q139.144 1027.35 139.144 1036.1 Q139.144 1044.83 136.066 1049.44 Q133.01 1054.02 127.2 1054.02 Q121.39 1054.02 118.311 1049.44 Q115.256 1044.83 115.256 1036.1 Q115.256 1027.35 118.311 1022.77 Q121.39 1018.17 127.2 1018.17 Z" fill="#000000" fill-rule="nonzero" fill-opacity="1" /><path clip-path="url(#clip870)" d="M147.362 1047.47 L152.246 1047.47 L152.246 1053.35 L147.362 1053.35 L147.362 1047.47 Z" fill="#000000" fill-rule="nonzero" fill-opacity="1" /><path clip-path="url(#clip870)" d="M162.477 1018.79 L180.834 1018.79 L180.834 1022.73 L166.76 1022.73 L166.76 1031.2 Q167.778 1030.85 168.797 1030.69 Q169.815 1030.5 170.834 1030.5 Q176.621 1030.5 180.001 1033.67 Q183.38 1036.85 183.38 1042.26 Q183.38 1047.84 179.908 1050.94 Q176.436 1054.02 170.116 1054.02 Q167.94 1054.02 165.672 1053.65 Q163.427 1053.28 161.019 1052.54 L161.019 1047.84 Q163.102 1048.98 165.325 1049.53 Q167.547 1050.09 170.024 1050.09 Q174.028 1050.09 176.366 1047.98 Q178.704 1045.87 178.704 1042.26 Q178.704 1038.65 176.366 1036.54 Q174.028 1034.44 170.024 1034.44 Q168.149 1034.44 166.274 1034.85 Q164.422 1035.27 162.477 1036.15 L162.477 1018.79 Z" fill="#000000" fill-rule="nonzero" fill-opacity="1" /><path clip-path="url(#clip870)" d="M117.015 757.477 L124.654 757.477 L124.654 731.111 L116.343 732.778 L116.343 728.519 L124.607 726.852 L129.283 726.852 L129.283 757.477 L136.922 757.477 L136.922 761.412 L117.015 761.412 L117.015 757.477 Z" fill="#000000" fill-rule="nonzero" fill-opacity="1" /><path clip-path="url(#clip870)" d="M146.366 755.533 L151.251 755.533 L151.251 761.412 L146.366 761.412 L146.366 755.533 Z" fill="#000000" fill-rule="nonzero" fill-opacity="1" /><path clip-path="url(#clip870)" d="M171.436 729.931 Q167.825 729.931 165.996 733.496 Q164.19 737.037 164.19 744.167 Q164.19 751.273 165.996 754.838 Q167.825 758.38 171.436 758.38 Q175.07 758.38 176.876 754.838 Q178.704 751.273 178.704 744.167 Q178.704 737.037 176.876 733.496 Q175.07 729.931 171.436 729.931 M171.436 726.227 Q177.246 726.227 180.301 730.834 Q183.38 735.417 183.38 744.167 Q183.38 752.894 180.301 757.5 Q177.246 762.083 171.436 762.083 Q165.626 762.083 162.547 757.5 Q159.491 752.894 159.491 744.167 Q159.491 735.417 162.547 730.834 Q165.626 726.227 171.436 726.227 Z" fill="#000000" fill-rule="nonzero" fill-opacity="1" /><path clip-path="url(#clip870)" d="M118.01 465.539 L125.649 465.539 L125.649 439.173 L117.339 440.84 L117.339 436.581 L125.603 434.914 L130.279 434.914 L130.279 465.539 L137.917 465.539 L137.917 469.474 L118.01 469.474 L118.01 465.539 Z" fill="#000000" fill-rule="nonzero" fill-opacity="1" /><path clip-path="url(#clip870)" d="M147.362 463.595 L152.246 463.595 L152.246 469.474 L147.362 469.474 L147.362 463.595 Z" fill="#000000" fill-rule="nonzero" fill-opacity="1" /><path clip-path="url(#clip870)" d="M162.477 434.914 L180.834 434.914 L180.834 438.849 L166.76 438.849 L166.76 447.322 Q167.778 446.974 168.797 446.812 Q169.815 446.627 170.834 446.627 Q176.621 446.627 180.001 449.798 Q183.38 452.97 183.38 458.386 Q183.38 463.965 179.908 467.067 Q176.436 470.146 170.116 470.146 Q167.94 470.146 165.672 469.775 Q163.427 469.405 161.019 468.664 L161.019 463.965 Q163.102 465.099 165.325 465.655 Q167.547 466.21 170.024 466.21 Q174.028 466.21 176.366 464.104 Q178.704 461.997 178.704 458.386 Q178.704 454.775 176.366 452.669 Q174.028 450.562 170.024 450.562 Q168.149 450.562 166.274 450.979 Q164.422 451.396 162.477 452.275 L162.477 434.914 Z" fill="#000000" fill-rule="nonzero" fill-opacity="1" /><path clip-path="url(#clip870)" d="M120.232 173.601 L136.552 173.601 L136.552 177.536 L114.607 177.536 L114.607 173.601 Q117.269 170.847 121.853 166.217 Q126.459 161.564 127.64 160.222 Q129.885 157.698 130.765 155.962 Q131.667 154.203 131.667 152.513 Q131.667 149.759 129.723 148.023 Q127.802 146.286 124.7 146.286 Q122.501 146.286 120.047 147.05 Q117.617 147.814 114.839 149.365 L114.839 144.643 Q117.663 143.509 120.117 142.93 Q122.57 142.351 124.607 142.351 Q129.978 142.351 133.172 145.036 Q136.367 147.722 136.367 152.212 Q136.367 154.342 135.556 156.263 Q134.769 158.161 132.663 160.754 Q132.084 161.425 128.982 164.643 Q125.88 167.837 120.232 173.601 Z" fill="#000000" fill-rule="nonzero" fill-opacity="1" /><path clip-path="url(#clip870)" d="M146.366 171.657 L151.251 171.657 L151.251 177.536 L146.366 177.536 L146.366 171.657 Z" fill="#000000" fill-rule="nonzero" fill-opacity="1" /><path clip-path="url(#clip870)" d="M171.436 146.055 Q167.825 146.055 165.996 149.62 Q164.19 153.161 164.19 160.291 Q164.19 167.397 165.996 170.962 Q167.825 174.504 171.436 174.504 Q175.07 174.504 176.876 170.962 Q178.704 167.397 178.704 160.291 Q178.704 153.161 176.876 149.62 Q175.07 146.055 171.436 146.055 M171.436 142.351 Q177.246 142.351 180.301 146.958 Q183.38 151.541 183.38 160.291 Q183.38 169.018 180.301 173.624 Q177.246 178.208 171.436 178.208 Q165.626 178.208 162.547 173.624 Q159.491 169.018 159.491 160.291 Q159.491 151.541 162.547 146.958 Q165.626 142.351 171.436 142.351 Z" fill="#000000" fill-rule="nonzero" fill-opacity="1" /><path clip-path="url(#clip870)" d="M19.6371 832.936 Q20.8288 833 20.8932 833.806 Q20.9576 835.029 21.1186 835.77 Q21.2474 836.511 21.7305 837.67 Q22.2136 838.83 23.373 839.957 Q24.5324 841.084 26.3682 842.243 L64.1456 865.979 Q64.8542 866.398 65.0796 866.752 Q65.3373 867.074 65.3373 867.815 Q65.3373 868.491 65.0474 868.749 Q64.7898 869.007 63.8236 869.135 L23.1154 874.353 Q22.3746 874.449 22.0526 874.546 Q21.7305 874.643 21.4085 875.029 Q21.0864 875.383 20.9898 876.156 Q20.8932 876.929 20.8932 878.314 Q20.8932 878.958 20.861 879.248 Q20.8288 879.506 20.6677 879.731 Q20.4745 879.957 20.088 879.957 Q19.5083 879.957 19.2185 879.731 Q18.8964 879.473 18.8642 879.28 Q18.832 879.055 18.832 878.701 Q18.832 878.153 18.8964 876.961 Q18.9608 875.77 18.9608 875.158 Q18.9608 874.578 18.993 873.354 Q19.0252 872.131 19.0252 871.519 Q19.0252 870.166 18.9286 867.428 Q18.832 864.659 18.832 863.338 Q18.832 862.437 19.5727 862.437 Q20.4745 862.437 20.6999 862.823 Q20.8932 863.21 20.8932 864.079 Q20.8932 866.269 21.4407 867.461 Q21.9882 868.62 22.8577 868.62 L57.7689 864.143 L25.563 843.886 Q24.0494 842.888 23.051 842.888 Q21.1186 842.888 20.8932 845.947 Q20.8932 846.978 20.088 846.978 Q19.5083 846.978 19.2185 846.72 Q18.8964 846.462 18.8642 846.269 Q18.832 846.044 18.832 845.722 Q18.832 844.659 18.9286 842.501 Q19.0252 840.311 19.0252 839.216 Q19.0252 838.314 18.9286 836.479 Q18.832 834.643 18.832 833.806 Q18.832 832.936 19.6371 832.936 Z" fill="#000000" fill-rule="nonzero" fill-opacity="1" /><path clip-path="url(#clip870)" d="M68.8357 826.354 Q62.0499 826.354 58.3527 824.641 Q52.8519 822.251 52.8519 816.615 Q52.8519 815.42 53.1901 814.18 Q53.5057 812.918 54.7456 811.34 Q55.9855 809.739 58.0145 808.77 Q61.9372 806.921 68.8357 806.921 Q75.5764 806.921 79.2511 808.634 Q84.6165 811.137 84.6165 816.66 Q84.6165 818.734 83.557 820.853 Q82.4974 822.95 79.9499 824.28 Q76.14 826.354 68.8357 826.354 M68.2721 822.522 Q75.2382 822.522 78.0111 822.026 Q81.0095 821.462 82.317 819.929 Q83.6021 818.373 83.6021 816.66 Q83.6021 814.811 82.2269 813.278 Q80.8291 811.723 77.8308 811.25 Q74.8775 810.731 68.2721 810.754 Q61.847 810.754 59.277 811.204 Q56.2786 811.813 55.0838 813.436 Q53.8664 815.037 53.8664 816.66 Q53.8664 817.269 54.0467 817.923 Q54.2271 818.554 54.7456 819.478 Q55.2641 820.402 56.5491 821.124 Q57.8342 821.823 59.7729 822.161 Q62.2753 822.522 68.2721 822.522 Z" fill="#000000" fill-rule="nonzero" fill-opacity="1" /><path clip-path="url(#clip870)" d="M47.3986 779.018 Q36.2554 779.018 27.2699 774.864 Q23.5019 773.092 20.3457 770.613 Q17.1895 768.133 15.8047 766.49 Q14.4198 764.848 14.4198 764.397 Q14.4198 763.753 15.0639 763.721 Q15.386 763.721 16.1911 764.59 Q27.0123 775.218 47.3986 775.186 Q67.8493 775.186 78.2518 764.848 Q79.379 763.721 79.7333 763.721 Q80.3774 763.721 80.3774 764.397 Q80.3774 764.848 79.057 766.426 Q77.7365 768.004 74.7092 770.452 Q71.6818 772.899 67.9781 774.671 Q58.9927 779.018 47.3986 779.018 Z" fill="#000000" fill-rule="nonzero" fill-opacity="1" /><path clip-path="url(#clip870)" d="M20.8932 756.331 L18.832 756.331 Q19.0252 749.213 19.0252 747.957 Q19.0252 740.904 18.832 738.521 L20.8932 738.521 Q20.8932 743.932 22.7933 743.932 Q23.051 743.932 23.9849 743.545 L57.2858 730.953 L25.4986 718.876 Q24.5002 718.553 24.1782 718.553 Q22.8577 718.553 21.9238 719.777 Q20.9576 720.969 20.8932 723.352 L18.832 723.352 Q19.0252 718.199 19.0252 715.848 Q19.0252 712.499 18.832 709.439 L20.8932 709.439 Q20.9576 714.979 25.3054 716.621 L64.0812 731.339 Q64.8864 731.597 65.1118 731.854 Q65.3373 732.112 65.3373 732.917 Q65.3373 733.561 65.0796 733.916 Q64.822 734.238 63.888 734.56 L23.4052 749.858 Q21.6339 750.502 21.2796 751.661 Q20.8932 752.82 20.8932 756.331 Z" fill="#000000" fill-rule="nonzero" fill-opacity="1" /><path clip-path="url(#clip870)" d="M79.7333 692.023 Q79.4112 692.023 78.6061 691.185 Q67.7849 680.558 47.3986 680.558 Q26.9479 680.558 16.6098 690.767 Q15.4182 692.023 15.0639 692.023 Q14.4198 692.023 14.4198 691.379 Q14.4198 690.928 15.7402 689.35 Q17.0607 687.739 20.088 685.324 Q23.1154 682.876 26.8191 681.073 Q35.8045 676.725 47.3986 676.725 Q58.5418 676.725 67.5273 680.88 Q71.2953 682.651 74.4515 685.131 Q77.6077 687.611 78.9926 689.253 Q80.3774 690.896 80.3774 691.379 Q80.3774 692.023 79.7333 692.023 Z" fill="#000000" fill-rule="nonzero" fill-opacity="1" /><path clip-path="url(#clip870)" d="M693.056 12.096 L701.239 12.096 L701.239 72.576 L693.056 72.576 L693.056 12.096 Z" fill="#000000" fill-rule="nonzero" fill-opacity="1" /><path clip-path="url(#clip870)" d="M754.913 45.1919 L754.913 72.576 L747.46 72.576 L747.46 45.4349 Q747.46 38.994 744.948 35.7938 Q742.437 32.5936 737.414 32.5936 Q731.378 32.5936 727.894 36.4419 Q724.41 40.2903 724.41 46.9338 L724.41 72.576 L716.916 72.576 L716.916 27.2059 L724.41 27.2059 L724.41 34.2544 Q727.084 30.163 730.689 28.1376 Q734.335 26.1121 739.074 26.1121 Q746.893 26.1121 750.903 30.9732 Q754.913 35.7938 754.913 45.1919 Z" fill="#000000" fill-rule="nonzero" fill-opacity="1" /><path clip-path="url(#clip870)" d="M776.991 65.7705 L776.991 89.8329 L769.497 89.8329 L769.497 27.2059 L776.991 27.2059 L776.991 34.0924 Q779.34 30.0415 782.905 28.0971 Q786.511 26.1121 791.493 26.1121 Q799.757 26.1121 804.902 32.6746 Q810.087 39.2371 810.087 49.9314 Q810.087 60.6258 804.902 67.1883 Q799.757 73.7508 791.493 73.7508 Q786.511 73.7508 782.905 71.8063 Q779.34 69.8214 776.991 65.7705 M802.35 49.9314 Q802.35 41.7081 798.947 37.0496 Q795.585 32.3505 789.67 32.3505 Q783.756 32.3505 780.353 37.0496 Q776.991 41.7081 776.991 49.9314 Q776.991 58.1548 780.353 62.8538 Q783.756 67.5124 789.67 67.5124 Q795.585 67.5124 798.947 62.8538 Q802.35 58.1548 802.35 49.9314 Z" fill="#000000" fill-rule="nonzero" fill-opacity="1" /><path clip-path="url(#clip870)" d="M821.672 54.671 L821.672 27.2059 L829.126 27.2059 L829.126 54.3874 Q829.126 60.8284 831.638 64.0691 Q834.149 67.2693 839.172 67.2693 Q845.208 67.2693 848.692 63.421 Q852.216 59.5726 852.216 52.9291 L852.216 27.2059 L859.67 27.2059 L859.67 72.576 L852.216 72.576 L852.216 65.6084 Q849.502 69.7404 845.897 71.7658 Q842.332 73.7508 837.592 73.7508 Q829.774 73.7508 825.723 68.8897 Q821.672 64.0286 821.672 54.671 M840.428 26.1121 L840.428 26.1121 Z" fill="#000000" fill-rule="nonzero" fill-opacity="1" /><path clip-path="url(#clip870)" d="M882.395 14.324 L882.395 27.2059 L897.748 27.2059 L897.748 32.9987 L882.395 32.9987 L882.395 57.6282 Q882.395 63.1779 883.894 64.7578 Q885.434 66.3376 890.092 66.3376 L897.748 66.3376 L897.748 72.576 L890.092 72.576 Q881.464 72.576 878.182 69.3758 Q874.901 66.1351 874.901 57.6282 L874.901 32.9987 L869.433 32.9987 L869.433 27.2059 L874.901 27.2059 L874.901 14.324 L882.395 14.324 Z" fill="#000000" fill-rule="nonzero" fill-opacity="1" /><path clip-path="url(#clip870)" d="M928.576 27.2059 L936.475 27.2059 L950.653 65.2844 L964.831 27.2059 L972.731 27.2059 L955.717 72.576 L945.59 72.576 L928.576 27.2059 Z" fill="#000000" fill-rule="nonzero" fill-opacity="1" /><path clip-path="url(#clip870)" d="M1011.94 28.5427 L1011.94 35.5912 Q1008.78 33.9709 1005.38 33.1607 Q1001.98 32.3505 998.332 32.3505 Q992.783 32.3505 989.987 34.0519 Q987.233 35.7533 987.233 39.156 Q987.233 41.7486 989.218 43.2475 Q991.203 44.7058 997.198 46.0426 L999.75 46.6097 Q1007.69 48.3111 1011.01 51.4303 Q1014.37 54.509 1014.37 60.0587 Q1014.37 66.3781 1009.35 70.0644 Q1004.37 73.7508 995.618 73.7508 Q991.972 73.7508 988.002 73.0216 Q984.073 72.3329 979.698 70.9151 L979.698 63.2184 Q983.83 65.3654 987.84 66.4591 Q991.851 67.5124 995.78 67.5124 Q1001.05 67.5124 1003.88 65.73 Q1006.72 63.9071 1006.72 60.6258 Q1006.72 57.5877 1004.65 55.9673 Q1002.63 54.3469 995.699 52.8481 L993.107 52.2405 Q986.18 50.7821 983.101 47.7845 Q980.022 44.7463 980.022 39.4801 Q980.022 33.0797 984.559 29.5959 Q989.096 26.1121 997.441 26.1121 Q1001.57 26.1121 1005.22 26.7198 Q1008.86 27.3274 1011.94 28.5427 Z" fill="#000000" fill-rule="nonzero" fill-opacity="1" /><path clip-path="url(#clip870)" d="M1027.3 62.2867 L1035.84 62.2867 L1035.84 72.576 L1027.3 72.576 L1027.3 62.2867 Z" fill="#000000" fill-rule="nonzero" fill-opacity="1" /><path clip-path="url(#clip870)" d="M1103.86 17.6457 Q1094.95 17.6457 1089.68 24.2892 Q1084.45 30.9327 1084.45 42.3968 Q1084.45 53.8203 1089.68 60.4638 Q1094.95 67.1073 1103.86 67.1073 Q1112.77 67.1073 1117.96 60.4638 Q1123.18 53.8203 1123.18 42.3968 Q1123.18 30.9327 1117.96 24.2892 Q1112.77 17.6457 1103.86 17.6457 M1103.86 11.0023 Q1116.58 11.0023 1124.19 19.5497 Q1131.81 28.0566 1131.81 42.3968 Q1131.81 56.6965 1124.19 65.2439 Q1116.58 73.7508 1103.86 73.7508 Q1091.1 73.7508 1083.44 65.2439 Q1075.83 56.737 1075.83 42.3968 Q1075.83 28.0566 1083.44 19.5497 Q1091.1 11.0023 1103.86 11.0023 Z" fill="#000000" fill-rule="nonzero" fill-opacity="1" /><path clip-path="url(#clip870)" d="M1143.52 54.671 L1143.52 27.2059 L1150.97 27.2059 L1150.97 54.3874 Q1150.97 60.8284 1153.48 64.0691 Q1155.99 67.2693 1161.02 67.2693 Q1167.05 67.2693 1170.54 63.421 Q1174.06 59.5726 1174.06 52.9291 L1174.06 27.2059 L1181.51 27.2059 L1181.51 72.576 L1174.06 72.576 L1174.06 65.6084 Q1171.35 69.7404 1167.74 71.7658 Q1164.18 73.7508 1159.44 73.7508 Q1151.62 73.7508 1147.57 68.8897 Q1143.52 64.0286 1143.52 54.671 M1162.27 26.1121 L1162.27 26.1121 Z" fill="#000000" fill-rule="nonzero" fill-opacity="1" /><path clip-path="url(#clip870)" d="M1204.24 14.324 L1204.24 27.2059 L1219.59 27.2059 L1219.59 32.9987 L1204.24 32.9987 L1204.24 57.6282 Q1204.24 63.1779 1205.74 64.7578 Q1207.28 66.3376 1211.94 66.3376 L1219.59 66.3376 L1219.59 72.576 L1211.94 72.576 Q1203.31 72.576 1200.03 69.3758 Q1196.75 66.1351 1196.75 57.6282 L1196.75 32.9987 L1191.28 32.9987 L1191.28 27.2059 L1196.75 27.2059 L1196.75 14.324 L1204.24 14.324 Z" fill="#000000" fill-rule="nonzero" fill-opacity="1" /><path clip-path="url(#clip870)" d="M1236.61 65.7705 L1236.61 89.8329 L1229.11 89.8329 L1229.11 27.2059 L1236.61 27.2059 L1236.61 34.0924 Q1238.96 30.0415 1242.52 28.0971 Q1246.13 26.1121 1251.11 26.1121 Q1259.37 26.1121 1264.52 32.6746 Q1269.7 39.2371 1269.7 49.9314 Q1269.7 60.6258 1264.52 67.1883 Q1259.37 73.7508 1251.11 73.7508 Q1246.13 73.7508 1242.52 71.8063 Q1238.96 69.8214 1236.61 65.7705 M1261.97 49.9314 Q1261.97 41.7081 1258.56 37.0496 Q1255.2 32.3505 1249.29 32.3505 Q1243.37 32.3505 1239.97 37.0496 Q1236.61 41.7081 1236.61 49.9314 Q1236.61 58.1548 1239.97 62.8538 Q1243.37 67.5124 1249.29 67.5124 Q1255.2 67.5124 1258.56 62.8538 Q1261.97 58.1548 1261.97 49.9314 Z" fill="#000000" fill-rule="nonzero" fill-opacity="1" /><path clip-path="url(#clip870)" d="M1281.29 54.671 L1281.29 27.2059 L1288.74 27.2059 L1288.74 54.3874 Q1288.74 60.8284 1291.25 64.0691 Q1293.76 67.2693 1298.79 67.2693 Q1304.82 67.2693 1308.31 63.421 Q1311.83 59.5726 1311.83 52.9291 L1311.83 27.2059 L1319.29 27.2059 L1319.29 72.576 L1311.83 72.576 L1311.83 65.6084 Q1309.12 69.7404 1305.51 71.7658 Q1301.95 73.7508 1297.21 73.7508 Q1289.39 73.7508 1285.34 68.8897 Q1281.29 64.0286 1281.29 54.671 M1300.04 26.1121 L1300.04 26.1121 Z" fill="#000000" fill-rule="nonzero" fill-opacity="1" /><path clip-path="url(#clip870)" d="M1342.01 14.324 L1342.01 27.2059 L1357.36 27.2059 L1357.36 32.9987 L1342.01 32.9987 L1342.01 57.6282 Q1342.01 63.1779 1343.51 64.7578 Q1345.05 66.3376 1349.71 66.3376 L1357.36 66.3376 L1357.36 72.576 L1349.71 72.576 Q1341.08 72.576 1337.8 69.3758 Q1334.52 66.1351 1334.52 57.6282 L1334.52 32.9987 L1329.05 32.9987 L1329.05 27.2059 L1334.52 27.2059 L1334.52 14.324 L1342.01 14.324 Z" fill="#000000" fill-rule="nonzero" fill-opacity="1" /><path clip-path="url(#clip870)" d="M1388.19 27.2059 L1396.09 27.2059 L1410.27 65.2844 L1424.45 27.2059 L1432.35 27.2059 L1415.33 72.576 L1405.21 72.576 L1388.19 27.2059 Z" fill="#000000" fill-rule="nonzero" fill-opacity="1" /><path clip-path="url(#clip870)" d="M1460.22 32.4315 Q1454.22 32.4315 1450.74 37.1306 Q1447.25 41.7891 1447.25 49.9314 Q1447.25 58.0738 1450.7 62.7728 Q1454.18 67.4314 1460.22 67.4314 Q1466.17 67.4314 1469.66 62.7323 Q1473.14 58.0333 1473.14 49.9314 Q1473.14 41.8701 1469.66 37.1711 Q1466.17 32.4315 1460.22 32.4315 M1460.22 26.1121 Q1469.94 26.1121 1475.49 32.4315 Q1481.04 38.7509 1481.04 49.9314 Q1481.04 61.0714 1475.49 67.4314 Q1469.94 73.7508 1460.22 73.7508 Q1450.45 73.7508 1444.9 67.4314 Q1439.39 61.0714 1439.39 49.9314 Q1439.39 38.7509 1444.9 32.4315 Q1450.45 26.1121 1460.22 26.1121 Z" fill="#000000" fill-rule="nonzero" fill-opacity="1" /><path clip-path="url(#clip870)" d="M1493.39 9.54393 L1500.85 9.54393 L1500.85 72.576 L1493.39 72.576 L1493.39 9.54393 Z" fill="#000000" fill-rule="nonzero" fill-opacity="1" /><path clip-path="url(#clip870)" d="M1523.82 14.324 L1523.82 27.2059 L1539.17 27.2059 L1539.17 32.9987 L1523.82 32.9987 L1523.82 57.6282 Q1523.82 63.1779 1525.31 64.7578 Q1526.85 66.3376 1531.51 66.3376 L1539.17 66.3376 L1539.17 72.576 L1531.51 72.576 Q1522.88 72.576 1519.6 69.3758 Q1516.32 66.1351 1516.32 57.6282 L1516.32 32.9987 L1510.85 32.9987 L1510.85 27.2059 L1516.32 27.2059 L1516.32 14.324 L1523.82 14.324 Z" fill="#000000" fill-rule="nonzero" fill-opacity="1" /><path clip-path="url(#clip870)" d="M1569.59 49.7694 Q1560.56 49.7694 1557.07 51.8354 Q1553.59 53.9013 1553.59 58.8839 Q1553.59 62.8538 1556.18 65.2034 Q1558.82 67.5124 1563.31 67.5124 Q1569.51 67.5124 1573.24 63.1374 Q1577 58.7219 1577 51.4303 L1577 49.7694 L1569.59 49.7694 M1584.46 46.6907 L1584.46 72.576 L1577 72.576 L1577 65.6895 Q1574.45 69.8214 1570.64 71.8063 Q1566.84 73.7508 1561.33 73.7508 Q1554.36 73.7508 1550.23 69.8619 Q1546.14 65.9325 1546.14 59.3701 Q1546.14 51.7138 1551.24 47.825 Q1556.38 43.9361 1566.55 43.9361 L1577 43.9361 L1577 43.2069 Q1577 38.0623 1573.6 35.2672 Q1570.24 32.4315 1564.12 32.4315 Q1560.23 32.4315 1556.55 33.3632 Q1552.86 34.295 1549.46 36.1584 L1549.46 29.2718 Q1553.55 27.692 1557.4 26.9223 Q1561.25 26.1121 1564.89 26.1121 Q1574.74 26.1121 1579.6 31.2163 Q1584.46 36.3204 1584.46 46.6907 Z" fill="#000000" fill-rule="nonzero" fill-opacity="1" /><path clip-path="url(#clip870)" d="M1629.67 49.3643 Q1629.67 41.2625 1626.3 36.8065 Q1622.98 32.3505 1616.95 32.3505 Q1610.95 32.3505 1607.59 36.8065 Q1604.27 41.2625 1604.27 49.3643 Q1604.27 57.4256 1607.59 61.8816 Q1610.95 66.3376 1616.95 66.3376 Q1622.98 66.3376 1626.3 61.8816 Q1629.67 57.4256 1629.67 49.3643 M1637.12 66.9452 Q1637.12 78.5308 1631.97 84.1616 Q1626.83 89.8329 1616.22 89.8329 Q1612.29 89.8329 1608.8 89.2252 Q1605.32 88.6581 1602.04 87.4428 L1602.04 80.1917 Q1605.32 81.9741 1608.52 82.8248 Q1611.72 83.6755 1615.04 83.6755 Q1622.37 83.6755 1626.02 79.8271 Q1629.67 76.0193 1629.67 68.282 L1629.67 64.5957 Q1627.36 68.6061 1623.75 70.5911 Q1620.15 72.576 1615.12 72.576 Q1606.78 72.576 1601.67 66.2161 Q1596.57 59.8562 1596.57 49.3643 Q1596.57 38.832 1601.67 32.472 Q1606.78 26.1121 1615.12 26.1121 Q1620.15 26.1121 1623.75 28.0971 Q1627.36 30.082 1629.67 34.0924 L1629.67 27.2059 L1637.12 27.2059 L1637.12 66.9452 Z" fill="#000000" fill-rule="nonzero" fill-opacity="1" /><path clip-path="url(#clip870)" d="M1691.28 48.0275 L1691.28 51.6733 L1657.01 51.6733 Q1657.5 59.3701 1661.63 63.421 Q1665.8 67.4314 1673.21 67.4314 Q1677.51 67.4314 1681.52 66.3781 Q1685.57 65.3249 1689.54 63.2184 L1689.54 70.267 Q1685.53 71.9684 1681.31 72.8596 Q1677.1 73.7508 1672.77 73.7508 Q1661.91 73.7508 1655.55 67.4314 Q1649.23 61.1119 1649.23 50.3365 Q1649.23 39.1965 1655.23 32.6746 Q1661.26 26.1121 1671.47 26.1121 Q1680.63 26.1121 1685.93 32.0264 Q1691.28 37.9003 1691.28 48.0275 M1683.83 45.84 Q1683.75 39.7232 1680.38 36.0774 Q1677.06 32.4315 1671.55 32.4315 Q1665.31 32.4315 1661.55 35.9558 Q1657.82 39.4801 1657.25 45.8805 L1683.83 45.84 Z" fill="#000000" fill-rule="nonzero" fill-opacity="1" /><path clip-path="url(#clip870)" d="M1737.1 65.7705 L1737.1 89.8329 L1729.6 89.8329 L1729.6 27.2059 L1737.1 27.2059 L1737.1 34.0924 Q1739.45 30.0415 1743.01 28.0971 Q1746.62 26.1121 1751.6 26.1121 Q1759.86 26.1121 1765.01 32.6746 Q1770.19 39.2371 1770.19 49.9314 Q1770.19 60.6258 1765.01 67.1883 Q1759.86 73.7508 1751.6 73.7508 Q1746.62 73.7508 1743.01 71.8063 Q1739.45 69.8214 1737.1 65.7705 M1762.45 49.9314 Q1762.45 41.7081 1759.05 37.0496 Q1755.69 32.3505 1749.78 32.3505 Q1743.86 32.3505 1740.46 37.0496 Q1737.1 41.7081 1737.1 49.9314 Q1737.1 58.1548 1740.46 62.8538 Q1743.86 67.5124 1749.78 67.5124 Q1755.69 67.5124 1759.05 62.8538 Q1762.45 58.1548 1762.45 49.9314 Z" fill="#000000" fill-rule="nonzero" fill-opacity="1" /><path clip-path="url(#clip870)" d="M1782.55 9.54393 L1790 9.54393 L1790 72.576 L1782.55 72.576 L1782.55 9.54393 Z" fill="#000000" fill-rule="nonzero" fill-opacity="1" /><path clip-path="url(#clip870)" d="M1823.18 32.4315 Q1817.18 32.4315 1813.7 37.1306 Q1810.21 41.7891 1810.21 49.9314 Q1810.21 58.0738 1813.66 62.7728 Q1817.14 67.4314 1823.18 67.4314 Q1829.13 67.4314 1832.62 62.7323 Q1836.1 58.0333 1836.1 49.9314 Q1836.1 41.8701 1832.62 37.1711 Q1829.13 32.4315 1823.18 32.4315 M1823.18 26.1121 Q1832.9 26.1121 1838.45 32.4315 Q1844 38.7509 1844 49.9314 Q1844 61.0714 1838.45 67.4314 Q1832.9 73.7508 1823.18 73.7508 Q1813.41 73.7508 1807.87 67.4314 Q1802.36 61.0714 1802.36 49.9314 Q1802.36 38.7509 1807.87 32.4315 Q1813.41 26.1121 1823.18 26.1121 Z" fill="#000000" fill-rule="nonzero" fill-opacity="1" /><path clip-path="url(#clip870)" d="M1863.73 14.324 L1863.73 27.2059 L1879.08 27.2059 L1879.08 32.9987 L1863.73 32.9987 L1863.73 57.6282 Q1863.73 63.1779 1865.23 64.7578 Q1866.77 66.3376 1871.42 66.3376 L1879.08 66.3376 L1879.08 72.576 L1871.42 72.576 Q1862.8 72.576 1859.51 69.3758 Q1856.23 66.1351 1856.23 57.6282 L1856.23 32.9987 L1850.76 32.9987 L1850.76 27.2059 L1856.23 27.2059 L1856.23 14.324 L1863.73 14.324 Z" fill="#000000" fill-rule="nonzero" fill-opacity="1" /><polyline clip-path="url(#clip872)" style="stroke:#0000ff; stroke-linecap:round; stroke-linejoin:round; stroke-width:8; stroke-opacity:1; fill:none" points="279.759,1328.01 360.263,1328.01 413.933,1328.01 494.438,1328.01 561.525,1328.01 601.778,1328.01 682.282,1328.01 749.37,1328.01 803.04,1328.01 883.544,1328.01 950.632,1328.01 1004.3,1328.01 1084.81,1328.01 1151.89,1328.01 1218.98,1328.01 1286.07,1328.01 1353.16,1328.01 1420.24,1328.01 1473.91,1328.01 1554.42,1328.01 1621.5,1328.01 1688.59,1328.01 1755.68,1269.62 1822.77,1152.85 1876.44,1036.07 1956.94,919.295 2024.03,744.132 2104.53,568.969 2144.79,510.582 2225.29,335.419 2292.38,218.644 "/>
<circle clip-path="url(#clip872)" cx="279.759" cy="1328.01" r="14.4" fill="#0000ff" fill-rule="evenodd" fill-opacity="1" stroke="#000000" stroke-opacity="1" stroke-width="3.2"/>
<circle clip-path="url(#clip872)" cx="360.263" cy="1328.01" r="14.4" fill="#0000ff" fill-rule="evenodd" fill-opacity="1" stroke="#000000" stroke-opacity="1" stroke-width="3.2"/>
<circle clip-path="url(#clip872)" cx="413.933" cy="1328.01" r="14.4" fill="#0000ff" fill-rule="evenodd" fill-opacity="1" stroke="#000000" stroke-opacity="1" stroke-width="3.2"/>
<circle clip-path="url(#clip872)" cx="494.438" cy="1328.01" r="14.4" fill="#0000ff" fill-rule="evenodd" fill-opacity="1" stroke="#000000" stroke-opacity="1" stroke-width="3.2"/>
<circle clip-path="url(#clip872)" cx="561.525" cy="1328.01" r="14.4" fill="#0000ff" fill-rule="evenodd" fill-opacity="1" stroke="#000000" stroke-opacity="1" stroke-width="3.2"/>
<circle clip-path="url(#clip872)" cx="601.778" cy="1328.01" r="14.4" fill="#0000ff" fill-rule="evenodd" fill-opacity="1" stroke="#000000" stroke-opacity="1" stroke-width="3.2"/>
<circle clip-path="url(#clip872)" cx="682.282" cy="1328.01" r="14.4" fill="#0000ff" fill-rule="evenodd" fill-opacity="1" stroke="#000000" stroke-opacity="1" stroke-width="3.2"/>
<circle clip-path="url(#clip872)" cx="749.37" cy="1328.01" r="14.4" fill="#0000ff" fill-rule="evenodd" fill-opacity="1" stroke="#000000" stroke-opacity="1" stroke-width="3.2"/>
<circle clip-path="url(#clip872)" cx="803.04" cy="1328.01" r="14.4" fill="#0000ff" fill-rule="evenodd" fill-opacity="1" stroke="#000000" stroke-opacity="1" stroke-width="3.2"/>
<circle clip-path="url(#clip872)" cx="883.544" cy="1328.01" r="14.4" fill="#0000ff" fill-rule="evenodd" fill-opacity="1" stroke="#000000" stroke-opacity="1" stroke-width="3.2"/>
<circle clip-path="url(#clip872)" cx="950.632" cy="1328.01" r="14.4" fill="#0000ff" fill-rule="evenodd" fill-opacity="1" stroke="#000000" stroke-opacity="1" stroke-width="3.2"/>
<circle clip-path="url(#clip872)" cx="1004.3" cy="1328.01" r="14.4" fill="#0000ff" fill-rule="evenodd" fill-opacity="1" stroke="#000000" stroke-opacity="1" stroke-width="3.2"/>
<circle clip-path="url(#clip872)" cx="1084.81" cy="1328.01" r="14.4" fill="#0000ff" fill-rule="evenodd" fill-opacity="1" stroke="#000000" stroke-opacity="1" stroke-width="3.2"/>
<circle clip-path="url(#clip872)" cx="1151.89" cy="1328.01" r="14.4" fill="#0000ff" fill-rule="evenodd" fill-opacity="1" stroke="#000000" stroke-opacity="1" stroke-width="3.2"/>
<circle clip-path="url(#clip872)" cx="1218.98" cy="1328.01" r="14.4" fill="#0000ff" fill-rule="evenodd" fill-opacity="1" stroke="#000000" stroke-opacity="1" stroke-width="3.2"/>
<circle clip-path="url(#clip872)" cx="1286.07" cy="1328.01" r="14.4" fill="#0000ff" fill-rule="evenodd" fill-opacity="1" stroke="#000000" stroke-opacity="1" stroke-width="3.2"/>
<circle clip-path="url(#clip872)" cx="1353.16" cy="1328.01" r="14.4" fill="#0000ff" fill-rule="evenodd" fill-opacity="1" stroke="#000000" stroke-opacity="1" stroke-width="3.2"/>
<circle clip-path="url(#clip872)" cx="1420.24" cy="1328.01" r="14.4" fill="#0000ff" fill-rule="evenodd" fill-opacity="1" stroke="#000000" stroke-opacity="1" stroke-width="3.2"/>
<circle clip-path="url(#clip872)" cx="1473.91" cy="1328.01" r="14.4" fill="#0000ff" fill-rule="evenodd" fill-opacity="1" stroke="#000000" stroke-opacity="1" stroke-width="3.2"/>
<circle clip-path="url(#clip872)" cx="1554.42" cy="1328.01" r="14.4" fill="#0000ff" fill-rule="evenodd" fill-opacity="1" stroke="#000000" stroke-opacity="1" stroke-width="3.2"/>
<circle clip-path="url(#clip872)" cx="1621.5" cy="1328.01" r="14.4" fill="#0000ff" fill-rule="evenodd" fill-opacity="1" stroke="#000000" stroke-opacity="1" stroke-width="3.2"/>
<circle clip-path="url(#clip872)" cx="1688.59" cy="1328.01" r="14.4" fill="#0000ff" fill-rule="evenodd" fill-opacity="1" stroke="#000000" stroke-opacity="1" stroke-width="3.2"/>
<circle clip-path="url(#clip872)" cx="1755.68" cy="1269.62" r="14.4" fill="#0000ff" fill-rule="evenodd" fill-opacity="1" stroke="#000000" stroke-opacity="1" stroke-width="3.2"/>
<circle clip-path="url(#clip872)" cx="1822.77" cy="1152.85" r="14.4" fill="#0000ff" fill-rule="evenodd" fill-opacity="1" stroke="#000000" stroke-opacity="1" stroke-width="3.2"/>
<circle clip-path="url(#clip872)" cx="1876.44" cy="1036.07" r="14.4" fill="#0000ff" fill-rule="evenodd" fill-opacity="1" stroke="#000000" stroke-opacity="1" stroke-width="3.2"/>
<circle clip-path="url(#clip872)" cx="1956.94" cy="919.295" r="14.4" fill="#0000ff" fill-rule="evenodd" fill-opacity="1" stroke="#000000" stroke-opacity="1" stroke-width="3.2"/>
<circle clip-path="url(#clip872)" cx="2024.03" cy="744.132" r="14.4" fill="#0000ff" fill-rule="evenodd" fill-opacity="1" stroke="#000000" stroke-opacity="1" stroke-width="3.2"/>
<circle clip-path="url(#clip872)" cx="2104.53" cy="568.969" r="14.4" fill="#0000ff" fill-rule="evenodd" fill-opacity="1" stroke="#000000" stroke-opacity="1" stroke-width="3.2"/>
<circle clip-path="url(#clip872)" cx="2144.79" cy="510.582" r="14.4" fill="#0000ff" fill-rule="evenodd" fill-opacity="1" stroke="#000000" stroke-opacity="1" stroke-width="3.2"/>
<circle clip-path="url(#clip872)" cx="2225.29" cy="335.419" r="14.4" fill="#0000ff" fill-rule="evenodd" fill-opacity="1" stroke="#000000" stroke-opacity="1" stroke-width="3.2"/>
<circle clip-path="url(#clip872)" cx="2292.38" cy="218.644" r="14.4" fill="#0000ff" fill-rule="evenodd" fill-opacity="1" stroke="#000000" stroke-opacity="1" stroke-width="3.2"/>
<polyline clip-path="url(#clip872)" style="stroke:#ff0000; stroke-linecap:round; stroke-linejoin:round; stroke-width:8; stroke-opacity:1; fill:none" stroke-dasharray="32, 20" points="1688.59,1386.4 1688.59,160.256 "/>
<path clip-path="url(#clip870)" d="M290.493 322.316 L767.533 322.316 L767.533 166.796 L290.493 166.796  Z" fill="#ffffff" fill-rule="evenodd" fill-opacity="1"/>
<polyline clip-path="url(#clip870)" style="stroke:#000000; stroke-linecap:round; stroke-linejoin:round; stroke-width:4; stroke-opacity:1; fill:none" points="290.493,322.316 767.533,322.316 767.533,166.796 290.493,166.796 290.493,322.316 "/>
<polyline clip-path="url(#clip870)" style="stroke:#0000ff; stroke-linecap:round; stroke-linejoin:round; stroke-width:8; stroke-opacity:1; fill:none" points="314.197,218.636 456.422,218.636 "/>
<circle clip-path="url(#clip870)" cx="385.309" cy="218.636" r="19.7535" fill="#0000ff" fill-rule="evenodd" fill-opacity="1" stroke="#000000" stroke-opacity="1" stroke-width="4.55111"/>
<path clip-path="url(#clip870)" d="M484.802 205.198 L484.802 232.073 L490.45 232.073 Q497.603 232.073 500.913 228.832 Q504.246 225.592 504.246 218.601 Q504.246 211.657 500.913 208.439 Q497.603 205.198 490.45 205.198 L484.802 205.198 M480.126 201.356 L489.733 201.356 Q499.779 201.356 504.478 205.546 Q509.177 209.712 509.177 218.601 Q509.177 227.536 504.455 231.726 Q499.732 235.916 489.733 235.916 L480.126 235.916 L480.126 201.356 Z" fill="#000000" fill-rule="nonzero" fill-opacity="1" /><path clip-path="url(#clip870)" d="M528.228 222.883 Q523.066 222.883 521.075 224.064 Q519.084 225.244 519.084 228.092 Q519.084 230.36 520.566 231.703 Q522.07 233.022 524.64 233.022 Q528.181 233.022 530.311 230.522 Q532.464 227.999 532.464 223.832 L532.464 222.883 L528.228 222.883 M536.723 221.124 L536.723 235.916 L532.464 235.916 L532.464 231.981 Q531.005 234.342 528.83 235.476 Q526.654 236.587 523.505 236.587 Q519.524 236.587 517.163 234.365 Q514.825 232.119 514.825 228.369 Q514.825 223.994 517.742 221.772 Q520.681 219.55 526.492 219.55 L532.464 219.55 L532.464 219.133 Q532.464 216.194 530.519 214.596 Q528.598 212.976 525.103 212.976 Q522.88 212.976 520.774 213.508 Q518.668 214.041 516.723 215.106 L516.723 211.17 Q519.061 210.268 521.26 209.828 Q523.459 209.365 525.543 209.365 Q531.167 209.365 533.945 212.282 Q536.723 215.198 536.723 221.124 Z" fill="#000000" fill-rule="nonzero" fill-opacity="1" /><path clip-path="url(#clip870)" d="M549.709 202.629 L549.709 209.99 L558.482 209.99 L558.482 213.3 L549.709 213.3 L549.709 227.374 Q549.709 230.545 550.566 231.448 Q551.445 232.351 554.107 232.351 L558.482 232.351 L558.482 235.916 L554.107 235.916 Q549.177 235.916 547.302 234.087 Q545.427 232.235 545.427 227.374 L545.427 213.3 L542.302 213.3 L542.302 209.99 L545.427 209.99 L545.427 202.629 L549.709 202.629 Z" fill="#000000" fill-rule="nonzero" fill-opacity="1" /><path clip-path="url(#clip870)" d="M575.866 222.883 Q570.704 222.883 568.714 224.064 Q566.723 225.244 566.723 228.092 Q566.723 230.36 568.204 231.703 Q569.709 233.022 572.278 233.022 Q575.82 233.022 577.95 230.522 Q580.102 227.999 580.102 223.832 L580.102 222.883 L575.866 222.883 M584.362 221.124 L584.362 235.916 L580.102 235.916 L580.102 231.981 Q578.644 234.342 576.468 235.476 Q574.292 236.587 571.144 236.587 Q567.163 236.587 564.802 234.365 Q562.464 232.119 562.464 228.369 Q562.464 223.994 565.38 221.772 Q568.32 219.55 574.13 219.55 L580.102 219.55 L580.102 219.133 Q580.102 216.194 578.158 214.596 Q576.237 212.976 572.741 212.976 Q570.519 212.976 568.413 213.508 Q566.306 214.041 564.362 215.106 L564.362 211.17 Q566.7 210.268 568.899 209.828 Q571.098 209.365 573.181 209.365 Q578.806 209.365 581.584 212.282 Q584.362 215.198 584.362 221.124 Z" fill="#000000" fill-rule="nonzero" fill-opacity="1" /><path clip-path="url(#clip870)" d="M613.065 205.198 L613.065 218.184 L618.945 218.184 Q622.209 218.184 623.991 216.495 Q625.773 214.805 625.773 211.68 Q625.773 208.578 623.991 206.888 Q622.209 205.198 618.945 205.198 L613.065 205.198 M608.389 201.356 L618.945 201.356 Q624.755 201.356 627.718 203.995 Q630.704 206.61 630.704 211.68 Q630.704 216.795 627.718 219.411 Q624.755 222.027 618.945 222.027 L613.065 222.027 L613.065 235.916 L608.389 235.916 L608.389 201.356 Z" fill="#000000" fill-rule="nonzero" fill-opacity="1" /><path clip-path="url(#clip870)" d="M645.148 212.976 Q641.722 212.976 639.732 215.661 Q637.741 218.323 637.741 222.976 Q637.741 227.629 639.709 230.314 Q641.699 232.976 645.148 232.976 Q648.551 232.976 650.542 230.291 Q652.533 227.606 652.533 222.976 Q652.533 218.37 650.542 215.684 Q648.551 212.976 645.148 212.976 M645.148 209.365 Q650.704 209.365 653.875 212.976 Q657.046 216.587 657.046 222.976 Q657.046 229.342 653.875 232.976 Q650.704 236.587 645.148 236.587 Q639.57 236.587 636.398 232.976 Q633.25 229.342 633.25 222.976 Q633.25 216.587 636.398 212.976 Q639.57 209.365 645.148 209.365 Z" fill="#000000" fill-rule="nonzero" fill-opacity="1" /><path clip-path="url(#clip870)" d="M664.107 209.99 L668.366 209.99 L668.366 235.916 L664.107 235.916 L664.107 209.99 M664.107 199.897 L668.366 199.897 L668.366 205.291 L664.107 205.291 L664.107 199.897 Z" fill="#000000" fill-rule="nonzero" fill-opacity="1" /><path clip-path="url(#clip870)" d="M698.829 220.268 L698.829 235.916 L694.569 235.916 L694.569 220.407 Q694.569 216.726 693.134 214.897 Q691.699 213.069 688.829 213.069 Q685.38 213.069 683.389 215.268 Q681.398 217.467 681.398 221.263 L681.398 235.916 L677.116 235.916 L677.116 209.99 L681.398 209.99 L681.398 214.018 Q682.926 211.68 684.986 210.522 Q687.069 209.365 689.778 209.365 Q694.245 209.365 696.537 212.143 Q698.829 214.897 698.829 220.268 Z" fill="#000000" fill-rule="nonzero" fill-opacity="1" /><path clip-path="url(#clip870)" d="M711.537 202.629 L711.537 209.99 L720.31 209.99 L720.31 213.3 L711.537 213.3 L711.537 227.374 Q711.537 230.545 712.393 231.448 Q713.273 232.351 715.935 232.351 L720.31 232.351 L720.31 235.916 L715.935 235.916 Q711.004 235.916 709.129 234.087 Q707.254 232.235 707.254 227.374 L707.254 213.3 L704.13 213.3 L704.13 209.99 L707.254 209.99 L707.254 202.629 L711.537 202.629 Z" fill="#000000" fill-rule="nonzero" fill-opacity="1" /><path clip-path="url(#clip870)" d="M742.439 210.754 L742.439 214.782 Q740.634 213.856 738.69 213.393 Q736.745 212.93 734.662 212.93 Q731.49 212.93 729.893 213.902 Q728.319 214.874 728.319 216.819 Q728.319 218.3 729.453 219.157 Q730.588 219.99 734.014 220.754 L735.472 221.078 Q740.009 222.05 741.907 223.832 Q743.828 225.592 743.828 228.763 Q743.828 232.374 740.958 234.481 Q738.111 236.587 733.111 236.587 Q731.028 236.587 728.759 236.17 Q726.514 235.777 724.014 234.967 L724.014 230.569 Q726.375 231.795 728.666 232.42 Q730.958 233.022 733.203 233.022 Q736.213 233.022 737.833 232.004 Q739.453 230.962 739.453 229.087 Q739.453 227.351 738.273 226.425 Q737.115 225.499 733.157 224.643 L731.676 224.295 Q727.717 223.462 725.958 221.749 Q724.199 220.013 724.199 217.004 Q724.199 213.346 726.791 211.356 Q729.384 209.365 734.152 209.365 Q736.514 209.365 738.597 209.712 Q740.68 210.059 742.439 210.754 Z" fill="#000000" fill-rule="nonzero" fill-opacity="1" /><polyline clip-path="url(#clip870)" style="stroke:#ff0000; stroke-linecap:round; stroke-linejoin:round; stroke-width:8; stroke-opacity:1; fill:none" stroke-dasharray="32, 20" points="314.197,270.476 456.422,270.476 "/>
<path clip-path="url(#clip870)" d="M514.323 246.89 Q514.276 247.757 513.69 247.804 Q512.8 247.851 512.262 247.968 Q511.723 248.061 510.88 248.413 Q510.037 248.764 509.217 249.607 Q508.397 250.451 507.554 251.786 L490.291 279.26 Q489.987 279.775 489.729 279.939 Q489.495 280.127 488.956 280.127 Q488.464 280.127 488.277 279.916 Q488.09 279.729 487.996 279.026 L484.202 249.42 Q484.131 248.881 484.061 248.647 Q483.991 248.413 483.71 248.179 Q483.452 247.944 482.89 247.874 Q482.328 247.804 481.321 247.804 Q480.852 247.804 480.641 247.78 Q480.454 247.757 480.29 247.64 Q480.126 247.499 480.126 247.218 Q480.126 246.797 480.29 246.586 Q480.477 246.352 480.618 246.328 Q480.782 246.305 481.04 246.305 Q481.438 246.305 482.304 246.352 Q483.171 246.398 483.616 246.398 Q484.038 246.398 484.928 246.422 Q485.818 246.445 486.263 246.445 Q487.247 246.445 489.237 246.375 Q491.252 246.305 492.212 246.305 Q492.868 246.305 492.868 246.843 Q492.868 247.499 492.587 247.663 Q492.306 247.804 491.673 247.804 Q490.081 247.804 489.214 248.202 Q488.371 248.6 488.371 249.233 L491.627 274.622 L506.359 251.2 Q507.085 250.099 507.085 249.373 Q507.085 247.968 504.86 247.804 Q504.111 247.804 504.111 247.218 Q504.111 246.797 504.298 246.586 Q504.485 246.352 504.626 246.328 Q504.79 246.305 505.024 246.305 Q505.797 246.305 507.366 246.375 Q508.959 246.445 509.755 246.445 Q510.411 246.445 511.746 246.375 Q513.081 246.305 513.69 246.305 Q514.323 246.305 514.323 246.89 Z" fill="#000000" fill-rule="nonzero" fill-opacity="1" /><path clip-path="url(#clip870)" d="M531.468 284.483 Q531.468 286.844 530.271 289.156 Q529.09 291.451 527.189 292.894 Q525.303 294.337 523.368 294.337 Q521.483 294.337 520.286 292.894 Q519.105 291.435 519.105 289.058 Q519.105 288.221 519.204 287.631 Q519.302 287.041 519.647 285.664 L522.401 274.711 Q522.876 272.662 522.876 272.646 Q522.876 272.449 522.794 272.35 Q522.729 272.236 522.335 272.154 Q521.942 272.072 521.188 272.072 Q520.876 272.072 520.729 272.055 Q520.597 272.039 520.483 271.957 Q520.384 271.859 520.384 271.662 Q520.384 271.383 520.499 271.235 Q520.63 271.072 520.729 271.039 Q520.827 271.006 521.024 270.99 Q521.302 270.973 522.237 270.891 Q523.172 270.793 523.975 270.727 Q524.778 270.662 525.123 270.662 Q525.319 270.662 525.418 270.76 Q525.533 270.842 525.533 270.94 L525.549 271.022 L523.073 281.138 Q525.024 279.122 527.008 279.122 Q528.992 279.122 530.222 280.647 Q531.468 282.171 531.468 284.483 M529.041 283.008 Q529.041 281.45 528.451 280.663 Q527.877 279.86 526.926 279.86 Q526.123 279.86 525.073 280.466 Q524.024 281.073 522.909 282.549 Q522.696 282.827 522.614 282.991 Q522.549 283.155 522.401 283.713 L521.663 286.811 Q521.122 288.926 521.122 290.205 Q521.122 291.943 521.762 292.763 Q522.401 293.583 523.368 293.583 Q524.385 293.583 525.451 292.681 Q526.516 291.779 527.336 290.14 Q527.844 289.058 528.435 286.729 Q529.041 284.385 529.041 283.008 Z" fill="#000000" fill-rule="nonzero" fill-opacity="1" /><path clip-path="url(#clip870)" d="M549.769 271.788 Q549.816 271.203 550.73 271.203 L580.125 271.203 Q581.507 271.203 581.53 271.742 Q581.53 272.327 580.218 272.304 L551.057 272.304 Q549.769 272.327 549.769 271.788 M549.769 262.419 Q549.769 261.834 550.776 261.857 L580.078 261.857 Q581.507 261.857 581.53 262.419 Q581.53 262.958 580.312 262.958 L550.73 262.958 Q549.769 262.958 549.769 262.419 Z" fill="#000000" fill-rule="nonzero" fill-opacity="1" /><path clip-path="url(#clip870)" d="M600.021 251.692 L600.021 250.193 Q605.783 250.193 608.758 247.125 Q609.577 247.125 609.718 247.312 Q609.858 247.499 609.858 248.366 L609.858 275.278 Q609.858 276.707 610.561 277.152 Q611.264 277.597 614.332 277.597 L615.855 277.597 L615.855 279.073 Q614.168 278.932 608.078 278.932 Q601.988 278.932 600.325 279.073 L600.325 277.597 L601.848 277.597 Q604.869 277.597 605.595 277.176 Q606.322 276.731 606.322 275.278 L606.322 250.427 Q603.815 251.692 600.021 251.692 Z" fill="#000000" fill-rule="nonzero" fill-opacity="1" /><path clip-path="url(#clip870)" d="M618.168 263.731 Q618.168 256.681 619.948 252.84 Q622.431 247.125 628.286 247.125 Q629.528 247.125 630.816 247.476 Q632.128 247.804 633.767 249.092 Q635.43 250.38 636.437 252.488 Q638.358 256.564 638.358 263.731 Q638.358 270.734 636.578 274.552 Q633.978 280.127 628.24 280.127 Q626.085 280.127 623.883 279.026 Q621.705 277.925 620.323 275.278 Q618.168 271.32 618.168 263.731 M622.15 263.145 Q622.15 270.383 622.665 273.264 Q623.251 276.379 624.843 277.738 Q626.459 279.073 628.24 279.073 Q630.16 279.073 631.753 277.644 Q633.369 276.192 633.861 273.077 Q634.4 270.008 634.376 263.145 Q634.376 256.47 633.908 253.8 Q633.275 250.685 631.589 249.443 Q629.926 248.179 628.24 248.179 Q627.607 248.179 626.928 248.366 Q626.272 248.553 625.312 249.092 Q624.351 249.631 623.602 250.966 Q622.876 252.301 622.525 254.315 Q622.15 256.915 622.15 263.145 Z" fill="#000000" fill-rule="nonzero" fill-opacity="1" /><path clip-path="url(#clip870)" d="M642.644 278.3 Q641.918 277.527 641.918 276.52 Q641.918 275.513 642.644 274.786 Q643.37 274.037 644.471 274.037 Q645.525 274.037 646.228 274.74 Q646.954 275.419 646.954 276.543 Q646.954 277.644 646.181 278.37 Q645.431 279.073 644.471 279.073 Q643.37 279.073 642.644 278.3 Z" fill="#000000" fill-rule="nonzero" fill-opacity="1" /><path clip-path="url(#clip870)" d="M655.115 271.343 Q655.115 269.915 655.888 269.376 Q656.661 268.814 657.481 268.814 Q658.581 268.814 659.214 269.516 Q659.87 270.196 659.87 271.156 Q659.87 272.116 659.214 272.819 Q658.581 273.498 657.481 273.498 Q656.942 273.498 656.661 273.405 Q657.293 275.606 659.214 277.199 Q661.158 278.792 663.711 278.792 Q666.92 278.792 668.841 275.676 Q669.988 273.662 669.988 269.095 Q669.988 265.066 669.122 263.052 Q667.787 259.983 665.046 259.983 Q661.158 259.983 658.863 263.333 Q658.581 263.754 658.254 263.778 Q657.785 263.778 657.668 263.52 Q657.574 263.239 657.574 262.513 L657.574 248.319 Q657.574 247.171 658.043 247.171 Q658.23 247.171 658.628 247.312 Q661.65 248.647 664.999 248.67 Q668.442 248.67 671.534 247.265 Q671.768 247.125 671.909 247.125 Q672.377 247.125 672.401 247.663 Q672.401 247.851 672.003 248.413 Q671.628 248.951 670.808 249.678 Q669.988 250.38 668.934 251.06 Q667.88 251.739 666.334 252.207 Q664.812 252.652 663.125 252.652 Q661.111 252.652 659.05 252.02 L659.05 261.365 Q661.533 258.929 665.14 258.929 Q668.981 258.929 671.628 262.021 Q674.275 265.113 674.275 269.423 Q674.275 273.943 671.136 277.035 Q668.021 280.127 663.805 280.127 Q659.963 280.127 657.527 277.386 Q655.115 274.646 655.115 271.343 Z" fill="#000000" fill-rule="nonzero" fill-opacity="1" /><path clip-path="url(#clip870)" d="M678.865 247.804 L678.865 246.305 Q684.041 246.445 684.955 246.445 Q690.084 246.445 691.818 246.305 L691.818 247.804 Q687.883 247.804 687.883 249.186 Q687.883 249.373 688.164 250.052 L697.322 274.271 L706.105 251.153 Q706.339 250.427 706.339 250.193 Q706.339 249.233 705.449 248.553 Q704.583 247.851 702.85 247.804 L702.85 246.305 Q706.597 246.445 708.307 246.445 Q710.743 246.445 712.968 246.305 L712.968 247.804 Q708.939 247.851 707.745 251.013 L697.041 279.213 Q696.853 279.799 696.666 279.963 Q696.479 280.127 695.893 280.127 Q695.425 280.127 695.167 279.939 Q694.933 279.752 694.699 279.073 L683.573 249.631 Q683.104 248.343 682.261 248.085 Q681.418 247.804 678.865 247.804 Z" fill="#000000" fill-rule="nonzero" fill-opacity="1" /></svg>
