<?xml version="1.0" encoding="utf-8"?>
<svg xmlns="http://www.w3.org/2000/svg" xmlns:xlink="http://www.w3.org/1999/xlink" width="600" height="400" viewBox="0 0 2400 1600">
<defs>
  <clipPath id="clip450">
    <rect x="0" y="0" width="2400" height="1600"/>
  </clipPath>
</defs>
<path clip-path="url(#clip450)" d="M0 1600 L2400 1600 L2400 0 L0 0  Z" fill="#ffffff" fill-rule="evenodd" fill-opacity="1"/>
<defs>
  <clipPath id="clip451">
    <rect x="480" y="0" width="1681" height="1600"/>
  </clipPath>
</defs>
<path clip-path="url(#clip450)" d="M175.445 1423.18 L2352.76 1423.18 L2352.76 123.472 L175.445 123.472  Z" fill="#ffffff" fill-rule="evenodd" fill-opacity="1"/>
<defs>
  <clipPath id="clip452">
    <rect x="175" y="123" width="2178" height="1301"/>
  </clipPath>
</defs>
<polyline clip-path="url(#clip452)" style="stroke:#000000; stroke-linecap:round; stroke-linejoin:round; stroke-width:2; stroke-opacity:0.1; fill:none" points="523.533,1423.18 523.533,123.472 "/>
<polyline clip-path="url(#clip452)" style="stroke:#000000; stroke-linecap:round; stroke-linejoin:round; stroke-width:2; stroke-opacity:0.1; fill:none" points="947.927,1423.18 947.927,123.472 "/>
<polyline clip-path="url(#clip452)" style="stroke:#000000; stroke-linecap:round; stroke-linejoin:round; stroke-width:2; stroke-opacity:0.1; fill:none" points="1372.32,1423.18 1372.32,123.472 "/>
<polyline clip-path="url(#clip452)" style="stroke:#000000; stroke-linecap:round; stroke-linejoin:round; stroke-width:2; stroke-opacity:0.1; fill:none" points="1796.71,1423.18 1796.71,123.472 "/>
<polyline clip-path="url(#clip452)" style="stroke:#000000; stroke-linecap:round; stroke-linejoin:round; stroke-width:2; stroke-opacity:0.1; fill:none" points="2221.11,1423.18 2221.11,123.472 "/>
<polyline clip-path="url(#clip452)" style="stroke:#000000; stroke-linecap:round; stroke-linejoin:round; stroke-width:2; stroke-opacity:0.1; fill:none" points="175.445,1423.18 2352.76,1423.18 "/>
<polyline clip-path="url(#clip452)" style="stroke:#000000; stroke-linecap:round; stroke-linejoin:round; stroke-width:2; stroke-opacity:0.1; fill:none" points="175.445,1098.25 2352.76,1098.25 "/>
<polyline clip-path="url(#clip452)" style="stroke:#000000; stroke-linecap:round; stroke-linejoin:round; stroke-width:2; stroke-opacity:0.1; fill:none" points="175.445,773.326 2352.76,773.326 "/>
<polyline clip-path="url(#clip452)" style="stroke:#000000; stroke-linecap:round; stroke-linejoin:round; stroke-width:2; stroke-opacity:0.1; fill:none" points="175.445,448.399 2352.76,448.399 "/>
<polyline clip-path="url(#clip452)" style="stroke:#000000; stroke-linecap:round; stroke-linejoin:round; stroke-width:2; stroke-opacity:0.1; fill:none" points="175.445,123.472 2352.76,123.472 "/>
<polyline clip-path="url(#clip450)" style="stroke:#000000; stroke-linecap:round; stroke-linejoin:round; stroke-width:4; stroke-opacity:1; fill:none" points="175.445,1423.18 2352.76,1423.18 "/>
<polyline clip-path="url(#clip450)" style="stroke:#000000; stroke-linecap:round; stroke-linejoin:round; stroke-width:4; stroke-opacity:1; fill:none" points="523.533,1423.18 523.533,1404.28 "/>
<polyline clip-path="url(#clip450)" style="stroke:#000000; stroke-linecap:round; stroke-linejoin:round; stroke-width:4; stroke-opacity:1; fill:none" points="947.927,1423.18 947.927,1404.28 "/>
<polyline clip-path="url(#clip450)" style="stroke:#000000; stroke-linecap:round; stroke-linejoin:round; stroke-width:4; stroke-opacity:1; fill:none" points="1372.32,1423.18 1372.32,1404.28 "/>
<polyline clip-path="url(#clip450)" style="stroke:#000000; stroke-linecap:round; stroke-linejoin:round; stroke-width:4; stroke-opacity:1; fill:none" points="1796.71,1423.18 1796.71,1404.28 "/>
<polyline clip-path="url(#clip450)" style="stroke:#000000; stroke-linecap:round; stroke-linejoin:round; stroke-width:4; stroke-opacity:1; fill:none" points="2221.11,1423.18 2221.11,1404.28 "/>
<path clip-path="url(#clip450)" d="M501.716 1454.1 Q498.105 1454.1 496.276 1457.66 Q494.471 1461.2 494.471 1468.33 Q494.471 1475.44 496.276 1479.01 Q498.105 1482.55 501.716 1482.55 Q505.35 1482.55 507.156 1479.01 Q508.985 1475.44 508.985 1468.33 Q508.985 1461.2 507.156 1457.66 Q505.35 1454.1 501.716 1454.1 M501.716 1450.39 Q507.526 1450.39 510.582 1455 Q513.66 1459.58 513.66 1468.33 Q513.66 1477.06 510.582 1481.67 Q507.526 1486.25 501.716 1486.25 Q495.906 1486.25 492.827 1481.67 Q489.772 1477.06 489.772 1468.33 Q489.772 1459.58 492.827 1455 Q495.906 1450.39 501.716 1450.39 Z" fill="#000000" fill-rule="nonzero" fill-opacity="1" /><path clip-path="url(#clip450)" d="M521.878 1479.7 L526.762 1479.7 L526.762 1485.58 L521.878 1485.58 L521.878 1479.7 Z" fill="#000000" fill-rule="nonzero" fill-opacity="1" /><path clip-path="url(#clip450)" d="M540.975 1481.64 L557.295 1481.64 L557.295 1485.58 L535.35 1485.58 L535.35 1481.64 Q538.012 1478.89 542.596 1474.26 Q547.202 1469.61 548.383 1468.27 Q550.628 1465.74 551.508 1464.01 Q552.41 1462.25 552.41 1460.56 Q552.41 1457.8 550.466 1456.07 Q548.545 1454.33 545.443 1454.33 Q543.244 1454.33 540.79 1455.09 Q538.359 1455.86 535.582 1457.41 L535.582 1452.69 Q538.406 1451.55 540.859 1450.97 Q543.313 1450.39 545.35 1450.39 Q550.72 1450.39 553.915 1453.08 Q557.109 1455.77 557.109 1460.26 Q557.109 1462.39 556.299 1464.31 Q555.512 1466.2 553.406 1468.8 Q552.827 1469.47 549.725 1472.69 Q546.623 1475.88 540.975 1481.64 Z" fill="#000000" fill-rule="nonzero" fill-opacity="1" /><path clip-path="url(#clip450)" d="M925.068 1454.1 Q921.457 1454.1 919.629 1457.66 Q917.823 1461.2 917.823 1468.33 Q917.823 1475.44 919.629 1479.01 Q921.457 1482.55 925.068 1482.55 Q928.703 1482.55 930.508 1479.01 Q932.337 1475.44 932.337 1468.33 Q932.337 1461.2 930.508 1457.66 Q928.703 1454.1 925.068 1454.1 M925.068 1450.39 Q930.879 1450.39 933.934 1455 Q937.013 1459.58 937.013 1468.33 Q937.013 1477.06 933.934 1481.67 Q930.879 1486.25 925.068 1486.25 Q919.258 1486.25 916.18 1481.67 Q913.124 1477.06 913.124 1468.33 Q913.124 1459.58 916.18 1455 Q919.258 1450.39 925.068 1450.39 Z" fill="#000000" fill-rule="nonzero" fill-opacity="1" /><path clip-path="url(#clip450)" d="M945.23 1479.7 L950.115 1479.7 L950.115 1485.58 L945.23 1485.58 L945.23 1479.7 Z" fill="#000000" fill-rule="nonzero" fill-opacity="1" /><path clip-path="url(#clip450)" d="M973.147 1455.09 L961.341 1473.54 L973.147 1473.54 L973.147 1455.09 M971.92 1451.02 L977.8 1451.02 L977.8 1473.54 L982.73 1473.54 L982.73 1477.43 L977.8 1477.43 L977.8 1485.58 L973.147 1485.58 L973.147 1477.43 L957.545 1477.43 L957.545 1472.92 L971.92 1451.02 Z" fill="#000000" fill-rule="nonzero" fill-opacity="1" /><path clip-path="url(#clip450)" d="M1349.62 1454.1 Q1346.01 1454.1 1344.18 1457.66 Q1342.38 1461.2 1342.38 1468.33 Q1342.38 1475.44 1344.18 1479.01 Q1346.01 1482.55 1349.62 1482.55 Q1353.26 1482.55 1355.06 1479.01 Q1356.89 1475.44 1356.89 1468.33 Q1356.89 1461.2 1355.06 1457.66 Q1353.26 1454.1 1349.62 1454.1 M1349.62 1450.39 Q1355.43 1450.39 1358.49 1455 Q1361.57 1459.58 1361.57 1468.33 Q1361.57 1477.06 1358.49 1481.67 Q1355.43 1486.25 1349.62 1486.25 Q1343.81 1486.25 1340.74 1481.67 Q1337.68 1477.06 1337.68 1468.33 Q1337.68 1459.58 1340.74 1455 Q1343.81 1450.39 1349.62 1450.39 Z" fill="#000000" fill-rule="nonzero" fill-opacity="1" /><path clip-path="url(#clip450)" d="M1369.79 1479.7 L1374.67 1479.7 L1374.67 1485.58 L1369.79 1485.58 L1369.79 1479.7 Z" fill="#000000" fill-rule="nonzero" fill-opacity="1" /><path clip-path="url(#clip450)" d="M1395.43 1466.44 Q1392.29 1466.44 1390.43 1468.59 Q1388.61 1470.74 1388.61 1474.49 Q1388.61 1478.22 1390.43 1480.39 Q1392.29 1482.55 1395.43 1482.55 Q1398.58 1482.55 1400.41 1480.39 Q1402.26 1478.22 1402.26 1474.49 Q1402.26 1470.74 1400.41 1468.59 Q1398.58 1466.44 1395.43 1466.44 M1404.72 1451.78 L1404.72 1456.04 Q1402.96 1455.21 1401.15 1454.77 Q1399.37 1454.33 1397.61 1454.33 Q1392.98 1454.33 1390.53 1457.45 Q1388.1 1460.58 1387.75 1466.9 Q1389.11 1464.89 1391.18 1463.82 Q1393.24 1462.73 1395.71 1462.73 Q1400.92 1462.73 1403.93 1465.9 Q1406.96 1469.05 1406.96 1474.49 Q1406.96 1479.82 1403.81 1483.03 Q1400.67 1486.25 1395.43 1486.25 Q1389.44 1486.25 1386.27 1481.67 Q1383.1 1477.06 1383.1 1468.33 Q1383.1 1460.14 1386.99 1455.28 Q1390.87 1450.39 1397.43 1450.39 Q1399.18 1450.39 1400.97 1450.74 Q1402.77 1451.09 1404.72 1451.78 Z" fill="#000000" fill-rule="nonzero" fill-opacity="1" /><path clip-path="url(#clip450)" d="M1774.15 1454.1 Q1770.53 1454.1 1768.71 1457.66 Q1766.9 1461.2 1766.9 1468.33 Q1766.9 1475.44 1768.71 1479.01 Q1770.53 1482.55 1774.15 1482.55 Q1777.78 1482.55 1779.59 1479.01 Q1781.41 1475.44 1781.41 1468.33 Q1781.41 1461.2 1779.59 1457.66 Q1777.78 1454.1 1774.15 1454.1 M1774.15 1450.39 Q1779.96 1450.39 1783.01 1455 Q1786.09 1459.58 1786.09 1468.33 Q1786.09 1477.06 1783.01 1481.67 Q1779.96 1486.25 1774.15 1486.25 Q1768.34 1486.25 1765.26 1481.67 Q1762.2 1477.06 1762.2 1468.33 Q1762.2 1459.58 1765.26 1455 Q1768.34 1450.39 1774.15 1450.39 Z" fill="#000000" fill-rule="nonzero" fill-opacity="1" /><path clip-path="url(#clip450)" d="M1794.31 1479.7 L1799.19 1479.7 L1799.19 1485.58 L1794.31 1485.58 L1794.31 1479.7 Z" fill="#000000" fill-rule="nonzero" fill-opacity="1" /><path clip-path="url(#clip450)" d="M1819.38 1469.17 Q1816.04 1469.17 1814.12 1470.95 Q1812.22 1472.73 1812.22 1475.86 Q1812.22 1478.98 1814.12 1480.77 Q1816.04 1482.55 1819.38 1482.55 Q1822.71 1482.55 1824.63 1480.77 Q1826.55 1478.96 1826.55 1475.86 Q1826.55 1472.73 1824.63 1470.95 Q1822.73 1469.17 1819.38 1469.17 M1814.7 1467.18 Q1811.69 1466.44 1810 1464.38 Q1808.34 1462.32 1808.34 1459.35 Q1808.34 1455.21 1811.28 1452.8 Q1814.24 1450.39 1819.38 1450.39 Q1824.54 1450.39 1827.48 1452.8 Q1830.42 1455.21 1830.42 1459.35 Q1830.42 1462.32 1828.73 1464.38 Q1827.06 1466.44 1824.08 1467.18 Q1827.46 1467.96 1829.33 1470.26 Q1831.23 1472.55 1831.23 1475.86 Q1831.23 1480.88 1828.15 1483.57 Q1825.09 1486.25 1819.38 1486.25 Q1813.66 1486.25 1810.58 1483.57 Q1807.53 1480.88 1807.53 1475.86 Q1807.53 1472.55 1809.42 1470.26 Q1811.32 1467.96 1814.7 1467.18 M1812.99 1459.79 Q1812.99 1462.48 1814.65 1463.98 Q1816.34 1465.49 1819.38 1465.49 Q1822.39 1465.49 1824.08 1463.98 Q1825.79 1462.48 1825.79 1459.79 Q1825.79 1457.11 1824.08 1455.6 Q1822.39 1454.1 1819.38 1454.1 Q1816.34 1454.1 1814.65 1455.6 Q1812.99 1457.11 1812.99 1459.79 Z" fill="#000000" fill-rule="nonzero" fill-opacity="1" /><path clip-path="url(#clip450)" d="M2188.26 1481.64 L2195.9 1481.64 L2195.9 1455.28 L2187.59 1456.95 L2187.59 1452.69 L2195.85 1451.02 L2200.53 1451.02 L2200.53 1481.64 L2208.17 1481.64 L2208.17 1485.58 L2188.26 1485.58 L2188.26 1481.64 Z" fill="#000000" fill-rule="nonzero" fill-opacity="1" /><path clip-path="url(#clip450)" d="M2217.61 1479.7 L2222.5 1479.7 L2222.5 1485.58 L2217.61 1485.58 L2217.61 1479.7 Z" fill="#000000" fill-rule="nonzero" fill-opacity="1" /><path clip-path="url(#clip450)" d="M2242.68 1454.1 Q2239.07 1454.1 2237.24 1457.66 Q2235.44 1461.2 2235.44 1468.33 Q2235.44 1475.44 2237.24 1479.01 Q2239.07 1482.55 2242.68 1482.55 Q2246.32 1482.55 2248.12 1479.01 Q2249.95 1475.44 2249.95 1468.33 Q2249.95 1461.2 2248.12 1457.66 Q2246.32 1454.1 2242.68 1454.1 M2242.68 1450.39 Q2248.49 1450.39 2251.55 1455 Q2254.63 1459.58 2254.63 1468.33 Q2254.63 1477.06 2251.55 1481.67 Q2248.49 1486.25 2242.68 1486.25 Q2236.87 1486.25 2233.79 1481.67 Q2230.74 1477.06 2230.74 1468.33 Q2230.74 1459.58 2233.79 1455 Q2236.87 1450.39 2242.68 1450.39 Z" fill="#000000" fill-rule="nonzero" fill-opacity="1" /><path clip-path="url(#clip450)" d="M1146.93 1553.94 L1146.93 1551.91 L1148.51 1551.91 Q1152.09 1551.91 1152.89 1551.33 Q1153.73 1550.72 1153.73 1548.79 L1153.73 1514.04 Q1153.73 1512.14 1152.89 1511.56 Q1152.05 1510.95 1148.51 1510.95 L1146.93 1510.95 L1146.93 1508.89 L1167.64 1508.89 Q1174.82 1508.89 1179.81 1512.43 Q1184.84 1515.94 1184.84 1520.77 Q1184.84 1524.47 1181.59 1527.37 Q1178.33 1530.27 1173.31 1531.53 Q1179.85 1533.78 1181.36 1539.16 L1182.2 1544.44 Q1182.46 1546.34 1182.62 1547.31 Q1182.81 1548.27 1183.1 1549.59 Q1183.39 1550.91 1183.68 1551.56 Q1184 1552.17 1184.45 1552.85 Q1184.9 1553.49 1185.48 1553.72 Q1186.09 1553.94 1186.9 1553.94 Q1188.41 1553.94 1189.7 1552.59 Q1190.99 1551.24 1191.25 1548.08 Q1191.38 1547.02 1192.05 1547.02 Q1192.89 1547.02 1192.89 1548.08 Q1192.89 1549.01 1192.63 1550.11 Q1192.37 1551.17 1191.73 1552.43 Q1191.12 1553.68 1189.77 1554.52 Q1188.41 1555.39 1186.64 1555.39 Q1181.49 1555.39 1178.33 1552.62 Q1177.01 1551.43 1176.4 1549.88 Q1175.82 1548.34 1175.72 1547.11 Q1175.63 1545.89 1175.63 1543.19 Q1175.63 1539.35 1175.21 1537.68 Q1174.82 1536 1173.12 1534.36 Q1170.8 1532.11 1166.96 1532.11 L1159.4 1532.11 L1159.4 1548.79 Q1159.4 1550.69 1160.2 1551.3 Q1161.04 1551.91 1164.61 1551.91 L1166.19 1551.91 L1166.19 1553.94 Q1163.81 1553.75 1156.56 1553.75 Q1149.32 1553.75 1146.93 1553.94 M1159.4 1530.66 L1166.71 1530.66 Q1170.22 1530.66 1172.57 1529.82 Q1174.95 1528.95 1176.08 1527.4 Q1177.21 1525.86 1177.62 1524.31 Q1178.04 1522.73 1178.04 1520.77 Q1178.04 1518.45 1177.53 1516.71 Q1177.01 1514.97 1175.89 1513.94 Q1174.76 1512.91 1173.63 1512.27 Q1172.5 1511.59 1170.76 1511.33 Q1169.03 1511.08 1167.83 1511.01 Q1166.64 1510.95 1164.74 1510.95 Q1161.52 1510.95 1160.85 1511.08 Q1160.1 1511.14 1159.81 1511.49 Q1159.52 1511.85 1159.46 1512.27 Q1159.4 1512.65 1159.4 1513.59 L1159.4 1530.66 Z" fill="#000000" fill-rule="nonzero" fill-opacity="1" /><path clip-path="url(#clip450)" d="M1199.49 1574.12 L1199.49 1572.7 L1200.59 1572.7 Q1203.1 1572.7 1203.66 1572.3 Q1204.24 1571.87 1204.24 1570.51 L1204.24 1546.19 Q1204.24 1544.86 1203.66 1544.45 Q1203.07 1544.03 1200.59 1544.03 L1199.49 1544.03 L1199.49 1542.58 Q1201.11 1542.72 1206.5 1542.72 Q1212.59 1542.72 1214.25 1542.58 L1214.25 1544.03 L1212.72 1544.03 Q1210.6 1544.03 1209.63 1544.3 Q1208.66 1544.57 1208.51 1544.95 Q1208.35 1545.31 1208.35 1546.23 L1208.35 1570.85 Q1208.35 1572.05 1208.69 1572.39 Q1209.05 1572.7 1210.6 1572.7 L1214.39 1572.7 Q1216.73 1572.7 1218.43 1572 Q1220.12 1571.3 1221.02 1570.42 Q1221.92 1569.55 1222.51 1567.9 Q1223.11 1566.23 1223.29 1565.17 Q1223.5 1564.11 1223.68 1562.22 L1224.83 1562.22 L1223.54 1574.12 L1199.49 1574.12 Z" fill="#000000" fill-rule="nonzero" fill-opacity="1" /><path clip-path="url(#clip450)" d="M1249.05 1537.45 Q1249.05 1526.31 1253.2 1517.32 Q1254.98 1513.56 1257.46 1510.4 Q1259.94 1507.24 1261.58 1505.86 Q1263.22 1504.47 1263.67 1504.47 Q1264.32 1504.47 1264.35 1505.12 Q1264.35 1505.44 1263.48 1506.24 Q1252.85 1517.07 1252.88 1537.45 Q1252.88 1557.9 1263.22 1568.31 Q1264.35 1569.43 1264.35 1569.79 Q1264.35 1570.43 1263.67 1570.43 Q1263.22 1570.43 1261.64 1569.11 Q1260.06 1567.79 1257.62 1564.76 Q1255.17 1561.74 1253.4 1558.03 Q1249.05 1549.05 1249.05 1537.45 Z" fill="#000000" fill-rule="nonzero" fill-opacity="1" /><path clip-path="url(#clip450)" d="M1270.42 1553.94 L1270.42 1551.91 Q1273.93 1551.91 1274.73 1551.49 Q1275.57 1551.04 1275.57 1548.92 L1275.57 1514.62 Q1275.57 1512.17 1274.7 1511.56 Q1273.86 1510.95 1270.42 1510.95 L1270.42 1508.89 L1279.92 1508.18 L1279.92 1539.84 L1289.23 1531.78 Q1290.67 1530.53 1290.67 1529.21 Q1290.67 1527.69 1288.77 1527.57 L1288.77 1525.5 Q1291.54 1525.7 1296.15 1525.7 Q1298.85 1525.7 1300.75 1525.5 L1300.75 1527.57 Q1296.6 1527.76 1292.45 1531.11 Q1291.51 1531.85 1289.29 1533.78 Q1287.1 1535.68 1287.1 1535.87 Q1287.1 1535.94 1287.16 1536.1 Q1287.26 1536.26 1287.39 1536.39 Q1287.52 1536.52 1287.52 1536.58 L1295.89 1548.4 Q1297.6 1550.79 1298.85 1551.37 Q1300.11 1551.91 1302.3 1551.91 L1302.3 1553.94 Q1299.47 1553.75 1296.54 1553.75 Q1294.96 1553.75 1289.42 1553.94 L1289.42 1551.91 Q1291.8 1551.91 1291.8 1550.37 Q1291.8 1549.3 1286.46 1541.93 Q1286.07 1541.41 1285.2 1540.29 Q1284.39 1539.09 1283.94 1538.52 L1279.72 1542.12 L1279.72 1548.92 Q1279.72 1551.04 1280.53 1551.49 Q1281.37 1551.91 1284.88 1551.91 L1284.88 1553.94 Q1280.92 1553.75 1277.63 1553.75 Q1276.95 1553.75 1270.42 1553.94 Z" fill="#000000" fill-rule="nonzero" fill-opacity="1" /><path clip-path="url(#clip450)" d="M1307.74 1543.25 L1309.38 1543.25 Q1310.32 1547.73 1310.77 1548.4 Q1311.41 1549.53 1314.21 1549.66 Q1314.79 1549.66 1315.79 1549.66 L1320.2 1549.66 Q1319.4 1546.63 1317.37 1543.15 Q1315.34 1539.64 1313.41 1537.03 Q1311.51 1534.43 1309.99 1530.88 Q1308.48 1527.31 1308.48 1523.93 Q1308.48 1517.19 1314.28 1512.33 Q1320.07 1507.44 1328.58 1507.44 Q1337.08 1507.44 1342.91 1512.3 Q1348.77 1517.13 1348.77 1523.93 Q1348.77 1527.28 1347.26 1530.82 Q1345.74 1534.36 1343.84 1536.97 Q1341.97 1539.58 1339.88 1543.12 Q1337.82 1546.63 1337.01 1549.66 L1341.52 1549.66 Q1345.23 1549.66 1345.97 1548.98 Q1346.71 1548.27 1347.51 1544.57 Q1347.64 1543.7 1347.77 1543.25 L1349.48 1543.25 L1347.32 1553.94 L1336.76 1553.94 Q1335.89 1553.94 1335.5 1553.68 Q1335.11 1553.43 1335.11 1552.49 Q1335.11 1548.02 1338.53 1538.39 Q1341.97 1528.76 1341.97 1523.93 Q1341.97 1516.74 1337.88 1512.81 Q1333.79 1508.89 1328.58 1508.89 Q1323.42 1508.89 1319.33 1512.78 Q1315.28 1516.68 1315.28 1523.93 Q1315.28 1528.82 1318.69 1538.42 Q1322.14 1548.02 1322.14 1552.43 Q1322.14 1553.49 1321.72 1553.72 Q1321.33 1553.94 1320.01 1553.94 L1309.93 1553.94 L1307.74 1543.25 Z" fill="#000000" fill-rule="nonzero" fill-opacity="1" /><path clip-path="url(#clip450)" d="M1355.94 1569.79 Q1355.94 1569.47 1356.78 1568.66 Q1367.41 1557.84 1367.41 1537.45 Q1367.41 1517 1357.2 1506.66 Q1355.94 1505.47 1355.94 1505.12 Q1355.94 1504.47 1356.59 1504.47 Q1357.04 1504.47 1358.61 1505.79 Q1360.22 1507.11 1362.64 1510.14 Q1365.09 1513.17 1366.89 1516.87 Q1371.24 1525.86 1371.24 1537.45 Q1371.24 1548.6 1367.08 1557.58 Q1365.31 1561.35 1362.83 1564.51 Q1360.35 1567.66 1358.71 1569.05 Q1357.07 1570.43 1356.59 1570.43 Q1355.94 1570.43 1355.94 1569.79 Z" fill="#000000" fill-rule="nonzero" fill-opacity="1" /><polyline clip-path="url(#clip450)" style="stroke:#000000; stroke-linecap:round; stroke-linejoin:round; stroke-width:4; stroke-opacity:1; fill:none" points="175.445,1423.18 175.445,123.472 "/>
<polyline clip-path="url(#clip450)" style="stroke:#000000; stroke-linecap:round; stroke-linejoin:round; stroke-width:4; stroke-opacity:1; fill:none" points="175.445,1423.18 194.343,1423.18 "/>
<polyline clip-path="url(#clip450)" style="stroke:#000000; stroke-linecap:round; stroke-linejoin:round; stroke-width:4; stroke-opacity:1; fill:none" points="175.445,1098.25 194.343,1098.25 "/>
<polyline clip-path="url(#clip450)" style="stroke:#000000; stroke-linecap:round; stroke-linejoin:round; stroke-width:4; stroke-opacity:1; fill:none" points="175.445,773.326 194.343,773.326 "/>
<polyline clip-path="url(#clip450)" style="stroke:#000000; stroke-linecap:round; stroke-linejoin:round; stroke-width:4; stroke-opacity:1; fill:none" points="175.445,448.399 194.343,448.399 "/>
<polyline clip-path="url(#clip450)" style="stroke:#000000; stroke-linecap:round; stroke-linejoin:round; stroke-width:4; stroke-opacity:1; fill:none" points="175.445,123.472 194.343,123.472 "/>
<path clip-path="url(#clip450)" d="M129.862 1409.97 L118.056 1428.42 L129.862 1428.42 L129.862 1409.97 M128.635 1405.9 L134.515 1405.9 L134.515 1428.42 L139.445 1428.42 L139.445 1432.31 L134.515 1432.31 L134.515 1440.46 L129.862 1440.46 L129.862 1432.31 L114.26 1432.31 L114.26 1427.8 L128.635 1405.9 Z" fill="#000000" fill-rule="nonzero" fill-opacity="1" /><path clip-path="url(#clip450)" d="M118.543 1080.97 L136.899 1080.97 L136.899 1084.91 L122.825 1084.91 L122.825 1093.38 Q123.843 1093.03 124.862 1092.87 Q125.88 1092.69 126.899 1092.69 Q132.686 1092.69 136.066 1095.86 Q139.445 1099.03 139.445 1104.45 Q139.445 1110.02 135.973 1113.13 Q132.501 1116.2 126.181 1116.2 Q124.005 1116.2 121.737 1115.83 Q119.492 1115.46 117.084 1114.72 L117.084 1110.02 Q119.168 1111.16 121.39 1111.71 Q123.612 1112.27 126.089 1112.27 Q130.093 1112.27 132.431 1110.16 Q134.769 1108.06 134.769 1104.45 Q134.769 1100.83 132.431 1098.73 Q130.093 1096.62 126.089 1096.62 Q124.214 1096.62 122.339 1097.04 Q120.487 1097.45 118.543 1098.33 L118.543 1080.97 Z" fill="#000000" fill-rule="nonzero" fill-opacity="1" /><path clip-path="url(#clip450)" d="M127.917 771.463 Q124.769 771.463 122.918 773.615 Q121.089 775.768 121.089 779.518 Q121.089 783.245 122.918 785.421 Q124.769 787.574 127.917 787.574 Q131.066 787.574 132.894 785.421 Q134.746 783.245 134.746 779.518 Q134.746 775.768 132.894 773.615 Q131.066 771.463 127.917 771.463 M137.2 756.81 L137.2 761.069 Q135.441 760.236 133.635 759.796 Q131.853 759.356 130.093 759.356 Q125.464 759.356 123.01 762.481 Q120.58 765.606 120.232 771.926 Q121.598 769.912 123.658 768.847 Q125.718 767.759 128.195 767.759 Q133.404 767.759 136.413 770.93 Q139.445 774.078 139.445 779.518 Q139.445 784.842 136.297 788.06 Q133.149 791.277 127.917 791.277 Q121.922 791.277 118.751 786.694 Q115.58 782.088 115.58 773.361 Q115.58 765.166 119.468 760.305 Q123.357 755.421 129.908 755.421 Q131.667 755.421 133.45 755.768 Q135.255 756.115 137.2 756.81 Z" fill="#000000" fill-rule="nonzero" fill-opacity="1" /><path clip-path="url(#clip450)" d="M117.223 431.119 L139.445 431.119 L139.445 433.11 L126.899 465.679 L122.015 465.679 L133.82 435.054 L117.223 435.054 L117.223 431.119 Z" fill="#000000" fill-rule="nonzero" fill-opacity="1" /><path clip-path="url(#clip450)" d="M127.593 124.34 Q124.26 124.34 122.339 126.123 Q120.441 127.905 120.441 131.03 Q120.441 134.155 122.339 135.937 Q124.26 137.72 127.593 137.72 Q130.927 137.72 132.848 135.937 Q134.769 134.132 134.769 131.03 Q134.769 127.905 132.848 126.123 Q130.95 124.34 127.593 124.34 M122.918 122.349 Q119.908 121.609 118.218 119.549 Q116.552 117.488 116.552 114.525 Q116.552 110.382 119.492 107.975 Q122.455 105.567 127.593 105.567 Q132.755 105.567 135.695 107.975 Q138.635 110.382 138.635 114.525 Q138.635 117.488 136.945 119.549 Q135.279 121.609 132.292 122.349 Q135.672 123.136 137.547 125.428 Q139.445 127.72 139.445 131.03 Q139.445 136.053 136.367 138.738 Q133.311 141.423 127.593 141.423 Q121.876 141.423 118.797 138.738 Q115.742 136.053 115.742 131.03 Q115.742 127.72 117.64 125.428 Q119.538 123.136 122.918 122.349 M121.205 114.965 Q121.205 117.65 122.871 119.155 Q124.561 120.66 127.593 120.66 Q130.603 120.66 132.292 119.155 Q134.005 117.65 134.005 114.965 Q134.005 112.28 132.292 110.775 Q130.603 109.271 127.593 109.271 Q124.561 109.271 122.871 110.775 Q121.205 112.28 121.205 114.965 Z" fill="#000000" fill-rule="nonzero" fill-opacity="1" /><path clip-path="url(#clip450)" d="M23.0893 878.595 L21.0281 878.595 Q21.2213 871.478 21.2213 870.222 Q21.2213 863.169 21.0281 860.785 L23.0893 860.785 Q23.0893 866.196 24.9894 866.196 Q25.2471 866.196 26.181 865.809 L59.4819 853.217 L27.6947 841.14 Q26.6963 840.818 26.3743 840.818 Q25.0538 840.818 24.1199 842.042 Q23.1537 843.233 23.0893 845.616 L21.0281 845.616 Q21.2213 840.463 21.2213 838.112 Q21.2213 834.763 21.0281 831.703 L23.0893 831.703 Q23.1537 837.243 27.5015 838.885 L66.2773 853.603 Q67.0825 853.861 67.3079 854.119 Q67.5334 854.376 67.5334 855.182 Q67.5334 855.826 67.2757 856.18 Q67.0181 856.502 66.0841 856.824 L25.6013 872.122 Q23.83 872.766 23.4757 873.925 Q23.0893 875.085 23.0893 878.595 Z" fill="#000000" fill-rule="nonzero" fill-opacity="1" /><path clip-path="url(#clip450)" d="M77.3399 822.074 Q74.319 825.118 69.9454 825.118 Q65.5493 825.118 62.348 822.142 Q59.1242 819.144 59.1242 814.86 Q59.1242 810.667 62.3255 807.669 Q65.5042 804.648 69.9454 804.648 Q74.2964 804.648 77.3173 807.691 Q80.3382 810.712 80.3382 814.905 Q80.3382 819.008 77.3399 822.074 M69.5622 821.285 Q74.0484 821.285 76.0774 820.113 Q79.1659 818.309 79.1659 814.86 Q79.1659 813.147 78.2416 811.727 Q77.3173 810.284 75.7618 809.495 Q73.7328 808.48 69.5622 808.48 Q65.121 808.48 63.1596 809.698 Q60.1613 811.501 60.1613 814.905 Q60.1613 816.393 60.9503 817.859 Q61.7168 819.301 63.2498 820.181 Q65.2788 821.285 69.5622 821.285 Z" fill="#000000" fill-rule="nonzero" fill-opacity="1" /><path clip-path="url(#clip450)" d="M49.5947 780.38 Q38.4515 780.38 29.466 776.225 Q25.6979 774.454 22.5418 771.974 Q19.3856 769.494 18.0007 767.852 Q16.6159 766.209 16.6159 765.758 Q16.6159 765.114 17.26 765.082 Q17.5821 765.082 18.3872 765.951 Q29.2084 776.579 49.5947 776.547 Q70.0454 776.547 80.4479 766.209 Q81.5751 765.082 81.9294 765.082 Q82.5735 765.082 82.5735 765.758 Q82.5735 766.209 81.2531 767.787 Q79.9326 769.365 76.9053 771.813 Q73.8779 774.261 70.1742 776.032 Q61.1888 780.38 49.5947 780.38 Z" fill="#000000" fill-rule="nonzero" fill-opacity="1" /><path clip-path="url(#clip450)" d="M23.0893 757.692 L21.0281 757.692 Q21.2213 750.575 21.2213 749.319 Q21.2213 742.266 21.0281 739.882 L23.0893 739.882 Q23.0893 745.293 24.9894 745.293 Q25.2471 745.293 26.181 744.907 L59.4819 732.314 L27.6947 720.237 Q26.6963 719.915 26.3743 719.915 Q25.0538 719.915 24.1199 721.139 Q23.1537 722.33 23.0893 724.713 L21.0281 724.713 Q21.2213 719.561 21.2213 717.209 Q21.2213 713.86 21.0281 710.801 L23.0893 710.801 Q23.1537 716.34 27.5015 717.982 L66.2773 732.7 Q67.0825 732.958 67.3079 733.216 Q67.5334 733.473 67.5334 734.279 Q67.5334 734.923 67.2757 735.277 Q67.0181 735.599 66.0841 735.921 L25.6013 751.219 Q23.83 751.863 23.4757 753.022 Q23.0893 754.182 23.0893 757.692 Z" fill="#000000" fill-rule="nonzero" fill-opacity="1" /><path clip-path="url(#clip450)" d="M81.9294 693.384 Q81.6073 693.384 80.8022 692.547 Q69.981 681.919 49.5947 681.919 Q29.144 681.919 18.8059 692.128 Q17.6143 693.384 17.26 693.384 Q16.6159 693.384 16.6159 692.74 Q16.6159 692.289 17.9363 690.711 Q19.2568 689.101 22.2841 686.685 Q25.3115 684.238 29.0151 682.434 Q38.0006 678.086 49.5947 678.086 Q60.7379 678.086 69.7234 682.241 Q73.4914 684.012 76.6476 686.492 Q79.8038 688.972 81.1886 690.614 Q82.5735 692.257 82.5735 692.74 Q82.5735 693.384 81.9294 693.384 Z" fill="#000000" fill-rule="nonzero" fill-opacity="1" /><path clip-path="url(#clip450)" d="M993.552 15.7137 L993.552 13.0903 Q1002.61 13.3363 1004.21 13.3363 Q1013.19 13.3363 1016.22 13.0903 L1016.22 15.7137 Q1009.33 15.7137 1009.33 18.132 Q1009.33 18.4599 1009.83 19.6486 L1025.85 62.0315 L1041.22 21.5751 Q1041.63 20.3045 1041.63 19.8946 Q1041.63 18.214 1040.08 17.0253 Q1038.56 15.7956 1035.53 15.7137 L1035.53 13.0903 Q1042.08 13.3363 1045.08 13.3363 Q1049.34 13.3363 1053.23 13.0903 L1053.23 15.7137 Q1046.18 15.7956 1044.09 21.3292 L1025.36 70.6803 Q1025.03 71.705 1024.7 71.9919 Q1024.38 72.2789 1023.35 72.2789 Q1022.53 72.2789 1022.08 71.9509 Q1021.67 71.623 1021.26 70.4343 L1001.79 18.9108 Q1000.97 16.6564 999.496 16.2055 Q998.02 15.7137 993.552 15.7137 Z" fill="#000000" fill-rule="nonzero" fill-opacity="1" /><path clip-path="url(#clip450)" d="M1065.48 84.7579 Q1061.61 80.9131 1061.61 75.3467 Q1061.61 69.7517 1065.39 65.6773 Q1069.21 61.5743 1074.66 61.5743 Q1080 61.5743 1083.81 65.6487 Q1087.66 69.6943 1087.66 75.3467 Q1087.66 80.8844 1083.79 84.7292 Q1079.94 88.574 1074.6 88.574 Q1069.38 88.574 1065.48 84.7579 M1066.48 74.8589 Q1066.48 80.5688 1067.98 83.1511 Q1070.27 87.0819 1074.66 87.0819 Q1076.84 87.0819 1078.65 85.9056 Q1080.49 84.7292 1081.49 82.7494 Q1082.78 80.1671 1082.78 74.8589 Q1082.78 69.2065 1081.23 66.7103 Q1078.94 62.8942 1074.6 62.8942 Q1072.71 62.8942 1070.85 63.8984 Q1069.01 64.874 1067.89 66.825 Q1066.48 69.4074 1066.48 74.8589 Z" fill="#000000" fill-rule="nonzero" fill-opacity="1" /><path clip-path="url(#clip450)" d="M1118.55 36.8641 L1118.55 34.2408 Q1122.32 34.4867 1126.71 34.4867 Q1128.3 34.4867 1135.85 34.2408 L1135.85 36.8641 Q1131.05 36.8641 1131.05 39.0366 Q1131.05 39.3645 1131.54 40.4712 L1140.97 63.8761 L1149.54 42.4797 Q1150.03 41.045 1150.03 40.4712 Q1150.03 39.0366 1149.04 38.0118 Q1148.1 36.9461 1146.01 36.8641 L1146.01 34.2408 Q1150.27 34.4867 1153.31 34.4867 Q1156.75 34.4867 1159.58 34.2408 L1159.58 36.8641 Q1157.08 36.8641 1155.32 38.0118 Q1153.55 39.1185 1152.98 40.1023 Q1152.45 41.045 1151.87 42.4797 L1140.89 69.7785 Q1140.23 71.3771 1139.13 71.3771 Q1138.39 71.3771 1138.06 71.0492 Q1137.77 70.7623 1137.36 69.7785 L1125.27 39.9793 Q1124.45 37.8889 1123.39 37.397 Q1122.32 36.8641 1118.55 36.8641 Z" fill="#000000" fill-rule="nonzero" fill-opacity="1" /><path clip-path="url(#clip450)" d="M1164.34 69.3276 L1164.34 58.2605 Q1164.34 57.3178 1164.38 56.9899 Q1164.42 56.6619 1164.66 56.416 Q1164.91 56.1701 1165.4 56.1701 Q1165.98 56.1701 1166.18 56.416 Q1166.43 56.6619 1166.59 57.6047 Q1167.86 63.3842 1170.57 66.4584 Q1173.31 69.4916 1178.27 69.4916 Q1182.99 69.4916 1185.36 67.4011 Q1187.74 65.3107 1187.74 61.8676 Q1187.74 55.7192 1179.01 54.1616 Q1173.97 53.1369 1171.88 52.481 Q1169.79 51.7842 1167.94 50.2676 Q1164.34 47.3164 1164.34 43.1355 Q1164.34 38.9546 1167.49 35.8804 Q1170.69 32.8062 1177.74 32.8062 Q1182.45 32.8062 1185.65 35.1836 Q1186.59 34.4458 1187.09 33.8309 Q1188.19 32.8062 1188.77 32.8062 Q1189.42 32.8062 1189.55 33.2571 Q1189.67 33.667 1189.67 34.8557 L1189.67 43.2994 Q1189.67 44.2422 1189.63 44.5701 Q1189.59 44.898 1189.34 45.144 Q1189.09 45.3489 1188.56 45.3489 Q1187.62 45.3489 1187.58 44.5701 Q1186.92 34.4048 1177.74 34.4048 Q1172.78 34.4048 1170.57 36.3313 Q1168.35 38.2168 1168.35 40.7991 Q1168.35 42.2337 1169.01 43.3404 Q1169.71 44.4062 1170.57 45.062 Q1171.47 45.6768 1173.11 46.2917 Q1174.75 46.8655 1175.73 47.0705 Q1176.76 47.2754 1178.68 47.6853 Q1185.41 48.956 1188.23 51.7022 Q1191.76 55.2273 1191.76 59.6952 Q1191.76 64.6549 1188.4 68.016 Q1185.04 71.3771 1178.27 71.3771 Q1172.82 71.3771 1169.01 67.7291 Q1168.52 68.2209 1168.15 68.6718 Q1167.78 69.0817 1167.62 69.2457 Q1167.49 69.4096 1167.45 69.5326 Q1167.41 69.6146 1167.33 69.6965 Q1165.65 71.3771 1165.24 71.3771 Q1164.58 71.3771 1164.46 70.9262 Q1164.34 70.5163 1164.34 69.3276 Z" fill="#000000" fill-rule="nonzero" fill-opacity="1" /><path clip-path="url(#clip450)" d="M1198.33 69.0817 Q1197.06 67.7291 1197.06 65.9665 Q1197.06 64.204 1198.33 62.9333 Q1199.6 61.6216 1201.53 61.6216 Q1203.37 61.6216 1204.6 62.8513 Q1205.87 64.04 1205.87 66.0075 Q1205.87 67.934 1204.52 69.2047 Q1203.21 70.4343 1201.53 70.4343 Q1199.6 70.4343 1198.33 69.0817 Z" fill="#000000" fill-rule="nonzero" fill-opacity="1" /><path clip-path="url(#clip450)" d="M1233.47 70.4343 L1233.47 67.852 L1235.47 67.852 Q1240.02 67.852 1241.05 67.1142 Q1242.11 66.3354 1242.11 63.8761 L1242.11 19.6486 Q1242.11 17.2303 1241.05 16.4925 Q1239.98 15.7137 1235.47 15.7137 L1233.47 15.7137 L1233.47 13.0903 L1259.82 13.0903 Q1268.96 13.0903 1275.32 17.5992 Q1281.71 22.067 1281.71 28.2154 Q1281.71 32.9292 1277.57 36.6182 Q1273.43 40.3072 1267.04 41.9058 Q1275.36 44.7751 1277.28 51.6203 L1278.35 58.3425 Q1278.68 60.7609 1278.88 61.9906 Q1279.13 63.2202 1279.5 64.9008 Q1279.87 66.5814 1280.23 67.4011 Q1280.64 68.1799 1281.22 69.0407 Q1281.79 69.8605 1282.53 70.1474 Q1283.31 70.4343 1284.33 70.4343 Q1286.26 70.4343 1287.9 68.7128 Q1289.54 66.9912 1289.87 62.9743 Q1290.03 61.6216 1290.89 61.6216 Q1291.96 61.6216 1291.96 62.9743 Q1291.96 64.163 1291.63 65.5566 Q1291.3 66.9093 1290.48 68.5078 Q1289.7 70.1064 1287.98 71.1722 Q1286.26 72.2789 1284.01 72.2789 Q1277.45 72.2789 1273.43 68.7538 Q1271.75 67.2372 1270.97 65.2697 Q1270.23 63.3022 1270.11 61.7446 Q1269.99 60.187 1269.99 56.7439 Q1269.99 51.8662 1269.45 49.7348 Q1268.96 47.6033 1266.79 45.5129 Q1263.84 42.6436 1258.96 42.6436 L1249.33 42.6436 L1249.33 63.8761 Q1249.33 66.2944 1250.35 67.0732 Q1251.42 67.852 1255.97 67.852 L1257.98 67.852 L1257.98 70.4343 Q1254.94 70.1884 1245.72 70.1884 Q1236.5 70.1884 1233.47 70.4343 M1249.33 40.7991 L1258.63 40.7991 Q1263.1 40.7991 1266.09 39.7334 Q1269.13 38.6267 1270.56 36.6592 Q1272 34.6917 1272.53 32.7242 Q1273.06 30.7157 1273.06 28.2154 Q1273.06 25.2642 1272.41 23.0507 Q1271.75 20.8373 1270.31 19.5257 Q1268.88 18.214 1267.45 17.3942 Q1266.01 16.5334 1263.8 16.2055 Q1261.58 15.8776 1260.07 15.7956 Q1258.55 15.7137 1256.13 15.7137 Q1252.03 15.7137 1251.17 15.8776 Q1250.23 15.9596 1249.86 16.4105 Q1249.49 16.8614 1249.41 17.3942 Q1249.33 17.8861 1249.33 19.0748 L1249.33 40.7991 Z" fill="#000000" fill-rule="nonzero" fill-opacity="1" /><path clip-path="url(#clip450)" d="M1300.35 96.1172 L1300.35 94.3095 L1301.75 94.3095 Q1304.94 94.3095 1305.66 93.7931 Q1306.4 93.2479 1306.4 91.5264 L1306.4 60.5672 Q1306.4 58.8743 1305.66 58.3578 Q1304.91 57.8127 1301.75 57.8127 L1300.35 57.8127 L1300.35 55.9764 Q1302.41 56.1485 1309.27 56.1485 Q1317.02 56.1485 1319.14 55.9764 L1319.14 57.8127 L1317.19 57.8127 Q1314.49 57.8127 1313.26 58.157 Q1312.03 58.5013 1311.82 58.9891 Q1311.62 59.4481 1311.62 60.6245 L1311.62 91.9567 Q1311.62 93.4774 1312.05 93.9078 Q1312.51 94.3095 1314.49 94.3095 L1319.31 94.3095 Q1322.3 94.3095 1324.45 93.4201 Q1326.6 92.5306 1327.75 91.4116 Q1328.9 90.2926 1329.64 88.198 Q1330.42 86.0748 1330.65 84.7262 Q1330.9 83.3777 1331.13 80.9675 L1332.6 80.9675 L1330.96 96.1172 L1300.35 96.1172 Z" fill="#000000" fill-rule="nonzero" fill-opacity="1" /><path clip-path="url(#clip450)" d="M1385.61 84.1248 Q1390.08 84.1248 1391.1 83.5509 Q1392.17 83.0181 1392.17 80.3537 L1392.17 41.045 Q1392.17 38.2578 1391.1 37.5609 Q1390.08 36.8641 1385.61 36.8641 L1385.61 34.2408 L1397.7 33.339 L1397.7 38.8726 Q1402.74 33.339 1409.46 33.339 Q1416.6 33.339 1421.8 38.8726 Q1427.01 44.4062 1427.01 52.3171 Q1427.01 60.31 1421.47 65.8435 Q1415.94 71.3771 1408.27 71.3771 Q1404.09 71.3771 1401.27 69.2457 Q1398.48 67.0732 1397.94 65.4746 L1397.94 66.2534 L1397.94 80.3537 Q1397.94 83.059 1399.01 83.5919 Q1400.08 84.1248 1404.5 84.1248 L1404.5 86.7071 Q1395.69 86.4612 1395.03 86.4612 Q1394.21 86.4612 1385.61 86.7071 L1385.61 84.1248 M1397.94 60.8838 Q1397.94 62.1545 1398.11 62.6054 Q1398.31 63.0563 1399.13 64.4089 Q1402.45 69.4916 1407.86 69.4916 Q1407.91 69.4916 1407.95 69.4916 Q1412.74 69.4916 1416.39 64.6139 Q1420.04 59.6952 1420.04 52.3171 Q1420.04 45.2669 1416.72 40.3482 Q1413.4 35.4295 1408.81 35.4295 Q1405.53 35.4295 1402.66 37.192 Q1399.79 38.9546 1397.94 42.1517 L1397.94 60.8838 Z" fill="#000000" fill-rule="nonzero" fill-opacity="1" /><path clip-path="url(#clip450)" d="M1438.44 70.4343 L1438.44 67.852 Q1442.91 67.852 1443.94 67.3192 Q1444.96 66.7453 1444.96 64.04 L1444.96 20.3864 Q1444.96 17.2713 1443.85 16.4925 Q1442.79 15.7137 1438.44 15.7137 L1438.44 13.0903 L1450.5 12.1886 L1450.5 64.04 Q1450.5 66.7453 1451.56 67.3192 Q1452.63 67.852 1457.05 67.852 L1457.05 70.4343 Q1456.03 70.4343 1453.9 70.3524 Q1451.77 70.2704 1450.21 70.2294 Q1448.65 70.1884 1447.75 70.1884 Q1446.77 70.1884 1438.44 70.4343 Z" fill="#000000" fill-rule="nonzero" fill-opacity="1" /><path clip-path="url(#clip450)" d="M1469.68 65.9255 Q1464.15 60.433 1464.15 52.481 Q1464.15 44.4881 1469.56 38.6677 Q1475.01 32.8062 1482.8 32.8062 Q1490.42 32.8062 1495.88 38.6267 Q1501.37 44.4062 1501.37 52.481 Q1501.37 60.392 1495.83 65.8845 Q1490.34 71.3771 1482.72 71.3771 Q1475.26 71.3771 1469.68 65.9255 M1471.12 51.7842 Q1471.12 59.9411 1473.25 63.6301 Q1476.53 69.2457 1482.8 69.2457 Q1485.92 69.2457 1488.5 67.5651 Q1491.12 65.8845 1492.56 63.0563 Q1494.4 59.3672 1494.4 51.7842 Q1494.4 43.7093 1492.19 40.1433 Q1488.91 34.6917 1482.72 34.6917 Q1480.01 34.6917 1477.35 36.1263 Q1474.73 37.52 1473.13 40.3072 Q1471.12 43.9963 1471.12 51.7842 Z" fill="#000000" fill-rule="nonzero" fill-opacity="1" /><path clip-path="url(#clip450)" d="M1502.42 36.8641 L1502.42 35.0196 Q1506.27 34.8557 1508.81 32.1504 Q1511.39 29.4041 1512.25 26.043 Q1513.15 22.6818 1513.24 18.7879 L1515.33 18.7879 L1515.33 34.2408 L1527.34 34.2408 L1527.34 36.8641 L1515.33 36.8641 L1515.33 60.187 Q1515.33 69.2457 1520.98 69.2457 Q1523.4 69.2457 1525 66.7863 Q1526.6 64.286 1526.6 59.8591 L1526.6 55.2273 L1528.69 55.2273 L1528.69 60.0231 Q1528.69 64.5729 1526.6 67.975 Q1524.51 71.3771 1520.37 71.3771 Q1518.85 71.3771 1517.34 70.9672 Q1515.86 70.5983 1513.89 69.6146 Q1511.97 68.5898 1510.74 66.1305 Q1509.55 63.6301 1509.55 60.0231 L1509.55 36.8641 L1502.42 36.8641 Z" fill="#000000" fill-rule="nonzero" fill-opacity="1" /><circle clip-path="url(#clip452)" cx="237.067" cy="643.355" r="14.4" fill="#0000ff" fill-rule="evenodd" fill-opacity="1" stroke="#000000" stroke-opacity="1" stroke-width="3.2"/>
<circle clip-path="url(#clip452)" cx="326.19" cy="643.355" r="14.4" fill="#0000ff" fill-rule="evenodd" fill-opacity="1" stroke="#000000" stroke-opacity="1" stroke-width="3.2"/>
<circle clip-path="url(#clip452)" cx="425.923" cy="643.355" r="14.4" fill="#0000ff" fill-rule="evenodd" fill-opacity="1" stroke="#000000" stroke-opacity="1" stroke-width="3.2"/>
<circle clip-path="url(#clip452)" cx="474.728" cy="643.355" r="14.4" fill="#0000ff" fill-rule="evenodd" fill-opacity="1" stroke="#000000" stroke-opacity="1" stroke-width="3.2"/>
<circle clip-path="url(#clip452)" cx="612.656" cy="578.37" r="14.4" fill="#0000ff" fill-rule="evenodd" fill-opacity="1" stroke="#000000" stroke-opacity="1" stroke-width="3.2"/>
<circle clip-path="url(#clip452)" cx="761.194" cy="604.364" r="14.4" fill="#0000ff" fill-rule="evenodd" fill-opacity="1" stroke="#000000" stroke-opacity="1" stroke-width="3.2"/>
<circle clip-path="url(#clip452)" cx="771.804" cy="578.37" r="14.4" fill="#0000ff" fill-rule="evenodd" fill-opacity="1" stroke="#000000" stroke-opacity="1" stroke-width="3.2"/>
<circle clip-path="url(#clip452)" cx="960.659" cy="578.37" r="14.4" fill="#0000ff" fill-rule="evenodd" fill-opacity="1" stroke="#000000" stroke-opacity="1" stroke-width="3.2"/>
<circle clip-path="url(#clip452)" cx="1090.1" cy="578.37" r="14.4" fill="#0000ff" fill-rule="evenodd" fill-opacity="1" stroke="#000000" stroke-opacity="1" stroke-width="3.2"/>
<circle clip-path="url(#clip452)" cx="1228.03" cy="545.877" r="14.4" fill="#0000ff" fill-rule="evenodd" fill-opacity="1" stroke="#000000" stroke-opacity="1" stroke-width="3.2"/>
<circle clip-path="url(#clip452)" cx="1393.54" cy="578.37" r="14.4" fill="#0000ff" fill-rule="evenodd" fill-opacity="1" stroke="#000000" stroke-opacity="1" stroke-width="3.2"/>
<circle clip-path="url(#clip452)" cx="1525.1" cy="643.355" r="14.4" fill="#0000ff" fill-rule="evenodd" fill-opacity="1" stroke="#000000" stroke-opacity="1" stroke-width="3.2"/>
<circle clip-path="url(#clip452)" cx="1612.1" cy="578.37" r="14.4" fill="#0000ff" fill-rule="evenodd" fill-opacity="1" stroke="#000000" stroke-opacity="1" stroke-width="3.2"/>
<circle clip-path="url(#clip452)" cx="1694.86" cy="578.37" r="14.4" fill="#0000ff" fill-rule="evenodd" fill-opacity="1" stroke="#000000" stroke-opacity="1" stroke-width="3.2"/>
<circle clip-path="url(#clip452)" cx="1828.54" cy="578.37" r="14.4" fill="#0000ff" fill-rule="evenodd" fill-opacity="1" stroke="#000000" stroke-opacity="1" stroke-width="3.2"/>
<circle clip-path="url(#clip452)" cx="2013.16" cy="578.37" r="14.4" fill="#0000ff" fill-rule="evenodd" fill-opacity="1" stroke="#000000" stroke-opacity="1" stroke-width="3.2"/>
<circle clip-path="url(#clip452)" cx="2117.13" cy="578.37" r="14.4" fill="#0000ff" fill-rule="evenodd" fill-opacity="1" stroke="#000000" stroke-opacity="1" stroke-width="3.2"/>
<circle clip-path="url(#clip452)" cx="2291.13" cy="578.37" r="14.4" fill="#0000ff" fill-rule="evenodd" fill-opacity="1" stroke="#000000" stroke-opacity="1" stroke-width="3.2"/>
<polyline clip-path="url(#clip452)" style="stroke:#ff0000; stroke-linecap:round; stroke-linejoin:round; stroke-width:8; stroke-opacity:1; fill:none" stroke-dasharray="32, 20" points="237.067,594.616 326.19,594.616 425.923,594.616 474.728,594.616 612.656,594.616 761.194,594.616 771.804,594.616 960.659,594.616 1090.1,594.616 1228.03,594.616 1393.54,594.616 1525.1,594.616 1612.1,594.616 1694.86,594.616 1828.54,594.616 2013.16,594.616 2117.13,594.616 2291.13,594.616 "/>
<path clip-path="url(#clip450)" d="M1650.93 322.316 L2280.18 322.316 L2280.18 166.796 L1650.93 166.796  Z" fill="#ffffff" fill-rule="evenodd" fill-opacity="1"/>
<polyline clip-path="url(#clip450)" style="stroke:#000000; stroke-linecap:round; stroke-linejoin:round; stroke-width:4; stroke-opacity:1; fill:none" points="1650.93,322.316 2280.18,322.316 2280.18,166.796 1650.93,166.796 1650.93,322.316 "/>
<circle clip-path="url(#clip450)" cx="1747.7" cy="218.636" r="20.48" fill="#0000ff" fill-rule="evenodd" fill-opacity="1" stroke="#000000" stroke-opacity="1" stroke-width="4.55111"/>
<path clip-path="url(#clip450)" d="M1844.47 198.412 L1844.47 196.913 Q1849.64 197.053 1850.56 197.053 Q1855.69 197.053 1857.42 196.913 L1857.42 198.412 Q1853.48 198.412 1853.48 199.794 Q1853.48 199.981 1853.77 200.66 L1862.92 224.879 L1871.71 201.761 Q1871.94 201.035 1871.94 200.801 Q1871.94 199.84 1871.05 199.161 Q1870.18 198.458 1868.45 198.412 L1868.45 196.913 Q1872.2 197.053 1873.91 197.053 Q1876.34 197.053 1878.57 196.913 L1878.57 198.412 Q1874.54 198.458 1873.35 201.62 L1862.64 229.821 Q1862.46 230.407 1862.27 230.571 Q1862.08 230.735 1861.49 230.735 Q1861.03 230.735 1860.77 230.547 Q1860.53 230.36 1860.3 229.681 L1849.17 200.239 Q1848.71 198.95 1847.86 198.693 Q1847.02 198.412 1844.47 198.412 Z" fill="#000000" fill-rule="nonzero" fill-opacity="1" /><path clip-path="url(#clip450)" d="M1885.57 237.869 Q1883.35 235.672 1883.35 232.491 Q1883.35 229.294 1885.52 226.965 Q1887.7 224.621 1890.81 224.621 Q1893.86 224.621 1896.04 226.949 Q1898.24 229.261 1898.24 232.491 Q1898.24 235.655 1896.03 237.852 Q1893.83 240.049 1890.78 240.049 Q1887.8 240.049 1885.57 237.869 M1886.14 232.212 Q1886.14 235.475 1886.99 236.95 Q1888.3 239.197 1890.81 239.197 Q1892.06 239.197 1893.09 238.524 Q1894.14 237.852 1894.71 236.721 Q1895.45 235.245 1895.45 232.212 Q1895.45 228.982 1894.57 227.556 Q1893.26 225.375 1890.78 225.375 Q1889.7 225.375 1888.63 225.949 Q1887.58 226.506 1886.94 227.621 Q1886.14 229.097 1886.14 232.212 Z" fill="#000000" fill-rule="nonzero" fill-opacity="1" /><polyline clip-path="url(#clip450)" style="stroke:#ff0000; stroke-linecap:round; stroke-linejoin:round; stroke-width:8; stroke-opacity:1; fill:none" stroke-dasharray="32, 20" points="1675.12,270.476 1820.27,270.476 "/>
<path clip-path="url(#clip450)" d="M1844.47 282.294 L1844.47 280.818 Q1848.73 280.725 1849.83 277.586 L1859.76 248.917 Q1859.95 248.331 1860.16 248.144 Q1860.37 247.957 1860.91 247.957 Q1861.19 247.957 1861.35 248.004 Q1861.54 248.05 1861.66 248.214 Q1861.78 248.378 1861.82 248.472 Q1861.87 248.566 1862.01 248.917 L1872.36 278.898 Q1872.74 280.092 1873.51 280.467 Q1874.28 280.818 1876.46 280.818 L1877.31 280.818 L1877.31 282.294 Q1874.28 282.153 1871.03 282.153 Q1865.85 282.153 1864.12 282.294 L1864.12 280.818 Q1868.1 280.818 1868.1 279.366 Q1868.1 279.273 1867.96 278.687 L1865.43 271.356 L1853.58 271.356 L1851.35 277.633 Q1851.26 277.82 1851.26 278.359 Q1851.26 279.366 1852.2 280.092 Q1853.13 280.818 1854.87 280.818 L1854.87 282.294 Q1850.25 282.153 1849.34 282.153 Q1847.77 282.153 1844.47 282.294 M1854.09 269.88 L1864.89 269.88 L1859.48 254.281 L1854.09 269.88 Z" fill="#000000" fill-rule="nonzero" fill-opacity="1" /><path clip-path="url(#clip450)" d="M1877.07 263.111 L1877.07 261.612 Q1879.23 261.753 1881.73 261.753 Q1882.65 261.753 1886.96 261.612 L1886.96 263.111 Q1884.22 263.111 1884.22 264.352 Q1884.22 264.54 1884.5 265.172 L1889.89 278.546 L1894.78 266.32 Q1895.06 265.5 1895.06 265.172 Q1895.06 264.352 1894.5 263.767 Q1893.96 263.158 1892.77 263.111 L1892.77 261.612 Q1895.2 261.753 1896.94 261.753 Q1898.9 261.753 1900.52 261.612 L1900.52 263.111 Q1899.09 263.111 1898.08 263.767 Q1897.08 264.399 1896.75 264.961 Q1896.44 265.5 1896.12 266.32 L1889.84 281.919 Q1889.46 282.833 1888.83 282.833 Q1888.41 282.833 1888.22 282.645 Q1888.06 282.481 1887.82 281.919 L1880.92 264.891 Q1880.45 263.697 1879.84 263.416 Q1879.23 263.111 1877.07 263.111 Z" fill="#000000" fill-rule="nonzero" fill-opacity="1" /><path clip-path="url(#clip450)" d="M1903.52 271.73 Q1903.52 267.21 1906.42 264.001 Q1909.33 260.792 1913.5 260.792 Q1917.71 260.792 1919.89 263.533 Q1922.09 266.273 1922.09 270.208 Q1922.09 270.934 1921.91 271.075 Q1921.72 271.215 1920.9 271.215 L1907.5 271.215 Q1907.5 276.11 1908.95 278.406 Q1910.97 281.615 1914.36 281.615 Q1914.83 281.615 1915.39 281.521 Q1915.96 281.427 1917.1 281.029 Q1918.25 280.608 1919.26 279.507 Q1920.27 278.406 1920.85 276.673 Q1920.99 275.993 1921.46 276.017 Q1922.09 276.017 1922.09 276.579 Q1922.09 277.001 1921.62 277.961 Q1921.18 278.898 1920.31 280.022 Q1919.45 281.146 1917.76 281.99 Q1916.1 282.833 1914.08 282.833 Q1909.87 282.833 1906.68 279.647 Q1903.52 276.438 1903.52 271.73 M1907.55 270.208 L1918.93 270.208 Q1918.93 269.201 1918.74 268.077 Q1918.58 266.952 1918.06 265.406 Q1917.57 263.837 1916.4 262.853 Q1915.23 261.87 1913.5 261.87 Q1912.72 261.87 1911.88 262.198 Q1911.06 262.525 1910.05 263.322 Q1909.05 264.118 1908.34 265.922 Q1907.64 267.725 1907.55 270.208 Z" fill="#000000" fill-rule="nonzero" fill-opacity="1" /><path clip-path="url(#clip450)" d="M1923.64 282.294 L1923.64 280.818 Q1926.2 280.818 1926.78 280.514 Q1927.39 280.186 1927.39 278.64 L1927.39 265.781 Q1927.39 264.001 1926.76 263.556 Q1926.15 263.111 1923.64 263.111 L1923.64 261.612 L1930.32 261.097 L1930.32 266.367 Q1931 264.306 1932.43 262.713 Q1933.88 261.097 1936.22 261.097 Q1937.77 261.097 1938.75 261.963 Q1939.76 262.83 1939.76 264.024 Q1939.76 265.079 1939.1 265.617 Q1938.47 266.133 1937.7 266.133 Q1936.83 266.133 1936.22 265.594 Q1935.63 265.032 1935.63 264.071 Q1935.63 263.486 1935.89 263.041 Q1936.17 262.572 1936.38 262.408 Q1936.59 262.244 1936.74 262.198 Q1936.64 262.151 1936.22 262.151 Q1933.57 262.151 1932.05 264.797 Q1930.55 267.421 1930.55 271.168 L1930.55 278.546 Q1930.55 279.928 1931.11 280.373 Q1931.7 280.818 1934.21 280.818 L1935.21 280.818 L1935.21 282.294 Q1933.29 282.153 1929.12 282.153 Q1928.54 282.153 1927.62 282.177 Q1926.71 282.2 1925.52 282.247 Q1924.32 282.294 1923.64 282.294 Z" fill="#000000" fill-rule="nonzero" fill-opacity="1" /><path clip-path="url(#clip450)" d="M1943.63 277.727 Q1943.63 273.651 1948.43 271.496 Q1951.31 270.114 1957.26 269.763 L1957.26 268.006 Q1957.26 265.032 1955.69 263.462 Q1954.14 261.87 1952.18 261.87 Q1948.66 261.87 1946.98 264.071 Q1948.4 264.118 1948.92 264.844 Q1949.43 265.547 1949.43 266.273 Q1949.43 267.233 1948.83 267.866 Q1948.24 268.475 1947.23 268.475 Q1946.27 268.475 1945.64 267.889 Q1945.01 267.28 1945.01 266.226 Q1945.01 263.884 1947.12 262.338 Q1949.25 260.792 1952.27 260.792 Q1956.2 260.792 1958.83 263.439 Q1959.65 264.259 1960.05 265.313 Q1960.47 266.367 1960.51 267.069 Q1960.56 267.749 1960.56 269.107 L1960.56 278.687 Q1960.56 278.968 1960.65 279.436 Q1960.75 279.905 1961.17 280.514 Q1961.61 281.099 1962.34 281.099 Q1964.07 281.099 1964.05 278.031 L1964.05 275.338 L1965.27 275.338 L1965.27 278.031 Q1965.27 280.584 1963.91 281.591 Q1962.57 282.575 1961.33 282.575 Q1959.74 282.575 1958.73 281.404 Q1957.73 280.233 1957.59 278.64 Q1956.86 280.467 1955.2 281.662 Q1953.56 282.833 1951.31 282.833 Q1949.58 282.833 1947.94 282.388 Q1946.32 281.966 1944.96 280.772 Q1943.63 279.554 1943.63 277.727 M1947.33 277.68 Q1947.33 279.46 1948.59 280.608 Q1949.86 281.755 1951.64 281.755 Q1953.65 281.755 1955.45 280.209 Q1957.26 278.64 1957.26 275.572 L1957.26 270.77 Q1951.94 270.958 1949.62 273.089 Q1947.33 275.197 1947.33 277.68 Z" fill="#000000" fill-rule="nonzero" fill-opacity="1" /><path clip-path="url(#clip450)" d="M1965.46 286.088 Q1965.46 284.543 1966.63 283.207 Q1967.82 281.872 1969.88 281.287 Q1967.77 279.952 1967.77 277.024 Q1967.77 274.775 1969.25 273.042 Q1967 271.168 1967 268.1 Q1967 265.266 1969.25 263.181 Q1971.5 261.097 1974.78 261.097 Q1977.66 261.097 1979.86 262.83 Q1982.16 260.581 1984.94 260.558 Q1986.18 260.558 1986.77 261.331 Q1987.38 262.104 1987.38 262.924 Q1987.38 263.65 1986.91 264.001 Q1986.47 264.352 1986 264.352 Q1985.41 264.352 1984.99 263.978 Q1984.59 263.579 1984.59 262.97 Q1984.59 261.963 1985.36 261.659 Q1985.22 261.612 1984.9 261.612 Q1982.55 261.612 1980.56 263.486 Q1982.53 265.313 1982.53 268.147 Q1982.53 270.981 1980.28 273.066 Q1978.03 275.15 1974.78 275.15 Q1972.08 275.15 1970.02 273.651 Q1969.2 274.611 1969.2 275.923 Q1969.2 277.118 1969.93 278.055 Q1970.66 278.991 1971.76 279.132 Q1972.08 279.179 1975.34 279.179 Q1977.26 279.179 1978.31 279.226 Q1979.37 279.273 1980.87 279.6 Q1982.39 279.905 1983.58 280.514 Q1986.7 282.247 1986.72 285.995 Q1986.72 288.735 1983.56 290.445 Q1980.42 292.178 1976.07 292.178 Q1971.66 292.178 1968.55 290.422 Q1965.46 288.688 1965.46 286.088 M1967.96 286.088 Q1967.96 288.056 1970.28 289.555 Q1972.6 291.077 1976.11 291.077 Q1979.56 291.077 1981.88 289.578 Q1984.22 288.103 1984.22 286.088 Q1984.22 284.66 1983.4 283.746 Q1982.58 282.833 1980.89 282.458 Q1979.23 282.107 1978.06 282.036 Q1976.89 281.966 1974.73 281.966 L1971.9 281.966 Q1970.26 282.06 1969.11 283.254 Q1967.96 284.449 1967.96 286.088 M1970.59 268.147 Q1970.59 274.049 1974.78 274.049 Q1976.89 274.049 1978.17 272.129 Q1978.95 270.84 1978.95 268.1 Q1978.95 262.198 1974.78 262.198 Q1972.67 262.198 1971.36 264.118 Q1970.59 265.406 1970.59 268.147 Z" fill="#000000" fill-rule="nonzero" fill-opacity="1" /><path clip-path="url(#clip450)" d="M1992.34 271.73 Q1992.34 267.21 1995.25 264.001 Q1998.15 260.792 2002.32 260.792 Q2006.54 260.792 2008.72 263.533 Q2010.92 266.273 2010.92 270.208 Q2010.92 270.934 2010.73 271.075 Q2010.54 271.215 2009.72 271.215 L1996.33 271.215 Q1996.33 276.11 1997.78 278.406 Q1999.79 281.615 2003.19 281.615 Q2003.66 281.615 2004.22 281.521 Q2004.78 281.427 2005.93 281.029 Q2007.08 280.608 2008.08 279.507 Q2009.09 278.406 2009.68 276.673 Q2009.82 275.993 2010.29 276.017 Q2010.92 276.017 2010.92 276.579 Q2010.92 277.001 2010.45 277.961 Q2010.01 278.898 2009.14 280.022 Q2008.27 281.146 2006.59 281.99 Q2004.92 282.833 2002.91 282.833 Q1998.69 282.833 1995.51 279.647 Q1992.34 276.438 1992.34 271.73 M1996.37 270.208 L2007.76 270.208 Q2007.76 269.201 2007.57 268.077 Q2007.41 266.952 2006.89 265.406 Q2006.4 263.837 2005.23 262.853 Q2004.06 261.87 2002.32 261.87 Q2001.55 261.87 2000.71 262.198 Q1999.89 262.525 1998.88 263.322 Q1997.87 264.118 1997.17 265.922 Q1996.47 267.725 1996.37 270.208 Z" fill="#000000" fill-rule="nonzero" fill-opacity="1" /><path clip-path="url(#clip450)" d="M2013.43 251.025 L2013.43 249.526 Q2018.6 249.667 2019.52 249.667 Q2024.65 249.667 2026.38 249.526 L2026.38 251.025 Q2022.45 251.025 2022.45 252.407 Q2022.45 252.594 2022.73 253.274 L2031.88 277.492 L2040.67 254.374 Q2040.9 253.648 2040.9 253.414 Q2040.9 252.454 2040.01 251.775 Q2039.15 251.072 2037.41 251.025 L2037.41 249.526 Q2041.16 249.667 2042.87 249.667 Q2045.31 249.667 2047.53 249.526 L2047.53 251.025 Q2043.5 251.072 2042.31 254.234 L2031.6 282.435 Q2031.42 283.02 2031.23 283.184 Q2031.04 283.348 2030.46 283.348 Q2029.99 283.348 2029.73 283.161 Q2029.5 282.973 2029.26 282.294 L2018.14 252.852 Q2017.67 251.564 2016.82 251.306 Q2015.98 251.025 2013.43 251.025 Z" fill="#000000" fill-rule="nonzero" fill-opacity="1" /><path clip-path="url(#clip450)" d="M2054.53 290.482 Q2052.31 288.285 2052.31 285.104 Q2052.31 281.907 2054.48 279.579 Q2056.66 277.234 2059.77 277.234 Q2062.82 277.234 2065 279.562 Q2067.2 281.874 2067.2 285.104 Q2067.2 288.269 2064.99 290.466 Q2062.79 292.663 2059.74 292.663 Q2056.76 292.663 2054.53 290.482 M2055.1 284.826 Q2055.1 288.088 2055.95 289.564 Q2057.26 291.81 2059.77 291.81 Q2061.02 291.81 2062.05 291.138 Q2063.1 290.466 2063.68 289.334 Q2064.41 287.859 2064.41 284.826 Q2064.41 281.596 2063.53 280.169 Q2062.22 277.989 2059.74 277.989 Q2058.66 277.989 2057.59 278.562 Q2056.54 279.12 2055.9 280.235 Q2055.1 281.71 2055.1 284.826 Z" fill="#000000" fill-rule="nonzero" fill-opacity="1" /><path clip-path="url(#clip450)" d="M2085.47 275.01 Q2085.52 274.424 2086.43 274.424 L2115.83 274.424 Q2117.21 274.424 2117.23 274.963 Q2117.23 275.548 2115.92 275.525 L2086.76 275.525 Q2085.47 275.548 2085.47 275.01 M2085.47 265.641 Q2085.47 265.055 2086.48 265.079 L2115.78 265.079 Q2117.21 265.079 2117.23 265.641 Q2117.23 266.179 2116.01 266.179 L2086.43 266.179 Q2085.47 266.179 2085.47 265.641 Z" fill="#000000" fill-rule="nonzero" fill-opacity="1" /><path clip-path="url(#clip450)" d="M2135.72 267.14 Q2135.72 259.598 2139.56 254.983 Q2143.41 250.346 2148.35 250.346 Q2151.23 250.346 2152.82 251.821 Q2154.44 253.274 2154.44 255.522 Q2154.44 256.764 2153.71 257.302 Q2152.98 257.841 2152.24 257.841 Q2151.37 257.841 2150.69 257.255 Q2150.01 256.67 2150.01 255.616 Q2150.01 253.461 2152.66 253.461 Q2151.42 251.54 2148.44 251.54 Q2147.53 251.54 2146.59 251.821 Q2145.65 252.079 2144.44 252.969 Q2143.22 253.859 2142.28 255.264 Q2141.34 256.67 2140.69 259.317 Q2140.03 261.963 2140.03 265.406 L2140.03 266.554 Q2142 261.799 2146.03 261.823 Q2150.06 261.823 2152.84 264.891 Q2155.63 267.959 2155.63 272.503 Q2155.63 277.164 2152.73 280.256 Q2149.82 283.348 2145.75 283.348 Q2143.92 283.348 2142.26 282.575 Q2140.62 281.826 2139.07 280.092 Q2137.55 278.359 2136.64 275.033 Q2135.72 271.707 2135.72 267.14 M2140.13 271.449 Q2140.13 276.157 2140.99 278.406 Q2141.13 278.781 2141.44 279.296 Q2141.77 279.811 2142.3 280.49 Q2142.87 281.146 2143.78 281.591 Q2144.69 282.013 2145.75 282.013 Q2148.96 282.013 2150.5 278.898 Q2151.32 277.164 2151.32 272.457 Q2151.32 267.655 2150.46 265.898 Q2148.98 262.924 2145.98 262.924 Q2143.97 262.924 2142.56 264.306 Q2141.18 265.687 2140.64 267.538 Q2140.13 269.388 2140.13 271.449 Z" fill="#000000" fill-rule="nonzero" fill-opacity="1" /><path clip-path="url(#clip450)" d="M2160.2 281.521 Q2159.47 280.748 2159.47 279.741 Q2159.47 278.734 2160.2 278.008 Q2160.92 277.258 2162.03 277.258 Q2163.08 277.258 2163.78 277.961 Q2164.51 278.64 2164.51 279.764 Q2164.51 280.865 2163.74 281.591 Q2162.99 282.294 2162.03 282.294 Q2160.92 282.294 2160.2 281.521 Z" fill="#000000" fill-rule="nonzero" fill-opacity="1" /><path clip-path="url(#clip450)" d="M2172.67 274.565 Q2172.67 273.136 2173.44 272.597 Q2174.22 272.035 2175.04 272.035 Q2176.14 272.035 2176.77 272.738 Q2177.42 273.417 2177.42 274.377 Q2177.42 275.338 2176.77 276.04 Q2176.14 276.719 2175.04 276.719 Q2174.5 276.719 2174.22 276.626 Q2174.85 278.827 2176.77 280.42 Q2178.71 282.013 2181.27 282.013 Q2184.47 282.013 2186.4 278.898 Q2187.54 276.883 2187.54 272.316 Q2187.54 268.287 2186.68 266.273 Q2185.34 263.205 2182.6 263.205 Q2178.71 263.205 2176.42 266.554 Q2176.14 266.976 2175.81 266.999 Q2175.34 266.999 2175.22 266.741 Q2175.13 266.46 2175.13 265.734 L2175.13 251.54 Q2175.13 250.393 2175.6 250.393 Q2175.78 250.393 2176.18 250.533 Q2179.2 251.868 2182.55 251.892 Q2186 251.892 2189.09 250.486 Q2189.32 250.346 2189.46 250.346 Q2189.93 250.346 2189.96 250.884 Q2189.96 251.072 2189.56 251.634 Q2189.18 252.173 2188.36 252.899 Q2187.54 253.602 2186.49 254.281 Q2185.43 254.96 2183.89 255.428 Q2182.37 255.873 2180.68 255.873 Q2178.67 255.873 2176.6 255.241 L2176.6 264.587 Q2179.09 262.151 2182.69 262.151 Q2186.54 262.151 2189.18 265.242 Q2191.83 268.334 2191.83 272.644 Q2191.83 277.164 2188.69 280.256 Q2185.58 283.348 2181.36 283.348 Q2177.52 283.348 2175.08 280.608 Q2172.67 277.867 2172.67 274.565 Z" fill="#000000" fill-rule="nonzero" fill-opacity="1" /><path clip-path="url(#clip450)" d="M2196.61 274.565 Q2196.61 273.136 2197.38 272.597 Q2198.16 272.035 2198.98 272.035 Q2200.08 272.035 2200.71 272.738 Q2201.37 273.417 2201.37 274.377 Q2201.37 275.338 2200.71 276.04 Q2200.08 276.719 2198.98 276.719 Q2198.44 276.719 2198.16 276.626 Q2198.79 278.827 2200.71 280.42 Q2202.65 282.013 2205.21 282.013 Q2208.42 282.013 2210.34 278.898 Q2211.48 276.883 2211.48 272.316 Q2211.48 268.287 2210.62 266.273 Q2209.28 263.205 2206.54 263.205 Q2202.65 263.205 2200.36 266.554 Q2200.08 266.976 2199.75 266.999 Q2199.28 266.999 2199.16 266.741 Q2199.07 266.46 2199.07 265.734 L2199.07 251.54 Q2199.07 250.393 2199.54 250.393 Q2199.73 250.393 2200.12 250.533 Q2203.15 251.868 2206.5 251.892 Q2209.94 251.892 2213.03 250.486 Q2213.26 250.346 2213.41 250.346 Q2213.87 250.346 2213.9 250.884 Q2213.9 251.072 2213.5 251.634 Q2213.12 252.173 2212.3 252.899 Q2211.48 253.602 2210.43 254.281 Q2209.38 254.96 2207.83 255.428 Q2206.31 255.873 2204.62 255.873 Q2202.61 255.873 2200.55 255.241 L2200.55 264.587 Q2203.03 262.151 2206.64 262.151 Q2210.48 262.151 2213.12 265.242 Q2215.77 268.334 2215.77 272.644 Q2215.77 277.164 2212.63 280.256 Q2209.52 283.348 2205.3 283.348 Q2201.46 283.348 2199.02 280.608 Q2196.61 277.867 2196.61 274.565 Z" fill="#000000" fill-rule="nonzero" fill-opacity="1" /><path clip-path="url(#clip450)" d="M2220.36 251.025 L2220.36 249.526 Q2225.54 249.667 2226.45 249.667 Q2231.58 249.667 2233.31 249.526 L2233.31 251.025 Q2229.38 251.025 2229.38 252.407 Q2229.38 252.594 2229.66 253.274 L2238.82 277.492 L2247.6 254.374 Q2247.84 253.648 2247.84 253.414 Q2247.84 252.454 2246.95 251.775 Q2246.08 251.072 2244.35 251.025 L2244.35 249.526 Q2248.09 249.667 2249.8 249.667 Q2252.24 249.667 2254.46 249.526 L2254.46 251.025 Q2250.44 251.072 2249.24 254.234 L2238.54 282.435 Q2238.35 283.02 2238.16 283.184 Q2237.98 283.348 2237.39 283.348 Q2236.92 283.348 2236.66 283.161 Q2236.43 282.973 2236.2 282.294 L2225.07 252.852 Q2224.6 251.564 2223.76 251.306 Q2222.91 251.025 2220.36 251.025 Z" fill="#000000" fill-rule="nonzero" fill-opacity="1" /></svg>
