<?xml version="1.0" encoding="utf-8" standalone="no"?>
<!DOCTYPE svg PUBLIC "-//W3C//DTD SVG 1.1//EN"
  "http://www.w3.org/Graphics/SVG/1.1/DTD/svg11.dtd">
<svg xmlns:xlink="http://www.w3.org/1999/xlink" width="460.8pt" height="345.6pt" viewBox="0 0 460.8 345.6" xmlns="http://www.w3.org/2000/svg" version="1.1">
 <metadata>
  <rdf:RDF xmlns:dc="http://purl.org/dc/elements/1.1/" xmlns:cc="http://creativecommons.org/ns#" xmlns:rdf="http://www.w3.org/1999/02/22-rdf-syntax-ns#">
   <cc:Work>
    <dc:type rdf:resource="http://purl.org/dc/dcmitype/StillImage"/>
    <dc:date>2025-02-10T15:39:32.564115</dc:date>
    <dc:format>image/svg+xml</dc:format>
    <dc:creator>
     <cc:Agent>
      <dc:title>Matplotlib v3.10.0, https://matplotlib.org/</dc:title>
     </cc:Agent>
    </dc:creator>
   </cc:Work>
  </rdf:RDF>
 </metadata>
 <defs>
  <style type="text/css">*{stroke-linejoin: round; stroke-linecap: butt}</style>
 </defs>
 <g id="figure_1">
  <g id="patch_1">
   <path d="M 0 345.6 
L 460.8 345.6 
L 460.8 0 
L 0 0 
z
" style="fill: #ffffff"/>
  </g>
  <g id="axes_1">
   <g id="patch_2">
    <path d="M 57.6 307.584 
L 414.72 307.584 
L 414.72 41.472 
L 57.6 41.472 
z
" style="fill: #ffffff"/>
   </g>
   <g id="matplotlib.axis_1">
    <g id="xtick_1">
     <g id="line2d_1">
      <path d="M 72.499444 307.584 
L 72.499444 41.472 
" clip-path="url(#pad950ba831)" style="fill: none; stroke: #b0b0b0; stroke-width: 0.8; stroke-linecap: square"/>
     </g>
     <g id="line2d_2">
      <defs>
       <path id="m586f174cdd" d="M 0 0 
L 0 3.5 
" style="stroke: #000000; stroke-width: 0.8"/>
      </defs>
      <g>
       <use xlink:href="#m586f174cdd" x="72.499444" y="307.584" style="stroke: #000000; stroke-width: 0.8"/>
      </g>
     </g>
     <g id="text_1">
      <!-- 0.0 -->
      <g transform="translate(64.547881 322.182437) scale(0.1 -0.1)">
       <defs>
        <path id="DejaVuSans-30" d="M 2034 4250 
Q 1547 4250 1301 3770 
Q 1056 3291 1056 2328 
Q 1056 1369 1301 889 
Q 1547 409 2034 409 
Q 2525 409 2770 889 
Q 3016 1369 3016 2328 
Q 3016 3291 2770 3770 
Q 2525 4250 2034 4250 
z
M 2034 4750 
Q 2819 4750 3233 4129 
Q 3647 3509 3647 2328 
Q 3647 1150 3233 529 
Q 2819 -91 2034 -91 
Q 1250 -91 836 529 
Q 422 1150 422 2328 
Q 422 3509 836 4129 
Q 1250 4750 2034 4750 
z
" transform="scale(0.015625)"/>
        <path id="DejaVuSans-2e" d="M 684 794 
L 1344 794 
L 1344 0 
L 684 0 
L 684 794 
z
" transform="scale(0.015625)"/>
       </defs>
       <use xlink:href="#DejaVuSans-30"/>
       <use xlink:href="#DejaVuSans-2e" transform="translate(63.623047 0)"/>
       <use xlink:href="#DejaVuSans-30" transform="translate(95.410156 0)"/>
      </g>
     </g>
    </g>
    <g id="xtick_2">
     <g id="line2d_3">
      <path d="M 139.163621 307.584 
L 139.163621 41.472 
" clip-path="url(#pad950ba831)" style="fill: none; stroke: #b0b0b0; stroke-width: 0.8; stroke-linecap: square"/>
     </g>
     <g id="line2d_4">
      <g>
       <use xlink:href="#m586f174cdd" x="139.163621" y="307.584" style="stroke: #000000; stroke-width: 0.8"/>
      </g>
     </g>
     <g id="text_2">
      <!-- 0.2 -->
      <g transform="translate(131.212059 322.182437) scale(0.1 -0.1)">
       <defs>
        <path id="DejaVuSans-32" d="M 1228 531 
L 3431 531 
L 3431 0 
L 469 0 
L 469 531 
Q 828 903 1448 1529 
Q 2069 2156 2228 2338 
Q 2531 2678 2651 2914 
Q 2772 3150 2772 3378 
Q 2772 3750 2511 3984 
Q 2250 4219 1831 4219 
Q 1534 4219 1204 4116 
Q 875 4013 500 3803 
L 500 4441 
Q 881 4594 1212 4672 
Q 1544 4750 1819 4750 
Q 2544 4750 2975 4387 
Q 3406 4025 3406 3419 
Q 3406 3131 3298 2873 
Q 3191 2616 2906 2266 
Q 2828 2175 2409 1742 
Q 1991 1309 1228 531 
z
" transform="scale(0.015625)"/>
       </defs>
       <use xlink:href="#DejaVuSans-30"/>
       <use xlink:href="#DejaVuSans-2e" transform="translate(63.623047 0)"/>
       <use xlink:href="#DejaVuSans-32" transform="translate(95.410156 0)"/>
      </g>
     </g>
    </g>
    <g id="xtick_3">
     <g id="line2d_5">
      <path d="M 205.827799 307.584 
L 205.827799 41.472 
" clip-path="url(#pad950ba831)" style="fill: none; stroke: #b0b0b0; stroke-width: 0.8; stroke-linecap: square"/>
     </g>
     <g id="line2d_6">
      <g>
       <use xlink:href="#m586f174cdd" x="205.827799" y="307.584" style="stroke: #000000; stroke-width: 0.8"/>
      </g>
     </g>
     <g id="text_3">
      <!-- 0.4 -->
      <g transform="translate(197.876237 322.182437) scale(0.1 -0.1)">
       <defs>
        <path id="DejaVuSans-34" d="M 2419 4116 
L 825 1625 
L 2419 1625 
L 2419 4116 
z
M 2253 4666 
L 3047 4666 
L 3047 1625 
L 3713 1625 
L 3713 1100 
L 3047 1100 
L 3047 0 
L 2419 0 
L 2419 1100 
L 313 1100 
L 313 1709 
L 2253 4666 
z
" transform="scale(0.015625)"/>
       </defs>
       <use xlink:href="#DejaVuSans-30"/>
       <use xlink:href="#DejaVuSans-2e" transform="translate(63.623047 0)"/>
       <use xlink:href="#DejaVuSans-34" transform="translate(95.410156 0)"/>
      </g>
     </g>
    </g>
    <g id="xtick_4">
     <g id="line2d_7">
      <path d="M 272.491977 307.584 
L 272.491977 41.472 
" clip-path="url(#pad950ba831)" style="fill: none; stroke: #b0b0b0; stroke-width: 0.8; stroke-linecap: square"/>
     </g>
     <g id="line2d_8">
      <g>
       <use xlink:href="#m586f174cdd" x="272.491977" y="307.584" style="stroke: #000000; stroke-width: 0.8"/>
      </g>
     </g>
     <g id="text_4">
      <!-- 0.6 -->
      <g transform="translate(264.540414 322.182437) scale(0.1 -0.1)">
       <defs>
        <path id="DejaVuSans-36" d="M 2113 2584 
Q 1688 2584 1439 2293 
Q 1191 2003 1191 1497 
Q 1191 994 1439 701 
Q 1688 409 2113 409 
Q 2538 409 2786 701 
Q 3034 994 3034 1497 
Q 3034 2003 2786 2293 
Q 2538 2584 2113 2584 
z
M 3366 4563 
L 3366 3988 
Q 3128 4100 2886 4159 
Q 2644 4219 2406 4219 
Q 1781 4219 1451 3797 
Q 1122 3375 1075 2522 
Q 1259 2794 1537 2939 
Q 1816 3084 2150 3084 
Q 2853 3084 3261 2657 
Q 3669 2231 3669 1497 
Q 3669 778 3244 343 
Q 2819 -91 2113 -91 
Q 1303 -91 875 529 
Q 447 1150 447 2328 
Q 447 3434 972 4092 
Q 1497 4750 2381 4750 
Q 2619 4750 2861 4703 
Q 3103 4656 3366 4563 
z
" transform="scale(0.015625)"/>
       </defs>
       <use xlink:href="#DejaVuSans-30"/>
       <use xlink:href="#DejaVuSans-2e" transform="translate(63.623047 0)"/>
       <use xlink:href="#DejaVuSans-36" transform="translate(95.410156 0)"/>
      </g>
     </g>
    </g>
    <g id="xtick_5">
     <g id="line2d_9">
      <path d="M 339.156155 307.584 
L 339.156155 41.472 
" clip-path="url(#pad950ba831)" style="fill: none; stroke: #b0b0b0; stroke-width: 0.8; stroke-linecap: square"/>
     </g>
     <g id="line2d_10">
      <g>
       <use xlink:href="#m586f174cdd" x="339.156155" y="307.584" style="stroke: #000000; stroke-width: 0.8"/>
      </g>
     </g>
     <g id="text_5">
      <!-- 0.8 -->
      <g transform="translate(331.204592 322.182437) scale(0.1 -0.1)">
       <defs>
        <path id="DejaVuSans-38" d="M 2034 2216 
Q 1584 2216 1326 1975 
Q 1069 1734 1069 1313 
Q 1069 891 1326 650 
Q 1584 409 2034 409 
Q 2484 409 2743 651 
Q 3003 894 3003 1313 
Q 3003 1734 2745 1975 
Q 2488 2216 2034 2216 
z
M 1403 2484 
Q 997 2584 770 2862 
Q 544 3141 544 3541 
Q 544 4100 942 4425 
Q 1341 4750 2034 4750 
Q 2731 4750 3128 4425 
Q 3525 4100 3525 3541 
Q 3525 3141 3298 2862 
Q 3072 2584 2669 2484 
Q 3125 2378 3379 2068 
Q 3634 1759 3634 1313 
Q 3634 634 3220 271 
Q 2806 -91 2034 -91 
Q 1263 -91 848 271 
Q 434 634 434 1313 
Q 434 1759 690 2068 
Q 947 2378 1403 2484 
z
M 1172 3481 
Q 1172 3119 1398 2916 
Q 1625 2713 2034 2713 
Q 2441 2713 2670 2916 
Q 2900 3119 2900 3481 
Q 2900 3844 2670 4047 
Q 2441 4250 2034 4250 
Q 1625 4250 1398 4047 
Q 1172 3844 1172 3481 
z
" transform="scale(0.015625)"/>
       </defs>
       <use xlink:href="#DejaVuSans-30"/>
       <use xlink:href="#DejaVuSans-2e" transform="translate(63.623047 0)"/>
       <use xlink:href="#DejaVuSans-38" transform="translate(95.410156 0)"/>
      </g>
     </g>
    </g>
    <g id="xtick_6">
     <g id="line2d_11">
      <path d="M 405.820332 307.584 
L 405.820332 41.472 
" clip-path="url(#pad950ba831)" style="fill: none; stroke: #b0b0b0; stroke-width: 0.8; stroke-linecap: square"/>
     </g>
     <g id="line2d_12">
      <g>
       <use xlink:href="#m586f174cdd" x="405.820332" y="307.584" style="stroke: #000000; stroke-width: 0.8"/>
      </g>
     </g>
     <g id="text_6">
      <!-- 1.0 -->
      <g transform="translate(397.86877 322.182437) scale(0.1 -0.1)">
       <defs>
        <path id="DejaVuSans-31" d="M 794 531 
L 1825 531 
L 1825 4091 
L 703 3866 
L 703 4441 
L 1819 4666 
L 2450 4666 
L 2450 531 
L 3481 531 
L 3481 0 
L 794 0 
L 794 531 
z
" transform="scale(0.015625)"/>
       </defs>
       <use xlink:href="#DejaVuSans-31"/>
       <use xlink:href="#DejaVuSans-2e" transform="translate(63.623047 0)"/>
       <use xlink:href="#DejaVuSans-30" transform="translate(95.410156 0)"/>
      </g>
     </g>
    </g>
    <g id="text_7">
     <!-- $\mathrm{V_{CE}}$ (Volt) -->
     <g transform="translate(212.56 335.860562) scale(0.1 -0.1)">
      <defs>
       <path id="DejaVuSans-56" d="M 1831 0 
L 50 4666 
L 709 4666 
L 2188 738 
L 3669 4666 
L 4325 4666 
L 2547 0 
L 1831 0 
z
" transform="scale(0.015625)"/>
       <path id="DejaVuSans-43" d="M 4122 4306 
L 4122 3641 
Q 3803 3938 3442 4084 
Q 3081 4231 2675 4231 
Q 1875 4231 1450 3742 
Q 1025 3253 1025 2328 
Q 1025 1406 1450 917 
Q 1875 428 2675 428 
Q 3081 428 3442 575 
Q 3803 722 4122 1019 
L 4122 359 
Q 3791 134 3420 21 
Q 3050 -91 2638 -91 
Q 1578 -91 968 557 
Q 359 1206 359 2328 
Q 359 3453 968 4101 
Q 1578 4750 2638 4750 
Q 3056 4750 3426 4639 
Q 3797 4528 4122 4306 
z
" transform="scale(0.015625)"/>
       <path id="DejaVuSans-45" d="M 628 4666 
L 3578 4666 
L 3578 4134 
L 1259 4134 
L 1259 2753 
L 3481 2753 
L 3481 2222 
L 1259 2222 
L 1259 531 
L 3634 531 
L 3634 0 
L 628 0 
L 628 4666 
z
" transform="scale(0.015625)"/>
       <path id="DejaVuSans-20" transform="scale(0.015625)"/>
       <path id="DejaVuSans-28" d="M 1984 4856 
Q 1566 4138 1362 3434 
Q 1159 2731 1159 2009 
Q 1159 1288 1364 580 
Q 1569 -128 1984 -844 
L 1484 -844 
Q 1016 -109 783 600 
Q 550 1309 550 2009 
Q 550 2706 781 3412 
Q 1013 4119 1484 4856 
L 1984 4856 
z
" transform="scale(0.015625)"/>
       <path id="DejaVuSans-6f" d="M 1959 3097 
Q 1497 3097 1228 2736 
Q 959 2375 959 1747 
Q 959 1119 1226 758 
Q 1494 397 1959 397 
Q 2419 397 2687 759 
Q 2956 1122 2956 1747 
Q 2956 2369 2687 2733 
Q 2419 3097 1959 3097 
z
M 1959 3584 
Q 2709 3584 3137 3096 
Q 3566 2609 3566 1747 
Q 3566 888 3137 398 
Q 2709 -91 1959 -91 
Q 1206 -91 779 398 
Q 353 888 353 1747 
Q 353 2609 779 3096 
Q 1206 3584 1959 3584 
z
" transform="scale(0.015625)"/>
       <path id="DejaVuSans-6c" d="M 603 4863 
L 1178 4863 
L 1178 0 
L 603 0 
L 603 4863 
z
" transform="scale(0.015625)"/>
       <path id="DejaVuSans-74" d="M 1172 4494 
L 1172 3500 
L 2356 3500 
L 2356 3053 
L 1172 3053 
L 1172 1153 
Q 1172 725 1289 603 
Q 1406 481 1766 481 
L 2356 481 
L 2356 0 
L 1766 0 
Q 1100 0 847 248 
Q 594 497 594 1153 
L 594 3053 
L 172 3053 
L 172 3500 
L 594 3500 
L 594 4494 
L 1172 4494 
z
" transform="scale(0.015625)"/>
       <path id="DejaVuSans-29" d="M 513 4856 
L 1013 4856 
Q 1481 4119 1714 3412 
Q 1947 2706 1947 2009 
Q 1947 1309 1714 600 
Q 1481 -109 1013 -844 
L 513 -844 
Q 928 -128 1133 580 
Q 1338 1288 1338 2009 
Q 1338 2731 1133 3434 
Q 928 4138 513 4856 
z
" transform="scale(0.015625)"/>
      </defs>
      <use xlink:href="#DejaVuSans-56" transform="translate(0 0.015625)"/>
      <use xlink:href="#DejaVuSans-43" transform="translate(69.365234 -16.390625) scale(0.7)"/>
      <use xlink:href="#DejaVuSans-45" transform="translate(118.242188 -16.390625) scale(0.7)"/>
      <use xlink:href="#DejaVuSans-20" transform="translate(165.205078 0.015625)"/>
      <use xlink:href="#DejaVuSans-28" transform="translate(196.992188 0.015625)"/>
      <use xlink:href="#DejaVuSans-56" transform="translate(236.005859 0.015625)"/>
      <use xlink:href="#DejaVuSans-6f" transform="translate(304.414062 0.015625)"/>
      <use xlink:href="#DejaVuSans-6c" transform="translate(365.595703 0.015625)"/>
      <use xlink:href="#DejaVuSans-74" transform="translate(393.378906 0.015625)"/>
      <use xlink:href="#DejaVuSans-29" transform="translate(432.587891 0.015625)"/>
     </g>
    </g>
   </g>
   <g id="matplotlib.axis_2">
    <g id="ytick_1">
     <g id="line2d_13">
      <path d="M 57.6 295.834094 
L 414.72 295.834094 
" clip-path="url(#pad950ba831)" style="fill: none; stroke: #b0b0b0; stroke-width: 0.8; stroke-linecap: square"/>
     </g>
     <g id="line2d_14">
      <defs>
       <path id="m782bc0308e" d="M 0 0 
L -3.5 0 
" style="stroke: #000000; stroke-width: 0.8"/>
      </defs>
      <g>
       <use xlink:href="#m782bc0308e" x="57.6" y="295.834094" style="stroke: #000000; stroke-width: 0.8"/>
      </g>
     </g>
     <g id="text_8">
      <!-- 0 -->
      <g transform="translate(44.2375 299.633313) scale(0.1 -0.1)">
       <use xlink:href="#DejaVuSans-30"/>
      </g>
     </g>
    </g>
    <g id="ytick_2">
     <g id="line2d_15">
      <path d="M 57.6 261.224652 
L 414.72 261.224652 
" clip-path="url(#pad950ba831)" style="fill: none; stroke: #b0b0b0; stroke-width: 0.8; stroke-linecap: square"/>
     </g>
     <g id="line2d_16">
      <g>
       <use xlink:href="#m782bc0308e" x="57.6" y="261.224652" style="stroke: #000000; stroke-width: 0.8"/>
      </g>
     </g>
     <g id="text_9">
      <!-- 1000 -->
      <g transform="translate(25.15 265.023871) scale(0.1 -0.1)">
       <use xlink:href="#DejaVuSans-31"/>
       <use xlink:href="#DejaVuSans-30" transform="translate(63.623047 0)"/>
       <use xlink:href="#DejaVuSans-30" transform="translate(127.246094 0)"/>
       <use xlink:href="#DejaVuSans-30" transform="translate(190.869141 0)"/>
      </g>
     </g>
    </g>
    <g id="ytick_3">
     <g id="line2d_17">
      <path d="M 57.6 226.61521 
L 414.72 226.61521 
" clip-path="url(#pad950ba831)" style="fill: none; stroke: #b0b0b0; stroke-width: 0.8; stroke-linecap: square"/>
     </g>
     <g id="line2d_18">
      <g>
       <use xlink:href="#m782bc0308e" x="57.6" y="226.61521" style="stroke: #000000; stroke-width: 0.8"/>
      </g>
     </g>
     <g id="text_10">
      <!-- 2000 -->
      <g transform="translate(25.15 230.414429) scale(0.1 -0.1)">
       <use xlink:href="#DejaVuSans-32"/>
       <use xlink:href="#DejaVuSans-30" transform="translate(63.623047 0)"/>
       <use xlink:href="#DejaVuSans-30" transform="translate(127.246094 0)"/>
       <use xlink:href="#DejaVuSans-30" transform="translate(190.869141 0)"/>
      </g>
     </g>
    </g>
    <g id="ytick_4">
     <g id="line2d_19">
      <path d="M 57.6 192.005768 
L 414.72 192.005768 
" clip-path="url(#pad950ba831)" style="fill: none; stroke: #b0b0b0; stroke-width: 0.8; stroke-linecap: square"/>
     </g>
     <g id="line2d_20">
      <g>
       <use xlink:href="#m782bc0308e" x="57.6" y="192.005768" style="stroke: #000000; stroke-width: 0.8"/>
      </g>
     </g>
     <g id="text_11">
      <!-- 3000 -->
      <g transform="translate(25.15 195.804987) scale(0.1 -0.1)">
       <defs>
        <path id="DejaVuSans-33" d="M 2597 2516 
Q 3050 2419 3304 2112 
Q 3559 1806 3559 1356 
Q 3559 666 3084 287 
Q 2609 -91 1734 -91 
Q 1441 -91 1130 -33 
Q 819 25 488 141 
L 488 750 
Q 750 597 1062 519 
Q 1375 441 1716 441 
Q 2309 441 2620 675 
Q 2931 909 2931 1356 
Q 2931 1769 2642 2001 
Q 2353 2234 1838 2234 
L 1294 2234 
L 1294 2753 
L 1863 2753 
Q 2328 2753 2575 2939 
Q 2822 3125 2822 3475 
Q 2822 3834 2567 4026 
Q 2313 4219 1838 4219 
Q 1578 4219 1281 4162 
Q 984 4106 628 3988 
L 628 4550 
Q 988 4650 1302 4700 
Q 1616 4750 1894 4750 
Q 2613 4750 3031 4423 
Q 3450 4097 3450 3541 
Q 3450 3153 3228 2886 
Q 3006 2619 2597 2516 
z
" transform="scale(0.015625)"/>
       </defs>
       <use xlink:href="#DejaVuSans-33"/>
       <use xlink:href="#DejaVuSans-30" transform="translate(63.623047 0)"/>
       <use xlink:href="#DejaVuSans-30" transform="translate(127.246094 0)"/>
       <use xlink:href="#DejaVuSans-30" transform="translate(190.869141 0)"/>
      </g>
     </g>
    </g>
    <g id="ytick_5">
     <g id="line2d_21">
      <path d="M 57.6 157.396326 
L 414.72 157.396326 
" clip-path="url(#pad950ba831)" style="fill: none; stroke: #b0b0b0; stroke-width: 0.8; stroke-linecap: square"/>
     </g>
     <g id="line2d_22">
      <g>
       <use xlink:href="#m782bc0308e" x="57.6" y="157.396326" style="stroke: #000000; stroke-width: 0.8"/>
      </g>
     </g>
     <g id="text_12">
      <!-- 4000 -->
      <g transform="translate(25.15 161.195545) scale(0.1 -0.1)">
       <use xlink:href="#DejaVuSans-34"/>
       <use xlink:href="#DejaVuSans-30" transform="translate(63.623047 0)"/>
       <use xlink:href="#DejaVuSans-30" transform="translate(127.246094 0)"/>
       <use xlink:href="#DejaVuSans-30" transform="translate(190.869141 0)"/>
      </g>
     </g>
    </g>
    <g id="ytick_6">
     <g id="line2d_23">
      <path d="M 57.6 122.786884 
L 414.72 122.786884 
" clip-path="url(#pad950ba831)" style="fill: none; stroke: #b0b0b0; stroke-width: 0.8; stroke-linecap: square"/>
     </g>
     <g id="line2d_24">
      <g>
       <use xlink:href="#m782bc0308e" x="57.6" y="122.786884" style="stroke: #000000; stroke-width: 0.8"/>
      </g>
     </g>
     <g id="text_13">
      <!-- 5000 -->
      <g transform="translate(25.15 126.586103) scale(0.1 -0.1)">
       <defs>
        <path id="DejaVuSans-35" d="M 691 4666 
L 3169 4666 
L 3169 4134 
L 1269 4134 
L 1269 2991 
Q 1406 3038 1543 3061 
Q 1681 3084 1819 3084 
Q 2600 3084 3056 2656 
Q 3513 2228 3513 1497 
Q 3513 744 3044 326 
Q 2575 -91 1722 -91 
Q 1428 -91 1123 -41 
Q 819 9 494 109 
L 494 744 
Q 775 591 1075 516 
Q 1375 441 1709 441 
Q 2250 441 2565 725 
Q 2881 1009 2881 1497 
Q 2881 1984 2565 2268 
Q 2250 2553 1709 2553 
Q 1456 2553 1204 2497 
Q 953 2441 691 2322 
L 691 4666 
z
" transform="scale(0.015625)"/>
       </defs>
       <use xlink:href="#DejaVuSans-35"/>
       <use xlink:href="#DejaVuSans-30" transform="translate(63.623047 0)"/>
       <use xlink:href="#DejaVuSans-30" transform="translate(127.246094 0)"/>
       <use xlink:href="#DejaVuSans-30" transform="translate(190.869141 0)"/>
      </g>
     </g>
    </g>
    <g id="ytick_7">
     <g id="line2d_25">
      <path d="M 57.6 88.177442 
L 414.72 88.177442 
" clip-path="url(#pad950ba831)" style="fill: none; stroke: #b0b0b0; stroke-width: 0.8; stroke-linecap: square"/>
     </g>
     <g id="line2d_26">
      <g>
       <use xlink:href="#m782bc0308e" x="57.6" y="88.177442" style="stroke: #000000; stroke-width: 0.8"/>
      </g>
     </g>
     <g id="text_14">
      <!-- 6000 -->
      <g transform="translate(25.15 91.976661) scale(0.1 -0.1)">
       <use xlink:href="#DejaVuSans-36"/>
       <use xlink:href="#DejaVuSans-30" transform="translate(63.623047 0)"/>
       <use xlink:href="#DejaVuSans-30" transform="translate(127.246094 0)"/>
       <use xlink:href="#DejaVuSans-30" transform="translate(190.869141 0)"/>
      </g>
     </g>
    </g>
    <g id="ytick_8">
     <g id="line2d_27">
      <path d="M 57.6 53.568 
L 414.72 53.568 
" clip-path="url(#pad950ba831)" style="fill: none; stroke: #b0b0b0; stroke-width: 0.8; stroke-linecap: square"/>
     </g>
     <g id="line2d_28">
      <g>
       <use xlink:href="#m782bc0308e" x="57.6" y="53.568" style="stroke: #000000; stroke-width: 0.8"/>
      </g>
     </g>
     <g id="text_15">
      <!-- 7000 -->
      <g transform="translate(25.15 57.367219) scale(0.1 -0.1)">
       <defs>
        <path id="DejaVuSans-37" d="M 525 4666 
L 3525 4666 
L 3525 4397 
L 1831 0 
L 1172 0 
L 2766 4134 
L 525 4134 
L 525 4666 
z
" transform="scale(0.015625)"/>
       </defs>
       <use xlink:href="#DejaVuSans-37"/>
       <use xlink:href="#DejaVuSans-30" transform="translate(63.623047 0)"/>
       <use xlink:href="#DejaVuSans-30" transform="translate(127.246094 0)"/>
       <use xlink:href="#DejaVuSans-30" transform="translate(190.869141 0)"/>
      </g>
     </g>
    </g>
    <g id="text_16">
     <!-- $\mathrm{I_C \ (\mu A)}$  -->
     <g transform="translate(19.05 192.378) rotate(-90) scale(0.1 -0.1)">
      <defs>
       <path id="DejaVuSans-49" d="M 628 4666 
L 1259 4666 
L 1259 0 
L 628 0 
L 628 4666 
z
" transform="scale(0.015625)"/>
       <path id="DejaVuSans-3bc" d="M 544 -1331 
L 544 3500 
L 1119 3500 
L 1119 1325 
Q 1119 872 1334 640 
Q 1550 409 1972 409 
Q 2434 409 2667 671 
Q 2900 934 2900 1459 
L 2900 3500 
L 3475 3500 
L 3475 806 
Q 3475 619 3529 530 
Q 3584 441 3700 441 
Q 3728 441 3778 458 
Q 3828 475 3916 513 
L 3916 50 
Q 3788 -22 3673 -56 
Q 3559 -91 3450 -91 
Q 3234 -91 3106 31 
Q 2978 153 2931 403 
Q 2775 156 2548 32 
Q 2322 -91 2016 -91 
Q 1697 -91 1473 31 
Q 1250 153 1119 397 
L 1119 -1331 
L 544 -1331 
z
" transform="scale(0.015625)"/>
       <path id="DejaVuSans-41" d="M 2188 4044 
L 1331 1722 
L 3047 1722 
L 2188 4044 
z
M 1831 4666 
L 2547 4666 
L 4325 0 
L 3669 0 
L 3244 1197 
L 1141 1197 
L 716 0 
L 50 0 
L 1831 4666 
z
" transform="scale(0.015625)"/>
      </defs>
      <use xlink:href="#DejaVuSans-49" transform="translate(0 0.125)"/>
      <use xlink:href="#DejaVuSans-43" transform="translate(30.449219 -16.28125) scale(0.7)"/>
      <use xlink:href="#DejaVuSans-28" transform="translate(114.530925 0.125)"/>
      <use xlink:href="#DejaVuSans-3bc" transform="translate(153.544597 0.125)"/>
      <use xlink:href="#DejaVuSans-41" transform="translate(217.167644 0.125)"/>
      <use xlink:href="#DejaVuSans-29" transform="translate(285.575847 0.125)"/>
      <use xlink:href="#DejaVuSans-20" transform="translate(324.589519 0.125)"/>
     </g>
    </g>
   </g>
   <g id="line2d_29">
    <path d="M 73.832727 295.488 
L 85.832279 278.321717 
L 91.498734 263.924189 
L 95.498585 250.564944 
L 99.498436 234.09085 
L 105.498212 213.117528 
L 108.164779 196.158901 
L 114.831197 179.892464 
L 122.497577 165.010403 
L 129.830637 158.780704 
L 139.163621 152.20491 
L 148.496606 145.629116 
L 212.494217 145.283021 
L 188.828434 144.244738 
L 235.826679 145.629116 
L 304.490782 141.475983 
L 398.487273 141.475983 
" clip-path="url(#pad950ba831)" style="fill: none; stroke: #ff0000; stroke-width: 1.5; stroke-linecap: square"/>
    <defs>
     <path id="maea60efd8b" d="M 0 3 
C 0.795609 3 1.55874 2.683901 2.12132 2.12132 
C 2.683901 1.55874 3 0.795609 3 0 
C 3 -0.795609 2.683901 -1.55874 2.12132 -2.12132 
C 1.55874 -2.683901 0.795609 -3 0 -3 
C -0.795609 -3 -1.55874 -2.683901 -2.12132 -2.12132 
C -2.683901 -1.55874 -3 -0.795609 -3 0 
C -3 0.795609 -2.683901 1.55874 -2.12132 2.12132 
C -1.55874 2.683901 -0.795609 3 0 3 
z
" style="stroke: #ff0000"/>
    </defs>
    <g clip-path="url(#pad950ba831)">
     <use xlink:href="#maea60efd8b" x="73.832727" y="295.488" style="fill: #ff0000; stroke: #ff0000"/>
     <use xlink:href="#maea60efd8b" x="85.832279" y="278.321717" style="fill: #ff0000; stroke: #ff0000"/>
     <use xlink:href="#maea60efd8b" x="91.498734" y="263.924189" style="fill: #ff0000; stroke: #ff0000"/>
     <use xlink:href="#maea60efd8b" x="95.498585" y="250.564944" style="fill: #ff0000; stroke: #ff0000"/>
     <use xlink:href="#maea60efd8b" x="99.498436" y="234.09085" style="fill: #ff0000; stroke: #ff0000"/>
     <use xlink:href="#maea60efd8b" x="105.498212" y="213.117528" style="fill: #ff0000; stroke: #ff0000"/>
     <use xlink:href="#maea60efd8b" x="108.164779" y="196.158901" style="fill: #ff0000; stroke: #ff0000"/>
     <use xlink:href="#maea60efd8b" x="114.831197" y="179.892464" style="fill: #ff0000; stroke: #ff0000"/>
     <use xlink:href="#maea60efd8b" x="122.497577" y="165.010403" style="fill: #ff0000; stroke: #ff0000"/>
     <use xlink:href="#maea60efd8b" x="129.830637" y="158.780704" style="fill: #ff0000; stroke: #ff0000"/>
     <use xlink:href="#maea60efd8b" x="139.163621" y="152.20491" style="fill: #ff0000; stroke: #ff0000"/>
     <use xlink:href="#maea60efd8b" x="148.496606" y="145.629116" style="fill: #ff0000; stroke: #ff0000"/>
     <use xlink:href="#maea60efd8b" x="212.494217" y="145.283021" style="fill: #ff0000; stroke: #ff0000"/>
     <use xlink:href="#maea60efd8b" x="188.828434" y="144.244738" style="fill: #ff0000; stroke: #ff0000"/>
     <use xlink:href="#maea60efd8b" x="235.826679" y="145.629116" style="fill: #ff0000; stroke: #ff0000"/>
     <use xlink:href="#maea60efd8b" x="304.490782" y="141.475983" style="fill: #ff0000; stroke: #ff0000"/>
     <use xlink:href="#maea60efd8b" x="398.487273" y="141.475983" style="fill: #ff0000; stroke: #ff0000"/>
    </g>
   </g>
   <g id="line2d_30">
    <path d="M 74.83269 294.553545 
L 79.165861 290.088927 
L 79.832503 288.427674 
L 81.832429 284.378369 
L 82.49907 283.305476 
L 84.832317 278.079451 
L 85.832279 274.722335 
L 86.832242 272.611159 
L 87.498884 270.326936 
L 88.832167 267.142867 
L 89.165488 265.239348 
L 90.498772 260.670901 
L 91.832055 257.140738 
L 93.165339 251.049476 
L 93.49866 250.980258 
L 93.831981 249.630489 
L 96.498548 240.493597 
L 96.831869 234.575382 
L 105.164891 193.73624 
L 109.164741 177.469803 
L 113.164592 162.587742 
L 118.831047 145.283021 
L 119.164368 142.514266 
L 124.497502 135.592378 
L 127.830711 133.515811 
L 138.49698 129.016584 
L 162.496084 120.364223 
L 212.494217 118.979845 
L 265.825559 118.287657 
L 369.155035 119.672034 
" clip-path="url(#pad950ba831)" style="fill: none; stroke: #0000ff; stroke-width: 1.5; stroke-linecap: square"/>
    <defs>
     <path id="mafe0caa41b" d="M 0 3 
C 0.795609 3 1.55874 2.683901 2.12132 2.12132 
C 2.683901 1.55874 3 0.795609 3 0 
C 3 -0.795609 2.683901 -1.55874 2.12132 -2.12132 
C 1.55874 -2.683901 0.795609 -3 0 -3 
C -0.795609 -3 -1.55874 -2.683901 -2.12132 -2.12132 
C -2.683901 -1.55874 -3 -0.795609 -3 0 
C -3 0.795609 -2.683901 1.55874 -2.12132 2.12132 
C -1.55874 2.683901 -0.795609 3 0 3 
z
" style="stroke: #0000ff"/>
    </defs>
    <g clip-path="url(#pad950ba831)">
     <use xlink:href="#mafe0caa41b" x="74.83269" y="294.553545" style="fill: #0000ff; stroke: #0000ff"/>
     <use xlink:href="#mafe0caa41b" x="79.165861" y="290.088927" style="fill: #0000ff; stroke: #0000ff"/>
     <use xlink:href="#mafe0caa41b" x="79.832503" y="288.427674" style="fill: #0000ff; stroke: #0000ff"/>
     <use xlink:href="#mafe0caa41b" x="81.832429" y="284.378369" style="fill: #0000ff; stroke: #0000ff"/>
     <use xlink:href="#mafe0caa41b" x="82.49907" y="283.305476" style="fill: #0000ff; stroke: #0000ff"/>
     <use xlink:href="#mafe0caa41b" x="84.832317" y="278.079451" style="fill: #0000ff; stroke: #0000ff"/>
     <use xlink:href="#mafe0caa41b" x="85.832279" y="274.722335" style="fill: #0000ff; stroke: #0000ff"/>
     <use xlink:href="#mafe0caa41b" x="86.832242" y="272.611159" style="fill: #0000ff; stroke: #0000ff"/>
     <use xlink:href="#mafe0caa41b" x="87.498884" y="270.326936" style="fill: #0000ff; stroke: #0000ff"/>
     <use xlink:href="#mafe0caa41b" x="88.832167" y="267.142867" style="fill: #0000ff; stroke: #0000ff"/>
     <use xlink:href="#mafe0caa41b" x="89.165488" y="265.239348" style="fill: #0000ff; stroke: #0000ff"/>
     <use xlink:href="#mafe0caa41b" x="90.498772" y="260.670901" style="fill: #0000ff; stroke: #0000ff"/>
     <use xlink:href="#mafe0caa41b" x="91.832055" y="257.140738" style="fill: #0000ff; stroke: #0000ff"/>
     <use xlink:href="#mafe0caa41b" x="93.165339" y="251.049476" style="fill: #0000ff; stroke: #0000ff"/>
     <use xlink:href="#mafe0caa41b" x="93.49866" y="250.980258" style="fill: #0000ff; stroke: #0000ff"/>
     <use xlink:href="#mafe0caa41b" x="93.831981" y="249.630489" style="fill: #0000ff; stroke: #0000ff"/>
     <use xlink:href="#mafe0caa41b" x="96.498548" y="240.493597" style="fill: #0000ff; stroke: #0000ff"/>
     <use xlink:href="#mafe0caa41b" x="96.831869" y="234.575382" style="fill: #0000ff; stroke: #0000ff"/>
     <use xlink:href="#mafe0caa41b" x="105.164891" y="193.73624" style="fill: #0000ff; stroke: #0000ff"/>
     <use xlink:href="#mafe0caa41b" x="109.164741" y="177.469803" style="fill: #0000ff; stroke: #0000ff"/>
     <use xlink:href="#mafe0caa41b" x="113.164592" y="162.587742" style="fill: #0000ff; stroke: #0000ff"/>
     <use xlink:href="#mafe0caa41b" x="118.831047" y="145.283021" style="fill: #0000ff; stroke: #0000ff"/>
     <use xlink:href="#mafe0caa41b" x="119.164368" y="142.514266" style="fill: #0000ff; stroke: #0000ff"/>
     <use xlink:href="#mafe0caa41b" x="124.497502" y="135.592378" style="fill: #0000ff; stroke: #0000ff"/>
     <use xlink:href="#mafe0caa41b" x="127.830711" y="133.515811" style="fill: #0000ff; stroke: #0000ff"/>
     <use xlink:href="#mafe0caa41b" x="138.49698" y="129.016584" style="fill: #0000ff; stroke: #0000ff"/>
     <use xlink:href="#mafe0caa41b" x="162.496084" y="120.364223" style="fill: #0000ff; stroke: #0000ff"/>
     <use xlink:href="#mafe0caa41b" x="212.494217" y="118.979845" style="fill: #0000ff; stroke: #0000ff"/>
     <use xlink:href="#mafe0caa41b" x="265.825559" y="118.287657" style="fill: #0000ff; stroke: #0000ff"/>
     <use xlink:href="#mafe0caa41b" x="369.155035" y="119.672034" style="fill: #0000ff; stroke: #0000ff"/>
    </g>
   </g>
   <g id="line2d_31">
    <path d="M 73.832727 295.418781 
L 85.832279 265.862318 
L 92.832018 236.167416 
L 99.165115 195.812807 
L 103.831607 166.394781 
L 108.831421 132.131433 
L 117.164443 97.521991 
L 121.497614 81.947742 
L 128.164032 63.950833 
L 135.163771 58.759416 
L 201.827948 57.375039 
L 250.159477 57.028944 
L 379.487982 53.568 
" clip-path="url(#pad950ba831)" style="fill: none; stroke: #008000; stroke-width: 1.5; stroke-linecap: square"/>
    <defs>
     <path id="md906b1e32e" d="M 0 3 
C 0.795609 3 1.55874 2.683901 2.12132 2.12132 
C 2.683901 1.55874 3 0.795609 3 0 
C 3 -0.795609 2.683901 -1.55874 2.12132 -2.12132 
C 1.55874 -2.683901 0.795609 -3 0 -3 
C -0.795609 -3 -1.55874 -2.683901 -2.12132 -2.12132 
C -2.683901 -1.55874 -3 -0.795609 -3 0 
C -3 0.795609 -2.683901 1.55874 -2.12132 2.12132 
C -1.55874 2.683901 -0.795609 3 0 3 
z
" style="stroke: #008000"/>
    </defs>
    <g clip-path="url(#pad950ba831)">
     <use xlink:href="#md906b1e32e" x="73.832727" y="295.418781" style="fill: #008000; stroke: #008000"/>
     <use xlink:href="#md906b1e32e" x="85.832279" y="265.862318" style="fill: #008000; stroke: #008000"/>
     <use xlink:href="#md906b1e32e" x="92.832018" y="236.167416" style="fill: #008000; stroke: #008000"/>
     <use xlink:href="#md906b1e32e" x="99.165115" y="195.812807" style="fill: #008000; stroke: #008000"/>
     <use xlink:href="#md906b1e32e" x="103.831607" y="166.394781" style="fill: #008000; stroke: #008000"/>
     <use xlink:href="#md906b1e32e" x="108.831421" y="132.131433" style="fill: #008000; stroke: #008000"/>
     <use xlink:href="#md906b1e32e" x="117.164443" y="97.521991" style="fill: #008000; stroke: #008000"/>
     <use xlink:href="#md906b1e32e" x="121.497614" y="81.947742" style="fill: #008000; stroke: #008000"/>
     <use xlink:href="#md906b1e32e" x="128.164032" y="63.950833" style="fill: #008000; stroke: #008000"/>
     <use xlink:href="#md906b1e32e" x="135.163771" y="58.759416" style="fill: #008000; stroke: #008000"/>
     <use xlink:href="#md906b1e32e" x="201.827948" y="57.375039" style="fill: #008000; stroke: #008000"/>
     <use xlink:href="#md906b1e32e" x="250.159477" y="57.028944" style="fill: #008000; stroke: #008000"/>
     <use xlink:href="#md906b1e32e" x="379.487982" y="53.568" style="fill: #008000; stroke: #008000"/>
    </g>
   </g>
   <g id="patch_3">
    <path d="M 57.6 307.584 
L 57.6 41.472 
" style="fill: none; stroke: #000000; stroke-width: 0.8; stroke-linejoin: miter; stroke-linecap: square"/>
   </g>
   <g id="patch_4">
    <path d="M 414.72 307.584 
L 414.72 41.472 
" style="fill: none; stroke: #000000; stroke-width: 0.8; stroke-linejoin: miter; stroke-linecap: square"/>
   </g>
   <g id="patch_5">
    <path d="M 57.6 307.584 
L 414.72 307.584 
" style="fill: none; stroke: #000000; stroke-width: 0.8; stroke-linejoin: miter; stroke-linecap: square"/>
   </g>
   <g id="patch_6">
    <path d="M 57.6 41.472 
L 414.72 41.472 
" style="fill: none; stroke: #000000; stroke-width: 0.8; stroke-linejoin: miter; stroke-linecap: square"/>
   </g>
   <g id="legend_1">
    <g id="patch_7">
     <path d="M 326.12 302.584 
L 407.72 302.584 
Q 409.72 302.584 409.72 300.584 
L 409.72 257.488687 
Q 409.72 255.488687 407.72 255.488687 
L 326.12 255.488687 
Q 324.12 255.488687 324.12 257.488687 
L 324.12 300.584 
Q 324.12 302.584 326.12 302.584 
z
" style="fill: #ffffff; opacity: 0.8; stroke: #cccccc; stroke-linejoin: miter"/>
    </g>
    <g id="line2d_32">
     <path d="M 328.12 263.587125 
L 338.12 263.587125 
L 348.12 263.587125 
" style="fill: none; stroke: #ff0000; stroke-width: 1.5; stroke-linecap: square"/>
     <g>
      <use xlink:href="#maea60efd8b" x="338.12" y="263.587125" style="fill: #ff0000; stroke: #ff0000"/>
     </g>
    </g>
    <g id="text_17">
     <!-- $\mathrm{I_B = 25 \ \mu A}$ -->
     <g transform="translate(356.12 267.087125) scale(0.1 -0.1)">
      <defs>
       <path id="DejaVuSans-42" d="M 1259 2228 
L 1259 519 
L 2272 519 
Q 2781 519 3026 730 
Q 3272 941 3272 1375 
Q 3272 1813 3026 2020 
Q 2781 2228 2272 2228 
L 1259 2228 
z
M 1259 4147 
L 1259 2741 
L 2194 2741 
Q 2656 2741 2882 2914 
Q 3109 3088 3109 3444 
Q 3109 3797 2882 3972 
Q 2656 4147 2194 4147 
L 1259 4147 
z
M 628 4666 
L 2241 4666 
Q 2963 4666 3353 4366 
Q 3744 4066 3744 3513 
Q 3744 3084 3544 2831 
Q 3344 2578 2956 2516 
Q 3422 2416 3680 2098 
Q 3938 1781 3938 1306 
Q 3938 681 3513 340 
Q 3088 0 2303 0 
L 628 0 
L 628 4666 
z
" transform="scale(0.015625)"/>
       <path id="DejaVuSans-3d" d="M 678 2906 
L 4684 2906 
L 4684 2381 
L 678 2381 
L 678 2906 
z
M 678 1631 
L 4684 1631 
L 4684 1100 
L 678 1100 
L 678 1631 
z
" transform="scale(0.015625)"/>
      </defs>
      <use xlink:href="#DejaVuSans-49" transform="translate(0 0.78125)"/>
      <use xlink:href="#DejaVuSans-42" transform="translate(30.449219 -15.625) scale(0.7)"/>
      <use xlink:href="#DejaVuSans-3d" transform="translate(100.688477 0.78125)"/>
      <use xlink:href="#DejaVuSans-32" transform="translate(203.959961 0.78125)"/>
      <use xlink:href="#DejaVuSans-35" transform="translate(267.583008 0.78125)"/>
      <use xlink:href="#DejaVuSans-3bc" transform="translate(363.676433 0.78125)"/>
      <use xlink:href="#DejaVuSans-41" transform="translate(427.29948 0.78125)"/>
     </g>
    </g>
    <g id="line2d_33">
     <path d="M 328.12 278.285562 
L 338.12 278.285562 
L 348.12 278.285562 
" style="fill: none; stroke: #0000ff; stroke-width: 1.5; stroke-linecap: square"/>
     <g>
      <use xlink:href="#mafe0caa41b" x="338.12" y="278.285562" style="fill: #0000ff; stroke: #0000ff"/>
     </g>
    </g>
    <g id="text_18">
     <!-- $\mathrm{I_B = 30 \ \mu A}$ -->
     <g transform="translate(356.12 281.785562) scale(0.1 -0.1)">
      <use xlink:href="#DejaVuSans-49" transform="translate(0 0.78125)"/>
      <use xlink:href="#DejaVuSans-42" transform="translate(30.449219 -15.625) scale(0.7)"/>
      <use xlink:href="#DejaVuSans-3d" transform="translate(100.688477 0.78125)"/>
      <use xlink:href="#DejaVuSans-33" transform="translate(203.959961 0.78125)"/>
      <use xlink:href="#DejaVuSans-30" transform="translate(267.583008 0.78125)"/>
      <use xlink:href="#DejaVuSans-3bc" transform="translate(363.676433 0.78125)"/>
      <use xlink:href="#DejaVuSans-41" transform="translate(427.29948 0.78125)"/>
     </g>
    </g>
    <g id="line2d_34">
     <path d="M 328.12 292.984 
L 338.12 292.984 
L 348.12 292.984 
" style="fill: none; stroke: #008000; stroke-width: 1.5; stroke-linecap: square"/>
     <g>
      <use xlink:href="#md906b1e32e" x="338.12" y="292.984" style="fill: #008000; stroke: #008000"/>
     </g>
    </g>
    <g id="text_19">
     <!-- $\mathrm{I_B = 40 \ \mu A}$ -->
     <g transform="translate(356.12 296.484) scale(0.1 -0.1)">
      <use xlink:href="#DejaVuSans-49" transform="translate(0 0.78125)"/>
      <use xlink:href="#DejaVuSans-42" transform="translate(30.449219 -15.625) scale(0.7)"/>
      <use xlink:href="#DejaVuSans-3d" transform="translate(100.688477 0.78125)"/>
      <use xlink:href="#DejaVuSans-34" transform="translate(203.959961 0.78125)"/>
      <use xlink:href="#DejaVuSans-30" transform="translate(267.583008 0.78125)"/>
      <use xlink:href="#DejaVuSans-3bc" transform="translate(363.676433 0.78125)"/>
      <use xlink:href="#DejaVuSans-41" transform="translate(427.29948 0.78125)"/>
     </g>
    </g>
   </g>
  </g>
 </g>
 <defs>
  <clipPath id="pad950ba831">
   <rect x="57.6" y="41.472" width="357.12" height="266.112"/>
  </clipPath>
 </defs>
</svg>
